<?xml version="1.0" encoding="UTF-8" standalone="no"?>
<!-- Created with Inkscape (http://www.inkscape.org/) -->

<svg
   xmlns:dc="http://purl.org/dc/elements/1.1/"
   xmlns:cc="http://creativecommons.org/ns#"
   xmlns:rdf="http://www.w3.org/1999/02/22-rdf-syntax-ns#"
   xmlns:svg="http://www.w3.org/2000/svg"
   xmlns="http://www.w3.org/2000/svg"
   xmlns:sodipodi="http://sodipodi.sourceforge.net/DTD/sodipodi-0.dtd"
   xmlns:inkscape="http://www.inkscape.org/namespaces/inkscape"
   width="113.04351mm"
   height="72.379524mm"
   viewBox="0 0 113.04351 72.379524"
   version="1.1"
   id="svg211"
   inkscape:version="0.92.5 (2060ec1f9f, 2020-04-08)"
   sodipodi:docname="04_faza.svg">
  <defs
     id="defs205">
    <marker
       inkscape:isstock="true"
       style="overflow:visible"
       id="marker18155"
       refX="0"
       refY="0"
       orient="auto"
       inkscape:stockid="Arrow1Mstart">
      <path
         inkscape:connector-curvature="0"
         transform="matrix(0.4,0,0,0.4,4,0)"
         style="fill:#000000;fill-opacity:1;fill-rule:evenodd;stroke:#000000;stroke-width:1.00000003pt;stroke-opacity:1"
         d="M 0,0 5,-5 -12.5,0 5,5 Z"
         id="path18153" />
    </marker>
    <marker
       inkscape:isstock="true"
       style="overflow:visible"
       id="marker15778"
       refX="0"
       refY="0"
       orient="auto"
       inkscape:stockid="Arrow1Mend">
      <path
         transform="matrix(-0.4,0,0,-0.4,-4,0)"
         style="fill:#d40000;fill-opacity:1;fill-rule:evenodd;stroke:#d40000;stroke-width:1.00000003pt;stroke-opacity:1"
         d="M 0,0 5,-5 -12.5,0 5,5 Z"
         id="path15776"
         inkscape:connector-curvature="0" />
    </marker>
    <marker
       inkscape:isstock="true"
       style="overflow:visible"
       id="marker14070"
       refX="0"
       refY="0"
       orient="auto"
       inkscape:stockid="Arrow1Mend">
      <path
         transform="matrix(-0.4,0,0,-0.4,-4,0)"
         style="fill:#d40000;fill-opacity:1;fill-rule:evenodd;stroke:#d40000;stroke-width:1.00000003pt;stroke-opacity:1"
         d="M 0,0 5,-5 -12.5,0 5,5 Z"
         id="path14068"
         inkscape:connector-curvature="0" />
    </marker>
    <marker
       inkscape:stockid="StopL"
       orient="auto"
       refY="0"
       refX="0"
       id="StopL"
       style="overflow:visible"
       inkscape:isstock="true">
      <path
         id="path1616"
         d="M 0,5.65 V -5.65"
         style="fill:#666666;fill-opacity:1;fill-rule:evenodd;stroke:#666666;stroke-width:1.00000003pt;stroke-opacity:1"
         transform="scale(0.8)"
         inkscape:connector-curvature="0" />
    </marker>
    <marker
       inkscape:stockid="Arrow1Mstart"
       orient="auto"
       refY="0"
       refX="0"
       id="Arrow1Mstart-7"
       style="overflow:visible"
       inkscape:isstock="true">
      <path
         inkscape:connector-curvature="0"
         id="path1453-0"
         d="M 0,0 5,-5 -12.5,0 5,5 Z"
         style="fill:#000000;fill-opacity:1;fill-rule:evenodd;stroke:#000000;stroke-width:1.00000003pt;stroke-opacity:1"
         transform="matrix(0.4,0,0,0.4,4,0)" />
    </marker>
    <marker
       inkscape:stockid="Arrow1Mstart"
       orient="auto"
       refY="0"
       refX="0"
       id="Arrow1Mstart-3"
       style="overflow:visible"
       inkscape:isstock="true">
      <path
         inkscape:connector-curvature="0"
         id="path1453-6"
         d="M 0,0 5,-5 -12.5,0 5,5 Z"
         style="fill:#000000;fill-opacity:1;fill-rule:evenodd;stroke:#000000;stroke-width:1.00000003pt;stroke-opacity:1"
         transform="matrix(0.4,0,0,0.4,4,0)" />
    </marker>
    <marker
       inkscape:stockid="Arrow1Mend"
       orient="auto"
       refY="0"
       refX="0"
       id="Arrow1Mend-1"
       style="overflow:visible"
       inkscape:isstock="true">
      <path
         inkscape:connector-curvature="0"
         id="path1456-2"
         d="M 0,0 5,-5 -12.5,0 5,5 Z"
         style="fill:#000000;fill-opacity:1;fill-rule:evenodd;stroke:#000000;stroke-width:1.00000003pt;stroke-opacity:1"
         transform="matrix(-0.4,0,0,-0.4,-4,0)" />
    </marker>
    <marker
       inkscape:stockid="Arrow1Mstart"
       orient="auto"
       refY="0"
       refX="0"
       id="Arrow1Mstart-7-9"
       style="overflow:visible"
       inkscape:isstock="true">
      <path
         inkscape:connector-curvature="0"
         id="path1453-0-3"
         d="M 0,0 5,-5 -12.5,0 5,5 Z"
         style="fill:#000000;fill-opacity:1;fill-rule:evenodd;stroke:#000000;stroke-width:1.00000003pt;stroke-opacity:1"
         transform="matrix(0.4,0,0,0.4,4,0)" />
    </marker>
    <marker
       inkscape:stockid="Arrow1Mend"
       orient="auto"
       refY="0"
       refX="0"
       id="Arrow1Mend-9-1"
       style="overflow:visible"
       inkscape:isstock="true">
      <path
         inkscape:connector-curvature="0"
         id="path1456-3-9"
         d="M 0,0 5,-5 -12.5,0 5,5 Z"
         style="fill:#000000;fill-opacity:1;fill-rule:evenodd;stroke:#000000;stroke-width:1.00000003pt;stroke-opacity:1"
         transform="matrix(-0.4,0,0,-0.4,-4,0)" />
    </marker>
    <marker
       inkscape:stockid="Arrow1Mstart"
       orient="auto"
       refY="0"
       refX="0"
       id="Arrow1Mstart-3-6"
       style="overflow:visible"
       inkscape:isstock="true">
      <path
         inkscape:connector-curvature="0"
         id="path1453-6-1"
         d="M 0,0 5,-5 -12.5,0 5,5 Z"
         style="fill:#000000;fill-opacity:1;fill-rule:evenodd;stroke:#000000;stroke-width:1.00000003pt;stroke-opacity:1"
         transform="matrix(0.4,0,0,0.4,4,0)" />
    </marker>
    <marker
       inkscape:stockid="Arrow1Mend"
       orient="auto"
       refY="0"
       refX="0"
       id="Arrow1Mend-1-0"
       style="overflow:visible"
       inkscape:isstock="true">
      <path
         inkscape:connector-curvature="0"
         id="path1456-2-6"
         d="M 0,0 5,-5 -12.5,0 5,5 Z"
         style="fill:#000000;fill-opacity:1;fill-rule:evenodd;stroke:#000000;stroke-width:1.00000003pt;stroke-opacity:1"
         transform="matrix(-0.4,0,0,-0.4,-4,0)" />
    </marker>
    <marker
       inkscape:stockid="Arrow1Mstart"
       orient="auto"
       refY="0"
       refX="0"
       id="Arrow1Mstart-7-9-6"
       style="overflow:visible"
       inkscape:isstock="true">
      <path
         inkscape:connector-curvature="0"
         id="path1453-0-3-1"
         d="M 0,0 5,-5 -12.5,0 5,5 Z"
         style="fill:#000000;fill-opacity:1;fill-rule:evenodd;stroke:#000000;stroke-width:1.00000003pt;stroke-opacity:1"
         transform="matrix(0.4,0,0,0.4,4,0)" />
    </marker>
    <marker
       inkscape:stockid="Arrow1Mend"
       orient="auto"
       refY="0"
       refX="0"
       id="Arrow1Mend-9-1-5"
       style="overflow:visible"
       inkscape:isstock="true">
      <path
         inkscape:connector-curvature="0"
         id="path1456-3-9-5"
         d="M 0,0 5,-5 -12.5,0 5,5 Z"
         style="fill:#000000;fill-opacity:1;fill-rule:evenodd;stroke:#000000;stroke-width:1.00000003pt;stroke-opacity:1"
         transform="matrix(-0.4,0,0,-0.4,-4,0)" />
    </marker>
    <marker
       inkscape:isstock="true"
       style="overflow:visible"
       id="marker14070-4"
       refX="0"
       refY="0"
       orient="auto"
       inkscape:stockid="Arrow1Mend">
      <path
         transform="matrix(-0.4,0,0,-0.4,-4,0)"
         style="fill:#d40000;fill-opacity:1;fill-rule:evenodd;stroke:#d40000;stroke-width:1.00000003pt;stroke-opacity:1"
         d="M 0,0 5,-5 -12.5,0 5,5 Z"
         id="path14068-5"
         inkscape:connector-curvature="0" />
    </marker>
    <marker
       inkscape:isstock="true"
       style="overflow:visible"
       id="marker18155-3"
       refX="0"
       refY="0"
       orient="auto"
       inkscape:stockid="Arrow1Mstart">
      <path
         inkscape:connector-curvature="0"
         transform="matrix(0.4,0,0,0.4,4,0)"
         style="fill:#000000;fill-opacity:1;fill-rule:evenodd;stroke:#000000;stroke-width:1.00000003pt;stroke-opacity:1"
         d="M 0,0 5,-5 -12.5,0 5,5 Z"
         id="path18153-0" />
    </marker>
    <marker
       inkscape:isstock="true"
       style="overflow:visible"
       id="marker14070-8"
       refX="0"
       refY="0"
       orient="auto"
       inkscape:stockid="Arrow1Mend">
      <path
         transform="matrix(-0.4,0,0,-0.4,-4,0)"
         style="fill:#d40000;fill-opacity:1;fill-rule:evenodd;stroke:#d40000;stroke-width:1.00000003pt;stroke-opacity:1"
         d="M 0,0 5,-5 -12.5,0 5,5 Z"
         id="path14068-8"
         inkscape:connector-curvature="0" />
    </marker>
    <marker
       inkscape:isstock="true"
       style="overflow:visible"
       id="marker15778-3"
       refX="0"
       refY="0"
       orient="auto"
       inkscape:stockid="Arrow1Mend">
      <path
         transform="matrix(-0.4,0,0,-0.4,-4,0)"
         style="fill:#d40000;fill-opacity:1;fill-rule:evenodd;stroke:#d40000;stroke-width:1.00000003pt;stroke-opacity:1"
         d="M 0,0 5,-5 -12.5,0 5,5 Z"
         id="path15776-6"
         inkscape:connector-curvature="0" />
    </marker>
    <marker
       inkscape:isstock="true"
       style="overflow:visible"
       id="marker15778-3-5"
       refX="0"
       refY="0"
       orient="auto"
       inkscape:stockid="Arrow1Mend">
      <path
         transform="matrix(-0.4,0,0,-0.4,-4,0)"
         style="fill:#d40000;fill-opacity:1;fill-rule:evenodd;stroke:#d40000;stroke-width:1.00000003pt;stroke-opacity:1"
         d="M 0,0 5,-5 -12.5,0 5,5 Z"
         id="path15776-6-3"
         inkscape:connector-curvature="0" />
    </marker>
    <marker
       inkscape:isstock="true"
       style="overflow:visible"
       id="marker15778-3-5-6"
       refX="0"
       refY="0"
       orient="auto"
       inkscape:stockid="Arrow1Mend">
      <path
         transform="matrix(-0.4,0,0,-0.4,-4,0)"
         style="fill:#d40000;fill-opacity:1;fill-rule:evenodd;stroke:#d40000;stroke-width:1.00000003pt;stroke-opacity:1"
         d="M 0,0 5,-5 -12.5,0 5,5 Z"
         id="path15776-6-3-2"
         inkscape:connector-curvature="0" />
    </marker>
    <marker
       inkscape:isstock="true"
       style="overflow:visible"
       id="marker15778-3-9"
       refX="0"
       refY="0"
       orient="auto"
       inkscape:stockid="Arrow1Mend">
      <path
         transform="matrix(-0.4,0,0,-0.4,-4,0)"
         style="fill:#d40000;fill-opacity:1;fill-rule:evenodd;stroke:#d40000;stroke-width:1.00000003pt;stroke-opacity:1"
         d="M 0,0 5,-5 -12.5,0 5,5 Z"
         id="path15776-6-1"
         inkscape:connector-curvature="0" />
    </marker>
    <marker
       inkscape:isstock="true"
       style="overflow:visible"
       id="marker15778-0"
       refX="0"
       refY="0"
       orient="auto"
       inkscape:stockid="Arrow1Mend">
      <path
         transform="matrix(-0.4,0,0,-0.4,-4,0)"
         style="fill:#d40000;fill-opacity:1;fill-rule:evenodd;stroke:#d40000;stroke-width:1.00000003pt;stroke-opacity:1"
         d="M 0,0 5,-5 -12.5,0 5,5 Z"
         id="path15776-9"
         inkscape:connector-curvature="0" />
    </marker>
    <marker
       inkscape:isstock="true"
       style="overflow:visible"
       id="marker15778-3-3"
       refX="0"
       refY="0"
       orient="auto"
       inkscape:stockid="Arrow1Mend">
      <path
         transform="matrix(-0.4,0,0,-0.4,-4,0)"
         style="fill:#d40000;fill-opacity:1;fill-rule:evenodd;stroke:#d40000;stroke-width:1.00000003pt;stroke-opacity:1"
         d="M 0,0 5,-5 -12.5,0 5,5 Z"
         id="path15776-6-6"
         inkscape:connector-curvature="0" />
    </marker>
    <marker
       inkscape:isstock="true"
       style="overflow:visible"
       id="marker15778-3-5-0"
       refX="0"
       refY="0"
       orient="auto"
       inkscape:stockid="Arrow1Mend">
      <path
         transform="matrix(-0.4,0,0,-0.4,-4,0)"
         style="fill:#d40000;fill-opacity:1;fill-rule:evenodd;stroke:#d40000;stroke-width:1.00000003pt;stroke-opacity:1"
         d="M 0,0 5,-5 -12.5,0 5,5 Z"
         id="path15776-6-3-6"
         inkscape:connector-curvature="0" />
    </marker>
    <marker
       inkscape:isstock="true"
       style="overflow:visible"
       id="marker15778-3-9-2"
       refX="0"
       refY="0"
       orient="auto"
       inkscape:stockid="Arrow1Mend">
      <path
         transform="matrix(-0.4,0,0,-0.4,-4,0)"
         style="fill:#d40000;fill-opacity:1;fill-rule:evenodd;stroke:#d40000;stroke-width:1.00000003pt;stroke-opacity:1"
         d="M 0,0 5,-5 -12.5,0 5,5 Z"
         id="path15776-6-1-6"
         inkscape:connector-curvature="0" />
    </marker>
    <marker
       inkscape:isstock="true"
       style="overflow:visible"
       id="marker15778-3-5-6-1"
       refX="0"
       refY="0"
       orient="auto"
       inkscape:stockid="Arrow1Mend">
      <path
         transform="matrix(-0.4,0,0,-0.4,-4,0)"
         style="fill:#d40000;fill-opacity:1;fill-rule:evenodd;stroke:#d40000;stroke-width:1.00000003pt;stroke-opacity:1"
         d="M 0,0 5,-5 -12.5,0 5,5 Z"
         id="path15776-6-3-2-8"
         inkscape:connector-curvature="0" />
    </marker>
    <marker
       inkscape:isstock="true"
       style="overflow:visible"
       id="marker15778-5"
       refX="0"
       refY="0"
       orient="auto"
       inkscape:stockid="Arrow1Mend">
      <path
         transform="matrix(-0.4,0,0,-0.4,-4,0)"
         style="fill:#d40000;fill-opacity:1;fill-rule:evenodd;stroke:#d40000;stroke-width:1.00000003pt;stroke-opacity:1"
         d="M 0,0 5,-5 -12.5,0 5,5 Z"
         id="path15776-92"
         inkscape:connector-curvature="0" />
    </marker>
    <marker
       inkscape:isstock="true"
       style="overflow:visible"
       id="marker15778-3-2"
       refX="0"
       refY="0"
       orient="auto"
       inkscape:stockid="Arrow1Mend">
      <path
         transform="matrix(-0.4,0,0,-0.4,-4,0)"
         style="fill:#d40000;fill-opacity:1;fill-rule:evenodd;stroke:#d40000;stroke-width:1.00000003pt;stroke-opacity:1"
         d="M 0,0 5,-5 -12.5,0 5,5 Z"
         id="path15776-6-8"
         inkscape:connector-curvature="0" />
    </marker>
    <marker
       inkscape:isstock="true"
       style="overflow:visible"
       id="marker15778-3-5-9"
       refX="0"
       refY="0"
       orient="auto"
       inkscape:stockid="Arrow1Mend">
      <path
         transform="matrix(-0.4,0,0,-0.4,-4,0)"
         style="fill:#d40000;fill-opacity:1;fill-rule:evenodd;stroke:#d40000;stroke-width:1.00000003pt;stroke-opacity:1"
         d="M 0,0 5,-5 -12.5,0 5,5 Z"
         id="path15776-6-3-7"
         inkscape:connector-curvature="0" />
    </marker>
    <marker
       inkscape:isstock="true"
       style="overflow:visible"
       id="marker15778-3-9-3"
       refX="0"
       refY="0"
       orient="auto"
       inkscape:stockid="Arrow1Mend">
      <path
         transform="matrix(-0.4,0,0,-0.4,-4,0)"
         style="fill:#d40000;fill-opacity:1;fill-rule:evenodd;stroke:#d40000;stroke-width:1.00000003pt;stroke-opacity:1"
         d="M 0,0 5,-5 -12.5,0 5,5 Z"
         id="path15776-6-1-61"
         inkscape:connector-curvature="0" />
    </marker>
    <marker
       inkscape:isstock="true"
       style="overflow:visible"
       id="marker15778-3-5-6-2"
       refX="0"
       refY="0"
       orient="auto"
       inkscape:stockid="Arrow1Mend">
      <path
         transform="matrix(-0.4,0,0,-0.4,-4,0)"
         style="fill:#d40000;fill-opacity:1;fill-rule:evenodd;stroke:#d40000;stroke-width:1.00000003pt;stroke-opacity:1"
         d="M 0,0 5,-5 -12.5,0 5,5 Z"
         id="path15776-6-3-2-9"
         inkscape:connector-curvature="0" />
    </marker>
    <marker
       inkscape:isstock="true"
       style="overflow:visible"
       id="marker15778-0-3"
       refX="0"
       refY="0"
       orient="auto"
       inkscape:stockid="Arrow1Mend">
      <path
         transform="matrix(-0.4,0,0,-0.4,-4,0)"
         style="fill:#d40000;fill-opacity:1;fill-rule:evenodd;stroke:#d40000;stroke-width:1.00000003pt;stroke-opacity:1"
         d="M 0,0 5,-5 -12.5,0 5,5 Z"
         id="path15776-9-1"
         inkscape:connector-curvature="0" />
    </marker>
    <marker
       inkscape:isstock="true"
       style="overflow:visible"
       id="marker15778-3-3-9"
       refX="0"
       refY="0"
       orient="auto"
       inkscape:stockid="Arrow1Mend">
      <path
         transform="matrix(-0.4,0,0,-0.4,-4,0)"
         style="fill:#d40000;fill-opacity:1;fill-rule:evenodd;stroke:#d40000;stroke-width:1.00000003pt;stroke-opacity:1"
         d="M 0,0 5,-5 -12.5,0 5,5 Z"
         id="path15776-6-6-4"
         inkscape:connector-curvature="0" />
    </marker>
    <marker
       inkscape:isstock="true"
       style="overflow:visible"
       id="marker15778-3-5-0-7"
       refX="0"
       refY="0"
       orient="auto"
       inkscape:stockid="Arrow1Mend">
      <path
         transform="matrix(-0.4,0,0,-0.4,-4,0)"
         style="fill:#d40000;fill-opacity:1;fill-rule:evenodd;stroke:#d40000;stroke-width:1.00000003pt;stroke-opacity:1"
         d="M 0,0 5,-5 -12.5,0 5,5 Z"
         id="path15776-6-3-6-8"
         inkscape:connector-curvature="0" />
    </marker>
    <marker
       inkscape:isstock="true"
       style="overflow:visible"
       id="marker15778-3-9-2-4"
       refX="0"
       refY="0"
       orient="auto"
       inkscape:stockid="Arrow1Mend">
      <path
         transform="matrix(-0.4,0,0,-0.4,-4,0)"
         style="fill:#d40000;fill-opacity:1;fill-rule:evenodd;stroke:#d40000;stroke-width:1.00000003pt;stroke-opacity:1"
         d="M 0,0 5,-5 -12.5,0 5,5 Z"
         id="path15776-6-1-6-5"
         inkscape:connector-curvature="0" />
    </marker>
    <marker
       inkscape:isstock="true"
       style="overflow:visible"
       id="marker15778-3-5-6-1-0"
       refX="0"
       refY="0"
       orient="auto"
       inkscape:stockid="Arrow1Mend">
      <path
         transform="matrix(-0.4,0,0,-0.4,-4,0)"
         style="fill:#d40000;fill-opacity:1;fill-rule:evenodd;stroke:#d40000;stroke-width:1.00000003pt;stroke-opacity:1"
         d="M 0,0 5,-5 -12.5,0 5,5 Z"
         id="path15776-6-3-2-8-3"
         inkscape:connector-curvature="0" />
    </marker>
  </defs>
  <sodipodi:namedview
     id="base"
     pagecolor="#ffffff"
     bordercolor="#666666"
     borderopacity="1.0"
     inkscape:pageopacity="0.0"
     inkscape:pageshadow="2"
     inkscape:zoom="0.75097658"
     inkscape:cx="558.27786"
     inkscape:cy="112.593"
     inkscape:document-units="mm"
     inkscape:current-layer="layer1"
     showgrid="false"
     inkscape:snap-bbox="true"
     fit-margin-top="0"
     fit-margin-left="0"
     fit-margin-right="0"
     fit-margin-bottom="0"
     inkscape:window-width="1174"
     inkscape:window-height="949"
     inkscape:window-x="434"
     inkscape:window-y="209"
     inkscape:window-maximized="0"
     inkscape:snap-global="true" />
  <metadata
     id="metadata208">
    <rdf:RDF>
      <cc:Work
         rdf:about="">
        <dc:format>image/svg+xml</dc:format>
        <dc:type
           rdf:resource="http://purl.org/dc/dcmitype/StillImage" />
        <dc:title></dc:title>
      </cc:Work>
    </rdf:RDF>
  </metadata>
  <g
     inkscape:label="Layer 1"
     inkscape:groupmode="layer"
     id="layer1"
     transform="translate(-16.363749,-179.08742)">
    <text
       xml:space="preserve"
       style="font-style:normal;font-weight:normal;font-size:10.58333302px;line-height:1.25;font-family:sans-serif;letter-spacing:0px;word-spacing:0px;fill:#000000;fill-opacity:1;stroke:none;stroke-width:0.26458332"
       x="49.928837"
       y="47.981602"
       id="text7124"><tspan
         sodipodi:role="line"
         id="tspan7122"
         x="49.928837"
         y="57.345371"
         style="stroke-width:0.26458332" /></text>
    <path
       style="fill:#4d4d4d;fill-opacity:0.9921875;stroke:#666666;stroke-width:0.5;stroke-linecap:square;stroke-miterlimit:4;stroke-dasharray:2.00000001, 1.00000001;stroke-dashoffset:0;stroke-opacity:1"
       d="m 53.032812,179.73961 v 63.38921"
       id="rect7827-6-3"
       inkscape:connector-curvature="0"
       sodipodi:nodetypes="cc" />
    <rect
       style="fill:none;fill-opacity:0.9921875;stroke:#000000;stroke-width:0.49999997;stroke-linecap:round;stroke-miterlimit:4;stroke-dasharray:none;stroke-dashoffset:0;stroke-opacity:1"
       id="rect7827"
       width="111.4781"
       height="63.952797"
       x="17.679157"
       y="179.33742" />
    <path
       id="path963"
       title="2*atan(sqrt(4*sin(x)*sin(x)-1)/(2*cos(x)))"
       d="m 53.296412,242.45804 c 0.126866,-1.30017 0.404547,-2.56941 0.606821,-3.20881 0.202273,-0.6394 0.466795,-1.43395 0.657096,-1.88537 0.190297,-0.45141 0.507462,-1.1199 0.761191,-1.59945 0.253732,-0.47954 0.507463,-0.91772 0.761194,-1.33125 0.253731,-0.41354 0.507463,-0.8017 0.761194,-1.17274 0.253731,-0.37102 0.507462,-0.72463 0.761193,-1.06555 0.25373,-0.34092 0.507461,-0.66901 0.761192,-0.98729 0.253733,-0.31828 0.507464,-0.62663 0.761195,-0.92715 0.253731,-0.30051 0.507462,-0.59309 0.761192,-0.87923 0.253731,-0.28613 0.507463,-0.56579 0.761193,-0.84003 0.253732,-0.27426 0.507464,-0.54308 0.761194,-0.80731 0.253731,-0.26423 0.507463,-0.52383 0.761195,-0.77949 0.253729,-0.25565 0.50746,-0.50731 0.761192,-0.75555 0.25373,-0.24821 0.507462,-0.49297 0.761193,-0.73468 0.253732,-0.24174 0.507463,-0.48041 0.761194,-0.71636 0.25373,-0.23599 0.50746,-0.46925 0.761192,-0.70009 0.253733,-0.23087 0.507462,-0.45932 0.761193,-0.6856 0.253732,-0.22627 0.507463,-0.45037 0.761195,-0.67253 0.25373,-0.22215 0.507461,-0.44235 0.761191,-0.66077 0.253734,-0.21841 0.507464,-0.43504 0.761195,-0.65005 0.25373,-0.21501 0.507462,-0.42838 0.761194,-0.64028 0.25373,-0.21191 0.507461,-0.42232 0.761192,-0.63137 0.253731,-0.20904 0.507462,-0.41673 0.761194,-0.62314 0.25373,-0.20641 0.507461,-0.41158 0.761193,-0.61558 0.253732,-0.20399 0.507462,-0.40683 0.761192,-0.60859 0.253731,-0.20175 0.507464,-0.4024 0.761194,-0.60208 0.253732,-0.19966 0.507462,-0.39832 0.761193,-0.59605 0.253733,-0.19772 0.507463,-0.39452 0.761194,-0.59044 0.253729,-0.19593 0.507461,-0.39097 0.761193,-0.58519 0.253732,-0.19422 0.507463,-0.38763 0.761193,-0.5803 0.253731,-0.19263 0.507463,-0.38451 0.761193,-0.57566 0.253732,-0.19117 0.507462,-0.3816 0.761194,-0.57139 0.253731,-0.18975 0.507462,-0.37885 0.761193,-0.5673 0.25373,-0.18846 0.507463,-0.37626 0.761194,-0.56348 0.253731,-0.18721 0.507461,-0.37383 0.761192,-0.55989 0.253732,-0.18605 0.507463,-0.37152 0.761194,-0.55647 0.253731,-0.18495 0.507462,-0.36936 0.761194,-0.55326 0.25373,-0.18392 0.507461,-0.36731 0.761192,-0.55022 0.253731,-0.18292 0.507463,-0.36535 0.761194,-0.54735 0.253731,-0.18196 0.507462,-0.36349 0.761194,-0.5446 0.253729,-0.18108 0.50746,-0.36175 0.761192,-0.54198 0.253732,-0.18026 0.507462,-0.36011 0.761193,-0.53954 0.253732,-0.17946 0.507463,-0.35853 0.761194,-0.53721 0.253731,-0.17867 0.507462,-0.357 0.761192,-0.53496 0.253732,-0.17796 0.507464,-0.35559 0.761193,-0.53284 0.253727,-0.17727 0.507463,-0.3542 0.761198,-0.53082 0.253726,-0.17662 0.507461,-0.3529 0.761186,-0.52889 0.253735,-0.17599 0.507459,-0.35166 0.761197,-0.52705 0.253736,-0.17538 0.50746,-0.35048 0.761195,-0.52529 0.253725,-0.17481 0.507461,-0.34935 0.761197,-0.52362 0.253724,-0.17427 0.507459,-0.34827 0.761186,-0.52202 0.253736,-0.17374 0.50746,-0.34724 0.761195,-0.52048 0.253736,-0.17325 0.507463,-0.34626 0.761197,-0.51901 0.253724,-0.1728 0.507459,-0.34533 0.761186,-0.51763 0.253736,-0.17231 0.507471,-0.34441 0.761195,-0.51629 0.253737,-0.17187 0.507462,-0.34353 0.761197,-0.515 0.253724,-0.17147 0.507461,-0.34271 0.761197,-0.51378 0.253725,-0.17106 0.50746,-0.34192 0.761186,-0.51262 0.253736,-0.17067 0.50746,-0.34116 0.761192,-0.51147 0.253734,-0.17031 0.50746,-0.34045 0.761195,-0.51041 0.253725,-0.16996 0.507461,-0.33975 0.761187,-0.50937 0.253735,-0.16963 0.507471,-0.3391 0.761187,-0.5084 0.25375,-0.1693 0.50747,-0.33846 0.76119,-0.50747 0.25375,-0.16899 0.50748,-0.33785 0.76122,-0.50654 0.25372,-0.16871 0.50745,-0.33727 0.76118,-0.50569 0.25373,-0.16842 0.50747,-0.33671 0.76119,-0.50486 0.25374,-0.16815 0.50747,-0.33618 0.7612,-0.50407 0.25373,-0.1679 0.50747,-0.33567 0.76121,-0.50331 0.25372,-0.16764 0.50744,-0.33519 0.76118,-0.50259 0.25374,-0.16742 0.50747,-0.33472 0.76119,-0.50191 0.25375,-0.16719 0.50747,-0.33427 0.76119,-0.50123 0.25373,-0.16699 0.50748,-0.33387 0.76121,-0.50063 0.25372,-0.16678 0.50747,-0.33343 0.76119,-0.5 0.25371,-0.1666 0.50746,-0.33305 0.76119,-0.49946 0.25372,-0.16639 0.50747,-0.33269 0.76121,-0.4989 0.25371,-0.16621 0.50744,-0.33233 0.76118,-0.49837 0.25373,-0.16606 0.50745,-0.33201 0.76118,-0.49789 0.25375,-0.16589 0.50747,-0.33171 0.76119,-0.49743 0.25375,-0.16573 0.50747,-0.33138 0.76121,-0.49699 0.25372,-0.16556 0.50745,-0.33108 0.7612,-0.49655 0.25371,-0.16545 0.50746,-0.33084 0.76119,-0.49617 0.25372,-0.16532 0.50745,-0.33059 0.76119,-0.49578 0.25372,-0.16522 0.50745,-0.33037 0.7612,-0.49545 0.25373,-0.16509 0.50745,-0.33012 0.76118,-0.49512 0.25374,-0.16499 0.50746,-0.32992 0.76118,-0.49481 0.25376,-0.16488 0.50748,-0.32973 0.7612,-0.49452 0.25374,-0.16478 0.50747,-0.32953 0.7612,-0.49425 0.25372,-0.16471 0.50747,-0.32938 0.7612,-0.49401 0.25372,-0.16462 0.50747,-0.32923 0.76119,-0.49379 0.25373,-0.16455 0.50745,-0.32908 0.76119,-0.49358 0.25374,-0.16448 0.50746,-0.32895 0.7612,-0.49339 0.25374,-0.16445 0.50746,-0.32884 0.76117,-0.49323 0.25376,-0.16438 0.50748,-0.32875 0.7612,-0.49307 0.25376,-0.16433 0.50748,-0.32866 0.76121,-0.49295 0.25371,-0.1643 0.50746,-0.32858 0.76119,-0.49285 0.25371,-0.16425 0.50747,-0.32849 0.7612,-0.49274 0.25372,-0.16423 0.50745,-0.32846 0.76118,-0.49268 0.25374,-0.16419 0.50746,-0.32839 0.7612,-0.4926 0.25373,-0.16419 0.50747,-0.32839 0.76118,-0.49258 0.25374,-0.16418 0.50748,-0.32836 0.7612,-0.49255"
       style="fill:none;fill-opacity:0.9921875;stroke:#d40000;stroke-width:0.80000007;stroke-linecap:round;stroke-miterlimit:4;stroke-dasharray:none;stroke-dashoffset:0;stroke-opacity:1"
       inkscape:connector-curvature="0"
       sodipodi:nodetypes="czzccccccccccccscccccccccccccccscccccccccsccccccccccccccccccccccccsscsccccccssccsccsccccccscccsccsccc" />
    <path
       id="path2817"
       title="2*atan(sqrt(sin(x)*sin(x)*4-1)/(0.5*cos(x)))"
       d="m 53.296412,242.45804 c 0.255084,-8.79993 0.510168,-10.0583 0.765253,-12.65603 0.255085,-2.59774 0.510169,-4.51037 0.765252,-6.17468 0.255085,-1.66433 0.51017,-3.04469 0.765253,-4.27195 0.255084,-1.22725 0.510169,-2.29512 0.765253,-3.26241 0.255084,-0.9673 0.510168,-1.8319 0.765253,-2.62581 0.255083,-0.79391 0.510168,-1.51614 0.765252,-2.18615 0.255085,-0.66999 0.510169,-1.28722 0.765254,-1.86442 0.255083,-0.5772 0.510168,-1.114 0.765252,-1.61925 0.255084,-0.50525 0.510168,-0.97866 0.765253,-1.42662 0.255084,-0.44797 0.510168,-0.87026 0.765252,-1.27164 0.255085,-0.40137 0.510168,-0.78167 0.765253,-1.1445 0.255084,-0.36282 0.510167,-0.70807 0.765253,-1.03854 0.255084,-0.33046 0.510168,-0.64606 0.765252,-0.94904 0.255085,-0.30297 0.510169,-0.59322 0.765253,-0.87255 0.255084,-0.27934 0.510169,-0.54769 0.765252,-0.80655 0.255085,-0.25886 0.510169,-0.50815 0.765253,-0.74909 0.255084,-0.24095 0.510169,-0.4735 0.765253,-0.69869 0.255084,-0.22517 0.510168,-0.44294 0.765254,-0.65414 0.255083,-0.2112 0.510168,-0.41581 0.765252,-0.61457 0.255084,-0.19874 0.510168,-0.3916 0.765253,-0.57917 0.255083,-0.18759 0.510168,-0.36989 0.765252,-0.54742 0.255085,-0.17753 0.510168,-0.3503 0.765252,-0.51875 0.255085,-0.16845 0.510168,-0.33256 0.765253,-0.49276 0.255084,-0.1602 0.51017,-0.31645 0.765253,-0.46913 0.255085,-0.15268 0.510168,-0.30177 0.765253,-0.44757 0.255084,-0.14579 0.510169,-0.28831 0.765252,-0.42781 0.255085,-0.1395 0.510169,-0.27598 0.765253,-0.40967 0.255084,-0.1337 0.510169,-0.26461 0.765253,-0.39296 0.255084,-0.12835 0.510168,-0.25413 0.765253,-0.37754 0.255084,-0.1234 0.510169,-0.24441 0.765252,-0.36324 0.255086,-0.11882 0.510169,-0.23543 0.765254,-0.34999 0.255083,-0.11458 0.510167,-0.22708 0.765252,-0.33768 0.255083,-0.1106 0.510169,-0.2193 0.765252,-0.3262 0.255085,-0.10691 0.510168,-0.21204 0.765253,-0.31549 0.255084,-0.10351 0.510168,-0.20525 0.765253,-0.30548 0.255085,-0.10021 0.510169,-0.1989 0.765253,-0.2961 0.255084,-0.0973 0.510168,-0.19296 0.765252,-0.28733 0.255085,-0.0944 0.510169,-0.18735 0.765254,-0.27906 0.255083,-0.0917 0.510168,-0.18211 0.765251,-0.27129 0.255085,-0.0892 0.510169,-0.17717 0.765254,-0.26398 0.255083,-0.0868 0.510169,-0.17251 0.765253,-0.2571 0.255083,-0.0846 0.510168,-0.16812 0.765252,-0.2506 0.255085,-0.0825 0.510168,-0.16395 0.765253,-0.24445 0.255084,-0.0806 0.510168,-0.16003 0.765252,-0.23864 0.255084,-0.0787 0.510168,-0.15632 0.765253,-0.23315 0.255084,-0.0768 0.510168,-0.15279 0.765252,-0.22793 0.255085,-0.0752 0.510169,-0.14946 0.765254,-0.22299 0.255084,-0.0735 0.510169,-0.1463 0.765252,-0.21832 0.255085,-0.072 0.510169,-0.14329 0.765253,-0.21387 0.255084,-0.0705 0.510169,-0.14044 0.765253,-0.20964 0.255083,-0.0692 0.510168,-0.13772 0.765251,-0.20561 0.255085,-0.0679 0.510169,-0.13515 0.765254,-0.2018 0.255086,-0.0667 0.510169,-0.1327 0.765253,-0.19816 0.255084,-0.0655 0.510168,-0.13036 0.765253,-0.19471 0.255084,-0.0644 0.510168,-0.12813 0.765252,-0.1914 0.255085,-0.0633 0.510168,-0.12601 0.765253,-0.18826 0.255083,-0.0622 0.510168,-0.12399 0.765252,-0.18526 0.255085,-0.0613 0.510169,-0.12206 0.765254,-0.1824 0.255084,-0.0603 0.510167,-0.12024 0.765252,-0.17969 0.255085,-0.0594 0.510169,-0.11849 0.765252,-0.17709 0.255085,-0.0586 0.51017,-0.11681 0.765253,-0.17462 0.255083,-0.0578 0.510173,-0.1152 0.765253,-0.17223 0.25508,-0.0571 0.51017,-0.1137 0.76526,-0.17 0.25508,-0.0563 0.51016,-0.11225 0.76524,-0.16784 0.25509,-0.0556 0.51018,-0.11087 0.76526,-0.1658 0.25508,-0.055 0.51016,-0.10955 0.76526,-0.16383 0.25508,-0.0543 0.51016,-0.10823 0.76524,-0.16197 0.25508,-0.0538 0.51018,-0.10714 0.76526,-0.16018 0.25508,-0.0531 0.51016,-0.10593 0.76524,-0.1585 0.2551,-0.0526 0.51018,-0.10483 0.76526,-0.15688 0.25508,-0.0521 0.51017,-0.10383 0.76526,-0.15535 0.25508,-0.0515 0.51016,-0.10284 0.76524,-0.15388 0.25509,-0.0511 0.51017,-0.10185 0.76526,-0.15248 0.25509,-0.0507 0.51017,-0.10097 0.76526,-0.15117 0.25508,-0.0502 0.51016,-0.1001 0.76525,-0.1499 0.25508,-0.0498 0.51017,-0.0994 0.76525,-0.14873 0.25508,-0.0493 0.51016,-0.0986 0.76524,-0.14759 0.2551,-0.049 0.51018,-0.0979 0.76527,-0.14652 0.25508,-0.0487 0.51016,-0.0971 0.76525,-0.14553 0.25508,-0.0484 0.51017,-0.0966 0.76525,-0.14457 0.25508,-0.048 0.51017,-0.0959 0.76525,-0.14367 0.25508,-0.0478 0.51016,-0.0954 0.76525,-0.14284 0.25509,-0.0475 0.51018,-0.0948 0.76526,-0.14205 0.25508,-0.0472 0.51017,-0.0943 0.76526,-0.14132 0.25508,-0.047 0.51016,-0.0938 0.76524,-0.14063 0.25509,-0.0468 0.51017,-0.0934 0.76525,-0.13999 0.25509,-0.0466 0.51017,-0.0931 0.76526,-0.13942 0.25508,-0.0464 0.51017,-0.0926 0.76525,-0.13888 0.25509,-0.0462 0.51018,-0.0923 0.76526,-0.13839 0.25508,-0.046 0.51016,-0.0921 0.76524,-0.13794 0.25509,-0.0459 0.51017,-0.0917 0.76526,-0.13755 0.25508,-0.0458 0.51016,-0.0915 0.76525,-0.13719 0.25509,-0.0457 0.51017,-0.0913 0.76526,-0.1369 0.25508,-0.0456 0.51017,-0.0911 0.76525,-0.13662 0.25508,-0.0455 0.51016,-0.091 0.76524,-0.13641 0.2551,-0.0454 0.51018,-0.0909 0.76526,-0.13623 0.25508,-0.0454 0.51017,-0.0907 0.76525,-0.13609 0.2551,-0.0454 0.51018,-0.0906 0.76526,-0.13601 0.25509,-0.0454 0.51017,-0.0906 0.76525,-0.13596"
       style="fill:none;fill-opacity:0.9921875;stroke:#0000d4;stroke-width:0.8;stroke-linecap:round;stroke-miterlimit:4;stroke-dasharray:none;stroke-dashoffset:0;stroke-opacity:1"
       inkscape:connector-curvature="0" />
    <text
       xml:space="preserve"
       style="font-style:normal;font-weight:normal;font-size:10.58333302px;line-height:1.25;font-family:sans-serif;letter-spacing:0px;word-spacing:0px;fill:#000000;fill-opacity:1;stroke:none;stroke-width:0.26458332"
       x="62.004372"
       y="172.22423"
       id="text2860"><tspan
         sodipodi:role="line"
         id="tspan2858"
         x="62.004372"
         y="181.588"
         style="stroke-width:0.26458332" /></text>
    <path
       id="path3182"
       title="2*atan(sqrt(sin(x)*sin(x)*4-1)/(0.5*cos(x)))- 2*atan(sqrt(sin(x)*sin(x)*4-1)/(2*cos(x)))"
       d="m 53.296412,242.45804 c 0.06292,-0.60972 0.08294,-2.17673 0.266557,-4.29351 0.204844,-3.8372 0.590275,-5.95728 0.826108,-7.37176 0.235833,-1.41448 0.499168,-3.32074 1.477912,-5.93364 0.251696,-0.79372 0.503392,-1.44135 0.755087,-2.00316 0.251697,-0.56183 0.503392,-1.03539 0.755088,-1.45094 0.251696,-0.41554 0.503392,-0.77207 0.755088,-1.08707 0.251696,-0.315 0.503391,-0.58794 0.755087,-0.82988 0.251697,-0.24194 0.503392,-0.45254 0.755087,-0.63924 0.251697,-0.18671 0.503392,-0.34928 0.755089,-0.49297 0.251695,-0.14368 0.503392,-0.2683 0.755088,-0.37768 0.251695,-0.10939 0.503392,-0.20339 0.755087,-0.2849 0.251695,-0.0815 0.503392,-0.15039 0.755088,-0.20886 0.251695,-0.0584 0.503392,-0.10647 0.755087,-0.14568 0.251696,-0.0392 0.503392,-0.0695 0.755088,-0.0924 0.251696,-0.0229 0.503392,-0.0383 0.755087,-0.0472 0.251696,-0.009 0.503392,-0.0114 0.755088,-0.009 0.251695,0.003 0.503391,0.0118 0.755088,0.0253 0.251695,0.0135 0.503392,0.032 0.755087,0.0548 0.251694,0.0227 0.503392,0.0498 0.755088,0.0806 0.251696,0.0308 0.503392,0.0655 0.755086,0.10344 0.251702,0.038 0.503393,0.0794 0.755085,0.12372 0.251701,0.0443 0.503391,0.0918 0.755095,0.14184 0.251691,0.0501 0.503393,0.10287 0.755084,0.15809 0.2517,0.0552 0.503392,0.11288 0.755094,0.17274 0.251691,0.0598 0.503382,0.12194 0.755083,0.186 0.251692,0.0641 0.503393,0.13012 0.755085,0.198 0.251701,0.0679 0.503391,0.1376 0.755095,0.20896 0.251689,0.0714 0.503391,0.1444 0.755083,0.21896 0.25169,0.0745 0.503393,0.15064 0.755083,0.22811 0.251702,0.0774 0.503394,0.15637 0.755095,0.23655 0.251692,0.0802 0.503392,0.16163 0.755084,0.24427 0.251702,0.0826 0.503392,0.16649 0.755084,0.25144 0.251701,0.0849 0.503393,0.17098 0.755094,0.25804 0.251691,0.0871 0.503393,0.17515 0.755083,0.26417 0.251703,0.089 0.503393,0.17901 0.755084,0.26987 0.251703,0.0909 0.503393,0.1826 0.755095,0.27517 0.251691,0.0925 0.503393,0.18595 0.755085,0.2801 0.251701,0.0942 0.503392,0.18907 0.755093,0.2847 0.251691,0.0957 0.503384,0.192 0.755084,0.28902 0.251692,0.097 0.503393,0.19473 0.755084,0.29305 0.251702,0.0983 0.503393,0.19729 0.755094,0.29684 0.251691,0.0995 0.503394,0.19968 0.755084,0.30038 0.251691,0.10069 0.503393,0.20195 0.755084,0.30371 0.251702,0.10178 0.503393,0.20408 0.755094,0.30686 0.251692,0.10279 0.503394,0.20607 0.755084,0.30981 0.251691,0.10375 0.503393,0.20796 0.755084,0.31261 0.251702,0.10465 0.503393,0.20973 0.755095,0.31523 0.251691,0.1055 0.503392,0.21142 0.755084,0.31772 0.251701,0.10631 0.503392,0.21301 0.755084,0.32008 0.2517,0.10706 0.503392,0.2145 0.755094,0.32229 0.251691,0.10779 0.503393,0.21593 0.755083,0.3244 0.251691,0.10847 0.503394,0.21727 0.755096,0.3264 0.25169,0.10911 0.50338,0.21854 0.755083,0.32828 0.251702,0.10974 0.503393,0.21977 0.755084,0.33009 0.2517,0.11031 0.503393,0.22091 0.755084,0.33178 0.251701,0.11088 0.503403,0.22202 0.755093,0.33341 0.251692,0.11139 0.503393,0.22305 0.755096,0.33494 0.251691,0.1119 0.503381,0.22404 0.755084,0.33641 0.25169,0.11237 0.503392,0.22498 0.755083,0.33779 0.251702,0.11283 0.503393,0.22587 0.755083,0.33912 0.251703,0.11325 0.503394,0.22672 0.755095,0.34037 0.25169,0.11367 0.503396,0.22753 0.755086,0.34158 0.25171,0.11405 0.50341,0.2283 0.75508,0.34271 0.25171,0.11442 0.5034,0.22903 0.7551,0.3438 0.25169,0.11478 0.50339,0.22972 0.75508,0.34483 0.2517,0.1151 0.5034,0.23038 0.75509,0.34581 0.2517,0.11543 0.50339,0.23102 0.75509,0.34674 0.2517,0.11573 0.5034,0.23162 0.75509,0.34764 0.2517,0.11603 0.50339,0.23218 0.75508,0.34849 0.25171,0.11629 0.5034,0.23273 0.75509,0.34928 0.2517,0.11656 0.5034,0.23325 0.75508,0.35006 0.2517,0.11681 0.50339,0.23374 0.75509,0.35078 0.25169,0.11704 0.5034,0.2342 0.75509,0.35148 0.2517,0.11727 0.5034,0.23464 0.75509,0.35212 0.2517,0.11749 0.50339,0.23507 0.7551,0.35276 0.25168,0.11768 0.50337,0.23547 0.75508,0.35335 0.2517,0.11787 0.50338,0.23585 0.75508,0.3539 0.25171,0.11806 0.5034,0.2362 0.75509,0.35443 0.2517,0.11824 0.5034,0.23654 0.7551,0.35494 0.25168,0.11839 0.50337,0.23685 0.75508,0.35541 0.25169,0.11854 0.50338,0.23715 0.75508,0.35584 0.2517,0.11869 0.50339,0.23745 0.75509,0.35627 0.25171,0.11882 0.50339,0.23771 0.75509,0.35666 0.2517,0.11895 0.5034,0.23796 0.75509,0.35703 0.25169,0.11906 0.50339,0.23819 0.75509,0.35736 0.25169,0.11918 0.50338,0.23841 0.75509,0.35769 0.25169,0.11928 0.50338,0.2386 0.75508,0.35797 0.25169,0.11938 0.50339,0.2388 0.75508,0.35826 0.2517,0.11946 0.50339,0.23896 0.7551,0.35851 0.25169,0.11953 0.50337,0.23911 0.75508,0.35872 0.2517,0.11961 0.50339,0.23926 0.75508,0.35894 0.2517,0.11967 0.5034,0.23938 0.7551,0.35911 0.25169,0.11973 0.5034,0.2395 0.75509,0.35929 0.25169,0.11978 0.5034,0.23959 0.75509,0.35941 0.25169,0.11984 0.50339,0.23969 0.75509,0.35955 0.25169,0.11987 0.50338,0.23976 0.75507,0.35965 0.2517,0.1199 0.50339,0.23981 0.75509,0.35973 0.2517,0.11992 0.50341,0.23986 0.7551,0.35979 0.25168,0.11994 0.50339,0.23988 0.75508,0.35983 0.2517,0.11995 0.50339,0.2399 0.75509,0.35986"
       style="fill:none;fill-opacity:0.9921875;stroke:#00d400;stroke-width:0.80000001;stroke-linecap:round;stroke-miterlimit:4;stroke-dasharray:none;stroke-dashoffset:0;stroke-opacity:1"
       inkscape:connector-curvature="0"
       sodipodi:nodetypes="cczccccsccccccsccsssccccccccccccccccccccccsccscccccscsccsccccccccccsccsccccccccccsccccccccccccccccscc" />
    <path
       style="fill:#4d4d4d;fill-opacity:0.9921875;stroke:#666666;stroke-width:0.49999997;stroke-linecap:square;stroke-miterlimit:4;stroke-dasharray:2, 1.00000001;stroke-dashoffset:0;stroke-opacity:1"
       d="M 128.47637,227.21694 H 17.834874"
       id="rect7827-6-3-9"
       inkscape:connector-curvature="0"
       sodipodi:nodetypes="cc" />
    <g
       id="g127">
      <text
         id="text1075-0-2-8"
         y="248.91104"
         x="89.608536"
         style="font-style:normal;font-weight:normal;font-size:10.58333302px;line-height:1.25;font-family:sans-serif;letter-spacing:0px;word-spacing:0px;fill:#000000;fill-opacity:1;stroke:none;stroke-width:0.26458332"
         xml:space="preserve"><tspan
           style="font-size:6.3499999px;stroke-width:0.26458332"
           y="248.91104"
           x="89.608536"
           id="tspan1073-6-6-6"
           sodipodi:role="line">$\alpha$</tspan></text>
      <text
         id="text1075-0-2-8-6"
         y="248.91104"
         x="51.000954"
         style="font-style:normal;font-weight:normal;font-size:10.58333302px;line-height:1.25;font-family:sans-serif;letter-spacing:0px;word-spacing:0px;fill:#000000;fill-opacity:1;stroke:none;stroke-width:0.26458332"
         xml:space="preserve"><tspan
           style="font-size:6.3499999px;stroke-width:0.26458332"
           y="248.91104"
           x="51.000954"
           id="tspan1073-6-6-6-7"
           sodipodi:role="line">$\alpha_m$</tspan></text>
      <text
         id="text9029-56"
         y="249.09848"
         x="15.83665"
         style="font-style:normal;font-weight:normal;font-size:10.58333302px;line-height:1.25;font-family:sans-serif;letter-spacing:0px;word-spacing:0px;fill:#000000;fill-opacity:1;stroke:none;stroke-width:0.26458332"
         xml:space="preserve"><tspan
           style="font-size:6.3499999px;stroke-width:0.26458332"
           y="249.09848"
           x="15.83665"
           id="tspan9027-2"
           sodipodi:role="line">$0$</tspan></text>
      <text
         id="text9029-5-9"
         y="249.09848"
         x="125.91006"
         style="font-style:normal;font-weight:normal;font-size:10.58333302px;line-height:1.25;font-family:sans-serif;letter-spacing:0px;word-spacing:0px;fill:#000000;fill-opacity:1;stroke:none;stroke-width:0.26458332"
         xml:space="preserve"><tspan
           style="font-size:6.3499999px;stroke-width:0.26458332"
           y="249.09848"
           x="125.91006"
           id="tspan9027-3-1"
           sodipodi:role="line">$90^\circ$</tspan></text>
      <text
         id="text9029-56-5"
         y="181.17242"
         x="11.278296"
         style="font-style:normal;font-weight:normal;font-size:10.58333302px;line-height:1.25;font-family:sans-serif;letter-spacing:0px;word-spacing:0px;fill:#000000;fill-opacity:1;stroke:none;stroke-width:0.26458332"
         xml:space="preserve"><tspan
           id="tspan7125"
           style="font-size:6.3499999px;stroke-width:0.26458332"
           y="181.17242"
           x="11.278296"
           sodipodi:role="line">$\pi$</tspan></text>
      <text
         id="text9029-56-5-3"
         y="245.25677"
         x="11.383976"
         style="font-style:normal;font-weight:normal;font-size:10.58333302px;line-height:1.25;font-family:sans-serif;letter-spacing:0px;word-spacing:0px;fill:#000000;fill-opacity:1;stroke:none;stroke-width:0.26458332"
         xml:space="preserve"><tspan
           id="tspan7125-6"
           style="font-size:6.3499999px;stroke-width:0.26458332"
           y="245.25677"
           x="11.383976"
           sodipodi:role="line">$0$</tspan></text>
      <text
         id="text9029-56-5-35"
         y="208.59337"
         x="73.792236"
         style="font-style:normal;font-weight:normal;font-size:10.58333302px;line-height:1.25;font-family:sans-serif;letter-spacing:0px;word-spacing:0px;fill:#000000;fill-opacity:1;stroke:none;stroke-width:0.26458332"
         xml:space="preserve"><tspan
           id="tspan7125-62"
           style="font-size:6.3499999px;stroke-width:0.26458332"
           y="208.59337"
           x="73.792236"
           sodipodi:role="line">$\delta_\mathrm{TE}$</tspan></text>
      <text
         id="text9029-56-5-35-9"
         y="190.22444"
         x="65.008698"
         style="font-style:normal;font-weight:normal;font-size:10.58333302px;line-height:1.25;font-family:sans-serif;letter-spacing:0px;word-spacing:0px;fill:#000000;fill-opacity:1;stroke:none;stroke-width:0.26458332"
         xml:space="preserve"><tspan
           id="tspan7125-62-1"
           style="font-size:6.3499999px;stroke-width:0.26458332"
           y="190.22444"
           x="65.008698"
           sodipodi:role="line">$\delta_\mathrm{TM}$</tspan></text>
      <text
         id="text9029-56-5-35-7"
         y="222.17416"
         x="85.765198"
         style="font-style:normal;font-weight:normal;font-size:10.58333302px;line-height:1.25;font-family:sans-serif;letter-spacing:0px;word-spacing:0px;fill:#000000;fill-opacity:1;stroke:none;stroke-width:0.26458332"
         xml:space="preserve"><tspan
           id="tspan7125-62-0"
           style="font-size:6.3499999px;stroke-width:0.26458332"
           y="222.17416"
           x="85.765198"
           sodipodi:role="line">$\Delta = \delta_\mathrm{TM} - \delta_\mathrm{TE}$</tspan></text>
      <text
         id="text9029-56-5-35-7-3"
         y="228.90395"
         x="5.4024243"
         style="font-style:normal;font-weight:normal;font-size:10.58333302px;line-height:1.25;font-family:sans-serif;letter-spacing:0px;word-spacing:0px;fill:#000000;fill-opacity:1;stroke:none;stroke-width:0.26458332"
         xml:space="preserve"><tspan
           id="tspan7125-62-0-6"
           style="font-size:6.3499999px;stroke-width:0.26458332"
           y="228.90395"
           x="5.4024243"
           sodipodi:role="line">$\pi/4$</tspan></text>
    </g>
  </g>
</svg>
