<?xml version="1.0" encoding="UTF-8" standalone="no"?>
<!-- Created with Inkscape (http://www.inkscape.org/) -->

<svg
   xmlns:dc="http://purl.org/dc/elements/1.1/"
   xmlns:cc="http://creativecommons.org/ns#"
   xmlns:rdf="http://www.w3.org/1999/02/22-rdf-syntax-ns#"
   xmlns:svg="http://www.w3.org/2000/svg"
   xmlns="http://www.w3.org/2000/svg"
   xmlns:sodipodi="http://sodipodi.sourceforge.net/DTD/sodipodi-0.dtd"
   xmlns:inkscape="http://www.inkscape.org/namespaces/inkscape"
   width="145.52333mm"
   height="61.762077mm"
   viewBox="0 0 145.52333 61.762077"
   version="1.1"
   id="svg4080"
   inkscape:version="0.92.5 (2060ec1f9f, 2020-04-08)"
   sodipodi:docname="04_kovinaMo.svg">
  <defs
     id="defs4074" />
  <sodipodi:namedview
     id="base"
     pagecolor="#ffffff"
     bordercolor="#666666"
     borderopacity="1.0"
     inkscape:pageopacity="0.0"
     inkscape:pageshadow="2"
     inkscape:zoom="1.3384766"
     inkscape:cx="381.38733"
     inkscape:cy="103.31954"
     inkscape:document-units="mm"
     inkscape:current-layer="layer1"
     showgrid="false"
     fit-margin-top="0"
     fit-margin-left="0"
     fit-margin-right="0"
     fit-margin-bottom="0"
     inkscape:window-width="1920"
     inkscape:window-height="1159"
     inkscape:window-x="0"
     inkscape:window-y="0"
     inkscape:window-maximized="1" />
  <metadata
     id="metadata4077">
    <rdf:RDF>
      <cc:Work
         rdf:about="">
        <dc:format>image/svg+xml</dc:format>
        <dc:type
           rdf:resource="http://purl.org/dc/dcmitype/StillImage" />
        <dc:title></dc:title>
      </cc:Work>
    </rdf:RDF>
  </metadata>
  <g
     inkscape:label="Layer 1"
     inkscape:groupmode="layer"
     id="layer1"
     transform="translate(-4.924602,-114.40789)">
    <rect
       style="fill:none;fill-opacity:0.9921875;stroke:#000000;stroke-width:0.5;stroke-linecap:round;stroke-miterlimit:4;stroke-dasharray:none;stroke-dashoffset:0;stroke-opacity:1"
       id="rect7827"
       width="76.843475"
       height="51.54039"
       x="8.4629126"
       y="117.28722" />
    <path
       id="path1032"
       title="(cos(x)*cos(x)-2*cos(x)*3.62+26.27)/(cos(x)*cos(x)+2*cos(x)*3.62+26.27)"
       d="m 8.4629127,138.91321 c 0.2587321,0 0.5174639,-6.6e-4 0.776196,-0.002 0.2587331,-0.002 0.5174649,-0.003 0.7761973,-0.006 0.258732,-0.002 0.517464,-0.006 0.776197,-0.01 0.258732,-0.004 0.517464,-0.009 0.776197,-0.014 0.258732,-0.005 0.517464,-0.0113 0.776197,-0.018 0.258731,-0.007 0.517464,-0.014 0.776196,-0.022 0.258732,-0.008 0.517465,-0.0167 0.776197,-0.026 0.258732,-0.009 0.517464,-0.0193 0.776197,-0.03 0.258732,-0.0107 0.517464,-0.022 0.776196,-0.034 0.258732,-0.012 0.517465,-0.0246 0.776197,-0.038 0.258732,-0.0133 0.517464,-0.0273 0.776197,-0.042 0.258732,-0.0147 0.517464,-0.0301 0.776197,-0.046 0.258732,-0.016 0.517464,-0.0327 0.776196,-0.0501 0.258732,-0.0174 0.517464,-0.0355 0.776197,-0.0542 0.258732,-0.0187 0.517464,-0.0381 0.776197,-0.0583 0.258732,-0.0201 0.517464,-0.0409 0.776196,-0.0623 0.258732,-0.0215 0.517464,-0.0436 0.776197,-0.0664 0.258732,-0.0228 0.517464,-0.0463 0.776197,-0.0705 0.258731,-0.0242 0.517464,-0.049 0.776196,-0.0747 0.258733,-0.0256 0.517464,-0.0518 0.776197,-0.0788 0.258732,-0.027 0.517464,-0.0546 0.776196,-0.0829 0.258733,-0.0283 0.517465,-0.0574 0.776197,-0.0871 0.258732,-0.0297 0.517464,-0.0601 0.776196,-0.0913 0.258733,-0.0311 0.517465,-0.0629 0.776197,-0.0955 0.258732,-0.0326 0.517465,-0.0658 0.776197,-0.0997 0.258732,-0.034 0.517465,-0.0686 0.776197,-0.10392 0.258732,-0.0354 0.517464,-0.0714 0.776196,-0.10818 0.258732,-0.0368 0.517465,-0.0743 0.776197,-0.11245 0.258732,-0.0382 0.517465,-0.0771 0.776197,-0.11674 0.258732,-0.0396 0.517464,-0.08 0.776197,-0.12107 0.258731,-0.041 0.517465,-0.0828 0.776195,-0.1254 0.258734,-0.0425 0.517467,-0.0858 0.776198,-0.12976 0.258733,-0.044 0.517464,-0.0887 0.776197,-0.13414 0.258731,-0.0455 0.517465,-0.0916 0.776195,-0.13854 0.258734,-0.047 0.517467,-0.0946 0.776198,-0.14297 0.258733,-0.0484 0.517464,-0.0975 0.776197,-0.14742 0.258731,-0.0499 0.517464,-0.10051 0.776195,-0.15189 0.258734,-0.0514 0.517467,-0.10351 0.776198,-0.15639 0.258733,-0.0529 0.517464,-0.10651 0.776197,-0.1609 0.258731,-0.0544 0.517464,-0.10954 0.776198,-0.16545 0.258731,-0.0559 0.517464,-0.11258 0.776195,-0.17001 0.258733,-0.0574 0.517464,-0.11564 0.776197,-0.17461 0.258731,-0.0589 0.517464,-0.1187 0.776198,-0.17922 0.258731,-0.0605 0.517464,-0.1218 0.776197,-0.18385 0.258731,-0.0621 0.517465,-0.1249 0.776195,-0.18852 0.258734,-0.0636 0.517464,-0.12803 0.776198,-0.19321 0.258731,-0.0652 0.517464,-0.13116 0.776197,-0.19791 0.258731,-0.0668 0.517465,-0.13431 0.776195,-0.20265 0.258734,-0.0683 0.517464,-0.13747 0.776195,-0.2074 0.258736,-0.0699 0.517467,-0.14066 0.7762,-0.21218 0.258731,-0.0715 0.517462,-0.14385 0.776198,-0.21698 0.258731,-0.0732 0.517459,-0.14706 0.776195,-0.2218 0.258731,-0.0748 0.517467,-0.15029 0.776195,-0.22665 0.25873,-0.0763 0.517461,-0.15353 0.776197,-0.23151 0.258731,-0.078 0.517464,-0.15678 0.776195,-0.23639 0.258731,-0.0796 0.517467,-0.16005 0.776198,-0.2413 0.258733,-0.0812 0.517464,-0.16332 0.776195,-0.24622 0.258736,-0.0829 0.517464,-0.16661 0.7762,-0.25116 0.258731,-0.0846 0.517461,-0.16992 0.776195,-0.25612 0.25873,-0.0862 0.517466,-0.17323 0.776197,-0.26109 0.258731,-0.0879 0.517464,-0.17655 0.776195,-0.26608 0.258731,-0.0895 0.517467,-0.17988 0.776198,-0.27108 0.258733,-0.0912 0.517464,-0.18322 0.776195,-0.2761 0.258736,-0.0929 0.517464,-0.18657 0.7762,-0.28112 0.25873,-0.0945 0.517461,-0.18993 0.776195,-0.28615 0.25873,-0.0962 0.517466,-0.19331 0.776197,-0.29121 0.258731,-0.0979 0.517464,-0.19666 0.776195,-0.29626 0.258731,-0.0996 0.517467,-0.20003 0.776198,-0.30132 0.258733,-0.10127 0.517464,-0.20341 0.776194,-0.30637 0.258737,-0.10297 0.517465,-0.20679 0.776201,-0.31144 0.25873,-0.10466 0.517461,-0.21016 0.776195,-0.31652 0.25873,-0.10634 0.517466,-0.21353 0.776197,-0.32156 0.258731,-0.10804 0.517467,-0.21692 0.776195,-0.32664 0.258736,-0.10972 0.517467,-0.22028 0.776198,-0.33169 0.258733,-0.1114 0.517464,-0.22366 0.776194,-0.33674 0.258736,-0.11309 0.517465,-0.22702 0.776201,-0.34178 0.25873,-0.11476 0.517461,-0.23036 0.776195,-0.3468 0.258733,-0.11643 0.517466,-0.23371 0.776197,-0.35182 0.258731,-0.1181 0.517467,-0.23704 0.776195,-0.35681 0.258736,-0.11977 0.517467,-0.24037 0.776198,-0.36179 0.258733,-0.12142 0.517464,-0.24368 0.7762,-0.36675 0.25873,-0.12307 0.517461,-0.24696 0.776195,-0.37167 0.25873,-0.12471 0.517461,-0.25025 0.776197,-0.37659 0.258731,-0.12633 0.517464,-0.25349 0.776195,-0.38145 0.258731,-0.12796 0.517467,-0.25673 0.776195,-0.38629 0.258736,-0.12957 0.517467,-0.25994 0.776197,-0.3911 0.258734,-0.13116 0.517465,-0.26312 0.776201,-0.39586 0.25873,-0.13275 0.517461,-0.26628 0.776195,-0.40059 0.25873,-0.13431 0.517461,-0.2694 0.776197,-0.40527 0.258731,-0.13586 0.517464,-0.2725 0.776195,-0.40989 0.258731,-0.1374 0.517467,-0.27556 0.776195,-0.41447 0.258736,-0.13891 0.517467,-0.27858 0.776197,-0.41899 0.258734,-0.1404 0.517465,-0.28156 0.776201,-0.42345 0.25873,-0.14188 0.517461,-0.2845 0.776194,-0.42785 0.258731,-0.14334 0.517467,-0.2874 0.776198,-0.43218 0.258731,-0.14477 0.517464,-0.29025 0.776195,-0.43644 0.258731,-0.14618 0.517467,-0.29306 0.776195,-0.44063 0.258736,-0.14756 0.517467,-0.29582 0.776197,-0.44474 0.258734,-0.14892 0.517465,-0.29851 0.776201,-0.44876"
       style="fill:none;fill-opacity:1;stroke:#d40000;stroke-width:0.80000001;stroke-linecap:butt;stroke-linejoin:round;stroke-miterlimit:4;stroke-dasharray:none;stroke-dashoffset:0;stroke-opacity:1"
       inkscape:connector-curvature="0" />
    <path
       id="path1042"
       title="(691*cos(x)*cos(x)-cos(x)*198+26.27)/(691*cos(x)*cos(x)+cos(x)*198+26.27)"
       d="m 8.4629127,139.58688 c 0.2587321,0 0.5174639,6.6e-4 0.776196,0.002 0.2587331,0.002 0.5174649,0.003 0.7761973,0.006 0.258732,0.002 0.517464,0.006 0.776197,0.0102 0.258732,0.004 0.517464,0.009 0.776197,0.0143 0.258732,0.006 0.517464,0.0116 0.776197,0.0184 0.258731,0.007 0.517464,0.0143 0.776196,0.0226 0.258732,0.008 0.517465,0.0171 0.776197,0.0266 0.258732,0.01 0.517464,0.0198 0.776197,0.0308 0.258732,0.011 0.517464,0.0226 0.776196,0.035 0.258732,0.0123 0.517465,0.0254 0.776197,0.0392 0.258732,0.0137 0.517464,0.0282 0.776197,0.0435 0.258732,0.0152 0.517464,0.0311 0.776197,0.0477 0.258732,0.0166 0.517464,0.034 0.776196,0.052 0.258732,0.0181 0.517464,0.0369 0.776197,0.0564 0.258732,0.0195 0.517464,0.0398 0.776197,0.0608 0.258732,0.021 0.517464,0.0427 0.776196,0.0652 0.258732,0.0225 0.517464,0.0457 0.776197,0.0698 0.258732,0.024 0.517464,0.0488 0.776197,0.0743 0.258731,0.0256 0.517464,0.0518 0.776196,0.0789 0.258733,0.0271 0.517464,0.0549 0.776197,0.0836 0.258732,0.0286 0.517464,0.0581 0.776196,0.0883 0.258733,0.0302 0.517465,0.0613 0.776197,0.0932 0.258732,0.0319 0.517464,0.0645 0.776196,0.0981 0.258733,0.0335 0.517465,0.0678 0.776197,0.10304 0.258732,0.0352 0.517465,0.0713 0.776197,0.10812 0.258732,0.0369 0.517465,0.0747 0.776197,0.11327 0.258732,0.0386 0.517464,0.0782 0.776196,0.11853 0.258732,0.0404 0.517465,0.0817 0.776197,0.1239 0.258732,0.0422 0.517465,0.0853 0.776197,0.12935 0.258732,0.044 0.517464,0.089 0.776197,0.13493 0.258731,0.0459 0.517465,0.0928 0.776195,0.14062 0.258734,0.0479 0.517467,0.0966 0.776198,0.14643 0.258733,0.0498 0.517464,0.10059 0.776197,0.15238 0.258731,0.0518 0.517465,0.1046 0.776195,0.15845 0.258734,0.0539 0.517467,0.10873 0.776198,0.16466 0.258733,0.0559 0.517464,0.11294 0.776197,0.17103 0.258731,0.0581 0.517464,0.11726 0.776195,0.17754 0.258734,0.0603 0.517467,0.12168 0.776198,0.18421 0.258733,0.0625 0.517464,0.12621 0.776197,0.19104 0.258731,0.0649 0.517464,0.13086 0.776198,0.19806 0.258731,0.0672 0.517464,0.13561 0.776195,0.20524 0.258733,0.0696 0.517464,0.14049 0.776197,0.21261 0.258731,0.0721 0.517464,0.14551 0.776198,0.22019 0.258731,0.0747 0.517464,0.15064 0.776197,0.22794 0.258731,0.0773 0.517465,0.15593 0.776195,0.23592 0.258734,0.08 0.517464,0.16135 0.776198,0.2441 0.258731,0.0828 0.517464,0.16691 0.776197,0.2525 0.258731,0.0856 0.517465,0.17263 0.776195,0.26114 0.258734,0.0885 0.517464,0.1785 0.776195,0.27 0.258736,0.0915 0.517467,0.18453 0.7762,0.2791 0.258731,0.0946 0.517462,0.19072 0.776198,0.28845 0.258731,0.0977 0.517459,0.19708 0.776195,0.29805 0.258731,0.10098 0.517467,0.20359 0.776195,0.3079 0.25873,0.1043 0.517461,0.21028 0.776197,0.31799 0.258731,0.10771 0.517464,0.21715 0.776195,0.32835 0.258731,0.11121 0.517467,0.22418 0.776198,0.33897 0.258733,0.11479 0.517464,0.23138 0.776195,0.34983 0.258736,0.11844 0.517464,0.23875 0.7762,0.36094 0.258731,0.12219 0.517461,0.24628 0.776195,0.37229 0.25873,0.12601 0.517466,0.25395 0.776197,0.38386 0.258731,0.1299 0.517464,0.26177 0.776195,0.39563 0.258731,0.13385 0.517467,0.26971 0.776198,0.40758 0.258733,0.13788 0.517464,0.27777 0.776195,0.4197 0.258736,0.14192 0.517464,0.28589 0.7762,0.4319 0.25873,0.146 0.517461,0.29407 0.776195,0.44417 0.25873,0.15009 0.517466,0.30225 0.776197,0.45642 0.258731,0.15418 0.517464,0.31039 0.776195,0.46859 0.258731,0.15821 0.517467,0.31842 0.776198,0.48056 0.258733,0.16215 0.517464,0.32626 0.776194,0.49222 0.258737,0.16596 0.517465,0.3338 0.776201,0.50339 0.25873,0.16959 0.517461,0.34094 0.776195,0.51389 0.25873,0.17296 0.517466,0.34753 0.776197,0.52349 0.258731,0.17598 0.517467,0.35337 0.776195,0.53191 0.258736,0.17854 0.517467,0.35823 0.776198,0.53875 0.258733,0.18051 0.517464,0.36186 0.776194,0.5436 0.258736,0.18174 0.517465,0.36389 0.776201,0.54591 0.25873,0.18201 0.517461,0.3639 0.776195,0.54499 0.258733,0.18108 0.517466,0.36137 0.776197,0.54001 0.258731,0.17865 0.517467,0.35565 0.776195,0.52996 0.258736,0.17431 0.517467,0.34592 0.776198,0.51353 0.258733,0.1676 0.517464,0.33118 0.7762,0.48911 0.25873,0.15793 0.517461,0.31018 0.776195,0.45473 0.25873,0.14455 0.517461,0.28136 0.776197,0.40788 0.258731,0.12653 0.517464,0.24272 0.776195,0.34541 0.258731,0.1027 0.517467,0.19181 0.776195,0.26337 0.258736,0.0715 0.517467,0.12548 0.776197,0.15675 0.258734,0.0313 0.517465,0.0398 0.776201,0.0192 0.25873,-0.0206 0.517461,-0.0703 0.776195,-0.15729 0.25873,-0.087 0.517461,-0.21127 0.776197,-0.38303 0.258731,-0.17176 0.517464,-0.39121 0.776195,-0.67112 0.258731,-0.2799 0.517467,-0.62058 0.776195,-1.03827 0.258736,-0.41769 0.517467,-0.91279 0.776197,-1.50594 0.258734,-0.59314 0.517465,-1.28483 0.776201,-2.10131 0.25873,-0.81647 0.517461,-1.75839 0.776194,-2.85897 0.258731,-1.10059 0.517467,-2.3607 0.776198,-3.82225 0.258731,-1.46155 0.517464,-3.12564 0.776195,-5.04457 0.258731,-1.91895 0.517467,-4.0942 0.776195,-6.58999 0.258736,-2.49579 0.517467,-5.31408 0.776197,-8.53153 0.258734,-3.21746 0.517465,-6.83673 0.776201,-10.9453"
       style="fill:none;fill-opacity:1;stroke:#0000d4;stroke-width:0.80000001;stroke-linecap:butt;stroke-linejoin:round;stroke-miterlimit:4;stroke-dasharray:none;stroke-dashoffset:0;stroke-opacity:1"
       inkscape:connector-curvature="0" />
    <g
       transform="translate(-12.208796,-53.538172)"
       id="g4027">
      <text
         id="text9029-56"
         y="227.18738"
         x="19.830421"
         style="font-style:normal;font-weight:normal;font-size:10.58333302px;line-height:1.25;font-family:sans-serif;letter-spacing:0px;word-spacing:0px;fill:#000000;fill-opacity:1;stroke:none;stroke-width:0.26458332"
         xml:space="preserve"><tspan
           style="font-size:6.3499999px;stroke-width:0.26458332"
           y="227.18738"
           x="19.830421"
           id="tspan9027-2"
           sodipodi:role="line">$0$</tspan></text>
      <text
         id="text9029-5-9"
         y="227.18738"
         x="93.920471"
         style="font-style:normal;font-weight:normal;font-size:10.58333302px;line-height:1.25;font-family:sans-serif;letter-spacing:0px;word-spacing:0px;fill:#000000;fill-opacity:1;stroke:none;stroke-width:0.26458332"
         xml:space="preserve"><tspan
           style="font-size:6.3499999px;stroke-width:0.26458332"
           y="227.18738"
           x="93.920471"
           id="tspan9027-3-1"
           sodipodi:role="line">$90^\circ$</tspan></text>
      <text
         id="text9029-56-2-3-0"
         y="172.77057"
         x="16.710297"
         style="font-style:normal;font-weight:normal;font-size:10.58333302px;line-height:1.25;font-family:sans-serif;letter-spacing:0px;word-spacing:0px;fill:#000000;fill-opacity:1;stroke:none;stroke-width:0.26458332"
         xml:space="preserve"><tspan
           style="font-size:6.3499999px;stroke-width:0.26458332"
           y="172.77057"
           x="16.710297"
           id="tspan9027-2-7-6-6"
           sodipodi:role="line">$1$</tspan></text>
      <text
         id="text9029-56-2-3-0-1-7-2-3"
         y="201.54445"
         x="66.706001"
         style="font-style:normal;font-weight:normal;font-size:10.58333302px;line-height:1.25;font-family:sans-serif;letter-spacing:0px;word-spacing:0px;fill:#000000;fill-opacity:1;stroke:none;stroke-width:0.26458332"
         xml:space="preserve"><tspan
           style="font-size:6.3499999px;stroke-width:0.26458332"
           y="201.54445"
           x="66.706001"
           id="tspan9027-2-7-6-6-8-9-0-7"
           sodipodi:role="line">$\mathcal{R}_\mathrm{TM}$</tspan></text>
      <text
         id="text9029-5-9-5-2"
         y="228.38728"
         x="56.646317"
         style="font-style:normal;font-weight:normal;font-size:10.58333302px;line-height:1.25;font-family:sans-serif;letter-spacing:0px;word-spacing:0px;fill:#000000;fill-opacity:1;stroke:none;stroke-width:0.26458332"
         xml:space="preserve"><tspan
           style="font-size:6.3499999px;stroke-width:0.26458332"
           y="228.38728"
           x="56.646317"
           id="tspan9027-3-1-9-2"
           sodipodi:role="line">$\alpha$</tspan></text>
      <text
         id="text9029-56-2-3-0-1-7-2"
         y="186.99327"
         x="36.987831"
         style="font-style:normal;font-weight:normal;font-size:10.58333302px;line-height:1.25;font-family:sans-serif;letter-spacing:0px;word-spacing:0px;fill:#000000;fill-opacity:1;stroke:none;stroke-width:0.26458332"
         xml:space="preserve"><tspan
           style="font-size:6.3499999px;stroke-width:0.26458332"
           y="186.99327"
           x="36.987831"
           id="tspan9027-2-7-6-6-8-9-0"
           sodipodi:role="line">$\mathcal{R}_\mathrm{TE}$</tspan></text>
      <text
         id="text9029-56-2-0-3"
         y="224.48485"
         x="16.606298"
         style="font-style:normal;font-weight:normal;font-size:10.58333302px;line-height:1.25;font-family:sans-serif;letter-spacing:0px;word-spacing:0px;fill:#000000;fill-opacity:1;stroke:none;stroke-width:0.26458332"
         xml:space="preserve"><tspan
           style="font-size:6.3499999px;stroke-width:0.26458332"
           y="224.48485"
           x="16.606298"
           id="tspan9027-2-7-9-6"
           sodipodi:role="line">$0$</tspan></text>
    </g>
  </g>
</svg>
