<?xml version="1.0" encoding="UTF-8" standalone="no"?>
<!-- Created with Inkscape (http://www.inkscape.org/) -->

<svg
   xmlns:dc="http://purl.org/dc/elements/1.1/"
   xmlns:cc="http://creativecommons.org/ns#"
   xmlns:rdf="http://www.w3.org/1999/02/22-rdf-syntax-ns#"
   xmlns:svg="http://www.w3.org/2000/svg"
   xmlns="http://www.w3.org/2000/svg"
   xmlns:sodipodi="http://sodipodi.sourceforge.net/DTD/sodipodi-0.dtd"
   xmlns:inkscape="http://www.inkscape.org/namespaces/inkscape"
   width="220.3658mm"
   height="73.886398mm"
   viewBox="0 0 220.3658 73.8864"
   version="1.1"
   id="svg211"
   inkscape:version="0.92.5 (2060ec1f9f, 2020-04-08)"
   sodipodi:docname="04_redtm.svg">
  <defs
     id="defs205">
    <marker
       inkscape:isstock="true"
       style="overflow:visible"
       id="marker18155"
       refX="0"
       refY="0"
       orient="auto"
       inkscape:stockid="Arrow1Mstart">
      <path
         inkscape:connector-curvature="0"
         transform="matrix(0.4,0,0,0.4,4,0)"
         style="fill:#000000;fill-opacity:1;fill-rule:evenodd;stroke:#000000;stroke-width:1.00000003pt;stroke-opacity:1"
         d="M 0,0 5,-5 -12.5,0 5,5 Z"
         id="path18153" />
    </marker>
    <marker
       inkscape:isstock="true"
       style="overflow:visible"
       id="marker15778"
       refX="0"
       refY="0"
       orient="auto"
       inkscape:stockid="Arrow1Mend">
      <path
         transform="matrix(-0.4,0,0,-0.4,-4,0)"
         style="fill:#d40000;fill-opacity:1;fill-rule:evenodd;stroke:#d40000;stroke-width:1.00000003pt;stroke-opacity:1"
         d="M 0,0 5,-5 -12.5,0 5,5 Z"
         id="path15776"
         inkscape:connector-curvature="0" />
    </marker>
    <marker
       inkscape:isstock="true"
       style="overflow:visible"
       id="marker14070"
       refX="0"
       refY="0"
       orient="auto"
       inkscape:stockid="Arrow1Mend">
      <path
         transform="matrix(-0.4,0,0,-0.4,-4,0)"
         style="fill:#d40000;fill-opacity:1;fill-rule:evenodd;stroke:#d40000;stroke-width:1.00000003pt;stroke-opacity:1"
         d="M 0,0 5,-5 -12.5,0 5,5 Z"
         id="path14068"
         inkscape:connector-curvature="0" />
    </marker>
    <marker
       inkscape:stockid="StopL"
       orient="auto"
       refY="0"
       refX="0"
       id="StopL"
       style="overflow:visible"
       inkscape:isstock="true">
      <path
         id="path1616"
         d="M 0,5.65 V -5.65"
         style="fill:#666666;fill-opacity:1;fill-rule:evenodd;stroke:#666666;stroke-width:1.00000003pt;stroke-opacity:1"
         transform="scale(0.8)"
         inkscape:connector-curvature="0" />
    </marker>
    <marker
       inkscape:stockid="Arrow1Mstart"
       orient="auto"
       refY="0"
       refX="0"
       id="Arrow1Mstart-7"
       style="overflow:visible"
       inkscape:isstock="true">
      <path
         inkscape:connector-curvature="0"
         id="path1453-0"
         d="M 0,0 5,-5 -12.5,0 5,5 Z"
         style="fill:#000000;fill-opacity:1;fill-rule:evenodd;stroke:#000000;stroke-width:1.00000003pt;stroke-opacity:1"
         transform="matrix(0.4,0,0,0.4,4,0)" />
    </marker>
    <marker
       inkscape:stockid="Arrow1Mstart"
       orient="auto"
       refY="0"
       refX="0"
       id="Arrow1Mstart-3"
       style="overflow:visible"
       inkscape:isstock="true">
      <path
         inkscape:connector-curvature="0"
         id="path1453-6"
         d="M 0,0 5,-5 -12.5,0 5,5 Z"
         style="fill:#000000;fill-opacity:1;fill-rule:evenodd;stroke:#000000;stroke-width:1.00000003pt;stroke-opacity:1"
         transform="matrix(0.4,0,0,0.4,4,0)" />
    </marker>
    <marker
       inkscape:stockid="Arrow1Mend"
       orient="auto"
       refY="0"
       refX="0"
       id="Arrow1Mend-1"
       style="overflow:visible"
       inkscape:isstock="true">
      <path
         inkscape:connector-curvature="0"
         id="path1456-2"
         d="M 0,0 5,-5 -12.5,0 5,5 Z"
         style="fill:#000000;fill-opacity:1;fill-rule:evenodd;stroke:#000000;stroke-width:1.00000003pt;stroke-opacity:1"
         transform="matrix(-0.4,0,0,-0.4,-4,0)" />
    </marker>
    <marker
       inkscape:stockid="Arrow1Mstart"
       orient="auto"
       refY="0"
       refX="0"
       id="Arrow1Mstart-7-9"
       style="overflow:visible"
       inkscape:isstock="true">
      <path
         inkscape:connector-curvature="0"
         id="path1453-0-3"
         d="M 0,0 5,-5 -12.5,0 5,5 Z"
         style="fill:#000000;fill-opacity:1;fill-rule:evenodd;stroke:#000000;stroke-width:1.00000003pt;stroke-opacity:1"
         transform="matrix(0.4,0,0,0.4,4,0)" />
    </marker>
    <marker
       inkscape:stockid="Arrow1Mend"
       orient="auto"
       refY="0"
       refX="0"
       id="Arrow1Mend-9-1"
       style="overflow:visible"
       inkscape:isstock="true">
      <path
         inkscape:connector-curvature="0"
         id="path1456-3-9"
         d="M 0,0 5,-5 -12.5,0 5,5 Z"
         style="fill:#000000;fill-opacity:1;fill-rule:evenodd;stroke:#000000;stroke-width:1.00000003pt;stroke-opacity:1"
         transform="matrix(-0.4,0,0,-0.4,-4,0)" />
    </marker>
    <marker
       inkscape:stockid="Arrow1Mstart"
       orient="auto"
       refY="0"
       refX="0"
       id="Arrow1Mstart-3-6"
       style="overflow:visible"
       inkscape:isstock="true">
      <path
         inkscape:connector-curvature="0"
         id="path1453-6-1"
         d="M 0,0 5,-5 -12.5,0 5,5 Z"
         style="fill:#000000;fill-opacity:1;fill-rule:evenodd;stroke:#000000;stroke-width:1.00000003pt;stroke-opacity:1"
         transform="matrix(0.4,0,0,0.4,4,0)" />
    </marker>
    <marker
       inkscape:stockid="Arrow1Mend"
       orient="auto"
       refY="0"
       refX="0"
       id="Arrow1Mend-1-0"
       style="overflow:visible"
       inkscape:isstock="true">
      <path
         inkscape:connector-curvature="0"
         id="path1456-2-6"
         d="M 0,0 5,-5 -12.5,0 5,5 Z"
         style="fill:#000000;fill-opacity:1;fill-rule:evenodd;stroke:#000000;stroke-width:1.00000003pt;stroke-opacity:1"
         transform="matrix(-0.4,0,0,-0.4,-4,0)" />
    </marker>
    <marker
       inkscape:stockid="Arrow1Mstart"
       orient="auto"
       refY="0"
       refX="0"
       id="Arrow1Mstart-7-9-6"
       style="overflow:visible"
       inkscape:isstock="true">
      <path
         inkscape:connector-curvature="0"
         id="path1453-0-3-1"
         d="M 0,0 5,-5 -12.5,0 5,5 Z"
         style="fill:#000000;fill-opacity:1;fill-rule:evenodd;stroke:#000000;stroke-width:1.00000003pt;stroke-opacity:1"
         transform="matrix(0.4,0,0,0.4,4,0)" />
    </marker>
    <marker
       inkscape:stockid="Arrow1Mend"
       orient="auto"
       refY="0"
       refX="0"
       id="Arrow1Mend-9-1-5"
       style="overflow:visible"
       inkscape:isstock="true">
      <path
         inkscape:connector-curvature="0"
         id="path1456-3-9-5"
         d="M 0,0 5,-5 -12.5,0 5,5 Z"
         style="fill:#000000;fill-opacity:1;fill-rule:evenodd;stroke:#000000;stroke-width:1.00000003pt;stroke-opacity:1"
         transform="matrix(-0.4,0,0,-0.4,-4,0)" />
    </marker>
    <marker
       inkscape:isstock="true"
       style="overflow:visible"
       id="marker14070-4"
       refX="0"
       refY="0"
       orient="auto"
       inkscape:stockid="Arrow1Mend">
      <path
         transform="matrix(-0.4,0,0,-0.4,-4,0)"
         style="fill:#d40000;fill-opacity:1;fill-rule:evenodd;stroke:#d40000;stroke-width:1.00000003pt;stroke-opacity:1"
         d="M 0,0 5,-5 -12.5,0 5,5 Z"
         id="path14068-5"
         inkscape:connector-curvature="0" />
    </marker>
    <marker
       inkscape:isstock="true"
       style="overflow:visible"
       id="marker18155-3"
       refX="0"
       refY="0"
       orient="auto"
       inkscape:stockid="Arrow1Mstart">
      <path
         inkscape:connector-curvature="0"
         transform="matrix(0.4,0,0,0.4,4,0)"
         style="fill:#000000;fill-opacity:1;fill-rule:evenodd;stroke:#000000;stroke-width:1.00000003pt;stroke-opacity:1"
         d="M 0,0 5,-5 -12.5,0 5,5 Z"
         id="path18153-0" />
    </marker>
    <marker
       inkscape:isstock="true"
       style="overflow:visible"
       id="marker14070-8"
       refX="0"
       refY="0"
       orient="auto"
       inkscape:stockid="Arrow1Mend">
      <path
         transform="matrix(-0.4,0,0,-0.4,-4,0)"
         style="fill:#d40000;fill-opacity:1;fill-rule:evenodd;stroke:#d40000;stroke-width:1.00000003pt;stroke-opacity:1"
         d="M 0,0 5,-5 -12.5,0 5,5 Z"
         id="path14068-8"
         inkscape:connector-curvature="0" />
    </marker>
  </defs>
  <sodipodi:namedview
     id="base"
     pagecolor="#ffffff"
     bordercolor="#666666"
     borderopacity="1.0"
     inkscape:pageopacity="0.0"
     inkscape:pageshadow="2"
     inkscape:zoom="0.75128574"
     inkscape:cx="391.7475"
     inkscape:cy="206.08288"
     inkscape:document-units="mm"
     inkscape:current-layer="layer1"
     showgrid="false"
     inkscape:snap-bbox="true"
     fit-margin-top="0"
     fit-margin-left="0"
     fit-margin-right="0"
     fit-margin-bottom="0"
     inkscape:window-width="1812"
     inkscape:window-height="994"
     inkscape:window-x="501"
     inkscape:window-y="296"
     inkscape:window-maximized="0" />
  <metadata
     id="metadata208">
    <rdf:RDF>
      <cc:Work
         rdf:about="">
        <dc:format>image/svg+xml</dc:format>
        <dc:type
           rdf:resource="http://purl.org/dc/dcmitype/StillImage" />
        <dc:title></dc:title>
      </cc:Work>
    </rdf:RDF>
  </metadata>
  <g
     inkscape:label="Layer 1"
     inkscape:groupmode="layer"
     id="layer1"
     transform="translate(-10.028371,-167.91285)">
    <text
       xml:space="preserve"
       style="font-style:normal;font-weight:normal;font-size:10.58333302px;line-height:1.25;font-family:sans-serif;letter-spacing:0px;word-spacing:0px;fill:#000000;fill-opacity:1;stroke:none;stroke-width:0.26458332"
       x="49.928837"
       y="47.981602"
       id="text7124"><tspan
         sodipodi:role="line"
         id="tspan7122"
         x="49.928837"
         y="57.345371"
         style="stroke-width:0.26458332" /></text>
    <path
       id="path8648"
       title="((cos(x)-1.5*sqrt(1-(sin(x)*sin(x)/2.25)))/(cos(x)+1.5*sqrt(1-(sin(x)*sin(x)/2.25))))**"
       d=""
       style="fill:none;fill-opacity:0.9921875;stroke:#000000;stroke-width:0.80000001;stroke-linecap:round;stroke-miterlimit:4;stroke-dasharray:none;stroke-dashoffset:0;stroke-opacity:1"
       inkscape:connector-curvature="0" />
    <path
       style="fill:#4d4d4d;fill-opacity:0.9921875;stroke:#666666;stroke-width:0.80000001;stroke-linecap:square;stroke-miterlimit:4;stroke-dasharray:3.20000021, 1.60000011;stroke-dashoffset:0;stroke-opacity:1"
       d="m 194.1759,171.45962 v 60.72166"
       id="rect7827-6-3-3"
       inkscape:connector-curvature="0"
       sodipodi:nodetypes="cc" />
    <path
       id="path9837-9"
       title="((1.5*cos(x)-sqrt(1-(sin(x)*sin(x)/2.25)))/(1.5*cos(x)+sqrt(1-(sin(x)*sin(x)/2.25))))*((1.5*cos(x)-sqrt(1-(sin(x)*sin(x)/2.25)))/(1.5*cos(x)+sqrt(1-(sin(x)*sin(x)/2.25))))"
       d="m 138.57964,174.21544 c 0.36935,0 0.73872,-3.2e-4 1.1081,-0.001 0.36935,-6.4e-4 0.73872,-0.002 1.10807,-0.004 0.36938,-0.001 0.73873,-0.004 1.1081,-0.006 0.36937,-0.002 0.73872,-0.005 1.1081,-0.008 l 1.10808,-0.0107 c 0.36938,-0.004 0.73874,-0.008 1.10808,-0.0131 0.36938,-0.005 0.73873,-0.01 1.1081,-0.0154 l 1.1081,-0.0179 c 0.36937,-0.006 0.73873,-0.0131 1.1081,-0.0203 0.36935,-0.007 0.73871,-0.0146 1.10809,-0.0227 0.36935,-0.008 0.73872,-0.0163 1.10808,-0.0252 0.36937,-0.008 0.73874,-0.0178 1.1081,-0.0275 0.36936,-0.009 0.73874,-0.0196 1.10809,-0.0299 0.36937,-0.0107 0.73872,-0.0212 1.10808,-0.0324 0.36939,-0.0107 0.73874,-0.0228 1.1081,-0.0348 0.36937,-0.012 0.73874,-0.0244 1.10809,-0.0372 0.36937,-0.0127 0.73874,-0.026 1.10809,-0.0396 0.36938,-0.0135 0.73874,-0.0277 1.1081,-0.042 0.36936,-0.0144 0.73872,-0.0293 1.1081,-0.0445 0.36935,-0.0152 0.73872,-0.0309 1.10809,-0.0469 0.36936,-0.016 0.73873,-0.0325 1.10809,-0.0493 0.36935,-0.0168 0.73874,-0.0341 1.10808,-0.0517 0.36937,-0.0177 0.73873,-0.0356 1.10809,-0.054 0.36938,-0.0183 0.73874,-0.0372 1.1081,-0.0564 0.36935,-0.0191 0.73874,-0.0387 1.1081,-0.0587 0.36936,-0.0201 0.73872,-0.0403 1.10808,-0.061 0.36937,-0.0208 0.73873,-0.0418 1.1081,-0.0632 0.36936,-0.0215 0.73872,-0.0432 1.1081,-0.0653 0.36936,-0.0222 0.73871,-0.0445 1.10809,-0.0674 0.36937,-0.0228 0.73871,-0.0458 1.10808,-0.0693 0.36936,-0.0235 0.73873,-0.0471 1.10809,-0.0712 0.36938,-0.0241 0.73872,-0.0483 1.10809,-0.0729 0.36938,-0.0246 0.73875,-0.0494 1.1081,-0.0744 0.36936,-0.0252 0.73873,-0.0503 1.10809,-0.0759 0.36936,-0.0255 0.73873,-0.0512 1.1081,-0.0771 0.36936,-0.0259 0.73872,-0.0518 1.10808,-0.078 0.36937,-0.0261 0.73874,-0.0523 1.1081,-0.0786 l 1.10808,-0.0789 c 0.36938,-0.0264 0.73874,-0.0526 1.10809,-0.0788 0.36937,-0.0262 0.73875,-0.0522 1.1081,-0.0782 0.36936,-0.026 0.73874,-0.0518 1.10811,-0.0773 0.36935,-0.0255 0.73872,-0.0508 1.10807,-0.0756 0.36936,-0.0249 0.73875,-0.0494 1.10811,-0.0734 0.36935,-0.0241 0.73871,-0.0475 1.1081,-0.0704 0.36934,-0.0229 0.73871,-0.045 1.10808,-0.0665 0.36934,-0.0215 0.73872,-0.042 1.10809,-0.0616 0.36935,-0.0195 0.73872,-0.0381 1.10809,-0.0555 0.36936,-0.0173 0.73872,-0.0335 1.10809,-0.0482 0.36937,-0.0146 0.73873,-0.0279 1.1081,-0.0394 0.36936,-0.0119 0.73871,-0.0211 1.10809,-0.0288 0.36936,-0.007 0.73872,-0.0132 1.10808,-0.0164 0.36937,-0.004 0.73873,-0.004 1.1081,-10e-4 0.36937,0.002 0.73871,0.007 1.1081,0.0153 0.36936,0.008 0.7387,0.0199 1.10807,0.0354 0.36937,0.0154 0.73874,0.0348 1.1081,0.0585 0.36937,0.0239 0.73874,0.0521 1.1081,0.0856 0.36937,0.0335 0.73874,0.0722 1.10807,0.11683 0.36938,0.0446 0.73876,0.0953 1.1081,0.15292 0.36937,0.0575 0.73874,0.12209 1.1081,0.19453 0.36937,0.0724 0.73873,0.15288 1.1081,0.24244 0.36936,0.0895 0.73873,0.18832 1.10808,0.29759 0.36936,0.1092 0.73873,0.22908 1.1081,0.36097 0.36936,0.13189 0.73872,0.27593 1.10809,0.43383 0.36937,0.1579 0.73873,0.32974 1.1081,0.51752 0.36935,0.18776 0.73871,0.39154 1.1081,0.61362 0.36933,0.22206 0.73871,0.46252 1.10807,0.72398 0.36937,0.26146 0.73874,0.54405 1.1081,0.85075 0.36936,0.30669 0.73871,0.63768 1.1081,0.99636 0.36936,0.3587 0.7387,0.74527 1.10808,1.16373 0.36936,0.41845 0.73872,0.86896 1.1081,1.35615 0.36935,0.48719 0.73871,1.01128 1.10809,1.57759 0.36937,0.56632 0.73873,1.17512 1.10808,1.8326 0.36939,0.65747 0.73875,1.36391 1.10809,2.12653 0.36937,0.7626 0.73873,1.58172 1.1081,2.46573 0.36937,0.88403 0.73873,1.83331 1.10809,2.85769 0.36937,1.02439 0.73874,2.1243 1.10809,3.31124 0.36937,1.18692 0.73871,2.46138 1.10809,3.83686 0.36937,1.37549 0.73872,2.85258 1.1081,4.44716 0.36937,1.5946 0.73873,3.30739 1.10809,5.15716 0.36936,1.84978 0.73874,3.83731 1.1081,5.98491 0.36936,2.1476 0.73872,4.45617 1.10807,6.95227 0.36937,2.49609 0.73875,5.18078 1.1081,8.08576 0.36936,2.90501 0.18096,0.76334 0.55034,4.14954"
       style="fill:none;fill-opacity:0.9921875;stroke:#0000d4;stroke-width:0.80000001;stroke-linecap:round;stroke-miterlimit:4;stroke-dasharray:none;stroke-dashoffset:0;stroke-opacity:1"
       inkscape:connector-curvature="0"
       sodipodi:nodetypes="cssssssssssssssssssssssssssssssssssssssssssssssssssssssssssssssssssssssssssssssssssc" />
    <path
       id="path9837"
       title="((1.5*cos(x)-sqrt(1-(sin(x)*sin(x)/2.25)))/(1.5*cos(x)+sqrt(1-(sin(x)*sin(x)/2.25))))*((1.5*cos(x)-sqrt(1-(sin(x)*sin(x)/2.25)))/(1.5*cos(x)+sqrt(1-(sin(x)*sin(x)/2.25))))"
       d="m 139.00422,229.92901 c 0.36765,0 0.73529,4e-4 1.10295,0.001 0.36764,7.9e-4 0.7353,0.002 1.10293,0.004 0.36766,0.001 0.73532,0.004 1.10295,0.006 0.36764,0.002 0.73529,0.005 1.10296,0.008 l 1.10293,0.0107 c 0.36766,0.004 0.7353,0.008 1.10295,0.0131 0.36764,0.005 0.73529,0.01 1.10296,0.0154 l 1.10293,0.0178 c 0.36766,0.006 0.7353,0.0131 1.10296,0.0203 0.36763,0.007 0.73527,0.0146 1.10292,0.0227 0.36766,0.008 0.7353,0.0163 1.10295,0.0252 0.36767,0.008 0.7353,0.0179 1.10295,0.0275 0.36765,0.01 0.73531,0.0195 1.10295,0.0299 0.36766,0.0107 0.73528,0.0212 1.10293,0.0324 0.36767,0.0107 0.73531,0.0228 1.10295,0.0348 0.36766,0.012 0.73532,0.0244 1.10295,0.0372 0.36766,0.0127 0.7353,0.026 1.10295,0.0397 0.36765,0.0135 0.73531,0.0276 1.10293,0.042 0.36765,0.0144 0.73532,0.0293 1.10296,0.0445 0.36765,0.0152 0.7353,0.0309 1.10294,0.0469 0.36765,0.016 0.73531,0.0325 1.10295,0.0493 0.36764,0.0168 0.73532,0.0341 1.10295,0.0517 0.36763,0.0176 0.73529,0.0356 1.10294,0.054 0.36765,0.0183 0.73531,0.0372 1.10295,0.0563 0.36764,0.0191 0.73529,0.0387 1.10295,0.0588 0.36764,0.02 0.73528,0.0403 1.10293,0.061 0.36766,0.0207 0.73529,0.0418 1.10295,0.0632 0.36765,0.0215 0.7353,0.0432 1.10296,0.0653 0.36764,0.0222 0.73528,0.0445 1.10293,0.0674 0.36766,0.0228 0.73529,0.0458 1.10295,0.0693 0.36764,0.0235 0.7353,0.0471 1.10295,0.0712 0.36764,0.0241 0.73529,0.0483 1.10293,0.0729 0.36767,0.0246 0.73531,0.0494 1.10295,0.0744 0.36764,0.0252 0.7353,0.0503 1.10294,0.0759 0.36766,0.0255 0.73531,0.0512 1.10296,0.0771 0.36765,0.0259 0.73529,0.0518 1.10294,0.078 0.36765,0.0261 0.73531,0.0523 1.10295,0.0786 l 1.10294,0.0789 c 0.36766,0.0264 0.7353,0.0526 1.10295,0.0788 0.36764,0.0262 0.7353,0.0522 1.10294,0.0782 0.36765,0.026 0.7353,0.0518 1.10296,0.0773 0.36765,0.0255 0.73528,0.0508 1.10292,0.0756 0.36765,0.0249 0.73532,0.0494 1.10296,0.0734 0.36765,0.0241 0.7353,0.0475 1.10295,0.0704 0.36764,0.0229 0.7353,0.045 1.10293,0.0665 0.36765,0.0214 0.7353,0.042 1.10295,0.0616 0.36765,0.0196 0.73529,0.0381 1.10296,0.0555 0.36764,0.0173 0.73529,0.0335 1.10294,0.0482 0.36764,0.0146 0.73529,0.0279 1.10295,0.0394 0.36763,0.0119 0.73528,0.0212 1.10295,0.0288 0.36763,0.007 0.73528,0.0132 1.10293,0.0164 0.36765,0.004 0.7353,0.004 1.10296,0.001 0.36764,-0.002 0.73528,-0.007 1.10294,-0.0153 0.36764,-0.008 0.73528,-0.0198 1.10293,-0.0354 0.36766,-0.0154 0.7353,-0.0348 1.10295,-0.0586 0.36765,-0.0239 0.7353,-0.0521 1.10295,-0.0856 0.36766,-0.0335 0.7353,-0.0722 1.10293,-0.11682 0.36767,-0.0446 0.73531,-0.0954 1.10296,-0.15293 0.36765,-0.0575 0.7353,-0.12209 1.10294,-0.19453 0.36766,-0.0724 0.7353,-0.15288 1.10295,-0.24244 0.36765,-0.0895 0.73531,-0.18832 1.10293,-0.29759 0.36765,-0.1092 0.7353,-0.22907 1.10296,-0.36097 0.36765,-0.13189 0.7353,-0.27593 1.10295,-0.43383 0.36764,-0.1579 0.7353,-0.32974 1.10294,-0.51752 0.36765,-0.18776 0.73529,-0.39154 1.10296,-0.61362 0.36762,-0.22206 0.73528,-0.46251 1.10293,-0.72398 0.36765,-0.26146 0.73531,-0.54404 1.10295,-0.85074 0.36765,-0.3067 0.73528,-0.63769 1.10295,-0.99637 0.36765,-0.3587 0.73528,-0.74526 1.10293,-1.16372 0.36766,-0.41846 0.7353,-0.86897 1.10295,-1.35616 0.36765,-0.48719 0.73529,-1.01128 1.10296,-1.57759 0.36764,-0.56632 0.73529,-1.17512 1.10293,-1.8326 0.36766,-0.65746 0.73531,-1.36391 1.10295,-2.12652 0.36765,-0.76261 0.73529,-1.58173 1.10295,-2.46574 0.36764,-0.88403 0.73529,-1.83331 1.10293,-2.85769 0.36767,-1.02439 0.73531,-2.12429 1.10296,-3.31123 0.36765,-1.18693 0.73528,-2.46139 1.10293,-3.83687 0.36766,-1.37548 0.73531,-2.85256 1.10295,-4.44716 0.36766,-1.5946 0.7353,-3.30738 1.10295,-5.15716 0.36765,-1.84978 0.73531,-3.83731 1.10296,-5.98491 0.36765,-2.1476 0.73527,-4.45617 1.10292,-6.95227 0.36767,-2.49609 0.73531,-5.18078 1.10296,-8.08576 0.36764,-2.90501 0.18013,-0.76334 0.54777,-4.14954"
       style="fill:none;fill-opacity:0.9921875;stroke:#d40000;stroke-width:0.80000001;stroke-linecap:round;stroke-miterlimit:4;stroke-dasharray:none;stroke-dashoffset:0;stroke-opacity:1"
       inkscape:connector-curvature="0"
       sodipodi:nodetypes="cssssssssssssssssssssssssssssssssssssssssssssssssssssssssssssssssssssssssssssssssssc" />
    <rect
       style="fill:none;fill-opacity:0.9921875;stroke:#000000;stroke-width:0.5;stroke-linecap:round;stroke-miterlimit:4;stroke-dasharray:none;stroke-dashoffset:0;stroke-opacity:1"
       id="rect7827-3"
       width="91.515923"
       height="61.381481"
       x="138.47757"
       y="171.38148" />
    <path
       style="fill:#4d4d4d;fill-opacity:0.9921875;stroke:#666666;stroke-width:0.80000001;stroke-linecap:square;stroke-miterlimit:4;stroke-dasharray:3.20000017, 1.60000008;stroke-dashoffset:0;stroke-opacity:1"
       d="m 78.684657,171.71629 v 60.72167"
       id="rect7827-6-3"
       inkscape:connector-curvature="0"
       sodipodi:nodetypes="cc" />
    <path
       style="fill:#4d4d4d;fill-opacity:0.9921875;stroke:#666666;stroke-width:0.80000001;stroke-linecap:round;stroke-miterlimit:4;stroke-dasharray:none;stroke-dashoffset:0;stroke-opacity:1"
       d="M 22.906018,201.74841 H 114.42195"
       id="rect7827-6"
       inkscape:connector-curvature="0"
       sodipodi:nodetypes="cc" />
    <path
       id="path9544"
       title="((1.5*cos(x)-sqrt(1-(sin(x)*sin(x)/2.25)))/(1.5*cos(x)+sqrt(1-(sin(x)*sin(x)/2.25))))"
       d="m 22.90604,195.93408 c 0.369025,0 0.73805,5e-4 1.107075,0.001 0.369024,9.9e-4 0.738048,0.002 1.107073,0.005 l 1.107073,0.007 c 0.369025,0.002 0.73805,0.006 1.107074,0.0107 0.369024,0.004 0.738049,0.008 1.107074,0.0134 0.369025,0.005 0.738048,0.0107 1.107072,0.0164 0.369027,0.006 0.738052,0.0125 1.107075,0.0196 0.369024,0.007 0.73805,0.0145 1.107075,0.0227 0.369024,0.008 0.738047,0.0166 1.107074,0.0258 0.369024,0.01 0.738049,0.0188 1.107072,0.029 0.369025,0.0107 0.73805,0.021 1.107075,0.0322 0.369023,0.0107 0.738047,0.0231 1.107073,0.0355 0.369025,0.0124 0.738049,0.0254 1.107072,0.0389 0.369026,0.0135 0.738052,0.0276 1.107076,0.0423 0.369023,0.0146 0.738049,0.03 1.107073,0.0458 0.369025,0.0158 0.738049,0.0324 1.107074,0.0494 0.369024,0.0171 0.738049,0.0348 1.107074,0.0531 0.369023,0.0183 0.738049,0.0374 1.107074,0.057 0.369024,0.0197 0.738048,0.0399 1.107073,0.0609 0.369024,0.021 0.738049,0.0426 1.107073,0.0649 0.369026,0.0224 0.73805,0.0454 1.107075,0.0691 0.369024,0.0237 0.73805,0.0482 1.107073,0.0734 0.369025,0.0253 0.738049,0.0512 1.107075,0.0779 0.369024,0.0267 0.738048,0.0541 1.107072,0.0825 0.369026,0.0284 0.73805,0.0573 1.107074,0.0873 0.369025,0.0299 0.738049,0.0607 1.107075,0.0923 0.369023,0.0316 0.738048,0.0641 1.107072,0.0975 0.369026,0.0334 0.73805,0.0677 1.107075,0.10278 0.369024,0.0351 0.73805,0.0714 1.107074,0.10838 0.369024,0.037 0.738048,0.0752 1.107074,0.11421 0.369024,0.0391 0.738049,0.0792 1.107072,0.12028 0.369026,0.0411 0.73805,0.0833 1.107074,0.12663 0.369024,0.0433 0.738048,0.0876 1.107075,0.13327 0.369024,0.0456 0.738049,0.0923 1.107072,0.14021 0.369026,0.048 0.73805,0.097 1.107075,0.14748 0.369024,0.0503 0.73805,0.10207 1.107074,0.15512 0.369025,0.053 0.738049,0.1073 1.107074,0.16309 0.369024,0.0558 0.738048,0.11291 1.107073,0.17149 0.369026,0.0585 0.738049,0.11874 1.107073,0.18031 0.369025,0.0616 0.73805,0.12478 1.107074,0.18956 0.369024,0.0648 0.738049,0.1312 1.107074,0.1993 0.369026,0.0681 0.738049,0.13794 1.107073,0.20957 0.369025,0.0716 0.738052,0.14506 1.107075,0.22038 0.369024,0.0754 0.738049,0.15254 1.107075,0.23176 0.369023,0.0792 0.738047,0.16046 1.107072,0.2438 0.369025,0.0833 0.73805,0.1688 1.107073,0.25648 0.369025,0.0876 0.73805,0.17762 1.107075,0.26989 0.369023,0.0923 0.738047,0.18693 1.107072,0.28408 0.369026,0.0971 0.73805,0.19677 1.107074,0.29905 0.369025,0.1023 0.73805,0.20722 1.107076,0.31495 0.369023,0.10766 0.738048,0.21825 1.107073,0.33174 0.369025,0.1135 0.738049,0.22996 1.107073,0.34959 0.369025,0.1196 0.73805,0.24237 1.107074,0.36847 0.369023,0.12609 0.738049,0.25555 1.107074,0.38854 0.369024,0.133 0.738048,0.26956 1.107073,0.40988 0.369024,0.1403 0.738049,0.28441 1.107073,0.4325 0.369024,0.14811 0.738049,0.30024 1.107075,0.45662 0.369025,0.15639 0.738049,0.31706 1.107074,0.48226 0.369025,0.16521 0.738049,0.33499 1.107074,0.50958 0.369025,0.17461 0.738049,0.35407 1.107073,0.53871 0.369025,0.18462 0.73805,0.37443 1.107073,0.56975 0.369025,0.19533 0.738049,0.39619 1.107075,0.60292 0.369023,0.20675 0.738048,0.41942 1.107072,0.63838 0.369025,0.21895 0.73805,0.44422 1.107074,0.67624 0.369024,0.23201 0.738051,0.47081 1.107076,0.71681 0.369024,0.246 0.738048,0.49925 1.107073,0.76024 0.369025,0.261 0.73805,0.52977 1.107073,0.80684 0.369024,0.27708 0.73805,0.56251 1.107074,0.85685 0.369024,0.29433 0.738048,0.59766 1.107074,0.91056 0.369024,0.31292 0.738052,0.63548 1.107072,0.96839 0.36902,0.33288 0.73805,0.67617 1.10708,1.03061 0.36902,0.35444 0.73804,0.72006 1.10707,1.09773 0.36902,0.37768 0.73805,0.76745 1.10707,1.17023 0.36903,0.40277 0.73805,0.81863 1.10707,1.24857 0.36903,0.42994 0.73806,0.87406 1.10708,1.33344 0.36902,0.45937 0.73804,0.93413 1.10708,1.42548 0.36902,0.49133 0.73804,0.99938 1.10706,1.52548 0.36904,0.52609 0.73806,1.07036 1.10708,1.63432 0.36902,0.56396 0.73805,1.14773 1.10708,1.75304 0.36902,0.6053 0.73804,1.23224 1.10707,1.88277 0.36902,0.65052 0.73805,1.32476 1.10707,2.02488 0.36903,0.70012 0.73805,1.42627 1.10707,2.18092 0.36903,0.75465 0.36684,0.33937 0.73586,1.15413"
       style="fill:none;fill-opacity:0.9921875;stroke:#d40000;stroke-width:0.80000001;stroke-linecap:round;stroke-miterlimit:4;stroke-dasharray:none;stroke-dashoffset:0;stroke-opacity:1"
       inkscape:connector-curvature="0"
       sodipodi:nodetypes="ccssccccccccsssscscscscssscssssccccccccssccccccccccscssccccccccscccccccccccsccscsscc" />
    <path
       id="path9635"
       title="(1-((1.5*cos(x)-sqrt(1-(sin(x)*sin(x)/2.25)))/(1.5*cos(x)+sqrt(1-(sin(x)*sin(x)/2.25)))))*cos(x)/sqrt(1-(sin(x)*sin(x)/2.25))"
       d="m 22.90604,177.51963 c 0.369025,0 0.73805,3.3e-4 1.107075,0.001 0.369024,6.6e-4 0.738048,10e-4 1.107073,0.002 0.369026,0.001 0.738049,0.002 1.107073,0.005 l 1.107074,0.007 c 0.369024,0.002 0.738049,0.006 1.107074,0.01 l 1.107072,0.0107 c 0.369027,0.004 0.738052,0.008 1.107075,0.0129 0.369024,0.005 0.73805,0.01 1.107075,0.0151 0.369024,0.006 0.738047,0.0107 1.107074,0.0171 0.369024,0.006 0.738049,0.0125 1.107072,0.0192 0.369025,0.007 0.73805,0.0139 1.107075,0.0215 0.369023,0.007 0.738047,0.0154 1.107073,0.0237 0.369025,0.008 0.738049,0.017 1.107072,0.026 0.369026,0.01 0.738052,0.0185 1.107076,0.0282 0.369023,0.01 0.738049,0.0201 1.107073,0.0306 0.369025,0.0107 0.738049,0.0216 1.107074,0.033 0.369024,0.0119 0.738049,0.0233 1.107074,0.0355 0.369023,0.0122 0.738049,0.0249 1.107074,0.038 0.369024,0.0131 0.738048,0.0266 1.107073,0.0406 0.369024,0.0139 0.738049,0.0285 1.107073,0.0432 0.369026,0.0148 0.73805,0.0303 1.107075,0.0461 0.369024,0.0158 0.73805,0.0322 1.107073,0.0489 0.369025,0.0168 0.738049,0.0341 1.107075,0.0519 0.369024,0.0179 0.738048,0.0361 1.107072,0.0551 0.369026,0.0188 0.73805,0.0382 1.107074,0.0581 0.369025,0.02 0.738049,0.0405 1.107075,0.0615 0.369023,0.0211 0.738048,0.0427 1.107072,0.0649 0.369026,0.0223 0.73805,0.045 1.107075,0.0685 0.369024,0.0235 0.73805,0.0475 1.107074,0.0723 0.369024,0.0248 0.738048,0.0501 1.107074,0.0761 0.369024,0.0261 0.738049,0.0527 1.107072,0.0801 0.369026,0.0274 0.73805,0.0555 1.107074,0.0844 0.369024,0.0288 0.738048,0.0584 1.107075,0.0888 0.369024,0.0304 0.738049,0.0616 1.107072,0.0935 0.369026,0.0319 0.73805,0.0647 1.107075,0.0984 0.369024,0.0336 0.73805,0.0681 1.107074,0.10338 0.369025,0.0354 0.738049,0.0716 1.107074,0.10874 0.369024,0.0372 0.738048,0.0753 1.107073,0.11432 0.369026,0.0391 0.738049,0.0791 1.107073,0.12021 0.369025,0.0411 0.73805,0.0831 1.107074,0.12637 0.369024,0.0432 0.738049,0.0874 1.107074,0.13286 0.369026,0.0454 0.738049,0.0919 1.107073,0.13972 0.369025,0.0477 0.738052,0.0968 1.107075,0.14691 0.369024,0.0502 0.738049,0.10171 1.107075,0.15452 0.369023,0.0527 0.738047,0.10695 1.107072,0.16253 0.369025,0.0555 0.73805,0.11255 1.107073,0.17098 0.369025,0.0584 0.73805,0.11838 1.107075,0.17993 0.369023,0.0616 0.738047,0.12463 1.107072,0.18939 0.369026,0.0648 0.73805,0.13118 1.107074,0.19937 0.369025,0.0683 0.73805,0.13813 1.107076,0.20995 0.369023,0.0718 0.738048,0.14551 1.107073,0.22117 0.369025,0.0756 0.738049,0.15331 1.107073,0.23306 0.369025,0.0797 0.73805,0.16158 1.107074,0.24565 0.369023,0.0841 0.738049,0.17036 1.107074,0.25903 0.369024,0.0887 0.738048,0.1797 1.107073,0.27323 0.369024,0.0936 0.738049,0.18962 1.107073,0.28836 0.369024,0.0987 0.738049,0.20015 1.107075,0.3044 0.369025,0.10421 0.738049,0.21137 1.107074,0.32151 0.369025,0.11015 0.738049,0.22332 1.107074,0.33972 0.369025,0.11636 0.738049,0.23605 1.107073,0.35913 0.369025,0.12309 0.73805,0.24963 1.107073,0.37984 0.369025,0.13022 0.738049,0.26413 1.107075,0.40196 0.369023,0.13782 0.738048,0.27961 1.107072,0.42557 0.369025,0.14597 0.73805,0.29616 1.107074,0.45083 0.369024,0.15469 0.738051,0.31387 1.107076,0.47787 0.369024,0.16401 0.738048,0.33285 1.107073,0.50684 0.369025,0.17399 0.73805,0.35317 1.107073,0.53789 0.369024,0.18471 0.73805,0.375 1.107074,0.57122 0.369024,0.19623 0.738048,0.39844 1.107074,0.60706 0.369024,0.20861 0.738052,0.42364 1.107072,0.64557 0.36902,0.22194 0.73805,0.45079 1.10708,0.68709 0.36902,0.23628 0.73804,0.48004 1.10707,0.73182 0.36902,0.25177 0.73805,0.51163 1.10707,0.78015 0.36903,0.26851 0.73805,0.54574 1.10707,0.83238 0.36903,0.28663 0.73806,0.58271 1.10708,0.88896 0.36902,0.30626 0.73804,0.62275 1.10708,0.95031 0.36902,0.32758 0.73804,0.66627 1.10706,1.017 0.36904,0.35073 0.73806,0.71358 1.10708,1.08954 0.36902,0.37598 0.73805,0.76517 1.10708,1.16869 0.36902,0.40355 0.73804,0.8215 1.10707,1.25519 0.36902,0.43368 0.83748,0.8635 1.41406,1.46155 0.57658,0.59806 1.40797,1.60737 1.53595,1.78807"
       style="fill:none;fill-opacity:0.9921875;stroke:#0000d4;stroke-width:0.80000001;stroke-linecap:round;stroke-miterlimit:4;stroke-dasharray:none;stroke-dashoffset:0;stroke-opacity:1"
       inkscape:connector-curvature="0"
       sodipodi:nodetypes="ccsssssccccccccccssccsssccccsscscssccsscccccccccccccccccccccscccccccccccccccccccszc" />
    <rect
       style="fill:none;fill-opacity:0.9921875;stroke:#000000;stroke-width:0.5;stroke-linecap:round;stroke-miterlimit:4;stroke-dasharray:none;stroke-dashoffset:0;stroke-opacity:1"
       id="rect7827"
       width="91.515923"
       height="61.381481"
       x="22.906021"
       y="171.38148" />
    <text
       xml:space="preserve"
       style="font-style:normal;font-weight:normal;font-size:10.58333302px;line-height:1.25;font-family:sans-serif;letter-spacing:0px;word-spacing:0px;fill:#000000;fill-opacity:1;stroke:none;stroke-width:0.26458332"
       x="146.98999"
       y="249.32588"
       id="text9343"><tspan
         sodipodi:role="line"
         id="tspan9341"
         x="146.98999"
         y="258.68964"
         style="stroke-width:0.26458332" /><tspan
         sodipodi:role="line"
         x="146.98999"
         y="271.91882"
         style="stroke-width:0.26458332"
         id="tspan9345" /></text>
    <flowRoot
       xml:space="preserve"
       id="flowRoot9347"
       style="font-style:normal;font-weight:normal;font-size:40px;line-height:1.25;font-family:sans-serif;letter-spacing:0px;word-spacing:0px;fill:#000000;fill-opacity:1;stroke:none"
       transform="matrix(0.26458333,0,0,0.26458333,10.887401,160.00866)"><flowRegion
         id="flowRegion9349"><rect
           id="rect9351"
           width="223.90015"
           height="97.779182"
           x="406.70471"
           y="337.57693" /></flowRegion><flowPara
         id="flowPara9353" /></flowRoot>    <text
       xml:space="preserve"
       style="font-style:normal;font-weight:normal;font-size:12.60410881px;line-height:1.25;font-family:sans-serif;letter-spacing:0px;word-spacing:0px;fill:#000000;fill-opacity:1;stroke:none;stroke-width:0.26458335"
       x="137.30019"
       y="238.50526"
       id="text9029"><tspan
         sodipodi:role="line"
         id="tspan9027"
         x="137.30019"
         y="238.50526"
         style="font-size:7.56246567px;stroke-width:0.26458335">$0$</tspan></text>
    <text
       xml:space="preserve"
       style="font-style:normal;font-weight:normal;font-size:12.60410881px;line-height:1.25;font-family:sans-serif;letter-spacing:0px;word-spacing:0px;fill:#000000;fill-opacity:1;stroke:none;stroke-width:0.26458335"
       x="226.16583"
       y="238.50523"
       id="text9029-5"><tspan
         sodipodi:role="line"
         id="tspan9027-3"
         x="226.16583"
         y="238.50523"
         style="font-size:7.56246567px;stroke-width:0.26458335">$90^\circ$</tspan></text>
    <text
       xml:space="preserve"
       style="font-style:normal;font-weight:normal;font-size:12.60410881px;line-height:1.25;font-family:sans-serif;letter-spacing:0px;word-spacing:0px;fill:#000000;fill-opacity:1;stroke:none;stroke-width:0.26458335"
       x="21.904099"
       y="238.50523"
       id="text9029-56"><tspan
         sodipodi:role="line"
         id="tspan9027-2"
         x="21.904099"
         y="238.50523"
         style="font-size:7.56246567px;stroke-width:0.26458335">$0$</tspan></text>
    <text
       xml:space="preserve"
       style="font-style:normal;font-weight:normal;font-size:12.60410881px;line-height:1.25;font-family:sans-serif;letter-spacing:0px;word-spacing:0px;fill:#000000;fill-opacity:1;stroke:none;stroke-width:0.26458335"
       x="110.14086"
       y="238.50523"
       id="text9029-5-9"><tspan
         sodipodi:role="line"
         id="tspan9027-3-1"
         x="110.14086"
         y="238.50523"
         style="font-size:7.56246567px;stroke-width:0.26458335">$90^\circ$</tspan></text>
    <text
       xml:space="preserve"
       style="font-style:normal;font-weight:normal;font-size:12.60410881px;line-height:1.25;font-family:sans-serif;letter-spacing:0px;word-spacing:0px;fill:#000000;fill-opacity:1;stroke:none;stroke-width:0.26458335"
       x="13.146578"
       y="234.64951"
       id="text9029-56-2"><tspan
         sodipodi:role="line"
         id="tspan9027-2-7"
         x="13.146578"
         y="234.64951"
         style="font-size:7.56246567px;stroke-width:0.26458335">$-1$</tspan></text>
    <text
       xml:space="preserve"
       style="font-style:normal;font-weight:normal;font-size:12.60410881px;line-height:1.25;font-family:sans-serif;letter-spacing:0px;word-spacing:0px;fill:#000000;fill-opacity:1;stroke:none;stroke-width:0.26458335"
       x="133.74864"
       y="235.27968"
       id="text9029-56-2-0"><tspan
         sodipodi:role="line"
         id="tspan9027-2-7-9"
         x="133.74864"
         y="235.27968"
         style="font-size:7.56246567px;stroke-width:0.26458335">$0$</tspan></text>
    <text
       xml:space="preserve"
       style="font-style:normal;font-weight:normal;font-size:12.60410881px;line-height:1.25;font-family:sans-serif;letter-spacing:0px;word-spacing:0px;fill:#000000;fill-opacity:1;stroke:none;stroke-width:0.26458335"
       x="18.188219"
       y="204.02309"
       id="text9029-56-2-3"><tspan
         sodipodi:role="line"
         id="tspan9027-2-7-6"
         x="18.188219"
         y="204.02309"
         style="font-size:7.56246567px;stroke-width:0.26458335">$0$</tspan></text>
    <text
       xml:space="preserve"
       style="font-style:normal;font-weight:normal;font-size:12.60410881px;line-height:1.25;font-family:sans-serif;letter-spacing:0px;word-spacing:0px;fill:#000000;fill-opacity:1;stroke:none;stroke-width:0.26458335"
       x="18.188219"
       y="173.6981"
       id="text9029-56-2-3-0"><tspan
         sodipodi:role="line"
         id="tspan9027-2-7-6-6"
         x="18.188219"
         y="173.6981"
         style="font-size:7.56246567px;stroke-width:0.26458335">$1$</tspan></text>
    <text
       xml:space="preserve"
       style="font-style:normal;font-weight:normal;font-size:12.60410881px;line-height:1.25;font-family:sans-serif;letter-spacing:0px;word-spacing:0px;fill:#000000;fill-opacity:1;stroke:none;stroke-width:0.26458335"
       x="133.56177"
       y="173.6981"
       id="text9029-56-2-3-0-2"><tspan
         sodipodi:role="line"
         id="tspan9027-2-7-6-6-6"
         x="133.56177"
         y="173.6981"
         style="font-size:7.56246567px;stroke-width:0.26458335">$1$</tspan></text>
    <text
       xml:space="preserve"
       style="font-style:normal;font-weight:normal;font-size:12.60410881px;line-height:1.25;font-family:sans-serif;letter-spacing:0px;word-spacing:0px;fill:#000000;fill-opacity:1;stroke:none;stroke-width:0.26458335"
       x="85.833702"
       y="181.01546"
       id="text9029-56-2-3-0-1"><tspan
         sodipodi:role="line"
         id="tspan9027-2-7-6-6-8"
         x="85.833702"
         y="181.01546"
         style="font-size:7.56246567px;stroke-width:0.26458335">$t_\mathrm{TM}$</tspan></text>
    <text
       xml:space="preserve"
       style="font-style:normal;font-weight:normal;font-size:12.60410881px;line-height:1.25;font-family:sans-serif;letter-spacing:0px;word-spacing:0px;fill:#000000;fill-opacity:1;stroke:none;stroke-width:0.26458335"
       x="44.212807"
       y="194.3559"
       id="text9029-56-2-3-0-1-7"><tspan
         sodipodi:role="line"
         id="tspan9027-2-7-6-6-8-9"
         x="44.212807"
         y="194.3559"
         style="font-size:7.56246567px;stroke-width:0.26458335">$r_\mathrm{TM}$</tspan></text>
    <text
       xml:space="preserve"
       style="font-style:normal;font-weight:normal;font-size:12.60410881px;line-height:1.25;font-family:sans-serif;letter-spacing:0px;word-spacing:0px;fill:#000000;fill-opacity:1;stroke:none;stroke-width:0.26458335"
       x="156.51825"
       y="228.00473"
       id="text9029-56-2-3-0-1-7-2"><tspan
         sodipodi:role="line"
         id="tspan9027-2-7-6-6-8-9-0"
         x="156.51825"
         y="228.00473"
         style="font-size:7.56246567px;stroke-width:0.26458335">$\mathcal{R}_\mathrm{TM}$</tspan></text>
    <text
       xml:space="preserve"
       style="font-style:normal;font-weight:normal;font-size:12.60410881px;line-height:1.25;font-family:sans-serif;letter-spacing:0px;word-spacing:0px;fill:#000000;fill-opacity:1;stroke:none;stroke-width:0.26458335"
       x="165.51576"
       y="180.68132"
       id="text9029-56-2-3-0-1-7-2-3"><tspan
         sodipodi:role="line"
         id="tspan9027-2-7-6-6-8-9-0-7"
         x="165.51576"
         y="180.68132"
         style="font-size:7.56246567px;stroke-width:0.26458335">$\mathcal{T}_\mathrm{TM}$</tspan></text>
    <text
       xml:space="preserve"
       style="font-style:normal;font-weight:normal;font-size:12.60410881px;line-height:1.25;font-family:sans-serif;letter-spacing:0px;word-spacing:0px;fill:#000000;fill-opacity:1;stroke:none;stroke-width:0.26458335"
       x="181.19937"
       y="239.93425"
       id="text9029-5-9-5"><tspan
         sodipodi:role="line"
         id="tspan9027-3-1-9"
         x="181.19937"
         y="239.93425"
         style="font-size:7.56246567px;stroke-width:0.26458335">$\alpha$</tspan></text>
    <text
       xml:space="preserve"
       style="font-style:normal;font-weight:normal;font-size:12.60410881px;line-height:1.25;font-family:sans-serif;letter-spacing:0px;word-spacing:0px;fill:#000000;fill-opacity:1;stroke:none;stroke-width:0.26458335"
       x="65.749603"
       y="239.93425"
       id="text9029-5-9-5-2"><tspan
         sodipodi:role="line"
         id="tspan9027-3-1-9-2"
         x="65.749603"
         y="239.93425"
         style="font-size:7.56246567px;stroke-width:0.26458335">$\alpha$</tspan></text>
    <text
       xml:space="preserve"
       style="font-style:normal;font-weight:normal;font-size:12.60410881px;line-height:1.25;font-family:sans-serif;letter-spacing:0px;word-spacing:0px;fill:#000000;fill-opacity:1;stroke:none;stroke-width:0.26458335"
       x="9.5741796"
       y="173.65117"
       id="text9029-56-2-3-0-8"><tspan
         sodipodi:role="line"
         id="tspan9027-2-7-6-6-9"
         x="9.5741796"
         y="173.65117"
         style="font-size:7.56246567px;stroke-width:0.26458335">a)</tspan></text>
    <text
       xml:space="preserve"
       style="font-style:normal;font-weight:normal;font-size:12.60410881px;line-height:1.25;font-family:sans-serif;letter-spacing:0px;word-spacing:0px;fill:#000000;fill-opacity:1;stroke:none;stroke-width:0.26458335"
       x="124.78944"
       y="173.93932"
       id="text9029-56-2-3-0-2-7"><tspan
         sodipodi:role="line"
         id="tspan9027-2-7-6-6-6-3"
         x="124.78944"
         y="173.93932"
         style="font-size:7.56246567px;stroke-width:0.26458335">b)</tspan></text>
    <text
       xml:space="preserve"
       style="font-style:normal;font-weight:normal;font-size:12.60410881px;line-height:1.25;font-family:sans-serif;letter-spacing:0px;word-spacing:0px;fill:#000000;fill-opacity:1;stroke:none;stroke-width:0.26458335"
       x="76.530106"
       y="240.01572"
       id="text9029-5-9-5-2-6"><tspan
         sodipodi:role="line"
         id="tspan9027-3-1-9-2-7"
         x="76.530106"
         y="240.01572"
         style="font-size:7.56246567px;stroke-width:0.26458335">$\alpha_B$</tspan></text>
    <text
       xml:space="preserve"
       style="font-style:normal;font-weight:normal;font-size:12.60410881px;line-height:1.25;font-family:sans-serif;letter-spacing:0px;word-spacing:0px;fill:#000000;fill-opacity:1;stroke:none;stroke-width:0.26458335"
       x="192.03636"
       y="240.04297"
       id="text9029-5-9-5-2-6-6"><tspan
         sodipodi:role="line"
         id="tspan9027-3-1-9-2-7-2"
         x="192.03636"
         y="240.04297"
         style="font-size:7.56246567px;stroke-width:0.26458335">$\alpha_B$</tspan></text>
  </g>
</svg>
