<?xml version="1.0" encoding="UTF-8" standalone="no"?>
<!-- Created with Inkscape (http://www.inkscape.org/) -->

<svg
   xmlns:dc="http://purl.org/dc/elements/1.1/"
   xmlns:cc="http://creativecommons.org/ns#"
   xmlns:rdf="http://www.w3.org/1999/02/22-rdf-syntax-ns#"
   xmlns:svg="http://www.w3.org/2000/svg"
   xmlns="http://www.w3.org/2000/svg"
   xmlns:sodipodi="http://sodipodi.sourceforge.net/DTD/sodipodi-0.dtd"
   xmlns:inkscape="http://www.inkscape.org/namespaces/inkscape"
   width="185.98912mm"
   height="61.795288mm"
   viewBox="0 0 185.98912 61.795289"
   version="1.1"
   id="svg211"
   inkscape:version="0.92.5 (2060ec1f9f, 2020-04-08)"
   sodipodi:docname="04_redtm.svg">
  <defs
     id="defs205">
    <marker
       inkscape:isstock="true"
       style="overflow:visible"
       id="marker18155"
       refX="0"
       refY="0"
       orient="auto"
       inkscape:stockid="Arrow1Mstart">
      <path
         inkscape:connector-curvature="0"
         transform="matrix(0.4,0,0,0.4,4,0)"
         style="fill:#000000;fill-opacity:1;fill-rule:evenodd;stroke:#000000;stroke-width:1.00000003pt;stroke-opacity:1"
         d="M 0,0 5,-5 -12.5,0 5,5 Z"
         id="path18153" />
    </marker>
    <marker
       inkscape:isstock="true"
       style="overflow:visible"
       id="marker15778"
       refX="0"
       refY="0"
       orient="auto"
       inkscape:stockid="Arrow1Mend">
      <path
         transform="matrix(-0.4,0,0,-0.4,-4,0)"
         style="fill:#d40000;fill-opacity:1;fill-rule:evenodd;stroke:#d40000;stroke-width:1.00000003pt;stroke-opacity:1"
         d="M 0,0 5,-5 -12.5,0 5,5 Z"
         id="path15776"
         inkscape:connector-curvature="0" />
    </marker>
    <marker
       inkscape:isstock="true"
       style="overflow:visible"
       id="marker14070"
       refX="0"
       refY="0"
       orient="auto"
       inkscape:stockid="Arrow1Mend">
      <path
         transform="matrix(-0.4,0,0,-0.4,-4,0)"
         style="fill:#d40000;fill-opacity:1;fill-rule:evenodd;stroke:#d40000;stroke-width:1.00000003pt;stroke-opacity:1"
         d="M 0,0 5,-5 -12.5,0 5,5 Z"
         id="path14068"
         inkscape:connector-curvature="0" />
    </marker>
    <marker
       inkscape:stockid="StopL"
       orient="auto"
       refY="0"
       refX="0"
       id="StopL"
       style="overflow:visible"
       inkscape:isstock="true">
      <path
         id="path1616"
         d="M 0,5.65 V -5.65"
         style="fill:#666666;fill-opacity:1;fill-rule:evenodd;stroke:#666666;stroke-width:1.00000003pt;stroke-opacity:1"
         transform="scale(0.8)"
         inkscape:connector-curvature="0" />
    </marker>
    <marker
       inkscape:stockid="Arrow1Mstart"
       orient="auto"
       refY="0"
       refX="0"
       id="Arrow1Mstart-7"
       style="overflow:visible"
       inkscape:isstock="true">
      <path
         inkscape:connector-curvature="0"
         id="path1453-0"
         d="M 0,0 5,-5 -12.5,0 5,5 Z"
         style="fill:#000000;fill-opacity:1;fill-rule:evenodd;stroke:#000000;stroke-width:1.00000003pt;stroke-opacity:1"
         transform="matrix(0.4,0,0,0.4,4,0)" />
    </marker>
    <marker
       inkscape:stockid="Arrow1Mstart"
       orient="auto"
       refY="0"
       refX="0"
       id="Arrow1Mstart-3"
       style="overflow:visible"
       inkscape:isstock="true">
      <path
         inkscape:connector-curvature="0"
         id="path1453-6"
         d="M 0,0 5,-5 -12.5,0 5,5 Z"
         style="fill:#000000;fill-opacity:1;fill-rule:evenodd;stroke:#000000;stroke-width:1.00000003pt;stroke-opacity:1"
         transform="matrix(0.4,0,0,0.4,4,0)" />
    </marker>
    <marker
       inkscape:stockid="Arrow1Mend"
       orient="auto"
       refY="0"
       refX="0"
       id="Arrow1Mend-1"
       style="overflow:visible"
       inkscape:isstock="true">
      <path
         inkscape:connector-curvature="0"
         id="path1456-2"
         d="M 0,0 5,-5 -12.5,0 5,5 Z"
         style="fill:#000000;fill-opacity:1;fill-rule:evenodd;stroke:#000000;stroke-width:1.00000003pt;stroke-opacity:1"
         transform="matrix(-0.4,0,0,-0.4,-4,0)" />
    </marker>
    <marker
       inkscape:stockid="Arrow1Mstart"
       orient="auto"
       refY="0"
       refX="0"
       id="Arrow1Mstart-7-9"
       style="overflow:visible"
       inkscape:isstock="true">
      <path
         inkscape:connector-curvature="0"
         id="path1453-0-3"
         d="M 0,0 5,-5 -12.5,0 5,5 Z"
         style="fill:#000000;fill-opacity:1;fill-rule:evenodd;stroke:#000000;stroke-width:1.00000003pt;stroke-opacity:1"
         transform="matrix(0.4,0,0,0.4,4,0)" />
    </marker>
    <marker
       inkscape:stockid="Arrow1Mend"
       orient="auto"
       refY="0"
       refX="0"
       id="Arrow1Mend-9-1"
       style="overflow:visible"
       inkscape:isstock="true">
      <path
         inkscape:connector-curvature="0"
         id="path1456-3-9"
         d="M 0,0 5,-5 -12.5,0 5,5 Z"
         style="fill:#000000;fill-opacity:1;fill-rule:evenodd;stroke:#000000;stroke-width:1.00000003pt;stroke-opacity:1"
         transform="matrix(-0.4,0,0,-0.4,-4,0)" />
    </marker>
    <marker
       inkscape:stockid="Arrow1Mstart"
       orient="auto"
       refY="0"
       refX="0"
       id="Arrow1Mstart-3-6"
       style="overflow:visible"
       inkscape:isstock="true">
      <path
         inkscape:connector-curvature="0"
         id="path1453-6-1"
         d="M 0,0 5,-5 -12.5,0 5,5 Z"
         style="fill:#000000;fill-opacity:1;fill-rule:evenodd;stroke:#000000;stroke-width:1.00000003pt;stroke-opacity:1"
         transform="matrix(0.4,0,0,0.4,4,0)" />
    </marker>
    <marker
       inkscape:stockid="Arrow1Mend"
       orient="auto"
       refY="0"
       refX="0"
       id="Arrow1Mend-1-0"
       style="overflow:visible"
       inkscape:isstock="true">
      <path
         inkscape:connector-curvature="0"
         id="path1456-2-6"
         d="M 0,0 5,-5 -12.5,0 5,5 Z"
         style="fill:#000000;fill-opacity:1;fill-rule:evenodd;stroke:#000000;stroke-width:1.00000003pt;stroke-opacity:1"
         transform="matrix(-0.4,0,0,-0.4,-4,0)" />
    </marker>
    <marker
       inkscape:stockid="Arrow1Mstart"
       orient="auto"
       refY="0"
       refX="0"
       id="Arrow1Mstart-7-9-6"
       style="overflow:visible"
       inkscape:isstock="true">
      <path
         inkscape:connector-curvature="0"
         id="path1453-0-3-1"
         d="M 0,0 5,-5 -12.5,0 5,5 Z"
         style="fill:#000000;fill-opacity:1;fill-rule:evenodd;stroke:#000000;stroke-width:1.00000003pt;stroke-opacity:1"
         transform="matrix(0.4,0,0,0.4,4,0)" />
    </marker>
    <marker
       inkscape:stockid="Arrow1Mend"
       orient="auto"
       refY="0"
       refX="0"
       id="Arrow1Mend-9-1-5"
       style="overflow:visible"
       inkscape:isstock="true">
      <path
         inkscape:connector-curvature="0"
         id="path1456-3-9-5"
         d="M 0,0 5,-5 -12.5,0 5,5 Z"
         style="fill:#000000;fill-opacity:1;fill-rule:evenodd;stroke:#000000;stroke-width:1.00000003pt;stroke-opacity:1"
         transform="matrix(-0.4,0,0,-0.4,-4,0)" />
    </marker>
    <marker
       inkscape:isstock="true"
       style="overflow:visible"
       id="marker14070-4"
       refX="0"
       refY="0"
       orient="auto"
       inkscape:stockid="Arrow1Mend">
      <path
         transform="matrix(-0.4,0,0,-0.4,-4,0)"
         style="fill:#d40000;fill-opacity:1;fill-rule:evenodd;stroke:#d40000;stroke-width:1.00000003pt;stroke-opacity:1"
         d="M 0,0 5,-5 -12.5,0 5,5 Z"
         id="path14068-5"
         inkscape:connector-curvature="0" />
    </marker>
    <marker
       inkscape:isstock="true"
       style="overflow:visible"
       id="marker18155-3"
       refX="0"
       refY="0"
       orient="auto"
       inkscape:stockid="Arrow1Mstart">
      <path
         inkscape:connector-curvature="0"
         transform="matrix(0.4,0,0,0.4,4,0)"
         style="fill:#000000;fill-opacity:1;fill-rule:evenodd;stroke:#000000;stroke-width:1.00000003pt;stroke-opacity:1"
         d="M 0,0 5,-5 -12.5,0 5,5 Z"
         id="path18153-0" />
    </marker>
    <marker
       inkscape:isstock="true"
       style="overflow:visible"
       id="marker14070-8"
       refX="0"
       refY="0"
       orient="auto"
       inkscape:stockid="Arrow1Mend">
      <path
         transform="matrix(-0.4,0,0,-0.4,-4,0)"
         style="fill:#d40000;fill-opacity:1;fill-rule:evenodd;stroke:#d40000;stroke-width:1.00000003pt;stroke-opacity:1"
         d="M 0,0 5,-5 -12.5,0 5,5 Z"
         id="path14068-8"
         inkscape:connector-curvature="0" />
    </marker>
  </defs>
  <sodipodi:namedview
     id="base"
     pagecolor="#ffffff"
     bordercolor="#666666"
     borderopacity="1.0"
     inkscape:pageopacity="0.0"
     inkscape:pageshadow="2"
     inkscape:zoom="0.94510639"
     inkscape:cx="395.08197"
     inkscape:cy="160.38417"
     inkscape:document-units="mm"
     inkscape:current-layer="layer1"
     showgrid="false"
     inkscape:snap-bbox="true"
     fit-margin-top="0"
     fit-margin-left="0"
     fit-margin-right="0"
     fit-margin-bottom="0"
     inkscape:window-width="1812"
     inkscape:window-height="994"
     inkscape:window-x="31"
     inkscape:window-y="78"
     inkscape:window-maximized="0" />
  <metadata
     id="metadata208">
    <rdf:RDF>
      <cc:Work
         rdf:about="">
        <dc:format>image/svg+xml</dc:format>
        <dc:type
           rdf:resource="http://purl.org/dc/dcmitype/StillImage" />
        <dc:title />
      </cc:Work>
    </rdf:RDF>
  </metadata>
  <g
     inkscape:label="Layer 1"
     inkscape:groupmode="layer"
     id="layer1"
     transform="translate(-8.970038,-167.91284)">
    <text
       xml:space="preserve"
       style="font-style:normal;font-weight:normal;font-size:10.58333302px;line-height:1.25;font-family:sans-serif;letter-spacing:0px;word-spacing:0px;fill:#000000;fill-opacity:1;stroke:none;stroke-width:0.26458332"
       x="49.928837"
       y="47.981602"
       id="text7124"><tspan
         sodipodi:role="line"
         id="tspan7122"
         x="49.928837"
         y="57.345371"
         style="stroke-width:0.26458332" /></text>
    <path
       id="path8648"
       title="((cos(x)-1.5*sqrt(1-(sin(x)*sin(x)/2.25)))/(cos(x)+1.5*sqrt(1-(sin(x)*sin(x)/2.25))))**"
       d=""
       style="fill:none;fill-opacity:0.9921875;stroke:#000000;stroke-width:0.80000001;stroke-linecap:round;stroke-miterlimit:4;stroke-dasharray:none;stroke-dashoffset:0;stroke-opacity:1"
       inkscape:connector-curvature="0" />
    <path
       style="fill:#4d4d4d;fill-opacity:0.9921875;stroke:#666666;stroke-width:0.80000001;stroke-linecap:square;stroke-miterlimit:4;stroke-dasharray:3.20000002, 1.60000001;stroke-dashoffset:0;stroke-opacity:1"
       d="m 164.48244,170.89097 v 50.98636"
       id="rect7827-6-3-3"
       inkscape:connector-curvature="0"
       sodipodi:nodetypes="cc" />
    <path
       id="path9837-9"
       title="((1.5*cos(x)-sqrt(1-(sin(x)*sin(x)/2.25)))/(1.5*cos(x)+sqrt(1-(sin(x)*sin(x)/2.25))))*((1.5*cos(x)-sqrt(1-(sin(x)*sin(x)/2.25)))/(1.5*cos(x)+sqrt(1-(sin(x)*sin(x)/2.25))))"
       d="m 117.79975,173.20496 c 0.31014,0 0.62028,-2.7e-4 0.93044,-0.001 0.31014,-5.3e-4 0.62028,-0.002 0.93042,-0.003 0.31016,-0.001 0.6203,-0.003 0.93044,-0.005 0.31015,-0.002 0.62029,-0.004 0.93044,-0.007 l 0.93043,-0.009 c 0.31016,-0.003 0.6203,-0.007 0.93043,-0.011 0.31015,-0.004 0.62029,-0.008 0.93044,-0.013 l 0.93044,-0.015 c 0.31015,-0.005 0.62029,-0.011 0.93044,-0.017 0.31014,-0.006 0.62027,-0.0123 0.93043,-0.019 0.31014,-0.007 0.62029,-0.0137 0.93043,-0.0211 0.31015,-0.007 0.6203,-0.015 0.93044,-0.0231 0.31014,-0.008 0.6203,-0.0164 0.93044,-0.0251 0.31014,-0.009 0.62028,-0.0178 0.93042,-0.0272 0.31016,-0.009 0.6203,-0.0191 0.93044,-0.0292 0.31015,-0.0101 0.6203,-0.0205 0.93044,-0.0312 0.31015,-0.0107 0.62029,-0.0218 0.93043,-0.0333 0.31016,-0.0114 0.6203,-0.0232 0.93044,-0.0353 0.31014,-0.0121 0.62029,-0.0246 0.93044,-0.0374 0.31014,-0.0128 0.62029,-0.0259 0.93043,-0.0394 0.31015,-0.0135 0.6203,-0.0273 0.93044,-0.0414 0.31013,-0.0141 0.6203,-0.0286 0.93043,-0.0434 0.31014,-0.0148 0.62029,-0.0299 0.93043,-0.0454 0.31015,-0.0154 0.6203,-0.0312 0.93044,-0.0473 0.31014,-0.0161 0.6203,-0.0325 0.93044,-0.0493 0.31015,-0.0168 0.62028,-0.0338 0.93043,-0.0512 0.31015,-0.0174 0.62029,-0.0351 0.93044,-0.053 0.31014,-0.018 0.62029,-0.0363 0.93044,-0.0548 0.31014,-0.0186 0.62028,-0.0374 0.93043,-0.0566 0.31015,-0.0191 0.62028,-0.0385 0.93043,-0.0582 0.31014,-0.0197 0.62029,-0.0396 0.93044,-0.0598 0.31015,-0.0202 0.62028,-0.0406 0.93043,-0.0612 0.31016,-0.0206 0.6203,-0.0415 0.93044,-0.0625 0.31014,-0.0211 0.62029,-0.0423 0.93043,-0.0637 0.31015,-0.0214 0.62029,-0.043 0.93044,-0.0647 0.31015,-0.0217 0.62029,-0.0435 0.93043,-0.0655 0.31015,-0.0219 0.6203,-0.0439 0.93044,-0.066 l 0.93043,-0.0663 c 0.31015,-0.0221 0.6203,-0.0442 0.93043,-0.0662 0.31015,-0.022 0.62031,-0.0439 0.93044,-0.0657 0.31015,-0.0218 0.6203,-0.0435 0.93045,-0.0649 0.31014,-0.0214 0.62028,-0.0427 0.93042,-0.0635 0.31014,-0.0209 0.6203,-0.0415 0.93045,-0.0616 0.31013,-0.0202 0.62028,-0.0399 0.93044,-0.0591 0.31013,-0.0192 0.62028,-0.0378 0.93042,-0.0558 0.31013,-0.018 0.62029,-0.0353 0.93044,-0.0517 0.31013,-0.0164 0.62028,-0.032 0.93044,-0.0466 0.31013,-0.0146 0.62028,-0.0281 0.93043,-0.0405 0.31014,-0.0123 0.62029,-0.0234 0.93044,-0.0331 0.31014,-0.01 0.62027,-0.0178 0.93043,-0.0242 0.31015,-0.006 0.62028,-0.0111 0.93043,-0.0138 0.31015,-0.003 0.62029,-0.003 0.93044,-0.001 0.31015,0.002 0.62028,0.006 0.93044,0.0129 0.31014,0.007 0.62027,0.0167 0.93042,0.0297 0.31015,0.013 0.6203,0.0292 0.93044,0.0492 0.31015,0.02 0.6203,0.0438 0.93044,0.0719 0.31015,0.0281 0.6203,0.0606 0.93042,0.0981 0.31016,0.0375 0.62031,0.0801 0.93044,0.12841 0.31015,0.0483 0.6203,0.10251 0.93044,0.16334 0.31015,0.0608 0.6203,0.12836 0.93044,0.20357 0.31015,0.0752 0.6203,0.15813 0.93043,0.24987 0.31014,0.0917 0.62029,0.19235 0.93044,0.3031 0.31014,0.11075 0.62029,0.23169 0.93044,0.36428 0.31014,0.13258 0.62029,0.27687 0.93044,0.43454 0.31013,0.15766 0.62027,0.32877 0.93044,0.51524 0.31012,0.18646 0.62027,0.38837 0.93042,0.60791 0.31015,0.21954 0.62029,0.45682 0.93044,0.71435 0.31014,0.25753 0.62028,0.53544 0.93044,0.83662 0.31014,0.30119 0.62027,0.62578 0.93042,0.97715 0.31015,0.35136 0.62029,0.72965 0.93044,1.13873 0.31014,0.40908 0.62028,0.84914 0.93044,1.32466 0.31015,0.47552 0.62029,0.98671 0.93043,1.53878 0.31016,0.55206 0.6203,1.14524 0.93043,1.78559 0.31015,0.64034 0.62029,1.32813 0.93044,2.07041 0.31015,0.74229 0.62029,1.53938 0.93043,2.39953 0.31016,0.86015 0.6203,1.78371 0.93044,2.78035 0.31015,0.99663 0.62028,2.06676 0.93043,3.22171 0.31015,1.15496 0.62029,2.39523 0.93044,3.73417 0.31015,1.33894 0.6203,2.77712 0.93044,4.33032 0.31014,1.55321 0.6203,3.22209 0.93044,5.02537 0.31014,1.80328 0.62028,3.74173 0.93042,5.83764 0.31015,2.0959 0.6203,4.35016 0.93044,6.7894 0.31014,2.43925 0.15195,0.64095 0.4621,3.48425"
       style="fill:none;fill-opacity:0.9921875;stroke:#0000d4;stroke-width:0.80000001;stroke-linecap:round;stroke-miterlimit:4;stroke-dasharray:none;stroke-dashoffset:0;stroke-opacity:1"
       inkscape:connector-curvature="0"
       sodipodi:nodetypes="cssssssssssssssssssssssssssssssssssssssssssssssssssssssssssssssssssssssssssssssssssc" />
    <path
       id="path9837"
       title="((1.5*cos(x)-sqrt(1-(sin(x)*sin(x)/2.25)))/(1.5*cos(x)+sqrt(1-(sin(x)*sin(x)/2.25))))*((1.5*cos(x)-sqrt(1-(sin(x)*sin(x)/2.25)))/(1.5*cos(x)+sqrt(1-(sin(x)*sin(x)/2.25))))"
       d="m 118.15626,219.98615 c 0.3087,0 0.61741,3.4e-4 0.92612,0.001 0.3087,6.6e-4 0.61741,0.002 0.9261,0.003 0.30871,0.001 0.61742,0.003 0.92612,0.005 0.3087,0.002 0.6174,0.004 0.92612,0.007 l 0.92611,0.009 c 0.30871,0.003 0.61741,0.007 0.92611,0.011 0.3087,0.004 0.6174,0.008 0.92612,0.013 l 0.92611,0.015 c 0.30871,0.005 0.61741,0.011 0.92612,0.017 0.3087,0.006 0.61739,0.0123 0.9261,0.019 0.30871,0.007 0.61741,0.0137 0.92611,0.0211 0.30872,0.007 0.61742,0.015 0.92612,0.0231 0.30871,0.008 0.61742,0.0164 0.92612,0.0251 0.30871,0.009 0.6174,0.0178 0.9261,0.0272 0.30872,0.009 0.61742,0.0191 0.92612,0.0292 0.30871,0.0101 0.61742,0.0205 0.92612,0.0312 0.30871,0.0107 0.61741,0.0218 0.92611,0.0333 0.30871,0.0114 0.61742,0.0232 0.92611,0.0353 0.3087,0.0121 0.61742,0.0246 0.92612,0.0374 0.3087,0.0128 0.61741,0.0259 0.92611,0.0394 0.30871,0.0135 0.61742,0.0273 0.92612,0.0414 0.30869,0.0141 0.61742,0.0286 0.92611,0.0434 0.3087,0.0148 0.61741,0.0299 0.92611,0.0454 0.30871,0.0154 0.61742,0.0312 0.92612,0.0473 0.3087,0.0161 0.61741,0.0325 0.92612,0.0493 0.3087,0.0168 0.61739,0.0338 0.9261,0.0512 0.30871,0.0174 0.61741,0.0351 0.92612,0.053 0.3087,0.018 0.61741,0.0363 0.92612,0.0548 0.3087,0.0186 0.6174,0.0374 0.92611,0.0566 0.30871,0.0191 0.6174,0.0385 0.92611,0.0582 0.3087,0.0197 0.61741,0.0396 0.92612,0.0598 0.3087,0.0202 0.6174,0.0406 0.9261,0.0612 0.30872,0.0206 0.61742,0.0415 0.92612,0.0625 0.3087,0.0211 0.61741,0.0423 0.92611,0.0637 0.30871,0.0214 0.61741,0.043 0.92612,0.0647 0.30871,0.0217 0.61741,0.0435 0.92611,0.0655 0.30871,0.0219 0.61742,0.0439 0.92612,0.066 l 0.92611,0.0663 c 0.30871,0.0221 0.61741,0.0442 0.92611,0.0662 0.3087,0.022 0.61742,0.0439 0.92612,0.0657 0.3087,0.0218 0.61741,0.0435 0.92612,0.0649 0.3087,0.0214 0.6174,0.0427 0.9261,0.0635 0.3087,0.0209 0.61742,0.0415 0.92612,0.0616 0.3087,0.0202 0.61741,0.0399 0.92612,0.0591 0.3087,0.0192 0.61741,0.0378 0.9261,0.0558 0.3087,0.018 0.61741,0.0353 0.92612,0.0517 0.3087,0.0164 0.6174,0.032 0.92612,0.0466 0.3087,0.0146 0.6174,0.0281 0.92611,0.0405 0.3087,0.0123 0.61741,0.0234 0.92612,0.0331 0.30869,0.01 0.61739,0.0178 0.92611,0.0242 0.3087,0.006 0.6174,0.0111 0.92611,0.0138 0.3087,0.003 0.61741,0.003 0.92612,0.001 0.3087,-0.002 0.6174,-0.006 0.92611,-0.0129 0.3087,-0.007 0.6174,-0.0167 0.9261,-0.0297 0.30871,-0.013 0.61742,-0.0292 0.92612,-0.0492 0.30871,-0.02 0.61741,-0.0438 0.92612,-0.0719 0.30871,-0.0281 0.61741,-0.0606 0.9261,-0.0981 0.30872,-0.0375 0.61742,-0.0801 0.92612,-0.12841 0.30871,-0.0483 0.61741,-0.10251 0.92612,-0.16334 0.30871,-0.0608 0.61741,-0.12836 0.92611,-0.20357 0.30871,-0.0752 0.61742,-0.15813 0.92611,-0.24987 0.3087,-0.0917 0.61741,-0.19235 0.92612,-0.3031 0.3087,-0.11075 0.61741,-0.23169 0.92611,-0.36428 0.30871,-0.13258 0.61742,-0.27687 0.92612,-0.43454 0.3087,-0.15766 0.6174,-0.32877 0.92612,-0.51524 0.30869,-0.18646 0.6174,-0.38837 0.9261,-0.60791 0.30871,-0.21954 0.61742,-0.45682 0.92612,-0.71435 0.3087,-0.25753 0.6174,-0.53544 0.92612,-0.83662 0.3087,-0.30119 0.61739,-0.62578 0.9261,-0.97715 0.30871,-0.35136 0.61741,-0.72965 0.92612,-1.13873 0.3087,-0.40908 0.6174,-0.84914 0.92612,-1.32466 0.3087,-0.47552 0.6174,-0.98671 0.92611,-1.53878 0.30871,-0.55206 0.61741,-1.14524 0.92611,-1.78559 0.3087,-0.64034 0.6174,-1.32813 0.92612,-2.07041 0.3087,-0.74229 0.6174,-1.53938 0.9261,-2.39953 0.30872,-0.86015 0.61742,-1.78371 0.92612,-2.78035 0.30871,-0.99663 0.6174,-2.06676 0.92611,-3.22171 0.30871,-1.15496 0.61741,-2.39523 0.92611,-3.73417 0.30872,-1.33894 0.61742,-2.77712 0.92612,-4.33032 0.30871,-1.55321 0.61742,-3.22209 0.92612,-5.02537 0.30871,-1.80328 0.6174,-3.74173 0.9261,-5.83764 0.30872,-2.0959 0.61742,-4.35016 0.92612,-6.7894 0.3087,-2.43925 0.15125,-0.64095 0.45995,-3.48425"
       style="fill:none;fill-opacity:0.9921875;stroke:#d40000;stroke-width:0.80000001;stroke-linecap:round;stroke-miterlimit:4;stroke-dasharray:none;stroke-dashoffset:0;stroke-opacity:1"
       inkscape:connector-curvature="0"
       sodipodi:nodetypes="cssssssssssssssssssssssssssssssssssssssssssssssssssssssssssssssssssssssssssssssssssc" />
    <rect
       style="fill:none;fill-opacity:0.9921875;stroke:#000000;stroke-width:0.5;stroke-linecap:round;stroke-miterlimit:4;stroke-dasharray:none;stroke-dashoffset:0;stroke-opacity:1"
       id="rect7827-3"
       width="76.843475"
       height="51.54039"
       x="117.71404"
       y="170.82536" />
    <path
       style="fill:#4d4d4d;fill-opacity:0.9921875;stroke:#666666;stroke-width:0.8;stroke-linecap:square;stroke-miterlimit:4;stroke-dasharray:3.19999999,1.59999999;stroke-dashoffset:0;stroke-opacity:1"
       d="m 67.507538,171.10649 v 50.98636"
       id="rect7827-6-3"
       inkscape:connector-curvature="0"
       sodipodi:nodetypes="cc" />
    <path
       style="fill:#4d4d4d;fill-opacity:0.9921875;stroke:#666666;stroke-width:0.80000001;stroke-linecap:round;stroke-miterlimit:4;stroke-dasharray:none;stroke-dashoffset:0;stroke-opacity:1"
       d="M 20.671707,196.32365 H 97.515185"
       id="rect7827-6"
       inkscape:connector-curvature="0"
       sodipodi:nodetypes="cc" />
    <path
       id="path9544"
       title="((1.5*cos(x)-sqrt(1-(sin(x)*sin(x)/2.25)))/(1.5*cos(x)+sqrt(1-(sin(x)*sin(x)/2.25))))"
       d="m 20.671726,191.44152 c 0.30986,0 0.619721,4.2e-4 0.92958,0.001 0.30986,8.3e-4 0.61972,0.002 0.92958,0.004 l 0.92958,0.006 c 0.30986,0.002 0.619721,0.005 0.92958,0.009 0.30986,0.003 0.61972,0.007 0.929581,0.0113 0.30986,0.004 0.619719,0.009 0.929579,0.0138 0.309862,0.005 0.619722,0.0105 0.929581,0.0164 0.30986,0.006 0.619721,0.0122 0.929581,0.019 0.30986,0.007 0.619719,0.014 0.92958,0.0216 0.30986,0.008 0.61972,0.0158 0.929579,0.0243 0.30986,0.009 0.619721,0.0176 0.929581,0.027 0.309859,0.009 0.619719,0.0194 0.92958,0.0298 0.30986,0.0104 0.61972,0.0213 0.929579,0.0327 0.309861,0.0114 0.619722,0.0232 0.929582,0.0355 0.309859,0.0123 0.61972,0.0252 0.92958,0.0385 0.30986,0.0133 0.61972,0.0272 0.92958,0.0415 0.30986,0.0144 0.61972,0.0292 0.92958,0.0446 0.309859,0.0154 0.61972,0.0314 0.92958,0.0478 0.30986,0.0165 0.61972,0.0335 0.92958,0.0511 0.30986,0.0176 0.61972,0.0358 0.92958,0.0545 0.309861,0.0188 0.619721,0.0381 0.929581,0.058 0.30986,0.0199 0.619721,0.0405 0.92958,0.0616 0.30986,0.0212 0.61972,0.043 0.929581,0.0654 0.30986,0.0224 0.619719,0.0455 0.929579,0.0693 0.309861,0.0238 0.619721,0.0482 0.92958,0.0733 0.30986,0.0251 0.61972,0.0509 0.929581,0.0775 0.309859,0.0265 0.619719,0.0538 0.929579,0.0818 0.309861,0.028 0.619721,0.0568 0.929581,0.0863 0.30986,0.0295 0.619721,0.0599 0.929581,0.091 0.309859,0.0311 0.619719,0.0631 0.92958,0.0959 0.30986,0.0328 0.61972,0.0665 0.929579,0.10099 0.309861,0.0345 0.619721,0.07 0.929581,0.10633 0.309859,0.0364 0.619719,0.0736 0.92958,0.11191 0.30986,0.0383 0.61972,0.0775 0.929579,0.11773 0.309861,0.0403 0.619721,0.0815 0.929581,0.12384 0.30986,0.0423 0.619721,0.0857 0.929581,0.13024 0.30986,0.0445 0.61972,0.0901 0.92958,0.13695 0.30986,0.0468 0.61972,0.0948 0.92958,0.14399 0.309861,0.0492 0.61972,0.0997 0.92958,0.1514 0.30986,0.0517 0.619721,0.10477 0.92958,0.15917 0.30986,0.0544 0.61972,0.11016 0.92958,0.16735 0.309861,0.0572 0.61972,0.11583 0.92958,0.17597 0.30986,0.0601 0.619722,0.1218 0.929581,0.18504 0.30986,0.0633 0.61972,0.12809 0.929581,0.19461 0.309859,0.0665 0.619719,0.13473 0.929579,0.20471 0.309861,0.07 0.619721,0.14173 0.92958,0.21536 0.30986,0.0736 0.619721,0.14914 0.929581,0.22662 0.309859,0.0775 0.619719,0.15696 0.929579,0.23853 0.309861,0.0816 0.619721,0.16523 0.92958,0.25111 0.30986,0.0859 0.619721,0.17399 0.929582,0.26445 0.309859,0.0904 0.619719,0.18326 0.92958,0.27856 0.30986,0.0953 0.61972,0.19309 0.929579,0.29353 0.309861,0.10043 0.619721,0.20352 0.929581,0.3094 0.309859,0.10588 0.61972,0.21458 0.92958,0.32625 0.30986,0.11167 0.61972,0.22634 0.92958,0.34416 0.30986,0.11781 0.61972,0.23881 0.92958,0.36317 0.309859,0.12436 0.61972,0.25209 0.92958,0.3834 0.309861,0.13132 0.61972,0.26623 0.929581,0.40495 0.30986,0.13872 0.61972,0.28127 0.92958,0.42788 0.309861,0.14661 0.61972,0.2973 0.92958,0.45233 0.30986,0.15502 0.619721,0.31441 0.92958,0.47841 0.30986,0.16401 0.61972,0.33267 0.929581,0.50626 0.309859,0.1736 0.619719,0.35217 0.929579,0.53602 0.30986,0.18385 0.619721,0.37301 0.92958,0.56783 0.30986,0.19481 0.619721,0.39532 0.929582,0.60188 0.309859,0.20656 0.619719,0.41921 0.929579,0.63836 0.309861,0.21915 0.619721,0.44483 0.92958,0.67748 0.30986,0.23265 0.619721,0.47232 0.929581,0.71947 0.309859,0.24715 0.619719,0.50184 0.92958,0.76458 0.30986,0.26274 0.61972,0.53359 0.929579,0.81312 0.309861,0.27952 0.619721,0.56777 0.929581,0.86538 0.309859,0.29761 0.619719,0.60462 0.929581,0.92174 0.30986,0.31712 0.61972,0.6444 0.929579,0.9826 0.309861,0.3382 0.619721,0.68739 0.929581,1.0484 0.309859,0.36101 0.61972,0.73392 0.92958,1.11965 0.30986,0.38573 0.619719,0.78437 0.92958,1.19694 0.30986,0.41256 0.61972,0.83915 0.92958,1.2809 0.309861,0.44175 0.61972,0.89876 0.92958,1.3723 0.30986,0.47354 0.619719,0.96372 0.92958,1.47198 0.309861,0.50825 0.619721,1.03468 0.929581,1.58091 0.30986,0.54623 0.61972,1.11237 0.92958,1.70024 0.30986,0.58787 0.619721,1.1976 0.92958,1.83126 0.30986,0.63366 0.30802,0.28496 0.617881,0.96909"
       style="fill:none;fill-opacity:0.9921875;stroke:#d40000;stroke-width:0.80000001;stroke-linecap:round;stroke-miterlimit:4;stroke-dasharray:none;stroke-dashoffset:0;stroke-opacity:1"
       inkscape:connector-curvature="0"
       sodipodi:nodetypes="ccssccccccccsssscscscscssscssssccccccccssccccccccccscssccccccccscccccccccccsccscsscc" />
    <path
       id="path9635"
       title="(1-((1.5*cos(x)-sqrt(1-(sin(x)*sin(x)/2.25)))/(1.5*cos(x)+sqrt(1-(sin(x)*sin(x)/2.25)))))*cos(x)/sqrt(1-(sin(x)*sin(x)/2.25))"
       d="m 20.671726,175.9794 c 0.30986,0 0.619721,2.8e-4 0.92958,8.3e-4 0.30986,5.6e-4 0.61972,0.001 0.92958,0.002 0.309861,0.001 0.61972,0.002 0.92958,0.004 l 0.92958,0.006 c 0.30986,0.002 0.61972,0.005 0.929581,0.008 l 0.929579,0.009 c 0.309862,0.003 0.619722,0.007 0.929581,0.0109 0.30986,0.004 0.619721,0.008 0.929581,0.0127 0.30986,0.005 0.619719,0.009 0.92958,0.0144 0.30986,0.005 0.61972,0.0105 0.929579,0.0162 0.30986,0.006 0.619721,0.0117 0.929581,0.018 0.309859,0.006 0.619719,0.013 0.92958,0.0199 0.30986,0.007 0.61972,0.0142 0.929579,0.0218 0.309861,0.008 0.619722,0.0155 0.929582,0.0237 0.309859,0.008 0.61972,0.0168 0.92958,0.0257 0.30986,0.009 0.61972,0.0181 0.92958,0.0277 0.30986,0.01 0.61972,0.0195 0.92958,0.0298 0.309859,0.0103 0.61972,0.0209 0.92958,0.0319 0.30986,0.011 0.61972,0.0223 0.92958,0.0341 0.30986,0.0117 0.61972,0.0239 0.92958,0.0363 0.309861,0.0125 0.619721,0.0254 0.929581,0.0387 0.30986,0.0133 0.619721,0.027 0.92958,0.0411 0.30986,0.0141 0.61972,0.0286 0.929581,0.0436 0.30986,0.015 0.619719,0.0303 0.929579,0.0462 0.309861,0.0158 0.619721,0.0321 0.92958,0.0488 0.30986,0.0168 0.61972,0.034 0.929581,0.0516 0.309859,0.0177 0.619719,0.0359 0.929579,0.0545 0.309861,0.0187 0.619721,0.0378 0.929581,0.0575 0.30986,0.0197 0.619721,0.0399 0.929581,0.0607 0.309859,0.0208 0.619719,0.0421 0.92958,0.0639 0.30986,0.0219 0.61972,0.0443 0.929579,0.0673 0.309861,0.023 0.619721,0.0466 0.929581,0.0709 0.309859,0.0242 0.619719,0.0491 0.92958,0.0746 0.30986,0.0255 0.61972,0.0517 0.929579,0.0785 0.309861,0.0268 0.619721,0.0543 0.929581,0.0826 0.30986,0.0282 0.619721,0.0572 0.929581,0.0868 0.30986,0.0297 0.61972,0.0601 0.92958,0.0913 0.30986,0.0312 0.61972,0.0632 0.92958,0.096 0.309861,0.0328 0.61972,0.0664 0.92958,0.10093 0.30986,0.0345 0.619721,0.0698 0.92958,0.10611 0.30986,0.0363 0.61972,0.0734 0.92958,0.11157 0.309861,0.0381 0.61972,0.0772 0.92958,0.11731 0.30986,0.0401 0.619722,0.0812 0.929581,0.12336 0.30986,0.0422 0.61972,0.0854 0.929581,0.12975 0.309859,0.0443 0.619719,0.0898 0.929579,0.13647 0.309861,0.0466 0.619721,0.0945 0.92958,0.14357 0.30986,0.0491 0.619721,0.0994 0.929581,0.15108 0.309859,0.0517 0.619719,0.10464 0.929579,0.15902 0.309861,0.0544 0.619721,0.11015 0.92958,0.16741 0.30986,0.0573 0.619721,0.11599 0.929582,0.17629 0.309859,0.0603 0.619719,0.12218 0.92958,0.18571 0.30986,0.0635 0.61972,0.12873 0.929579,0.19569 0.309861,0.0669 0.619721,0.13568 0.929581,0.20627 0.309859,0.0706 0.61972,0.14305 0.92958,0.2175 0.30986,0.0745 0.61972,0.15089 0.92958,0.22943 0.30986,0.0786 0.61972,0.15921 0.92958,0.24212 0.309859,0.0829 0.61972,0.16806 0.92958,0.2556 0.309861,0.0875 0.61972,0.17748 0.929581,0.26996 0.30986,0.0925 0.61972,0.18752 0.92958,0.28526 0.309861,0.0977 0.61972,0.1982 0.92958,0.30155 0.30986,0.10335 0.619721,0.20961 0.92958,0.31894 0.30986,0.10934 0.61972,0.22178 0.929581,0.33751 0.309859,0.11573 0.619719,0.23478 0.929579,0.35734 0.30986,0.12257 0.619721,0.24868 0.92958,0.37856 0.30986,0.12988 0.619721,0.26354 0.929582,0.40125 0.309859,0.13771 0.619719,0.27948 0.929579,0.42558 0.309861,0.1461 0.619721,0.29655 0.92958,0.45165 0.30986,0.1551 0.619721,0.31488 0.929581,0.47964 0.309859,0.16477 0.619719,0.33456 0.92958,0.50973 0.30986,0.17516 0.61972,0.35572 0.929579,0.54207 0.309861,0.18635 0.619721,0.37852 0.929581,0.57693 0.309859,0.1984 0.619719,0.40308 0.929581,0.61449 0.30986,0.21141 0.61972,0.4296 0.929579,0.65507 0.309861,0.22546 0.619721,0.45825 0.929581,0.69893 0.309859,0.24067 0.61972,0.48928 0.92958,0.74643 0.30986,0.25716 0.619719,0.52291 0.92958,0.79796 0.30986,0.27505 0.61972,0.55944 0.92958,0.85394 0.309861,0.2945 0.61972,0.59917 0.92958,0.91486 0.30986,0.3157 0.619719,0.64249 0.92958,0.98132 0.309861,0.33884 0.619721,0.68979 0.929581,1.05394 0.30986,0.36415 0.703214,0.72506 1.18735,1.22723 0.484136,0.50218 1.182232,1.34966 1.289694,1.50139"
       style="fill:none;fill-opacity:0.9921875;stroke:#0000d4;stroke-width:0.8;stroke-linecap:round;stroke-miterlimit:4;stroke-dasharray:none;stroke-dashoffset:0;stroke-opacity:1"
       inkscape:connector-curvature="0"
       sodipodi:nodetypes="ccsssssccccccccccssccsssccccsscscssccsscccccccccccccccccccccscccccccccccccccccccszc" />
    <rect
       style="fill:none;fill-opacity:0.9921875;stroke:#000000;stroke-width:0.5;stroke-linecap:round;stroke-miterlimit:4;stroke-dasharray:none;stroke-dashoffset:0;stroke-opacity:1"
       id="rect7827"
       width="76.843475"
       height="51.54039"
       x="20.671709"
       y="170.82536" />
    <text
       xml:space="preserve"
       style="font-style:normal;font-weight:normal;font-size:10.58333302px;line-height:1.25;font-family:sans-serif;letter-spacing:0px;word-spacing:0px;fill:#000000;fill-opacity:1;stroke:none;stroke-width:0.26458332"
       x="146.98999"
       y="249.32588"
       id="text9343"><tspan
         sodipodi:role="line"
         id="tspan9341"
         x="146.98999"
         y="258.68964"
         style="stroke-width:0.26458332" /><tspan
         sodipodi:role="line"
         x="146.98999"
         y="271.91882"
         style="stroke-width:0.26458332"
         id="tspan9345" /></text>
    <flowRoot
       xml:space="preserve"
       id="flowRoot9347"
       style="font-style:normal;font-weight:normal;font-size:40px;line-height:1.25;font-family:sans-serif;letter-spacing:0px;word-spacing:0px;fill:#000000;fill-opacity:1;stroke:none"
       transform="matrix(0.26458333,0,0,0.26458333,10.887401,160.00866)"><flowRegion
         id="flowRegion9349"><rect
           id="rect9351"
           width="223.90015"
           height="97.779182"
           x="406.70471"
           y="337.57693" /></flowRegion><flowPara
         id="flowPara9353" /></flowRoot>    <text
       xml:space="preserve"
       style="font-style:normal;font-weight:normal;font-size:10.58333302px;line-height:1.25;font-family:sans-serif;letter-spacing:0px;word-spacing:0px;fill:#000000;fill-opacity:1;stroke:none;stroke-width:0.26458332"
       x="116.72543"
       y="227.18741"
       id="text9029"><tspan
         sodipodi:role="line"
         id="tspan9027"
         x="116.72543"
         y="227.18741"
         style="font-size:6.3499999px;stroke-width:0.26458332">$0$</tspan></text>
    <text
       xml:space="preserve"
       style="font-style:normal;font-weight:normal;font-size:10.58333302px;line-height:1.25;font-family:sans-serif;letter-spacing:0px;word-spacing:0px;fill:#000000;fill-opacity:1;stroke:none;stroke-width:0.26458332"
       x="191.34354"
       y="227.18738"
       id="text9029-5"><tspan
         sodipodi:role="line"
         id="tspan9027-3"
         x="191.34354"
         y="227.18738"
         style="font-size:6.3499999px;stroke-width:0.26458332">$90^\circ$</tspan></text>
    <text
       xml:space="preserve"
       style="font-style:normal;font-weight:normal;font-size:10.58333302px;line-height:1.25;font-family:sans-serif;letter-spacing:0px;word-spacing:0px;fill:#000000;fill-opacity:1;stroke:none;stroke-width:0.26458332"
       x="19.830421"
       y="227.18738"
       id="text9029-56"><tspan
         sodipodi:role="line"
         id="tspan9027-2"
         x="19.830421"
         y="227.18738"
         style="font-size:6.3499999px;stroke-width:0.26458332">$0$</tspan></text>
    <text
       xml:space="preserve"
       style="font-style:normal;font-weight:normal;font-size:10.58333302px;line-height:1.25;font-family:sans-serif;letter-spacing:0px;word-spacing:0px;fill:#000000;fill-opacity:1;stroke:none;stroke-width:0.26458332"
       x="93.920471"
       y="227.18738"
       id="text9029-5-9"><tspan
         sodipodi:role="line"
         id="tspan9027-3-1"
         x="93.920471"
         y="227.18738"
         style="font-size:6.3499999px;stroke-width:0.26458332">$90^\circ$</tspan></text>
    <text
       xml:space="preserve"
       style="font-style:normal;font-weight:normal;font-size:10.58333302px;line-height:1.25;font-family:sans-serif;letter-spacing:0px;word-spacing:0px;fill:#000000;fill-opacity:1;stroke:none;stroke-width:0.26458332"
       x="12.476966"
       y="223.94981"
       id="text9029-56-2"><tspan
         sodipodi:role="line"
         id="tspan9027-2-7"
         x="12.476966"
         y="223.94981"
         style="font-size:6.3499999px;stroke-width:0.26458332">$-1$</tspan></text>
    <text
       xml:space="preserve"
       style="font-style:normal;font-weight:normal;font-size:10.58333302px;line-height:1.25;font-family:sans-serif;letter-spacing:0px;word-spacing:0px;fill:#000000;fill-opacity:1;stroke:none;stroke-width:0.26458332"
       x="113.74329"
       y="224.47897"
       id="text9029-56-2-0"><tspan
         sodipodi:role="line"
         id="tspan9027-2-7-9"
         x="113.74329"
         y="224.47897"
         style="font-size:6.3499999px;stroke-width:0.26458332">$0$</tspan></text>
    <text
       xml:space="preserve"
       style="font-style:normal;font-weight:normal;font-size:10.58333302px;line-height:1.25;font-family:sans-serif;letter-spacing:0px;word-spacing:0px;fill:#000000;fill-opacity:1;stroke:none;stroke-width:0.26458332"
       x="16.710297"
       y="198.23364"
       id="text9029-56-2-3"><tspan
         sodipodi:role="line"
         id="tspan9027-2-7-6"
         x="16.710297"
         y="198.23364"
         style="font-size:6.3499999px;stroke-width:0.26458332">$0$</tspan></text>
    <text
       xml:space="preserve"
       style="font-style:normal;font-weight:normal;font-size:10.58333302px;line-height:1.25;font-family:sans-serif;letter-spacing:0px;word-spacing:0px;fill:#000000;fill-opacity:1;stroke:none;stroke-width:0.26458332"
       x="16.710297"
       y="172.77057"
       id="text9029-56-2-3-0"><tspan
         sodipodi:role="line"
         id="tspan9027-2-7-6-6"
         x="16.710297"
         y="172.77057"
         style="font-size:6.3499999px;stroke-width:0.26458332">$1$</tspan></text>
    <text
       xml:space="preserve"
       style="font-style:normal;font-weight:normal;font-size:10.58333302px;line-height:1.25;font-family:sans-serif;letter-spacing:0px;word-spacing:0px;fill:#000000;fill-opacity:1;stroke:none;stroke-width:0.26458332"
       x="113.58638"
       y="172.77057"
       id="text9029-56-2-3-0-2"><tspan
         sodipodi:role="line"
         id="tspan9027-2-7-6-6-6"
         x="113.58638"
         y="172.77057"
         style="font-size:6.3499999px;stroke-width:0.26458332">$1$</tspan></text>
    <text
       xml:space="preserve"
       style="font-style:normal;font-weight:normal;font-size:10.58333302px;line-height:1.25;font-family:sans-serif;letter-spacing:0px;word-spacing:0px;fill:#000000;fill-opacity:1;stroke:none;stroke-width:0.26458332"
       x="73.066071"
       y="179.35907"
       id="text9029-56-2-3-0-1"><tspan
         sodipodi:role="line"
         id="tspan9027-2-7-6-6-8"
         x="73.066071"
         y="179.35907"
         style="font-size:6.3499999px;stroke-width:0.26458332">$t_\mathrm{TM}$</tspan></text>
    <text
       xml:space="preserve"
       style="font-style:normal;font-weight:normal;font-size:10.58333302px;line-height:1.25;font-family:sans-serif;letter-spacing:0px;word-spacing:0px;fill:#000000;fill-opacity:1;stroke:none;stroke-width:0.26458332"
       x="38.562447"
       y="190.11636"
       id="text9029-56-2-3-0-1-7"><tspan
         sodipodi:role="line"
         id="tspan9027-2-7-6-6-8-9"
         x="38.562447"
         y="190.11636"
         style="font-size:6.3499999px;stroke-width:0.26458332">$r_\mathrm{TM}$</tspan></text>
    <text
       xml:space="preserve"
       style="font-style:normal;font-weight:normal;font-size:10.58333302px;line-height:1.25;font-family:sans-serif;letter-spacing:0px;word-spacing:0px;fill:#000000;fill-opacity:1;stroke:none;stroke-width:0.26458332"
       x="132.86232"
       y="218.37039"
       id="text9029-56-2-3-0-1-7-2"><tspan
         sodipodi:role="line"
         id="tspan9027-2-7-6-6-8-9-0"
         x="132.86232"
         y="218.37039"
         style="font-size:6.3499999px;stroke-width:0.26458332">$\mathcal{R}_\mathrm{TM}$</tspan></text>
    <text
       xml:space="preserve"
       style="font-style:normal;font-weight:normal;font-size:10.58333302px;line-height:1.25;font-family:sans-serif;letter-spacing:0px;word-spacing:0px;fill:#000000;fill-opacity:1;stroke:none;stroke-width:0.26458332"
       x="140.4173"
       y="178.63419"
       id="text9029-56-2-3-0-1-7-2-3"><tspan
         sodipodi:role="line"
         id="tspan9027-2-7-6-6-8-9-0-7"
         x="140.4173"
         y="178.63419"
         style="font-size:6.3499999px;stroke-width:0.26458332">$\mathcal{T}_\mathrm{TM}$</tspan></text>
    <text
       xml:space="preserve"
       style="font-style:normal;font-weight:normal;font-size:10.58333302px;line-height:1.25;font-family:sans-serif;letter-spacing:0px;word-spacing:0px;fill:#000000;fill-opacity:1;stroke:none;stroke-width:0.26458332"
       x="153.5864"
       y="228.38728"
       id="text9029-5-9-5"><tspan
         sodipodi:role="line"
         id="tspan9027-3-1-9"
         x="153.5864"
         y="228.38728"
         style="font-size:6.3499999px;stroke-width:0.26458332">$\alpha$</tspan></text>
    <text
       xml:space="preserve"
       style="font-style:normal;font-weight:normal;font-size:10.58333302px;line-height:1.25;font-family:sans-serif;letter-spacing:0px;word-spacing:0px;fill:#000000;fill-opacity:1;stroke:none;stroke-width:0.26458332"
       x="56.646317"
       y="228.38728"
       id="text9029-5-9-5-2"><tspan
         sodipodi:role="line"
         id="tspan9027-3-1-9-2"
         x="56.646317"
         y="228.38728"
         style="font-size:6.3499999px;stroke-width:0.26458332">$\alpha$</tspan></text>
    <text
       xml:space="preserve"
       style="font-style:normal;font-weight:normal;font-size:10.58333302px;line-height:1.25;font-family:sans-serif;letter-spacing:0px;word-spacing:0px;fill:#000000;fill-opacity:1;stroke:none;stroke-width:0.26458332"
       x="8.588666"
       y="172.73116"
       id="text9029-56-2-3-0-8"><tspan
         sodipodi:role="line"
         id="tspan9027-2-7-6-6-9"
         x="8.588666"
         y="172.73116"
         style="font-size:6.3499999px;stroke-width:0.26458332">a)</tspan></text>
    <text
       xml:space="preserve"
       style="font-style:normal;font-weight:normal;font-size:10.58333302px;line-height:1.25;font-family:sans-serif;letter-spacing:0px;word-spacing:0px;fill:#000000;fill-opacity:1;stroke:none;stroke-width:0.26458332"
       x="105.77615"
       y="172.9731"
       id="text9029-56-2-3-0-2-7"><tspan
         sodipodi:role="line"
         id="tspan9027-2-7-6-6-6-3"
         x="105.77615"
         y="172.9731"
         style="font-size:6.3499999px;stroke-width:0.26458332">b)</tspan></text>
    <text
       xml:space="preserve"
       style="font-style:normal;font-weight:normal;font-size:10.58333302px;line-height:1.25;font-family:sans-serif;letter-spacing:0px;word-spacing:0px;fill:#000000;fill-opacity:1;stroke:none;stroke-width:0.26458332"
       x="65.698418"
       y="228.45569"
       id="text9029-5-9-5-2-6"><tspan
         sodipodi:role="line"
         id="tspan9027-3-1-9-2-7"
         x="65.698418"
         y="228.45569"
         style="font-size:6.3499999px;stroke-width:0.26458332">$\alpha_B$</tspan></text>
    <text
       xml:space="preserve"
       style="font-style:normal;font-weight:normal;font-size:10.58333302px;line-height:1.25;font-family:sans-serif;letter-spacing:0px;word-spacing:0px;fill:#000000;fill-opacity:1;stroke:none;stroke-width:0.26458332"
       x="162.68593"
       y="228.47858"
       id="text9029-5-9-5-2-6-6"><tspan
         sodipodi:role="line"
         id="tspan9027-3-1-9-2-7-2"
         x="162.68593"
         y="228.47858"
         style="font-size:6.3499999px;stroke-width:0.26458332">$\alpha_B$</tspan></text>
  </g>
</svg>
