<?xml version="1.0" encoding="UTF-8" standalone="no"?>
<!-- Created with Inkscape (http://www.inkscape.org/) -->

<svg
   xmlns:dc="http://purl.org/dc/elements/1.1/"
   xmlns:cc="http://creativecommons.org/ns#"
   xmlns:rdf="http://www.w3.org/1999/02/22-rdf-syntax-ns#"
   xmlns:svg="http://www.w3.org/2000/svg"
   xmlns="http://www.w3.org/2000/svg"
   xmlns:sodipodi="http://sodipodi.sourceforge.net/DTD/sodipodi-0.dtd"
   xmlns:inkscape="http://www.inkscape.org/namespaces/inkscape"
   width="221.22414mm"
   height="85.070564mm"
   viewBox="0 0 221.22414 85.070565"
   version="1.1"
   id="svg211"
   inkscape:version="0.92.5 (2060ec1f9f, 2020-04-08)"
   sodipodi:docname="04_redte.svg">
  <defs
     id="defs205">
    <marker
       inkscape:isstock="true"
       style="overflow:visible"
       id="marker18155"
       refX="0"
       refY="0"
       orient="auto"
       inkscape:stockid="Arrow1Mstart">
      <path
         inkscape:connector-curvature="0"
         transform="matrix(0.4,0,0,0.4,4,0)"
         style="fill:#000000;fill-opacity:1;fill-rule:evenodd;stroke:#000000;stroke-width:1.00000003pt;stroke-opacity:1"
         d="M 0,0 5,-5 -12.5,0 5,5 Z"
         id="path18153" />
    </marker>
    <marker
       inkscape:isstock="true"
       style="overflow:visible"
       id="marker15778"
       refX="0"
       refY="0"
       orient="auto"
       inkscape:stockid="Arrow1Mend">
      <path
         transform="matrix(-0.4,0,0,-0.4,-4,0)"
         style="fill:#d40000;fill-opacity:1;fill-rule:evenodd;stroke:#d40000;stroke-width:1.00000003pt;stroke-opacity:1"
         d="M 0,0 5,-5 -12.5,0 5,5 Z"
         id="path15776"
         inkscape:connector-curvature="0" />
    </marker>
    <marker
       inkscape:isstock="true"
       style="overflow:visible"
       id="marker14070"
       refX="0"
       refY="0"
       orient="auto"
       inkscape:stockid="Arrow1Mend">
      <path
         transform="matrix(-0.4,0,0,-0.4,-4,0)"
         style="fill:#d40000;fill-opacity:1;fill-rule:evenodd;stroke:#d40000;stroke-width:1.00000003pt;stroke-opacity:1"
         d="M 0,0 5,-5 -12.5,0 5,5 Z"
         id="path14068"
         inkscape:connector-curvature="0" />
    </marker>
    <marker
       inkscape:stockid="StopL"
       orient="auto"
       refY="0"
       refX="0"
       id="StopL"
       style="overflow:visible"
       inkscape:isstock="true">
      <path
         id="path1616"
         d="M 0,5.65 V -5.65"
         style="fill:#666666;fill-opacity:1;fill-rule:evenodd;stroke:#666666;stroke-width:1.00000003pt;stroke-opacity:1"
         transform="scale(0.8)"
         inkscape:connector-curvature="0" />
    </marker>
    <marker
       inkscape:stockid="Arrow1Mstart"
       orient="auto"
       refY="0"
       refX="0"
       id="Arrow1Mstart-7"
       style="overflow:visible"
       inkscape:isstock="true">
      <path
         inkscape:connector-curvature="0"
         id="path1453-0"
         d="M 0,0 5,-5 -12.5,0 5,5 Z"
         style="fill:#000000;fill-opacity:1;fill-rule:evenodd;stroke:#000000;stroke-width:1.00000003pt;stroke-opacity:1"
         transform="matrix(0.4,0,0,0.4,4,0)" />
    </marker>
    <marker
       inkscape:stockid="Arrow1Mstart"
       orient="auto"
       refY="0"
       refX="0"
       id="Arrow1Mstart-3"
       style="overflow:visible"
       inkscape:isstock="true">
      <path
         inkscape:connector-curvature="0"
         id="path1453-6"
         d="M 0,0 5,-5 -12.5,0 5,5 Z"
         style="fill:#000000;fill-opacity:1;fill-rule:evenodd;stroke:#000000;stroke-width:1.00000003pt;stroke-opacity:1"
         transform="matrix(0.4,0,0,0.4,4,0)" />
    </marker>
    <marker
       inkscape:stockid="Arrow1Mend"
       orient="auto"
       refY="0"
       refX="0"
       id="Arrow1Mend-1"
       style="overflow:visible"
       inkscape:isstock="true">
      <path
         inkscape:connector-curvature="0"
         id="path1456-2"
         d="M 0,0 5,-5 -12.5,0 5,5 Z"
         style="fill:#000000;fill-opacity:1;fill-rule:evenodd;stroke:#000000;stroke-width:1.00000003pt;stroke-opacity:1"
         transform="matrix(-0.4,0,0,-0.4,-4,0)" />
    </marker>
    <marker
       inkscape:stockid="Arrow1Mstart"
       orient="auto"
       refY="0"
       refX="0"
       id="Arrow1Mstart-7-9"
       style="overflow:visible"
       inkscape:isstock="true">
      <path
         inkscape:connector-curvature="0"
         id="path1453-0-3"
         d="M 0,0 5,-5 -12.5,0 5,5 Z"
         style="fill:#000000;fill-opacity:1;fill-rule:evenodd;stroke:#000000;stroke-width:1.00000003pt;stroke-opacity:1"
         transform="matrix(0.4,0,0,0.4,4,0)" />
    </marker>
    <marker
       inkscape:stockid="Arrow1Mend"
       orient="auto"
       refY="0"
       refX="0"
       id="Arrow1Mend-9-1"
       style="overflow:visible"
       inkscape:isstock="true">
      <path
         inkscape:connector-curvature="0"
         id="path1456-3-9"
         d="M 0,0 5,-5 -12.5,0 5,5 Z"
         style="fill:#000000;fill-opacity:1;fill-rule:evenodd;stroke:#000000;stroke-width:1.00000003pt;stroke-opacity:1"
         transform="matrix(-0.4,0,0,-0.4,-4,0)" />
    </marker>
    <marker
       inkscape:stockid="Arrow1Mstart"
       orient="auto"
       refY="0"
       refX="0"
       id="Arrow1Mstart-3-6"
       style="overflow:visible"
       inkscape:isstock="true">
      <path
         inkscape:connector-curvature="0"
         id="path1453-6-1"
         d="M 0,0 5,-5 -12.5,0 5,5 Z"
         style="fill:#000000;fill-opacity:1;fill-rule:evenodd;stroke:#000000;stroke-width:1.00000003pt;stroke-opacity:1"
         transform="matrix(0.4,0,0,0.4,4,0)" />
    </marker>
    <marker
       inkscape:stockid="Arrow1Mend"
       orient="auto"
       refY="0"
       refX="0"
       id="Arrow1Mend-1-0"
       style="overflow:visible"
       inkscape:isstock="true">
      <path
         inkscape:connector-curvature="0"
         id="path1456-2-6"
         d="M 0,0 5,-5 -12.5,0 5,5 Z"
         style="fill:#000000;fill-opacity:1;fill-rule:evenodd;stroke:#000000;stroke-width:1.00000003pt;stroke-opacity:1"
         transform="matrix(-0.4,0,0,-0.4,-4,0)" />
    </marker>
    <marker
       inkscape:stockid="Arrow1Mstart"
       orient="auto"
       refY="0"
       refX="0"
       id="Arrow1Mstart-7-9-6"
       style="overflow:visible"
       inkscape:isstock="true">
      <path
         inkscape:connector-curvature="0"
         id="path1453-0-3-1"
         d="M 0,0 5,-5 -12.5,0 5,5 Z"
         style="fill:#000000;fill-opacity:1;fill-rule:evenodd;stroke:#000000;stroke-width:1.00000003pt;stroke-opacity:1"
         transform="matrix(0.4,0,0,0.4,4,0)" />
    </marker>
    <marker
       inkscape:stockid="Arrow1Mend"
       orient="auto"
       refY="0"
       refX="0"
       id="Arrow1Mend-9-1-5"
       style="overflow:visible"
       inkscape:isstock="true">
      <path
         inkscape:connector-curvature="0"
         id="path1456-3-9-5"
         d="M 0,0 5,-5 -12.5,0 5,5 Z"
         style="fill:#000000;fill-opacity:1;fill-rule:evenodd;stroke:#000000;stroke-width:1.00000003pt;stroke-opacity:1"
         transform="matrix(-0.4,0,0,-0.4,-4,0)" />
    </marker>
    <marker
       inkscape:isstock="true"
       style="overflow:visible"
       id="marker14070-4"
       refX="0"
       refY="0"
       orient="auto"
       inkscape:stockid="Arrow1Mend">
      <path
         transform="matrix(-0.4,0,0,-0.4,-4,0)"
         style="fill:#d40000;fill-opacity:1;fill-rule:evenodd;stroke:#d40000;stroke-width:1.00000003pt;stroke-opacity:1"
         d="M 0,0 5,-5 -12.5,0 5,5 Z"
         id="path14068-5"
         inkscape:connector-curvature="0" />
    </marker>
    <marker
       inkscape:isstock="true"
       style="overflow:visible"
       id="marker18155-3"
       refX="0"
       refY="0"
       orient="auto"
       inkscape:stockid="Arrow1Mstart">
      <path
         inkscape:connector-curvature="0"
         transform="matrix(0.4,0,0,0.4,4,0)"
         style="fill:#000000;fill-opacity:1;fill-rule:evenodd;stroke:#000000;stroke-width:1.00000003pt;stroke-opacity:1"
         d="M 0,0 5,-5 -12.5,0 5,5 Z"
         id="path18153-0" />
    </marker>
    <marker
       inkscape:isstock="true"
       style="overflow:visible"
       id="marker14070-8"
       refX="0"
       refY="0"
       orient="auto"
       inkscape:stockid="Arrow1Mend">
      <path
         transform="matrix(-0.4,0,0,-0.4,-4,0)"
         style="fill:#d40000;fill-opacity:1;fill-rule:evenodd;stroke:#d40000;stroke-width:1.00000003pt;stroke-opacity:1"
         d="M 0,0 5,-5 -12.5,0 5,5 Z"
         id="path14068-8"
         inkscape:connector-curvature="0" />
    </marker>
    <marker
       inkscape:isstock="true"
       style="overflow:visible"
       id="marker14070-4-5-61"
       refX="0"
       refY="0"
       orient="auto"
       inkscape:stockid="Arrow1Mend">
      <path
         transform="matrix(-0.4,0,0,-0.4,-4,0)"
         style="fill:#000000;fill-opacity:1;fill-rule:evenodd;stroke:#000000;stroke-width:1.00000003pt;stroke-opacity:1"
         d="M 0,0 5,-5 -12.5,0 5,5 Z"
         id="path14068-5-0-5"
         inkscape:connector-curvature="0" />
    </marker>
    <marker
       inkscape:isstock="true"
       style="overflow:visible"
       id="marker14070-4-5-6"
       refX="0"
       refY="0"
       orient="auto"
       inkscape:stockid="Arrow1Mend">
      <path
         transform="matrix(-0.4,0,0,-0.4,-4,0)"
         style="fill:#000000;fill-opacity:1;fill-rule:evenodd;stroke:#000000;stroke-width:1.00000003pt;stroke-opacity:1"
         d="M 0,0 5,-5 -12.5,0 5,5 Z"
         id="path14068-5-0-9"
         inkscape:connector-curvature="0" />
    </marker>
    <marker
       inkscape:isstock="true"
       style="overflow:visible"
       id="marker14070-4-4"
       refX="0"
       refY="0"
       orient="auto"
       inkscape:stockid="Arrow1Mend">
      <path
         transform="matrix(-0.4,0,0,-0.4,-4,0)"
         style="fill:#d40000;fill-opacity:1;fill-rule:evenodd;stroke:#d40000;stroke-width:1.00000003pt;stroke-opacity:1"
         d="M 0,0 5,-5 -12.5,0 5,5 Z"
         id="path14068-5-7"
         inkscape:connector-curvature="0" />
    </marker>
    <marker
       inkscape:stockid="Arrow1Mstart"
       orient="auto"
       refY="0"
       refX="0"
       id="Arrow1Mstart-4"
       style="overflow:visible"
       inkscape:isstock="true">
      <path
         id="path7034-5"
         d="M 0,0 5,-5 -12.5,0 5,5 Z"
         style="fill:#000000;fill-opacity:1;fill-rule:evenodd;stroke:#000000;stroke-width:1.00000003pt;stroke-opacity:1"
         transform="matrix(0.4,0,0,0.4,4,0)"
         inkscape:connector-curvature="0" />
    </marker>
    <marker
       inkscape:stockid="Arrow1Mend"
       orient="auto"
       refY="0"
       refX="0"
       id="marker6984-2"
       style="overflow:visible"
       inkscape:isstock="true">
      <path
         inkscape:connector-curvature="0"
         id="path6982-5"
         d="M 0,0 5,-5 -12.5,0 5,5 Z"
         style="fill:#000000;fill-opacity:1;fill-rule:evenodd;stroke:#000000;stroke-width:1.00000003pt;stroke-opacity:1"
         transform="matrix(-0.4,0,0,-0.4,-4,0)" />
    </marker>
    <marker
       inkscape:isstock="true"
       style="overflow:visible"
       id="marker14070-4-2-6"
       refX="0"
       refY="0"
       orient="auto"
       inkscape:stockid="Arrow1Mend">
      <path
         transform="matrix(-0.4,0,0,-0.4,-4,0)"
         style="fill:#d40000;fill-opacity:1;fill-rule:evenodd;stroke:#d40000;stroke-width:1.00000003pt;stroke-opacity:1"
         d="M 0,0 5,-5 -12.5,0 5,5 Z"
         id="path14068-5-9-5"
         inkscape:connector-curvature="0" />
    </marker>
    <marker
       inkscape:stockid="Arrow1Mstart"
       orient="auto"
       refY="0"
       refX="0"
       id="Arrow1Mstart"
       style="overflow:visible"
       inkscape:isstock="true">
      <path
         id="path7034"
         d="M 0,0 5,-5 -12.5,0 5,5 Z"
         style="fill:#000000;fill-opacity:1;fill-rule:evenodd;stroke:#000000;stroke-width:1.00000003pt;stroke-opacity:1"
         transform="matrix(0.4,0,0,0.4,4,0)"
         inkscape:connector-curvature="0" />
    </marker>
    <marker
       inkscape:stockid="Arrow1Mend"
       orient="auto"
       refY="0"
       refX="0"
       id="marker6984"
       style="overflow:visible"
       inkscape:isstock="true">
      <path
         inkscape:connector-curvature="0"
         id="path6982"
         d="M 0,0 5,-5 -12.5,0 5,5 Z"
         style="fill:#000000;fill-opacity:1;fill-rule:evenodd;stroke:#000000;stroke-width:1.00000003pt;stroke-opacity:1"
         transform="matrix(-0.4,0,0,-0.4,-4,0)" />
    </marker>
    <marker
       inkscape:isstock="true"
       style="overflow:visible"
       id="marker14070-4-5"
       refX="0"
       refY="0"
       orient="auto"
       inkscape:stockid="Arrow1Mend">
      <path
         transform="matrix(-0.4,0,0,-0.4,-4,0)"
         style="fill:#000000;fill-opacity:1;fill-rule:evenodd;stroke:#000000;stroke-width:1.00000003pt;stroke-opacity:1"
         d="M 0,0 5,-5 -12.5,0 5,5 Z"
         id="path14068-5-0"
         inkscape:connector-curvature="0" />
    </marker>
    <marker
       inkscape:isstock="true"
       style="overflow:visible"
       id="marker14070-4-2"
       refX="0"
       refY="0"
       orient="auto"
       inkscape:stockid="Arrow1Mend">
      <path
         transform="matrix(-0.4,0,0,-0.4,-4,0)"
         style="fill:#d40000;fill-opacity:1;fill-rule:evenodd;stroke:#d40000;stroke-width:1.00000003pt;stroke-opacity:1"
         d="M 0,0 5,-5 -12.5,0 5,5 Z"
         id="path14068-5-9"
         inkscape:connector-curvature="0" />
    </marker>
    <marker
       inkscape:isstock="true"
       style="overflow:visible"
       id="marker14070-4-3"
       refX="0"
       refY="0"
       orient="auto"
       inkscape:stockid="Arrow1Mend">
      <path
         transform="matrix(-0.4,0,0,-0.4,-4,0)"
         style="fill:#d40000;fill-opacity:1;fill-rule:evenodd;stroke:#d40000;stroke-width:1.00000003pt;stroke-opacity:1"
         d="M 0,0 5,-5 -12.5,0 5,5 Z"
         id="path14068-5-6"
         inkscape:connector-curvature="0" />
    </marker>
  </defs>
  <sodipodi:namedview
     id="base"
     pagecolor="#ffffff"
     bordercolor="#666666"
     borderopacity="1.0"
     inkscape:pageopacity="0.0"
     inkscape:pageshadow="2"
     inkscape:zoom="0.79330857"
     inkscape:cx="596.17224"
     inkscape:cy="307.4466"
     inkscape:document-units="mm"
     inkscape:current-layer="layer1"
     showgrid="false"
     inkscape:snap-bbox="true"
     fit-margin-top="0"
     fit-margin-left="0"
     fit-margin-right="0"
     fit-margin-bottom="0"
     inkscape:window-width="1500"
     inkscape:window-height="994"
     inkscape:window-x="626"
     inkscape:window-y="120"
     inkscape:window-maximized="0" />
  <metadata
     id="metadata208">
    <rdf:RDF>
      <cc:Work
         rdf:about="">
        <dc:format>image/svg+xml</dc:format>
        <dc:type
           rdf:resource="http://purl.org/dc/dcmitype/StillImage" />
        <dc:title></dc:title>
      </cc:Work>
    </rdf:RDF>
  </metadata>
  <g
     inkscape:label="Layer 1"
     inkscape:groupmode="layer"
     id="layer1"
     transform="translate(-10.887401,-160.00868)">
    <text
       xml:space="preserve"
       style="font-style:normal;font-weight:normal;font-size:10.58333302px;line-height:1.25;font-family:sans-serif;letter-spacing:0px;word-spacing:0px;fill:#000000;fill-opacity:1;stroke:none;stroke-width:0.26458332"
       x="49.928837"
       y="47.981602"
       id="text7124"><tspan
         sodipodi:role="line"
         id="tspan7122"
         x="49.928837"
         y="57.345371"
         style="stroke-width:0.26458332" /></text>
    <path
       id="path8648"
       title="((cos(x)-1.5*sqrt(1-(sin(x)*sin(x)/2.25)))/(cos(x)+1.5*sqrt(1-(sin(x)*sin(x)/2.25))))**"
       d=""
       style="fill:none;fill-opacity:0.9921875;stroke:#000000;stroke-width:0.80000001;stroke-linecap:round;stroke-miterlimit:4;stroke-dasharray:none;stroke-dashoffset:0;stroke-opacity:1"
       inkscape:connector-curvature="0" />
    <rect
       style="fill:none;fill-opacity:0.9921875;stroke:#000000;stroke-width:0.80000001;stroke-linecap:round;stroke-miterlimit:4;stroke-dasharray:none;stroke-dashoffset:0;stroke-opacity:1"
       id="rect7827-3"
       width="92.38726"
       height="71.424637"
       x="139.32277"
       y="163.55463" />
    <path
       inkscape:connector-curvature="0"
       id="path8847"
       title="((cos(x)-1.5*sqrt(1-(sin(x)*sin(x)/2.25)))/(cos(x)+1.5*sqrt(1-(sin(x)*sin(x)/2.25))))*((cos(x)-1.5*sqrt(1-(sin(x)*sin(x)/2.25)))/(cos(x)+1.5*sqrt(1-(sin(x)*sin(x)/2.25))))"
       d="m 139.323,232.12228 c 0.37322,0 0.74642,-4.7e-4 1.11965,-9.4e-4 0.37321,-9.2e-4 0.74643,-0.002 1.11963,-0.004 0.37322,-0.002 0.74644,-0.004 1.11965,-0.006 0.37321,-0.002 0.74643,-0.006 1.11964,-0.01 0.37321,-0.004 0.74643,-0.007 1.11964,-0.0125 0.37322,-0.005 0.74643,-0.01 1.11964,-0.0154 0.37321,-0.006 0.74644,-0.012 1.11965,-0.0184 0.37321,-0.006 0.74642,-0.0137 1.11964,-0.0213 0.37322,-0.007 0.74643,-0.0157 1.11964,-0.0244 0.37321,-0.008 0.74643,-0.0178 1.11963,-0.0275 0.37323,-0.01 0.74644,-0.0198 1.11966,-0.0307 0.3732,-0.0108 0.74642,-0.0221 1.11963,-0.034 0.37323,-0.012 0.74643,-0.0244 1.11965,-0.0374 0.37321,-0.013 0.74642,-0.0266 1.11963,-0.0409 0.37321,-0.0142 0.74644,-0.0291 1.11965,-0.0445 0.37321,-0.0154 0.74642,-0.0315 1.11965,-0.0483 0.37321,-0.0167 0.74642,-0.0341 1.11963,-0.0523 0.37322,-0.018 0.74643,-0.0369 1.11965,-0.0564 0.37321,-0.0195 0.74642,-0.0397 1.11964,-0.0607 0.3732,-0.0209 0.74642,-0.0427 1.11963,-0.0652 0.37323,-0.0225 0.74644,-0.0458 1.11965,-0.07 0.37321,-0.0242 0.74644,-0.0492 1.11965,-0.075 0.37321,-0.0258 0.74642,-0.0525 1.11963,-0.0802 0.37322,-0.0276 0.74642,-0.0562 1.11965,-0.0857 0.37321,-0.0296 0.74643,-0.06 1.11963,-0.0916 0.37322,-0.0315 0.74644,-0.0641 1.11966,-0.0977 0.3732,-0.0337 0.74642,-0.0684 1.11963,-0.10424 0.37321,-0.0358 0.74642,-0.073 1.11964,-0.11121 0.37322,-0.0382 0.74643,-0.0777 1.11964,-0.11854 0.37321,-0.0408 0.74644,-0.083 1.11965,-0.12629 0.37321,-0.0435 0.74642,-0.0882 1.11964,-0.13457 0.37322,-0.0463 0.74643,-0.0941 1.11964,-0.14337 0.37321,-0.0493 0.74643,-0.10027 1.11963,-0.15277 0.37322,-0.0527 0.74644,-0.10676 1.11966,-0.16276 0.3732,-0.056 0.74642,-0.11374 1.11963,-0.17342 0.37323,-0.0596 0.74643,-0.12123 1.11965,-0.18481 0.37321,-0.0636 0.74642,-0.12921 1.11963,-0.19699 0.37321,-0.0678 0.74644,-0.13774 1.11965,-0.21002 0.37321,-0.0723 0.74642,-0.14684 1.11964,-0.22392 0.37322,-0.0771 0.74644,-0.15665 1.11964,-0.23886 0.37322,-0.0822 0.74643,-0.16712 1.11964,-0.25486 0.37322,-0.0876 0.74643,-0.17833 1.11965,-0.27198 0.37321,-0.0937 0.74642,-0.19039 1.11963,-0.2904 0.37323,-0.10003 0.74644,-0.2033 1.11965,-0.31014 0.37321,-0.10688 0.74643,-0.21719 1.11965,-0.33134 0.37321,-0.11422 0.74642,-0.23212 1.11963,-0.35415 0.37322,-0.12203 0.74643,-0.24815 1.11965,-0.37865 0.37321,-0.13051 0.74643,-0.26541 1.11963,-0.40503 0.37322,-0.13961 0.74643,-0.28396 1.11966,-0.43338 0.3732,-0.14942 0.74642,-0.30395 1.11963,-0.46394 0.37321,-0.15999 0.74642,-0.32546 1.11965,-0.49682 0.37321,-0.17135 0.74642,-0.34862 1.11963,-0.53222 0.37321,-0.18361 0.74644,-0.3736 1.11965,-0.57041 0.37321,-0.19681 0.74642,-0.4005 1.11964,-0.61154 0.37321,-0.21105 0.74643,-0.42949 1.11964,-0.65587 0.37322,-0.22639 0.74643,-0.46075 1.11964,-0.70367 0.37321,-0.24292 0.74643,-0.49444 1.11965,-0.75521 0.3732,-0.26075 0.74642,-0.53079 1.11963,-0.81077 0.37323,-0.27998 0.74643,-0.56997 1.11965,-0.8707 0.37321,-0.30071 0.74643,-0.61222 1.11964,-0.93529 0.37322,-0.32307 0.74643,-0.65777 1.11964,-1.00496 0.37322,-0.34717 0.74642,-0.70689 1.11964,-1.08005 0.37322,-0.37316 0.74644,-0.75984 1.11964,-1.16101 0.37322,-0.40117 0.74643,-0.8169 1.11966,-1.24824 0.3732,-0.43134 0.74642,-0.87838 1.11963,-1.34223 0.37321,-0.46384 0.74642,-0.94461 1.11963,-1.44346 0.37323,-0.49884 0.74644,-1.0159 1.11965,-1.55243 0.37321,-0.53653 0.74643,-1.09265 1.11965,-1.66971 0.37321,-0.57707 0.74642,-1.17522 1.11964,-1.79589 0.37321,-0.62065 0.74642,-1.26398 1.11964,-1.93149 0.37321,-0.66751 0.74643,-1.35938 1.11964,-2.07721 0.37321,-0.71783 0.74642,-1.46181 1.11965,-2.23366 0.37321,-0.77186 0.74642,-1.57176 1.11963,-2.40153 0.37322,-0.82979 0.74644,-1.68964 1.11965,-2.5815 0.37321,-0.89186 0.74642,-1.81592 1.11964,-2.77426 0.3732,-0.95833 0.74643,-1.95113 1.11964,-2.98056 0.37322,-1.02944 0.74642,-2.09573 1.11964,-3.20117 0.37321,-1.10541 0.74644,-2.25021 1.11964,-3.43675 0.37322,-1.18653 0.74643,-2.41509 1.11964,-3.68812 0.37321,-1.27304 0.74643,-2.59085 1.11965,-3.95602 0.37321,-1.36518 0.74642,-2.778 1.11963,-4.24118 0.37323,-1.46319 0.74644,-2.97704 1.11965,-4.54435 0.37321,-1.56732 0.20341,-0.71512 0.57664,-2.39291"
       style="fill:none;fill-opacity:0.9921875;stroke:#d40000;stroke-width:0.80000001;stroke-linecap:round;stroke-miterlimit:4;stroke-dasharray:none;stroke-dashoffset:0;stroke-opacity:1"
       sodipodi:nodetypes="ccssccssscscssssccssssscsscsccccccsscccccccssccsccsccccccccccccccccsccccsccccccccscc" />
    <rect
       style="fill:none;fill-opacity:0.9921875;stroke:#000000;stroke-width:0.80000001;stroke-linecap:round;stroke-miterlimit:4;stroke-dasharray:none;stroke-dashoffset:0;stroke-opacity:1"
       id="rect7827"
       width="92.38726"
       height="71.424637"
       x="22.650866"
       y="163.55463" />
    <path
       inkscape:connector-curvature="0"
       id="path8893"
       title="((cos(x)-1.5*sqrt(1-(sin(x)*sin(x)/2.25)))/(cos(x)+1.5*sqrt(1-(sin(x)*sin(x)/2.25))))"
       d="m 22.650862,206.40941 c 0.373215,0 0.746428,5.8e-4 1.119642,0.002 0.373214,9.4e-4 0.746428,0.002 1.119642,0.006 0.373214,0.002 0.746427,0.006 1.119642,0.008 0.373214,0.004 0.746427,0.007 1.119641,0.0121 0.373214,0.005 0.746427,0.01 1.119642,0.0156 0.373214,0.006 0.746428,0.0121 1.119641,0.0191 0.373214,0.006 0.746428,0.0146 1.119643,0.0227 0.373212,0.008 0.746427,0.017 1.119641,0.0262 0.373213,0.01 0.746427,0.0193 1.119642,0.0299 0.373212,0.0108 0.746427,0.0218 1.119641,0.0336 0.373214,0.012 0.746427,0.0243 1.119642,0.0373 0.373213,0.0131 0.746428,0.0267 1.119641,0.0411 0.373214,0.0143 0.746428,0.0293 1.119643,0.045 0.373212,0.0156 0.746427,0.0319 1.119641,0.0489 0.373214,0.017 0.746427,0.0346 1.119641,0.0529 0.373214,0.0184 0.746429,0.0373 1.119642,0.057 0.373214,0.0197 0.746428,0.04 1.119641,0.0612 0.373214,0.021 0.746429,0.0429 1.119641,0.0655 0.373215,0.0226 0.746429,0.0458 1.119643,0.0699 0.373213,0.024 0.746428,0.0488 1.119642,0.0743 0.373214,0.0256 0.746427,0.0518 1.119641,0.079 0.373215,0.0271 0.746429,0.0551 1.119642,0.0838 0.373214,0.0287 0.746428,0.0583 1.119641,0.0886 0.373215,0.0304 0.746428,0.0617 1.119643,0.0938 0.373213,0.0321 0.746427,0.065 1.119641,0.099 0.373215,0.0339 0.746427,0.0686 1.119642,0.10423 0.373214,0.0357 0.746428,0.0723 1.119641,0.10989 0.373215,0.0375 0.746428,0.0761 1.119643,0.11554 0.373213,0.0396 0.746427,0.0799 1.119641,0.12155 0.373213,0.0415 0.746427,0.0842 1.119642,0.1277 0.373214,0.0436 0.746427,0.0882 1.119641,0.13409 0.373214,0.0458 0.746427,0.0927 1.119642,0.1407 0.373213,0.048 0.746428,0.0971 1.119641,0.14757 0.373214,0.0504 0.746428,0.10195 1.119643,0.15469 0.373212,0.0528 0.746427,0.10677 1.119641,0.16212 0.373213,0.0553 0.746427,0.11193 1.119642,0.1698 0.373213,0.0579 0.746427,0.11722 1.119641,0.1778 0.373214,0.0606 0.746428,0.12267 1.119641,0.18614 0.373214,0.0635 0.746429,0.12838 1.119643,0.19479 0.373213,0.0665 0.746428,0.13434 1.119641,0.20382 0.373215,0.0695 0.746428,0.14054 1.119642,0.21322 0.373214,0.0726 0.746428,0.147 1.119641,0.22299 0.373215,0.076 0.746429,0.15373 1.119642,0.23321 0.373214,0.0795 0.746429,0.16072 1.119641,0.24382 0.373215,0.0831 0.746429,0.16804 1.119643,0.25491 0.373213,0.0868 0.746427,0.17566 1.119641,0.26646 0.373215,0.0908 0.746428,0.1836 1.119642,0.2785 0.373214,0.0949 0.746427,0.19189 1.119641,0.29107 0.373215,0.0992 0.746428,0.20054 1.119642,0.30416 0.373214,0.10364 0.746428,0.20955 1.119642,0.31784 0.373214,0.10832 0.746427,0.21894 1.119642,0.33208 0.373214,0.11313 0.746427,0.22874 1.119641,0.34693 0.373215,0.11818 0.746427,0.23897 1.119642,0.36244 0.373214,0.12346 0.746428,0.24961 1.119641,0.37858 0.373214,0.12896 0.746428,0.26073 1.119643,0.39542 0.373213,0.13468 0.746427,0.27232 1.119641,0.41297 0.373213,0.14065 0.746427,0.28436 1.119642,0.43123 0.373212,0.14689 0.746427,0.29694 1.119641,0.45029 0.373214,0.15335 0.746427,0.31001 1.119642,0.47009 0.373213,0.1601 0.746428,0.32363 1.119641,0.49074 0.373214,0.1671 0.746429,0.33779 1.119643,0.51218 0.373213,0.17439 0.746427,0.35252 1.119641,0.53449 0.373214,0.18197 0.746428,0.36782 1.119641,0.55767 0.373215,0.18984 0.746428,0.38372 1.119642,0.58174 0.373214,0.19801 0.746429,0.40022 1.119641,0.60671 0.373215,0.20652 0.746429,0.41735 1.119643,0.63264 0.373213,0.2153 0.746428,0.43508 1.119641,0.65949 0.373215,0.22439 0.746428,0.45345 1.119642,0.68728 0.373214,0.23382 0.746427,0.47246 1.119643,0.71604 0.373211,0.24358 0.746421,0.49213 1.119641,0.74578 0.37321,0.25365 0.74643,0.51243 1.11964,0.77648 0.37321,0.26404 0.74643,0.53339 1.11965,0.80815 0.3732,0.27477 0.74642,0.555 1.11963,0.84081 0.37322,0.2858 0.74643,0.57723 1.11964,0.87439 0.37322,0.29717 0.74644,0.60012 1.11964,0.90895 0.37322,0.30884 0.74643,0.62359 1.11965,0.94441 0.37321,0.32082 0.74642,0.64773 1.11964,0.98082 0.37322,0.33308 0.74642,0.67241 1.11964,1.01808 0.37322,0.34565 0.74643,0.69768 1.11964,1.05619 0.37322,0.3585 0.74643,0.72351 1.11965,1.09512 0.37321,0.37162 0.74642,0.74987 1.11964,1.13484 0.37321,0.38497 0.74642,0.77671 1.11964,1.17526"
       style="fill:none;fill-opacity:0.9921875;stroke:#d40000;stroke-width:0.80000001;stroke-linecap:round;stroke-miterlimit:4;stroke-dasharray:none;stroke-dashoffset:0;stroke-opacity:1"
       sodipodi:nodetypes="cccccccccccccscccssscssssccccccscccccccccccccccssscsssscssssccccccccccsccccccccccsc" />
    <path
       style="fill:#4d4d4d;fill-opacity:0.9921875;stroke:#666666;stroke-width:0.80000001;stroke-linecap:round;stroke-miterlimit:4;stroke-dasharray:none;stroke-dashoffset:0;stroke-opacity:1"
       d="M 22.650862,198.89014 H 115.03812"
       id="rect7827-6"
       inkscape:connector-curvature="0"
       sodipodi:nodetypes="cc" />
    <path
       inkscape:connector-curvature="0"
       id="path8893-7"
       title="((cos(x)-1.5*sqrt(1-(sin(x)*sin(x)/2.25)))/(cos(x)+1.5*sqrt(1-(sin(x)*sin(x)/2.25))))"
       d="m 23.227509,170.92286 c 0.373215,0 0.746427,5.8e-4 1.119642,0.002 0.373214,9.4e-4 0.746427,0.002 1.119641,0.006 0.373215,0.002 0.746427,0.006 1.119642,0.008 0.373214,0.004 0.746428,0.007 1.119641,0.0121 0.373214,0.005 0.746428,0.01 1.119643,0.0156 0.373213,0.006 0.746427,0.0121 1.119641,0.0191 0.373213,0.006 0.746427,0.0145 1.119642,0.0227 0.373213,0.008 0.746427,0.017 1.119641,0.0262 0.373214,0.01 0.746428,0.0192 1.119642,0.0299 0.373213,0.0108 0.746428,0.0218 1.119642,0.0335 0.373213,0.012 0.746427,0.0243 1.119642,0.0373 0.373212,0.0131 0.746427,0.0267 1.119641,0.0411 0.373214,0.0143 0.746427,0.0293 1.119641,0.045 0.373214,0.0156 0.746429,0.0319 1.119642,0.0489 0.373214,0.017 0.746428,0.0346 1.119641,0.0529 0.373214,0.0184 0.746429,0.0373 1.119641,0.057 0.373215,0.0197 0.746429,0.04 1.119643,0.0612 0.373213,0.021 0.746428,0.0429 1.119641,0.0655 0.373215,0.0226 0.746428,0.0458 1.119642,0.0699 0.373214,0.024 0.746429,0.0488 1.119642,0.0743 0.373214,0.0256 0.746428,0.0518 1.119642,0.079 0.373214,0.0271 0.746427,0.0551 1.119643,0.0838 0.373211,0.0287 0.746426,0.0583 1.119641,0.0886 0.373214,0.0304 0.746426,0.0617 1.11964,0.0937 0.373215,0.0321 0.74643,0.065 1.119641,0.099 0.373215,0.0339 0.746429,0.0687 1.119644,0.10424 0.373213,0.0357 0.746429,0.0722 1.119641,0.10988 0.373215,0.0375 0.746428,0.0761 1.119643,0.11566 0.373213,0.0396 0.746426,0.0799 1.119641,0.12155 0.373214,0.0415 0.746426,0.0842 1.119641,0.1277 0.373214,0.0436 0.746429,0.0882 1.11964,0.13409 0.373215,0.0458 0.74643,0.0927 1.119644,0.1407 0.373212,0.048 0.746426,0.0971 1.119641,0.14757 0.373214,0.0504 0.74643,0.10195 1.119643,0.1547 0.373212,0.0528 0.746426,0.10676 1.11964,0.16211 0.373215,0.0553 0.746428,0.11193 1.119642,0.1698 0.373214,0.058 0.746429,0.11722 1.119642,0.1778 0.373213,0.0606 0.746428,0.12267 1.119642,0.18614 0.373211,0.0635 0.746426,0.12838 1.119641,0.19479 0.373215,0.0665 0.746429,0.13433 1.119641,0.20383 0.373214,0.0695 0.746429,0.14053 1.119644,0.21321 0.373214,0.0726 0.746428,0.147 1.119639,0.223 0.373215,0.076 0.746429,0.15372 1.119645,0.2332 0.373211,0.0795 0.746425,0.16072 1.11964,0.24382 0.373215,0.0831 0.746427,0.16805 1.119641,0.25491 0.373215,0.0868 0.746429,0.17567 1.119641,0.26646 0.373215,0.0908 0.746429,0.1836 1.119644,0.2785 0.373211,0.0949 0.746426,0.19189 1.119641,0.29107 0.373213,0.0992 0.746428,0.20054 1.119643,0.30416 0.373212,0.10364 0.746425,0.20955 1.119641,0.31784 0.373214,0.10832 0.746425,0.21895 1.11964,0.33208 0.373214,0.11313 0.746429,0.22875 1.119641,0.34693 0.373214,0.11818 0.746429,0.23898 1.119644,0.36244 0.373212,0.12346 0.746426,0.24962 1.119639,0.37858 0.373216,0.12896 0.746422,0.26073 1.119639,0.39542 0.373216,0.13468 0.746433,0.27232 1.119649,0.41297 0.373216,0.14066 0.746422,0.28436 1.119638,0.43123 0.373218,0.14689 0.746434,0.29694 1.11964,0.45029 0.373216,0.15335 0.746432,0.31001 1.119639,0.4701 0.373217,0.16009 0.746433,0.32362 1.119649,0.49073 0.373207,0.1671 0.746423,0.33779 1.119639,0.51218 0.373216,0.17439 0.746424,0.35252 1.11964,0.53449 0.373216,0.18197 0.746432,0.36782 1.119639,0.55767 0.373216,0.18984 0.746433,0.38372 1.119649,0.58174 0.373207,0.19801 0.746423,0.40022 1.119639,0.60672 0.373216,0.20651 0.746424,0.41734 1.11964,0.63263 0.373216,0.2153 0.746432,0.43509 1.119638,0.65949 0.373217,0.22439 0.746433,0.45345 1.119649,0.68728 0.373207,0.23382 0.746425,0.47246 1.119635,0.71604 0.37322,0.24359 0.74643,0.49213 1.11964,0.74578 0.37322,0.25365 0.74644,0.51243 1.11964,0.77648 0.37322,0.26404 0.74644,0.53339 1.11965,0.80816 0.37321,0.27477 0.74643,0.55499 1.11964,0.8408 0.37322,0.2858 0.74642,0.57724 1.11964,0.87439 0.37322,0.29717 0.74643,0.60012 1.11964,0.90895 0.37322,0.30884 0.74643,0.6236 1.11965,0.94441 0.3732,0.32082 0.74642,0.64773 1.11964,0.98082 0.37321,0.33308 0.74642,0.67241 1.11964,1.01808 0.37321,0.34565 0.74643,0.69768 1.11964,1.05619 0.37321,0.3585 0.74643,0.72352 1.11965,1.09512 0.3732,0.37162 0.74642,0.74987 1.11963,1.13484 0.37322,0.38497 0.74643,0.77671 1.11964,1.17526"
       style="fill:none;fill-opacity:0.9921875;stroke:#0000d4;stroke-width:0.80000001;stroke-linecap:round;stroke-miterlimit:4;stroke-dasharray:none;stroke-dashoffset:0;stroke-opacity:1"
       sodipodi:nodetypes="cccccccccccccscccssscssssccccccscccccccccccccccssscsssscssssccccccccccsccccccccccsc" />
    <path
       inkscape:connector-curvature="0"
       id="path8847-2"
       title="((cos(x)-1.5*sqrt(1-(sin(x)*sin(x)/2.25)))/(cos(x)+1.5*sqrt(1-(sin(x)*sin(x)/2.25))))*((cos(x)-1.5*sqrt(1-(sin(x)*sin(x)/2.25)))/(cos(x)+1.5*sqrt(1-(sin(x)*sin(x)/2.25))))"
       d="m 139.32277,166.09946 c 0.37323,0 0.74643,3.2e-4 1.11965,9.6e-4 0.37321,9.5e-4 0.74643,0.002 1.11963,0.004 0.37323,0.002 0.74644,0.004 1.11965,0.006 0.37321,0.002 0.74643,0.006 1.11964,0.01 0.37322,0.004 0.74643,0.007 1.11964,0.0125 0.37322,0.005 0.74643,0.01 1.11964,0.0154 0.37322,0.006 0.74644,0.012 1.11965,0.0184 0.37321,0.006 0.74642,0.0137 1.11965,0.0213 0.37321,0.007 0.74642,0.0157 1.11963,0.0244 0.37321,0.008 0.74643,0.0178 1.11963,0.0275 0.37323,0.01 0.74644,0.0198 1.11966,0.0307 0.3732,0.0108 0.74642,0.0221 1.11964,0.034 0.37322,0.012 0.74642,0.0244 1.11964,0.0374 0.37321,0.013 0.74642,0.0266 1.11964,0.0409 0.37321,0.0142 0.74643,0.0291 1.11964,0.0445 0.37321,0.0154 0.74642,0.0315 1.11965,0.0483 0.37321,0.0167 0.74642,0.0341 1.11963,0.0523 0.37322,0.018 0.74644,0.0369 1.11965,0.0564 0.37321,0.0195 0.74642,0.0397 1.11964,0.0607 0.3732,0.0209 0.74643,0.0427 1.11964,0.0652 0.37322,0.0225 0.74643,0.0458 1.11964,0.07 0.37321,0.0242 0.74644,0.0492 1.11965,0.075 0.37321,0.0258 0.74642,0.0525 1.11963,0.0802 0.37323,0.0277 0.74642,0.0561 1.11965,0.0857 0.37321,0.0296 0.74643,0.06 1.11963,0.0916 0.37323,0.0315 0.74644,0.0641 1.11966,0.0977 0.3732,0.0337 0.74642,0.0684 1.11963,0.10424 0.37322,0.0358 0.74643,0.073 1.11964,0.11121 0.37322,0.0382 0.74643,0.0777 1.11964,0.11854 0.37323,0.0408 0.74644,0.083 1.11966,0.12628 0.37321,0.0435 0.74642,0.0883 1.11965,0.13458 0.37321,0.0463 0.74642,0.0941 1.11962,0.14337 0.37321,0.0493 0.74643,0.10027 1.11963,0.15276 0.37323,0.0527 0.74644,0.10677 1.11966,0.16276 0.3732,0.056 0.74642,0.11373 1.11963,0.17341 0.37323,0.0596 0.74643,0.12125 1.11965,0.18483 0.37321,0.0636 0.74644,0.12921 1.11965,0.19699 0.37321,0.0678 0.74643,0.13774 1.11964,0.21002 0.37321,0.0722 0.74641,0.14684 1.11965,0.22392 0.3732,0.0771 0.74643,0.15665 1.11962,0.23886 0.37322,0.0822 0.74643,0.16711 1.11965,0.25486 0.37321,0.0876 0.74642,0.17833 1.11964,0.27198 0.37321,0.0936 0.74642,0.19039 1.11964,0.29039 0.37322,0.10003 0.74643,0.20331 1.11965,0.31014 0.37322,0.10689 0.74644,0.2172 1.11965,0.33135 0.37321,0.11422 0.74642,0.23211 1.11962,0.35415 0.37324,0.12203 0.74644,0.24815 1.11965,0.37865 0.37321,0.13051 0.74643,0.26541 1.11963,0.40503 0.37322,0.13961 0.74644,0.28396 1.11966,0.43338 0.3732,0.14942 0.74642,0.30395 1.11963,0.46394 0.37321,0.15998 0.74644,0.32545 1.11965,0.4968 0.37322,0.17136 0.74643,0.34863 1.11965,0.53224 0.37321,0.18361 0.74643,0.3736 1.11964,0.57041 0.3732,0.19681 0.74641,0.4005 1.11963,0.61154 0.37322,0.21105 0.74643,0.42949 1.11964,0.65586 0.37322,0.22638 0.74643,0.46075 1.11964,0.70367 0.37322,0.24292 0.74643,0.49445 1.11965,0.75522 0.37321,0.26075 0.74642,0.53079 1.11965,0.81076 0.37321,0.27999 0.74642,0.56998 1.11964,0.87071 0.37321,0.30071 0.74644,0.61222 1.11965,0.93528 0.37321,0.32308 0.74641,0.65778 1.11962,1.00497 0.37324,0.34717 0.74642,0.70689 1.11965,1.08005 0.37321,0.37316 0.74643,0.75984 1.11963,1.161 0.37322,0.40118 0.74643,0.8169 1.11966,1.24825 0.37321,0.43134 0.74642,0.87838 1.11963,1.34223 0.37322,0.46384 0.74644,0.94461 1.11965,1.44345 0.37322,0.49884 0.74643,1.01591 1.11964,1.55244 0.3732,0.53653 0.74644,1.09265 1.11965,1.66971 0.3732,0.57707 0.74641,1.17521 1.11963,1.79589 0.37321,0.62065 0.74643,1.26398 1.11964,1.93149 0.37321,0.66751 0.74643,1.35938 1.11964,2.07721 0.37321,0.71783 0.74644,1.46181 1.11965,2.23366 0.37321,0.77185 0.74643,1.57175 1.11964,2.40153 0.37323,0.82979 0.74644,1.68963 1.11965,2.5815 0.37321,0.89186 0.74642,1.81592 1.11965,2.77425 0.37318,0.95834 0.74641,1.95113 1.11962,2.98057 0.37322,1.02944 0.74642,2.09573 1.11964,3.20117 0.37322,1.10541 0.74644,2.2502 1.11964,3.43675 0.37322,1.18652 0.74643,2.41508 1.11966,3.68812 0.37321,1.27304 0.74642,2.59085 1.11964,3.95602 0.37321,1.36518 0.74642,2.778 1.11964,4.24118 0.37322,1.46319 0.74643,2.97704 1.11964,4.54435 0.3732,1.56732 0.20342,0.71512 0.57664,2.39291"
       style="fill:none;fill-opacity:0.9921875;stroke:#0000d4;stroke-width:0.80000001;stroke-linecap:round;stroke-miterlimit:4;stroke-dasharray:none;stroke-dashoffset:0;stroke-opacity:1"
       sodipodi:nodetypes="ccssccssscscssssccssssscsscsccccccsscccccccssccsccsccccccccccccccccsccccsccccccccscc" />
    <g
       id="g1907">
      <text
         id="text9029"
         y="241.31143"
         x="136.86176"
         style="font-style:normal;font-weight:normal;font-size:12.72411346px;line-height:1.25;font-family:sans-serif;letter-spacing:0px;word-spacing:0px;fill:#000000;fill-opacity:1;stroke:none;stroke-width:0.26458332"
         xml:space="preserve"><tspan
           style="font-size:7.63446856px;stroke-width:0.26458332"
           y="241.31143"
           x="136.86176"
           id="tspan9027"
           sodipodi:role="line">$0$</tspan></text>
      <text
         id="text9029-5"
         y="241.31139"
         x="226.57353"
         style="font-style:normal;font-weight:normal;font-size:12.72411346px;line-height:1.25;font-family:sans-serif;letter-spacing:0px;word-spacing:0px;fill:#000000;fill-opacity:1;stroke:none;stroke-width:0.26458332"
         xml:space="preserve"><tspan
           style="font-size:7.63446856px;stroke-width:0.26458332"
           y="241.31139"
           x="226.57353"
           id="tspan9027-3"
           sodipodi:role="line">$90^\circ$</tspan></text>
      <text
         id="text9029-56"
         y="241.31139"
         x="19.730783"
         style="font-style:normal;font-weight:normal;font-size:12.72411346px;line-height:1.25;font-family:sans-serif;letter-spacing:0px;word-spacing:0px;fill:#000000;fill-opacity:1;stroke:none;stroke-width:0.26458332"
         xml:space="preserve"><tspan
           style="font-size:7.63446856px;stroke-width:0.26458332"
           y="241.31139"
           x="19.730783"
           id="tspan9027-2"
           sodipodi:role="line">$0$</tspan></text>
      <text
         id="text9029-5-9"
         y="241.31139"
         x="109.44386"
         style="font-style:normal;font-weight:normal;font-size:12.72411346px;line-height:1.25;font-family:sans-serif;letter-spacing:0px;word-spacing:0px;fill:#000000;fill-opacity:1;stroke:none;stroke-width:0.26458332"
         xml:space="preserve"><tspan
           style="font-size:7.63446856px;stroke-width:0.26458332"
           y="241.31139"
           x="109.44386"
           id="tspan9027-3-1"
           sodipodi:role="line">$90^\circ$</tspan></text>
      <text
         id="text9029-56-2"
         y="234.33894"
         x="12.899511"
         style="font-style:normal;font-weight:normal;font-size:12.72411346px;line-height:1.25;font-family:sans-serif;letter-spacing:0px;word-spacing:0px;fill:#000000;fill-opacity:1;stroke:none;stroke-width:0.26458332"
         xml:space="preserve"><tspan
           style="font-size:7.63446856px;stroke-width:0.26458332"
           y="234.33894"
           x="12.899511"
           id="tspan9027-2-7"
           sodipodi:role="line">$-1$</tspan></text>
      <text
         id="text9029-56-2-0"
         y="234.33894"
         x="134.64981"
         style="font-style:normal;font-weight:normal;font-size:12.72411346px;line-height:1.25;font-family:sans-serif;letter-spacing:0px;word-spacing:0px;fill:#000000;fill-opacity:1;stroke:none;stroke-width:0.26458332"
         xml:space="preserve"><tspan
           style="font-size:7.63446856px;stroke-width:0.26458332"
           y="234.33894"
           x="134.64981"
           id="tspan9027-2-7-9"
           sodipodi:role="line">$0$</tspan></text>
      <text
         id="text9029-56-2-3"
         y="200.9832"
         x="17.989155"
         style="font-style:normal;font-weight:normal;font-size:12.72411346px;line-height:1.25;font-family:sans-serif;letter-spacing:0px;word-spacing:0px;fill:#000000;fill-opacity:1;stroke:none;stroke-width:0.26458332"
         xml:space="preserve"><tspan
           style="font-size:7.63446856px;stroke-width:0.26458332"
           y="200.9832"
           x="17.989155"
           id="tspan9027-2-7-6"
           sodipodi:role="line">$0$</tspan></text>
      <text
         id="text9029-56-2-3-0"
         y="165.80908"
         x="17.989155"
         style="font-style:normal;font-weight:normal;font-size:12.72411346px;line-height:1.25;font-family:sans-serif;letter-spacing:0px;word-spacing:0px;fill:#000000;fill-opacity:1;stroke:none;stroke-width:0.26458332"
         xml:space="preserve"><tspan
           style="font-size:7.63446856px;stroke-width:0.26458332"
           y="165.80908"
           x="17.989155"
           id="tspan9027-2-7-6-6"
           sodipodi:role="line">$1$</tspan></text>
      <text
         id="text9029-56-2-3-0-2"
         y="165.80908"
         x="134.46114"
         style="font-style:normal;font-weight:normal;font-size:12.72411346px;line-height:1.25;font-family:sans-serif;letter-spacing:0px;word-spacing:0px;fill:#000000;fill-opacity:1;stroke:none;stroke-width:0.26458332"
         xml:space="preserve"><tspan
           style="font-size:7.63446856px;stroke-width:0.26458332"
           y="165.80908"
           x="134.46114"
           id="tspan9027-2-7-6-6-6"
           sodipodi:role="line">$1$</tspan></text>
      <text
         id="text9029-56-2-3-0-1"
         y="177.01831"
         x="85.643478"
         style="font-style:normal;font-weight:normal;font-size:12.72411346px;line-height:1.25;font-family:sans-serif;letter-spacing:0px;word-spacing:0px;fill:#000000;fill-opacity:1;stroke:none;stroke-width:0.26458332"
         xml:space="preserve"><tspan
           style="font-size:7.63446856px;stroke-width:0.26458332"
           y="177.01831"
           x="85.643478"
           id="tspan9027-2-7-6-6-8"
           sodipodi:role="line">$t_\mathrm{TE}$</tspan></text>
      <text
         id="text9029-56-2-3-0-1-7"
         y="212.36909"
         x="83.82917"
         style="font-style:normal;font-weight:normal;font-size:12.72411346px;line-height:1.25;font-family:sans-serif;letter-spacing:0px;word-spacing:0px;fill:#000000;fill-opacity:1;stroke:none;stroke-width:0.26458332"
         xml:space="preserve"><tspan
           style="font-size:7.63446856px;stroke-width:0.26458332"
           y="212.36909"
           x="83.82917"
           id="tspan9027-2-7-6-6-8-9"
           sodipodi:role="line">$r_\mathrm{TE}$</tspan></text>
      <text
         id="text9029-56-2-3-0-1-7-2"
         y="227.93077"
         x="153.40202"
         style="font-style:normal;font-weight:normal;font-size:12.72411346px;line-height:1.25;font-family:sans-serif;letter-spacing:0px;word-spacing:0px;fill:#000000;fill-opacity:1;stroke:none;stroke-width:0.26458332"
         xml:space="preserve"><tspan
           style="font-size:7.63446856px;stroke-width:0.26458332"
           y="227.93077"
           x="153.40202"
           id="tspan9027-2-7-6-6-8-9-0"
           sodipodi:role="line">$\mathcal{R}_\mathrm{TE}$</tspan></text>
      <text
         id="text9029-56-2-3-0-1-7-2-3"
         y="175.23862"
         x="161.58209"
         style="font-style:normal;font-weight:normal;font-size:12.72411346px;line-height:1.25;font-family:sans-serif;letter-spacing:0px;word-spacing:0px;fill:#000000;fill-opacity:1;stroke:none;stroke-width:0.26458332"
         xml:space="preserve"><tspan
           style="font-size:7.63446856px;stroke-width:0.26458332"
           y="175.23862"
           x="161.58209"
           id="tspan9027-2-7-6-6-8-9-0-7"
           sodipodi:role="line">$\mathcal{T}_\mathrm{TE}$</tspan></text>
      <text
         id="text9029-56-2-3-0-8"
         y="165.58066"
         x="9.0176153"
         style="font-style:normal;font-weight:normal;font-size:12.60410881px;line-height:1.25;font-family:sans-serif;letter-spacing:0px;word-spacing:0px;fill:#000000;fill-opacity:1;stroke:none;stroke-width:0.26458338"
         xml:space="preserve"><tspan
           style="font-size:7.56246567px;stroke-width:0.26458338"
           y="165.58066"
           x="9.0176153"
           id="tspan9027-2-7-6-6-9"
           sodipodi:role="line">a)</tspan></text>
      <text
         id="text9029-56-2-3-0-2-7"
         y="165.8688"
         x="124.76204"
         style="font-style:normal;font-weight:normal;font-size:12.60410881px;line-height:1.25;font-family:sans-serif;letter-spacing:0px;word-spacing:0px;fill:#000000;fill-opacity:1;stroke:none;stroke-width:0.26458338"
         xml:space="preserve"><tspan
           style="font-size:7.56246567px;stroke-width:0.26458338"
           y="165.8688"
           x="124.76204"
           id="tspan9027-2-7-6-6-6-3"
           sodipodi:role="line">b)</tspan></text>
    </g>
  </g>
</svg>
