<?xml version="1.0" encoding="UTF-8" standalone="no"?>
<svg
   xmlns:dc="http://purl.org/dc/elements/1.1/"
   xmlns:cc="http://creativecommons.org/ns#"
   xmlns:rdf="http://www.w3.org/1999/02/22-rdf-syntax-ns#"
   xmlns:svg="http://www.w3.org/2000/svg"
   xmlns="http://www.w3.org/2000/svg"
   xmlns:sodipodi="http://sodipodi.sourceforge.net/DTD/sodipodi-0.dtd"
   xmlns:inkscape="http://www.inkscape.org/namespaces/inkscape"
   width="1261.8325"
   height="396"
   viewBox="0 0 5047.3301 1584"
   version="1.1"
   id="svg115"
   sodipodi:docname="05_FresC.svg"
   inkscape:version="0.92.5 (2060ec1f9f, 2020-04-08)">
  <metadata
     id="metadata119">
    <rdf:RDF>
      <cc:Work
         rdf:about="">
        <dc:format>image/svg+xml</dc:format>
        <dc:type
           rdf:resource="http://purl.org/dc/dcmitype/StillImage" />
        <dc:title></dc:title>
      </cc:Work>
    </rdf:RDF>
  </metadata>
  <sodipodi:namedview
     pagecolor="#ffffff"
     bordercolor="#666666"
     borderopacity="1"
     objecttolerance="10"
     gridtolerance="10"
     guidetolerance="10"
     inkscape:pageopacity="0"
     inkscape:pageshadow="2"
     inkscape:window-width="1789"
     inkscape:window-height="894"
     id="namedview117"
     showgrid="false"
     inkscape:zoom="0.87722822"
     inkscape:cx="675.86255"
     inkscape:cy="197.33738"
     inkscape:window-x="116"
     inkscape:window-y="94"
     inkscape:window-maximized="0"
     inkscape:current-layer="svg115"
     inkscape:snap-global="true"
     fit-margin-top="0"
     fit-margin-left="0"
     fit-margin-right="0"
     fit-margin-bottom="0" />
  <defs
     id="defs5">
    <clipPath
       id="clip300">
      <rect
         x="0"
         y="0"
         width="2400"
         height="1600"
         id="rect2" />
    </clipPath>
    <clipPath
       id="clip300-2">
      <rect
         x="0"
         y="0"
         width="2400"
         height="1600"
         id="rect2-0" />
    </clipPath>
    <clipPath
       id="clipPath2261">
      <rect
         x="0"
         y="0"
         width="2400"
         height="1600"
         id="rect2259" />
    </clipPath>
    <clipPath
       id="clipPath2265">
      <rect
         x="0"
         y="0"
         width="2400"
         height="1600"
         id="rect2263" />
    </clipPath>
    <clipPath
       id="clip302-2">
      <rect
         x="179"
         y="47"
         width="2174"
         height="1440"
         id="rect16-2" />
    </clipPath>
    <clipPath
       id="clip300-8">
      <rect
         x="0"
         y="0"
         width="2400"
         height="1600"
         id="rect2-9" />
    </clipPath>
    <clipPath
       id="clipPath2813">
      <rect
         x="0"
         y="0"
         width="2400"
         height="1600"
         id="rect2811" />
    </clipPath>
    <clipPath
       id="clipPath2817">
      <rect
         x="0"
         y="0"
         width="2400"
         height="1600"
         id="rect2815" />
    </clipPath>
    <clipPath
       id="clipPath2821">
      <rect
         x="0"
         y="0"
         width="2400"
         height="1600"
         id="rect2819" />
    </clipPath>
    <clipPath
       id="clipPath2825">
      <rect
         x="0"
         y="0"
         width="2400"
         height="1600"
         id="rect2823" />
    </clipPath>
    <clipPath
       id="clipPath2829">
      <rect
         x="179"
         y="47"
         width="2174"
         height="1440"
         id="rect2827" />
    </clipPath>
    <clipPath
       id="clipPath2833">
      <rect
         x="179"
         y="47"
         width="2174"
         height="1440"
         id="rect2831" />
    </clipPath>
    <clipPath
       id="clipPath2837">
      <rect
         x="179"
         y="47"
         width="2174"
         height="1440"
         id="rect2835" />
    </clipPath>
    <clipPath
       id="clipPath2841">
      <rect
         x="179"
         y="47"
         width="2174"
         height="1440"
         id="rect2839" />
    </clipPath>
    <clipPath
       id="clipPath2845">
      <rect
         x="179"
         y="47"
         width="2174"
         height="1440"
         id="rect2843" />
    </clipPath>
    <clipPath
       id="clipPath2849">
      <rect
         x="0"
         y="0"
         width="2400"
         height="1600"
         id="rect2847" />
    </clipPath>
    <clipPath
       id="clipPath2853">
      <rect
         x="0"
         y="0"
         width="2400"
         height="1600"
         id="rect2851" />
    </clipPath>
    <clipPath
       id="clip300-2-7">
      <rect
         x="0"
         y="0"
         width="2400"
         height="1600"
         id="rect2-0-3" />
    </clipPath>
    <clipPath
       id="clipPath2859">
      <rect
         x="0"
         y="0"
         width="2400"
         height="1600"
         id="rect2857" />
    </clipPath>
    <clipPath
       id="clipPath2863">
      <rect
         x="0"
         y="0"
         width="2400"
         height="1600"
         id="rect2861" />
    </clipPath>
    <clipPath
       id="clip332">
      <rect
         x="179"
         y="47"
         width="2174"
         height="1440"
         id="rect16-5" />
    </clipPath>
  </defs>
  <defs
     id="defs12">
    <clipPath
       id="clip301">
      <rect
         x="480"
         y="0"
         width="1681"
         height="1600"
         id="rect9" />
    </clipPath>
  </defs>
  <defs
     id="defs19">
    <clipPath
       id="clip302">
      <rect
         x="179"
         y="47"
         width="2174"
         height="1440"
         id="rect16" />
    </clipPath>
  </defs>
  <g
     id="g4642">
    <polyline
       transform="matrix(0.99977917,0,0,0.94307638,134.79993,43.651715)"
       id="polyline25"
       points="   1266.2,1486.45 1266.2,47.2441    "
       style="fill:none;stroke:#808080;stroke-width:4.11940527;stroke-miterlimit:4;stroke-dasharray:none;stroke-opacity:1"
       clip-path="url(#clip302)" />
    <polyline
       transform="matrix(1,0,0,2.3886131,134.52033,-2098.5751)"
       id="polyline33"
       points="   497.419,1486.45 497.419,1469.18    "
       style="fill:none;stroke:#000000;stroke-width:10.35254383;stroke-miterlimit:4;stroke-dasharray:none;stroke-opacity:1"
       clip-path="url(#clip300)" />
    <polyline
       transform="matrix(1,0,0,2.3886131,134.52033,-2098.5751)"
       id="polyline35"
       points="   881.812,1486.45 881.812,1469.18    "
       style="fill:none;stroke:#000000;stroke-width:10.35254383;stroke-miterlimit:4;stroke-dasharray:none;stroke-opacity:1"
       clip-path="url(#clip300)" />
    <polyline
       transform="matrix(1,0,0,2.3886131,134.52033,-2098.5751)"
       id="polyline37"
       points="   1266.2,1486.45 1266.2,1469.18    "
       style="fill:none;stroke:#000000;stroke-width:10.35254383;stroke-miterlimit:4;stroke-dasharray:none;stroke-opacity:1"
       clip-path="url(#clip300)" />
    <polyline
       transform="matrix(1,0,0,2.3886131,134.52033,-2098.5751)"
       id="polyline39"
       points="   1650.6,1486.45 1650.6,1469.18    "
       style="fill:none;stroke:#000000;stroke-width:10.35254383;stroke-miterlimit:4;stroke-dasharray:none;stroke-opacity:1"
       clip-path="url(#clip300)" />
    <polyline
       transform="matrix(1,0,0,2.3886131,134.52033,-2098.5751)"
       id="polyline41"
       points="   2034.99,1486.45 2034.99,1469.18    "
       style="fill:none;stroke:#000000;stroke-width:10.35254383;stroke-miterlimit:4;stroke-dasharray:none;stroke-opacity:1"
       clip-path="url(#clip300)" />
    <polyline
       transform="translate(134.52033,4.9515027e-6)"
       id="polyline57"
       points="   179.654,1445.72 2352.76,1445.72    "
       style="fill:none;stroke:#000000;stroke-width:2;stroke-opacity:0.1"
       clip-path="url(#clip302)" />
    <polyline
       transform="translate(134.52033,4.9515027e-6)"
       id="polyline59"
       points="   179.654,1106.28 2352.76,1106.28    "
       style="fill:none;stroke:#808080;stroke-width:4;stroke-miterlimit:4;stroke-dasharray:none;stroke-opacity:1"
       clip-path="url(#clip302)" />
    <polyline
       transform="translate(134.52033,4.9515027e-6)"
       id="polyline61"
       points="   179.654,766.846 2352.76,766.846    "
       style="fill:none;stroke:#808080;stroke-width:4;stroke-miterlimit:4;stroke-dasharray:none;stroke-opacity:1"
       clip-path="url(#clip302)" />
    <polyline
       transform="translate(134.52033,4.9515027e-6)"
       id="polyline63"
       points="   179.654,427.411 2352.76,427.411    "
       style="fill:none;stroke:#808080;stroke-width:4;stroke-miterlimit:4;stroke-dasharray:none;stroke-opacity:1"
       clip-path="url(#clip302)" />
    <polyline
       transform="translate(134.52033,4.9515027e-6)"
       id="polyline65"
       points="   179.654,87.9763 2352.76,87.9763    "
       style="fill:none;stroke:#000000;stroke-width:2;stroke-opacity:0.1"
       clip-path="url(#clip302)" />
    <polyline
       transform="translate(134.52033,4.9515027e-6)"
       id="polyline113"
       points="   241.157,1106.15 243.209,1095.56 245.261,1086.67 247.313,1080.87 249.365,1079.07 251.417,1081.56 253.469,1087.93 255.522,1097.18 257.574,1107.87 259.626,1118.34    261.678,1126.96 263.73,1132.42 265.782,1133.9 267.834,1131.16 269.887,1124.64 271.939,1115.32 273.991,1104.62 276.043,1094.15 278.095,1085.47 280.147,1079.87    282.2,1078.17 284.252,1080.62 286.304,1086.84 288.356,1095.93 290.408,1106.54 292.46,1117.14 294.512,1126.2 296.565,1132.4 298.617,1134.88 300.669,1133.27    302.721,1127.82 304.773,1119.31 306.825,1108.94 308.877,1098.18 310.93,1088.52 312.982,1081.32 315.034,1077.56 317.086,1077.75 319.138,1081.87 321.19,1089.34    323.243,1099.14 325.295,1109.93 327.347,1120.24 329.399,1128.71 331.451,1134.19 333.503,1135.95 335.555,1133.79 337.608,1127.97 339.66,1119.29 341.712,1108.89    343.764,1098.11 345.816,1088.38 347.868,1080.94 349.92,1076.74 351.973,1076.33 354.025,1079.73 356.077,1086.52 358.129,1095.83 360.181,1106.47 362.233,1117.12    364.285,1126.44 366.338,1133.27 368.39,1136.78 370.442,1136.54 372.494,1132.59 374.546,1125.42 376.598,1115.91 378.651,1105.21 380.703,1094.61 382.755,1085.38    384.807,1078.63 386.859,1075.14 388.911,1075.33 390.963,1079.16 393.016,1086.17 395.068,1095.55 397.12,1106.19 399.172,1116.87 401.224,1126.36 403.276,1133.58    405.328,1137.7 407.381,1138.27 409.433,1135.24 411.485,1128.94 413.537,1120.1 415.589,1109.7 417.641,1098.89 419.693,1088.87 421.746,1080.74 423.798,1075.37    425.85,1073.34 427.902,1074.87 429.954,1079.78 432.006,1087.54 434.059,1097.32 436.111,1108.07 438.163,1118.66 440.215,1127.98 442.267,1135.05 444.319,1139.16    446.371,1139.87 448.424,1137.13 450.476,1131.22 452.528,1122.76 454.58,1112.61 456.632,1101.79 458.684,1091.39 460.736,1082.45 462.789,1075.86 464.841,1072.25    466.893,1071.99 468.945,1075.08 470.997,1081.21 473.049,1089.8 475.102,1099.99 477.154,1110.81 479.206,1121.23 481.258,1130.26 483.31,1137.05 485.362,1140.97    487.414,1141.66 489.467,1139.06 491.519,1133.42 493.571,1125.27 495.623,1115.37 497.675,1104.6 499.727,1093.96 501.779,1084.4 503.832,1076.78 505.884,1071.76    507.936,1069.79 509.988,1071.02 512.04,1075.36 514.092,1082.4 516.144,1091.53 518.197,1101.97 520.249,1112.8 522.301,1123.1 524.353,1132.01 526.405,1138.77    528.457,1142.82 530.51,1143.84 532.562,1141.74 534.614,1136.7 536.666,1129.15 538.718,1119.72 540.77,1109.16 542.822,1098.34 544.875,1088.13 546.927,1079.34    548.979,1072.66 551.031,1068.61 553.083,1067.51 555.135,1069.43 557.187,1074.22 559.24,1081.5 561.292,1090.7 563.344,1101.11 565.396,1111.95 567.448,1122.39    569.5,1131.66 571.552,1139.06 573.605,1144.06 575.657,1146.29 577.709,1145.6 579.761,1142.04 581.813,1135.89 583.865,1127.58 585.918,1117.73 587.97,1107.03    590.022,1096.25 592.074,1086.14 594.126,1077.4 596.178,1070.64 598.23,1066.32 600.283,1064.72 602.335,1065.95 604.387,1069.91 606.439,1076.33 608.491,1084.78    610.543,1094.68 612.595,1105.39 614.648,1116.18 616.7,1126.36 618.752,1135.28 620.804,1142.35 622.856,1147.14 624.908,1149.34 626.96,1148.83 629.013,1145.65    631.065,1140 633.117,1132.23 635.169,1122.84 637.221,1112.41 639.273,1101.57 641.326,1090.98 643.378,1081.27 645.43,1073.02 647.482,1066.71 649.534,1062.72    651.586,1061.25 653.638,1062.4 655.691,1066.08 657.743,1072.09 659.795,1080.06 661.847,1089.54 663.899,1099.99 665.951,1110.83 668.003,1121.46 670.056,1131.29    672.108,1139.78 674.16,1146.49 676.212,1151.05 678.264,1153.23 680.316,1152.92 682.369,1150.14 684.421,1145.05 686.473,1137.93 688.525,1129.14 690.577,1119.15    692.629,1108.46 694.681,1097.62 696.734,1087.18 698.786,1077.66 700.838,1069.52 702.89,1063.16 704.942,1058.88 706.994,1056.89 709.046,1057.26 711.099,1059.99    713.151,1064.92 715.203,1071.81 717.255,1080.35 719.307,1090.12 721.359,1100.67 723.411,1111.52 725.464,1122.17 727.516,1132.15 729.568,1141.01 731.62,1148.37    733.672,1153.89 735.724,1157.36 737.777,1158.63 739.829,1157.65 741.881,1154.47 743.933,1149.24 745.985,1142.18 748.037,1133.6 750.089,1123.85 752.142,1113.34    754.194,1102.5 756.246,1091.76 758.298,1081.57 760.35,1072.32 762.402,1064.37 764.454,1058.03 766.507,1053.53 768.559,1051.05 770.611,1050.67 772.663,1052.39    774.715,1056.15 776.767,1061.79 778.819,1069.09 780.872,1077.79 782.924,1087.57 784.976,1098.06 787.028,1108.89 789.08,1119.67 791.132,1130.03 793.185,1139.61    795.237,1148.07 797.289,1155.15 799.341,1160.6 801.393,1164.24 803.445,1165.97 805.497,1165.73 807.55,1163.54 809.602,1159.48 811.654,1153.69 813.706,1146.36    815.758,1137.73 817.81,1128.08 819.862,1117.7 821.915,1106.93 823.967,1096.08 826.019,1085.49 828.071,1075.48 830.123,1066.33 832.175,1058.31 834.228,1051.65    836.28,1046.54 838.332,1043.11 840.384,1041.44 842.436,1041.59 844.488,1043.54 846.54,1047.22 848.593,1052.52 850.645,1059.3 852.697,1067.37 854.749,1076.51    856.801,1086.48 858.853,1097 860.905,1107.82 862.958,1118.66 865.01,1129.24 867.062,1139.3 869.114,1148.59 871.166,1156.91 873.218,1164.04 875.27,1169.83    877.323,1174.15 879.375,1176.89 881.427,1178.02 883.479,1177.51 885.531,1175.38 887.583,1171.69 889.636,1166.52 891.688,1160.01 893.74,1152.28 895.792,1143.53    897.844,1133.94 899.896,1123.71 901.948,1113.07 904.001,1102.22 906.053,1091.4 908.105,1080.81 910.157,1070.67 912.209,1061.17 914.261,1052.5 916.313,1044.81    918.366,1038.24 920.418,1032.91 922.47,1028.92 924.522,1026.32 926.574,1025.15 928.626,1025.43 930.678,1027.14 932.731,1030.25 934.783,1034.69 936.835,1040.38    938.887,1047.22 940.939,1055.08 942.991,1063.84 945.044,1073.33 947.096,1083.42 949.148,1093.93 951.2,1104.71 953.252,1115.57 955.304,1126.37 957.356,1136.93    959.409,1147.1 961.461,1156.74 963.513,1165.72 965.565,1173.9 967.617,1181.19 969.669,1187.48 971.721,1192.7 973.774,1196.79 975.826,1199.69 977.878,1201.39    979.93,1201.86 981.982,1201.11 984.034,1199.16 986.087,1196.04 988.139,1191.79 990.191,1186.48 992.243,1180.18 994.295,1172.96 996.347,1164.92 998.399,1156.14    1000.45,1146.75 1002.5,1136.83 1004.56,1126.51 1006.61,1115.9 1008.66,1105.1 1010.71,1094.23 1012.76,1083.4 1014.82,1072.73 1016.87,1062.3 1018.92,1052.22    1020.97,1042.59 1023.03,1033.48 1025.08,1024.98 1027.13,1017.16 1029.18,1010.08 1031.23,1003.79 1033.29,998.352 1035.34,993.795 1037.39,990.15 1039.44,987.439    1041.49,985.674 1043.55,984.861 1045.6,984.998 1047.65,986.075 1049.7,988.074 1051.76,990.974 1053.81,994.745 1055.86,999.352 1057.91,1004.76 1059.96,1010.91    1062.02,1017.77 1064.07,1025.29 1066.12,1033.4 1068.17,1042.06 1070.22,1051.2 1072.28,1060.76 1074.33,1070.69 1076.38,1080.93 1078.43,1091.41 1080.49,1102.07    1082.54,1112.86 1084.59,1123.72 1086.64,1134.59 1088.69,1145.41 1090.75,1156.14 1092.8,1166.72 1094.85,1177.12 1096.9,1187.27 1098.95,1197.14 1101.01,1206.69    1103.06,1215.88 1105.11,1224.69 1107.16,1233.07 1109.22,1241 1111.27,1248.47 1113.32,1255.43 1115.37,1261.89 1117.42,1267.81 1119.48,1273.2 1121.53,1278.03    1123.58,1282.3 1125.63,1286 1127.68,1289.13 1129.74,1291.7 1131.79,1293.69 1133.84,1295.12 1135.89,1295.98 1137.95,1296.29 1140,1296.05 1142.05,1295.28    1144.1,1293.97 1146.15,1292.15 1148.21,1289.83 1150.26,1287.02 1152.31,1283.73 1154.36,1279.98 1156.41,1275.79 1158.47,1271.17 1160.52,1266.14 1162.57,1260.71    1164.62,1254.9 1166.68,1248.74 1168.73,1242.22 1170.78,1235.38 1172.83,1228.23 1174.88,1220.78 1176.94,1213.05 1178.99,1205.06 1181.04,1196.82 1183.09,1188.34    1185.14,1179.65 1187.2,1170.76 1189.25,1161.68 1191.3,1152.42 1193.35,1143 1195.41,1133.42 1197.46,1123.71 1199.51,1113.86 1201.56,1103.9 1203.61,1093.84    1205.67,1083.67 1207.72,1073.42 1209.77,1063.08 1211.82,1052.68 1213.87,1042.2 1215.93,1031.68 1217.98,1021.09 1220.03,1010.47 1222.08,999.801 1224.14,989.1    1226.19,978.368 1228.24,967.61 1230.29,956.83 1232.34,946.031 1234.4,935.216 1236.45,924.388 1238.5,913.549 1240.55,902.702 1242.61,891.848 1244.66,880.988    1246.71,870.124 1248.76,859.257 1250.81,848.388 1252.87,837.517 1254.92,826.645 1256.97,815.773 1259.02,804.901 1261.07,794.028 1263.13,783.155 1265.18,772.282    1267.23,761.41 1269.28,750.537 1271.34,739.664 1273.39,728.791 1275.44,717.919 1277.49,707.047 1279.54,696.175 1281.6,685.304 1283.65,674.435 1285.7,663.568    1287.75,652.704 1289.8,641.844 1291.86,630.99 1293.91,620.142 1295.96,609.304 1298.01,598.476 1300.07,587.661 1302.12,576.862 1304.17,566.082 1306.22,555.324    1308.27,544.592 1310.33,533.891 1312.38,523.224 1314.43,512.598 1316.48,502.017 1318.53,491.487 1320.59,481.015 1322.64,470.609 1324.69,460.274 1326.74,450.02    1328.8,439.855 1330.85,429.787 1332.9,419.827 1334.95,409.985 1337,400.271 1339.06,390.697 1341.11,381.273 1343.16,372.014 1345.21,362.931 1347.26,354.037    1349.32,345.347 1351.37,336.875 1353.42,328.636 1355.47,320.644 1357.53,312.916 1359.58,305.466 1361.63,298.312 1363.68,291.47 1365.73,284.956 1367.79,278.788    1369.84,272.981 1371.89,267.553 1373.94,262.521 1375.99,257.9 1378.05,253.709 1380.1,249.961 1382.15,246.674 1384.2,243.862 1386.26,241.539 1388.31,239.719    1390.36,238.415 1392.41,237.639 1394.46,237.401 1396.52,237.71 1398.57,238.575 1400.62,240.002 1402.67,241.995 1404.72,244.558 1406.78,247.692 1408.83,251.395    1410.88,255.664 1412.93,260.495 1414.99,265.878 1417.04,271.803 1419.09,278.257 1421.14,285.225 1423.19,292.687 1425.25,300.622 1427.3,309.005 1429.35,317.809    1431.4,327.004 1433.45,336.554 1435.51,346.425 1437.56,356.577 1439.61,366.967 1441.66,377.55 1443.72,388.28 1445.77,399.104 1447.82,409.972 1449.87,420.829    1451.92,431.619 1453.98,442.283 1456.03,452.763 1458.08,462.998 1460.13,472.929 1462.18,482.495 1464.24,491.636 1466.29,500.292 1468.34,508.405 1470.39,515.919    1472.45,522.78 1474.5,528.936 1476.55,534.34 1478.6,538.947 1480.65,542.718 1482.71,545.618 1484.76,547.617 1486.81,548.694 1488.86,548.831 1490.92,548.018    1492.97,546.253 1495.02,543.542 1497.07,539.897 1499.12,535.339 1501.18,529.9 1503.23,523.617 1505.28,516.537 1507.33,508.715 1509.38,500.214 1511.44,491.107    1513.49,481.471 1515.54,471.394 1517.59,460.967 1519.65,450.288 1521.7,439.462 1523.75,428.595 1525.8,417.797 1527.85,407.18 1529.91,396.859 1531.96,386.944    1534.01,377.548 1536.06,368.776 1538.11,360.732 1540.17,353.513 1542.22,347.208 1544.27,341.897 1546.32,337.652 1548.38,334.53 1550.43,332.578 1552.48,331.83    1554.53,332.302 1556.58,333.998 1558.64,336.904 1560.69,340.99 1562.74,346.212 1564.79,352.505 1566.84,359.791 1568.9,367.975 1570.95,376.95 1573,386.592    1575.05,396.766 1577.11,407.327 1579.16,418.121 1581.21,428.986 1583.26,439.759 1585.31,450.271 1587.37,460.358 1589.42,469.856 1591.47,478.61 1593.52,486.473    1595.57,493.31 1597.63,499 1599.68,503.441 1601.73,506.549 1603.78,508.262 1605.84,508.543 1607.89,507.376 1609.94,504.775 1611.99,500.778 1614.04,495.45    1616.1,488.883 1618.15,481.192 1620.2,472.518 1622.25,463.021 1624.3,452.881 1626.36,442.295 1628.41,431.471 1630.46,420.625 1632.51,409.978 1634.57,399.751    1636.62,390.159 1638.67,381.407 1640.72,373.687 1642.77,367.169 1644.83,362.004 1646.88,358.311 1648.93,356.181 1650.98,355.669 1653.03,356.797 1655.09,359.546    1657.14,363.862 1659.19,369.652 1661.24,376.785 1663.3,385.098 1665.35,394.396 1667.4,404.456 1669.45,415.034 1671.5,425.868 1673.56,436.687 1675.61,447.215    1677.66,457.179 1679.71,466.318 1681.76,474.388 1683.82,481.17 1685.87,486.475 1687.92,490.155 1689.97,492.099 1692.03,492.247 1694.08,490.585 1696.13,487.152    1698.18,482.037 1700.23,475.378 1702.29,467.361 1704.34,458.212 1706.39,448.197 1708.44,437.61 1710.49,426.765 1712.55,415.989 1714.6,405.613 1716.65,395.958    1718.7,387.329 1720.76,380 1722.81,374.211 1724.86,370.153 1726.91,367.964 1728.96,367.725 1731.02,369.452 1733.07,373.095 1735.12,378.543 1737.17,385.617    1739.23,394.086 1741.28,403.663 1743.33,414.023 1745.38,424.806 1747.43,435.635 1749.49,446.125 1751.54,455.898 1753.59,464.6 1755.64,471.907 1757.69,477.546    1759.75,481.301 1761.8,483.023 1763.85,482.641 1765.9,480.159 1767.96,475.665 1770.01,469.323 1772.06,461.373 1774.11,452.121 1776.16,441.928 1778.22,431.197    1780.27,420.356 1782.32,409.845 1784.37,400.095 1786.42,391.51 1788.48,384.45 1790.53,379.218 1792.58,376.04 1794.63,375.06 1796.69,376.328 1798.74,379.798    1800.79,385.327 1802.84,392.68 1804.89,401.54 1806.95,411.519 1809,422.172 1811.05,433.022 1813.1,443.575 1815.15,453.345 1817.21,461.88 1819.26,468.777    1821.31,473.706 1823.36,476.428 1825.42,476.806 1827.47,474.812 1829.52,470.534 1831.57,464.173 1833.62,456.032 1835.68,446.508 1837.73,436.068 1839.78,425.232    1841.83,414.546 1843.88,404.552 1845.94,395.764 1847.99,388.639 1850.04,383.552 1852.09,380.776 1854.15,380.465 1856.2,382.644 1858.25,387.204 1860.3,393.91    1862.35,402.405 1864.41,412.234 1866.46,422.861 1868.51,433.702 1870.56,444.156 1872.61,453.636 1874.67,461.606 1876.72,467.607 1878.77,471.291 1880.82,472.439    1882.88,470.975 1884.93,466.977 1886.98,460.671 1889.03,452.421 1891.08,442.713 1893.14,432.121 1895.19,421.28 1897.24,410.847 1899.29,401.46 1901.34,393.697    1903.4,388.044 1905.45,384.858 1907.5,384.347 1909.55,386.552 1911.61,391.34 1913.66,398.415 1915.71,407.329 1917.76,417.512 1919.81,428.306 1921.87,439.008    1923.92,448.911 1925.97,457.358 1928.02,463.782 1930.07,467.746 1932.13,468.975 1934.18,467.376 1936.23,463.052 1938.28,456.292 1940.34,447.554 1942.39,437.442    1944.44,426.659 1946.49,415.962 1948.54,406.11 1950.6,397.806 1952.65,391.651 1954.7,388.094 1956.75,387.401 1958.8,389.631 1960.86,394.629 1962.91,402.033    1964.96,411.3 1967.01,421.743 1969.07,432.582 1971.12,442.997 1973.17,452.195 1975.22,459.471 1977.27,464.259 1979.33,466.181 1981.38,465.081 1983.43,461.036    1985.48,454.356 1987.54,445.562 1989.59,435.35 1991.64,424.531 1993.69,413.975 1995.74,404.538 1997.8,396.991 1999.85,391.955 2001.9,389.854 2003.95,390.867    2006,394.92 2008.06,401.681 2010.11,410.589 2012.16,420.895 2014.21,431.727 2016.27,442.159 2018.32,451.292 2020.37,458.335 2022.42,462.668 2024.47,463.907    2026.53,461.934 2028.58,456.915 2030.63,449.288 2032.68,439.728 2034.73,429.088 2036.79,418.326 2038.84,408.418 2040.89,400.27 2042.94,394.634 2045,392.036    2047.05,392.724 2049.1,396.642 2051.15,403.432 2053.2,412.461 2055.26,422.881 2057.31,433.704 2059.36,443.897 2061.41,452.477 2063.46,458.613 2065.52,461.703    2067.57,461.437 2069.62,457.834 2071.67,451.241 2073.73,442.304 2075.78,431.906 2077.83,421.086 2079.88,410.93 2081.93,402.468 2083.99,396.562 2086.04,393.822    2088.09,394.537 2090.14,398.641 2092.19,405.716 2094.25,415.034 2096.3,425.623 2098.35,436.374 2100.4,446.149 2102.46,453.909 2104.51,458.821 2106.56,460.351    2108.61,458.325 2110.66,452.957 2112.72,444.821 2114.77,434.802 2116.82,423.996 2118.87,413.594 2120.92,404.75 2122.98,398.455 2125.03,395.419 2127.08,395.991    2129.13,400.114 2131.19,407.329 2133.24,416.818 2135.29,427.498 2137.34,438.143 2139.39,447.519 2141.45,454.533 2143.5,458.362 2145.55,458.548 2147.6,455.061    2149.65,448.307 2151.71,439.082 2153.76,428.484 2155.81,417.783 2157.86,408.268 2159.92,401.098 2161.97,397.149 2164.02,396.911 2166.07,400.422 2168.12,407.256    2170.18,416.574 2172.23,427.219 2174.28,437.863 2176.33,447.169 2178.38,453.958 2180.44,457.365 2182.49,456.949 2184.54,452.755 2186.59,445.313 2188.65,435.578    2190.7,424.807 2192.75,414.399 2194.8,405.718 2196.85,399.906 2198.91,397.737 2200.96,399.505 2203.01,404.984 2205.06,413.447 2207.11,423.766 2209.17,434.553    2211.22,444.348 2213.27,451.818 2215.32,455.937 2217.38,456.134 2219.43,452.374 2221.48,445.168 2223.53,435.512 2225.58,424.747 2227.64,414.379 2229.69,405.869    2231.74,400.421 2233.79,398.816 2235.84,401.288 2237.9,407.494 2239.95,416.547 2242,427.149 2244.05,437.764 2246.11,446.851 2248.16,453.077 2250.21,455.524    2252.26,453.824 2254.31,448.221 2256.37,439.539 2258.42,429.067 2260.47,418.37 2262.52,409.056 2264.58,402.533 2266.63,399.795 2268.68,401.267 2270.73,406.731    2272.78,415.357 2274.84,425.821 2276.89,436.509 2278.94,445.761 2280.99,452.132 2283.04,454.619 2285.1,452.825 2287.15,447.024 2289.2,438.127 2291.25,427.545       "
       style="fill:none;stroke:#d40000;stroke-width:12;stroke-miterlimit:4;stroke-dasharray:none;stroke-opacity:1"
       clip-path="url(#clip302)" />
    <path
       inkscape:connector-curvature="0"
       id="path92"
       d="M 314.17433,1445.72 V 87.976305 H 2487.2803 V 1445.72 Z"
       style="fill:none;stroke:#000000;stroke-width:14.27994633;stroke-linecap:butt;stroke-linejoin:miter;stroke-dasharray:none" />
    <polyline
       transform="translate(134.52033,4.9515027e-6)"
       id="polyline75"
       points="   179.654,427.411 205.731,427.411    "
       style="fill:none;stroke:#000000;stroke-width:4;stroke-opacity:1"
       clip-path="url(#clip300)" />
    <polyline
       transform="matrix(0,-0.88304089,3.2348708,0,-4458.237,866.65232)"
       id="polyline33-2"
       points="   497.419,1486.45 497.419,1469.18    "
       style="fill:none;stroke:#000000;stroke-width:9.46675491;stroke-miterlimit:4;stroke-dasharray:none;stroke-opacity:1"
       clip-path="url(#clip300-2)" />
    <polyline
       transform="matrix(0,-0.88304089,3.2348708,0,-4458.237,1545.5218)"
       id="polyline35-3"
       points="   881.812,1486.45 881.812,1469.18    "
       style="fill:none;stroke:#000000;stroke-width:9.46675491;stroke-miterlimit:4;stroke-dasharray:none;stroke-opacity:1"
       clip-path="url(#clip300-2)" />
    <polyline
       transform="matrix(0,-0.88304089,3.2348708,0,-4458.237,2224.3824)"
       id="polyline37-7"
       points="   1266.2,1486.45 1266.2,1469.18    "
       style="fill:none;stroke:#000000;stroke-width:9.46675491;stroke-miterlimit:4;stroke-dasharray:none;stroke-opacity:1"
       clip-path="url(#clip300-2)" />
  </g>
  <g
     id="g4661">
    <polyline
       transform="matrix(0.99977917,0,0,0.94307638,2687.7097,43.65171)"
       id="polyline25-6"
       points="   1266.2,1486.45 1266.2,47.2441    "
       style="fill:none;stroke:#808080;stroke-width:4.11940527;stroke-miterlimit:4;stroke-dasharray:none;stroke-opacity:1"
       clip-path="url(#clip302-2)" />
    <polyline
       transform="matrix(1,0,0,2.3886131,2687.4301,-2098.5751)"
       id="polyline33-1"
       points="   497.419,1486.45 497.419,1469.18    "
       style="fill:none;stroke:#000000;stroke-width:10.35254383;stroke-miterlimit:4;stroke-dasharray:none;stroke-opacity:1"
       clip-path="url(#clip300-8)" />
    <polyline
       transform="matrix(1,0,0,2.3886131,2687.4301,-2098.5751)"
       id="polyline35-2"
       points="   881.812,1486.45 881.812,1469.18    "
       style="fill:none;stroke:#000000;stroke-width:10.35254383;stroke-miterlimit:4;stroke-dasharray:none;stroke-opacity:1"
       clip-path="url(#clip300-8)" />
    <polyline
       transform="matrix(1,0,0,2.3886131,2687.4301,-2098.5751)"
       id="polyline37-9"
       points="   1266.2,1486.45 1266.2,1469.18    "
       style="fill:none;stroke:#000000;stroke-width:10.35254383;stroke-miterlimit:4;stroke-dasharray:none;stroke-opacity:1"
       clip-path="url(#clip300-8)" />
    <polyline
       transform="matrix(1,0,0,2.3886131,2687.4301,-2098.5751)"
       id="polyline39-3"
       points="   1650.6,1486.45 1650.6,1469.18    "
       style="fill:none;stroke:#000000;stroke-width:10.35254383;stroke-miterlimit:4;stroke-dasharray:none;stroke-opacity:1"
       clip-path="url(#clip300-8)" />
    <polyline
       transform="matrix(1,0,0,2.3886131,2687.4301,-2098.5751)"
       id="polyline41-1"
       points="   2034.99,1486.45 2034.99,1469.18    "
       style="fill:none;stroke:#000000;stroke-width:10.35254383;stroke-miterlimit:4;stroke-dasharray:none;stroke-opacity:1"
       clip-path="url(#clip300-8)" />
    <polyline
       transform="translate(2687.4301)"
       id="polyline57-9"
       points="   179.654,1445.72 2352.76,1445.72    "
       style="fill:none;stroke:#000000;stroke-width:2;stroke-opacity:0.1"
       clip-path="url(#clip302-2)" />
    <polyline
       transform="translate(2687.4301)"
       id="polyline59-4"
       points="   179.654,1106.28 2352.76,1106.28    "
       style="fill:none;stroke:#808080;stroke-width:4;stroke-miterlimit:4;stroke-dasharray:none;stroke-opacity:1"
       clip-path="url(#clip302-2)" />
    <polyline
       transform="translate(2687.4301)"
       id="polyline61-7"
       points="   179.654,766.846 2352.76,766.846    "
       style="fill:none;stroke:#808080;stroke-width:4;stroke-miterlimit:4;stroke-dasharray:none;stroke-opacity:1"
       clip-path="url(#clip302-2)" />
    <polyline
       transform="translate(2687.4301)"
       id="polyline63-8"
       points="   179.654,427.411 2352.76,427.411    "
       style="fill:none;stroke:#808080;stroke-width:4;stroke-miterlimit:4;stroke-dasharray:none;stroke-opacity:1"
       clip-path="url(#clip302-2)" />
    <polyline
       transform="translate(2687.4301)"
       id="polyline65-4"
       points="   179.654,87.9763 2352.76,87.9763    "
       style="fill:none;stroke:#000000;stroke-width:2;stroke-opacity:0.1"
       clip-path="url(#clip302-2)" />
    <path
       inkscape:connector-curvature="0"
       id="path92-5"
       d="M 2867.0841,1445.72 V 87.9763 h 2173.106 V 1445.72 Z"
       style="fill:none;stroke:#000000;stroke-width:14.27994633;stroke-linecap:butt;stroke-linejoin:miter;stroke-dasharray:none" />
    <polyline
       transform="translate(2687.4301)"
       id="polyline75-0"
       points="   179.654,427.411 205.731,427.411    "
       style="fill:none;stroke:#000000;stroke-width:4;stroke-opacity:1"
       clip-path="url(#clip300-8)" />
    <polyline
       transform="matrix(0,-0.88304089,3.2348708,0,-1905.3272,866.65232)"
       id="polyline33-2-1"
       points="   497.419,1486.45 497.419,1469.18    "
       style="fill:none;stroke:#000000;stroke-width:9.46675491;stroke-miterlimit:4;stroke-dasharray:none;stroke-opacity:1"
       clip-path="url(#clip300-2-7)" />
    <polyline
       transform="matrix(0,-0.88304089,3.2348708,0,-1905.3272,1545.5218)"
       id="polyline35-3-0"
       points="   881.812,1486.45 881.812,1469.18    "
       style="fill:none;stroke:#000000;stroke-width:9.46675491;stroke-miterlimit:4;stroke-dasharray:none;stroke-opacity:1"
       clip-path="url(#clip300-2-7)" />
    <polyline
       transform="matrix(0,-0.88304089,3.2348708,0,-1905.3272,2224.3824)"
       id="polyline37-7-6"
       points="   1266.2,1486.45 1266.2,1469.18    "
       style="fill:none;stroke:#000000;stroke-width:9.46675491;stroke-miterlimit:4;stroke-dasharray:none;stroke-opacity:1"
       clip-path="url(#clip300-2-7)" />
    <polyline
       id="polyline113-9"
       points="   241.157,1079.27 243.209,1081.43 245.261,1087.55 247.313,1096.66 249.365,1107.31 251.417,1117.82 253.469,1126.55 255.522,1132.12 257.574,1133.68 259.626,1131    261.678,1124.5 263.73,1115.18 265.782,1104.48 267.834,1094.03 269.887,1085.42 271.939,1079.94 273.991,1078.43 276.043,1081.09 278.095,1087.52 280.147,1096.76    282.2,1107.43 284.252,1117.95 286.304,1126.78 288.356,1132.63 290.408,1134.65 292.46,1132.56 294.512,1126.66 296.565,1117.81 298.617,1107.29 300.669,1096.6    302.721,1087.26 304.773,1080.6 306.825,1077.55 308.877,1078.52 310.93,1083.38 312.982,1091.43 315.034,1101.57 317.086,1112.38 319.138,1122.37 321.19,1130.19    323.243,1134.76 325.295,1135.48 327.347,1132.25 329.399,1125.53 331.451,1116.21 333.503,1105.54 335.555,1094.95 337.608,1085.83 339.66,1079.38 341.712,1076.45    343.764,1077.4 345.816,1082.11 347.868,1089.95 349.92,1099.92 351.973,1110.73 354.025,1120.99 356.077,1129.41 358.129,1134.92 360.181,1136.84 362.233,1134.93    364.285,1129.43 366.338,1121.05 368.39,1110.82 370.442,1100 372.494,1089.93 374.546,1081.84 376.598,1076.69 378.651,1075.11 380.703,1077.28 382.755,1082.93    384.807,1091.38 386.859,1101.62 388.911,1112.44 390.963,1122.56 393.016,1130.79 395.068,1136.19 397.12,1138.14 399.172,1136.4 401.224,1131.2 403.276,1123.14    405.328,1113.13 407.381,1102.33 409.433,1091.94 411.485,1083.14 413.537,1076.9 415.589,1073.91 417.641,1074.5 419.693,1078.6 421.746,1085.73 423.798,1095.13    425.85,1105.76 427.902,1116.48 429.954,1126.12 432.006,1133.67 434.059,1138.32 436.111,1139.58 438.163,1137.34 440.215,1131.83 442.267,1123.64 444.319,1113.62    446.371,1102.82 448.424,1092.34 450.476,1083.27 452.528,1076.52 454.58,1072.76 456.632,1072.38 458.684,1075.4 460.736,1081.51 462.789,1090.1 464.841,1100.31    466.893,1111.14 468.945,1121.52 470.997,1130.44 473.049,1137.04 475.102,1140.7 477.154,1141.07 479.206,1138.12 481.258,1132.14 483.31,1123.7 485.362,1113.61    487.414,1102.8 489.467,1092.29 491.519,1083.04 493.571,1075.9 495.623,1071.52 497.675,1070.3 499.727,1072.33 501.779,1077.42 503.832,1085.11 505.884,1094.71    507.936,1105.37 509.988,1116.13 512.04,1126.06 514.092,1134.29 516.144,1140.11 518.197,1143.04 520.249,1142.81 522.301,1139.47 524.353,1133.31 526.405,1124.84    528.457,1114.79 530.51,1104 532.562,1093.37 534.614,1083.78 536.666,1076.01 538.718,1070.68 540.77,1068.23 542.822,1068.85 544.875,1072.47 546.927,1078.8    548.979,1087.34 551.031,1097.39 553.083,1108.17 555.135,1118.84 557.187,1128.56 559.24,1136.59 561.292,1142.32 563.344,1145.32 565.396,1145.37 567.448,1142.47    569.5,1136.85 571.552,1128.93 573.605,1119.31 575.657,1108.71 577.709,1097.89 579.761,1087.65 581.813,1078.73 583.865,1071.76 585.918,1067.24 587.97,1065.48    590.022,1066.59 592.074,1070.5 594.126,1076.92 596.178,1085.4 598.23,1095.34 600.283,1106.06 602.335,1116.83 604.387,1126.92 606.439,1135.66 608.491,1142.46    610.543,1146.87 612.595,1148.62 614.648,1147.59 616.7,1143.87 618.752,1137.69 620.804,1129.47 622.856,1119.74 624.908,1109.13 626.96,1098.29 629.013,1087.93    631.065,1078.67 633.117,1071.1 635.169,1065.67 637.221,1062.71 639.273,1062.39 641.326,1064.72 643.378,1069.55 645.43,1076.59 647.482,1085.42 649.534,1095.5    651.586,1106.25 653.638,1117.03 655.691,1127.23 657.743,1136.27 659.795,1143.63 661.847,1148.9 663.899,1151.79 665.951,1152.16 668.003,1149.98 670.056,1145.39    672.108,1138.64 674.16,1130.12 676.212,1120.27 678.264,1109.65 680.316,1098.8 682.369,1088.31 684.421,1078.73 686.473,1070.55 688.525,1064.19 690.577,1059.96    692.629,1058.09 694.681,1058.65 696.734,1061.6 698.786,1066.8 700.838,1073.97 702.89,1082.76 704.942,1092.74 706.994,1103.4 709.046,1114.25 711.099,1124.75    713.151,1134.42 715.203,1142.79 717.255,1149.5 719.307,1154.22 721.359,1156.75 723.411,1156.98 725.464,1154.91 727.516,1150.65 729.568,1144.38 731.62,1136.4    733.672,1127.06 735.724,1116.77 737.777,1106 739.829,1095.19 741.881,1084.81 743.933,1075.3 745.985,1067.06 748.037,1060.41 750.089,1055.65 752.142,1052.94    754.194,1052.39 756.246,1054.02 758.298,1057.75 760.35,1063.43 762.402,1070.82 764.454,1079.63 766.507,1089.51 768.559,1100.08 770.611,1110.93 772.663,1121.65    774.715,1131.83 776.767,1141.11 778.819,1149.14 780.872,1155.63 782.924,1160.36 784.976,1163.15 787.028,1163.93 789.08,1162.67 791.132,1159.42 793.185,1154.31    795.237,1147.51 797.289,1139.28 799.341,1129.88 801.393,1119.66 803.445,1108.94 805.497,1098.08 807.55,1087.45 809.602,1077.38 811.654,1068.19 813.706,1060.18    815.758,1053.59 817.81,1048.62 819.862,1045.41 821.915,1044.07 823.967,1044.62 826.019,1047.03 828.071,1051.23 830.123,1057.08 832.175,1064.41 834.228,1072.99    836.28,1082.56 838.332,1092.87 840.384,1103.6 842.436,1114.46 844.488,1125.14 846.54,1135.36 848.593,1144.84 850.645,1153.32 852.697,1160.59 854.749,1166.46    856.801,1170.78 858.853,1173.45 860.905,1174.41 862.958,1173.64 865.01,1171.18 867.062,1167.08 869.114,1161.47 871.166,1154.48 873.218,1146.29 875.27,1137.1    877.323,1127.13 879.375,1116.62 881.427,1105.82 883.479,1094.97 885.531,1084.31 887.583,1074.1 889.636,1064.54 891.688,1055.85 893.74,1048.21 895.792,1041.77    897.844,1036.68 899.896,1033.01 901.948,1030.85 904.001,1030.23 906.053,1031.16 908.105,1033.6 910.157,1037.5 912.209,1042.78 914.261,1049.32 916.313,1056.99    918.366,1065.64 920.418,1075.11 922.47,1085.22 924.522,1095.76 926.574,1106.57 928.626,1117.43 930.678,1128.16 932.731,1138.57 934.783,1148.48 936.835,1157.74    938.887,1166.18 940.939,1173.68 942.991,1180.12 945.044,1185.4 947.096,1189.44 949.148,1192.18 951.2,1193.6 953.252,1193.68 955.304,1192.43 957.356,1189.88    959.409,1186.06 961.461,1181.05 963.513,1174.92 965.565,1167.77 967.617,1159.71 969.669,1150.85 971.721,1141.32 973.774,1131.25 975.826,1120.78 977.878,1110.05    979.93,1099.19 981.982,1088.35 984.034,1077.66 986.087,1067.25 988.139,1057.25 990.191,1047.77 992.243,1038.91 994.295,1030.79 996.347,1023.48 998.399,1017.07    1000.45,1011.61 1002.5,1007.16 1004.56,1003.75 1006.61,1001.43 1008.66,1000.19 1010.71,1000.06 1012.76,1001.01 1014.82,1003.03 1016.87,1006.1 1018.92,1010.17    1020.97,1015.2 1023.03,1021.13 1025.08,1027.9 1027.13,1035.45 1029.18,1043.69 1031.23,1052.56 1033.29,1061.97 1035.34,1071.84 1037.39,1082.08 1039.44,1092.6    1041.49,1103.33 1043.55,1114.17 1045.6,1125.04 1047.65,1135.85 1049.7,1146.54 1051.76,1157.01 1053.81,1167.21 1055.86,1177.05 1057.91,1186.48 1059.96,1195.44    1062.02,1203.87 1064.07,1211.73 1066.12,1218.96 1068.17,1225.54 1070.22,1231.42 1072.28,1236.58 1074.33,1241 1076.38,1244.66 1078.43,1247.55 1080.49,1249.66    1082.54,1250.98 1084.59,1251.52 1086.64,1251.29 1088.69,1250.3 1090.75,1248.55 1092.8,1246.07 1094.85,1242.87 1096.9,1238.98 1098.95,1234.43 1101.01,1229.24    1103.06,1223.44 1105.11,1217.06 1107.16,1210.14 1109.22,1202.71 1111.27,1194.8 1113.32,1186.46 1115.37,1177.71 1117.42,1168.59 1119.48,1159.15 1121.53,1149.41    1123.58,1139.41 1125.63,1129.19 1127.68,1118.78 1129.74,1108.22 1131.79,1097.53 1133.84,1086.75 1135.89,1075.91 1137.95,1065.05 1140,1054.18 1142.05,1043.33    1144.1,1032.54 1146.15,1021.82 1148.21,1011.2 1150.26,1000.7 1152.31,990.336 1154.36,980.131 1156.41,970.099 1158.47,960.258 1160.52,950.621 1162.57,941.201    1164.62,932.009 1166.68,923.056 1168.73,914.352 1170.78,905.903 1172.83,897.716 1174.88,889.796 1176.94,882.149 1178.99,874.778 1181.04,867.684 1183.09,860.87    1185.14,854.336 1187.2,848.082 1189.25,842.107 1191.3,836.409 1193.35,830.986 1195.41,825.834 1197.46,820.951 1199.51,816.331 1201.56,811.971 1203.61,807.865    1205.67,804.008 1207.72,800.393 1209.77,797.015 1211.82,793.867 1213.87,790.942 1215.93,788.232 1217.98,785.731 1220.03,783.431 1222.08,781.323 1224.14,779.401    1226.19,777.656 1228.24,776.08 1230.29,774.664 1232.34,773.4 1234.4,772.28 1236.45,771.296 1238.5,770.438 1240.55,769.697 1242.61,769.067 1244.66,768.536    1246.71,768.098 1248.76,767.743 1250.81,767.462 1252.87,767.247 1254.92,767.089 1256.97,766.979 1259.02,766.909 1261.07,766.869 1263.13,766.851 1265.18,766.846    1267.23,766.846 1269.28,766.841 1271.34,766.823 1273.39,766.783 1275.44,766.713 1277.49,766.603 1279.54,766.445 1281.6,766.23 1283.65,765.949 1285.7,765.594    1287.75,765.156 1289.8,764.625 1291.86,763.995 1293.91,763.254 1295.96,762.396 1298.01,761.412 1300.07,760.292 1302.12,759.028 1304.17,757.612 1306.22,756.036    1308.27,754.291 1310.33,752.369 1312.38,750.261 1314.43,747.961 1316.48,745.46 1318.53,742.75 1320.59,739.825 1322.64,736.677 1324.69,733.299 1326.74,729.684    1328.8,725.827 1330.85,721.721 1332.9,717.361 1334.95,712.741 1337,707.858 1339.06,702.706 1341.11,697.283 1343.16,691.585 1345.21,685.61 1347.26,679.356    1349.32,672.822 1351.37,666.007 1353.42,658.914 1355.47,651.542 1357.53,643.895 1359.58,635.976 1361.63,627.789 1363.68,619.34 1365.73,610.635 1367.79,601.683    1369.84,592.491 1371.89,583.071 1373.94,573.434 1375.99,563.593 1378.05,553.561 1380.1,543.356 1382.15,532.993 1384.2,522.491 1386.26,511.87 1388.31,501.152    1390.36,490.359 1392.41,479.515 1394.46,468.646 1396.52,457.778 1398.57,446.941 1400.62,436.164 1402.67,425.477 1404.72,414.911 1406.78,404.501 1408.83,394.28    1410.88,384.282 1412.93,374.543 1414.99,365.098 1417.04,355.984 1419.09,347.236 1421.14,338.891 1423.19,330.986 1425.25,323.555 1427.3,316.634 1429.35,310.257    1431.4,304.457 1433.45,299.264 1435.51,294.71 1437.56,290.822 1439.61,287.625 1441.66,285.143 1443.72,283.395 1445.77,282.399 1447.82,282.167 1449.87,282.711    1451.92,284.036 1453.98,286.143 1456.03,289.03 1458.08,292.69 1460.13,297.11 1462.18,302.272 1464.24,308.155 1466.29,314.73 1468.34,321.964 1470.39,329.819    1472.45,338.25 1474.5,347.208 1476.55,356.64 1478.6,366.485 1480.65,376.679 1482.71,387.155 1484.76,397.839 1486.81,408.655 1488.86,419.523 1490.92,430.362    1492.97,441.087 1495.02,451.613 1497.07,461.852 1499.12,471.72 1501.18,481.13 1503.23,489.999 1505.28,498.245 1507.33,505.791 1509.38,512.564 1511.44,518.495    1513.49,523.524 1515.54,527.594 1517.59,530.66 1519.65,532.683 1521.7,533.635 1523.75,533.497 1525.8,532.264 1527.85,529.938 1529.91,526.535 1531.96,522.084    1534.01,516.624 1536.06,510.208 1538.11,502.9 1540.17,494.777 1542.22,485.926 1544.27,476.444 1546.32,466.44 1548.38,456.031 1550.43,445.341 1552.48,434.499    1554.53,423.643 1556.58,412.909 1558.64,402.438 1560.69,392.369 1562.74,382.838 1564.79,373.979 1566.84,365.918 1568.9,358.77 1570.95,352.644 1573,347.632    1575.05,343.816 1577.11,341.259 1579.16,340.007 1581.21,340.088 1583.26,341.509 1585.31,344.256 1587.37,348.296 1589.42,353.573 1591.47,360.009 1593.52,367.508    1595.57,375.952 1597.63,385.208 1599.68,395.124 1601.73,405.535 1603.78,416.264 1605.84,427.125 1607.89,437.927 1609.94,448.476 1611.99,458.579 1614.04,468.047    1616.1,476.702 1618.15,484.375 1620.2,490.916 1622.25,496.192 1624.3,500.092 1626.36,502.533 1628.41,503.458 1630.46,502.839 1632.51,500.68 1634.57,497.017    1636.62,491.918 1638.67,485.482 1640.72,477.84 1642.77,469.15 1644.83,459.594 1646.88,449.378 1648.93,438.726 1650.98,427.876 1653.03,417.072 1655.09,406.563    1657.14,396.596 1659.19,387.405 1661.24,379.214 1663.3,372.223 1665.35,366.608 1667.4,362.513 1669.45,360.047 1671.5,359.281 1673.56,360.241 1675.61,362.912    1677.66,367.234 1679.71,373.102 1681.76,380.371 1683.82,388.854 1685.87,398.33 1687.92,408.548 1689.97,419.233 1692.03,430.092 1694.08,440.824 1696.13,451.127    1698.18,460.707 1700.23,469.285 1702.29,476.61 1704.34,482.461 1706.39,486.66 1708.44,489.073 1710.49,489.621 1712.55,488.277 1714.6,485.076 1716.65,480.106    1718.7,473.515 1720.76,465.503 1722.81,456.317 1724.86,446.245 1726.91,435.61 1728.96,424.755 1731.02,414.035 1733.07,403.807 1735.12,394.415 1737.17,386.179    1739.23,379.385 1741.28,374.271 1743.33,371.023 1745.38,369.761 1747.43,370.539 1749.49,373.337 1751.54,378.063 1753.59,384.555 1755.64,392.584 1757.69,401.86    1759.75,412.046 1761.8,422.764 1763.85,433.613 1765.9,444.181 1767.96,454.062 1770.01,462.872 1772.06,470.264 1774.11,475.941 1776.16,479.673 1778.22,481.302    1780.27,480.756 1782.32,478.047 1784.37,473.278 1786.42,466.637 1788.48,458.392 1790.53,448.883 1792.58,438.505 1794.63,427.696 1796.69,416.917 1798.74,406.634    1800.79,397.294 1802.84,389.313 1804.89,383.046 1806.95,378.779 1809,376.711 1811.05,376.943 1813.1,379.474 1815.15,384.195 1817.21,390.897 1819.26,399.275    1821.31,408.942 1823.36,419.446 1825.42,430.291 1827.47,440.957 1829.52,450.929 1831.57,459.719 1833.62,466.893 1835.68,472.09 1837.73,475.046 1839.78,475.604    1841.83,473.728 1843.88,469.505 1845.94,463.143 1847.99,454.961 1850.04,445.379 1852.09,434.891 1854.15,424.047 1856.2,413.419 1858.25,403.576 1860.3,395.048    1862.35,388.302 1864.41,383.711 1866.46,381.533 1868.51,381.898 1870.56,384.792 1872.61,390.063 1874.67,397.422 1876.72,406.457 1878.77,416.659 1880.82,427.445    1882.88,438.192 1884.93,448.274 1886.98,457.098 1889.03,464.14 1891.08,468.973 1893.14,471.304 1895.19,470.983 1897.24,468.021 1899.29,462.591 1901.34,455.018    1903.4,445.764 1905.45,435.398 1907.5,424.566 1909.55,413.948 1911.61,404.219 1913.66,396.001 1915.71,389.827 1917.76,386.102 1919.81,385.075 1921.87,386.822    1923.92,391.236 1925.97,398.033 1928.02,406.767 1930.07,416.859 1932.13,427.631 1934.18,438.354 1936.23,448.296 1938.28,456.771 1940.34,463.189 1942.39,467.097    1944.44,468.215 1946.49,466.455 1948.54,461.933 1950.6,454.965 1952.65,446.042 1954.7,435.803 1956.75,424.985 1958.8,414.378 1960.86,404.759 1962.91,396.843    1964.96,391.222 1967.01,388.322 1969.07,388.37 1971.12,391.369 1973.17,397.1 1975.22,405.133 1977.27,414.855 1979.33,425.521 1981.38,436.302 1983.43,446.356    1985.48,454.889 1987.54,461.222 1989.59,464.845 1991.64,465.46 1993.69,463.011 1995.74,457.686 1997.8,449.911 1999.85,440.317 2001.9,429.688 2003.95,418.9    2006,408.852 2008.06,400.386 2010.11,394.219 2012.16,390.878 2014.21,390.656 2016.27,393.579 2018.32,399.405 2020.37,407.637 2022.42,417.565 2024.47,428.327    2026.53,438.978 2028.58,448.578 2030.63,456.27 2032.68,461.363 2034.73,463.392 2036.79,462.168 2038.84,457.792 2040.89,450.656 2042.94,441.407 2045,430.892    2047.05,420.084 2049.1,409.987 2051.15,401.55 2053.2,395.571 2055.26,392.621 2057.31,392.989 2059.36,396.647 2061.41,403.253 2063.46,412.175 2065.52,422.553    2067.57,433.378 2069.62,443.589 2071.67,452.178 2073.73,458.29 2075.78,461.31 2077.83,460.928 2079.88,457.176 2081.93,450.423 2083.99,441.35 2086.04,430.876    2088.09,420.074 2090.14,410.057 2092.19,401.864 2094.25,396.354 2096.3,394.109 2098.35,395.373 2100.4,400.021 2102.46,407.567 2104.51,417.213 2106.56,427.928    2108.61,438.56 2110.66,447.958 2112.72,455.096 2114.77,459.188 2116.82,459.778 2118.87,456.792 2120.92,450.554 2122.98,441.752 2125.03,431.365 2127.08,420.559    2129.13,410.554 2131.19,402.49 2133.24,397.289 2135.29,395.556 2137.34,397.498 2139.39,402.898 2141.45,411.135 2143.5,421.254 2145.55,432.072 2147.6,442.313    2149.65,450.764 2151.71,456.416 2153.76,458.585 2155.81,457.005 2157.86,451.857 2159.92,443.758 2161.97,433.688 2164.02,422.874 2166.07,412.643 2168.12,404.259    2170.18,398.767 2172.23,396.855 2174.28,398.771 2176.33,404.282 2178.38,412.7 2180.44,422.964 2182.49,433.771 2184.54,443.738 2186.59,451.584 2188.65,456.292    2190.7,457.244 2192.75,454.31 2194.8,447.863 2196.85,438.746 2198.91,428.153 2200.96,417.487 2203.01,408.166 2205.06,401.438 2207.11,398.214 2209.17,398.933    2211.22,403.507 2213.27,411.322 2215.32,421.316 2217.38,432.124 2219.43,442.259 2221.48,450.316 2223.53,455.173 2225.58,456.146 2227.64,453.09 2229.69,446.428    2231.74,437.093 2233.79,426.406 2235.84,415.885 2237.9,407.037 2239.95,401.136 2242,399.04 2244.05,401.059 2246.11,406.908 2248.16,415.74 2250.21,426.264    2252.26,436.935 2254.31,446.173 2256.37,452.605 2258.42,455.265 2260.47,453.748 2262.52,448.275 2264.58,439.663 2266.63,429.212 2268.68,418.51 2270.73,409.191    2272.78,402.688 2274.84,400.008 2276.89,401.572 2278.94,407.146 2280.99,415.869 2283.04,426.379 2285.1,437.029 2287.15,446.139 2289.2,452.263 2291.25,454.42       "
       style="fill:none;stroke:#d40000;stroke-width:12;stroke-miterlimit:4;stroke-dasharray:none;stroke-opacity:1"
       clip-path="url(#clip332)"
       transform="translate(2687.4337,0.00488315)" />
  </g>
  <g
     id="g3921">
    <text
       id="text123-7-69"
       y="130.354"
       x="2767.0029"
       style="font-style:normal;font-weight:normal;font-size:160px;line-height:1.25;font-family:sans-serif;letter-spacing:0px;word-spacing:0px;fill:#000000;fill-opacity:1;stroke:none;stroke-width:4"
       xml:space="preserve"><tspan
         id="tspan2088-3"
         style="font-size:53.33333206px;stroke-width:4"
         y="130.354"
         x="2767.0029"
         sodipodi:role="line">$1$</tspan></text>
    <g
       id="g3863">
      <text
         xml:space="preserve"
         style="font-style:normal;font-weight:normal;font-size:160px;line-height:1.25;font-family:sans-serif;letter-spacing:0px;word-spacing:0px;fill:#000000;fill-opacity:1;stroke:none;stroke-width:4"
         x="214.09319"
         y="130.354"
         id="text123-7"><tspan
           sodipodi:role="line"
           x="214.09319"
           y="130.354"
           style="font-size:53.33333206px;stroke-width:4"
           id="tspan2088">$1$</tspan></text>
      <g
         id="g3808">
        <g
           id="g3756">
          <path
             clip-path="url(#clip300-8)"
             d="m 0,0 m 111.756,99.3767 h 4.884 v 5.8793 h -4.884 z"
             id="path109-3"
             inkscape:connector-curvature="0"
             style="fill:#000000;fill-opacity:1;fill-rule:evenodd"
             transform="translate(2687.4301)" />
          <text
             xml:space="preserve"
             style="font-style:normal;font-weight:normal;font-size:160px;line-height:1.25;font-family:sans-serif;letter-spacing:0px;word-spacing:0px;fill:#000000;fill-opacity:1;stroke:none;stroke-width:4"
             x="2643.4224"
             y="462.29605"
             id="text123-7-9-74"
             inkscape:transform-center-x="76.438043"
             inkscape:transform-center-y="242.8032"><tspan
               sodipodi:role="line"
               id="tspan121-0-3-5"
               x="2643.4224"
               y="462.29605"
               style="font-size:53.33333206px;stroke-width:4">$0,5$</tspan></text>
          <text
             xml:space="preserve"
             style="font-style:normal;font-weight:normal;font-size:160px;line-height:1.25;font-family:sans-serif;letter-spacing:0px;word-spacing:0px;fill:#000000;fill-opacity:1;stroke:none;stroke-width:4"
             x="2751.0029"
             y="804.42725"
             id="text123-7-6-2"><tspan
               sodipodi:role="line"
               id="tspan121-0-2-5"
               x="2751.0029"
               y="804.42725"
               style="font-size:53.33333206px;stroke-width:4">$0$</tspan></text>
          <text
             xml:space="preserve"
             style="font-style:normal;font-weight:normal;font-size:160px;line-height:1.25;font-family:sans-serif;letter-spacing:0px;word-spacing:0px;fill:#000000;fill-opacity:1;stroke:none;stroke-width:4"
             x="2540.4827"
             y="1146.1361"
             id="text123-7-61-4"><tspan
               sodipodi:role="line"
               x="2540.4827"
               y="1146.1361"
               style="font-size:53.33333206px;stroke-width:4"
               id="tspan2088-8-7">$-0,5$</tspan></text>
          <text
             xml:space="preserve"
             style="font-style:normal;font-weight:normal;font-size:160px;line-height:1.25;font-family:sans-serif;letter-spacing:0px;word-spacing:0px;fill:#000000;fill-opacity:1;stroke:none;stroke-width:4"
             x="2672.9021"
             y="1470.0782"
             id="text123-7-9-7-4"
             inkscape:transform-center-x="76.438043"
             inkscape:transform-center-y="242.8032"><tspan
               sodipodi:role="line"
               id="tspan121-0-3-9-4"
               x="2672.9021"
               y="1470.0782"
               style="font-size:53.33333206px;stroke-width:4">$-1$</tspan></text>
          <text
             xml:space="preserve"
             style="font-style:normal;font-weight:normal;font-size:160px;line-height:1.25;font-family:sans-serif;letter-spacing:0px;word-spacing:0px;fill:#000000;fill-opacity:1;stroke:none;stroke-width:4"
             x="2943.2793"
             y="395.51398"
             id="text123-3-7-3-7-6"><tspan
               sodipodi:role="line"
               id="tspan121-6-5-0-8-8"
               x="2943.2793"
               y="395.51398"
               style="font-size:53.33333206px;stroke-width:4">$S(u)$</tspan></text>
        </g>
        <g
           id="g3743">
          <g
             id="g3704">
            <path
               transform="translate(134.52033,4.9515027e-6)"
               style="fill:#000000;fill-opacity:1;fill-rule:evenodd"
               inkscape:connector-curvature="0"
               id="path109"
               d="m 0,0 m 111.756,99.3767 h 4.884 v 5.8793 h -4.884 z"
               clip-path="url(#clip300)" />
            <text
               inkscape:transform-center-y="242.8032"
               inkscape:transform-center-x="76.438043"
               id="text123-7-9"
               y="462.29605"
               x="90.512611"
               style="font-style:normal;font-weight:normal;font-size:160px;line-height:1.25;font-family:sans-serif;letter-spacing:0px;word-spacing:0px;fill:#000000;fill-opacity:1;stroke:none;stroke-width:4"
               xml:space="preserve"><tspan
                 style="font-size:53.33333206px;stroke-width:4"
                 y="462.29605"
                 x="90.512611"
                 id="tspan121-0-3"
                 sodipodi:role="line">$0,5$</tspan></text>
            <text
               id="text123-7-6"
               y="804.42725"
               x="198.09319"
               style="font-style:normal;font-weight:normal;font-size:160px;line-height:1.25;font-family:sans-serif;letter-spacing:0px;word-spacing:0px;fill:#000000;fill-opacity:1;stroke:none;stroke-width:4"
               xml:space="preserve"><tspan
                 style="font-size:53.33333206px;stroke-width:4"
                 y="804.42725"
                 x="198.09319"
                 id="tspan121-0-2"
                 sodipodi:role="line">$0$</tspan></text>
            <text
               id="text123-7-61"
               y="1146.1361"
               x="-12.427084"
               style="font-style:normal;font-weight:normal;font-size:160px;line-height:1.25;font-family:sans-serif;letter-spacing:0px;word-spacing:0px;fill:#000000;fill-opacity:1;stroke:none;stroke-width:4"
               xml:space="preserve"><tspan
                 id="tspan2088-8"
                 style="font-size:53.33333206px;stroke-width:4"
                 y="1146.1361"
                 x="-12.427084"
                 sodipodi:role="line">$-0,5$</tspan></text>
            <text
               inkscape:transform-center-y="242.8032"
               inkscape:transform-center-x="76.438043"
               id="text123-7-9-7"
               y="1470.0782"
               x="119.99235"
               style="font-style:normal;font-weight:normal;font-size:160px;line-height:1.25;font-family:sans-serif;letter-spacing:0px;word-spacing:0px;fill:#000000;fill-opacity:1;stroke:none;stroke-width:4"
               xml:space="preserve"><tspan
                 style="font-size:53.33333206px;stroke-width:4"
                 y="1470.0782"
                 x="119.99235"
                 id="tspan121-0-3-9"
                 sodipodi:role="line">$-1$</tspan></text>
          </g>
          <g
             id="g3693">
            <text
               id="text123"
               y="1576.1615"
               x="1363.4852"
               style="font-style:normal;font-weight:normal;font-size:160px;line-height:1.25;font-family:sans-serif;letter-spacing:0px;word-spacing:0px;fill:#000000;fill-opacity:1;stroke:none;stroke-width:4"
               xml:space="preserve"><tspan
                 style="font-size:53.33333206px;stroke-width:4"
                 y="1576.1615"
                 x="1363.4852"
                 id="tspan121"
                 sodipodi:role="line">$0$</tspan></text>
            <text
               id="text123-3"
               y="1576.1615"
               x="1752.7567"
               style="font-style:normal;font-weight:normal;font-size:160px;line-height:1.25;font-family:sans-serif;letter-spacing:0px;word-spacing:0px;fill:#000000;fill-opacity:1;stroke:none;stroke-width:4"
               xml:space="preserve"><tspan
                 style="font-size:53.33333206px;stroke-width:4"
                 y="1576.1615"
                 x="1752.7567"
                 id="tspan121-6"
                 sodipodi:role="line">$3$</tspan></text>
            <text
               id="text123-3-7"
               y="1576.1615"
               x="2136.7568"
               style="font-style:normal;font-weight:normal;font-size:160px;line-height:1.25;font-family:sans-serif;letter-spacing:0px;word-spacing:0px;fill:#000000;fill-opacity:1;stroke:none;stroke-width:4"
               xml:space="preserve"><tspan
                 style="font-size:53.33333206px;stroke-width:4"
                 y="1576.1615"
                 x="2136.7568"
                 id="tspan121-6-5"
                 sodipodi:role="line">$6$</tspan></text>
            <text
               id="text123-35"
               y="1576.1615"
               x="930.30951"
               style="font-style:normal;font-weight:normal;font-size:160px;line-height:1.25;font-family:sans-serif;letter-spacing:0px;word-spacing:0px;fill:#000000;fill-opacity:1;stroke:none;stroke-width:4"
               xml:space="preserve"><tspan
                 style="font-size:53.33333206px;stroke-width:4"
                 y="1576.1615"
                 x="930.30951"
                 id="tspan121-62"
                 sodipodi:role="line">$-3$</tspan></text>
            <text
               id="text123-35-9"
               y="1576.1615"
               x="543.72321"
               style="font-style:normal;font-weight:normal;font-size:160px;line-height:1.25;font-family:sans-serif;letter-spacing:0px;word-spacing:0px;fill:#000000;fill-opacity:1;stroke:none;stroke-width:4"
               xml:space="preserve"><tspan
                 style="font-size:53.33333206px;stroke-width:4"
                 y="1576.1615"
                 x="543.72321"
                 id="tspan121-62-1"
                 sodipodi:role="line">$-6$</tspan></text>
            <text
               id="text123-32"
               y="1576.1615"
               x="3916.395"
               style="font-style:normal;font-weight:normal;font-size:160px;line-height:1.25;font-family:sans-serif;letter-spacing:0px;word-spacing:0px;fill:#000000;fill-opacity:1;stroke:none;stroke-width:4"
               xml:space="preserve"><tspan
                 style="font-size:53.33333206px;stroke-width:4"
                 y="1576.1615"
                 x="3916.395"
                 id="tspan121-0"
                 sodipodi:role="line">$0$</tspan></text>
            <text
               id="text123-3-6"
               y="1576.1615"
               x="4305.6665"
               style="font-style:normal;font-weight:normal;font-size:160px;line-height:1.25;font-family:sans-serif;letter-spacing:0px;word-spacing:0px;fill:#000000;fill-opacity:1;stroke:none;stroke-width:4"
               xml:space="preserve"><tspan
                 style="font-size:53.33333206px;stroke-width:4"
                 y="1576.1615"
                 x="4305.6665"
                 id="tspan121-6-1"
                 sodipodi:role="line">$3$</tspan></text>
            <text
               id="text123-3-7-5"
               y="1576.1615"
               x="4689.6665"
               style="font-style:normal;font-weight:normal;font-size:160px;line-height:1.25;font-family:sans-serif;letter-spacing:0px;word-spacing:0px;fill:#000000;fill-opacity:1;stroke:none;stroke-width:4"
               xml:space="preserve"><tspan
                 style="font-size:53.33333206px;stroke-width:4"
                 y="1576.1615"
                 x="4689.6665"
                 id="tspan121-6-5-5"
                 sodipodi:role="line">$6$</tspan></text>
            <text
               id="text123-35-4"
               y="1576.1615"
               x="3483.2192"
               style="font-style:normal;font-weight:normal;font-size:160px;line-height:1.25;font-family:sans-serif;letter-spacing:0px;word-spacing:0px;fill:#000000;fill-opacity:1;stroke:none;stroke-width:4"
               xml:space="preserve"><tspan
                 style="font-size:53.33333206px;stroke-width:4"
                 y="1576.1615"
                 x="3483.2192"
                 id="tspan121-62-7"
                 sodipodi:role="line">$-3$</tspan></text>
            <text
               id="text123-35-9-6"
               y="1576.1615"
               x="3096.6331"
               style="font-style:normal;font-weight:normal;font-size:160px;line-height:1.25;font-family:sans-serif;letter-spacing:0px;word-spacing:0px;fill:#000000;fill-opacity:1;stroke:none;stroke-width:4"
               xml:space="preserve"><tspan
                 style="font-size:53.33333206px;stroke-width:4"
                 y="1576.1615"
                 x="3096.6331"
                 id="tspan121-62-1-5"
                 sodipodi:role="line">$-6$</tspan></text>
            <text
               id="text123-3-7-3"
               y="1576.1615"
               x="2458.3594"
               style="font-style:normal;font-weight:normal;font-size:160px;line-height:1.25;font-family:sans-serif;letter-spacing:0px;word-spacing:0px;fill:#000000;fill-opacity:1;stroke:none;stroke-width:4"
               xml:space="preserve"><tspan
                 style="font-size:53.33333206px;stroke-width:4"
                 y="1576.1615"
                 x="2458.3594"
                 id="tspan121-6-5-0"
                 sodipodi:role="line">$u$</tspan></text>
            <text
               id="text123-3-7-3-7"
               y="1576.1615"
               x="5024.9858"
               style="font-style:normal;font-weight:normal;font-size:160px;line-height:1.25;font-family:sans-serif;letter-spacing:0px;word-spacing:0px;fill:#000000;fill-opacity:1;stroke:none;stroke-width:4"
               xml:space="preserve"><tspan
                 style="font-size:53.33333206px;stroke-width:4"
                 y="1576.1615"
                 x="5024.9858"
                 id="tspan121-6-5-0-8"
                 sodipodi:role="line">$u$</tspan></text>
          </g>
          <text
             xml:space="preserve"
             style="font-style:normal;font-weight:normal;font-size:160px;line-height:1.25;font-family:sans-serif;letter-spacing:0px;word-spacing:0px;fill:#000000;fill-opacity:1;stroke:none;stroke-width:4"
             x="404.28732"
             y="395.51398"
             id="text123-3-7-3-7-6-8"><tspan
               sodipodi:role="line"
               id="tspan121-6-5-0-8-8-4"
               x="404.28732"
               y="395.51398"
               style="font-size:53.33333206px;stroke-width:4">$C(u)$</tspan></text>
        </g>
      </g>
    </g>
  </g>
  <text
     xml:space="preserve"
     style="font-style:normal;font-weight:normal;font-size:160px;line-height:1.25;font-family:sans-serif;letter-spacing:0px;word-spacing:0px;fill:#000000;fill-opacity:1;stroke:none;stroke-width:4"
     x="-172.90683"
     y="369.43491"
     id="text3552"><tspan
       sodipodi:role="line"
       id="tspan3550"
       x="-172.90683"
       y="510.99741"
       style="stroke-width:4" /></text>
</svg>
