<?xml version="1.0" encoding="utf-8"?>
<svg xmlns="http://www.w3.org/2000/svg" xmlns:xlink="http://www.w3.org/1999/xlink" width="600" height="400" viewBox="0 0 2400 1600">
<defs>
  <clipPath id="clip070">
    <rect x="0" y="0" width="2400" height="1600"/>
  </clipPath>
</defs>
<path clip-path="url(#clip070)" d="
M0 1600 L2400 1600 L2400 0 L0 0  Z
  " fill="#ffffff" fill-rule="evenodd" fill-opacity="1"/>
<defs>
  <clipPath id="clip071">
    <rect x="480" y="0" width="1681" height="1600"/>
  </clipPath>
</defs>
<path clip-path="url(#clip070)" d="
M147.848 1486.45 L2352.76 1486.45 L2352.76 47.2441 L147.848 47.2441  Z
  " fill="#ffffff" fill-rule="evenodd" fill-opacity="1"/>
<defs>
  <clipPath id="clip072">
    <rect x="147" y="47" width="2206" height="1440"/>
  </clipPath>
</defs>
<polyline clip-path="url(#clip072)" style="stroke:#000000; stroke-width:2; stroke-opacity:0.1; fill:none" points="
  487.598,1486.45 487.598,47.2441 
  "/>
<polyline clip-path="url(#clip072)" style="stroke:#000000; stroke-width:2; stroke-opacity:0.1; fill:none" points="
  903.619,1486.45 903.619,47.2441 
  "/>
<polyline clip-path="url(#clip072)" style="stroke:#000000; stroke-width:2; stroke-opacity:0.1; fill:none" points="
  1319.64,1486.45 1319.64,47.2441 
  "/>
<polyline clip-path="url(#clip072)" style="stroke:#000000; stroke-width:2; stroke-opacity:0.1; fill:none" points="
  1735.66,1486.45 1735.66,47.2441 
  "/>
<polyline clip-path="url(#clip072)" style="stroke:#000000; stroke-width:2; stroke-opacity:0.1; fill:none" points="
  2151.68,1486.45 2151.68,47.2441 
  "/>
<polyline clip-path="url(#clip070)" style="stroke:#000000; stroke-width:4; stroke-opacity:1; fill:none" points="
  147.848,1486.45 2352.76,1486.45 
  "/>
<polyline clip-path="url(#clip070)" style="stroke:#000000; stroke-width:4; stroke-opacity:1; fill:none" points="
  487.598,1486.45 487.598,1469.18 
  "/>
<polyline clip-path="url(#clip070)" style="stroke:#000000; stroke-width:4; stroke-opacity:1; fill:none" points="
  903.619,1486.45 903.619,1469.18 
  "/>
<polyline clip-path="url(#clip070)" style="stroke:#000000; stroke-width:4; stroke-opacity:1; fill:none" points="
  1319.64,1486.45 1319.64,1469.18 
  "/>
<polyline clip-path="url(#clip070)" style="stroke:#000000; stroke-width:4; stroke-opacity:1; fill:none" points="
  1735.66,1486.45 1735.66,1469.18 
  "/>
<polyline clip-path="url(#clip070)" style="stroke:#000000; stroke-width:4; stroke-opacity:1; fill:none" points="
  2151.68,1486.45 2151.68,1469.18 
  "/>
<path clip-path="url(#clip070)" d="M 0 0 M459.578 1530.29 L489.253 1530.29 L489.253 1534.23 L459.578 1534.23 L459.578 1530.29 Z" fill="#000000" fill-rule="evenodd" fill-opacity="1" /><path clip-path="url(#clip070)" d="M 0 0 M508.489 1528.49 Q511.846 1529.2 513.721 1531.47 Q515.619 1533.74 515.619 1537.07 Q515.619 1542.19 512.1 1544.99 Q508.582 1547.79 502.1 1547.79 Q499.925 1547.79 497.61 1547.35 Q495.318 1546.93 492.864 1546.08 L492.864 1541.56 Q494.809 1542.7 497.124 1543.28 Q499.438 1543.86 501.962 1543.86 Q506.36 1543.86 508.651 1542.12 Q510.966 1540.38 510.966 1537.07 Q510.966 1534.02 508.813 1532.31 Q506.684 1530.57 502.864 1530.57 L498.837 1530.57 L498.837 1526.73 L503.05 1526.73 Q506.499 1526.73 508.327 1525.36 Q510.156 1523.97 510.156 1521.38 Q510.156 1518.72 508.258 1517.31 Q506.383 1515.87 502.864 1515.87 Q500.943 1515.87 498.744 1516.29 Q496.545 1516.7 493.906 1517.58 L493.906 1513.42 Q496.568 1512.68 498.883 1512.31 Q501.221 1511.93 503.281 1511.93 Q508.605 1511.93 511.707 1514.37 Q514.809 1516.77 514.809 1520.89 Q514.809 1523.76 513.165 1525.75 Q511.522 1527.72 508.489 1528.49 Z" fill="#000000" fill-rule="evenodd" fill-opacity="1" /><path clip-path="url(#clip070)" d="M 0 0 M903.619 1515.64 Q900.007 1515.64 898.179 1519.2 Q896.373 1522.75 896.373 1529.87 Q896.373 1536.98 898.179 1540.55 Q900.007 1544.09 903.619 1544.09 Q907.253 1544.09 909.058 1540.55 Q910.887 1536.98 910.887 1529.87 Q910.887 1522.75 909.058 1519.2 Q907.253 1515.64 903.619 1515.64 M903.619 1511.93 Q909.429 1511.93 912.484 1516.54 Q915.563 1521.12 915.563 1529.87 Q915.563 1538.6 912.484 1543.21 Q909.429 1547.79 903.619 1547.79 Q897.808 1547.79 894.73 1543.21 Q891.674 1538.6 891.674 1529.87 Q891.674 1521.12 894.73 1516.54 Q897.808 1511.93 903.619 1511.93 Z" fill="#000000" fill-rule="evenodd" fill-opacity="1" /><path clip-path="url(#clip070)" d="M 0 0 M1323.89 1528.49 Q1327.24 1529.2 1329.12 1531.47 Q1331.02 1533.74 1331.02 1537.07 Q1331.02 1542.19 1327.5 1544.99 Q1323.98 1547.79 1317.5 1547.79 Q1315.32 1547.79 1313.01 1547.35 Q1310.72 1546.93 1308.26 1546.08 L1308.26 1541.56 Q1310.21 1542.7 1312.52 1543.28 Q1314.84 1543.86 1317.36 1543.86 Q1321.76 1543.86 1324.05 1542.12 Q1326.36 1540.38 1326.36 1537.07 Q1326.36 1534.02 1324.21 1532.31 Q1322.08 1530.57 1318.26 1530.57 L1314.23 1530.57 L1314.23 1526.73 L1318.45 1526.73 Q1321.9 1526.73 1323.72 1525.36 Q1325.55 1523.97 1325.55 1521.38 Q1325.55 1518.72 1323.65 1517.31 Q1321.78 1515.87 1318.26 1515.87 Q1316.34 1515.87 1314.14 1516.29 Q1311.94 1516.7 1309.3 1517.58 L1309.3 1513.42 Q1311.97 1512.68 1314.28 1512.31 Q1316.62 1511.93 1318.68 1511.93 Q1324 1511.93 1327.1 1514.37 Q1330.21 1516.77 1330.21 1520.89 Q1330.21 1523.76 1328.56 1525.75 Q1326.92 1527.72 1323.89 1528.49 Z" fill="#000000" fill-rule="evenodd" fill-opacity="1" /><path clip-path="url(#clip070)" d="M 0 0 M1736.06 1527.98 Q1732.92 1527.98 1731.06 1530.13 Q1729.24 1532.28 1729.24 1536.03 Q1729.24 1539.76 1731.06 1541.93 Q1732.92 1544.09 1736.06 1544.09 Q1739.21 1544.09 1741.04 1541.93 Q1742.89 1539.76 1742.89 1536.03 Q1742.89 1532.28 1741.04 1530.13 Q1739.21 1527.98 1736.06 1527.98 M1745.35 1513.32 L1745.35 1517.58 Q1743.59 1516.75 1741.78 1516.31 Q1740 1515.87 1738.24 1515.87 Q1733.61 1515.87 1731.16 1519 Q1728.73 1522.12 1728.38 1528.44 Q1729.74 1526.43 1731.8 1525.36 Q1733.87 1524.27 1736.34 1524.27 Q1741.55 1524.27 1744.56 1527.44 Q1747.59 1530.59 1747.59 1536.03 Q1747.59 1541.36 1744.44 1544.57 Q1741.3 1547.79 1736.06 1547.79 Q1730.07 1547.79 1726.9 1543.21 Q1723.73 1538.6 1723.73 1529.87 Q1723.73 1521.68 1727.62 1516.82 Q1731.5 1511.93 1738.05 1511.93 Q1739.81 1511.93 1741.6 1512.28 Q1743.4 1512.63 1745.35 1513.32 Z" fill="#000000" fill-rule="evenodd" fill-opacity="1" /><path clip-path="url(#clip070)" d="M 0 0 M2141.98 1546.4 L2141.98 1542.14 Q2143.74 1542.98 2145.55 1543.42 Q2147.35 1543.86 2149.09 1543.86 Q2153.72 1543.86 2156.15 1540.75 Q2158.6 1537.63 2158.95 1531.29 Q2157.61 1533.28 2155.55 1534.34 Q2153.48 1535.41 2150.98 1535.41 Q2145.8 1535.41 2142.77 1532.28 Q2139.76 1529.13 2139.76 1523.69 Q2139.76 1518.37 2142.91 1515.15 Q2146.05 1511.93 2151.29 1511.93 Q2157.28 1511.93 2160.43 1516.54 Q2163.6 1521.12 2163.6 1529.87 Q2163.6 1538.05 2159.71 1542.93 Q2155.85 1547.79 2149.3 1547.79 Q2147.54 1547.79 2145.73 1547.44 Q2143.92 1547.1 2141.98 1546.4 M2151.29 1531.75 Q2154.43 1531.75 2156.26 1529.6 Q2158.11 1527.44 2158.11 1523.69 Q2158.11 1519.97 2156.26 1517.81 Q2154.43 1515.64 2151.29 1515.64 Q2148.14 1515.64 2146.29 1517.81 Q2144.46 1519.97 2144.46 1523.69 Q2144.46 1527.44 2146.29 1529.6 Q2148.14 1531.75 2151.29 1531.75 Z" fill="#000000" fill-rule="evenodd" fill-opacity="1" /><polyline clip-path="url(#clip072)" style="stroke:#000000; stroke-width:2; stroke-opacity:0.1; fill:none" points="
  147.848,1447.72 2352.76,1447.72 
  "/>
<polyline clip-path="url(#clip072)" style="stroke:#000000; stroke-width:2; stroke-opacity:0.1; fill:none" points="
  147.848,1199.68 2352.76,1199.68 
  "/>
<polyline clip-path="url(#clip072)" style="stroke:#000000; stroke-width:2; stroke-opacity:0.1; fill:none" points="
  147.848,951.626 2352.76,951.626 
  "/>
<polyline clip-path="url(#clip072)" style="stroke:#000000; stroke-width:2; stroke-opacity:0.1; fill:none" points="
  147.848,703.576 2352.76,703.576 
  "/>
<polyline clip-path="url(#clip072)" style="stroke:#000000; stroke-width:2; stroke-opacity:0.1; fill:none" points="
  147.848,455.527 2352.76,455.527 
  "/>
<polyline clip-path="url(#clip072)" style="stroke:#000000; stroke-width:2; stroke-opacity:0.1; fill:none" points="
  147.848,207.477 2352.76,207.477 
  "/>
<polyline clip-path="url(#clip070)" style="stroke:#000000; stroke-width:4; stroke-opacity:1; fill:none" points="
  147.848,1486.45 147.848,47.2441 
  "/>
<polyline clip-path="url(#clip070)" style="stroke:#000000; stroke-width:4; stroke-opacity:1; fill:none" points="
  147.848,1447.72 174.307,1447.72 
  "/>
<polyline clip-path="url(#clip070)" style="stroke:#000000; stroke-width:4; stroke-opacity:1; fill:none" points="
  147.848,1199.68 174.307,1199.68 
  "/>
<polyline clip-path="url(#clip070)" style="stroke:#000000; stroke-width:4; stroke-opacity:1; fill:none" points="
  147.848,951.626 174.307,951.626 
  "/>
<polyline clip-path="url(#clip070)" style="stroke:#000000; stroke-width:4; stroke-opacity:1; fill:none" points="
  147.848,703.576 174.307,703.576 
  "/>
<polyline clip-path="url(#clip070)" style="stroke:#000000; stroke-width:4; stroke-opacity:1; fill:none" points="
  147.848,455.527 174.307,455.527 
  "/>
<polyline clip-path="url(#clip070)" style="stroke:#000000; stroke-width:4; stroke-opacity:1; fill:none" points="
  147.848,207.477 174.307,207.477 
  "/>
<path clip-path="url(#clip070)" d="M 0 0 M62.9365 1433.52 Q59.3254 1433.52 57.4967 1437.09 Q55.6912 1440.63 55.6912 1447.76 Q55.6912 1454.87 57.4967 1458.43 Q59.3254 1461.97 62.9365 1461.97 Q66.5707 1461.97 68.3763 1458.43 Q70.205 1454.87 70.205 1447.76 Q70.205 1440.63 68.3763 1437.09 Q66.5707 1433.52 62.9365 1433.52 M62.9365 1429.82 Q68.7467 1429.82 71.8022 1434.43 Q74.8809 1439.01 74.8809 1447.76 Q74.8809 1456.49 71.8022 1461.09 Q68.7467 1465.68 62.9365 1465.68 Q57.1264 1465.68 54.0477 1461.09 Q50.9921 1456.49 50.9921 1447.76 Q50.9921 1439.01 54.0477 1434.43 Q57.1264 1429.82 62.9365 1429.82 Z" fill="#000000" fill-rule="evenodd" fill-opacity="1" /><path clip-path="url(#clip070)" d="M 0 0 M79.9503 1459.13 L84.8345 1459.13 L84.8345 1465 L79.9503 1465 L79.9503 1459.13 Z" fill="#000000" fill-rule="evenodd" fill-opacity="1" /><path clip-path="url(#clip070)" d="M 0 0 M99.9039 1433.52 Q96.2928 1433.52 94.4641 1437.09 Q92.6586 1440.63 92.6586 1447.76 Q92.6586 1454.87 94.4641 1458.43 Q96.2928 1461.97 99.9039 1461.97 Q103.538 1461.97 105.344 1458.43 Q107.172 1454.87 107.172 1447.76 Q107.172 1440.63 105.344 1437.09 Q103.538 1433.52 99.9039 1433.52 M99.9039 1429.82 Q105.714 1429.82 108.77 1434.43 Q111.848 1439.01 111.848 1447.76 Q111.848 1456.49 108.77 1461.09 Q105.714 1465.68 99.9039 1465.68 Q94.0937 1465.68 91.0151 1461.09 Q87.9595 1456.49 87.9595 1447.76 Q87.9595 1439.01 91.0151 1434.43 Q94.0937 1429.82 99.9039 1429.82 Z" fill="#000000" fill-rule="evenodd" fill-opacity="1" /><path clip-path="url(#clip070)" d="M 0 0 M63.9319 1185.47 Q60.3208 1185.47 58.4921 1189.04 Q56.6865 1192.58 56.6865 1199.71 Q56.6865 1206.82 58.4921 1210.38 Q60.3208 1213.92 63.9319 1213.92 Q67.5661 1213.92 69.3717 1210.38 Q71.2004 1206.82 71.2004 1199.71 Q71.2004 1192.58 69.3717 1189.04 Q67.5661 1185.47 63.9319 1185.47 M63.9319 1181.77 Q69.742 1181.77 72.7976 1186.38 Q75.8763 1190.96 75.8763 1199.71 Q75.8763 1208.44 72.7976 1213.04 Q69.742 1217.63 63.9319 1217.63 Q58.1217 1217.63 55.043 1213.04 Q51.9875 1208.44 51.9875 1199.71 Q51.9875 1190.96 55.043 1186.38 Q58.1217 1181.77 63.9319 1181.77 Z" fill="#000000" fill-rule="evenodd" fill-opacity="1" /><path clip-path="url(#clip070)" d="M 0 0 M80.9457 1211.08 L85.8299 1211.08 L85.8299 1216.96 L80.9457 1216.96 L80.9457 1211.08 Z" fill="#000000" fill-rule="evenodd" fill-opacity="1" /><path clip-path="url(#clip070)" d="M 0 0 M90.9456 1182.4 L109.302 1182.4 L109.302 1186.33 L95.228 1186.33 L95.228 1194.8 Q96.2465 1194.46 97.265 1194.29 Q98.2835 1194.11 99.3021 1194.11 Q105.089 1194.11 108.469 1197.28 Q111.848 1200.45 111.848 1205.87 Q111.848 1211.45 108.376 1214.55 Q104.904 1217.63 98.5845 1217.63 Q96.4085 1217.63 94.14 1217.26 Q91.8947 1216.89 89.4873 1216.14 L89.4873 1211.45 Q91.5706 1212.58 93.7928 1213.14 Q96.015 1213.69 98.4919 1213.69 Q102.496 1213.69 104.834 1211.58 Q107.172 1209.48 107.172 1205.87 Q107.172 1202.26 104.834 1200.15 Q102.496 1198.04 98.4919 1198.04 Q96.6169 1198.04 94.7419 1198.46 Q92.89 1198.88 90.9456 1199.76 L90.9456 1182.4 Z" fill="#000000" fill-rule="evenodd" fill-opacity="1" /><path clip-path="url(#clip070)" d="M 0 0 M54.9736 964.97 L62.6124 964.97 L62.6124 938.605 L54.3023 940.271 L54.3023 936.012 L62.5661 934.346 L67.242 934.346 L67.242 964.97 L74.8809 964.97 L74.8809 968.906 L54.9736 968.906 L54.9736 964.97 Z" fill="#000000" fill-rule="evenodd" fill-opacity="1" /><path clip-path="url(#clip070)" d="M 0 0 M79.9503 963.026 L84.8345 963.026 L84.8345 968.906 L79.9503 968.906 L79.9503 963.026 Z" fill="#000000" fill-rule="evenodd" fill-opacity="1" /><path clip-path="url(#clip070)" d="M 0 0 M99.9039 937.424 Q96.2928 937.424 94.4641 940.989 Q92.6586 944.531 92.6586 951.66 Q92.6586 958.767 94.4641 962.332 Q96.2928 965.873 99.9039 965.873 Q103.538 965.873 105.344 962.332 Q107.172 958.767 107.172 951.66 Q107.172 944.531 105.344 940.989 Q103.538 937.424 99.9039 937.424 M99.9039 933.721 Q105.714 933.721 108.77 938.327 Q111.848 942.91 111.848 951.66 Q111.848 960.387 108.77 964.994 Q105.714 969.577 99.9039 969.577 Q94.0937 969.577 91.0151 964.994 Q87.9595 960.387 87.9595 951.66 Q87.9595 942.91 91.0151 938.327 Q94.0937 933.721 99.9039 933.721 Z" fill="#000000" fill-rule="evenodd" fill-opacity="1" /><path clip-path="url(#clip070)" d="M 0 0 M55.969 716.921 L63.6078 716.921 L63.6078 690.555 L55.2977 692.222 L55.2977 687.963 L63.5615 686.296 L68.2374 686.296 L68.2374 716.921 L75.8763 716.921 L75.8763 720.856 L55.969 720.856 L55.969 716.921 Z" fill="#000000" fill-rule="evenodd" fill-opacity="1" /><path clip-path="url(#clip070)" d="M 0 0 M80.9457 714.976 L85.8299 714.976 L85.8299 720.856 L80.9457 720.856 L80.9457 714.976 Z" fill="#000000" fill-rule="evenodd" fill-opacity="1" /><path clip-path="url(#clip070)" d="M 0 0 M90.9456 686.296 L109.302 686.296 L109.302 690.231 L95.228 690.231 L95.228 698.703 Q96.2465 698.356 97.265 698.194 Q98.2835 698.009 99.3021 698.009 Q105.089 698.009 108.469 701.18 Q111.848 704.352 111.848 709.768 Q111.848 715.347 108.376 718.449 Q104.904 721.527 98.5845 721.527 Q96.4085 721.527 94.14 721.157 Q91.8947 720.787 89.4873 720.046 L89.4873 715.347 Q91.5706 716.481 93.7928 717.037 Q96.015 717.592 98.4919 717.592 Q102.496 717.592 104.834 715.486 Q107.172 713.379 107.172 709.768 Q107.172 706.157 104.834 704.051 Q102.496 701.944 98.4919 701.944 Q96.6169 701.944 94.7419 702.361 Q92.89 702.777 90.9456 703.657 L90.9456 686.296 Z" fill="#000000" fill-rule="evenodd" fill-opacity="1" /><path clip-path="url(#clip070)" d="M 0 0 M58.5615 468.871 L74.8809 468.871 L74.8809 472.807 L52.9366 472.807 L52.9366 468.871 Q55.5986 466.117 60.1819 461.487 Q64.7883 456.834 65.9689 455.492 Q68.2143 452.969 69.0939 451.233 Q69.9967 449.473 69.9967 447.784 Q69.9967 445.029 68.0522 443.293 Q66.1309 441.557 63.0291 441.557 Q60.83 441.557 58.3763 442.321 Q55.9458 443.084 53.168 444.635 L53.168 439.913 Q55.9921 438.779 58.4458 438.2 Q60.8995 437.622 62.9365 437.622 Q68.3068 437.622 71.5013 440.307 Q74.6957 442.992 74.6957 447.483 Q74.6957 449.612 73.8855 451.533 Q73.0985 453.432 70.992 456.024 Q70.4133 456.695 67.3115 459.913 Q64.2096 463.107 58.5615 468.871 Z" fill="#000000" fill-rule="evenodd" fill-opacity="1" /><path clip-path="url(#clip070)" d="M 0 0 M79.9503 466.927 L84.8345 466.927 L84.8345 472.807 L79.9503 472.807 L79.9503 466.927 Z" fill="#000000" fill-rule="evenodd" fill-opacity="1" /><path clip-path="url(#clip070)" d="M 0 0 M99.9039 441.325 Q96.2928 441.325 94.4641 444.89 Q92.6586 448.432 92.6586 455.561 Q92.6586 462.668 94.4641 466.232 Q96.2928 469.774 99.9039 469.774 Q103.538 469.774 105.344 466.232 Q107.172 462.668 107.172 455.561 Q107.172 448.432 105.344 444.89 Q103.538 441.325 99.9039 441.325 M99.9039 437.622 Q105.714 437.622 108.77 442.228 Q111.848 446.811 111.848 455.561 Q111.848 464.288 108.77 468.894 Q105.714 473.478 99.9039 473.478 Q94.0937 473.478 91.0151 468.894 Q87.9595 464.288 87.9595 455.561 Q87.9595 446.811 91.0151 442.228 Q94.0937 437.622 99.9039 437.622 Z" fill="#000000" fill-rule="evenodd" fill-opacity="1" /><path clip-path="url(#clip070)" d="M 0 0 M59.5569 220.822 L75.8763 220.822 L75.8763 224.757 L53.9319 224.757 L53.9319 220.822 Q56.5939 218.067 61.1773 213.438 Q65.7837 208.785 66.9643 207.442 Q69.2096 204.919 70.0892 203.183 Q70.992 201.424 70.992 199.734 Q70.992 196.979 69.0476 195.243 Q67.1263 193.507 64.0245 193.507 Q61.8254 193.507 59.3717 194.271 Q56.9412 195.035 54.1634 196.586 L54.1634 191.864 Q56.9875 190.729 59.4412 190.151 Q61.8948 189.572 63.9319 189.572 Q69.3022 189.572 72.4966 192.257 Q75.6911 194.942 75.6911 199.433 Q75.6911 201.563 74.8809 203.484 Q74.0939 205.382 71.9874 207.975 Q71.4087 208.646 68.3068 211.864 Q65.205 215.058 59.5569 220.822 Z" fill="#000000" fill-rule="evenodd" fill-opacity="1" /><path clip-path="url(#clip070)" d="M 0 0 M80.9457 218.877 L85.8299 218.877 L85.8299 224.757 L80.9457 224.757 L80.9457 218.877 Z" fill="#000000" fill-rule="evenodd" fill-opacity="1" /><path clip-path="url(#clip070)" d="M 0 0 M90.9456 190.197 L109.302 190.197 L109.302 194.132 L95.228 194.132 L95.228 202.604 Q96.2465 202.257 97.265 202.095 Q98.2835 201.91 99.3021 201.91 Q105.089 201.91 108.469 205.081 Q111.848 208.252 111.848 213.669 Q111.848 219.248 108.376 222.35 Q104.904 225.428 98.5845 225.428 Q96.4085 225.428 94.14 225.058 Q91.8947 224.688 89.4873 223.947 L89.4873 219.248 Q91.5706 220.382 93.7928 220.938 Q96.015 221.493 98.4919 221.493 Q102.496 221.493 104.834 219.387 Q107.172 217.28 107.172 213.669 Q107.172 210.058 104.834 207.952 Q102.496 205.845 98.4919 205.845 Q96.6169 205.845 94.7419 206.262 Q92.89 206.678 90.9456 207.558 L90.9456 190.197 Z" fill="#000000" fill-rule="evenodd" fill-opacity="1" /><polyline clip-path="url(#clip072)" style="stroke:#009af9; stroke-width:4; stroke-opacity:1; fill:none" points="
  210.251,1445.72 212.334,1445.7 214.416,1445.69 216.498,1445.68 218.58,1445.67 220.662,1445.65 222.744,1445.64 224.827,1445.63 226.909,1445.62 228.991,1445.6 
  231.073,1445.59 233.155,1445.58 235.238,1445.56 237.32,1445.55 239.402,1445.54 241.484,1445.52 243.566,1445.51 245.648,1445.49 247.731,1445.48 249.813,1445.47 
  251.895,1445.45 253.977,1445.44 256.059,1445.42 258.142,1445.41 260.224,1445.39 262.306,1445.38 264.388,1445.36 266.47,1445.35 268.552,1445.33 270.635,1445.31 
  272.717,1445.3 274.799,1445.28 276.881,1445.27 278.963,1445.25 281.046,1445.23 283.128,1445.22 285.21,1445.2 287.292,1445.18 289.374,1445.17 291.456,1445.15 
  293.539,1445.13 295.621,1445.11 297.703,1445.1 299.785,1445.08 301.867,1445.06 303.95,1445.04 306.032,1445.02 308.114,1445 310.196,1444.98 312.278,1444.96 
  314.361,1444.95 316.443,1444.93 318.525,1444.91 320.607,1444.89 322.689,1444.87 324.771,1444.84 326.854,1444.82 328.936,1444.8 331.018,1444.78 333.1,1444.76 
  335.182,1444.74 337.265,1444.72 339.347,1444.69 341.429,1444.67 343.511,1444.65 345.593,1444.63 347.675,1444.6 349.758,1444.58 351.84,1444.56 353.922,1444.53 
  356.004,1444.51 358.086,1444.48 360.169,1444.46 362.251,1444.43 364.333,1444.41 366.415,1444.38 368.497,1444.36 370.579,1444.33 372.662,1444.3 374.744,1444.28 
  376.826,1444.25 378.908,1444.22 380.99,1444.19 383.073,1444.17 385.155,1444.14 387.237,1444.11 389.319,1444.08 391.401,1444.05 393.483,1444.02 395.566,1443.99 
  397.648,1443.96 399.73,1443.93 401.812,1443.9 403.894,1443.87 405.977,1443.83 408.059,1443.8 410.141,1443.77 412.223,1443.73 414.305,1443.7 416.388,1443.67 
  418.47,1443.63 420.552,1443.6 422.634,1443.56 424.716,1443.52 426.798,1443.49 428.881,1443.45 430.963,1443.41 433.045,1443.38 435.127,1443.34 437.209,1443.3 
  439.292,1443.26 441.374,1443.22 443.456,1443.18 445.538,1443.14 447.62,1443.1 449.702,1443.05 451.785,1443.01 453.867,1442.97 455.949,1442.92 458.031,1442.88 
  460.113,1442.83 462.196,1442.79 464.278,1442.74 466.36,1442.69 468.442,1442.65 470.524,1442.6 472.606,1442.55 474.689,1442.5 476.771,1442.45 478.853,1442.4 
  480.935,1442.34 483.017,1442.29 485.1,1442.24 487.182,1442.18 489.264,1442.13 491.346,1442.07 493.428,1442.02 495.51,1441.96 497.593,1441.9 499.675,1441.84 
  501.757,1441.78 503.839,1441.72 505.921,1441.66 508.004,1441.59 510.086,1441.53 512.168,1441.46 514.25,1441.4 516.332,1441.33 518.415,1441.26 520.497,1441.19 
  522.579,1441.12 524.661,1441.05 526.743,1440.98 528.825,1440.9 530.908,1440.83 532.99,1440.75 535.072,1440.68 537.154,1440.6 539.236,1440.52 541.319,1440.44 
  543.401,1440.35 545.483,1440.27 547.565,1440.18 549.647,1440.1 551.729,1440.01 553.812,1439.92 555.894,1439.82 557.976,1439.73 560.058,1439.64 562.14,1439.54 
  564.223,1439.44 566.305,1439.34 568.387,1439.24 570.469,1439.14 572.551,1439.03 574.633,1438.92 576.716,1438.81 578.798,1438.7 580.88,1438.59 582.962,1438.47 
  585.044,1438.36 587.127,1438.24 589.209,1438.11 591.291,1437.99 593.373,1437.86 595.455,1437.73 597.537,1437.6 599.62,1437.47 601.702,1437.33 603.784,1437.19 
  605.866,1437.05 607.948,1436.9 610.031,1436.75 612.113,1436.6 614.195,1436.45 616.277,1436.29 618.359,1436.13 620.442,1435.97 622.524,1435.8 624.606,1435.63 
  626.688,1435.46 628.77,1435.28 630.852,1435.1 632.935,1434.91 635.017,1434.72 637.099,1434.53 639.181,1434.33 641.263,1434.13 643.346,1433.93 645.428,1433.72 
  647.51,1433.5 649.592,1433.28 651.674,1433.06 653.756,1432.83 655.839,1432.59 657.921,1432.35 660.003,1432.11 662.085,1431.86 664.167,1431.6 666.25,1431.34 
  668.332,1431.07 670.414,1430.79 672.496,1430.51 674.578,1430.22 676.66,1429.93 678.743,1429.62 680.825,1429.31 682.907,1429 684.989,1428.67 687.071,1428.34 
  689.154,1428 691.236,1427.65 693.318,1427.29 695.4,1426.92 697.482,1426.55 699.565,1426.16 701.647,1425.77 703.729,1425.36 705.811,1424.94 707.893,1424.52 
  709.975,1424.08 712.058,1423.63 714.14,1423.17 716.222,1422.69 718.304,1422.21 720.386,1421.71 722.469,1421.2 724.551,1420.67 726.633,1420.13 728.715,1419.57 
  730.797,1419 732.879,1418.42 734.962,1417.81 737.044,1417.19 739.126,1416.56 741.208,1415.9 743.29,1415.23 745.373,1414.54 747.455,1413.83 749.537,1413.09 
  751.619,1412.34 753.701,1411.57 755.783,1410.77 757.866,1409.95 759.948,1409.1 762.03,1408.23 764.112,1407.33 766.194,1406.41 768.277,1405.46 770.359,1404.48 
  772.441,1403.48 774.523,1402.44 776.605,1401.37 778.687,1400.26 780.77,1399.13 782.852,1397.96 784.934,1396.75 787.016,1395.5 789.098,1394.22 791.181,1392.9 
  793.263,1391.53 795.345,1390.12 797.427,1388.67 799.509,1387.18 801.592,1385.63 803.674,1384.04 805.756,1382.39 807.838,1380.69 809.92,1378.94 812.002,1377.13 
  814.085,1375.27 816.167,1373.34 818.249,1371.35 820.331,1369.3 822.413,1367.18 824.496,1364.99 826.578,1362.73 828.66,1360.4 830.742,1357.99 832.824,1355.5 
  834.906,1352.93 836.989,1350.27 839.071,1347.53 841.153,1344.7 843.235,1341.77 845.317,1338.75 847.4,1335.63 849.482,1332.41 851.564,1329.08 853.646,1325.64 
  855.728,1322.09 857.81,1318.42 859.893,1314.63 861.975,1310.72 864.057,1306.68 866.139,1302.51 868.221,1298.2 870.304,1293.75 872.386,1289.15 874.468,1284.41 
  876.55,1279.51 878.632,1274.46 880.714,1269.24 882.797,1263.85 884.879,1258.29 886.961,1252.56 889.043,1246.64 891.125,1240.53 893.208,1234.23 895.29,1227.74 
  897.372,1221.04 899.454,1214.13 901.536,1207.01 903.619,1199.68 905.701,1192.11 907.783,1184.32 909.865,1176.3 911.947,1168.03 914.029,1159.52 916.112,1150.77 
  918.194,1141.75 920.276,1132.48 922.358,1122.94 924.44,1113.13 926.523,1103.05 928.605,1092.69 930.687,1082.05 932.769,1071.12 934.851,1059.89 936.933,1048.38 
  939.016,1036.57 941.098,1024.45 943.18,1012.03 945.262,999.312 947.344,986.282 949.427,972.944 951.509,959.296 953.591,945.338 955.673,931.071 957.755,916.495 
  959.837,901.611 961.92,886.422 964.002,870.931 966.084,855.141 968.166,839.056 970.248,822.683 972.331,806.026 974.413,789.094 976.495,771.894 978.577,754.435 
  980.659,736.728 982.741,718.784 984.824,700.615 986.906,682.236 988.988,663.66 991.07,644.904 993.152,625.986 995.235,606.924 997.317,587.739 999.399,568.452 
  1001.48,549.085 1003.56,529.665 1005.65,510.215 1007.73,490.764 1009.81,471.34 1011.89,451.973 1013.97,432.696 1016.06,413.539 1018.14,394.539 1020.22,375.73 
  1022.3,357.15 1024.39,338.836 1026.47,320.828 1028.55,303.166 1030.63,285.892 1032.71,269.046 1034.8,252.674 1036.88,236.817 1038.96,221.52 1041.04,206.827 
  1043.12,192.784 1045.21,179.434 1047.29,166.822 1049.37,154.992 1051.45,143.987 1053.54,133.851 1055.62,124.624 1057.7,116.346 1059.78,109.058 1061.86,102.794 
  1063.95,97.5903 1066.03,93.4786 1068.11,90.4886 1070.19,88.6468 1072.28,87.9763 1074.36,88.4968 1076.44,90.2239 1078.52,93.1692 1080.6,97.3397 1082.69,102.737 
  1084.77,109.36 1086.85,117.198 1088.93,126.239 1091.02,136.464 1093.1,147.845 1095.18,160.353 1097.26,173.948 1099.34,188.586 1101.43,204.218 1103.51,220.784 
  1105.59,238.221 1107.67,256.459 1109.75,275.42 1111.84,295.022 1113.92,315.176 1116,335.786 1118.08,356.753 1120.17,377.971 1122.25,399.331 1124.33,420.717 
  1126.41,442.013 1128.49,463.099 1130.58,483.851 1132.66,504.145 1134.74,523.858 1136.82,542.864 1138.91,561.04 1140.99,578.265 1143.07,594.42 1145.15,609.392 
  1147.23,623.072 1149.32,635.357 1151.4,646.152 1153.48,655.369 1155.56,662.932 1157.64,668.772 1159.73,672.835 1161.81,675.076 1163.89,675.467 1165.97,673.99 
  1168.06,670.644 1170.14,665.443 1172.22,658.417 1174.3,649.613 1176.38,639.091 1178.47,626.931 1180.55,613.228 1182.63,598.093 1184.71,581.653 1186.8,564.05 
  1188.88,545.438 1190.96,525.987 1193.04,505.878 1195.12,485.301 1197.21,464.455 1199.29,443.548 1201.37,422.792 1203.45,402.4 1205.54,382.589 1207.62,363.571 
  1209.7,345.557 1211.78,328.749 1213.86,313.34 1215.95,299.513 1218.03,287.435 1220.11,277.257 1222.19,269.109 1224.27,263.103 1226.36,259.324 1228.44,257.834 
  1230.52,258.666 1232.6,261.828 1234.69,267.296 1236.77,275.016 1238.85,284.905 1240.93,296.85 1243.01,310.709 1245.1,326.311 1247.18,343.458 1249.26,361.928 
  1251.34,381.475 1253.43,401.836 1255.51,422.728 1257.59,443.86 1259.67,464.927 1261.75,485.624 1263.84,505.644 1265.92,524.685 1268,542.454 1270.08,558.674 
  1272.17,573.086 1274.25,585.455 1276.33,595.576 1278.41,603.276 1280.49,608.417 1282.58,610.903 1284.66,610.679 1286.74,607.736 1288.82,602.109 1290.9,593.882 
  1292.99,583.183 1295.07,570.189 1297.15,555.117 1299.23,538.227 1301.32,519.815 1303.4,500.209 1305.48,479.767 1307.56,458.864 1309.64,437.893 1311.73,417.253 
  1313.81,397.342 1315.89,378.553 1317.97,361.259 1320.06,345.811 1322.14,332.529 1324.22,321.691 1326.3,313.533 1328.38,308.236 1330.47,305.925 1332.55,306.665 
  1334.63,310.456 1336.71,317.232 1338.79,326.863 1340.88,339.152 1342.96,353.842 1345.04,370.62 1347.12,389.12 1349.21,408.931 1351.29,429.607 1353.37,450.676 
  1355.45,471.649 1357.53,492.035 1359.62,511.347 1361.7,529.119 1363.78,544.915 1365.86,558.343 1367.95,569.062 1370.03,576.794 1372.11,581.334 1374.19,582.554 
  1376.27,580.409 1378.36,574.941 1380.44,566.278 1382.52,554.634 1384.6,540.306 1386.69,523.663 1388.77,505.145 1390.85,485.248 1392.93,464.509 1395.01,443.499 
  1397.1,422.801 1399.18,402.999 1401.26,384.658 1403.34,368.307 1405.42,354.426 1407.51,343.429 1409.59,335.65 1411.67,331.332 1413.75,330.62 1415.84,333.548 
  1417.92,340.046 1420,349.929 1422.08,362.91 1424.16,378.598 1426.25,396.517 1428.33,416.111 1430.41,436.768 1432.49,457.832 1434.58,478.627 1436.66,498.478 
  1438.74,516.732 1440.82,532.782 1442.9,546.087 1444.99,556.192 1447.07,562.745 1449.15,565.51 1451.23,564.379 1453.32,559.378 1455.4,550.666 1457.48,538.536 
  1459.56,523.405 1461.64,505.802 1463.73,486.348 1465.81,465.741 1467.89,444.727 1469.97,424.076 1472.05,404.553 1474.14,386.889 1476.22,371.753 1478.3,359.727 
  1480.38,351.28 1482.47,346.749 1484.55,346.323 1486.63,350.034 1488.71,357.752 1490.79,369.188 1492.88,383.902 1494.96,401.318 1497.04,420.744 1499.12,441.402 
  1501.21,462.453 1503.29,483.033 1505.37,502.291 1507.45,519.419 1509.53,533.693 1511.62,544.5 1513.7,551.369 1515.78,553.995 1517.86,552.25 1519.94,546.196 
  1522.03,536.085 1524.11,522.349 1526.19,505.584 1528.27,486.531 1530.36,466.037 1532.44,445.026 1534.52,424.451 1536.6,405.259 1538.68,388.338 1540.77,374.482 
  1542.85,364.349 1544.93,358.428 1547.01,357.013 1549.1,360.186 1551.18,367.811 1553.26,379.535 1555.34,394.802 1557.42,412.877 1559.51,432.881 1561.59,453.831 
  1563.67,474.688 1565.75,494.405 1567.84,511.987 1569.92,526.534 1572,537.296 1574.08,543.708 1576.16,545.427 1578.25,542.349 1580.33,534.622 1582.41,522.64 
  1584.49,507.025 1586.57,488.601 1588.66,468.346 1590.74,447.351 1592.82,426.754 1594.9,407.68 1596.99,391.185 1599.07,378.188 1601.15,369.422 1603.23,365.392 
  1605.31,366.338 1607.4,372.221 1609.48,382.723 1611.56,397.254 1613.64,414.991 1615.73,434.914 1617.81,455.869 1619.89,476.63 1621.97,495.974 1624.05,512.749 
  1626.14,525.948 1628.22,534.769 1630.3,538.668 1632.38,537.396 1634.46,531.016 1636.55,519.908 1638.63,504.743 1640.71,486.453 1642.79,466.173 1644.88,445.171 
  1646.96,424.773 1649.04,406.275 1651.12,390.865 1653.2,379.541 1655.29,373.047 1657.37,371.816 1659.45,375.946 1661.53,385.178 1663.62,398.919 1665.7,416.268 
  1667.78,436.079 1669.86,457.029 1671.94,477.708 1674.03,496.714 1676.11,512.747 1678.19,524.701 1680.27,531.741 1682.36,533.369 1684.44,529.456 1686.52,520.264 
  1688.6,506.426 1690.68,488.911 1692.77,468.956 1694.85,447.983 1696.93,427.497 1699.01,408.983 1701.09,393.789 1703.18,383.036 1705.26,377.524 1707.34,377.674 
  1709.42,383.489 1711.51,394.55 1713.59,410.043 1715.67,428.811 1717.75,449.442 1719.83,470.371 1721.92,489.999 1724,506.814 1726.08,519.511 1728.16,527.093 
  1730.25,528.957 1732.33,524.944 1734.41,515.356 1736.49,500.94 1738.57,482.834 1740.66,462.477 1742.74,441.501 1744.82,421.602 1746.9,404.399 1748.99,391.301 
  1751.07,383.395 1753.15,381.344 1755.23,385.333 1757.31,395.044 1759.4,409.679 1761.48,428.02 1763.56,448.528 1765.64,469.468 1767.72,489.056 1769.81,505.612 
  1771.89,517.704 1773.97,524.276 1776.05,524.745 1778.14,519.057 1780.22,507.697 1782.3,491.654 1784.38,472.339 1786.46,451.464 1788.55,430.892 1790.63,412.472 
  1792.71,397.871 1794.79,388.423 1796.88,385 1798.96,387.929 1801.04,396.955 1803.12,411.26 1805.2,429.527 1807.29,450.064 1809.37,470.952 1811.45,490.23 
  1813.53,506.071 1815.61,516.965 1817.7,521.863 1819.78,520.283 1821.86,512.364 1823.94,498.859 1826.03,481.065 1828.11,460.712 1830.19,439.786 1832.27,420.348 
  1834.35,404.322 1836.44,393.306 1838.52,388.411 1840.6,390.14 1842.68,398.334 1844.77,412.179 1846.85,430.282 1848.93,450.807 1851.01,471.658 1853.09,490.692 
  1855.18,505.938 1857.26,515.81 1859.34,519.266 1861.42,515.933 1863.51,506.147 1865.59,490.929 1867.67,471.881 1869.75,451.023 1871.83,430.583 1873.92,412.756 
  1876,399.471 1878.08,392.175 1880.16,391.675 1882.24,398.04 1884.33,410.586 1886.41,427.943 1888.49,448.203 1890.57,469.122 1892.66,488.367 1894.74,503.781 
  1896.82,513.623 1898.9,516.772 1900.98,512.856 1903.07,502.309 1905.15,486.324 1907.23,466.726 1909.31,445.768 1911.4,425.875 1913.48,409.361 1915.56,398.16 
  1917.64,393.597 1919.72,396.221 1921.81,405.737 1923.89,421.03 1925.97,440.289 1928.05,461.219 1930.14,481.311 1932.22,498.141 1934.3,509.665 1936.38,514.475 
  1938.46,511.97 1940.55,502.444 1942.63,487.057 1944.71,467.696 1946.79,446.757 1948.87,426.842 1950.96,410.442 1953.04,399.623 1955.12,395.757 1957.2,399.347 
  1959.29,409.951 1961.37,426.231 1963.45,446.116 1965.53,467.058 1967.61,486.36 1969.7,501.52 1971.78,510.563 1973.86,512.297 1975.94,506.482 1978.03,493.87 
  1980.11,476.113 1982.19,455.555 1984.27,434.923 1986.35,416.973 1988.44,404.114 1990.52,398.086 1992.6,399.715 1994.68,408.795 1996.76,424.103 1998.85,443.562 
  2000.93,464.511 2003.01,484.072 2005.09,499.542 2007.18,508.769 2009.26,510.46 2011.34,504.364 2013.42,491.324 2015.5,473.163 2017.59,452.436 2019.67,432.077 
  2021.75,414.984 2023.83,403.603 2025.92,399.576 2028,403.494 2030.08,414.807 2032.16,431.888 2034.24,452.264 2036.33,472.966 2038.41,490.963 2040.49,503.605 
  2042.57,509.017 2044.66,506.387 2046.74,496.092 2048.82,479.655 2050.9,459.527 2052.98,438.726 2055.07,420.387 2057.15,407.291 2059.23,401.434 2061.31,403.722 
  2063.39,413.819 2065.48,430.188 2067.56,450.32 2069.64,471.108 2071.72,489.329 2073.81,502.144 2075.89,507.542 2077.97,504.664 2080.05,493.951 2082.13,477.082 
  2084.22,456.718 2086.3,436.093 2088.38,418.496 2090.46,406.749 2092.55,402.75 2094.63,407.156 2096.71,419.268 2098.79,437.132 2100.87,457.85 2102.96,478.04 
  2105.04,494.39 2107.12,504.205 2109.2,505.854 2111.29,499.051 2113.37,484.914 2115.45,465.79 2117.53,444.873 2119.61,425.673 2121.7,411.428 2123.78,404.556 
  2125.86,406.234 2127.94,416.19 2130.02,432.736 2132.11,453.049 2134.19,473.641 2136.27,490.961 2138.35,502.006 2140.44,504.849 2142.52,498.981 2144.6,485.416 
  2146.68,466.523 2148.76,445.617 2150.85,426.388 2152.93,412.245 2155.01,405.71 2157.09,407.961 2159.18,418.607 2161.26,435.752 2163.34,456.317 2165.42,476.594 
  2167.5,492.906 2169.59,502.283 2171.67,503.002 2173.75,494.92 2175.83,479.509 2177.91,459.597 2180,438.856 2182.08,421.133 2184.16,409.727 2186.24,406.778 
  2188.33,412.849 2190.41,426.815 2192.49,446.056 2194.57,466.944 2196.65,485.521 2198.74,498.251 2200.82,502.698 2202.9,497.998 2204.98,485.04 2207.07,466.31 
  2209.15,445.418 2211.23,426.411 2213.31,412.988 2215.39,407.775 2217.48,411.804 2219.56,424.298 2221.64,442.81 2223.72,463.692 2225.81,482.812 2227.89,496.367 
  2229.97,501.647 2232.05,497.587 2234.13,484.987 2236.22,466.371 2238.3,445.487 2240.38,426.561 2242.46,413.438 2244.54,408.8 2246.63,413.606 2248.71,426.886 
  2250.79,445.921 2252.87,466.795 2254.96,485.195 2257.04,497.3 2259.12,500.583 2261.2,494.349 2263.28,479.888 2265.37,460.226 2267.45,439.497 2269.53,422.078 
  2271.61,411.664 2273.7,410.478 2275.78,418.785 2277.86,434.822 2279.94,455.163 2282.02,475.439 2284.11,491.278 2286.19,499.248 2288.27,497.609 2290.35,486.706 
  
  "/>
<path clip-path="url(#clip070)" d="
M1983.25 216.178 L2279.26 216.178 L2279.26 95.2176 L1983.25 95.2176  Z
  " fill="#ffffff" fill-rule="evenodd" fill-opacity="1"/>
<polyline clip-path="url(#clip070)" style="stroke:#000000; stroke-width:4; stroke-opacity:1; fill:none" points="
  1983.25,216.178 2279.26,216.178 2279.26,95.2176 1983.25,95.2176 1983.25,216.178 
  "/>
<polyline clip-path="url(#clip070)" style="stroke:#009af9; stroke-width:4; stroke-opacity:1; fill:none" points="
  2007.75,155.698 2154.74,155.698 
  "/>
<path clip-path="url(#clip070)" d="M 0 0 M2193.09 175.385 Q2191.28 180.015 2189.57 181.427 Q2187.85 182.839 2184.98 182.839 L2181.58 182.839 L2181.58 179.274 L2184.08 179.274 Q2185.84 179.274 2186.81 178.44 Q2187.78 177.607 2188.96 174.505 L2189.73 172.561 L2179.24 147.052 L2183.76 147.052 L2191.86 167.329 L2199.96 147.052 L2204.47 147.052 L2193.09 175.385 Z" fill="#000000" fill-rule="evenodd" fill-opacity="1" /><path clip-path="url(#clip070)" d="M 0 0 M2210.35 169.042 L2217.99 169.042 L2217.99 142.677 L2209.68 144.343 L2209.68 140.084 L2217.95 138.418 L2222.62 138.418 L2222.62 169.042 L2230.26 169.042 L2230.26 172.978 L2210.35 172.978 L2210.35 169.042 Z" fill="#000000" fill-rule="evenodd" fill-opacity="1" /></svg>
