<?xml version="1.0" encoding="UTF-8" standalone="no"?>
<!-- Created with Inkscape (http://www.inkscape.org/) -->

<svg
   xmlns:dc="http://purl.org/dc/elements/1.1/"
   xmlns:cc="http://creativecommons.org/ns#"
   xmlns:rdf="http://www.w3.org/1999/02/22-rdf-syntax-ns#"
   xmlns:svg="http://www.w3.org/2000/svg"
   xmlns="http://www.w3.org/2000/svg"
   xmlns:sodipodi="http://sodipodi.sourceforge.net/DTD/sodipodi-0.dtd"
   xmlns:inkscape="http://www.inkscape.org/namespaces/inkscape"
   width="176.92108mm"
   height="72.107635mm"
   viewBox="0 0 176.92108 72.107636"
   version="1.1"
   id="svg211"
   inkscape:version="0.92.5 (2060ec1f9f, 2020-04-08)"
   sodipodi:docname="05_Fresnel_fcja.svg">
  <defs
     id="defs205">
    <marker
       inkscape:isstock="true"
       style="overflow:visible"
       id="marker18155"
       refX="0"
       refY="0"
       orient="auto"
       inkscape:stockid="Arrow1Mstart">
      <path
         inkscape:connector-curvature="0"
         transform="matrix(0.4,0,0,0.4,4,0)"
         style="fill:#000000;fill-opacity:1;fill-rule:evenodd;stroke:#000000;stroke-width:1.00000003pt;stroke-opacity:1"
         d="M 0,0 5,-5 -12.5,0 5,5 Z"
         id="path18153" />
    </marker>
    <marker
       inkscape:isstock="true"
       style="overflow:visible"
       id="marker15778"
       refX="0"
       refY="0"
       orient="auto"
       inkscape:stockid="Arrow1Mend">
      <path
         transform="matrix(-0.4,0,0,-0.4,-4,0)"
         style="fill:#d40000;fill-opacity:1;fill-rule:evenodd;stroke:#d40000;stroke-width:1.00000003pt;stroke-opacity:1"
         d="M 0,0 5,-5 -12.5,0 5,5 Z"
         id="path15776"
         inkscape:connector-curvature="0" />
    </marker>
    <marker
       inkscape:isstock="true"
       style="overflow:visible"
       id="marker14070"
       refX="0"
       refY="0"
       orient="auto"
       inkscape:stockid="Arrow1Mend">
      <path
         transform="matrix(-0.4,0,0,-0.4,-4,0)"
         style="fill:#d40000;fill-opacity:1;fill-rule:evenodd;stroke:#d40000;stroke-width:1.00000003pt;stroke-opacity:1"
         d="M 0,0 5,-5 -12.5,0 5,5 Z"
         id="path14068"
         inkscape:connector-curvature="0" />
    </marker>
    <marker
       inkscape:stockid="StopL"
       orient="auto"
       refY="0"
       refX="0"
       id="StopL"
       style="overflow:visible"
       inkscape:isstock="true">
      <path
         id="path1616"
         d="M 0,5.65 V -5.65"
         style="fill:#666666;fill-opacity:1;fill-rule:evenodd;stroke:#666666;stroke-width:1.00000003pt;stroke-opacity:1"
         transform="scale(0.8)"
         inkscape:connector-curvature="0" />
    </marker>
    <marker
       inkscape:stockid="Arrow1Mstart"
       orient="auto"
       refY="0"
       refX="0"
       id="Arrow1Mstart-7"
       style="overflow:visible"
       inkscape:isstock="true">
      <path
         inkscape:connector-curvature="0"
         id="path1453-0"
         d="M 0,0 5,-5 -12.5,0 5,5 Z"
         style="fill:#000000;fill-opacity:1;fill-rule:evenodd;stroke:#000000;stroke-width:1.00000003pt;stroke-opacity:1"
         transform="matrix(0.4,0,0,0.4,4,0)" />
    </marker>
    <marker
       inkscape:stockid="Arrow1Mstart"
       orient="auto"
       refY="0"
       refX="0"
       id="Arrow1Mstart-3"
       style="overflow:visible"
       inkscape:isstock="true">
      <path
         inkscape:connector-curvature="0"
         id="path1453-6"
         d="M 0,0 5,-5 -12.5,0 5,5 Z"
         style="fill:#000000;fill-opacity:1;fill-rule:evenodd;stroke:#000000;stroke-width:1.00000003pt;stroke-opacity:1"
         transform="matrix(0.4,0,0,0.4,4,0)" />
    </marker>
    <marker
       inkscape:stockid="Arrow1Mend"
       orient="auto"
       refY="0"
       refX="0"
       id="Arrow1Mend-1"
       style="overflow:visible"
       inkscape:isstock="true">
      <path
         inkscape:connector-curvature="0"
         id="path1456-2"
         d="M 0,0 5,-5 -12.5,0 5,5 Z"
         style="fill:#000000;fill-opacity:1;fill-rule:evenodd;stroke:#000000;stroke-width:1.00000003pt;stroke-opacity:1"
         transform="matrix(-0.4,0,0,-0.4,-4,0)" />
    </marker>
    <marker
       inkscape:stockid="Arrow1Mstart"
       orient="auto"
       refY="0"
       refX="0"
       id="Arrow1Mstart-7-9"
       style="overflow:visible"
       inkscape:isstock="true">
      <path
         inkscape:connector-curvature="0"
         id="path1453-0-3"
         d="M 0,0 5,-5 -12.5,0 5,5 Z"
         style="fill:#000000;fill-opacity:1;fill-rule:evenodd;stroke:#000000;stroke-width:1.00000003pt;stroke-opacity:1"
         transform="matrix(0.4,0,0,0.4,4,0)" />
    </marker>
    <marker
       inkscape:stockid="Arrow1Mend"
       orient="auto"
       refY="0"
       refX="0"
       id="Arrow1Mend-9-1"
       style="overflow:visible"
       inkscape:isstock="true">
      <path
         inkscape:connector-curvature="0"
         id="path1456-3-9"
         d="M 0,0 5,-5 -12.5,0 5,5 Z"
         style="fill:#000000;fill-opacity:1;fill-rule:evenodd;stroke:#000000;stroke-width:1.00000003pt;stroke-opacity:1"
         transform="matrix(-0.4,0,0,-0.4,-4,0)" />
    </marker>
    <marker
       inkscape:stockid="Arrow1Mstart"
       orient="auto"
       refY="0"
       refX="0"
       id="Arrow1Mstart-3-6"
       style="overflow:visible"
       inkscape:isstock="true">
      <path
         inkscape:connector-curvature="0"
         id="path1453-6-1"
         d="M 0,0 5,-5 -12.5,0 5,5 Z"
         style="fill:#000000;fill-opacity:1;fill-rule:evenodd;stroke:#000000;stroke-width:1.00000003pt;stroke-opacity:1"
         transform="matrix(0.4,0,0,0.4,4,0)" />
    </marker>
    <marker
       inkscape:stockid="Arrow1Mend"
       orient="auto"
       refY="0"
       refX="0"
       id="Arrow1Mend-1-0"
       style="overflow:visible"
       inkscape:isstock="true">
      <path
         inkscape:connector-curvature="0"
         id="path1456-2-6"
         d="M 0,0 5,-5 -12.5,0 5,5 Z"
         style="fill:#000000;fill-opacity:1;fill-rule:evenodd;stroke:#000000;stroke-width:1.00000003pt;stroke-opacity:1"
         transform="matrix(-0.4,0,0,-0.4,-4,0)" />
    </marker>
    <marker
       inkscape:stockid="Arrow1Mstart"
       orient="auto"
       refY="0"
       refX="0"
       id="Arrow1Mstart-7-9-6"
       style="overflow:visible"
       inkscape:isstock="true">
      <path
         inkscape:connector-curvature="0"
         id="path1453-0-3-1"
         d="M 0,0 5,-5 -12.5,0 5,5 Z"
         style="fill:#000000;fill-opacity:1;fill-rule:evenodd;stroke:#000000;stroke-width:1.00000003pt;stroke-opacity:1"
         transform="matrix(0.4,0,0,0.4,4,0)" />
    </marker>
    <marker
       inkscape:stockid="Arrow1Mend"
       orient="auto"
       refY="0"
       refX="0"
       id="Arrow1Mend-9-1-5"
       style="overflow:visible"
       inkscape:isstock="true">
      <path
         inkscape:connector-curvature="0"
         id="path1456-3-9-5"
         d="M 0,0 5,-5 -12.5,0 5,5 Z"
         style="fill:#000000;fill-opacity:1;fill-rule:evenodd;stroke:#000000;stroke-width:1.00000003pt;stroke-opacity:1"
         transform="matrix(-0.4,0,0,-0.4,-4,0)" />
    </marker>
    <marker
       inkscape:isstock="true"
       style="overflow:visible"
       id="marker14070-4"
       refX="0"
       refY="0"
       orient="auto"
       inkscape:stockid="Arrow1Mend">
      <path
         transform="matrix(-0.4,0,0,-0.4,-4,0)"
         style="fill:#d40000;fill-opacity:1;fill-rule:evenodd;stroke:#d40000;stroke-width:1.00000003pt;stroke-opacity:1"
         d="M 0,0 5,-5 -12.5,0 5,5 Z"
         id="path14068-5"
         inkscape:connector-curvature="0" />
    </marker>
    <marker
       inkscape:isstock="true"
       style="overflow:visible"
       id="marker18155-3"
       refX="0"
       refY="0"
       orient="auto"
       inkscape:stockid="Arrow1Mstart">
      <path
         inkscape:connector-curvature="0"
         transform="matrix(0.4,0,0,0.4,4,0)"
         style="fill:#000000;fill-opacity:1;fill-rule:evenodd;stroke:#000000;stroke-width:1.00000003pt;stroke-opacity:1"
         d="M 0,0 5,-5 -12.5,0 5,5 Z"
         id="path18153-0" />
    </marker>
    <marker
       inkscape:isstock="true"
       style="overflow:visible"
       id="marker14070-8"
       refX="0"
       refY="0"
       orient="auto"
       inkscape:stockid="Arrow1Mend">
      <path
         transform="matrix(-0.4,0,0,-0.4,-4,0)"
         style="fill:#d40000;fill-opacity:1;fill-rule:evenodd;stroke:#d40000;stroke-width:1.00000003pt;stroke-opacity:1"
         d="M 0,0 5,-5 -12.5,0 5,5 Z"
         id="path14068-8"
         inkscape:connector-curvature="0" />
    </marker>
    <marker
       inkscape:isstock="true"
       style="overflow:visible"
       id="marker15778-3"
       refX="0"
       refY="0"
       orient="auto"
       inkscape:stockid="Arrow1Mend">
      <path
         transform="matrix(-0.4,0,0,-0.4,-4,0)"
         style="fill:#d40000;fill-opacity:1;fill-rule:evenodd;stroke:#d40000;stroke-width:1.00000003pt;stroke-opacity:1"
         d="M 0,0 5,-5 -12.5,0 5,5 Z"
         id="path15776-6"
         inkscape:connector-curvature="0" />
    </marker>
    <marker
       inkscape:isstock="true"
       style="overflow:visible"
       id="marker15778-3-5"
       refX="0"
       refY="0"
       orient="auto"
       inkscape:stockid="Arrow1Mend">
      <path
         transform="matrix(-0.4,0,0,-0.4,-4,0)"
         style="fill:#d40000;fill-opacity:1;fill-rule:evenodd;stroke:#d40000;stroke-width:1.00000003pt;stroke-opacity:1"
         d="M 0,0 5,-5 -12.5,0 5,5 Z"
         id="path15776-6-3"
         inkscape:connector-curvature="0" />
    </marker>
    <marker
       inkscape:isstock="true"
       style="overflow:visible"
       id="marker15778-3-5-6"
       refX="0"
       refY="0"
       orient="auto"
       inkscape:stockid="Arrow1Mend">
      <path
         transform="matrix(-0.4,0,0,-0.4,-4,0)"
         style="fill:#d40000;fill-opacity:1;fill-rule:evenodd;stroke:#d40000;stroke-width:1.00000003pt;stroke-opacity:1"
         d="M 0,0 5,-5 -12.5,0 5,5 Z"
         id="path15776-6-3-2"
         inkscape:connector-curvature="0" />
    </marker>
    <marker
       inkscape:isstock="true"
       style="overflow:visible"
       id="marker15778-3-9"
       refX="0"
       refY="0"
       orient="auto"
       inkscape:stockid="Arrow1Mend">
      <path
         transform="matrix(-0.4,0,0,-0.4,-4,0)"
         style="fill:#d40000;fill-opacity:1;fill-rule:evenodd;stroke:#d40000;stroke-width:1.00000003pt;stroke-opacity:1"
         d="M 0,0 5,-5 -12.5,0 5,5 Z"
         id="path15776-6-1"
         inkscape:connector-curvature="0" />
    </marker>
    <marker
       inkscape:isstock="true"
       style="overflow:visible"
       id="marker15778-0"
       refX="0"
       refY="0"
       orient="auto"
       inkscape:stockid="Arrow1Mend">
      <path
         transform="matrix(-0.4,0,0,-0.4,-4,0)"
         style="fill:#d40000;fill-opacity:1;fill-rule:evenodd;stroke:#d40000;stroke-width:1.00000003pt;stroke-opacity:1"
         d="M 0,0 5,-5 -12.5,0 5,5 Z"
         id="path15776-9"
         inkscape:connector-curvature="0" />
    </marker>
    <marker
       inkscape:isstock="true"
       style="overflow:visible"
       id="marker15778-3-3"
       refX="0"
       refY="0"
       orient="auto"
       inkscape:stockid="Arrow1Mend">
      <path
         transform="matrix(-0.4,0,0,-0.4,-4,0)"
         style="fill:#d40000;fill-opacity:1;fill-rule:evenodd;stroke:#d40000;stroke-width:1.00000003pt;stroke-opacity:1"
         d="M 0,0 5,-5 -12.5,0 5,5 Z"
         id="path15776-6-6"
         inkscape:connector-curvature="0" />
    </marker>
    <marker
       inkscape:isstock="true"
       style="overflow:visible"
       id="marker15778-3-5-0"
       refX="0"
       refY="0"
       orient="auto"
       inkscape:stockid="Arrow1Mend">
      <path
         transform="matrix(-0.4,0,0,-0.4,-4,0)"
         style="fill:#d40000;fill-opacity:1;fill-rule:evenodd;stroke:#d40000;stroke-width:1.00000003pt;stroke-opacity:1"
         d="M 0,0 5,-5 -12.5,0 5,5 Z"
         id="path15776-6-3-6"
         inkscape:connector-curvature="0" />
    </marker>
    <marker
       inkscape:isstock="true"
       style="overflow:visible"
       id="marker15778-3-9-2"
       refX="0"
       refY="0"
       orient="auto"
       inkscape:stockid="Arrow1Mend">
      <path
         transform="matrix(-0.4,0,0,-0.4,-4,0)"
         style="fill:#d40000;fill-opacity:1;fill-rule:evenodd;stroke:#d40000;stroke-width:1.00000003pt;stroke-opacity:1"
         d="M 0,0 5,-5 -12.5,0 5,5 Z"
         id="path15776-6-1-6"
         inkscape:connector-curvature="0" />
    </marker>
    <marker
       inkscape:isstock="true"
       style="overflow:visible"
       id="marker15778-3-5-6-1"
       refX="0"
       refY="0"
       orient="auto"
       inkscape:stockid="Arrow1Mend">
      <path
         transform="matrix(-0.4,0,0,-0.4,-4,0)"
         style="fill:#d40000;fill-opacity:1;fill-rule:evenodd;stroke:#d40000;stroke-width:1.00000003pt;stroke-opacity:1"
         d="M 0,0 5,-5 -12.5,0 5,5 Z"
         id="path15776-6-3-2-8"
         inkscape:connector-curvature="0" />
    </marker>
    <marker
       inkscape:isstock="true"
       style="overflow:visible"
       id="marker15778-5"
       refX="0"
       refY="0"
       orient="auto"
       inkscape:stockid="Arrow1Mend">
      <path
         transform="matrix(-0.4,0,0,-0.4,-4,0)"
         style="fill:#d40000;fill-opacity:1;fill-rule:evenodd;stroke:#d40000;stroke-width:1.00000003pt;stroke-opacity:1"
         d="M 0,0 5,-5 -12.5,0 5,5 Z"
         id="path15776-92"
         inkscape:connector-curvature="0" />
    </marker>
    <marker
       inkscape:isstock="true"
       style="overflow:visible"
       id="marker15778-3-2"
       refX="0"
       refY="0"
       orient="auto"
       inkscape:stockid="Arrow1Mend">
      <path
         transform="matrix(-0.4,0,0,-0.4,-4,0)"
         style="fill:#d40000;fill-opacity:1;fill-rule:evenodd;stroke:#d40000;stroke-width:1.00000003pt;stroke-opacity:1"
         d="M 0,0 5,-5 -12.5,0 5,5 Z"
         id="path15776-6-8"
         inkscape:connector-curvature="0" />
    </marker>
    <marker
       inkscape:isstock="true"
       style="overflow:visible"
       id="marker15778-3-5-9"
       refX="0"
       refY="0"
       orient="auto"
       inkscape:stockid="Arrow1Mend">
      <path
         transform="matrix(-0.4,0,0,-0.4,-4,0)"
         style="fill:#d40000;fill-opacity:1;fill-rule:evenodd;stroke:#d40000;stroke-width:1.00000003pt;stroke-opacity:1"
         d="M 0,0 5,-5 -12.5,0 5,5 Z"
         id="path15776-6-3-7"
         inkscape:connector-curvature="0" />
    </marker>
    <marker
       inkscape:isstock="true"
       style="overflow:visible"
       id="marker15778-3-9-3"
       refX="0"
       refY="0"
       orient="auto"
       inkscape:stockid="Arrow1Mend">
      <path
         transform="matrix(-0.4,0,0,-0.4,-4,0)"
         style="fill:#d40000;fill-opacity:1;fill-rule:evenodd;stroke:#d40000;stroke-width:1.00000003pt;stroke-opacity:1"
         d="M 0,0 5,-5 -12.5,0 5,5 Z"
         id="path15776-6-1-61"
         inkscape:connector-curvature="0" />
    </marker>
    <marker
       inkscape:isstock="true"
       style="overflow:visible"
       id="marker15778-3-5-6-2"
       refX="0"
       refY="0"
       orient="auto"
       inkscape:stockid="Arrow1Mend">
      <path
         transform="matrix(-0.4,0,0,-0.4,-4,0)"
         style="fill:#d40000;fill-opacity:1;fill-rule:evenodd;stroke:#d40000;stroke-width:1.00000003pt;stroke-opacity:1"
         d="M 0,0 5,-5 -12.5,0 5,5 Z"
         id="path15776-6-3-2-9"
         inkscape:connector-curvature="0" />
    </marker>
    <marker
       inkscape:isstock="true"
       style="overflow:visible"
       id="marker15778-0-3"
       refX="0"
       refY="0"
       orient="auto"
       inkscape:stockid="Arrow1Mend">
      <path
         transform="matrix(-0.4,0,0,-0.4,-4,0)"
         style="fill:#d40000;fill-opacity:1;fill-rule:evenodd;stroke:#d40000;stroke-width:1.00000003pt;stroke-opacity:1"
         d="M 0,0 5,-5 -12.5,0 5,5 Z"
         id="path15776-9-1"
         inkscape:connector-curvature="0" />
    </marker>
    <marker
       inkscape:isstock="true"
       style="overflow:visible"
       id="marker15778-3-3-9"
       refX="0"
       refY="0"
       orient="auto"
       inkscape:stockid="Arrow1Mend">
      <path
         transform="matrix(-0.4,0,0,-0.4,-4,0)"
         style="fill:#d40000;fill-opacity:1;fill-rule:evenodd;stroke:#d40000;stroke-width:1.00000003pt;stroke-opacity:1"
         d="M 0,0 5,-5 -12.5,0 5,5 Z"
         id="path15776-6-6-4"
         inkscape:connector-curvature="0" />
    </marker>
    <marker
       inkscape:isstock="true"
       style="overflow:visible"
       id="marker15778-3-5-0-7"
       refX="0"
       refY="0"
       orient="auto"
       inkscape:stockid="Arrow1Mend">
      <path
         transform="matrix(-0.4,0,0,-0.4,-4,0)"
         style="fill:#d40000;fill-opacity:1;fill-rule:evenodd;stroke:#d40000;stroke-width:1.00000003pt;stroke-opacity:1"
         d="M 0,0 5,-5 -12.5,0 5,5 Z"
         id="path15776-6-3-6-8"
         inkscape:connector-curvature="0" />
    </marker>
    <marker
       inkscape:isstock="true"
       style="overflow:visible"
       id="marker15778-3-9-2-4"
       refX="0"
       refY="0"
       orient="auto"
       inkscape:stockid="Arrow1Mend">
      <path
         transform="matrix(-0.4,0,0,-0.4,-4,0)"
         style="fill:#d40000;fill-opacity:1;fill-rule:evenodd;stroke:#d40000;stroke-width:1.00000003pt;stroke-opacity:1"
         d="M 0,0 5,-5 -12.5,0 5,5 Z"
         id="path15776-6-1-6-5"
         inkscape:connector-curvature="0" />
    </marker>
    <marker
       inkscape:isstock="true"
       style="overflow:visible"
       id="marker15778-3-5-6-1-0"
       refX="0"
       refY="0"
       orient="auto"
       inkscape:stockid="Arrow1Mend">
      <path
         transform="matrix(-0.4,0,0,-0.4,-4,0)"
         style="fill:#d40000;fill-opacity:1;fill-rule:evenodd;stroke:#d40000;stroke-width:1.00000003pt;stroke-opacity:1"
         d="M 0,0 5,-5 -12.5,0 5,5 Z"
         id="path15776-6-3-2-8-3"
         inkscape:connector-curvature="0" />
    </marker>
    <marker
       inkscape:isstock="true"
       style="overflow:visible"
       id="marker18155-36"
       refX="0"
       refY="0"
       orient="auto"
       inkscape:stockid="Arrow1Mstart">
      <path
         inkscape:connector-curvature="0"
         transform="matrix(0.4,0,0,0.4,4,0)"
         style="fill:#000000;fill-opacity:1;fill-rule:evenodd;stroke:#000000;stroke-width:1.00000003pt;stroke-opacity:1"
         d="M 0,0 5,-5 -12.5,0 5,5 Z"
         id="path18153-7" />
    </marker>
  </defs>
  <sodipodi:namedview
     id="base"
     pagecolor="#ffffff"
     bordercolor="#666666"
     borderopacity="1.0"
     inkscape:pageopacity="0.0"
     inkscape:pageshadow="2"
     inkscape:zoom="4.2280693"
     inkscape:cx="221.91454"
     inkscape:cy="71.111338"
     inkscape:document-units="mm"
     inkscape:current-layer="layer1"
     showgrid="false"
     inkscape:snap-bbox="true"
     fit-margin-top="0"
     fit-margin-left="0"
     fit-margin-right="0"
     fit-margin-bottom="0"
     inkscape:window-width="1920"
     inkscape:window-height="999"
     inkscape:window-x="0"
     inkscape:window-y="0"
     inkscape:window-maximized="1" />
  <metadata
     id="metadata208">
    <rdf:RDF>
      <cc:Work
         rdf:about="">
        <dc:format>image/svg+xml</dc:format>
        <dc:type
           rdf:resource="http://purl.org/dc/dcmitype/StillImage" />
        <dc:title></dc:title>
      </cc:Work>
    </rdf:RDF>
  </metadata>
  <g
     inkscape:label="Layer 1"
     inkscape:groupmode="layer"
     id="layer1"
     transform="translate(-15.647859,-178.70427)">
    <text
       xml:space="preserve"
       style="font-style:normal;font-weight:normal;font-size:10.58333302px;line-height:1.25;font-family:sans-serif;letter-spacing:0px;word-spacing:0px;fill:#000000;fill-opacity:1;stroke:none;stroke-width:0.26458332"
       x="49.928837"
       y="47.981602"
       id="text7124"><tspan
         sodipodi:role="line"
         id="tspan7122"
         x="49.928837"
         y="57.345371"
         style="stroke-width:0.26458332" /></text>
    <path
       style="fill:#000000;fill-opacity:1;stroke:#000000;stroke-width:0.80000001;stroke-miterlimit:4;stroke-dasharray:none;stroke-dashoffset:0;stroke-opacity:1;marker-start:url(#marker18155)"
       d="m 17.679157,180.28082 v 62.48022"
       id="path3453-3-5-2-7-3"
       inkscape:connector-curvature="0"
       sodipodi:nodetypes="cc" />
    <path
       style="fill:#000000;fill-opacity:1;stroke:#000000;stroke-width:0.80000001;stroke-miterlimit:4;stroke-dasharray:none;stroke-dashoffset:0;stroke-opacity:1;marker-start:url(#marker18155-3)"
       d="M 183.8372,242.38347 H 17.620729"
       id="path3453-3-5-2-7-3-7"
       inkscape:connector-curvature="0"
       sodipodi:nodetypes="cc" />
    <path
       id="path1922"
       title="sin(x**2)**2"
       d="m 17.646254,242.38333 h 0.155496 0.155495 0.155495 c 0.05183,-1e-5 0.103664,-1e-5 0.155496,-1e-5 0.05183,-1e-5 0.103663,-1e-5 0.155495,-3e-5 0.05183,-10e-6 0.103664,-2e-5 0.155495,-5e-5 0.05183,-1e-5 0.103664,-4e-5 0.155496,-8e-5 0.05183,-2e-5 0.103663,-6e-5 0.155495,-1.1e-4 0.05183,-4e-5 0.103664,-1.1e-4 0.155495,-1.7e-4 0.05183,-7e-5 0.103664,-1.5e-4 0.155496,-2.4e-4 0.05183,-9e-5 0.103663,-1.9e-4 0.155495,-3.1e-4 0.05183,-1.3e-4 0.103664,-2.6e-4 0.155496,-4.3e-4 0.05183,-1.6e-4 0.103663,-3.4e-4 0.155496,-5.3e-4 0.05183,-2.1e-4 0.103662,-4.3e-4 0.155495,-6.8e-4 0.05183,-2.5e-4 0.103663,-5.3e-4 0.155495,-8.5e-4 0.05183,-3e-4 0.103663,-6.5e-4 0.155496,-0.001 0.05183,-3.6e-4 0.103662,-7.8e-4 0.155495,-0.001 0.05183,-4.5e-4 0.103663,-9.4e-4 0.155495,-0.001 0.05183,-5.3e-4 0.103663,-10e-4 0.155496,-10e-4 0.05183,-6.2e-4 0.103662,-0.001 0.155495,-0.003 0.05183,-7.3e-4 0.103664,-0.001 0.155495,-0.003 0.05183,-8.6e-4 0.103664,-0.001 0.155496,-0.003 0.05183,-9.8e-4 0.103663,-0.003 0.155495,-0.003 0.05183,-0.001 0.103664,-0.003 0.155495,-0.004 0.05183,-0.001 0.103664,-0.003 0.155496,-0.004 0.05183,-0.001 0.103663,-0.003 0.155495,-0.005 0.05183,-0.001 0.103664,-0.004 0.155495,-0.005 0.05183,-0.001 0.103664,-0.004 0.155496,-0.005 0.05183,-0.003 0.103663,-0.004 0.155495,-0.007 0.05183,-0.003 0.103664,-0.005 0.155495,-0.007 0.05183,-0.003 0.103664,-0.005 0.155496,-0.008 0.05183,-0.003 0.103663,-0.005 0.155495,-0.009 0.05183,-0.003 0.103664,-0.007 0.155495,-0.009 0.05183,-0.004 0.103664,-0.007 0.155496,-0.0104 0.05183,-0.004 0.103663,-0.008 0.155495,-0.0117 0.05183,-0.004 0.103664,-0.008 0.155496,-0.0117 0.05183,-0.004 0.103663,-0.009 0.155495,-0.0134 0.05184,-0.005 0.103663,-0.009 0.155496,-0.0145 0.05183,-0.005 0.103663,-0.0104 0.155495,-0.0156 0.05183,-0.005 0.103663,-0.0104 0.155495,-0.0169 0.05184,-0.005 0.103663,-0.0117 0.155496,-0.0182 0.05183,-0.007 0.103663,-0.013 0.155495,-0.0197 0.05183,-0.007 0.103663,-0.0138 0.155496,-0.0211 0.05183,-0.008 0.103663,-0.0149 0.155495,-0.0227 0.05183,-0.008 0.103664,-0.0159 0.155495,-0.0242 0.05183,-0.008 0.103664,-0.0169 0.155496,-0.0258 0.05183,-0.009 0.103663,-0.0181 0.155495,-0.0276 0.05183,-0.009 0.103664,-0.0193 0.155495,-0.0294 0.05183,-0.0104 0.103664,-0.0206 0.155496,-0.0313 0.05183,-0.0104 0.103663,-0.0219 0.155495,-0.0332 0.05183,-0.0117 0.103664,-0.0232 0.155495,-0.0353 0.05183,-0.0117 0.103664,-0.0246 0.155496,-0.0374 0.05183,-0.013 0.103663,-0.026 0.155495,-0.0396 0.05183,-0.0135 0.103664,-0.0276 0.155495,-0.0419 0.05183,-0.0143 0.103664,-0.029 0.155496,-0.0443 0.05183,-0.0151 0.103663,-0.0307 0.155495,-0.0468 0.05183,-0.016 0.103664,-0.0324 0.155495,-0.0492 0.05183,-0.0168 0.103664,-0.0341 0.155496,-0.0518 0.05183,-0.0177 0.103663,-0.0359 0.155495,-0.0546 0.05183,-0.0186 0.103664,-0.0378 0.155496,-0.0574 0.05183,-0.0197 0.103663,-0.0397 0.155495,-0.0603 0.05184,-0.0206 0.103663,-0.0417 0.155496,-0.0633 0.05183,-0.0216 0.103663,-0.0438 0.155495,-0.0664 0.05183,-0.0227 0.103663,-0.0459 0.155495,-0.0696 0.05184,-0.0237 0.103663,-0.0479 0.155496,-0.0728 0.05183,-0.0249 0.103663,-0.0503 0.155495,-0.0762 0.05183,-0.0259 0.103663,-0.0525 0.155495,-0.0797 0.05183,-0.0271 0.103664,-0.0548 0.155496,-0.0832 0.05183,-0.0284 0.103664,-0.0573 0.155495,-0.0869 0.05183,-0.0296 0.103664,-0.0598 0.155495,-0.0907 0.05183,-0.0309 0.103664,-0.0624 0.155496,-0.0944 0.05183,-0.0322 0.103664,-0.065 0.155495,-0.0985 0.05183,-0.0335 0.103664,-0.0676 0.155495,-0.1025 0.05184,-0.0349 0.103664,-0.0705 0.155496,-0.10667 0.05183,-0.0362 0.103664,-0.0732 0.155495,-0.11084 0.05183,-0.0377 0.103664,-0.0761 0.155495,-0.11527 0.05184,-0.0392 0.103664,-0.0791 0.155496,-0.1197 0.05183,-0.0406 0.103664,-0.0821 0.155495,-0.12426 0.05183,-0.0422 0.103664,-0.0852 0.155496,-0.12894 0.05183,-0.0438 0.103663,-0.0883 0.155495,-0.1337 0.05183,-0.0453 0.103664,-0.0916 0.155495,-0.13854 0.05183,-0.047 0.103664,-0.0948 0.155496,-0.14351 0.05183,-0.0487 0.103663,-0.0982 0.155495,-0.14856 0.05183,-0.0504 0.103664,-0.10159 0.155496,-0.15371 0.05183,-0.0521 0.103663,-0.10511 0.155495,-0.15898 0.05184,-0.0539 0.103663,-0.10863 0.155496,-0.16434 0.05183,-0.0557 0.103663,-0.11227 0.155495,-0.16977 0.05183,-0.0576 0.103663,-0.11592 0.155495,-0.17533 0.05184,-0.0594 0.103663,-0.1197 0.155496,-0.18098 0.05183,-0.0612 0.103663,-0.12347 0.155495,-0.18671 0.05183,-0.0632 0.103663,-0.12738 0.155495,-0.19253 0.05184,-0.0651 0.103664,-0.13131 0.155496,-0.19845 0.05183,-0.0671 0.103664,-0.1353 0.155495,-0.20446 0.05183,-0.0692 0.103664,-0.13936 0.155495,-0.21057 0.05183,-0.0712 0.103664,-0.14347 0.155496,-0.21676 0.05183,-0.0733 0.103664,-0.14762 0.155495,-0.22302 0.05183,-0.0754 0.103664,-0.15184 0.155495,-0.22937 0.05184,-0.0775 0.103664,-0.15612 0.155496,-0.23581 0.05183,-0.0797 0.103664,-0.16045 0.155495,-0.24231 0.05183,-0.0819 0.103664,-0.16484 0.155495,-0.2489 0.05183,-0.084 0.103664,-0.16927 0.155496,-0.25557 0.05183,-0.0864 0.103664,-0.17374 0.155495,-0.26229 0.05183,-0.0886 0.103664,-0.17826 0.155495,-0.26909 0.05183,-0.0908 0.103664,-0.18282 0.155496,-0.27594 0.05183,-0.0931 0.103664,-0.18743 0.155495,-0.28287 0.05183,-0.0955 0.103664,-0.19208 0.155495,-0.28986 0.05184,-0.0978 0.103664,-0.19675 0.155496,-0.29688 0.05183,-0.10016 0.103664,-0.20147 0.155496,-0.30397 0.05183,-0.1025 0.103663,-0.20621 0.155495,-0.31109 0.05183,-0.10485 0.103663,-0.21099 0.155496,-0.31828 0.05183,-0.10732 0.103663,-0.21578 0.155495,-0.32548 0.05183,-0.10967 0.103663,-0.2206 0.155495,-0.33272 0.05183,-0.11214 0.103663,-0.22544 0.155496,-0.33999 0.05183,-0.11449 0.103663,-0.23032 0.155495,-0.34729 0.05183,-0.11697 0.103663,-0.23519 0.155495,-0.35461 0.05183,-0.11944 0.103664,-0.24008 0.155496,-0.36193 0.05183,-0.12192 0.103664,-0.24497 0.155495,-0.36928 0.05183,-0.12426 0.103664,-0.24985 0.155495,-0.37661 0.05183,-0.12673 0.103664,-0.25475 0.155496,-0.38395 0.05183,-0.12921 0.103664,-0.25964 0.155495,-0.39129 0.05183,-0.13164 0.103664,-0.26452 0.155495,-0.3986 0.05184,-0.13408 0.103664,-0.26939 0.155496,-0.40588 0.05183,-0.13652 0.103664,-0.27424 0.155495,-0.41317 0.05183,-0.13892 0.103664,-0.27906 0.155495,-0.42039 0.05183,-0.14133 0.103664,-0.28386 0.155496,-0.42758 0.05183,-0.14372 0.103664,-0.28863 0.155495,-0.43473 0.05183,-0.14608 0.103664,-0.29337 0.155495,-0.44181 0.05184,-0.14844 0.103664,-0.29806 0.155496,-0.44884 0.05183,-0.15078 0.103664,-0.30271 0.155495,-0.45579 0.05183,-0.15308 0.103664,-0.30732 0.155495,-0.46267 0.05183,-0.15536 0.103664,-0.31185 0.155497,-0.46947 0.05183,-0.15761 0.103663,-0.31633 0.155495,-0.47615 0.05183,-0.15983 0.103663,-0.32076 0.155495,-0.48276 0.05183,-0.162 0.103663,-0.3251 0.155496,-0.48924 0.05183,-0.16415 0.103663,-0.32935 0.155495,-0.4956 0.05183,-0.16624 0.103663,-0.33353 0.155495,-0.50184 0.05184,-0.1683 0.103663,-0.33762 0.155496,-0.50794 0.05183,-0.17032 0.103663,-0.34162 0.155495,-0.5139 0.05183,-0.17226 0.103663,-0.3455 0.155495,-0.51968 0.05183,-0.17418 0.103664,-0.3493 0.155496,-0.52531 0.05183,-0.17603 0.103664,-0.35297 0.155495,-0.53079 0.05183,-0.17781 0.103664,-0.35651 0.155495,-0.53605 0.05184,-0.17953 0.103664,-0.35993 0.155496,-0.54113 0.05183,-0.1812 0.103664,-0.36321 0.155495,-0.546 0.05183,-0.18279 0.103664,-0.36636 0.155495,-0.55066 0.05183,-0.18431 0.103664,-0.36937 0.155496,-0.55511 0.05183,-0.18575 0.103664,-0.3722 0.155495,-0.55931 0.05183,-0.1871 0.103664,-0.37488 0.155495,-0.56326 0.05184,-0.18838 0.103664,-0.37739 0.155496,-0.56697 0.05183,-0.18957 0.103664,-0.37973 0.155495,-0.5704 0.05183,-0.19068 0.103664,-0.38189 0.155495,-0.57357 0.05183,-0.19168 0.103664,-0.38385 0.155496,-0.57645 0.05183,-0.19259 0.103664,-0.38562 0.155495,-0.57902 0.05183,-0.1934 0.103664,-0.3872 0.155495,-0.58131 0.05184,-0.1941 0.103664,-0.38853 0.155497,-0.58325 0.05183,-0.19471 0.103663,-0.38969 0.155495,-0.58488 0.05183,-0.19519 0.103663,-0.39059 0.155495,-0.58616 0.05184,-0.19557 0.103663,-0.39129 0.155496,-0.58711 0.05183,-0.19582 0.103663,-0.39173 0.155495,-0.58768 0.05183,-0.19595 0.103663,-0.39194 0.155495,-0.58789 0.05183,-0.19596 0.103663,-0.39189 0.155496,-0.58773 0.05183,-0.19582 0.103663,-0.39157 0.155495,-0.58715 0.05183,-0.19558 0.103664,-0.391 0.155495,-0.5862 0.05184,-0.19519 0.103664,-0.39016 0.155496,-0.58482 0.05183,-0.19466 0.103664,-0.38903 0.155495,-0.58303 0.05183,-0.19399 0.103664,-0.38761 0.155495,-0.58081 0.05183,-0.19318 0.103664,-0.38592 0.155496,-0.57814 0.05183,-0.19222 0.103664,-0.38391 0.155495,-0.57502 0.05183,-0.19111 0.103664,-0.38163 0.155495,-0.57147 0.05184,-0.18984 0.103664,-0.37901 0.155496,-0.56744 0.05183,-0.18841 0.103664,-0.37609 0.155495,-0.56292 0.05183,-0.18683 0.103664,-0.37284 0.155495,-0.55793 0.05183,-0.18509 0.103664,-0.36928 0.155496,-0.55245 0.05183,-0.1832 0.103664,-0.36537 0.155495,-0.54648 0.05183,-0.18111 0.103664,-0.36114 0.155495,-0.54 0.05183,-0.17886 0.103664,-0.35656 0.155496,-0.533 0.05183,-0.17645 0.103664,-0.35164 0.155495,-0.52549 0.05183,-0.17386 0.103664,-0.34637 0.155495,-0.51746 0.05183,-0.17109 0.103664,-0.34075 0.155497,-0.5089 0.05183,-0.16815 0.103663,-0.33478 0.155495,-0.4998 0.05183,-0.16502 0.103663,-0.32844 0.155495,-0.49016 0.05183,-0.16172 0.103663,-0.32175 0.155496,-0.47998 0.05183,-0.15825 0.103663,-0.31469 0.155495,-0.46927 0.05183,-0.15458 0.103663,-0.30726 0.155495,-0.45799 0.05184,-0.15073 0.103663,-0.29947 0.155496,-0.44617 0.05183,-0.1467 0.103663,-0.29132 0.155495,-0.4338 0.05183,-0.14248 0.103664,-0.28279 0.155495,-0.42087 0.05183,-0.13807 0.103664,-0.27389 0.155496,-0.40738 0.05183,-0.13349 0.103664,-0.26464 0.155495,-0.39335 0.05183,-0.12868 0.103664,-0.25501 0.155495,-0.37877 0.05183,-0.12373 0.103664,-0.245 0.155496,-0.36363 0.05183,-0.11866 0.103664,-0.23464 0.155495,-0.34796 0.05183,-0.11331 0.103664,-0.22391 0.155495,-0.33171 0.05184,-0.10784 0.103664,-0.21282 0.155496,-0.31496 0.05183,-0.10212 0.103664,-0.20138 0.155495,-0.29766 0.05183,-0.0962 0.103664,-0.18957 0.155495,-0.27982 0.05183,-0.0903 0.103664,-0.17743 0.155496,-0.26147 0.05183,-0.084 0.103664,-0.16494 0.155495,-0.24261 0.05183,-0.0776 0.103664,-0.1521 0.155495,-0.22323 0.05184,-0.0711 0.103664,-0.13895 0.155496,-0.20337 0.05183,-0.0645 0.103664,-0.12543 0.155495,-0.18301 0.05183,-0.0576 0.103664,-0.11162 0.155495,-0.16217 0.05183,-0.0505 0.103664,-0.0976 0.155497,-0.14089 0.05183,-0.0434 0.103663,-0.0831 0.155495,-0.11917 0.05183,-0.0361 0.103663,-0.0684 0.155495,-0.0969 0.05183,-0.0286 0.103663,-0.0534 0.155496,-0.0744 0.05183,-0.021 0.103663,-0.0382 0.155495,-0.0513 0.05183,-0.0133 0.103663,-0.0225 0.155495,-0.028 0.05183,-0.005 0.103663,-0.007 0.155496,-0.004 0.05183,0.003 0.103663,0.009 0.155495,0.0199 0.05183,0.0104 0.103664,0.0254 0.155495,0.0443 0.05183,0.0189 0.103664,0.0419 0.155496,0.069 0.05183,0.0272 0.103663,0.0585 0.155495,0.094 0.05183,0.0356 0.103664,0.0753 0.155495,0.1193 0.05183,0.044 0.103664,0.0924 0.155496,0.14488 0.05183,0.0526 0.103663,0.1094 0.155495,0.17059 0.05183,0.0612 0.103664,0.12673 0.155495,0.19651 0.05183,0.0698 0.103664,0.14402 0.155496,0.22258 0.05183,0.0785 0.103663,0.16146 0.155495,0.24877 0.05183,0.0873 0.103664,0.17898 0.155495,0.27505 0.05184,0.0961 0.103664,0.19656 0.155496,0.30142 0.05183,0.10485 0.103663,0.21415 0.155495,0.32781 0.05183,0.1137 0.103664,0.23174 0.155495,0.3542 0.05183,0.12243 0.103664,0.24933 0.155496,0.38058 0.05183,0.13124 0.103664,0.26688 0.155495,0.40687 0.05183,0.13999 0.103664,0.28437 0.155496,0.43307 0.05183,0.1487 0.103663,0.30177 0.155496,0.45913 0.05183,0.15737 0.103663,0.31905 0.155495,0.48503 0.05183,0.16596 0.103663,0.3362 0.155495,0.5107 0.05183,0.17447 0.103663,0.35321 0.155496,0.53612 0.05183,0.18292 0.103663,0.37003 0.155495,0.56127 0.05183,0.19124 0.103663,0.38664 0.155495,0.5861 0.05183,0.19944 0.103663,0.40299 0.155496,0.61053 0.05183,0.20753 0.103663,0.41909 0.155495,0.63458 0.05183,0.21546 0.103664,0.43489 0.155495,0.65816 0.05183,0.22325 0.103664,0.45038 0.155496,0.68125 0.05183,0.23088 0.103663,0.46553 0.155495,0.70383 0.05183,0.2383 0.103664,0.48029 0.155495,0.72583 0.05183,0.24553 0.103664,0.49464 0.155496,0.74719 0.05183,0.25254 0.103663,0.50857 0.155495,0.7679 0.05183,0.25935 0.103664,0.52203 0.155495,0.78793 0.05183,0.26589 0.103664,0.535 0.155496,0.80719 0.05183,0.27219 0.103663,0.54747 0.155495,0.82568 0.05183,0.27821 0.103664,0.55937 0.155495,0.84332 0.05183,0.28395 0.103664,0.57072 0.155496,0.86011 0.05183,0.2894 0.103663,0.58145 0.155495,0.87598 0.05183,0.29452 0.103664,0.59155 0.155495,0.89088 0.05183,0.29934 0.103664,0.601 0.155496,0.9048 0.05183,0.30382 0.103663,0.60977 0.155495,0.9177 0.05183,0.30791 0.103664,0.61781 0.155496,0.92949 0.05183,0.31167 0.103663,0.62513 0.155496,0.94019 0.05183,0.31504 0.103662,0.63168 0.155495,0.94972 0.05183,0.31803 0.103663,0.63746 0.155495,0.95808 0.05183,0.32061 0.103663,0.64242 0.155496,0.96521 0.05183,0.32277 0.103662,0.64654 0.155495,0.97106 0.05183,0.32453 0.103663,0.64982 0.155495,0.97566 0.05183,0.32582 0.103663,0.65221 0.155496,0.97889 0.05183,0.3267 0.103662,0.6537 0.155495,0.9808 0.05183,0.32709 0.103664,0.65427 0.155495,0.98131 0.05183,0.32703 0.103664,0.65391 0.155496,0.9804 0.05183,0.32649 0.103663,0.65261 0.155495,0.97807 0.05183,0.32547 0.103664,0.65032 0.155495,0.97427 0.05183,0.32396 0.103664,0.64705 0.155496,0.969 0.05183,0.32195 0.103663,0.64278 0.155495,0.96221 0.05183,0.31944 0.103664,0.6375 0.155495,0.95392 0.05183,0.31643 0.103664,0.63119 0.155496,0.94409 0.05183,0.31289 0.103663,0.62387 0.155495,0.93271 0.05183,0.30884 0.103664,0.61552 0.155495,0.91977 0.05183,0.30427 0.103664,0.60612 0.155496,0.9053 0.05183,0.29917 0.103663,0.59567 0.155495,0.88923 0.05183,0.29355 0.103664,0.58417 0.155495,0.8716 0.05183,0.28742 0.103664,0.57164 0.155496,0.8524 0.05183,0.28076 0.103663,0.55806 0.155495,0.83164 0.05183,0.27358 0.103664,0.54344 0.155496,0.80933 0.05183,0.2659 0.103663,0.5278 0.155495,0.78548 0.05183,0.25768 0.103663,0.5111 0.155496,0.76006 0.05183,0.24897 0.103663,0.49343 0.155495,0.73318 0.05183,0.23973 0.103663,0.47472 0.155496,0.70475 0.05183,0.23003 0.103662,0.45506 0.155495,0.67489 0.05183,0.21983 0.103663,0.43441 0.155495,0.64356 0.05183,0.20915 0.103663,0.41283 0.155496,0.61083 0.05183,0.198 0.103663,0.3903 0.155495,0.57671 0.05183,0.18641 0.103664,0.36688 0.155495,0.54124 0.05183,0.17437 0.103664,0.34259 0.155496,0.50448 0.05183,0.1619 0.103663,0.31744 0.155495,0.46647 0.05183,0.14901 0.103664,0.29148 0.155495,0.42722 0.05183,0.13574 0.103664,0.26474 0.155496,0.38683 0.05183,0.12205 0.103663,0.23725 0.155495,0.34534 0.05183,0.10811 0.103664,0.20906 0.155495,0.3028 0.05183,0.0938 0.103664,0.1802 0.155496,0.25927 0.05183,0.0791 0.103663,0.15072 0.155495,0.21483 0.05183,0.0641 0.103664,0.12061 0.155495,0.16954 0.05183,0.0488 0.103664,0.0901 0.155496,0.12347 0.05183,0.0334 0.103663,0.059 0.155495,0.0767 0.05183,0.0177 0.103664,0.0275 0.155495,0.0293 0.05183,0.001 0.103664,-0.004 0.155496,-0.0186 0.05183,-0.0142 0.103663,-0.0366 0.155495,-0.0669 0.05183,-0.0305 0.103664,-0.069 0.155496,-0.11566 0.05183,-0.0468 0.103663,-0.10159 0.155495,-0.16475 0.05183,-0.0632 0.103663,-0.13442 0.155496,-0.21395 0.05183,-0.0795 0.103663,-0.16729 0.155495,-0.26324 0.05183,-0.096 0.103663,-0.20015 0.155495,-0.31252 0.05183,-0.1124 0.103663,-0.23296 0.155496,-0.36169 0.05183,-0.12869 0.103663,-0.26564 0.155495,-0.41065 0.05183,-0.14499 0.103663,-0.29812 0.155495,-0.45927 0.05183,-0.16114 0.103664,-0.33035 0.155496,-0.50748 0.05183,-0.17714 0.103664,-0.36225 0.155495,-0.55517 0.05183,-0.19292 0.103664,-0.39371 0.155495,-0.60219 0.05183,-0.20849 0.103664,-0.42473 0.155496,-0.6485 0.05183,-0.22378 0.103664,-0.45515 0.155495,-0.69392 0.05183,-0.23877 0.103664,-0.48496 0.155495,-0.73838 0.05183,-0.25341 0.103664,-0.51407 0.155496,-0.78176 0.05183,-0.26768 0.103664,-0.54241 0.155495,-0.82395 0.05183,-0.28153 0.103664,-0.56989 0.155496,-0.86483 0.05183,-0.29493 0.103663,-0.59646 0.155495,-0.90431 0.05183,-0.30784 0.103664,-0.62203 0.155495,-0.94226 0.05183,-0.32024 0.103664,-0.64654 0.155496,-0.9786 0.05183,-0.33205 0.103663,-0.66989 0.155495,-1.01319 0.05183,-0.34327 0.103664,-0.69205 0.155495,-1.04593 0.05183,-0.35389 0.103664,-0.71293 0.155496,-1.07676 0.05183,-0.36384 0.103663,-0.73247 0.155495,-1.10554 0.05183,-0.37306 0.103664,-0.75059 0.155496,-1.13217 0.05183,-0.38158 0.103663,-0.76724 0.155495,-1.15658 0.05183,-0.38933 0.103663,-0.78236 0.155496,-1.17867 0.05183,-0.3963 0.103663,-0.7959 0.155495,-1.19835 0.05183,-0.40245 0.103663,-0.80777 0.155495,-1.21552 0.05184,-0.40777 0.103663,-0.81797 0.155496,-1.23017 0.05183,-0.41219 0.103663,-0.82639 0.155495,-1.24213 0.05183,-0.41574 0.103663,-0.83303 0.155495,-1.25141 0.05183,-0.41836 0.103664,-0.83782 0.155496,-1.2579 0.05183,-0.42007 0.103664,-0.84074 0.155495,-1.26155 0.05183,-0.42082 0.103664,-0.84176 0.155495,-1.26234 0.05183,-0.4206 0.103664,-0.84082 0.155496,-1.26021 0.05183,-0.41936 0.103664,-0.8379 0.155495,-1.25507 0.05183,-0.41718 0.103664,-0.83299 0.155495,-1.24697 0.05183,-0.41396 0.103664,-0.82607 0.155496,-1.23582 0.05183,-0.40975 0.103664,-0.81714 0.155495,-1.22165 0.05183,-0.40452 0.103664,-0.80616 0.155495,-1.20442 0.05184,-0.39827 0.103664,-0.79313 0.155496,-1.18414 0.05183,-0.39098 0.103664,-0.77809 0.155495,-1.16079 0.05183,-0.38272 0.103664,-0.76102 0.155495,-1.13444 0.05183,-0.37342 0.103664,-0.74193 0.155496,-1.10505 0.05183,-0.36313 0.103664,-0.72084 0.155495,-1.07269 0.05183,-0.35185 0.103664,-0.6978 0.155495,-1.03739 0.05183,-0.33959 0.103664,-0.6728 0.155497,-0.99919 0.05183,-0.32638 0.103663,-0.64591 0.155495,-0.95815 0.05183,-0.31224 0.103663,-0.61715 0.155495,-0.91433 0.05183,-0.29718 0.103663,-0.58659 0.155496,-0.86783 0.05183,-0.28125 0.103663,-0.55427 0.155495,-0.81871 0.05183,-0.26443 0.103663,-0.52023 0.155495,-0.76705 0.05183,-0.24682 0.103663,-0.48458 0.155496,-0.71298 0.05183,-0.2284 0.103663,-0.44736 0.155495,-0.6566 0.05183,-0.20923 0.103663,-0.40867 0.155495,-0.59802 0.05184,-0.18935 0.103664,-0.36856 0.155496,-0.53737 0.05183,-0.16881 0.103664,-0.32716 0.155495,-0.47479 0.05183,-0.14765 0.103664,-0.28452 0.155495,-0.41042 0.05183,-0.12595 0.103664,-0.24078 0.155496,-0.34441 0.05183,-0.10368 0.103664,-0.19601 0.155495,-0.27692 0.05183,-0.0809 0.103664,-0.15033 0.155495,-0.20812 0.05183,-0.0578 0.103664,-0.10394 0.155496,-0.13817 0.05183,-0.0343 0.103664,-0.0568 0.155495,-0.0672 0.05183,-0.0104 0.103664,-0.009 0.155495,0.004 0.05183,0.0135 0.103664,0.0391 0.155496,0.0767 0.05183,0.0376 0.103664,0.0874 0.155495,0.14936 0.05183,0.0619 0.103664,0.13601 0.155495,0.22221 0.05184,0.0862 0.103664,0.18457 0.155496,0.29502 0.05183,0.11045 0.103664,0.23304 0.155495,0.36763 0.05183,0.13459 0.103664,0.28123 0.155495,0.43977 0.05183,0.15853 0.103664,0.32903 0.155497,0.51127 0.05183,0.18223 0.103663,0.37627 0.155495,0.58188 0.05183,0.20559 0.103663,0.42282 0.155495,0.65139 0.05183,0.22855 0.103663,0.46852 0.155496,0.71958 0.05183,0.25106 0.103663,0.51326 0.155495,0.78624 0.05183,0.273 0.103663,0.55684 0.155495,0.85115 0.05183,0.29431 0.103663,0.59913 0.155496,0.91407 0.05183,0.31493 0.103663,0.64001 0.155495,0.97479 0.05183,0.33479 0.103664,0.67933 0.155495,1.03314 0.05183,0.3538 0.103664,0.71691 0.155496,1.08882 0.05183,0.37192 0.103664,0.75267 0.155495,1.14172 0.05183,0.38904 0.103664,0.78644 0.155495,1.19159 0.05184,0.40514 0.103664,0.81809 0.155496,1.23823 0.05183,0.42015 0.103664,0.84751 0.155495,1.28148 0.05183,0.43397 0.103664,0.87458 0.155495,1.32115 0.05183,0.44658 0.103664,0.89916 0.155496,1.35707 0.05183,0.45789 0.103664,0.92115 0.155495,1.38905 0.05183,0.4679 0.103664,0.94046 0.155495,1.41698 0.05183,0.47651 0.103664,0.95699 0.155496,1.44069 0.05183,0.48371 0.103664,0.97065 0.155495,1.46008 0.05183,0.48941 0.103664,0.98134 0.155495,1.47498 0.05183,0.49364 0.103664,0.98902 0.155496,1.48533 0.05183,0.49632 0.103664,0.99359 0.155495,1.49103 0.05183,0.49744 0.103664,0.99503 0.155495,1.49198 0.05183,0.49695 0.103664,0.99327 0.155497,1.48815 0.05183,0.49486 0.103663,0.98828 0.155495,1.47944 0.05183,0.49116 0.103663,0.98005 0.155495,1.46587 0.05183,0.48582 0.103663,0.96855 0.155496,1.4474 0.05183,0.47884 0.103663,0.95379 0.155495,1.42403 0.05183,0.47024 0.103663,0.93576 0.155495,1.39578 0.05184,0.46 0.103663,0.91449 0.155496,1.36267 0.05183,0.44818 0.103663,0.89002 0.155495,1.32478 0.05183,0.43475 0.103664,0.86237 0.155495,1.28215 0.05183,0.41977 0.103664,0.83163 0.155496,1.23488 0.05183,0.40326 0.103664,0.79785 0.155495,1.18308 0.05183,0.38525 0.103664,0.76109 0.155495,1.12687 0.05183,0.36579 0.103664,0.72147 0.155496,1.06638 0.05183,0.34494 0.103664,0.67906 0.155495,1.00179 0.05183,0.32272 0.103664,0.63398 0.155495,0.93323 0.05183,0.29925 0.103664,0.58639 0.155496,0.86095 0.05183,0.27455 0.103664,0.53641 0.155495,0.78512 0.05183,0.24872 0.103664,0.48419 0.155495,0.70599 0.05184,0.22181 0.103664,0.42987 0.155496,0.62379 0.05183,0.19392 0.103664,0.37364 0.155495,0.53878 0.05183,0.16515 0.103664,0.31567 0.155495,0.45124 0.05183,0.13557 0.103664,0.25613 0.155496,0.36143 0.05183,0.10524 0.103664,0.19526 0.155495,0.26969 0.05183,0.0744 0.103664,0.13323 0.155495,0.17631 0.05183,0.0431 0.103664,0.0703 0.155497,0.0815 0.05183,0.0117 0.103663,0.007 0.155495,-0.0141 0.05183,-0.0207 0.103663,-0.0576 0.155495,-0.11045 0.05183,-0.0529 0.103663,-0.12191 0.155496,-0.20701 0.05183,-0.085 0.103663,-0.18633 0.155495,-0.30355 0.05183,-0.11723 0.103663,-0.25052 0.155495,-0.39965 0.05183,-0.14915 0.103663,-0.31422 0.155496,-0.49495 0.05183,-0.18073 0.103663,-0.37721 0.155495,-0.58907 0.05183,-0.21187 0.103664,-0.43922 0.155495,-0.68165 0.05184,-0.24243 0.103664,-0.50002 0.155496,-0.7723 0.05183,-0.27228 0.103664,-0.55934 0.155495,-0.86065 0.05183,-0.30132 0.103664,-0.61697 0.155495,-0.94636 0.05183,-0.3294 0.103664,-0.67263 0.155496,-1.02905 0.05183,-0.3564 0.103664,-0.72608 0.155495,-1.10832 0.05183,-0.38225 0.103664,-0.77713 0.155495,-1.18389 0.05183,-0.40677 0.103664,-0.8255 0.155496,-1.25538 0.05183,-0.42988 0.103664,-0.87099 0.155495,-1.32246 0.05183,-0.45148 0.103664,-0.91339 0.155495,-1.38483 0.05183,-0.47144 0.103664,-0.95247 0.155496,-1.44216 0.05183,-0.48968 0.103664,-0.98807 0.155495,-1.49419 0.05183,-0.50611 0.103664,-1.02 0.155495,-1.54064 0.05184,-0.52063 0.103664,-1.04805 0.155496,-1.58123 0.05183,-0.53318 0.103664,-1.07213 0.155495,-1.61579 0.05183,-0.54365 0.103664,-1.09204 0.155495,-1.64405 0.05183,-0.55202 0.103664,-1.10768 0.155497,-1.66586 0.05183,-0.55817 0.103663,-1.1189 0.155495,-1.68103 0.05183,-0.56212 0.103663,-1.12565 0.155495,-1.68943 0.05183,-0.56379 0.103663,-1.12784 0.155496,-1.69098 0.05183,-0.56314 0.103663,-1.12538 0.155495,-1.68554 0.05183,-0.56018 0.103663,-1.11826 0.155495,-1.67311 0.05183,-0.55484 0.103663,-1.10644 0.155496,-1.65362 0.05183,-0.54718 0.103663,-1.08992 0.155495,-1.62708 0.05183,-0.53716 0.103664,-1.06873 0.155495,-1.59354 0.05183,-0.52483 0.103664,-1.04289 0.155496,-1.55308 0.05183,-0.51019 0.103663,-1.01246 0.155495,-1.50576 0.05183,-0.49328 0.103664,-0.97752 0.155495,-1.4517 0.05183,-0.47416 0.103664,-0.93821 0.155496,-1.3911 0.05183,-0.4529 0.103663,-0.89459 0.155495,-1.32413 0.05183,-0.42954 0.103664,-0.84684 0.155495,-1.25101 0.05183,-0.40415 0.103664,-0.7951 0.155496,-1.17197 0.05183,-0.37687 0.103663,-0.7396 0.155495,-1.08734 0.05183,-0.34776 0.103664,-0.68048 0.155495,-0.99741 0.05183,-0.31693 0.103664,-0.61798 0.155496,-0.90249 0.05183,-0.28451 0.103664,-0.55236 0.155495,-0.80298 0.05183,-0.25062 0.103664,-0.48388 0.155495,-0.69929 0.05183,-0.21539 0.103664,-0.4128 0.155496,-0.59179 0.05183,-0.17897 0.103664,-0.33942 0.155495,-0.48094 0.05183,-0.14154 0.103664,-0.26405 0.155496,-0.36726 0.05183,-0.10316 0.103663,-0.18698 0.155496,-0.25114 0.05183,-0.0642 0.103663,-0.10863 0.155495,-0.13318 0.05183,-0.0246 0.103663,-0.0292 0.155495,-0.0138 0.05183,0.0154 0.103663,0.0508 0.155496,0.10641 0.05183,0.0555 0.103663,0.13118 0.155495,0.22683 0.05183,0.0956 0.103663,0.21142 0.155495,0.34703 0.05183,0.13561 0.103663,0.2912 0.155496,0.4664 0.05183,0.17521 0.103663,0.37015 0.155495,0.58437 0.05183,0.21423 0.103664,0.44786 0.155495,0.70037 0.05183,0.25251 0.103664,0.524 0.155496,0.81384 0.05183,0.28983 0.103663,0.59814 0.155495,0.9242 0.05183,0.32605 0.103664,0.66995 0.155495,1.0309 0.05183,0.36096 0.103664,0.73906 0.155496,1.13343 0.05183,0.39436 0.103663,0.80506 0.155495,1.23117 0.05183,0.4261 0.103664,0.86767 0.155495,1.32368 0.05183,0.456 0.103664,0.92651 0.155496,1.41042 0.05183,0.4839 0.103663,0.98127 0.155495,1.49091 0.05183,0.50964 0.103667,1.03163 0.155493,1.56471 0.05188,0.53308 0.103668,1.07731 0.155502,1.63138 0.05179,0.55405 0.103659,1.11801 0.155494,1.69048 0.05179,0.57248 0.103659,1.15353 0.155493,1.74173 0.05188,0.58819 0.10366,1.18358 0.155494,1.7847 0.05188,0.60112 0.103668,1.208 0.155493,1.81915 0.05188,0.61114 0.103669,1.22659 0.155503,1.8448 0.05179,0.61821 0.103659,1.2392 0.155493,1.86142 0.05179,0.62223 0.10366,1.24571 0.155494,1.86888 0.05188,0.62316 0.103659,1.246 0.155493,1.86697 0.05179,0.62098 0.103669,1.24005 0.155494,1.85569 0.05188,0.61562 0.103668,1.22778 0.155503,1.83493 0.05179,0.60713 0.103659,1.20922 0.155493,1.80474 0.05188,0.59551 0.103659,1.1844 0.155494,1.76517 0.05188,0.58077 0.103659,1.15337 0.155493,1.71634 0.05179,0.56296 0.103668,1.11623 0.155494,1.65838 0.05188,0.54215 0.103668,1.0731 0.155502,1.59151 0.05179,0.51841 0.10366,1.02418 0.155494,1.51602 0.05179,0.49184 0.103659,0.96964 0.155493,1.43218 0.05188,0.46254 0.10366,0.90971 0.155494,1.34035 0.05188,0.43065 0.103668,0.84466 0.155493,1.24096 0.05188,0.39629 0.103669,0.77478 0.155503,1.13443 0.05179,0.35966 0.103659,0.70039 0.155493,1.02129 0.05179,0.32089 0.10366,0.62184 0.155494,0.90204 0.05188,0.2802 0.103659,0.53952 0.155493,0.77727 0.05188,0.23777 0.103669,0.45383 0.155494,0.64764 0.05179,0.19379 0.103668,0.36519 0.155503,0.51372 0.05179,0.14855 0.103659,0.27408 0.155493,0.37628 0.05188,0.10225 0.103659,0.18093 0.155494,0.23596 0.05188,0.0551 0.103668,0.0862 0.155493,0.0935 0.05188,0.008 0.103669,-0.009 0.155494,-0.0501 0.05179,-0.0408 0.103668,-0.10563 0.155502,-0.19455 0.05179,-0.0888 0.10366,-0.20187 0.155494,-0.33867 0.05188,-0.13678 0.103659,-0.29752 0.155493,-0.48174 0.05179,-0.18424 0.103669,-0.3921 0.155494,-0.62301 0.05188,-0.23092 0.103668,-0.48503 0.155493,-0.76162 0.05188,-0.27661 0.103669,-0.57581 0.155503,-0.8968 0.05179,-0.321 0.103659,-0.6639 0.155493,-1.02774 0.05188,-0.36384 0.10366,-0.74876 0.155494,-1.15366 0.05179,-0.4049 0.103668,-0.82991 0.155493,-1.2738 0.05188,-0.44391 0.103669,-0.90682 0.155494,-1.38742 0.05188,-0.48061 0.103668,-0.97901 0.155503,-1.4938 0.05179,-0.51479 0.103659,-1.04604 0.155493,-1.59225 0.05188,-0.54622 0.103659,-1.10749 0.155494,-1.68218 0.05188,-0.57469 0.103668,-1.1629 0.155493,-1.76292 0.05188,-0.60002 0.103669,-1.21192 0.155503,-1.83395 0.05179,-0.62202 0.103659,-1.25421 0.155493,-1.89475 0.05179,-0.64053 0.10366,-1.28946 0.155494,-1.94489 0.05188,-0.65542 0.103662,-1.31738 0.155492,-1.98394 0.0519,-0.66657 0.10367,-1.33775 0.15549,-2.0116 0.0518,-0.67384 0.10367,-1.35036 0.15551,-2.02756 0.0518,-0.67721 0.10366,-1.35509 0.15549,-2.03166 0.0518,-0.67657 0.10366,-1.35182 0.15549,-2.02374 0.0518,-0.6719 0.10366,-1.34047 0.1555,-2.0037 0.0519,-0.66323 0.10367,-1.32109 0.15549,-1.97162 0.0518,-0.65052 0.10367,-1.29368 0.1555,-1.92753 0.0518,-0.63384 0.10366,-1.25832 0.1555,-1.87158 0.0518,-0.61325 0.10366,-1.2152 0.15549,-1.80402 0.0518,-0.58883 0.10366,-1.16447 0.15549,-1.72517 0.0519,-0.5607 0.10367,-1.10637 0.1555,-1.63537 0.0519,-0.529 0.10367,-1.0412 0.1555,-1.53509 0.0518,-0.49387 0.10366,-0.96929 0.15549,-1.42482 0.0519,-0.45554 0.10366,-0.89104 0.1555,-1.30522 0.0519,-0.41415 0.10366,-0.80685 0.15549,-1.17685 0.0519,-0.37001 0.10367,-0.71721 0.15549,-1.04052 0.0519,-0.32332 0.10367,-0.62261 0.15551,-0.89696 0.0518,-0.27435 0.10366,-0.5236 0.15549,-0.74699 0.0519,-0.2234 0.10366,-0.42077 0.15549,-0.59154 0.0519,-0.17077 0.10366,-0.31474 0.1555,-0.43151 0.0518,-0.11683 0.10367,-0.20615 0.15549,-0.26789 0.0519,-0.0617 0.10367,-0.0956 0.1555,-0.10172 0.0518,-0.007 0.10366,0.016 0.1555,0.066 0.0518,0.05 0.10366,0.12829 0.15549,0.23435 0.0519,0.10616 0.10366,0.24027 0.15549,0.40204 0.0518,0.16178 0.10367,0.35133 0.1555,0.56803 0.0519,0.2167 0.10367,0.46072 0.1555,0.73126 0.0518,0.27053 0.10366,0.56774 0.15549,0.89065 0.0518,0.3229 0.10366,0.67165 0.1555,1.0451 0.0519,0.37345 0.10367,0.77175 0.15549,1.19358 0.0519,0.42183 0.10367,0.86734 0.15549,1.33505 0.0519,0.4677 0.10367,0.95775 0.15551,1.4685 0.0518,0.51077 0.10366,1.04236 0.15549,1.59301 0.0519,0.55067 0.10366,1.12052 0.15549,1.70766 0.0519,0.58714 0.10367,1.19166 0.1555,1.81156 0.0519,0.61991 0.10367,1.25528 0.15549,1.90399 0.0518,0.64871 0.10367,1.31083 0.1555,1.98416 0.0518,0.67333 0.10366,1.35792 0.1555,2.05147 0.0519,0.69355 0.10366,1.39612 0.15549,2.10532 0.0518,0.70921 0.10367,1.4251 0.15549,2.14526 0.0519,0.72015 0.10367,1.44459 0.15551,2.17085 0.0518,0.72627 0.10366,1.45437 0.15549,2.18184 0.0518,0.72746 0.10366,1.45429 0.15549,2.17798 0.0519,0.7237 0.10366,1.44425 0.1555,2.1592 0.0518,0.71495 0.10367,1.42425 0.15549,2.12549 0.0519,0.70123 0.10367,1.39433 0.1555,2.07694 0.0518,0.6826 0.10366,1.35462 0.1555,2.01376 0.0518,0.65914 0.10366,1.30532 0.15549,1.93629 0.0519,0.63098 0.10366,1.24665 0.15549,1.84492 0.0519,0.59826 0.10367,1.17899 0.1555,1.74017 0.0519,0.56118 0.10367,1.10271 0.1555,1.62269 0.0518,0.51998 0.10366,1.01827 0.15549,1.49317 0.0518,0.47488 0.10366,0.92622 0.1555,1.35243 0.0519,0.4262 0.10366,0.82713 0.15549,1.20137 0.0519,0.37425 0.10367,0.72166 0.15549,1.04102 0.0518,0.31935 0.10367,0.6105 0.15551,0.8724 0.0518,0.2619 0.10366,0.49439 0.15549,0.69666 0.0519,0.20227 0.10366,0.37415 0.15549,0.51503 0.0518,0.14089 0.10366,0.2506 0.1555,0.32876 0.0519,0.0781 0.10367,0.12452 0.15549,0.13914 0.0518,0.0146 0.10367,-0.003 0.1555,-0.0525 0.0518,-0.0495 0.10366,-0.13112 0.1555,-0.2446 0.0519,-0.11344 0.10366,-0.259 0.15549,-0.43597 0.0518,-0.17698 0.10366,-0.38561 0.15549,-0.62511 0.0519,-0.2395 0.10367,-0.51005 0.1555,-0.81062 0.0519,-0.30056 0.10367,-0.63133 0.1555,-0.99105 0.0518,-0.35973 0.10366,-0.74856 0.15549,-1.16508 0.0519,-0.4165 0.10366,-0.86084 0.1555,-1.33132 0.0519,-0.47048 0.10366,-0.96726 0.15549,-1.48847 0.0519,-0.52121 0.10367,-1.067 0.15549,-1.63528 0.0519,-0.56829 0.10367,-1.15922 0.15551,-1.77056 0.0518,-0.61133 0.10366,-1.24318 0.15549,-1.89316 0.0519,-0.64997 0.10366,-1.31819 0.15549,-2.00209 0.0519,-0.6839 0.10367,-1.38359 0.1555,-2.09639 0.0518,-0.71279 0.10367,-1.43878 0.15549,-2.1752 0.0519,-0.73641 0.10367,-1.4833 0.1555,-2.23782 0.0518,-0.75451 0.10366,-1.51669 0.1555,-2.28361 0.0519,-0.76692 0.10366,-1.5386 0.15549,-2.31209 0.0519,-0.77349 0.10367,-1.54879 0.15549,-2.3229 0.0518,-0.77412 0.10367,-1.54705 0.1555,-2.3158 0.0519,-0.76875 0.10367,-1.53331 0.1555,-2.29071 0.0518,-0.7574 0.10366,-1.50758 0.15549,-2.24766 0.0518,-0.74008 0.10366,-1.46998 0.1555,-2.18687 0.0519,-0.71688 0.10367,-1.42067 0.15549,-2.10863 0.0519,-0.68795 0.10367,-1.35997 0.15549,-2.01345 0.0519,-0.65346 0.10367,-1.28827 0.15551,-1.90193 0.0518,-0.61365 0.10366,-1.20603 0.15549,-1.77482 0.0519,-0.56879 0.10366,-1.11383 0.15549,-1.63301 0.0519,-0.51917 0.10367,-1.01233 0.1555,-1.47752 0.0519,-0.46519 0.10367,-0.90224 0.1555,-1.30946 0.0518,-0.40722 0.10366,-0.78441 0.15549,-1.1301 0.0518,-0.3457 0.10366,-0.6597 0.1555,-0.9408 0.0519,-0.2811 0.10366,-0.52907 0.15549,-0.74299 0.0519,-0.2139 0.10367,-0.39354 0.15549,-0.53821 0.0519,-0.14466 0.10367,-0.25416 0.15551,-0.32807 0.0518,-0.0738 0.10366,-0.11202 0.15549,-0.11423 0.0518,-0.003 0.10366,0.0316 0.15549,0.10146 0.0519,0.0698 0.10366,0.17582 0.1555,0.31748 0.0518,0.14165 0.10367,0.31921 0.15549,0.53187 0.0519,0.21266 0.10367,0.46065 0.1555,0.74291 0.0518,0.28224 0.10366,0.59896 0.1555,0.94879 0.0518,0.34984 0.10366,0.73299 0.15549,1.14781 0.0519,0.41484 0.10366,0.86154 0.15549,1.33821 0.0519,0.47668 0.10367,0.98351 0.1555,1.51833 0.0519,0.53483 0.10367,1.09784 0.1555,1.6866 0.0518,0.58877 0.10366,1.20347 0.15549,1.84149 0.0518,0.63801 0.10366,1.29947 0.1555,1.98157 0.0519,0.6821 0.10366,1.38495 0.15549,2.10558 0.0519,0.72062 0.10367,1.45911 0.15549,2.2123 0.0519,0.7532 0.10367,1.5212 0.15551,2.3007 0.0518,0.77952 0.10366,1.57061 0.15549,2.3699 0.0519,0.79927 0.10366,1.6068 0.15549,2.41908 0.0519,0.8123 0.10366,1.62939 0.1555,2.44777 0.0519,0.81838 0.10367,1.63805 0.15549,2.45548 0.0518,0.81743 0.10367,1.6326 0.1555,2.44201 0.0518,0.80939 0.10366,1.61299 0.1555,2.40729 0.0518,0.79431 0.10366,1.57928 0.15549,2.3515 0.0519,0.77222 0.10366,1.53164 0.15549,2.27493 0.0519,0.74329 0.10367,1.47038 0.1555,2.17809 0.0519,0.70772 0.10367,1.39596 0.1555,2.0617 0.0518,0.66576 0.10366,1.30891 0.15549,1.92663 0.0519,0.61772 0.10366,1.20989 0.1555,1.77389 0.0519,0.56403 0.10367,1.09972 0.15549,1.60478 0.0519,0.50504 0.10367,0.97927 0.15549,1.42058 0.0519,0.44133 0.10367,0.84955 0.15551,1.22292 0.0518,0.37336 0.10366,0.71165 0.15549,1.0134 0.0519,0.30175 0.10366,0.56674 0.15549,0.79384 0.0519,0.2271 0.10367,0.41606 0.1555,0.56612 0.0519,0.15005 0.10367,0.26097 0.15549,0.33228 0.0518,0.0712 0.10367,0.10277 0.1555,0.0943 0.0518,-0.008 0.10366,-0.0571 0.1555,-0.14551 0.0519,-0.0884 0.10366,-0.21707 0.15549,-0.38515 0.0518,-0.16807 0.10367,-0.37586 0.15549,-0.62235 0.0519,-0.24649 0.10367,-0.53191 0.1555,-0.85493 0.0519,-0.323 0.10367,-0.68381 0.1555,-1.08069 0.0518,-0.3969 0.10366,-0.83011 0.15549,-1.29755 0.0519,-0.46745 0.10366,-0.96937 0.1555,-1.50337 0.0519,-0.534 0.10367,-1.10029 0.15549,-1.69619 0.0519,-0.5959 0.10367,-1.22159 0.1555,-1.87411 0.0518,-0.65253 0.10366,-1.33205 0.1555,-2.03536 0.0518,-0.7033 0.10366,-1.43054 0.15549,-2.17828 0.0519,-0.74774 0.10366,-1.51609 0.15549,-2.30141 0.0519,-0.78534 0.10367,-1.58776 0.1555,-2.40347 0.0519,-0.8157 0.10367,-1.64477 0.1555,-2.48328 0.0518,-0.8385 0.10366,-1.68648 0.15549,-2.53994 0.0518,-0.85345 0.10366,-1.71239 0.1555,-2.57275 0.0519,-0.86036 0.10366,-1.72214 0.15549,-2.58123 0.0519,-0.85909 0.10367,-1.71547 0.15549,-2.56508 0.0518,-0.8496 0.10367,-1.69238 0.15551,-2.5243 0.0518,-0.83193 0.10366,-1.65294 0.15549,-2.4591 0.0518,-0.80618 0.10366,-1.59742 0.15549,-2.36994 0.0519,-0.77252 0.10366,-1.5262 0.1555,-2.25745 0.0519,-0.73125 0.10367,-1.43993 0.15549,-2.12263 0.0519,-0.6827 0.10367,-1.33926 0.1555,-1.96657 0.0518,-0.62729 0.10366,-1.22514 0.1555,-1.79066 0.0519,-0.56553 0.10366,-1.09854 0.15549,-1.59649 0.0519,-0.49794 0.10366,-0.96062 0.15549,-1.3858 0.0519,-0.42519 0.10367,-0.81266 0.1555,-1.16057 0.0519,-0.34792 0.10367,-0.65606 0.1555,-0.92293 0.0518,-0.26688 0.10366,-0.49227 0.15549,-0.67511 0.0519,-0.18284 0.10366,-0.3229 0.1555,-0.41953 0.0518,-0.0966 0.10366,-0.14957 0.15549,-0.15864 0.0519,-0.009 0.10367,0.0259 0.15549,0.10498 0.0519,0.0789 0.10367,0.20205 0.15551,0.36861 0.0518,0.16658 0.10366,0.37686 0.15549,0.62975 0.0519,0.25288 0.10366,0.54862 0.15549,0.88566 0.0519,0.33703 0.10366,0.7156 0.1555,1.13375 0.0519,0.41813 0.10367,0.87607 0.15549,1.37142 0.0519,0.49535 0.10367,1.02834 0.1555,1.59621 0.0518,0.56787 0.10366,1.17082 0.1555,1.80572 0.0519,0.6349 0.10366,1.30195 0.15549,1.99769 0.0519,0.69574 0.10367,1.42034 0.15549,2.17005 0.0519,0.7497 0.10367,1.52467 0.1555,2.32086 0.0519,0.7962 0.10367,1.61375 0.1555,2.44844 0.0518,0.83468 0.10366,1.68657 0.15549,2.55128 0.0519,0.86469 0.10366,1.74226 0.1555,2.62813 0.0519,0.88587 0.10367,1.78011 0.15549,2.67806 0.0518,0.89793 0.10367,1.79959 0.15549,2.70029 0.0519,0.90068 0.10367,1.8004 0.15551,2.69443 0.0518,0.89404 0.10366,1.78237 0.15549,2.66035 0.0518,0.87798 0.10366,1.74556 0.15549,2.59818 0.0519,0.85263 0.10367,1.69022 0.1555,2.5084 0.0519,0.81818 0.10367,1.61683 0.15549,2.39176 0.0519,0.77493 0.10367,1.526 0.1555,2.24928 0.0518,0.72329 0.10366,1.41862 0.1555,2.08236 0.0519,0.66373 0.10366,1.29568 0.15549,1.89254 0.0519,0.59684 0.10367,1.1584 0.15549,1.68172 0.0519,0.52331 0.10367,1.00815 0.15551,1.45201 0.0518,0.44385 0.10366,0.84647 0.15549,1.20577 0.0518,0.35928 0.10366,0.67499 0.15549,0.94549 0.0519,0.27051 0.10366,0.49552 0.1555,0.67395 0.0519,0.17841 0.10367,0.30993 0.15549,0.39394 0.0519,0.084 0.10367,0.12022 0.1555,0.1085 0.0518,-0.0117 0.10366,-0.0716 0.1555,-0.17928 0.0518,-0.10771 0.10366,-0.26342 0.15549,-0.46629 0.0519,-0.20289 0.10366,-0.45317 0.15549,-0.74942 0.0518,-0.29624 0.10367,-0.63873 0.1555,-1.02547 0.0519,-0.38675 0.10367,-0.81803 0.1555,-1.29138 0.0518,-0.47336 0.10366,-0.98906 0.15549,-1.54414 0.0518,-0.5551 0.10366,-1.14985 0.1555,-1.78086 0.0519,-0.63102 0.10366,-1.29853 0.15549,-1.99878 0.0519,-0.70023 0.10367,-1.43339 0.15549,-2.19533 0.0519,-0.76195 0.10367,-1.55284 0.15551,-2.36823 0.0518,-0.8154 0.10366,-1.65541 0.15549,-2.51533 0.0519,-0.85991 0.10366,-1.73983 0.15549,-2.6348 0.0519,-0.89495 0.10366,-1.80504 0.1555,-2.72511 0.0519,-0.92007 0.10367,-1.85018 0.15549,-2.78507 0.0519,-0.9349 0.10367,-1.87459 0.1555,-2.81377 0.0518,-0.93918 0.10366,-1.87784 0.1555,-2.81067 0.0519,-0.93282 0.10366,-1.85976 0.15549,-2.77558 0.0519,-0.91582 0.10366,-1.82044 0.15549,-2.70872 0.0519,-0.88828 0.10367,-1.76014 0.1555,-2.61061 0.0518,-0.85048 0.10367,-1.67943 0.1555,-2.48217 0.0518,-0.80275 0.10366,-1.57911 0.15549,-2.32468 0.0519,-0.74559 0.10366,-1.46019 0.1555,-2.13976 0.0518,-0.67959 0.10367,-1.32392 0.15549,-1.92938 0.0519,-0.60545 0.10367,-1.17177 0.15549,-1.69577 0.0519,-0.524 0.10367,-1.0054 0.15551,-1.44152 0.0518,-0.43613 0.10366,-0.82668 0.15549,-1.16947 0.0519,-0.34281 0.10366,-0.63757 0.15549,-0.88267 0.0519,-0.2451 0.10367,-0.44025 0.1555,-0.58438 0.0519,-0.14413 0.10367,-0.23696 0.15549,-0.27803 0.0519,-0.041 0.10367,-0.0301 0.1555,0.0328 0.0518,0.0629 0.10366,0.17799 0.1555,0.34451 0.0519,0.16652 0.10366,0.38479 0.15549,0.65338 0.0519,0.2686 0.10367,0.58783 0.15549,0.9557 0.0519,0.36789 0.10367,0.7847 0.1555,1.24789 0.0519,0.46317 0.10367,0.97298 0.1555,1.52629 0.0518,0.55332 0.10366,1.1504 0.15549,1.78758 0.0519,0.63718 0.10366,1.31471 0.1555,2.02843 0.0519,0.71373 0.10367,1.46387 0.15549,2.24586 0.0518,0.78199 0.10367,1.59599 0.1555,2.43706 0.0518,0.84107 0.10366,1.70935 0.1555,2.59956 0.0518,0.8902 0.10366,1.80245 0.15549,2.73117 0.0518,0.92871 0.10366,1.87402 0.15549,2.83011 0.0519,0.9561 0.10367,1.92305 0.1555,2.89497 0.0519,0.97191 0.10367,1.9488 0.1555,2.92471 0.0518,0.97591 0.10366,1.95081 0.15549,2.91874 0.0518,0.96794 0.10366,1.92887 0.1555,2.87691 0.0519,0.94804 0.10366,1.88311 0.15549,2.79949 0.0519,0.91638 0.10367,1.81395 0.15549,2.68721 0.0519,0.87327 0.10367,1.72207 0.15551,2.54125 0.0518,0.81916 0.10366,1.60849 0.15549,2.36317 0.0518,0.75468 0.10366,1.47447 0.15549,2.15501 0.0519,0.68054 0.10366,1.32156 0.1555,1.91918 0.0519,0.59761 0.10367,1.15153 0.15549,1.6584 0.0519,0.50688 0.10367,0.96643 0.1555,1.37586 0.0518,0.40944 0.10366,0.76846 0.1555,1.07492 0.0519,0.30647 0.10366,0.56005 0.15549,0.75927 0.0519,0.19923 0.10366,0.34376 0.15549,0.43281 0.0518,0.0891 0.10367,0.1223 0.1555,0.0996 0.0519,-0.0227 0.10367,-0.10159 0.1555,-0.23611 0.0518,-0.13454 0.10366,-0.32503 0.15549,-0.57014 0.0518,-0.24511 0.10366,-0.54519 0.1555,-0.89817 0.0519,-0.35298 0.10366,-0.75921 0.15549,-1.21595 0.0519,-0.45675 0.10367,-0.96432 0.15549,-1.51935 0.0519,-0.55505 0.10367,-1.15783 0.15551,-1.80439 0.0518,-0.64654 0.10366,-1.33714 0.15549,-2.06721 0.0519,-0.73007 0.10366,-1.49988 0.15549,-2.30434 0.0519,-0.80447 0.10366,-1.64381 0.1555,-2.51251 0.0519,-0.8687 0.10367,-1.76693 0.15549,-2.68881 0.0519,-0.92188 0.10367,-1.86754 0.1555,-2.83077 0.0518,-0.96324 0.10366,-1.94414 0.1555,-2.9363 0.0519,-0.99215 0.10366,-1.99561 0.15549,-3.00379 0.0519,-1.00817 0.10367,-2.0211 0.15549,-3.03212 0.0519,-1.01101 0.10367,-2.0201 0.1555,-3.02065 0.0518,-1.00055 0.10367,-1.99248 0.1555,-2.96931 0.0518,-0.97682 0.10366,-1.93842 0.15549,-2.8785 0.0519,-0.94009 0.10366,-1.8585 0.1555,-2.7492 0.0518,-0.89072 0.10367,-1.75357 0.15549,-2.58289 0.0519,-0.82932 0.10367,-1.6249 0.15549,-2.38153 0.0519,-0.75662 0.10367,-1.47406 0.15551,-2.1476 0.0518,-0.67355 0.10366,-1.30294 0.15549,-1.88406 0.0519,-0.58114 0.10366,-1.11371 0.15549,-1.59425 0.0519,-0.48055 0.10367,-0.90877 0.1555,-1.28189 0.0519,-0.37312 0.10367,-0.69082 0.15549,-0.95108 0.0519,-0.26025 0.10367,-0.46272 0.1555,-0.60618 0.0518,-0.14345 0.10366,-0.22751 0.1555,-0.25178 0.0519,-0.0242 0.10366,0.0117 0.15549,0.10733 0.0519,0.0957 0.10367,0.25157 0.15549,0.46637 0.0519,0.21482 0.10367,0.48893 0.15551,0.82035 0.0518,0.33141 0.10366,0.72047 0.15549,1.16439 0.0518,0.44391 0.10366,0.943 0.15549,1.49374 0.0519,0.55072 0.10366,1.15338 0.1555,1.80372 0.0519,0.65035 0.10367,1.34865 0.15549,2.09001 0.0518,0.74135 0.10367,1.52601 0.1555,2.34844 0.0518,0.82243 0.10366,1.68286 0.1555,2.57526 0.0518,0.89239 0.10366,1.81693 0.15549,2.76715 0.0518,0.9502 0.10366,1.92622 0.15549,2.92119 0.0519,0.99498 0.10367,2.00903 0.1555,3.03502 0.0519,1.02601 0.10367,2.06404 0.1555,3.10681 0.0518,1.04276 0.10366,2.09029 0.15549,3.13523 0.0518,1.04495 0.10366,2.08728 0.1555,3.1197 0.0519,1.03241 0.10366,2.05484 0.15549,3.06011 0.0519,1.00527 0.10367,1.99327 0.15549,2.95707 0.0519,0.9638 0.10367,1.90326 0.15551,2.81177 0.0518,0.90851 0.10366,1.78589 0.15549,2.62598 0.0519,0.84011 0.10366,1.6427 0.15549,2.40218 0.0519,0.75947 0.10366,1.47557 0.1555,2.14327 0.0519,0.6677 0.10367,1.28672 0.15549,1.85276 0.0519,0.56604 0.10367,1.07877 0.1555,1.53465 0.0518,0.45587 0.10366,0.85456 0.1555,1.19332 0.0519,0.33876 0.10366,0.61724 0.15549,0.83358 0.0519,0.21634 0.10366,0.37014 0.15549,0.4605 0.0518,0.0904 0.10367,0.11683 0.1555,0.0795 0.0519,-0.0374 0.10367,-0.13911 0.1555,-0.30419 0.0518,-0.16509 0.10366,-0.39396 0.15549,-0.68478 0.0518,-0.29081 0.10366,-0.64395 0.1555,-1.05669 0.0519,-0.41275 0.10366,-0.88546 0.15549,-1.41453 0.0519,-0.52908 0.10367,-1.11486 0.15549,-1.75293 0.0519,-0.63805 0.10367,-1.32871 0.15551,-2.06675 0.0518,-0.73806 0.10366,-1.5238 0.15549,-2.35132 0.0519,-0.82754 0.10366,-1.69709 0.15549,-2.60219 0.0519,-0.9051 0.10367,-1.84593 0.1555,-2.81547 0.0519,-0.96953 0.10367,-1.96794 0.15549,-2.98776 0.0519,-1.0198 0.10367,-2.06115 0.1555,-3.11626 0.0518,-1.0551 0.10366,-2.12404 0.1555,-3.19882 0.0519,-1.07477 0.10366,-2.15543 0.15549,-3.23389 0.0519,-1.07847 0.10367,-2.15471 0.15549,-3.2207 0.0519,-1.066 0.10367,-2.12168 0.1555,-3.15916 0.0518,-1.03747 0.10367,-2.05664 0.1555,-3.04988 0.0518,-0.99324 0.10366,-1.96041 0.15549,-2.89426 0.0519,-0.93387 0.10366,-1.83423 0.1555,-2.69438 0.0518,-0.86015 0.10367,-1.67984 0.15549,-2.45299 0.0519,-0.77313 0.10367,-1.49943 0.15549,-2.17351 0.0519,-0.67408 0.10367,-1.2956 0.15551,-1.86 0.0518,-0.5644 0.10366,-1.0713 0.15549,-1.51702 0.0519,-0.44572 0.10366,-0.82986 0.15549,-1.14967 0.0519,-0.31979 0.10367,-0.57485 0.1555,-0.7634 0.0519,-0.18853 0.10367,-0.31014 0.1555,-0.36406 0.0518,-0.0539 0.10366,-0.0397 0.15549,0.0422 0.0518,0.0821 0.10366,0.23223 0.1555,0.44935 0.0519,0.21712 0.10366,0.50154 0.15549,0.8509 0.0519,0.34936 0.10367,0.76404 0.15549,1.24067 0.0519,0.47663 0.10367,1.01558 0.15551,1.61252 0.0518,0.59693 0.10366,1.25219 0.15549,1.96054 0.0518,0.70834 0.10366,1.47009 0.15549,2.27917 0.0519,0.80908 0.10366,1.66578 0.1555,2.56327 0.0519,0.8975 0.10367,1.83603 0.15549,2.80816 0.0518,0.97213 0.10367,1.97804 0.1555,3.00975 0.0518,1.03172 0.10366,2.08939 0.1555,3.16464 0.0518,1.07526 0.10366,2.16817 0.15549,3.27011 0.0518,1.10194 0.10366,2.21293 0.15549,3.3242 0.0519,1.11125 0.10367,2.22277 0.1555,3.32573 0.0519,1.10299 0.10367,2.19735 0.1555,3.27445 0.0518,1.07711 0.10366,2.13683 0.15549,3.17081 0.0519,1.03396 0.10366,2.04201 0.1555,3.01616 0.0519,0.97416 0.10366,1.9142 0.15549,2.81273 0.0519,0.89852 0.10367,1.75527 0.15549,2.56349 0.0519,0.80821 0.10367,1.56759 0.15551,2.27217 0.0518,0.70459 0.10366,1.35404 0.15549,1.94327 0.0519,0.58924 0.10366,1.11789 0.15549,1.58185 0.0519,0.46397 0.10366,0.86285 0.1555,1.1936 0.0519,0.33074 0.10367,0.59294 0.15549,0.78465 0.0519,0.1917 0.10367,0.31251 0.1555,0.36158 0.0518,0.0491 0.10366,0.026 0.1555,-0.0689 0.0519,-0.0948 0.10366,-0.26187 0.15549,-0.49957 0.0519,-0.23769 0.10366,-0.54645 0.15549,-0.92358 0.0518,-0.37713 0.10367,-0.82305 0.1555,-1.33389 0.0519,-0.51085 0.10367,-1.08702 0.1555,-1.72363 0.0518,-0.6366 0.10366,-1.33399 0.15549,-2.08627 0.0518,-0.75229 0.10366,-1.55978 0.1555,-2.41569 0.0519,-0.85591 0.10367,-1.76052 0.15549,-2.70621 0.0519,-0.9457 0.10367,-1.93274 0.15549,-2.95282 0.0519,-1.02008 0.10367,-2.07339 0.15551,-3.15112 0.0518,-1.07773 0.10366,-2.18001 0.15549,-3.2976 0.0519,-1.1176 0.10366,-2.25058 0.15549,-3.38948 0.0519,-1.13889 0.10367,-2.28372 0.1555,-3.42492 0.0519,-1.14118 0.10367,-2.27869 0.15549,-3.403 0.0519,-1.12431 0.10367,-2.23535 0.1555,-3.32381 0.0518,-1.08847 0.10366,-2.1542 0.1555,-3.18833 0.0519,-1.03412 0.10366,-2.03643 0.15549,-2.99855 0.0519,-0.9621 0.10367,-1.88379 0.15549,-2.75736 0.0519,-0.87357 0.10367,-1.69873 0.15551,-2.46862 0.0518,-0.76989 0.10366,-1.48418 0.15549,-2.13693 0.0518,-0.65276 0.10366,-1.24363 0.15549,-1.76774 0.0519,-0.52411 0.10366,-0.98106 0.1555,-1.36714 0.0518,-0.38606 0.10367,-0.70083 0.15549,-0.9418 0.0519,-0.24095 0.10367,-0.40767 0.1555,-0.49891 0.0518,-0.0913 0.10366,-0.10654 0.1555,-0.046 0.0518,0.0606 0.10366,0.19742 0.15549,0.40922 0.0519,0.21181 0.10366,0.49899 0.15549,0.85887 0.0519,0.35989 0.10367,0.7929 0.1555,1.29512 0.0519,0.50224 0.10367,1.07406 0.1555,1.71037 0.0518,0.6363 0.10366,1.33746 0.15549,2.09723 0.0518,0.75976 0.10366,1.57846 0.1555,2.44882 0.0519,0.87038 0.10366,1.79271 0.15549,2.75884 0.0519,0.96613 0.10367,1.97631 0.15549,3.02161 0.0519,1.04528 0.10367,2.12587 0.15551,3.23223 0.0518,1.10635 0.10366,2.23862 0.15549,3.38678 0.0519,1.14817 0.10366,2.31231 0.15549,3.48218 0.0519,1.16987 0.10366,2.34547 0.1555,3.51645 0.0519,1.17097 0.10367,2.33728 0.15549,3.48864 0.0518,1.15135 0.10367,2.28765 0.1555,3.3989 0.0518,1.11124 0.10366,2.19727 0.1555,3.24852 0.0519,1.05123 0.10366,2.06748 0.15549,3.0398 0.0518,0.97232 0.10366,1.90043 0.15549,2.7762 0.0519,0.87578 0.10367,1.69887 0.1555,2.46212 0.0519,0.76323 0.10367,1.46624 0.1555,2.1029 0.0518,0.63666 0.10366,1.20655 0.15549,1.70479 0.0519,0.49822 0.10366,0.92432 0.1555,1.27468 0.0519,0.35038 0.10366,0.62454 0.15549,0.82026 0.0519,0.19571 0.10367,0.31249 0.15549,0.3495 0.0519,0.037 0.10367,-0.007 0.15551,-0.12907 0.0518,-0.12282 0.10366,-0.32583 0.15549,-0.60685 0.0519,-0.281 0.10366,-0.64053 0.15549,-1.07509 0.0519,-0.43456 0.10367,-0.94461 0.1555,-1.52527 0.0519,-0.58068 0.10367,-1.2324 0.15549,-1.94903 0.0519,-0.71663 0.10367,-1.49857 0.1555,-2.33846 0.0518,-0.8399 0.10366,-1.73811 0.1555,-2.68625 0.0519,-0.94813 0.10366,-1.94649 0.15549,-2.98577 0.0519,-1.03928 0.10367,-2.1197 0.15549,-3.23124 0.0518,-1.11154 0.10367,-2.25436 0.1555,-3.41786 0.0519,-1.16349 0.10367,-2.34777 0.1555,-3.54184 0.0518,-1.19408 0.10366,-2.39799 0.15549,-3.60057 0.0519,-1.20258 0.10366,-2.40382 0.1555,-3.59258 0.0519,-1.18877 0.10367,-2.36496 0.15549,-3.51771 0.0519,-1.15274 0.10367,-2.28187 0.15549,-3.37696 0.0519,-1.09508 0.10367,-2.1559 0.15551,-3.17264 0.0518,-1.01675 0.10366,-1.98916 0.15549,-2.90826 0.0519,-0.9191 0.10366,-1.78455 0.15549,-2.58842 0.0519,-0.80387 0.10367,-1.54576 0.1555,-2.2189 0.0519,-0.67313 0.10367,-1.27708 0.1555,-1.80636 0.0518,-0.52929 0.10366,-0.98346 0.15549,-1.35844 0.0518,-0.37497 0.10366,-0.67028 0.1555,-0.88336 0.0518,-0.21307 0.10366,-0.34342 0.15549,-0.39004 0.0519,-0.0466 0.10367,-0.009 0.15549,0.11228 0.0519,0.12126 0.10367,0.32663 0.15551,0.61395 0.0518,0.28733 0.10366,0.65709 0.15549,1.10551 0.0518,0.44844 0.10366,0.97602 0.15549,1.57747 0.0519,0.60146 0.10366,1.27723 0.1555,2.02065 0.0519,0.74343 0.10367,1.55488 0.15549,2.4264 0.0519,0.87153 0.10367,1.80347 0.1555,2.78672 0.0518,0.98323 0.10366,2.01807 0.1555,3.09438 0.0518,1.07632 0.10366,2.19436 0.15549,3.34321 0.0519,1.14886 0.10366,2.3287 0.15549,3.52805 0.0519,1.19934 0.10367,2.41829 0.1555,3.64498 0.0519,1.22668 0.10367,2.46115 0.1555,3.69138 0.0518,1.23023 0.10366,2.45621 0.15549,3.66599 0.0519,1.2098 0.10366,2.40329 0.1555,3.56892 0.0519,1.16563 0.10366,2.30322 0.15549,3.40172 0.0518,1.09849 0.10367,2.15767 0.15549,3.16727 0.0519,1.00959 0.10367,1.96931 0.15551,2.86987 0.0518,0.90056 0.10366,1.74161 0.15549,2.51505 0.0518,0.77345 0.10366,1.47886 0.15549,2.1095 0.0519,0.63066 0.10366,1.18608 0.1555,1.66102 0.0519,0.47493 0.10367,0.8689 0.15549,1.17822 0.0519,0.30932 0.10367,0.53351 0.1555,0.67058 0.0518,0.13706 0.10366,0.18647 0.1555,0.14802 0.0519,-0.0384 0.10366,-0.16532 0.15549,-0.37908"
       style="opacity:1;fill:none;fill-opacity:1;fill-rule:evenodd;stroke:#d40000;stroke-width:0.80000001;stroke-linecap:butt;stroke-linejoin:round;stroke-miterlimit:4;stroke-dasharray:none;stroke-dashoffset:0;stroke-opacity:1"
       inkscape:connector-curvature="0"
       sodipodi:nodetypes="ccccccccccscccscccccccccsscscccccccccccccccccccccccccccccccccccccccccccccccccccccccccccccccccccccccccccccccccccccccccccccccccccccccccccccccccccccccccccccccccccccccccccccccccccccccccccccccccccccccccccccccccccccccccccccccccccccccccccccccccccsccccccsccccsccsccccccccccccccsscccccccccccccccccccccccccccccccccccccccccscsscccccccccccccccccccccccccccccccccscccccccccccccccccccscccccccccsccccscsccccccccccccccsccccccscccccccccccccccccccccccccccsccscccccccccccsccccccccccccccccccccccsccccsccccccccccccccccccccccccccccccccccccccccccccccccccccccccccccccccccccccccccccccccccccccccccccccccccccccccccccccccccccccccccccccccccccccccccccccccccccccccccccccccccccccccccccccccccccccccccccccccccccccccccccccccccccccccccccccccccccccccccccccccccccccccccccccccccccccccccccccccccccccccccccccccccccccccccccccccccccccccccccccccccccccccccccccccccccccccccccccccccccccccccccccccccccccccccccccccccccccccccccccccccccccccccccccccccccccccccccccccccccccccccccccccccccccccccccccccccccccccccccccccccccccccccccccccccccc" />
    <path
       style="fill:#000000;fill-opacity:1;stroke:#808080;stroke-width:0.80000001;stroke-miterlimit:4;stroke-dasharray:none;stroke-dashoffset:0;stroke-opacity:1"
       d="M 21.245501,189.31252 H 15.386115"
       id="path3453-3-5-2-7-3-5"
       inkscape:connector-curvature="0"
       sodipodi:nodetypes="cc" />
    <path
       style="fill:#000000;fill-opacity:1;stroke:#808080;stroke-width:0.8;stroke-miterlimit:4;stroke-dasharray:3.2,1.6;stroke-dashoffset:0;stroke-opacity:1"
       d="M 50.047634,243.81191 V 188.74003"
       id="path3453-3-5-2-7-3-5-6"
       inkscape:connector-curvature="0"
       sodipodi:nodetypes="cc" />
    <path
       style="fill:#000000;fill-opacity:1;stroke:#808080;stroke-width:0.80000001;stroke-miterlimit:4;stroke-dasharray:none;stroke-dashoffset:0;stroke-opacity:1"
       d="m 63.496107,243.81191 v -5.85938"
       id="path3453-3-5-2-7-3-5-6-2"
       inkscape:connector-curvature="0"
       sodipodi:nodetypes="cc" />
    <path
       style="fill:#000000;fill-opacity:1;stroke:#808080;stroke-width:0.80000001;stroke-miterlimit:4;stroke-dasharray:none;stroke-dashoffset:0;stroke-opacity:1"
       d="m 82.645997,243.81191 v -5.85938"
       id="path3453-3-5-2-7-3-5-6-2-9-1"
       inkscape:connector-curvature="0"
       sodipodi:nodetypes="cc" />
    <path
       style="fill:#000000;fill-opacity:1;stroke:#808080;stroke-width:0.80000001;stroke-miterlimit:4;stroke-dasharray:3.20000003, 1.60000002;stroke-dashoffset:0;stroke-opacity:1"
       d="M 73.863661,243.81191 V 188.74003"
       id="path3453-3-5-2-7-3-5-6-6"
       inkscape:connector-curvature="0"
       sodipodi:nodetypes="cc" />
    <path
       style="fill:#000000;fill-opacity:1;stroke:#808080;stroke-width:0.80000001;stroke-miterlimit:4;stroke-dasharray:3.20000006, 1.60000004;stroke-dashoffset:0;stroke-opacity:1"
       d="M 90.153502,243.81191 V 188.74003"
       id="path3453-3-5-2-7-3-5-6-6-1"
       inkscape:connector-curvature="0"
       sodipodi:nodetypes="cc" />
    <text
       id="text1075-0-2-2"
       y="182.51001"
       x="21.049604"
       style="font-style:normal;font-weight:normal;font-size:10.58333302px;line-height:1.25;font-family:sans-serif;letter-spacing:0px;word-spacing:0px;fill:#000000;fill-opacity:1;stroke:none;stroke-width:0.26458332"
       xml:space="preserve"><tspan
         style="font-size:6.3499999px;stroke-width:0.26458332"
         y="182.51001"
         x="21.049604"
         id="tspan1073-6-6-0"
         sodipodi:role="line">$\frac{j}{j_0}$</tspan></text>
    <text
       xml:space="preserve"
       style="font-style:normal;font-weight:normal;font-size:10.58333302px;line-height:1.25;font-family:sans-serif;letter-spacing:0px;word-spacing:0px;fill:#000000;fill-opacity:1;stroke:none;stroke-width:0.26458332"
       x="178.50783"
       y="249.87863"
       id="text1075-0-2-8"><tspan
         sodipodi:role="line"
         id="tspan1073-6-6-6"
         x="178.50783"
         y="249.87863"
         style="font-size:6.3499999px;stroke-width:0.26458332">$a$</tspan></text>
    <text
       id="text1075-0-2-2-3"
       y="191.89653"
       x="10.431288"
       style="font-style:normal;font-weight:normal;font-size:10.58333302px;line-height:1.25;font-family:sans-serif;letter-spacing:0px;word-spacing:0px;fill:#000000;fill-opacity:1;stroke:none;stroke-width:0.26458332"
       xml:space="preserve"><tspan
         style="font-size:6.3499999px;stroke-width:0.26458332"
         y="191.89653"
         x="10.431288"
         id="tspan1073-6-6-0-5"
         sodipodi:role="line">$4$</tspan></text>
    <text
       xml:space="preserve"
       style="font-style:normal;font-weight:normal;font-size:10.58333302px;line-height:1.25;font-family:sans-serif;letter-spacing:0px;word-spacing:0px;fill:#000000;fill-opacity:1;stroke:none;stroke-width:0.26458332"
       x="46.970833"
       y="249.31432"
       id="text1075-0-2-8-7"><tspan
         sodipodi:role="line"
         id="tspan1073-6-6-6-0"
         x="46.970833"
         y="249.31432"
         style="font-size:6.3499999px;stroke-width:0.26458332">$a_1$</tspan></text>
    <text
       xml:space="preserve"
       style="font-style:normal;font-weight:normal;font-size:10.58333302px;line-height:1.25;font-family:sans-serif;letter-spacing:0px;word-spacing:0px;fill:#000000;fill-opacity:1;stroke:none;stroke-width:0.26458332"
       x="60.783241"
       y="249.31432"
       id="text1075-0-2-8-7-9"><tspan
         sodipodi:role="line"
         id="tspan1073-6-6-6-0-3"
         x="60.783241"
         y="249.31432"
         style="font-size:6.3499999px;stroke-width:0.26458332">$a_2$</tspan></text>
    <text
       xml:space="preserve"
       style="font-style:normal;font-weight:normal;font-size:10.58333302px;line-height:1.25;font-family:sans-serif;letter-spacing:0px;word-spacing:0px;fill:#000000;fill-opacity:1;stroke:none;stroke-width:0.26458332"
       x="70.334854"
       y="249.31432"
       id="text1075-0-2-8-7-9-6"><tspan
         sodipodi:role="line"
         id="tspan1073-6-6-6-0-3-0"
         x="70.334854"
         y="249.31432"
         style="font-size:6.3499999px;stroke-width:0.26458332">$a_3$</tspan></text>
    <text
       xml:space="preserve"
       style="font-style:normal;font-weight:normal;font-size:10.58333302px;line-height:1.25;font-family:sans-serif;letter-spacing:0px;word-spacing:0px;fill:#000000;fill-opacity:1;stroke:none;stroke-width:0.26458332"
       x="80.712914"
       y="248.52171"
       id="text1075-0-2-8-7-9-6-6"><tspan
         sodipodi:role="line"
         id="tspan1073-6-6-6-0-3-0-2"
         x="80.712914"
         y="248.52171"
         style="font-size:6.3499999px;stroke-width:0.26458332">...</tspan></text>
  </g>
</svg>
