<?xml version="1.0" encoding="UTF-8" standalone="no"?>
<!-- Created with Inkscape (http://www.inkscape.org/) -->

<svg
   xmlns:dc="http://purl.org/dc/elements/1.1/"
   xmlns:cc="http://creativecommons.org/ns#"
   xmlns:rdf="http://www.w3.org/1999/02/22-rdf-syntax-ns#"
   xmlns:svg="http://www.w3.org/2000/svg"
   xmlns="http://www.w3.org/2000/svg"
   xmlns:sodipodi="http://sodipodi.sourceforge.net/DTD/sodipodi-0.dtd"
   xmlns:inkscape="http://www.inkscape.org/namespaces/inkscape"
   width="165.93741mm"
   height="72.244827mm"
   viewBox="0 0 165.93741 72.244828"
   version="1.1"
   id="svg211"
   inkscape:version="0.92.5 (2060ec1f9f, 2020-04-08)"
   sodipodi:docname="06_FP2.svg">
  <defs
     id="defs205">
    <marker
       inkscape:isstock="true"
       style="overflow:visible"
       id="marker18155"
       refX="0"
       refY="0"
       orient="auto"
       inkscape:stockid="Arrow1Mstart">
      <path
         inkscape:connector-curvature="0"
         transform="matrix(0.4,0,0,0.4,4,0)"
         style="fill:#000000;fill-opacity:1;fill-rule:evenodd;stroke:#000000;stroke-width:1.00000003pt;stroke-opacity:1"
         d="M 0,0 5,-5 -12.5,0 5,5 Z"
         id="path18153" />
    </marker>
    <marker
       inkscape:isstock="true"
       style="overflow:visible"
       id="marker15778"
       refX="0"
       refY="0"
       orient="auto"
       inkscape:stockid="Arrow1Mend">
      <path
         transform="matrix(-0.4,0,0,-0.4,-4,0)"
         style="fill:#d40000;fill-opacity:1;fill-rule:evenodd;stroke:#d40000;stroke-width:1.00000003pt;stroke-opacity:1"
         d="M 0,0 5,-5 -12.5,0 5,5 Z"
         id="path15776"
         inkscape:connector-curvature="0" />
    </marker>
    <marker
       inkscape:isstock="true"
       style="overflow:visible"
       id="marker14070"
       refX="0"
       refY="0"
       orient="auto"
       inkscape:stockid="Arrow1Mend">
      <path
         transform="matrix(-0.4,0,0,-0.4,-4,0)"
         style="fill:#d40000;fill-opacity:1;fill-rule:evenodd;stroke:#d40000;stroke-width:1.00000003pt;stroke-opacity:1"
         d="M 0,0 5,-5 -12.5,0 5,5 Z"
         id="path14068"
         inkscape:connector-curvature="0" />
    </marker>
    <marker
       inkscape:stockid="StopL"
       orient="auto"
       refY="0"
       refX="0"
       id="StopL"
       style="overflow:visible"
       inkscape:isstock="true">
      <path
         id="path1616"
         d="M 0,5.65 V -5.65"
         style="fill:#d40000;fill-opacity:1;fill-rule:evenodd;stroke:#d40000;stroke-width:1.00000003pt;stroke-opacity:1"
         transform="scale(0.8)"
         inkscape:connector-curvature="0" />
    </marker>
    <marker
       inkscape:stockid="Arrow1Mstart"
       orient="auto"
       refY="0"
       refX="0"
       id="Arrow1Mstart-7"
       style="overflow:visible"
       inkscape:isstock="true">
      <path
         inkscape:connector-curvature="0"
         id="path1453-0"
         d="M 0,0 5,-5 -12.5,0 5,5 Z"
         style="fill:#d40000;fill-opacity:1;fill-rule:evenodd;stroke:#000000;stroke-width:1.00000003pt;stroke-opacity:1"
         transform="matrix(0.4,0,0,0.4,4,0)" />
    </marker>
    <marker
       inkscape:stockid="Arrow1Mstart"
       orient="auto"
       refY="0"
       refX="0"
       id="Arrow1Mstart-3"
       style="overflow:visible"
       inkscape:isstock="true">
      <path
         inkscape:connector-curvature="0"
         id="path1453-6"
         d="M 0,0 5,-5 -12.5,0 5,5 Z"
         style="fill:#000000;fill-opacity:1;fill-rule:evenodd;stroke:#000000;stroke-width:1.00000003pt;stroke-opacity:1"
         transform="matrix(0.4,0,0,0.4,4,0)" />
    </marker>
    <marker
       inkscape:stockid="Arrow1Mend"
       orient="auto"
       refY="0"
       refX="0"
       id="Arrow1Mend-1"
       style="overflow:visible"
       inkscape:isstock="true">
      <path
         inkscape:connector-curvature="0"
         id="path1456-2"
         d="M 0,0 5,-5 -12.5,0 5,5 Z"
         style="fill:#000000;fill-opacity:1;fill-rule:evenodd;stroke:#000000;stroke-width:1.00000003pt;stroke-opacity:1"
         transform="matrix(-0.4,0,0,-0.4,-4,0)" />
    </marker>
    <marker
       inkscape:stockid="Arrow1Mstart"
       orient="auto"
       refY="0"
       refX="0"
       id="Arrow1Mstart-7-9"
       style="overflow:visible"
       inkscape:isstock="true">
      <path
         inkscape:connector-curvature="0"
         id="path1453-0-3"
         d="M 0,0 5,-5 -12.5,0 5,5 Z"
         style="fill:#000000;fill-opacity:1;fill-rule:evenodd;stroke:#000000;stroke-width:1.00000003pt;stroke-opacity:1"
         transform="matrix(0.4,0,0,0.4,4,0)" />
    </marker>
    <marker
       inkscape:stockid="Arrow1Mend"
       orient="auto"
       refY="0"
       refX="0"
       id="Arrow1Mend-9-1"
       style="overflow:visible"
       inkscape:isstock="true">
      <path
         inkscape:connector-curvature="0"
         id="path1456-3-9"
         d="M 0,0 5,-5 -12.5,0 5,5 Z"
         style="fill:#000000;fill-opacity:1;fill-rule:evenodd;stroke:#000000;stroke-width:1.00000003pt;stroke-opacity:1"
         transform="matrix(-0.4,0,0,-0.4,-4,0)" />
    </marker>
    <marker
       inkscape:stockid="Arrow1Mstart"
       orient="auto"
       refY="0"
       refX="0"
       id="Arrow1Mstart-3-6"
       style="overflow:visible"
       inkscape:isstock="true">
      <path
         inkscape:connector-curvature="0"
         id="path1453-6-1"
         d="M 0,0 5,-5 -12.5,0 5,5 Z"
         style="fill:#000000;fill-opacity:1;fill-rule:evenodd;stroke:#000000;stroke-width:1.00000003pt;stroke-opacity:1"
         transform="matrix(0.4,0,0,0.4,4,0)" />
    </marker>
    <marker
       inkscape:stockid="Arrow1Mend"
       orient="auto"
       refY="0"
       refX="0"
       id="Arrow1Mend-1-0"
       style="overflow:visible"
       inkscape:isstock="true">
      <path
         inkscape:connector-curvature="0"
         id="path1456-2-6"
         d="M 0,0 5,-5 -12.5,0 5,5 Z"
         style="fill:#000000;fill-opacity:1;fill-rule:evenodd;stroke:#000000;stroke-width:1.00000003pt;stroke-opacity:1"
         transform="matrix(-0.4,0,0,-0.4,-4,0)" />
    </marker>
    <marker
       inkscape:stockid="Arrow1Mstart"
       orient="auto"
       refY="0"
       refX="0"
       id="Arrow1Mstart-7-9-6"
       style="overflow:visible"
       inkscape:isstock="true">
      <path
         inkscape:connector-curvature="0"
         id="path1453-0-3-1"
         d="M 0,0 5,-5 -12.5,0 5,5 Z"
         style="fill:#000000;fill-opacity:1;fill-rule:evenodd;stroke:#000000;stroke-width:1.00000003pt;stroke-opacity:1"
         transform="matrix(0.4,0,0,0.4,4,0)" />
    </marker>
    <marker
       inkscape:stockid="Arrow1Mend"
       orient="auto"
       refY="0"
       refX="0"
       id="Arrow1Mend-9-1-5"
       style="overflow:visible"
       inkscape:isstock="true">
      <path
         inkscape:connector-curvature="0"
         id="path1456-3-9-5"
         d="M 0,0 5,-5 -12.5,0 5,5 Z"
         style="fill:#000000;fill-opacity:1;fill-rule:evenodd;stroke:#000000;stroke-width:1.00000003pt;stroke-opacity:1"
         transform="matrix(-0.4,0,0,-0.4,-4,0)" />
    </marker>
    <marker
       inkscape:isstock="true"
       style="overflow:visible"
       id="marker14070-4"
       refX="0"
       refY="0"
       orient="auto"
       inkscape:stockid="Arrow1Mend">
      <path
         transform="matrix(-0.4,0,0,-0.4,-4,0)"
         style="fill:#d40000;fill-opacity:1;fill-rule:evenodd;stroke:#d40000;stroke-width:1.00000003pt;stroke-opacity:1"
         d="M 0,0 5,-5 -12.5,0 5,5 Z"
         id="path14068-5"
         inkscape:connector-curvature="0" />
    </marker>
    <marker
       inkscape:isstock="true"
       style="overflow:visible"
       id="marker18155-3"
       refX="0"
       refY="0"
       orient="auto"
       inkscape:stockid="Arrow1Mstart">
      <path
         inkscape:connector-curvature="0"
         transform="matrix(0.4,0,0,0.4,4,0)"
         style="fill:#000000;fill-opacity:1;fill-rule:evenodd;stroke:#000000;stroke-width:1.00000003pt;stroke-opacity:1"
         d="M 0,0 5,-5 -12.5,0 5,5 Z"
         id="path18153-0" />
    </marker>
    <marker
       inkscape:isstock="true"
       style="overflow:visible"
       id="marker14070-8"
       refX="0"
       refY="0"
       orient="auto"
       inkscape:stockid="Arrow1Mend">
      <path
         transform="matrix(-0.4,0,0,-0.4,-4,0)"
         style="fill:#d40000;fill-opacity:1;fill-rule:evenodd;stroke:#d40000;stroke-width:1.00000003pt;stroke-opacity:1"
         d="M 0,0 5,-5 -12.5,0 5,5 Z"
         id="path14068-8"
         inkscape:connector-curvature="0" />
    </marker>
    <marker
       inkscape:isstock="true"
       style="overflow:visible"
       id="marker15778-3"
       refX="0"
       refY="0"
       orient="auto"
       inkscape:stockid="Arrow1Mend">
      <path
         transform="matrix(-0.4,0,0,-0.4,-4,0)"
         style="fill:#d40000;fill-opacity:1;fill-rule:evenodd;stroke:#d40000;stroke-width:1.00000003pt;stroke-opacity:1"
         d="M 0,0 5,-5 -12.5,0 5,5 Z"
         id="path15776-6"
         inkscape:connector-curvature="0" />
    </marker>
    <marker
       inkscape:isstock="true"
       style="overflow:visible"
       id="marker15778-3-5"
       refX="0"
       refY="0"
       orient="auto"
       inkscape:stockid="Arrow1Mend">
      <path
         transform="matrix(-0.4,0,0,-0.4,-4,0)"
         style="fill:#d40000;fill-opacity:1;fill-rule:evenodd;stroke:#d40000;stroke-width:1.00000003pt;stroke-opacity:1"
         d="M 0,0 5,-5 -12.5,0 5,5 Z"
         id="path15776-6-3"
         inkscape:connector-curvature="0" />
    </marker>
    <marker
       inkscape:isstock="true"
       style="overflow:visible"
       id="marker15778-3-5-6"
       refX="0"
       refY="0"
       orient="auto"
       inkscape:stockid="Arrow1Mend">
      <path
         transform="matrix(-0.4,0,0,-0.4,-4,0)"
         style="fill:#d40000;fill-opacity:1;fill-rule:evenodd;stroke:#d40000;stroke-width:1.00000003pt;stroke-opacity:1"
         d="M 0,0 5,-5 -12.5,0 5,5 Z"
         id="path15776-6-3-2"
         inkscape:connector-curvature="0" />
    </marker>
    <marker
       inkscape:isstock="true"
       style="overflow:visible"
       id="marker15778-3-9"
       refX="0"
       refY="0"
       orient="auto"
       inkscape:stockid="Arrow1Mend">
      <path
         transform="matrix(-0.4,0,0,-0.4,-4,0)"
         style="fill:#d40000;fill-opacity:1;fill-rule:evenodd;stroke:#d40000;stroke-width:1.00000003pt;stroke-opacity:1"
         d="M 0,0 5,-5 -12.5,0 5,5 Z"
         id="path15776-6-1"
         inkscape:connector-curvature="0" />
    </marker>
    <marker
       inkscape:isstock="true"
       style="overflow:visible"
       id="marker15778-0"
       refX="0"
       refY="0"
       orient="auto"
       inkscape:stockid="Arrow1Mend">
      <path
         transform="matrix(-0.4,0,0,-0.4,-4,0)"
         style="fill:#d40000;fill-opacity:1;fill-rule:evenodd;stroke:#d40000;stroke-width:1.00000003pt;stroke-opacity:1"
         d="M 0,0 5,-5 -12.5,0 5,5 Z"
         id="path15776-9"
         inkscape:connector-curvature="0" />
    </marker>
    <marker
       inkscape:isstock="true"
       style="overflow:visible"
       id="marker15778-3-3"
       refX="0"
       refY="0"
       orient="auto"
       inkscape:stockid="Arrow1Mend">
      <path
         transform="matrix(-0.4,0,0,-0.4,-4,0)"
         style="fill:#d40000;fill-opacity:1;fill-rule:evenodd;stroke:#d40000;stroke-width:1.00000003pt;stroke-opacity:1"
         d="M 0,0 5,-5 -12.5,0 5,5 Z"
         id="path15776-6-6"
         inkscape:connector-curvature="0" />
    </marker>
    <marker
       inkscape:isstock="true"
       style="overflow:visible"
       id="marker15778-3-5-0"
       refX="0"
       refY="0"
       orient="auto"
       inkscape:stockid="Arrow1Mend">
      <path
         transform="matrix(-0.4,0,0,-0.4,-4,0)"
         style="fill:#d40000;fill-opacity:1;fill-rule:evenodd;stroke:#d40000;stroke-width:1.00000003pt;stroke-opacity:1"
         d="M 0,0 5,-5 -12.5,0 5,5 Z"
         id="path15776-6-3-6"
         inkscape:connector-curvature="0" />
    </marker>
    <marker
       inkscape:isstock="true"
       style="overflow:visible"
       id="marker15778-3-9-2"
       refX="0"
       refY="0"
       orient="auto"
       inkscape:stockid="Arrow1Mend">
      <path
         transform="matrix(-0.4,0,0,-0.4,-4,0)"
         style="fill:#d40000;fill-opacity:1;fill-rule:evenodd;stroke:#d40000;stroke-width:1.00000003pt;stroke-opacity:1"
         d="M 0,0 5,-5 -12.5,0 5,5 Z"
         id="path15776-6-1-6"
         inkscape:connector-curvature="0" />
    </marker>
    <marker
       inkscape:isstock="true"
       style="overflow:visible"
       id="marker15778-3-5-6-1"
       refX="0"
       refY="0"
       orient="auto"
       inkscape:stockid="Arrow1Mend">
      <path
         transform="matrix(-0.4,0,0,-0.4,-4,0)"
         style="fill:#d40000;fill-opacity:1;fill-rule:evenodd;stroke:#d40000;stroke-width:1.00000003pt;stroke-opacity:1"
         d="M 0,0 5,-5 -12.5,0 5,5 Z"
         id="path15776-6-3-2-8"
         inkscape:connector-curvature="0" />
    </marker>
    <marker
       inkscape:isstock="true"
       style="overflow:visible"
       id="marker15778-5"
       refX="0"
       refY="0"
       orient="auto"
       inkscape:stockid="Arrow1Mend">
      <path
         transform="matrix(-0.4,0,0,-0.4,-4,0)"
         style="fill:#d40000;fill-opacity:1;fill-rule:evenodd;stroke:#d40000;stroke-width:1.00000003pt;stroke-opacity:1"
         d="M 0,0 5,-5 -12.5,0 5,5 Z"
         id="path15776-92"
         inkscape:connector-curvature="0" />
    </marker>
    <marker
       inkscape:isstock="true"
       style="overflow:visible"
       id="marker15778-3-2"
       refX="0"
       refY="0"
       orient="auto"
       inkscape:stockid="Arrow1Mend">
      <path
         transform="matrix(-0.4,0,0,-0.4,-4,0)"
         style="fill:#d40000;fill-opacity:1;fill-rule:evenodd;stroke:#d40000;stroke-width:1.00000003pt;stroke-opacity:1"
         d="M 0,0 5,-5 -12.5,0 5,5 Z"
         id="path15776-6-8"
         inkscape:connector-curvature="0" />
    </marker>
    <marker
       inkscape:isstock="true"
       style="overflow:visible"
       id="marker15778-3-5-9"
       refX="0"
       refY="0"
       orient="auto"
       inkscape:stockid="Arrow1Mend">
      <path
         transform="matrix(-0.4,0,0,-0.4,-4,0)"
         style="fill:#d40000;fill-opacity:1;fill-rule:evenodd;stroke:#d40000;stroke-width:1.00000003pt;stroke-opacity:1"
         d="M 0,0 5,-5 -12.5,0 5,5 Z"
         id="path15776-6-3-7"
         inkscape:connector-curvature="0" />
    </marker>
    <marker
       inkscape:isstock="true"
       style="overflow:visible"
       id="marker15778-3-9-3"
       refX="0"
       refY="0"
       orient="auto"
       inkscape:stockid="Arrow1Mend">
      <path
         transform="matrix(-0.4,0,0,-0.4,-4,0)"
         style="fill:#d40000;fill-opacity:1;fill-rule:evenodd;stroke:#d40000;stroke-width:1.00000003pt;stroke-opacity:1"
         d="M 0,0 5,-5 -12.5,0 5,5 Z"
         id="path15776-6-1-61"
         inkscape:connector-curvature="0" />
    </marker>
    <marker
       inkscape:isstock="true"
       style="overflow:visible"
       id="marker15778-3-5-6-2"
       refX="0"
       refY="0"
       orient="auto"
       inkscape:stockid="Arrow1Mend">
      <path
         transform="matrix(-0.4,0,0,-0.4,-4,0)"
         style="fill:#d40000;fill-opacity:1;fill-rule:evenodd;stroke:#d40000;stroke-width:1.00000003pt;stroke-opacity:1"
         d="M 0,0 5,-5 -12.5,0 5,5 Z"
         id="path15776-6-3-2-9"
         inkscape:connector-curvature="0" />
    </marker>
    <marker
       inkscape:isstock="true"
       style="overflow:visible"
       id="marker15778-0-3"
       refX="0"
       refY="0"
       orient="auto"
       inkscape:stockid="Arrow1Mend">
      <path
         transform="matrix(-0.4,0,0,-0.4,-4,0)"
         style="fill:#d40000;fill-opacity:1;fill-rule:evenodd;stroke:#d40000;stroke-width:1.00000003pt;stroke-opacity:1"
         d="M 0,0 5,-5 -12.5,0 5,5 Z"
         id="path15776-9-1"
         inkscape:connector-curvature="0" />
    </marker>
    <marker
       inkscape:isstock="true"
       style="overflow:visible"
       id="marker15778-3-3-9"
       refX="0"
       refY="0"
       orient="auto"
       inkscape:stockid="Arrow1Mend">
      <path
         transform="matrix(-0.4,0,0,-0.4,-4,0)"
         style="fill:#d40000;fill-opacity:1;fill-rule:evenodd;stroke:#d40000;stroke-width:1.00000003pt;stroke-opacity:1"
         d="M 0,0 5,-5 -12.5,0 5,5 Z"
         id="path15776-6-6-4"
         inkscape:connector-curvature="0" />
    </marker>
    <marker
       inkscape:isstock="true"
       style="overflow:visible"
       id="marker15778-3-5-0-7"
       refX="0"
       refY="0"
       orient="auto"
       inkscape:stockid="Arrow1Mend">
      <path
         transform="matrix(-0.4,0,0,-0.4,-4,0)"
         style="fill:#d40000;fill-opacity:1;fill-rule:evenodd;stroke:#d40000;stroke-width:1.00000003pt;stroke-opacity:1"
         d="M 0,0 5,-5 -12.5,0 5,5 Z"
         id="path15776-6-3-6-8"
         inkscape:connector-curvature="0" />
    </marker>
    <marker
       inkscape:isstock="true"
       style="overflow:visible"
       id="marker15778-3-9-2-4"
       refX="0"
       refY="0"
       orient="auto"
       inkscape:stockid="Arrow1Mend">
      <path
         transform="matrix(-0.4,0,0,-0.4,-4,0)"
         style="fill:#d40000;fill-opacity:1;fill-rule:evenodd;stroke:#d40000;stroke-width:1.00000003pt;stroke-opacity:1"
         d="M 0,0 5,-5 -12.5,0 5,5 Z"
         id="path15776-6-1-6-5"
         inkscape:connector-curvature="0" />
    </marker>
    <marker
       inkscape:isstock="true"
       style="overflow:visible"
       id="marker15778-3-5-6-1-0"
       refX="0"
       refY="0"
       orient="auto"
       inkscape:stockid="Arrow1Mend">
      <path
         transform="matrix(-0.4,0,0,-0.4,-4,0)"
         style="fill:#d40000;fill-opacity:1;fill-rule:evenodd;stroke:#d40000;stroke-width:1.00000003pt;stroke-opacity:1"
         d="M 0,0 5,-5 -12.5,0 5,5 Z"
         id="path15776-6-3-2-8-3"
         inkscape:connector-curvature="0" />
    </marker>
    <marker
       inkscape:isstock="true"
       style="overflow:visible"
       id="marker18155-36"
       refX="0"
       refY="0"
       orient="auto"
       inkscape:stockid="Arrow1Mstart">
      <path
         inkscape:connector-curvature="0"
         transform="matrix(0.4,0,0,0.4,4,0)"
         style="fill:#000000;fill-opacity:1;fill-rule:evenodd;stroke:#000000;stroke-width:1.00000003pt;stroke-opacity:1"
         d="M 0,0 5,-5 -12.5,0 5,5 Z"
         id="path18153-7" />
    </marker>
    <marker
       inkscape:isstock="true"
       style="overflow:visible"
       id="marker18155-3-3"
       refX="0"
       refY="0"
       orient="auto"
       inkscape:stockid="Arrow1Mstart">
      <path
         inkscape:connector-curvature="0"
         transform="matrix(0.4,0,0,0.4,4,0)"
         style="fill:#808080;fill-opacity:1;fill-rule:evenodd;stroke:#666666;stroke-width:1.00000003pt;stroke-opacity:1"
         d="M 0,0 5,-5 -12.5,0 5,5 Z"
         id="path18153-0-6" />
    </marker>
    <marker
       inkscape:isstock="true"
       style="overflow:visible"
       id="marker18155-3-36"
       refX="0"
       refY="0"
       orient="auto"
       inkscape:stockid="Arrow1Mstart">
      <path
         inkscape:connector-curvature="0"
         transform="matrix(0.4,0,0,0.4,4,0)"
         style="fill:#d40000;fill-opacity:1;fill-rule:evenodd;stroke:#000000;stroke-width:1.00000003pt;stroke-opacity:1"
         d="M 0,0 5,-5 -12.5,0 5,5 Z"
         id="path18153-0-7" />
    </marker>
    <marker
       inkscape:stockid="StopL"
       orient="auto"
       refY="0"
       refX="0"
       id="StopL-3"
       style="overflow:visible"
       inkscape:isstock="true">
      <path
         id="path1616-5"
         d="M 0,5.65 V -5.65"
         style="fill:#d40000;fill-opacity:1;fill-rule:evenodd;stroke:#d40000;stroke-width:1.00000003pt;stroke-opacity:1"
         transform="scale(0.8)"
         inkscape:connector-curvature="0" />
    </marker>
    <marker
       inkscape:stockid="StopL"
       orient="auto"
       refY="0"
       refX="0"
       id="marker4315"
       style="overflow:visible"
       inkscape:isstock="true">
      <path
         id="path4313"
         d="M 0,5.65 V -5.65"
         style="fill:#d40000;fill-opacity:1;fill-rule:evenodd;stroke:#d40000;stroke-width:1.00000003pt;stroke-opacity:1"
         transform="scale(0.8)"
         inkscape:connector-curvature="0" />
    </marker>
    <marker
       inkscape:isstock="true"
       style="overflow:visible"
       id="marker18155-6"
       refX="0"
       refY="0"
       orient="auto"
       inkscape:stockid="Arrow1Mstart">
      <path
         inkscape:connector-curvature="0"
         transform="matrix(0.4,0,0,0.4,4,0)"
         style="fill:#000000;fill-opacity:1;fill-rule:evenodd;stroke:#000000;stroke-width:1.00000003pt;stroke-opacity:1"
         d="M 0,0 5,-5 -12.5,0 5,5 Z"
         id="path18153-2" />
    </marker>
    <marker
       inkscape:isstock="true"
       style="overflow:visible"
       id="marker18155-3-9"
       refX="0"
       refY="0"
       orient="auto"
       inkscape:stockid="Arrow1Mstart">
      <path
         inkscape:connector-curvature="0"
         transform="matrix(0.4,0,0,0.4,4,0)"
         style="fill:#000000;fill-opacity:1;fill-rule:evenodd;stroke:#000000;stroke-width:1.00000003pt;stroke-opacity:1"
         d="M 0,0 5,-5 -12.5,0 5,5 Z"
         id="path18153-0-1" />
    </marker>
    <marker
       inkscape:stockid="StopL"
       orient="auto"
       refY="0"
       refX="0"
       id="StopL-2"
       style="overflow:visible"
       inkscape:isstock="true">
      <path
         id="path1616-8"
         d="M 0,5.65 V -5.65"
         style="fill:#d40000;fill-opacity:1;fill-rule:evenodd;stroke:#d40000;stroke-width:1.00000003pt;stroke-opacity:1"
         transform="scale(0.8)"
         inkscape:connector-curvature="0" />
    </marker>
    <marker
       inkscape:stockid="StopL"
       orient="auto"
       refY="0"
       refX="0"
       id="marker4716"
       style="overflow:visible"
       inkscape:isstock="true">
      <path
         id="path4714"
         d="M 0,5.65 V -5.65"
         style="fill:#d40000;fill-opacity:1;fill-rule:evenodd;stroke:#d40000;stroke-width:1.00000003pt;stroke-opacity:1"
         transform="scale(0.8)"
         inkscape:connector-curvature="0" />
    </marker>
  </defs>
  <sodipodi:namedview
     id="base"
     pagecolor="#ffffff"
     bordercolor="#666666"
     borderopacity="1.0"
     inkscape:pageopacity="0.0"
     inkscape:pageshadow="2"
     inkscape:zoom="1.8516293"
     inkscape:cx="400.4935"
     inkscape:cy="107.27796"
     inkscape:document-units="mm"
     inkscape:current-layer="layer1"
     showgrid="false"
     inkscape:snap-bbox="true"
     fit-margin-top="0"
     fit-margin-left="0"
     fit-margin-right="0"
     fit-margin-bottom="0"
     inkscape:window-width="1920"
     inkscape:window-height="999"
     inkscape:window-x="0"
     inkscape:window-y="1200"
     inkscape:window-maximized="1"
     inkscape:snap-bbox-midpoints="true"
     inkscape:snap-bbox-edge-midpoints="true"
     showguides="false" />
  <metadata
     id="metadata208">
    <rdf:RDF>
      <cc:Work
         rdf:about="">
        <dc:format>image/svg+xml</dc:format>
        <dc:type
           rdf:resource="http://purl.org/dc/dcmitype/StillImage" />
        <dc:title></dc:title>
      </cc:Work>
    </rdf:RDF>
  </metadata>
  <g
     inkscape:label="Layer 1"
     inkscape:groupmode="layer"
     id="layer1"
     transform="translate(-25.817339,-178.74382)">
    <text
       xml:space="preserve"
       style="font-style:normal;font-weight:normal;font-size:10.58333302px;line-height:1.25;font-family:sans-serif;letter-spacing:0px;word-spacing:0px;fill:#000000;fill-opacity:1;stroke:none;stroke-width:0.26458332"
       x="49.928837"
       y="47.981602"
       id="text7124"><tspan
         sodipodi:role="line"
         id="tspan7122"
         x="49.928837"
         y="57.345371"
         style="stroke-width:0.26458332" /></text>
    <path
       style="fill:#b3b3b3;fill-opacity:1;stroke:#b3b3b3;stroke-width:0.80000001;stroke-miterlimit:4;stroke-dasharray:4.8, 1.6;stroke-dashoffset:0;stroke-opacity:1"
       d="M 166.10464,188.47197 H 38.517333"
       id="path3453-3-5-2-7-3-7-7"
       inkscape:connector-curvature="0"
       sodipodi:nodetypes="cc" />
    <path
       style="fill:#000000;fill-opacity:1;stroke:#808080;stroke-width:0.80000001;stroke-miterlimit:4;stroke-dasharray:none;stroke-dashoffset:0;stroke-opacity:1"
       d="m 78.691673,243.81191 v -5.85938"
       id="path3453-3-5-2-7-3-5-6-2-9-1"
       inkscape:connector-curvature="0"
       sodipodi:nodetypes="cc" />
    <path
       style="fill:#000000;fill-opacity:1;stroke:#808080;stroke-width:0.80000001;stroke-miterlimit:4;stroke-dasharray:none;stroke-dashoffset:0;stroke-opacity:1"
       d="m 109.13155,243.81191 v -5.85938"
       id="path3453-3-5-2-7-3-5-6-2-9-1-5"
       inkscape:connector-curvature="0"
       sodipodi:nodetypes="cc" />
    <path
       style="fill:#000000;fill-opacity:1;stroke:#808080;stroke-width:0.80000001;stroke-miterlimit:4;stroke-dasharray:none;stroke-dashoffset:0;stroke-opacity:1"
       d="m 40.662859,243.81191 v -5.85938"
       id="path3453-3-5-2-7-3-5-6-2-9-1-3"
       inkscape:connector-curvature="0"
       sodipodi:nodetypes="cc" />
    <path
       style="fill:#000000;fill-opacity:1;stroke:#000000;stroke-width:0.80000001;stroke-miterlimit:4;stroke-dasharray:none;stroke-dashoffset:0;stroke-opacity:1;marker-start:url(#marker18155-3)"
       d="M 172.19553,242.38347 H 35.612396"
       id="path3453-3-5-2-7-3-7"
       inkscape:connector-curvature="0"
       sodipodi:nodetypes="cc" />
    <path
       style="fill:#b3b3b3;fill-opacity:1;stroke:#b3b3b3;stroke-width:0.80000001;stroke-miterlimit:4;stroke-dasharray:4.80000005, 1.60000002;stroke-dashoffset:0;stroke-opacity:1"
       d="M 166.10464,215.41191 H 38.517336"
       id="path3453-3-5-2-7-3-7-7-5"
       inkscape:connector-curvature="0"
       sodipodi:nodetypes="cc" />
    <path
       style="fill:#000000;fill-opacity:1;stroke:#000000;stroke-width:0.80000001;stroke-miterlimit:4;stroke-dasharray:none;stroke-dashoffset:0;stroke-opacity:1;marker-start:url(#marker18155)"
       d="m 40.663029,179.69253 v 62.48022"
       id="path3453-3-5-2-7-3"
       inkscape:connector-curvature="0"
       sodipodi:nodetypes="cc" />
    <path
       inkscape:connector-curvature="0"
       id="path1653"
       title="1/(1+8*sin(x/2)**2)"
       d="m 64.3695,236.01097 c 0.05077,-0.005 0.101542,-0.01 0.152313,-0.0156 0.05077,-0.006 0.101541,-0.0117 0.152312,-0.0183 0.05077,-0.007 0.101542,-0.0136 0.152313,-0.021 0.05077,-0.007 0.101542,-0.0154 0.152313,-0.0238 0.05077,-0.008 0.101542,-0.0172 0.152313,-0.0266 0.05077,-0.009 0.101541,-0.0192 0.152312,-0.0294 0.05077,-0.0103 0.101542,-0.0211 0.152313,-0.0324 0.05077,-0.0113 0.101542,-0.023 0.152313,-0.0353 0.05077,-0.0123 0.101542,-0.025 0.152312,-0.0383 0.05077,-0.0133 0.101542,-0.0271 0.152313,-0.0414 0.05077,-0.0143 0.101542,-0.0292 0.152313,-0.0446 0.05077,-0.0154 0.101542,-0.0313 0.152313,-0.0478 0.05077,-0.0165 0.101542,-0.0335 0.152312,-0.0511 0.05077,-0.0176 0.101542,-0.0358 0.152313,-0.0546 0.05077,-0.0188 0.101542,-0.0381 0.152313,-0.0581 0.05077,-0.0199 0.101542,-0.0405 0.152313,-0.0617 0.05077,-0.0212 0.101542,-0.043 0.152312,-0.0654 0.05077,-0.0224 0.101542,-0.0455 0.152313,-0.0693 0.05077,-0.0237 0.101542,-0.0482 0.152313,-0.0732 0.05077,-0.0251 0.101542,-0.0509 0.152313,-0.0774 0.05077,-0.0265 0.101541,-0.0537 0.152312,-0.0816 0.05077,-0.028 0.101542,-0.0566 0.152313,-0.0861 0.05077,-0.0295 0.101542,-0.0597 0.152313,-0.0907 0.05077,-0.031 0.101542,-0.0628 0.152313,-0.0955 0.05077,-0.0326 0.101541,-0.0661 0.152312,-0.10045 0.05077,-0.0343 0.101542,-0.0695 0.152313,-0.10564 0.05077,-0.0361 0.101542,-0.0731 0.152313,-0.11104 0.05077,-0.0379 0.101542,-0.0768 0.152313,-0.11669 0.05077,-0.0399 0.101541,-0.0807 0.152312,-0.12257 0.05077,-0.0419 0.101542,-0.0848 0.152313,-0.12874 0.05077,-0.044 0.101542,-0.089 0.152313,-0.13517 0.05077,-0.0462 0.101542,-0.0935 0.152313,-0.14193 0.05077,-0.0485 0.101541,-0.0981 0.152312,-0.14899 0.05077,-0.0509 0.101542,-0.10301 0.152313,-0.15642 0.05077,-0.0534 0.101542,-0.10812 0.152313,-0.1642 0.05077,-0.0561 0.101542,-0.11351 0.152313,-0.17237 0.05077,-0.0589 0.101541,-0.11917 0.152312,-0.18098 0.05077,-0.0618 0.101542,-0.12512 0.152313,-0.19002 0.05077,-0.0649 0.101542,-0.13138 0.152313,-0.19954 0.05077,-0.0682 0.101542,-0.13799 0.152313,-0.20958 0.05077,-0.0716 0.101541,-0.14494 0.152312,-0.22015 0.05077,-0.0752 0.101542,-0.15228 0.152313,-0.23131 0.05077,-0.079 0.101542,-0.16002 0.152313,-0.24309 0.05077,-0.0831 0.101542,-0.1682 0.152312,-0.25552 0.05077,-0.0873 0.101542,-0.17685 0.152313,-0.26868 0.05077,-0.0918 0.101542,-0.18598 0.152313,-0.28257 0.05077,-0.0966 0.101542,-0.19565 0.152313,-0.29728 0.05077,-0.10164 0.101542,-0.20587 0.152312,-0.31285 0.05077,-0.10697 0.101542,-0.2167 0.152313,-0.32932 0.05077,-0.11263 0.101542,-0.22817 0.152313,-0.34679 0.05077,-0.11861 0.101542,-0.24032 0.152313,-0.36528 0.05077,-0.12496 0.101542,-0.2532 0.152312,-0.38489 0.05077,-0.13169 0.101542,-0.26685 0.152313,-0.40567 0.05077,-0.13883 0.101542,-0.28133 0.152313,-0.42772 0.05077,-0.14639 0.101542,-0.29668 0.152313,-0.45109 0.05077,-0.1544 0.101541,-0.31295 0.152312,-0.47586 0.05077,-0.16291 0.101542,-0.33021 0.152313,-0.50213 0.05077,-0.17193 0.101542,-0.3485 0.152313,-0.52998 0.05077,-0.18147 0.101542,-0.36787 0.152313,-0.55946 0.05077,-0.19159 0.101541,-0.3884 0.152312,-0.59069 0.05077,-0.2023 0.101542,-0.41011 0.152313,-0.62373 0.05077,-0.21361 0.101542,-0.43306 0.152313,-0.65863 0.05077,-0.22557 0.101542,-0.4573 0.152313,-0.69548 0.05077,-0.23819 0.101541,-0.48286 0.152312,-0.73432 0.05077,-0.25146 0.101542,-0.50975 0.152313,-0.77516 0.05077,-0.26541 0.101542,-0.53798 0.152313,-0.81801 0.05077,-0.28003 0.101542,-0.56756 0.152313,-0.86287 0.05077,-0.2953 0.101541,-0.59842 0.152312,-0.90962 0.05077,-0.3112 0.101542,-0.63052 0.152313,-0.95819 0.05077,-0.32767 0.101542,-0.66373 0.152313,-1.00837 0.05077,-0.34464 0.101542,-0.6979 0.152313,-1.05991 0.05077,-0.362 0.101541,-0.73281 0.152312,-1.11245 0.05077,-0.37964 0.101542,-0.76817 0.152313,-1.16553 0.05077,-0.39737 0.101542,-0.80362 0.152313,-1.21858 0.05077,-0.41495 0.101542,-0.83867 0.152313,-1.27082 0.05077,-0.43215 0.101541,-0.87278 0.152312,-1.32137 0.05077,-0.4486 0.101542,-0.90522 0.152313,-1.36913 0.05077,-0.46392 0.101542,-0.93517 0.152313,-1.4128 0.05077,-0.47762 0.101542,-0.96166 0.152312,-1.45085 0.05077,-0.4892 0.101542,-0.98358 0.152313,-1.4816 0.05077,-0.49802 0.101542,-0.9997 0.152313,-1.50313 0.05077,-0.50344 0.101542,-1.00864 0.152313,-1.51338 0.05077,-0.50473 0.101542,-1.00898 0.152312,-1.51016 0.05077,-0.50118 0.101542,-0.99926 0.152313,-1.49132 0.05077,-0.49206 0.101539,-0.97805 0.152309,-1.45474 0.0508,-0.47669 0.10155,-0.94402 0.15232,-1.39853 0.0508,-0.45451 0.10154,-0.89612 0.15231,-1.32122 0.0508,-0.42509 0.10154,-0.83358 0.15231,-1.22182 0.0508,-0.38824 0.101537,-0.7561 0.152317,-1.10009 0.0508,-0.34399 0.10154,-0.66395 0.15231,-0.95664 0.0508,-0.2927 0.10154,-0.55796 0.15231,-0.793 0.0508,-0.23504 0.101537,-0.43967 0.152307,-0.61169 0.0508,-0.17202 0.10155,-0.31123 0.15232,-0.41616 0.0508,-0.10492 0.10154,-0.17536 0.15231,-0.21065 0.0508,-0.0353 0.10154,-0.0352 0.152307,0 0.0508,0.0352 0.10154,0.10579 0.15231,0.21065 0.0508,0.10486 0.10155,0.2442 0.15232,0.41616 0.0508,0.17195 0.10154,0.37671 0.15231,0.61169 0.0508,0.23498 0.101537,0.50035 0.152307,0.793 0.0508,0.29264 0.10154,0.6127 0.15232,0.95664 0.0508,0.34394 0.10154,0.7119 0.15231,1.10009 0.0508,0.3882 0.10154,0.79676 0.152307,1.22182 0.0508,0.42507 0.10154,0.86673 0.15231,1.32122 0.0508,0.45448 0.10155,0.92186 0.15232,1.39853 0.0508,0.47668 0.10154,0.9627 0.15231,1.45474 0.0508,0.49204 0.101537,0.99015 0.152307,1.49132 0.0508,0.50117 0.10154,1.00543 0.15231,1.51016 0.0508,0.50473 0.10155,1.00994 0.15232,1.51338 0.0508,0.50343 0.10154,1.0051 0.152307,1.50313 0.0508,0.49802 0.10154,0.99239 0.15231,1.4816 0.0508,0.4892 0.10154,0.97322 0.15232,1.45085 0.0508,0.47764 0.10154,0.94887 0.15231,1.4128 0.0508,0.46392 0.101537,0.92051 0.152307,1.36913 0.0508,0.44861 0.10154,0.88921 0.15231,1.32137 0.0508,0.43217 0.10155,0.85585 0.15232,1.27082 0.0508,0.41498 0.10154,0.8212 0.152307,1.21858 0.0508,0.39738 0.10154,0.78588 0.15231,1.16553 0.0508,0.37966 0.10154,0.75043 0.15231,1.11245 0.0508,0.36203 0.10155,0.71526 0.15232,1.05991 0.0508,0.34465 0.101537,0.68068 0.152307,1.00837 0.0508,0.32768 0.10154,0.64697 0.15231,0.95819 0.0508,0.31121 0.10155,0.6143 0.15232,0.90962 0.0508,0.29532 0.10154,0.58282 0.152307,0.86287 0.0508,0.28004 0.10154,0.55259 0.15231,0.81801 0.0508,0.26543 0.10154,0.52369 0.15231,0.77516 0.0508,0.25147 0.10155,0.49612 0.15232,0.73432 0.0508,0.23819 0.101537,0.46989 0.152307,0.69548 0.0508,0.22558 0.10154,0.44501 0.15231,0.65863 0.0508,0.21363 0.10154,0.42142 0.15232,0.62373 0.0508,0.2023 0.10154,0.39909 0.152307,0.59069 0.0508,0.1916 0.10154,0.37798 0.15231,0.55946 0.0508,0.18149 0.10154,0.35804 0.15231,0.52998 0.0508,0.17193 0.10155,0.33921 0.15232,0.50213 0.0508,0.16292 0.101537,0.32145 0.152307,0.47586 0.0508,0.15442 0.10154,0.30469 0.15231,0.45109 0.0508,0.14639 0.10154,0.28888 0.15231,0.42772 0.0508,0.13883 0.101547,0.27397 0.152317,0.40567 0.0508,0.1317 0.10154,0.25992 0.15231,0.38489 0.0508,0.12497 0.10154,0.24666 0.15231,0.36528 0.0508,0.11863 0.10154,0.23416 0.15232,0.34679 0.0508,0.11263 0.101537,0.22235 0.152307,0.32932 0.0508,0.10698 0.10154,0.21121 0.15231,0.31285 0.0508,0.10164 0.10154,0.20068 0.15231,0.29728 0.0508,0.0966 0.101547,0.19074 0.152317,0.28257 0.0508,0.0918 0.10154,0.18135 0.15231,0.26868 0.0508,0.0873 0.10154,0.17246 0.15231,0.25552 0.0508,0.0831 0.10154,0.16406 0.15231,0.24309 0.0508,0.079 0.101547,0.1561 0.152317,0.23131 0.0508,0.0752 0.10154,0.14856 0.15231,0.22015 0.0508,0.0716 0.10154,0.14142 0.15231,0.20958 0.0508,0.0682 0.101537,0.13464 0.152317,0.19954 0.0508,0.0649 0.10154,0.12821 0.15231,0.19002 0.0508,0.0618 0.10154,0.12211 0.15231,0.18098 0.0508,0.0589 0.10154,0.1163 0.15231,0.17237 0.0508,0.0561 0.101547,0.11079 0.152317,0.1642 0.0508,0.0534 0.10154,0.10553 0.15231,0.15642 0.0508,0.0509 0.10154,0.10052 0.15231,0.14899 0.0508,0.0485 0.101537,0.0958 0.152307,0.14193 0.0508,0.0462 0.10155,0.0912 0.15232,0.13517 0.0508,0.044 0.10154,0.0869 0.15231,0.12874 0.0508,0.0419 0.10154,0.0827 0.152307,0.12257 0.0508,0.0399 0.10154,0.0787 0.15232,0.11669 0.0508,0.0379 0.10154,0.0749 0.15231,0.11104 0.0508,0.0361 0.10154,0.0713 0.15231,0.10564 0.0508,0.0343 0.101537,0.0678 0.152307,0.10045 0.0508,0.0326 0.10155,0.0644 0.15232,0.0955 0.0508,0.031 0.10154,0.0612 0.15231,0.0907 0.0508,0.0294 0.10154,0.0581 0.152307,0.0861 0.0508,0.0279 0.10154,0.0551 0.15231,0.0816 0.0508,0.0265 0.10155,0.0523 0.15232,0.0774 0.0508,0.0251 0.10154,0.0495 0.15231,0.0732 0.0508,0.0238 0.101537,0.0468 0.152307,0.0693 0.0508,0.0224 0.10154,0.0442 0.15232,0.0654 0.0508,0.0212 0.10154,0.0417 0.15231,0.0617 0.0508,0.0199 0.10154,0.0393 0.152307,0.0581 0.0508,0.0188 0.10154,0.0369 0.15231,0.0546 0.0508,0.0176 0.10155,0.0346 0.15232,0.0511 0.0508,0.0165 0.10154,0.0324 0.15231,0.0478 0.0508,0.0154 0.101537,0.0302 0.152307,0.0446 0.0508,0.0143 0.10154,0.0281 0.15232,0.0414 0.0508,0.0133 0.10154,0.026 0.15231,0.0383 0.0508,0.0123 0.10154,0.024 0.152307,0.0353 0.0508,0.0113 0.10154,0.0221 0.15231,0.0324 0.0508,0.0103 0.10155,0.0201 0.15232,0.0294 0.0508,0.009 0.10154,0.0182 0.15231,0.0266 0.0508,0.008 0.101537,0.0163 0.152307,0.0238 0.0508,0.007 0.10154,0.0145 0.15231,0.021 0.0508,0.007 0.10155,0.0126 0.15232,0.0183 0.0508,0.006 0.10154,0.0108 0.152307,0.0156 0.0508,0.005 0.10154,0.009 0.15231,0.0129 0.0508,0.004 0.10154,0.007 0.15232,0.0102 0.0508,0.003 0.10154,0.005 0.15231,0.008 0.0508,0.002 0.101537,0.004 0.152307,0.005 0.0508,0.001 0.10154,0.002 0.15231,0.002 0.0508,3.5e-4 0.10155,2.6e-4 0.15232,-2.6e-4 0.0508,-5.2e-4 0.10154,-0.001 0.152307,-0.003 0.0508,-10e-4 0.10154,-0.003 0.15231,-0.005 0.0508,-0.002 0.10154,-0.005 0.15231,-0.008 0.0508,-0.003 0.10155,-0.007 0.15232,-0.0108 0.0508,-0.004 0.101537,-0.009 0.152307,-0.0134 0.0508,-0.005 0.10154,-0.0103 0.15231,-0.0161 0.0508,-0.006 0.10154,-0.0121 0.15232,-0.0188 0.0508,-0.007 0.101537,-0.0139 0.152307,-0.0216 0.0508,-0.008 0.10154,-0.0157 0.15231,-0.0243 0.0508,-0.009 0.10154,-0.0176 0.15231,-0.0272 0.0508,-0.01 0.10155,-0.0195 0.15232,-0.03 0.0508,-0.0105 0.101537,-0.0215 0.152307,-0.0329 0.0508,-0.0115 0.10154,-0.0234 0.15231,-0.0359 0.0508,-0.0125 0.10154,-0.0254 0.15231,-0.0389 0.0508,-0.0135 0.101547,-0.0275 0.152317,-0.042 0.0508,-0.0145 0.10154,-0.0296 0.15231,-0.0452 0.0508,-0.0156 0.10154,-0.0318 0.15231,-0.0485 0.0508,-0.0167 0.10154,-0.034 0.15232,-0.0518 0.0508,-0.0178 0.101537,-0.0363 0.152307,-0.0553 0.0508,-0.019 0.10154,-0.0386 0.15231,-0.0588 0.0508,-0.0202 0.10154,-0.041 0.15231,-0.0624 0.0508,-0.0214 0.101547,-0.0435 0.152317,-0.0662 0.0508,-0.0227 0.10154,-0.0461 0.15231,-0.0701 0.0508,-0.024 0.10154,-0.0487 0.15231,-0.0741 0.0508,-0.0254 0.10154,-0.0514 0.15231,-0.0782 0.0508,-0.0268 0.101547,-0.0543 0.152317,-0.0825 0.0508,-0.0282 0.10154,-0.0572 0.15231,-0.087 0.0508,-0.0298 0.10154,-0.0603 0.15231,-0.0916 0.0508,-0.0313 0.101537,-0.0635 0.152317,-0.0965 0.0508,-0.033 0.10154,-0.0668 0.15231,-0.10147 0.0508,-0.0347 0.10154,-0.0702 0.15231,-0.1067 0.0508,-0.0365 0.10154,-0.0738 0.152307,-0.11215 0.0508,-0.0383 0.10155,-0.0776 0.15232,-0.11784 0.0508,-0.0403 0.10154,-0.0815 0.15231,-0.12379 0.0508,-0.0423 0.10154,-0.0856 0.15231,-0.13 0.0508,-0.0444 0.101537,-0.0899 0.152307,-0.1365 0.0508,-0.0466 0.10155,-0.0944 0.15232,-0.14331 0.0508,-0.0489 0.10154,-0.0991 0.15231,-0.15045 0.0508,-0.0514 0.10154,-0.10401 0.152307,-0.15794 0.0508,-0.0539 0.10154,-0.10918 0.15232,-0.1658 0.0508,-0.0566 0.10154,-0.11462 0.15231,-0.17407 0.0508,-0.0594 0.10154,-0.12033 0.15231,-0.18274 0.0508,-0.0624 0.10154,-0.12635 0.15231,-0.19189 0.0508,-0.0655 0.10155,-0.13268 0.15232,-0.20151 0.0508,-0.0688 0.10154,-0.13935 0.15231,-0.21164 0.0508,-0.0723 0.10154,-0.14638 0.15231,-0.22234 0.0508,-0.076 0.10154,-0.1538 0.15232,-0.23361 0.0508,-0.0798 0.10154,-0.16163 0.15231,-0.24552 0.0508,-0.0839 0.10154,-0.1699 0.15231,-0.2581 0.0508,-0.0882 0.10154,-0.17863 0.15231,-0.27139 0.0508,-0.0928 0.10155,-0.18787 0.15232,-0.28545 0.0508,-0.0976 0.10154,-0.19765 0.15231,-0.30033 0.0508,-0.10268 0.10154,-0.20798 0.15231,-0.31606 0.0508,-0.10808 0.10154,-0.21894 0.15231,-0.33274 0.0508,-0.1138 0.10155,-0.23054 0.15232,-0.3504 0.0508,-0.11985 0.10154,-0.24283 0.15231,-0.36911 0.0508,-0.12628 0.10154,-0.25587 0.15231,-0.38895 0.0508,-0.13309 0.10154,-0.26968 0.15232,-0.40998 0.0508,-0.1403 0.10154,-0.28433 0.15231,-0.43228 0.0508,-0.14796 0.10154,-0.29986 0.15231,-0.45593 0.0508,-0.15607 0.10154,-0.31633 0.15231,-0.481 0.0508,-0.16467 0.10155,-0.33378 0.15232,-0.50757 0.0508,-0.17379 0.10154,-0.35229 0.15231,-0.53574 0.0508,-0.18345 0.10154,-0.37188 0.15231,-0.56557 0.0508,-0.19368 0.10154,-0.39264 0.15231,-0.59715 0.0508,-0.2045 0.10155,-0.4146 0.15232,-0.63055 0.0508,-0.21595 0.10154,-0.43781 0.15231,-0.66585 0.0508,-0.22804 0.10154,-0.4623 0.15231,-0.70309 0.0508,-0.24078 0.10154,-0.48812 0.15232,-0.74232 0.0508,-0.2542 0.10154,-0.51529 0.15231,-0.78357 0.0508,-0.26828 0.10154,-0.54379 0.15231,-0.82683 0.0508,-0.28303 0.10154,-0.57363 0.15231,-0.87206 0.0508,-0.29843 0.10155,-0.60475 0.15232,-0.9192 0.0508,-0.31445 0.10154,-0.63708 0.15231,-0.9681 0.0508,-0.33103 0.10154,-0.6705 0.15231,-1.01858 0.0508,-0.34808 0.10154,-0.70483 0.15231,-1.07035 0.0508,-0.36551 0.10155,-0.73985 0.15232,-1.12304 0.0508,-0.38318 0.10154,-0.77526 0.15231,-1.17617 0.0508,-0.4009 0.10154,-0.81067 0.15231,-1.22911 0.0508,-0.41844 0.10154,-0.84559 0.15232,-1.2811 0.0508,-0.43551 0.10154,-0.87942 0.15231,-1.33119 0.0508,-0.45177 0.10154,-0.91144 0.15231,-1.37824 0.0508,-0.4668 0.10154,-0.94077 0.15231,-1.4209 0.0508,-0.48013 0.10155,-0.96645 0.15232,-1.45765 0.0508,-0.4912 0.10154,-0.98731 0.15231,-1.48671 0.0508,-0.4994 0.10154,-1.0021 0.15231,-1.50615 0.0508,-0.50404 0.10154,-1.00944 0.15231,-1.51387 0.0508,-0.50444 0.10155,-1.0079 0.15232,-1.50772 0.0508,-0.49982 0.10154,-0.99598 0.15231,-1.48549 0.0508,-0.4895 0.10154,-0.9723 0.15231,-1.44512 0.0508,-0.47281 0.10154,-0.93558 0.15232,-1.3848 0.0508,-0.44921 0.10154,-0.88479 0.15231,-1.30312 0.0508,-0.41832 0.10154,-0.81928 0.15231,-1.19925 0.0508,-0.37998 0.10154,-0.73883 0.15231,-1.07311 0.0508,-0.33428 0.10155,-0.64382 0.15232,-0.92546 0.0508,-0.28165 0.10154,-0.53523 0.15231,-0.75806 0.0508,-0.22283 0.10154,-0.41471 0.15231,-0.57359 0.0508,-0.15888 0.10154,-0.28455 0.15231,-0.37571 0.0508,-0.0911 0.10155,-0.14756 0.15232,-0.16876 0.0508,-0.0212 0.10154,-0.007 0.15231,0.0423 0.0508,0.0493 0.10154,0.13379 0.15231,0.25233 0.0508,0.11853 0.10154,0.27127 0.15232,0.4562 0.0508,0.18493 0.10154,0.40223 0.15231,0.64921 0.0508,0.24698 0.10154,0.5238 0.15231,0.82724 0.0508,0.30344 0.10154,0.63364 0.15231,0.98701 0.0508,0.35337 0.10155,0.73004 0.15232,1.12621 0.0508,0.39617 0.10154,0.81195 0.15231,1.24349 0.0508,0.43154 0.10154,0.87893 0.15231,1.33842 0.0508,0.45949 0.10154,0.93115 0.15232,1.41143 0.0508,0.48027 0.10154,0.96921 0.15231,1.46356 0.0508,0.49435 0.10154,0.99414 0.15231,1.49645 0.0508,0.5023 0.10154,1.00715 0.15231,1.51198 0.0508,0.50484 0.10155,1.00967 0.15232,1.51233 0.0508,0.50267 0.10154,1.00315 0.15231,1.49966 0.0508,0.49652 0.10154,0.98904 0.15231,1.47613 0.0508,0.48709 0.10154,0.96872 0.15231,1.44377 0.0508,0.47505 0.10155,0.94348 0.15232,1.40446 0.0508,0.46097 0.10154,0.91446 0.15231,1.35986 0.0508,0.4454 0.10154,0.88267 0.15231,1.31145 0.0508,0.42877 0.10154,0.849 0.15232,1.26048 0.0508,0.41148 0.10154,0.81416 0.15231,1.208 0.0508,0.39384 0.10154,0.77878 0.15231,1.1549 0.0508,0.37612 0.10154,0.74336 0.15231,1.10188 0.0508,0.35853 0.10155,0.70828 0.15232,1.04951 0.0508,0.34122 0.10154,0.67386 0.15231,0.99821 0.0508,0.32435 0.10154,0.64035 0.15231,0.94834 0.0508,0.30799 0.10154,0.60791 0.15231,0.90013 0.0508,0.29221 0.10155,0.57667 0.15232,0.85373 0.0508,0.27707 0.10154,0.54671 0.15231,0.80929 0.0508,0.26258 0.10154,0.51806 0.15231,0.76683 0.0508,0.24876 0.10154,0.49076 0.15232,0.72638 0.0508,0.23562 0.10154,0.46482 0.15231,0.68796 0.0508,0.22314 0.10154,0.44019 0.15231,0.6515 0.0508,0.21131 0.10154,0.41685 0.15231,0.61697 0.0508,0.20011 0.10155,0.39477 0.15232,0.5843 0.0508,0.18953 0.10154,0.3739 0.15231,0.55343 0.0508,0.17953 0.10154,0.35419 0.15231,0.52428 0.0508,0.17009 0.10154,0.33558 0.15231,0.49675 0.0508,0.16118 0.10155,0.31802 0.15232,0.4708 0.0508,0.15277 0.10154,0.30145 0.15231,0.4463 0.0508,0.14484 0.10154,0.28583 0.15231,0.4232 0.0508,0.13737 0.10154,0.2711 0.15232,0.40142 0.0508,0.13032 0.10154,0.25721 0.15231,0.38088 0.0508,0.12367 0.10154,0.2441 0.15231,0.3615 0.0508,0.11739 0.10154,0.23173 0.15231,0.34321 0.0508,0.11147 0.10155,0.22006 0.15232,0.32595 0.0508,0.10589 0.10154,0.20905 0.15231,0.30966 0.0508,0.10061 0.10154,0.19865 0.15231,0.29427 0.0508,0.0956 0.10154,0.18882 0.15231,0.27973 0.0508,0.0909 0.10155,0.17953 0.15232,0.26599 0.0508,0.0865 0.10154,0.17074 0.15231,0.25298 0.0508,0.0822 0.10154,0.16243 0.15231,0.24069 0.0508,0.0783 0.10154,0.15455 0.15232,0.22903 0.0508,0.0745 0.10154,0.1471 0.15231,0.21799 0.0508,0.0709 0.10154,0.14003 0.15231,0.20752 0.0508,0.0675 0.10154,0.13333 0.15231,0.1976 0.0508,0.0643 0.10155,0.12697 0.15232,0.18818 0.0508,0.0612 0.10154,0.12092 0.15231,0.17922 0.0508,0.0583 0.10154,0.11517 0.15231,0.1707 0.0508,0.0555 0.10154,0.10972 0.15231,0.16262 0.0508,0.0529 0.10155,0.10451 0.15232,0.1549 0.0508,0.0504 0.10154,0.0996 0.15231,0.14755 0.0508,0.048 0.10154,0.0948 0.15231,0.14055 0.0508,0.0457 0.10155,0.0903 0.15232,0.13387 0.0508,0.0435 0.10154,0.086 0.15231,0.12748 0.0508,0.0415 0.10154,0.0819 0.15231,0.12137 0.0508,0.0395 0.10154,0.078 0.15231,0.11554 0.0508,0.0376 0.10155,0.0742 0.15232,0.10994 0.0508,0.0357 0.10154,0.0706 0.15231,0.10458 0.0508,0.034 0.10154,0.0671 0.15231,0.0994 0.0508,0.0323 0.10154,0.0638 0.15231,0.0945 0.0508,0.0307 0.10155,0.0606 0.15232,0.0898 0.0508,0.0291 0.10154,0.0575 0.15231,0.0852 0.0508,0.0276 0.10154,0.0546 0.15231,0.0808 0.0508,0.0262 0.10154,0.0517 0.15232,0.0765 0.0508,0.0248 0.10154,0.049 0.15231,0.0725 0.0508,0.0235 0.10154,0.0463 0.15231,0.0685 0.0508,0.0222 0.10154,0.0437 0.15231,0.0647 0.0508,0.0209 0.10155,0.0412 0.15232,0.061 0.0508,0.0197 0.10154,0.0388 0.15231,0.0573 0.0508,0.0185 0.10154,0.0365 0.15231,0.0539 0.0508,0.0174 0.10154,0.0342 0.15231,0.0505 0.0508,0.0163 0.10155,0.032 0.15232,0.0472 0.0508,0.0152 0.10154,0.0298 0.15231,0.0439 0.0508,0.0141 0.10154,0.0277 0.15231,0.0408 0.0508,0.0131 0.10154,0.0257 0.15232,0.0377 0.0508,0.0121 0.10154,0.0236 0.15231,0.0347 0.0508,0.0111 0.10154,0.0217 0.15231,0.0318 0.0508,0.0101 0.10154,0.0197 0.15231,0.0289 0.0508,0.009 0.10155,0.0178 0.15232,0.026 0.0508,0.008 0.10154,0.0159 0.15231,0.0232 0.0508,0.007 0.10154,0.0141 0.15231,0.0205 0.0508,0.006 0.10154,0.0123 0.15232,0.0177 0.0508,0.005 0.10154,0.0105 0.15231,0.015 0.0508,0.005 0.10154,0.009 0.15231,0.0124 0.0508,0.004 0.10154,0.007 0.15231,0.01 0.0508,0.003 0.10155,0.005 0.15232,0.007 0.0508,0.002 0.10154,0.003 0.15231,0.004 0.0508,10e-4 0.10154,0.002 0.15231,0.002 0.0508,1.7e-4 0.10154,-9e-5 0.15231,-7.9e-4 0.0508,-6.9e-4 0.10155,-0.002 0.15232,-0.003 0.0508,-0.002 0.10154,-0.004 0.15231,-0.006 0.0508,-0.002 0.10154,-0.005 0.15231,-0.009 0.0508,-0.003 0.10154,-0.007 0.15232,-0.0113 0.0508,-0.004 0.10154,-0.009 0.15231,-0.014 0.0508,-0.005 0.10154,-0.0106 0.15231,-0.0166 0.0508,-0.006 0.10154,-0.0125 0.15231,-0.0194 0.0508,-0.007 0.10155,-0.0143 0.15232,-0.0221 0.0508,-0.008 0.10154,-0.0161 0.15231,-0.0249 0.0508,-0.009 0.10154,-0.018 0.15231,-0.0277 0.0508,-0.01 0.10154,-0.0199 0.15231,-0.0306 0.0508,-0.0107 0.10155,-0.0219 0.15232,-0.0335 0.0508,-0.0117 0.10154,-0.0238 0.15231,-0.0365 0.0508,-0.0127 0.10154,-0.0259 0.15231,-0.0396 0.0508,-0.0137 0.10154,-0.0279 0.15232,-0.0427 0.0508,-0.0147 0.10154,-0.03 0.15231,-0.0458 0.0508,-0.0158 0.10154,-0.0322 0.15231,-0.0491 0.0508,-0.0169 0.10154,-0.0344 0.15231,-0.0525 0.0508,-0.0181 0.10155,-0.0367 0.15232,-0.0559 0.0508,-0.0192 0.10154,-0.0391 0.15231,-0.0595 0.0508,-0.0204 0.10154,-0.0415 0.15231,-0.0632 0.0508,-0.0217 0.10154,-0.044 0.15231,-0.0669 0.0508,-0.023 0.10155,-0.0466 0.15232,-0.0708 0.0508,-0.0243 0.10154,-0.0492 0.15231,-0.0749 0.0508,-0.0257 0.10154,-0.052 0.15231,-0.0791 0.0508,-0.0271 0.10154,-0.0549 0.15232,-0.0834 0.0508,-0.0285 0.10154,-0.0578 0.15231,-0.0879 0.0508,-0.0301 0.10154,-0.0609 0.15231,-0.0926 0.0508,-0.0317 0.10154,-0.0641 0.15231,-0.0974 0.0508,-0.0333 0.10155,-0.0675 0.15232,-0.1025 0.0508,-0.035 0.10154,-0.0709 0.15231,-0.10777 0.0508,-0.0368 0.10154,-0.0746 0.15231,-0.11327 0.0508,-0.0387 0.10154,-0.0784 0.15231,-0.11901 0.0508,-0.0406 0.10155,-0.0823 0.15232,-0.125 0.0508,-0.0427 0.10154,-0.0864 0.15231,-0.13128 0.0508,-0.0448 0.10154,-0.0908 0.15231,-0.13784 0.0508,-0.0471 0.10154,-0.0953 0.15232,-0.14471 0.0508,-0.0494 0.10154,-0.10004 0.15231,-0.15192 0.0508,-0.0519 0.10154,-0.10502 0.15231,-0.15948 0.0508,-0.0545 0.10154,-0.11025 0.15231,-0.16742 0.0508,-0.0572 0.10155,-0.11574 0.15232,-0.17577 0.0508,-0.06 0.10154,-0.12151 0.15231,-0.18453 0.0508,-0.063 0.10154,-0.12759 0.15231,-0.19377 0.0508,-0.0662 0.10154,-0.13399 0.15231,-0.2035 0.0508,-0.0695 0.10155,-0.14072 0.15232,-0.21374 0.0508,-0.073 0.10154,-0.14783 0.15231,-0.22454 0.0508,-0.0767 0.10154,-0.15533 0.15231,-0.23594 0.0508,-0.0806 0.10154,-0.16325 0.15232,-0.24799 0.0508,-0.0847 0.10154,-0.1716 0.15231,-0.26069 0.0508,-0.0891 0.10154,-0.18044 0.15231,-0.27414 0.0508,-0.0937 0.10154,-0.18979 0.15231,-0.28836 0.0508,-0.0986 0.10155,-0.19967 0.15232,-0.3034 0.0508,-0.10374 0.10154,-0.21013 0.15231,-0.31933 0.0508,-0.10919 0.10154,-0.2212 0.15231,-0.33618 0.0508,-0.11498 0.10154,-0.23295 0.15232,-0.35406 0.0508,-0.12111 0.10154,-0.24538 0.15231,-0.37299 0.0508,-0.1276 0.10154,-0.25856 0.15231,-0.39306 0.0508,-0.13449 0.10154,-0.27254 0.15231,-0.41433 0.0508,-0.1418 0.10155,-0.28737 0.15232,-0.4369 0.0508,-0.14954 0.10154,-0.30308 0.15231,-0.46083 0.0508,-0.15775 0.10154,-0.31973 0.15231,-0.48619 0.0508,-0.16645 0.10154,-0.33739 0.15231,-0.51307 0.0508,-0.17568 0.10155,-0.35612 0.15232,-0.54157 0.0508,-0.18545 0.10154,-0.37594 0.15231,-0.57174 0.0508,-0.1958 0.10154,-0.39694 0.15231,-0.60369 0.0508,-0.20674 0.10154,-0.41913 0.15232,-0.63745 0.0508,-0.21832 0.10154,-0.44261 0.15231,-0.67314 0.0508,-0.23054 0.10154,-0.46737 0.15231,-0.71078 0.0508,-0.24341 0.10154,-0.49345 0.15231,-0.75041 0.0508,-0.25696 0.10155,-0.52088 0.15232,-0.79206 0.0508,-0.27118 0.10154,-0.54966 0.15231,-0.83572 0.0508,-0.28606 0.10154,-0.57975 0.15231,-0.88134 0.0508,-0.30159 0.10154,-0.61112 0.15231,-0.92885 0.0508,-0.31772 0.10155,-0.64367 0.15232,-0.97807 0.0508,-0.33441 0.10154,-0.6773 0.15231,-1.02884 0.0508,-0.35155 0.10154,-0.71179 0.15231,-1.08083 0.0508,-0.36904 0.10154,-0.74692 0.15232,-1.13365 0.0508,-0.38673 0.10154,-0.78236 0.15231,-1.18679 0.0508,-0.40443 0.10154,-0.81772 0.15231,-1.23962 0.0508,-0.4219 0.10154,-0.85247 0.15231,-1.2913 0.0508,-0.43884 0.10155,-0.886 0.15232,-1.34088 0.0508,-0.45489 0.10154,-0.91755 0.15231,-1.38717 0.0508,-0.46962 0.10154,-0.94624 0.15231,-1.42878 0.0508,-0.48254 0.10154,-0.97104 0.15231,-1.46413 0.0508,-0.4931 0.10155,-0.9908 0.15232,-1.49144 0.0508,-0.50063 0.10154,-1.00421 0.15231,-1.5087 0.0508,-0.50449 0.10154,-1.00989 0.15231,-1.51382 0.0508,-0.50394 0.10154,-1.00639 0.15232,-1.50463 0.0508,-0.49824 0.10154,-0.99223 0.15231,-1.47893 0.0508,-0.48669 0.10154,-0.96603 0.15231,-1.4347 0.0508,-0.46866 0.10154,-0.92658 0.15231,-1.37021 0.0508,-0.44363 0.10155,-0.87288 0.15232,-1.28413 0.0508,-0.41126 0.10154,-0.80439 0.15231,-1.1758 0.0508,-0.37141 0.10154,-0.72097 0.15231,-1.04526 0.0508,-0.32428 0.10154,-0.62314 0.15231,-0.89349 0.0508,-0.27035 0.10155,-0.51201 0.15232,-0.72242 0.0508,-0.21041 0.10154,-0.38937 0.15231,-0.53496 0.0508,-0.14559 0.10154,-0.2576 0.15231,-0.33489 0.0508,-0.0773 0.10155,-0.11963 0.15232,-0.12672 0.0508,-0.007 0.10154,0.0213 0.15231,0.0846 0.0508,0.0633 0.10154,0.16166 0.15231,0.29375 0.0508,0.13209 0.10154,0.29809 0.15231,0.49582 0.0508,0.19773 0.10155,0.42738 0.15232,0.68613 0.0508,0.25875 0.10154,0.54677 0.15231,0.86074 0.0508,0.31397 0.10154,0.65404 0.15231,1.01656 0.0508,0.36251 0.10154,0.7476 0.15232,1.15144 0.0508,0.40384 0.10154,0.82654 0.15231,1.26426 0.0508,0.43772 0.10154,0.89055 0.15231,1.35475 0.0508,0.46421 0.10154,0.93987 0.15231,1.42348 0.0508,0.48361 0.10155,0.97522 0.15232,1.47163 0.0508,0.4964 0.10154,0.99764 0.15231,1.50087 0.0508,0.50322 0.10154,1.00845 0.15231,1.5132 0.0508,0.50476 0.10154,1.00904 0.15231,1.51077 0.0508,0.50172 0.10155,1.00088 0.15232,1.49575 0.0508,0.49487 0.10154,0.98543 0.15231,1.4703 0.0508,0.48487 0.10154,0.96403 0.15231,1.43641 0.0508,0.47238 0.10154,0.93794 0.15232,1.39591 0.0508,0.45797 0.10154,0.90829 0.15231,1.35044 0.0508,0.44215 0.10154,0.87607 0.15231,1.30142 0.0508,0.42536 0.10154,0.84211 0.15231,1.25008 0.0508,0.40797 0.10155,0.80711 0.15232,1.19741 0.0508,0.39029 0.10154,0.77168 0.15231,1.14427 0.0508,0.37258 0.10154,0.7363 0.15231,1.09133 0.0508,0.35504 0.10154,0.70134 0.15231,1.03915 0.0508,0.33781 0.10155,0.66709 0.15232,0.98812 0.0508,0.32103 0.10154,0.63377 0.15231,0.93856 0.0508,0.30478 0.10154,0.60156 0.15231,0.89069 0.0508,0.28914 0.10154,0.57058 0.15232,0.84469 0.0508,0.27412 0.10154,0.54087 0.15231,0.80064 0.0508,0.25976 0.10154,0.51249 0.15231,0.75857 0.0508,0.24609 0.10154,0.48548 0.15231,0.71855 0.0508,0.23307 0.10155,0.45978 0.15232,0.6805 0.0508,0.22073 0.10154,0.43542 0.15231,0.64445 0.0508,0.20902 0.10154,0.41233 0.15231,0.61028 0.0508,0.19795 0.10154,0.39051 0.15231,0.57799 0.0508,0.18749 0.10155,0.36987 0.15232,0.54747 0.0508,0.17759 0.10154,0.35038 0.15231,0.51864 0.0508,0.16826 0.10154,0.33198 0.15231,0.49144 0.0508,0.15946 0.10155,0.31463 0.15232,0.46578 0.0508,0.15115 0.10154,0.29826 0.15231,0.44157 0.0508,0.14332 0.10154,0.28282 0.15231,0.41875 0.0508,0.13593 0.10154,0.26826 0.15231,0.39721 0.0508,0.12896 0.10155,0.25453 0.15232,0.37691 0.0508,0.12239 0.10154,0.24157 0.15231,0.35776 0.0508,0.11618 0.10154,0.22935 0.15231,0.33968 0.0508,0.11033 0.10154,0.21781 0.15232,0.32262 0.0508,0.1048 0.10154,0.20692 0.15231,0.30651 0.0508,0.0996 0.10154,0.19664 0.15231,0.2913 0.0508,0.0947 0.10154,0.18692 0.15231,0.27692 0.0508,0.09 0.10155,0.17773 0.15232,0.26332 0.0508,0.0856 0.10154,0.16905 0.15231,0.25047 0.0508,0.0814 0.10154,0.16082 0.15231,0.2383 0.0508,0.0775 0.10154,0.15304 0.15231,0.22678 0.0508,0.0737 0.10155,0.14566 0.15232,0.21585 0.0508,0.0702 0.10154,0.13867 0.15231,0.2055 0.0508,0.0668 0.10154,0.13203 0.15231,0.19568 0.0508,0.0636 0.10154,0.12573 0.15232,0.18634 0.0508,0.0606 0.10154,0.11975 0.15231,0.17749 0.0508,0.0577 0.10154,0.11406 0.15231,0.16905 0.0508,0.055 0.10154,0.10865 0.15231,0.16104 0.0508,0.0524 0.10155,0.1035 0.15232,0.1534 0.0508,0.0499 0.10154,0.0986 0.15231,0.14613 0.0508,0.0475 0.10154,0.0939 0.15231,0.13919 0.0508,0.0453 0.10154,0.0894 0.15231,0.13256 0.0508,0.0431 0.10155,0.0852 0.15232,0.12624 0.0508,0.0411 0.10154,0.0811 0.15231,0.12019 0.0508,0.0391 0.10154,0.0772 0.15231,0.1144 0.0508,0.0372 0.10154,0.0735 0.15232,0.10885 0.0508,0.0354 0.10154,0.0699 0.15231,0.10354 0.0508,0.0336 0.10154,0.0664 0.15231,0.0984 0.0508,0.032 0.10154,0.0632 0.15231,0.0935 0.0508,0.0304 0.10155,0.06 0.15232,0.0888 0.0508,0.0289 0.10154,0.0569 0.15231,0.0843 0.0508,0.0274 0.10154,0.054 0.15231,0.0799 0.0508,0.0259 0.10154,0.0512 0.15231,0.0757 0.0508,0.0246 0.10155,0.0484 0.15232,0.0716 0.0508,0.0232 0.10154,0.0458 0.15231,0.0677 0.0508,0.0219 0.10154,0.0432 0.15231,0.0639 0.0508,0.0207 0.10154,0.0408 0.15232,0.0602 0.0508,0.0195 0.10154,0.0384 0.15231,0.0567 0.0508,0.0183 0.10154,0.036 0.15231,0.0532 0.0508,0.0172 0.10154,0.0337 0.15231,0.0498 0.0508,0.0161 0.10155,0.0315 0.15232,0.0465 0.0508,0.015 0.10154,0.0294 0.15231,0.0433 0.0508,0.0139 0.10154,0.0273 0.15231,0.0402 0.0508,0.0129 0.10154,0.0252 0.15231,0.0371 0.0508,0.0119 0.10155,0.0232 0.15232,0.0341 0.0508,0.0109 0.10154,0.0213 0.15231,0.0312 0.0508,0.01 0.10154,0.0193 0.15231,0.0283 0.0508,0.009 0.10154,0.0174 0.15232,0.0255 0.0508,0.008 0.10154,0.0156 0.15231,0.0227 0.0508,0.007 0.10154,0.0137 0.15231,0.0199 0.0508,0.006 0.10154,0.0119 0.15231,0.0172 0.0508,0.005 0.10155,0.0101 0.15232,0.0145 0.0508,0.004 0.10154,0.008 0.15231,0.0118 0.0508,0.004 0.10154,0.007 0.15231,0.009 0.0508,0.003 0.10154,0.005 0.15232,0.007 0.0508,0.002 0.10154,0.003 0.15231,0.004 0.0508,8.7e-4 0.10154,0.001 0.15231,0.001"
       style="opacity:1;fill:none;fill-opacity:1;fill-rule:evenodd;stroke:#00d400;stroke-width:0.80000001;stroke-linecap:butt;stroke-linejoin:round;stroke-miterlimit:4;stroke-dasharray:none;stroke-dashoffset:0;stroke-opacity:1"
       sodipodi:nodetypes="cccccccccscccscccsccccccccccccccccccccccccccccccccccscccccccccccccccccccccscccscccssccccccccccccccccccccccccccccccccccccccccccccccccccccccccccccccccccccccccccccccccccccccccccccccccccccccccccccccccccccccccccccccccccccccccccccccccccccccccccccccccccccccccccccccccccccccccccccccccccccccccccccccccccccccccccccccccccccccccccccccccccccccccccccccccccccccccccccccccccccccccccccccccccccccccccccccccccccccccccccccccccccccccccccccccccccccccccccccccccccccccccccccccccccccccccccccccccccccccccccccccccccccccccccccccccccccccccccccccccccccccccccccccccccccccccccccccccccccccccccccccccccccccccccccccccccccccccccccc" />
    <path
       style="fill:#d40000;fill-opacity:1;stroke:#d40000;stroke-width:0.80000001;stroke-miterlimit:4;stroke-dasharray:none;stroke-dashoffset:0;stroke-opacity:1;marker-start:url(#StopL);marker-end:url(#StopL)"
       d="m 109.16376,242.41916 -30.445417,0.0506"
       id="path3453-3-5-2-7-3-7-5"
       inkscape:connector-curvature="0"
       sodipodi:nodetypes="cc" />
    <text
       xml:space="preserve"
       style="font-style:normal;font-weight:normal;font-size:10.58333302px;line-height:1.25;font-family:sans-serif;letter-spacing:0px;word-spacing:0px;fill:#000000;fill-opacity:1;stroke:none;stroke-width:0.26458332"
       x="54.750347"
       y="218.27701"
       id="text3533"><tspan
         sodipodi:role="line"
         id="tspan3531"
         x="54.750347"
         y="227.64078"
         style="stroke-width:0.26458332" /></text>
    <path
       style="fill:#d40000;fill-opacity:1;stroke:#d40000;stroke-width:0.80000001;stroke-miterlimit:4;stroke-dasharray:none;stroke-dashoffset:0;stroke-opacity:1;marker-start:url(#StopL-2);marker-end:url(#StopL-2)"
       d="m 143.35047,215.41191 -7.69125,0.0506"
       id="path3453-3-5-2-7-3-7-5-9"
       inkscape:connector-curvature="0"
       sodipodi:nodetypes="cc" />
    <text
       id="text1075-0-2-2"
       y="183.56833"
       x="43.274597"
       style="font-style:normal;font-weight:normal;font-size:10.58333302px;line-height:1.25;font-family:sans-serif;letter-spacing:0px;word-spacing:0px;fill:#000000;fill-opacity:1;stroke:none;stroke-width:0.26458332"
       xml:space="preserve"><tspan
         style="font-size:6.3499999px;stroke-width:0.26458332"
         y="183.56833"
         x="43.274597"
         id="tspan1073-6-6-0"
         sodipodi:role="line">$T$</tspan></text>
    <text
       xml:space="preserve"
       style="font-style:normal;font-weight:normal;font-size:10.58333302px;line-height:1.25;font-family:sans-serif;letter-spacing:0px;word-spacing:0px;fill:#000000;fill-opacity:1;stroke:none;stroke-width:0.26458332"
       x="162.63304"
       y="249.87863"
       id="text1075-0-2-8"><tspan
         sodipodi:role="line"
         id="tspan1073-6-6-6"
         x="162.63304"
         y="249.87863"
         style="font-size:6.3499999px;stroke-width:0.26458332">$\nu$</tspan></text>
    <text
       id="text1075-0-2-2-3"
       y="189.88843"
       x="33.756912"
       style="font-style:normal;font-weight:normal;font-size:10.58333302px;line-height:1.25;font-family:sans-serif;letter-spacing:0px;word-spacing:0px;fill:#000000;fill-opacity:1;stroke:none;stroke-width:0.26458332"
       xml:space="preserve"><tspan
         style="font-size:6.3499999px;stroke-width:0.26458332"
         y="189.88843"
         x="33.756912"
         id="tspan1073-6-6-0-5"
         sodipodi:role="line">$1$</tspan></text>
    <text
       xml:space="preserve"
       style="font-style:normal;font-weight:normal;font-size:10.58333302px;line-height:1.25;font-family:sans-serif;letter-spacing:0px;word-spacing:0px;fill:#000000;fill-opacity:1;stroke:none;stroke-width:0.26458332"
       x="39.111557"
       y="249.49106"
       id="text1075-0-2-8-6"><tspan
         sodipodi:role="line"
         id="tspan1073-6-6-6-2"
         x="39.111557"
         y="249.49106"
         style="font-size:6.3499999px;stroke-width:0.26458332">$0$</tspan></text>
    <text
       xml:space="preserve"
       style="font-style:normal;font-weight:normal;font-size:10.58333302px;line-height:1.25;font-family:sans-serif;letter-spacing:0px;word-spacing:0px;fill:#000000;fill-opacity:1;stroke:none;stroke-width:0.26458332"
       x="87.367508"
       y="249.49106"
       id="text1075-0-2-8-6-9-2"><tspan
         sodipodi:role="line"
         id="tspan1073-6-6-6-2-1-7"
         x="87.367508"
         y="249.49106"
         style="font-size:6.3499999px;stroke-width:0.26458332">$\Delta \nu_{\rm FSR}$</tspan></text>
    <text
       id="text1075-0-2-2-3-9"
       y="216.87556"
       x="30.052744"
       style="font-style:normal;font-weight:normal;font-size:10.58333302px;line-height:1.25;font-family:sans-serif;letter-spacing:0px;word-spacing:0px;fill:#000000;fill-opacity:1;stroke:none;stroke-width:0.26458332"
       xml:space="preserve"><tspan
         style="font-size:6.3499999px;stroke-width:0.26458332"
         y="216.87556"
         x="30.052744"
         id="tspan1073-6-6-0-5-2"
         sodipodi:role="line">$0,5$</tspan></text>
    <text
       xml:space="preserve"
       style="font-style:normal;font-weight:normal;font-size:10.58333302px;line-height:1.25;font-family:sans-serif;letter-spacing:0px;word-spacing:0px;fill:#000000;fill-opacity:1;stroke:none;stroke-width:0.26458332"
       x="145.03407"
       y="212.22218"
       id="text1075-0-2-8-6-9-2-7"><tspan
         sodipodi:role="line"
         id="tspan1073-6-6-6-2-1-7-3"
         x="145.03407"
         y="212.22218"
         style="font-size:6.3499999px;stroke-width:0.26458332">$\delta\nu_{1/2}$</tspan></text>
  </g>
</svg>
