<?xml version="1.0" encoding="UTF-8" standalone="no"?>
<!-- Created with Inkscape (http://www.inkscape.org/) -->

<svg
   xmlns:dc="http://purl.org/dc/elements/1.1/"
   xmlns:cc="http://creativecommons.org/ns#"
   xmlns:rdf="http://www.w3.org/1999/02/22-rdf-syntax-ns#"
   xmlns:svg="http://www.w3.org/2000/svg"
   xmlns="http://www.w3.org/2000/svg"
   xmlns:sodipodi="http://sodipodi.sourceforge.net/DTD/sodipodi-0.dtd"
   xmlns:inkscape="http://www.inkscape.org/namespaces/inkscape"
   width="540.18915"
   height="451.13202"
   id="svg2"
   version="1.1"
   inkscape:version="0.92.5 (2060ec1f9f, 2020-04-08)"
   sodipodi:docname="06_Michelson.svg">
  <defs
     id="defs4">
    <marker
       inkscape:stockid="Arrow1Mend"
       orient="auto"
       refY="0"
       refX="0"
       id="Arrow1Mend"
       style="overflow:visible">
      <path
         id="path4475"
         d="M 0,0 5,-5 -12.5,0 5,5 Z"
         style="fill-rule:evenodd;stroke:#000000;stroke-width:1.00000003pt"
         transform="matrix(-0.4,0,0,-0.4,-4,0)"
         inkscape:connector-curvature="0" />
    </marker>
    <marker
       inkscape:stockid="Arrow1Send"
       orient="auto"
       refY="0"
       refX="0"
       id="Arrow1Send"
       style="overflow:visible">
      <path
         id="path3924"
         d="M 0,0 5,-5 -12.5,0 5,5 Z"
         style="fill-rule:evenodd;stroke:#000000;stroke-width:1.00000003pt;marker-start:none"
         transform="matrix(-0.2,0,0,-0.2,-1.2,0)"
         inkscape:connector-curvature="0" />
    </marker>
    <marker
       inkscape:stockid="Arrow1Mstart"
       orient="auto"
       refY="0"
       refX="0"
       id="Arrow1Mstart"
       style="overflow:visible">
      <path
         id="path3915"
         d="M 0,0 5,-5 -12.5,0 5,5 Z"
         style="fill-rule:evenodd;stroke:#000000;stroke-width:1.00000003pt;marker-start:none"
         transform="matrix(0.4,0,0,0.4,4,0)"
         inkscape:connector-curvature="0" />
    </marker>
    <marker
       inkscape:stockid="Arrow1Sstart"
       orient="auto"
       refY="0"
       refX="0"
       id="Arrow1Sstart"
       style="overflow:visible">
      <path
         id="path3921"
         d="M 0,0 5,-5 -12.5,0 5,5 Z"
         style="fill-rule:evenodd;stroke:#000000;stroke-width:1.00000003pt;marker-start:none"
         transform="matrix(0.2,0,0,0.2,1.2,0)"
         inkscape:connector-curvature="0" />
    </marker>
    <marker
       inkscape:stockid="Arrow2Lend"
       orient="auto"
       refY="0"
       refX="0"
       id="Arrow2Lend"
       style="overflow:visible">
      <path
         id="path3930"
         style="font-size:12px;fill-rule:evenodd;stroke-width:0.625;stroke-linejoin:round"
         d="M 8.7185878,4.0337352 -2.2072895,0.01601326 8.7185884,-4.0017078 c -1.7454984,2.3720609 -1.7354408,5.6174519 -6e-7,8.035443 z"
         transform="matrix(-1.1,0,0,-1.1,-1.1,0)"
         inkscape:connector-curvature="0" />
    </marker>
    <marker
       inkscape:stockid="Arrow2Lstart"
       orient="auto"
       refY="0"
       refX="0"
       id="Arrow2Lstart"
       style="overflow:visible">
      <path
         id="path3927"
         style="font-size:12px;fill-rule:evenodd;stroke-width:0.625;stroke-linejoin:round"
         d="M 8.7185878,4.0337352 -2.2072895,0.01601326 8.7185884,-4.0017078 c -1.7454984,2.3720609 -1.7354408,5.6174519 -6e-7,8.035443 z"
         transform="matrix(1.1,0,0,1.1,1.1,0)"
         inkscape:connector-curvature="0" />
    </marker>
    <marker
       inkscape:stockid="Arrow2Mstart"
       orient="auto"
       refY="0"
       refX="0"
       id="Arrow2Mstart"
       style="overflow:visible">
      <path
         id="path3933"
         style="font-size:12px;fill-rule:evenodd;stroke-width:0.625;stroke-linejoin:round"
         d="M 8.7185878,4.0337352 -2.2072895,0.01601326 8.7185884,-4.0017078 c -1.7454984,2.3720609 -1.7354408,5.6174519 -6e-7,8.035443 z"
         transform="scale(0.6)"
         inkscape:connector-curvature="0" />
    </marker>
    <marker
       inkscape:stockid="Arrow1Lstart"
       orient="auto"
       refY="0"
       refX="0"
       id="Arrow1Lstart"
       style="overflow:visible">
      <path
         id="path3909"
         d="M 0,0 5,-5 -12.5,0 5,5 Z"
         style="fill-rule:evenodd;stroke:#000000;stroke-width:1.00000003pt;marker-start:none"
         transform="matrix(0.8,0,0,0.8,10,0)"
         inkscape:connector-curvature="0" />
    </marker>
    <marker
       inkscape:stockid="Arrow1Mend"
       orient="auto"
       refY="0"
       refX="0"
       id="Arrow1Mend-4"
       style="overflow:visible">
      <path
         id="path4475-2"
         d="M 0,0 5,-5 -12.5,0 5,5 Z"
         style="fill-rule:evenodd;stroke:#000000;stroke-width:1.00000003pt"
         transform="matrix(-0.4,0,0,-0.4,-4,0)"
         inkscape:connector-curvature="0" />
    </marker>
    <marker
       inkscape:stockid="Arrow1Mend"
       orient="auto"
       refY="0"
       refX="0"
       id="Arrow1Mend-8"
       style="overflow:visible">
      <path
         id="path4475-4"
         d="M 0,0 5,-5 -12.5,0 5,5 Z"
         style="fill-rule:evenodd;stroke:#000000;stroke-width:1.00000003pt"
         transform="matrix(-0.4,0,0,-0.4,-4,0)"
         inkscape:connector-curvature="0" />
    </marker>
    <marker
       inkscape:isstock="true"
       style="overflow:visible"
       id="marker18155-3-2-4"
       refX="0"
       refY="0"
       orient="auto"
       inkscape:stockid="Arrow1Mstart">
      <path
         inkscape:connector-curvature="0"
         transform="matrix(0.4,0,0,0.4,4,0)"
         style="fill:#000000;fill-opacity:1;fill-rule:evenodd;stroke:#000000;stroke-width:1.00000003pt;stroke-opacity:1"
         d="M 0,0 5,-5 -12.5,0 5,5 Z"
         id="path18153-0-0-90" />
    </marker>
    <marker
       inkscape:isstock="true"
       style="overflow:visible"
       id="marker14070-6-2-9-7-6-7"
       refX="0"
       refY="0"
       orient="auto"
       inkscape:stockid="Arrow1Mend">
      <path
         transform="matrix(-0.4,0,0,-0.4,-4,0)"
         style="fill:#d40000;fill-opacity:1;fill-rule:evenodd;stroke:#d40000;stroke-width:1.00000003pt;stroke-opacity:1"
         d="M 0,0 5,-5 -12.5,0 5,5 Z"
         id="path14068-1-3-1-8-8-8"
         inkscape:connector-curvature="0" />
    </marker>
    <marker
       inkscape:isstock="true"
       style="overflow:visible"
       id="marker18155-3-2-4-9-1"
       refX="0"
       refY="0"
       orient="auto"
       inkscape:stockid="Arrow1Mstart">
      <path
         inkscape:connector-curvature="0"
         transform="matrix(0.4,0,0,0.4,4,0)"
         style="fill:#000000;fill-opacity:1;fill-rule:evenodd;stroke:#000000;stroke-width:1.00000003pt;stroke-opacity:1"
         d="M 0,0 5,-5 -12.5,0 5,5 Z"
         id="path18153-0-0-90-5-7" />
    </marker>
    <marker
       inkscape:isstock="true"
       style="overflow:visible"
       id="marker15778"
       refX="0"
       refY="0"
       orient="auto"
       inkscape:stockid="Arrow1Mend">
      <path
         transform="matrix(-0.4,0,0,-0.4,-4,0)"
         style="fill:#d40000;fill-opacity:1;fill-rule:evenodd;stroke:#d40000;stroke-width:1.00000003pt;stroke-opacity:1"
         d="M 0,0 5,-5 -12.5,0 5,5 Z"
         id="path15776"
         inkscape:connector-curvature="0" />
    </marker>
    <marker
       inkscape:isstock="true"
       style="overflow:visible"
       id="marker18155-3-2-4-9"
       refX="0"
       refY="0"
       orient="auto"
       inkscape:stockid="Arrow1Mstart">
      <path
         inkscape:connector-curvature="0"
         transform="matrix(0.4,0,0,0.4,4,0)"
         style="fill:#000000;fill-opacity:1;fill-rule:evenodd;stroke:#000000;stroke-width:1.00000003pt;stroke-opacity:1"
         d="M 0,0 5,-5 -12.5,0 5,5 Z"
         id="path18153-0-0-90-5" />
    </marker>
    <marker
       inkscape:isstock="true"
       style="overflow:visible"
       id="marker14070-6-2-9-7-6-7-7-8"
       refX="0"
       refY="0"
       orient="auto"
       inkscape:stockid="Arrow1Mend">
      <path
         transform="matrix(-0.4,0,0,-0.4,-4,0)"
         style="fill:#d40000;fill-opacity:1;fill-rule:evenodd;stroke:#d40000;stroke-width:1.00000003pt;stroke-opacity:1"
         d="M 0,0 5,-5 -12.5,0 5,5 Z"
         id="path14068-1-3-1-8-8-8-4-4"
         inkscape:connector-curvature="0" />
    </marker>
    <marker
       inkscape:isstock="true"
       style="overflow:visible"
       id="marker14070-6-2-9-7-6-7-7-8-4"
       refX="0"
       refY="0"
       orient="auto"
       inkscape:stockid="Arrow1Mend">
      <path
         transform="matrix(-0.4,0,0,-0.4,-4,0)"
         style="fill:#d40000;fill-opacity:1;fill-rule:evenodd;stroke:#d40000;stroke-width:1.00000003pt;stroke-opacity:1"
         d="M 0,0 5,-5 -12.5,0 5,5 Z"
         id="path14068-1-3-1-8-8-8-4-4-8"
         inkscape:connector-curvature="0" />
    </marker>
    <marker
       inkscape:isstock="true"
       style="overflow:visible"
       id="marker18155"
       refX="0"
       refY="0"
       orient="auto"
       inkscape:stockid="Arrow1Mstart">
      <path
         inkscape:connector-curvature="0"
         transform="matrix(0.4,0,0,0.4,4,0)"
         style="fill:#000000;fill-opacity:1;fill-rule:evenodd;stroke:#000000;stroke-width:1.00000003pt;stroke-opacity:1"
         d="M 0,0 5,-5 -12.5,0 5,5 Z"
         id="path18153" />
    </marker>
    <marker
       inkscape:stockid="Arrow1Mstart"
       orient="auto"
       refY="0"
       refX="0"
       id="Arrow1Mstart-7-9"
       style="overflow:visible"
       inkscape:isstock="true">
      <path
         inkscape:connector-curvature="0"
         id="path1453-0-3"
         d="M 0,0 5,-5 -12.5,0 5,5 Z"
         style="fill:#000000;fill-opacity:1;fill-rule:evenodd;stroke:#000000;stroke-width:1.00000003pt;stroke-opacity:1"
         transform="matrix(0.4,0,0,0.4,4,0)" />
    </marker>
    <marker
       inkscape:stockid="Arrow1Mend"
       orient="auto"
       refY="0"
       refX="0"
       id="Arrow1Mend-9-1"
       style="overflow:visible"
       inkscape:isstock="true">
      <path
         inkscape:connector-curvature="0"
         id="path1456-3-9"
         d="M 0,0 5,-5 -12.5,0 5,5 Z"
         style="fill:#000000;fill-opacity:1;fill-rule:evenodd;stroke:#000000;stroke-width:1.00000003pt;stroke-opacity:1"
         transform="matrix(-0.4,0,0,-0.4,-4,0)" />
    </marker>
    <marker
       inkscape:isstock="true"
       style="overflow:visible"
       id="marker15778-3"
       refX="0"
       refY="0"
       orient="auto"
       inkscape:stockid="Arrow1Mend">
      <path
         transform="matrix(-0.4,0,0,-0.4,-4,0)"
         style="fill:#d40000;fill-opacity:1;fill-rule:evenodd;stroke:#d40000;stroke-width:1.00000003pt;stroke-opacity:1"
         d="M 0,0 5,-5 -12.5,0 5,5 Z"
         id="path15776-6"
         inkscape:connector-curvature="0" />
    </marker>
    <marker
       inkscape:isstock="true"
       style="overflow:visible"
       id="marker18155-5"
       refX="0"
       refY="0"
       orient="auto"
       inkscape:stockid="Arrow1Mstart">
      <path
         inkscape:connector-curvature="0"
         transform="matrix(0.4,0,0,0.4,4,0)"
         style="fill:#000000;fill-opacity:1;fill-rule:evenodd;stroke:#000000;stroke-width:1.00000003pt;stroke-opacity:1"
         d="M 0,0 5,-5 -12.5,0 5,5 Z"
         id="path18153-3" />
    </marker>
    <marker
       inkscape:isstock="true"
       style="overflow:visible"
       id="marker14070-6-2-9-7-6-7-7-8-4-3"
       refX="0"
       refY="0"
       orient="auto"
       inkscape:stockid="Arrow1Mend">
      <path
         transform="matrix(-0.4,0,0,-0.4,-4,0)"
         style="fill:#d40000;fill-opacity:1;fill-rule:evenodd;stroke:#d40000;stroke-width:1.00000003pt;stroke-opacity:1"
         d="M 0,0 5,-5 -12.5,0 5,5 Z"
         id="path14068-1-3-1-8-8-8-4-4-8-6"
         inkscape:connector-curvature="0" />
    </marker>
    <marker
       inkscape:isstock="true"
       style="overflow:visible"
       id="marker14070-6-2-9-7-6-7-7-8-4-3-2"
       refX="0"
       refY="0"
       orient="auto"
       inkscape:stockid="Arrow1Mend">
      <path
         transform="matrix(-0.4,0,0,-0.4,-4,0)"
         style="fill:#d40000;fill-opacity:1;fill-rule:evenodd;stroke:#d40000;stroke-width:1.00000003pt;stroke-opacity:1"
         d="M 0,0 5,-5 -12.5,0 5,5 Z"
         id="path14068-1-3-1-8-8-8-4-4-8-6-9"
         inkscape:connector-curvature="0" />
    </marker>
    <marker
       inkscape:isstock="true"
       style="overflow:visible"
       id="marker14070-6-2-9-7-6-7-7-8-4-3-2-2"
       refX="0"
       refY="0"
       orient="auto"
       inkscape:stockid="Arrow1Mend">
      <path
         transform="matrix(-0.4,0,0,-0.4,-4,0)"
         style="fill:#d40000;fill-opacity:1;fill-rule:evenodd;stroke:#d40000;stroke-width:1.00000003pt;stroke-opacity:1"
         d="M 0,0 5,-5 -12.5,0 5,5 Z"
         id="path14068-1-3-1-8-8-8-4-4-8-6-9-7"
         inkscape:connector-curvature="0" />
    </marker>
    <marker
       inkscape:isstock="true"
       style="overflow:visible"
       id="marker18155-3-2-4-3"
       refX="0"
       refY="0"
       orient="auto"
       inkscape:stockid="Arrow1Mstart">
      <path
         inkscape:connector-curvature="0"
         transform="matrix(0.4,0,0,0.4,4,0)"
         style="fill:#000000;fill-opacity:1;fill-rule:evenodd;stroke:#000000;stroke-width:1.00000003pt;stroke-opacity:1"
         d="M 0,0 5,-5 -12.5,0 5,5 Z"
         id="path18153-0-0-90-6" />
    </marker>
    <marker
       inkscape:isstock="true"
       style="overflow:visible"
       id="marker14070-6-2-9-7-6-7-7-8-7"
       refX="0"
       refY="0"
       orient="auto"
       inkscape:stockid="Arrow1Mend">
      <path
         transform="matrix(-0.4,0,0,-0.4,-4,0)"
         style="fill:#d40000;fill-opacity:1;fill-rule:evenodd;stroke:#d40000;stroke-width:1.00000003pt;stroke-opacity:1"
         d="M 0,0 5,-5 -12.5,0 5,5 Z"
         id="path14068-1-3-1-8-8-8-4-4-5"
         inkscape:connector-curvature="0" />
    </marker>
    <marker
       inkscape:isstock="true"
       style="overflow:visible"
       id="marker14070-6-2-9-7-6-7-7-8-3"
       refX="0"
       refY="0"
       orient="auto"
       inkscape:stockid="Arrow1Mend">
      <path
         transform="matrix(-0.4,0,0,-0.4,-4,0)"
         style="fill:#d40000;fill-opacity:1;fill-rule:evenodd;stroke:#d40000;stroke-width:1.00000003pt;stroke-opacity:1"
         d="M 0,0 5,-5 -12.5,0 5,5 Z"
         id="path14068-1-3-1-8-8-8-4-4-6"
         inkscape:connector-curvature="0" />
    </marker>
    <marker
       inkscape:isstock="true"
       style="overflow:visible"
       id="marker18155-3-2-4-9-3"
       refX="0"
       refY="0"
       orient="auto"
       inkscape:stockid="Arrow1Mstart">
      <path
         inkscape:connector-curvature="0"
         transform="matrix(0.4,0,0,0.4,4,0)"
         style="fill:#d40000;fill-opacity:1;fill-rule:evenodd;stroke:#d40000;stroke-width:1.00000003pt;stroke-opacity:1"
         d="M 0,0 5,-5 -12.5,0 5,5 Z"
         id="path18153-0-0-90-5-5" />
    </marker>
    <marker
       inkscape:isstock="true"
       style="overflow:visible"
       id="marker18155-3-2-4-9-5"
       refX="0"
       refY="0"
       orient="auto"
       inkscape:stockid="Arrow1Mstart">
      <path
         inkscape:connector-curvature="0"
         transform="matrix(0.4,0,0,0.4,4,0)"
         style="fill:#d40000;fill-opacity:1;fill-rule:evenodd;stroke:#d40000;stroke-width:1.00000003pt;stroke-opacity:1"
         d="M 0,0 5,-5 -12.5,0 5,5 Z"
         id="path18153-0-0-90-5-3" />
    </marker>
    <marker
       inkscape:isstock="true"
       style="overflow:visible"
       id="marker14070-6-2-9-7-6-7-7-8-3-0"
       refX="0"
       refY="0"
       orient="auto"
       inkscape:stockid="Arrow1Mend">
      <path
         transform="matrix(-0.4,0,0,-0.4,-4,0)"
         style="fill:#d40000;fill-opacity:1;fill-rule:evenodd;stroke:#d40000;stroke-width:1.00000003pt;stroke-opacity:1"
         d="M 0,0 5,-5 -12.5,0 5,5 Z"
         id="path14068-1-3-1-8-8-8-4-4-6-9"
         inkscape:connector-curvature="0" />
    </marker>
    <marker
       inkscape:isstock="true"
       style="overflow:visible"
       id="marker14070-6-2-9-7-6-7-7-8-3-0-6"
       refX="0"
       refY="0"
       orient="auto"
       inkscape:stockid="Arrow1Mend">
      <path
         transform="matrix(-0.4,0,0,-0.4,-4,0)"
         style="fill:#d40000;fill-opacity:1;fill-rule:evenodd;stroke:#d40000;stroke-width:1.00000003pt;stroke-opacity:1"
         d="M 0,0 5,-5 -12.5,0 5,5 Z"
         id="path14068-1-3-1-8-8-8-4-4-6-9-1"
         inkscape:connector-curvature="0" />
    </marker>
    <marker
       inkscape:isstock="true"
       style="overflow:visible"
       id="marker18155-3-2-4-9-5-7"
       refX="0"
       refY="0"
       orient="auto"
       inkscape:stockid="Arrow1Mstart">
      <path
         inkscape:connector-curvature="0"
         transform="matrix(0.4,0,0,0.4,4,0)"
         style="fill:#d40000;fill-opacity:1;fill-rule:evenodd;stroke:#d40000;stroke-width:1.00000003pt;stroke-opacity:1"
         d="M 0,0 5,-5 -12.5,0 5,5 Z"
         id="path18153-0-0-90-5-3-0" />
    </marker>
    <marker
       inkscape:isstock="true"
       style="overflow:visible"
       id="marker18155-3-2-4-9-5-7-3"
       refX="0"
       refY="0"
       orient="auto"
       inkscape:stockid="Arrow1Mstart">
      <path
         inkscape:connector-curvature="0"
         transform="matrix(0.4,0,0,0.4,4,0)"
         style="fill:#d40000;fill-opacity:1;fill-rule:evenodd;stroke:#d40000;stroke-width:1.00000003pt;stroke-opacity:1"
         d="M 0,0 5,-5 -12.5,0 5,5 Z"
         id="path18153-0-0-90-5-3-0-6" />
    </marker>
    <marker
       inkscape:isstock="true"
       style="overflow:visible"
       id="marker18155-3-2-4-9-5-7-2"
       refX="0"
       refY="0"
       orient="auto"
       inkscape:stockid="Arrow1Mstart">
      <path
         inkscape:connector-curvature="0"
         transform="matrix(0.4,0,0,0.4,4,0)"
         style="fill:#d40000;fill-opacity:1;fill-rule:evenodd;stroke:#d40000;stroke-width:1.00000003pt;stroke-opacity:1"
         d="M 0,0 5,-5 -12.5,0 5,5 Z"
         id="path18153-0-0-90-5-3-0-61" />
    </marker>
    <marker
       inkscape:isstock="true"
       style="overflow:visible"
       id="marker18155-3-2-4-9-5-7-2-7"
       refX="0"
       refY="0"
       orient="auto"
       inkscape:stockid="Arrow1Mstart">
      <path
         inkscape:connector-curvature="0"
         transform="matrix(0.4,0,0,0.4,4,0)"
         style="fill:#d40000;fill-opacity:1;fill-rule:evenodd;stroke:#d40000;stroke-width:1.00000003pt;stroke-opacity:1"
         d="M 0,0 5,-5 -12.5,0 5,5 Z"
         id="path18153-0-0-90-5-3-0-61-9" />
    </marker>
    <marker
       inkscape:isstock="true"
       style="overflow:visible"
       id="marker18155-3-2-4-9-5-7-5"
       refX="0"
       refY="0"
       orient="auto"
       inkscape:stockid="Arrow1Mstart">
      <path
         inkscape:connector-curvature="0"
         transform="matrix(0.4,0,0,0.4,4,0)"
         style="fill:#d40000;fill-opacity:1;fill-rule:evenodd;stroke:#d40000;stroke-width:1.00000003pt;stroke-opacity:1"
         d="M 0,0 5,-5 -12.5,0 5,5 Z"
         id="path18153-0-0-90-5-3-0-9" />
    </marker>
    <marker
       inkscape:isstock="true"
       style="overflow:visible"
       id="marker18155-3-2-4-9-5-7-28"
       refX="0"
       refY="0"
       orient="auto"
       inkscape:stockid="Arrow1Mstart">
      <path
         inkscape:connector-curvature="0"
         transform="matrix(0.4,0,0,0.4,4,0)"
         style="fill:#d40000;fill-opacity:1;fill-rule:evenodd;stroke:#d40000;stroke-width:1.00000003pt;stroke-opacity:1"
         d="M 0,0 5,-5 -12.5,0 5,5 Z"
         id="path18153-0-0-90-5-3-0-97" />
    </marker>
  </defs>
  <sodipodi:namedview
     id="base"
     pagecolor="#ffffff"
     bordercolor="#666666"
     borderopacity="1.0"
     inkscape:pageopacity="0.0"
     inkscape:pageshadow="2"
     inkscape:zoom="0.56416626"
     inkscape:cx="297.21557"
     inkscape:cy="251.67992"
     inkscape:document-units="px"
     inkscape:current-layer="layer2"
     showgrid="false"
     inkscape:window-width="1920"
     inkscape:window-height="999"
     inkscape:window-x="0"
     inkscape:window-y="1200"
     inkscape:window-maximized="1"
     showguides="true"
     inkscape:guide-bbox="true"
     fit-margin-top="0"
     fit-margin-left="0"
     fit-margin-right="0"
     fit-margin-bottom="0"
     inkscape:snap-global="true"
     inkscape:snap-bbox="true"
     inkscape:snap-bbox-edge-midpoints="true">
    <sodipodi:guide
       orientation="0,1"
       position="103.3215,227.51505"
       id="guide5193"
       inkscape:locked="false" />
  </sodipodi:namedview>
  <metadata
     id="metadata7">
    <rdf:RDF>
      <cc:Work
         rdf:about="">
        <dc:format>image/svg+xml</dc:format>
        <dc:type
           rdf:resource="http://purl.org/dc/dcmitype/StillImage" />
        <dc:title></dc:title>
      </cc:Work>
    </rdf:RDF>
  </metadata>
  <g
     inkscape:groupmode="layer"
     id="layer2"
     inkscape:label="Layer"
     style="display:inline"
     transform="translate(-169.05694,35.781833)">
    <path
       style="fill:none;stroke:#000000;stroke-width:4;stroke-linecap:butt;stroke-linejoin:miter;stroke-miterlimit:4;stroke-dasharray:none;stroke-opacity:1"
       d="M 303.60195,-33.781833 H 482.51141"
       id="path3792"
       inkscape:connector-curvature="0" />
    <path
       style="fill:none;stroke:#000000;stroke-width:3;stroke-linecap:butt;stroke-linejoin:miter;stroke-miterlimit:4;stroke-dasharray:none;stroke-opacity:1;marker-start:url(#Arrow1Sstart);marker-mid:none;marker-end:url(#Arrow1Send)"
       d="m 663.78539,131.09461 h 39.68025"
       id="path3262"
       inkscape:connector-curvature="0" />
    <path
       style="display:inline;fill:none;stroke:#000000;stroke-width:4;stroke-linecap:butt;stroke-linejoin:miter;stroke-miterlimit:4;stroke-dasharray:16, 8;stroke-dashoffset:0;stroke-opacity:1"
       d="M 658.4227,122.6001 V 299.75554"
       id="path3794"
       inkscape:connector-curvature="0" />
    <path
       style="fill:none;stroke:#000000;stroke-width:4;stroke-linecap:butt;stroke-linejoin:miter;stroke-miterlimit:4;stroke-dasharray:none;stroke-opacity:1"
       d="M 707.24608,123.47724 V 297.12462"
       id="path3018"
       inkscape:connector-curvature="0" />
    <path
       style="fill:#666666;fill-opacity:1;stroke:#666666;stroke-width:4.29391623;stroke-miterlimit:4;stroke-dasharray:none;stroke-dashoffset:0;stroke-opacity:1"
       d="m 442.14243,413.20322 c -86.17151,0 0,0 -86.17151,0"
       id="path3453-3-5-1-1-06-1"
       inkscape:connector-curvature="0"
       sodipodi:nodetypes="cc" />
    <text
       xml:space="preserve"
       style="font-style:normal;font-weight:normal;line-height:0%;font-family:sans-serif;letter-spacing:0px;word-spacing:0px;fill:#000000;fill-opacity:1;stroke:none"
       x="675.56458"
       y="126.01493"
       id="text4920"><tspan
         style="font-size:8.64785576px;line-height:1.25;font-family:sans-serif"
         sodipodi:role="line"
         id="tspan4922"
         x="675.56458"
         y="126.01493">$x$</tspan></text>
    <rect
       style="opacity:1;fill:#c1d5e9;fill-opacity:1;fill-rule:evenodd;stroke:#3054a8;stroke-width:2.66666675;stroke-linecap:butt;stroke-linejoin:round;stroke-miterlimit:4;stroke-dasharray:none;stroke-dashoffset:0;stroke-opacity:1"
       id="rect3663-9"
       width="218.63506"
       height="24.702442"
       x="20.7288"
       y="402.29672"
       rx="8.1006201e-06"
       ry="7.3568503e-06"
       transform="rotate(-45)" />
    <path
       id="path8370"
       title="sin(x)*sin(x)"
       d="m 438.14243,403.20322 c -2e-5,-0.0525 -0.006,-0.10502 -0.0147,-0.158 -0.0117,-0.0525 -0.0264,-0.10502 -0.0472,-0.15761 -0.0206,-0.0525 -0.0472,-0.10502 -0.0786,-0.158 -0.0314,-0.0525 -0.0681,-0.10502 -0.10999,-0.15761 -0.0417,-0.0525 -0.0886,-0.10503 -0.14076,-0.158 -0.0519,-0.0525 -0.10909,-0.10502 -0.17127,-0.15762 -0.0621,-0.0525 -0.12933,-0.10502 -0.20147,-0.15799 -0.0722,-0.0525 -0.14898,-0.10503 -0.2311,-0.1576 -0.0818,-0.0525 -0.16862,-0.10503 -0.26012,-0.15802 -0.0915,-0.0525 -0.18769,-0.10502 -0.28828,-0.15761 -0.10089,-0.0525 -0.20617,-0.10502 -0.31599,-0.15801 -0.10969,-0.0525 -0.22406,-0.10502 -0.3428,-0.1576 -0.11877,-0.0525 -0.24166,-0.10502 -0.36879,-0.15801 -0.12727,-0.0525 -0.25837,-0.10503 -0.39379,-0.158 -0.1352,-0.0525 -0.2748,-0.10502 -0.41785,-0.1576 -0.14311,-0.0525 -0.29004,-0.10502 -0.44077,-0.15801 -0.15074,-0.0525 -0.30494,-0.10503 -0.46269,-0.15761 -0.15778,-0.0525 -0.31892,-0.10502 -0.48333,-0.15801 -0.16453,-0.0525 -0.33213,-0.10502 -0.50283,-0.1576 -0.17069,-0.0525 -0.34445,-0.10502 -0.521,-0.15801 -0.17654,-0.0525 -0.35593,-0.10502 -0.53787,-0.1576 -0.18183,-0.0525 -0.3665,-0.10502 -0.5534,-0.15801 -0.1868,-0.0525 -0.37611,-0.10502 -0.56746,-0.1576 -0.19121,-0.0525 -0.38485,-0.10502 -0.5802,-0.15801 -0.19531,-0.0525 -0.39254,-0.10503 -0.59137,-0.15762 -0.19883,-0.0525 -0.39925,-0.10502 -0.60108,-0.158 -0.20176,-0.0525 -0.40496,-0.10502 -0.60926,-0.15761 -0.2044,-0.0525 -0.40966,-0.10502 -0.61591,-0.158 -0.20617,-0.0525 -0.41333,-0.10502 -0.62099,-0.15761 -0.20764,-0.0525 -0.41594,-0.10503 -0.62451,-0.158 -0.20851,-0.0525 -0.41746,-0.10502 -0.62645,-0.15762 -0.20909,-0.0525 -0.41796,-0.10502 -0.62679,-0.15799 -0.20881,-0.0525 -0.41741,-0.10503 -0.62554,-0.1576 -0.20822,-0.0525 -0.4158,-0.10503 -0.62272,-0.15802 -0.20704,-0.0525 -0.41312,-0.10502 -0.61835,-0.15801 -0.20529,-0.0525 -0.4094,-0.10502 -0.61234,-0.1576 -0.20294,-0.0525 -0.40465,-0.10502 -0.60486,-0.15801 -0.2003,-0.0525 -0.39887,-0.10502 -0.5958,-0.15761 -0.19678,-0.0525 -0.3921,-0.10503 -0.58524,-0.158 -0.19326,-0.0525 -0.38432,-0.10502 -0.57321,-0.1576 -0.18887,-0.0525 -0.37556,-0.10503 -0.55976,-0.15801 -0.18418,-0.0525 -0.36585,-0.10503 -0.54483,-0.15761 -0.17889,-0.0525 -0.35524,-0.10502 -0.52853,-0.15801 -0.17332,-0.0525 -0.3437,-0.10502 -0.51096,-0.1576 -0.16715,-0.0525 -0.33126,-0.10502 -0.49201,-0.15801 -0.16071,-0.0525 -0.31804,-0.10502 -0.47186,-0.1576 -0.15367,-0.0525 -0.304,-0.10502 -0.45049,-0.15801 -0.14634,-0.0525 -0.28916,-0.10502 -0.42802,-0.1576 -0.13871,-0.0525 -0.27361,-0.10502 -0.40444,-0.15801 -0.13079,-0.0525 -0.25749,-0.10503 -0.37984,-0.15761 -0.12228,-0.0525 -0.24047,-0.10502 -0.35429,-0.15801 -0.11379,-0.0525 -0.22317,-0.10502 -0.32781,-0.1576 -0.1047,-0.0525 -0.205,-0.10502 -0.30054,-0.15801 -0.0956,-0.0525 -0.18652,-0.10502 -0.27244,-0.15761 -0.0859,-0.0525 -0.16746,-0.10503 -0.24371,-0.158 -0.0765,-0.0525 -0.14781,-0.10502 -0.21437,-0.1576 -0.0666,-0.0525 -0.12816,-0.10502 -0.18447,-0.15801 -0.0566,-0.0525 -0.10792,-0.10503 -0.15426,-0.15802 -0.0463,-0.0525 -0.0874,-0.10502 -0.12346,-0.1576 -0.0361,-0.0525 -0.0669,-0.10502 -0.0924,-0.15801 -0.0264,-0.0525 -0.046,-0.10502 -0.061,-0.1576 -0.0147,-0.0525 -0.0264,-0.10502 -0.0296,-0.15801 -0.006,-0.0525 -0.003,-0.10502 0.002,-0.1576 0.006,-0.0525 0.0176,-0.10502 0.0335,-0.15801 0.0176,-0.0525 0.0381,-0.10502 0.0648,-0.1576 0.0264,-0.0525 0.059,-0.10503 0.0962,-0.15802 0.0372,-0.0525 0.0798,-0.10502 0.12727,-0.1576 0.0475,-0.0525 0.1003,-0.10502 0.15807,-0.15801 0.0578,-0.0525 0.12053,-0.10502 0.18828,-0.1576 0.0677,-0.0525 0.14047,-0.10502 0.21819,-0.158 0.0777,-0.0525 0.16012,-0.10502 0.24752,-0.15761 0.0874,-0.0525 0.17918,-0.10502 0.27596,-0.158 0.0968,-0.0525 0.19795,-0.10502 0.30397,-0.15761 0.10587,-0.0525 0.21643,-0.10503 0.33118,-0.15801 0.11496,-0.0525 0.23403,-0.10503 0.35752,-0.15761 0.12347,-0.0525 0.25133,-0.10502 0.38298,-0.15801 0.13167,-0.0525 0.26775,-0.10502 0.40746,-0.1576 0.13989,-0.0525 0.28359,-0.10502 0.43087,-0.15801 0.14751,-0.0525 0.29857,-0.10502 0.45324,-0.158 0.15484,-0.0525 0.31292,-0.10502 0.47445,-0.15761 0.16159,-0.0525 0.32643,-0.10502 0.49447,-0.158 0.16804,-0.0525 0.33914,-0.10502 0.51319,-0.15761 0.17391,-0.0525 0.351,-0.10503 0.53066,-0.158 0.17977,-0.0525 0.36198,-0.10502 0.54676,-0.15762 0.18476,-0.0525 0.37204,-0.10502 0.56149,-0.15799 0.18945,-0.0525 0.38116,-0.10503 0.57484,-0.15761 0.19354,-0.0525 0.38927,-0.10502 0.58661,-0.15802 0.19737,-0.0525 0.39647,-0.10502 0.59703,-0.1576 0.2006,-0.0525 0.40262,-0.10502 0.60589,-0.15801 0.20323,-0.0525 0.40773,-0.10502 0.61319,-0.1576 0.20528,-0.0525 0.41183,-0.10503 0.61896,-0.15802 0.20705,-0.0525 0.41492,-0.10502 0.62316,-0.1576 0.20823,-0.0525 0.41694,-0.10502 0.62581,-0.15799 0.2088,-0.0525 0.41787,-0.10503 0.62682,-0.15762 0.2088,-0.0525 0.41778,-0.10502 0.62627,-0.158 0.20851,-0.0525 0.41664,-0.10502 0.62416,-0.15801 0.20763,-0.0525 0.41444,-0.10502 0.62046,-0.1576 0.20587,-0.0525 0.41116,-0.10502 0.61515,-0.15801 0.20412,-0.0525 0.40685,-0.10502 0.60832,-0.1576 0.20148,-0.0525 0.40155,-0.10502 0.59997,-0.15801 0.19854,-0.0525 0.39517,-0.10502 0.59005,-0.15762 0.19502,-0.0525 0.38784,-0.10502 0.57864,-0.158 0.19091,-0.0525 0.37952,-0.10502 0.56583,-0.15761 0.18622,-0.0525 0.37022,-0.10502 0.55152,-0.158 0.18123,-0.0525 0.35997,-0.10502 0.53585,-0.15761 0.17595,-0.0525 0.34884,-0.10502 0.51878,-0.158 0.1701,-0.0525 0.33682,-0.10502 0.50046,-0.15761 0.16365,-0.0525 0.32394,-0.10503 0.48081,-0.158 0.1569,-0.0525 0.31028,-0.10502 0.46002,-0.15762 0.14986,-0.0525 0.29575,-0.10502 0.43799,-0.15799 0.14224,-0.0525 0.28066,-0.10503 0.41488,-0.15761 0.13432,-0.0525 0.26453,-0.10502 0.39072,-0.15801 0.12611,-0.0525 0.2481,-0.10502 0.36559,-0.1576 0.1176,-0.0525 0.2308,-0.10502 0.33948,-0.15802 0.1088,-0.0525 0.21291,-0.10503 0.31259,-0.15759 0.0997,-0.0525 0.19444,-0.10502 0.28476,-0.15801 0.0903,-0.0525 0.17567,-0.10502 0.25632,-0.15801 0.0806,-0.0525 0.15631,-0.10503 0.22728,-0.1576 0.071,-0.0525 0.13666,-0.10503 0.19766,-0.15802 0.0607,-0.0525 0.11672,-0.10502 0.16746,-0.1576 0.0507,-0.0525 0.0965,-0.10502 0.13695,-0.15801 0.0405,-0.0525 0.0756,-0.10502 0.10587,-0.1576 0.0302,-0.0525 0.0552,-0.10502 0.0748,-0.15801 0.0206,-0.0525 0.034,-0.10502 0.0434,-0.1576 0.009,-0.0525 0.0117,-0.10502 0.0117,-0.15801 -7.8e-4,-0.0525 -0.009,-0.10503 -0.0206,-0.1576 -0.0117,-0.0525 -0.0293,-0.10503 -0.0511,-0.15802 -0.0234,-0.0525 -0.0499,-0.10502 -0.0827,-0.1576 -0.0328,-0.0525 -0.0707,-0.10502 -0.11378,-0.15801 -0.0431,-0.0525 -0.0912,-0.10502 -0.14458,-0.15761 -0.0534,-0.0525 -0.11173,-0.10502 -0.17508,-0.158 -0.0633,-0.0525 -0.13168,-0.10502 -0.20499,-0.15762 -0.0733,-0.0525 -0.15162,-0.10502 -0.23461,-0.15799 -0.083,-0.0525 -0.17098,-0.10502 -0.26365,-0.1576 -0.0927,-0.0525 -0.19004,-0.10503 -0.29181,-0.15802 -0.10175,-0.0525 -0.2085,-0.10502 -0.31936,-0.1576 -0.11085,-0.0525 -0.2264,-0.10502 -0.34611,-0.15801 -0.11965,-0.0525 -0.2437,-0.10502 -0.37195,-0.15801 -0.12816,-0.0525 -0.26042,-0.10502 -0.39685,-0.1576 -0.13637,-0.0525 -0.27655,-0.10502 -0.42078,-0.15801 -0.14399,-0.0525 -0.29209,-0.10502 -0.44359,-0.1576 -0.15162,-0.0525 -0.30673,-0.10502 -0.46532,-0.15801 -0.15866,-0.0525 -0.3206,-0.10503 -0.48586,-0.15761 -0.16511,-0.0525 -0.33367,-0.10502 -0.50514,-0.15801 -0.17156,-0.0525 -0.34595,-0.10502 -0.52319,-0.1576 -0.17713,-0.0525 -0.35729,-0.10502 -0.53987,-0.15801 -0.18271,-0.0525 -0.36776,-0.10502 -0.55524,-0.1576 -0.1874,-0.0525 -0.37726,-0.10502 -0.56914,-0.158 -0.19181,-0.0525 -0.38586,-0.10502 -0.58167,-0.15761 -0.1959,-0.0525 -0.39345,-0.10502 -0.59266,-0.15801 -0.19913,-0.0525 -0.40005,-0.10503 -0.60219,-0.1576 -0.20206,-0.0525 -0.40562,-0.10503 -0.61017,-0.15802 -0.20441,-0.0525 -0.41019,-0.10502 -0.61665,-0.1576 -0.20646,-0.0525 -0.41368,-0.10502 -0.62151,-0.15801 -0.20793,-0.0525 -0.41618,-0.10502 -0.62484,-0.1576 -0.2088,-0.0525 -0.41761,-0.10502 -0.62657,-0.15801 -0.20909,-0.0525 -0.41795,-0.10502 -0.62673,-0.1576 -0.2088,-0.0525 -0.41726,-0.10502 -0.62527,-0.15801 -0.20793,-0.0525 -0.41553,-0.10503 -0.62228,-0.158 -0.20676,-0.0525 -0.41271,-0.10502 -0.61765,-0.15762 -0.205,-0.0525 -0.40887,-0.10502 -0.61151,-0.15799 -0.20265,-0.0525 -0.40398,-0.10503 -0.60381,-0.15762 -0.19972,-0.0525 -0.39808,-0.10502 -0.59457,-0.15801 -0.19649,-0.0525 -0.39115,-0.10502 -0.5838,-0.1576 -0.19268,-0.0525 -0.3833,-0.10502 -0.57164,-0.15801 -0.18827,-0.0525 -0.37438,-0.10502 -0.55793,-0.1576 -0.18359,-0.0525 -0.36459,-0.10502 -0.54287,-0.15801 -0.17831,-0.0525 -0.35385,-0.10503 -0.52644,-0.15761 -0.17244,-0.0525 -0.34218,-0.10502 -0.50861,-0.15801 -0.16657,-0.0525 -0.32969,-0.10502 -0.48958,-0.1576 -0.15983,-0.0525 -0.31634,-0.10502 -0.46925,-0.158 -0.1528,-0.0525 -0.30221,-0.10502 -0.44776,-0.15761 -0.14546,-0.0525 -0.2874,-0.10502 -0.42512,-0.158 -0.13783,-0.0525 -0.27156,-0.10502 -0.40142,-0.15761 -0.12962,-0.0525 -0.25543,-0.10502 -0.3767,-0.158 -0.12141,-0.0525 -0.23843,-0.10502 -0.35101,-0.15762 -0.11261,-0.0525 -0.22083,-0.10502 -0.32447,-0.15801 -0.10352,-0.0525 -0.20265,-0.10502 -0.29708,-0.1576 -0.0944,-0.0525 -0.18417,-0.10502 -0.26892,-0.15801 -0.0851,-0.0525 -0.16482,-0.10502 -0.24019,-0.1576 -0.075,-0.0525 -0.14546,-0.10502 -0.21056,-0.15801 -0.0654,-0.0525 -0.12552,-0.10502 -0.18065,-0.158 -0.0552,-0.0525 -0.10529,-0.10502 -0.15045,-0.15761 -0.0448,-0.0525 -0.0848,-0.10503 -0.11965,-0.158 -0.0346,-0.0525 -0.0643,-0.10502 -0.0886,-0.15762 -0.0234,-0.0525 -0.0434,-0.10502 -0.0569,-0.15799 -0.0147,-0.0525 -0.0234,-0.10503 -0.0264,-0.15762 -0.003,-0.0525 -7.8e-4,-0.10502 0.006,-0.158 0.006,-0.0525 0.0206,-0.10502 0.0376,-0.1576 0.0176,-0.0525 0.0407,-0.10502 0.0689,-0.15802 0.0293,-0.0525 0.0616,-0.10502 0.1,-0.15759 0.0384,-0.0525 0.0824,-0.10502 0.13109,-0.15802 0.0486,-0.0525 0.10265,-0.10503 0.16188,-0.15761 0.059,-0.0525 0.12289,-0.10502 0.19209,-0.15799 0.0689,-0.0525 0.14283,-0.10503 0.22171,-0.15762 0.0789,-0.0525 0.16247,-0.10502 0.25104,-0.158 0.0883,-0.0525 0.18153,-0.10502 0.27948,-0.15761 0.0979,-0.0525 0.2003,-0.10502 0.30743,-0.158 0.10704,-0.0525 0.21848,-0.10502 0.3345,-0.15761 0.11584,-0.0525 0.23637,-0.10502 0.36078,-0.158 0.12463,-0.0525 0.25338,-0.10502 0.38608,-0.15762 0.13285,-0.0525 0.2698,-0.10502 0.41043,-0.15799 0.14076,-0.0525 0.28534,-0.10502 0.43373,-0.15801 0.1484,-0.0525 0.3004,-0.10503 0.45597,-0.15761 0.15544,-0.0525 0.31462,-0.10502 0.477,-0.15801 0.16247,-0.0525 0.32808,-0.10502 0.49685,-0.15761 0.16892,-0.0525 0.34072,-0.10502 0.51548,-0.158 0.17478,-0.0525 0.35244,-0.10502 0.53274,-0.15761 0.18036,-0.0525 0.3633,-0.10503 0.5487,-0.158 0.18534,-0.0525 0.37321,-0.10502 0.56321,-0.15762 0.19005,-0.0525 0.38222,-0.10502 0.57639,-0.15799 0.19415,-0.0525 0.39022,-0.10503 0.58803,-0.15761 0.19766,-0.0525 0.39726,-0.10502 0.5982,-0.15801 0.20089,-0.0525 0.4033,-0.10502 0.60686,-0.1576 0.20352,-0.0525 0.40834,-0.10502 0.61401,-0.15801 0.20558,-0.0525 0.4123,-0.10502 0.61958,-0.1576 0.20734,-0.0525 0.41524,-0.10502 0.62357,-0.15803 0.20852,-0.0525 0.41712,-0.10502 0.62601,-0.15758 0.2088,-0.0525 0.41793,-0.10502 0.62686,-0.15801 0.2088,-0.0525 0.41769,-0.10503 0.62611,-0.15762 0.20852,-0.0525 0.41641,-0.10502 0.62378,-0.158 0.20734,-0.0525 0.41406,-0.10502 0.61985,-0.15761 0.20587,-0.0525 0.41069,-0.10502 0.61442,-0.158 0.20382,-0.0525 0.40623,-0.10502 0.60735,-0.15801 0.20118,-0.0525 0.40081,-0.10502 0.59879,-0.1576 0.19795,-0.0525 0.39433,-0.10502 0.58871,-0.15801 0.19443,-0.0525 0.38684,-0.10502 0.57714,-0.1576 0.19033,-0.0525 0.3784,-0.10503 0.5641,-0.15801 0.18563,-0.0525 0.36898,-0.10503 0.54964,-0.15761 0.18065,-0.0525 0.35863,-0.10502 0.53377,-0.15801 0.17508,-0.0525 0.3474,-0.10502 0.51658,-0.1576 0.16922,-0.0525 0.33527,-0.10502 0.49806,-0.15801 0.16276,-0.0525 0.3223,-0.10502 0.47828,-0.15761 0.15602,-0.0525 0.30852,-0.10503 0.45732,-0.158 0.14869,-0.0525 0.29392,-0.10502 0.43518,-0.1576 0.14135,-0.0525 0.2786,-0.10503 0.41189,-0.15801 0.13344,-0.0525 0.26248,-0.10503 0.38767,-0.15761 0.12493,-0.0525 0.24576,-0.10502 0.36236,-0.15801 0.11642,-0.0525 0.22845,-0.10502 0.33617,-0.1576 0.10763,-0.0525 0.21056,-0.10502 0.30916,-0.15801 0.0985,-0.0525 0.19238,-0.10502 0.28124,-0.1576 0.0892,-0.0525 0.17332,-0.10502 0.25279,-0.15801 0.0795,-0.0525 0.15397,-0.10502 0.22377,-0.1576 0.0697,-0.0525 0.13431,-0.10502 0.19385,-0.15801 0.0595,-0.0525 0.11408,-0.10503 0.16364,-0.15761 0.0496,-0.0525 0.0938,-0.10502 0.13315,-0.15801 0.039,-0.0525 0.0733,-0.10502 0.10205,-0.15801 0.0293,-0.0525 0.0525,-0.10502 0.0707,-0.1576 0.0176,-0.0525 0.0317,-0.10502 0.0393,-0.158 0.009,-0.0525 0.0117,-0.10502 0.009,-0.15761 -0.003,-0.0525 -0.0117,-0.10502 -0.0234,-0.158 -0.0117,-0.0525 -0.0317,-0.10502 -0.0552,-0.15761 -0.0234,-0.0525 -0.0525,-0.10503 -0.0865,-0.15802 -0.034,-0.0525 -0.0733,-0.10502 -0.1176,-0.1576 -0.0443,-0.0525 -0.0938,-0.10502 -0.1484,-0.15801 -0.0545,-0.0525 -0.11407,-0.10502 -0.17889,-0.1576 -0.0648,-0.0525 -0.13431,-0.10502 -0.2088,-0.15801 -0.0745,-0.0525 -0.15396,-0.10502 -0.23842,-0.1576 -0.0842,-0.0525 -0.17332,-0.10502 -0.26717,-0.15801 -0.0938,-0.0525 -0.19239,-0.10502 -0.29532,-0.1576 -0.10294,-0.0525 -0.21057,-0.10503 -0.32277,-0.15801 -0.11202,-0.0525 -0.22845,-0.10503 -0.3494,-0.15761 -0.12082,-0.0525 -0.24575,-0.10502 -0.37511,-0.15801 -0.12933,-0.0525 -0.26247,-0.10502 -0.3999,-0.1576 -0.13724,-0.0525 -0.2786,-0.10502 -0.42368,-0.15801 -0.14517,-0.0525 -0.29394,-0.10502 -0.44638,-0.1576 -0.1525,-0.0525 -0.30852,-0.10502 -0.46793,-0.158 -0.15954,-0.0525 -0.3223,-0.10502 -0.48835,-0.15761 -0.16599,-0.0525 -0.33526,-0.10503 -0.50747,-0.1576 -0.17214,-0.0525 -0.3474,-0.10503 -0.52535,-0.15802 -0.17801,-0.0525 -0.35863,-0.10502 -0.5419,-0.1576 -0.18329,-0.0525 -0.36899,-0.10502 -0.55703,-0.15801 -0.18798,-0.0525 -0.3784,-0.10502 -0.57078,-0.1576 -0.19239,-0.0525 -0.38687,-0.10502 -0.58313,-0.15801 -0.19619,-0.0525 -0.39432,-0.10502 -0.59392,-0.1576 -0.19972,-0.0525 -0.40081,-0.10502 -0.60328,-0.15801 -0.20235,-0.0525 -0.40626,-0.10502 -0.61108,-0.1576 -0.2047,-0.0525 -0.41068,-0.10503 -0.61732,-0.15802 -0.20675,-0.0525 -0.41409,-0.10502 -0.62201,-0.15761 -0.20793,-0.0525 -0.41645,-0.10502 -0.62516,-0.158 -0.20881,-0.0525 -0.4177,-0.10502 -0.62668,-0.15761 -0.2091,-0.0525 -0.41793,-0.10502 -0.62663,-0.158 -0.2088,-0.0525 -0.41711,-0.10502 -0.62497,-0.15762 -0.20793,-0.0525 -0.41523,-0.10502 -0.62179,-0.15799 -0.20645,-0.0525 -0.41229,-0.10502 -0.61696,-0.15801 -0.2047,-0.0525 -0.40834,-0.10503 -0.61065,-0.15761 -0.20234,-0.0525 -0.40329,-0.10502 -0.60274,-0.15801 -0.19942,-0.0525 -0.39726,-0.10502 -0.59331,-0.1576 -0.1959,-0.0525 -0.39021,-0.10502 -0.58237,-0.15801 -0.19209,-0.0525 -0.38221,-0.10502 -0.56999,-0.15761 -0.18769,-0.0525 -0.37321,-0.10503 -0.55612,-0.158 -0.18299,-0.0525 -0.3633,-0.10502 -0.54089,-0.15762 -0.17772,-0.0525 -0.35242,-0.10502 -0.52428,-0.15799 -0.17185,-0.0525 -0.34068,-0.10503 -0.50632,-0.1576 -0.16569,-0.0525 -0.32804,-0.10503 -0.48709,-0.15802 -0.15895,-0.0525 -0.31461,-0.10502 -0.46664,-0.1576 -0.15191,-0.0525 -0.30039,-0.10502 -0.44497,-0.15801 -0.14458,-0.0525 -0.28535,-0.10502 -0.42221,-0.1576 -0.13696,-0.0525 -0.26981,-0.10502 -0.39841,-0.15801 -0.12874,-0.0525 -0.25338,-0.10502 -0.37353,-0.1576 -0.12024,-0.0525 -0.23608,-0.10502 -0.34776,-0.15801 -0.11144,-0.0525 -0.21848,-0.10503 -0.32106,-0.1576 -0.10264,-0.0525 -0.2003,-0.10503 -0.29359,-0.15802 -0.0933,-0.0525 -0.18183,-0.10502 -0.2654,-0.1576 -0.0836,-0.0525 -0.16247,-0.10502 -0.23637,-0.1576 -0.0739,-0.0525 -0.14283,-0.10502 -0.20705,-0.15802 -0.0639,-0.0525 -0.12288,-0.10502 -0.17684,-0.15759 -0.0539,-0.0525 -0.10265,-0.10502 -0.14634,-0.15803 -0.0437,-0.0525 -0.0824,-0.10502 -0.11555,-0.1576 -0.0334,-0.0525 -0.0616,-0.10502 -0.0845,-0.15799 -0.0234,-0.0525 -0.0407,-0.10503 -0.0531,-0.15762 -0.0117,-0.0525 -0.0205,-0.10502 -0.0205,-0.158 -0.002,-0.0525 7.8e-4,-0.10502 0.009,-0.15761 0.009,-0.0525 0.0234,-0.10502 0.0414,-0.158 0.0176,-0.0525 0.0434,-0.10502 0.0727,-0.15761 0.0296,-0.0525 0.0643,-0.10503 0.10411,-0.158 0.0399,-0.0525 0.0847,-0.10502 0.1349,-0.15762 0.0501,-0.0525 0.10529,-0.10502 0.16569,-0.15799 0.0601,-0.0525 0.12553,-0.10503 0.19562,-0.15762 0.0704,-0.0525 0.14545,-0.10502 0.22551,-0.158 0.0801,-0.0525 0.16482,-0.10502 0.25456,-0.1576 0.0897,-0.0525 0.18417,-0.10502 0.283,-0.15802 0.0991,-0.0525 0.20265,-0.10502 0.31086,-0.158 0.10822,-0.0525 0.22083,-0.10502 0.33784,-0.15761 0.11702,-0.0525 0.23843,-0.10503 0.36401,-0.158 0.12551,-0.0525 0.25544,-0.10502 0.38916,-0.15762 0.13373,-0.0525 0.27157,-0.10502 0.41342,-0.15799 0.14164,-0.0525 0.2874,-0.10503 0.43658,-0.15761 0.14928,-0.0525 0.30221,-0.10502 0.45864,-0.15801 0.15631,-0.0525 0.31638,-0.10502 0.47958,-0.1576 0.16306,-0.0525 0.32969,-0.10502 0.49925,-0.15801 0.16951,-0.0525 0.34219,-0.10502 0.51768,-0.1576 0.17537,-0.0525 0.35385,-0.10502 0.53483,-0.15803 0.18094,-0.0525 0.36458,-0.10502 0.55057,-0.15758 0.18593,-0.0525 0.37442,-0.10503 0.56495,-0.15801 0.19062,-0.0525 0.3833,-0.10503 0.57791,-0.15762 0.19473,-0.0525 0.39116,-0.10502 0.58937,-0.158 0.19826,-0.0525 0.39811,-0.10502 0.59938,-0.15761 0.20118,-0.0525 0.40401,-0.10502 0.60785,-0.1576 0.20382,-0.0525 0.40887,-0.10502 0.61477,-0.15801 0.20588,-0.0525 0.41275,-0.10503 0.62017,-0.15761 0.20734,-0.0525 0.41553,-0.10502 0.62398,-0.15801 0.20852,-0.0525 0.41726,-0.10502 0.62619,-0.1576 0.2091,-0.0525 0.41796,-0.10502 0.62685,-0.158 0.20881,-0.0525 0.41761,-0.10502 0.62589,-0.15761 0.20822,-0.0525 0.4162,-0.10502 0.62339,-0.158 0.20734,-0.0525 0.41372,-0.10502 0.61927,-0.15761 0.20557,-0.0525 0.41019,-0.10502 0.6136,-0.158 0.20352,-0.0525 0.40564,-0.10502 0.60638,-0.15762 0.20059,-0.0525 0.40005,-0.10502 0.59762,-0.15799 0.19766,-0.0525 0.39344,-0.10502 0.58735,-0.15762 0.19385,-0.0525 0.38585,-0.10502 0.57557,-0.15801 0.18973,-0.0525 0.37728,-0.10502 0.56236,-0.1576 0.18505,-0.0525 0.36775,-0.10502 0.54776,-0.15801 0.18007,-0.0525 0.35729,-0.10502 0.53169,-0.1576 0.1745,-0.0525 0.34594,-0.10502 0.51433,-0.15801 0.16833,-0.0525 0.33368,-0.10503 0.49565,-0.1576 0.16188,-0.0525 0.32062,-0.10503 0.47573,-0.15802 0.15514,-0.0525 0.30673,-0.10502 0.45463,-0.1576 0.1478,-0.0525 0.29209,-0.10502 0.4323,-0.15801 0.14018,-0.0525 0.27654,-0.10502 0.40896,-0.158 0.13226,-0.0525 0.26042,-0.10502 0.38453,-0.1576 0.12405,-0.0525 0.2437,-0.10502 0.35913,-0.15801 0.11526,-0.0525 0.2264,-0.10502 0.33286,-0.1576 0.10646,-0.0525 0.20851,-0.10502 0.3057,-0.15802 0.0974,-0.0525 0.19003,-0.10503 0.27772,-0.15761 0.088,-0.0525 0.17098,-0.10502 0.24928,-0.15801 0.0783,-0.0525 0.15161,-0.10502 0.21994,-0.1576 0.0684,-0.0525 0.13168,-0.10502 0.19004,-0.158 0.0584,-0.0525 0.11174,-0.10502 0.15983,-0.15761 0.0481,-0.0525 0.0912,-0.10502 0.12933,-0.158 0.0379,-0.0525 0.0707,-0.10502 0.0982,-0.15761 0.0264,-0.0525 0.0499,-0.10502 0.0669,-0.158 0.0176,-0.0525 0.0293,-0.10502 0.0355,-0.15762 0.006,-0.0525 0.009,-0.10502 0.003,-0.1576 -0.003,-0.0525 -0.0117,-0.10502 -0.0264,-0.15761 -0.0147,-0.0525 -0.034,-0.10502 -0.059,-0.158 -0.0234,-0.0525 -0.0552,-0.10502 -0.0903,-0.158 -0.0352,-0.0525 -0.0756,-0.10502 -0.12141,-0.15761 -0.0458,-0.0525 -0.0965,-0.10502 -0.1522,-0.158 -0.0557,-0.0525 -0.11672,-0.10502 -0.1827,-0.15761 -0.066,-0.0525 -0.13667,-0.10503 -0.21262,-0.15802 -0.0757,-0.0525 -0.15632,-0.10502 -0.24195,-0.1576 -0.0853,-0.0525 -0.17566,-0.10502 -0.27068,-0.15801 -0.095,-0.0525 -0.19473,-0.10502 -0.29881,-0.1576 -0.10411,-0.0525 -0.21291,-0.10502 -0.32614,-0.15801 -0.1132,-0.0525 -0.2308,-0.10502 -0.35265,-0.1576 -0.122,-0.0525 -0.2481,-0.10502 -0.37828,-0.15801 -0.13022,-0.0525 -0.26453,-0.10502 -0.40292,-0.1576 -0.13843,-0.0525 -0.28065,-0.10503 -0.42658,-0.15801 -0.14605,-0.0525 -0.2958,-0.10503 -0.44914,-0.15761 -0.15338,-0.0525 -0.31028,-0.10502 -0.47055,-0.15801 -0.16041,-0.0525 -0.32397,-0.10502 -0.49081,-0.1576 -0.16687,-0.0525 -0.33681,-0.10502 -0.50978,-0.15801 -0.17303,-0.0525 -0.34887,-0.10502 -0.52747,-0.1576 -0.1786,-0.0525 -0.36001,-0.10502 -0.54386,-0.15801 -0.18388,-0.0525 -0.37022,-0.10502 -0.55885,-0.1576 -0.18857,-0.0525 -0.37952,-0.10502 -0.57242,-0.15801 -0.19298,-0.0525 -0.38782,-0.10503 -0.58454,-0.15802 -0.19678,-0.0525 -0.39518,-0.10502 -0.59518,-0.1576 -0.20001,-0.0525 -0.40155,-0.10502 -0.60434,-0.15799 -0.20293,-0.0525 -0.40687,-0.10503 -0.61193,-0.15762 -0.20499,-0.0525 -0.41116,-0.10502 -0.618,-0.158 -0.20674,-0.0525 -0.41444,-0.10502 -0.62251,-0.15761 -0.20821,-0.0525 -0.41664,-0.10502 -0.62542,-0.158 -0.2088,-0.0525 -0.41778,-0.10502 -0.62676,-0.15761 -0.2091,-0.0525 -0.41787,-0.10503 -0.62651,-0.158 -0.20851,-0.0525 -0.41694,-0.10502 -0.62465,-0.15762 -0.20764,-0.0525 -0.41495,-0.10502 -0.62128,-0.15801 -0.20646,-0.0525 -0.41184,-0.10502 -0.61627,-0.1576 -0.20441,-0.0525 -0.40773,-0.10502 -0.60973,-0.1576 -0.20206,-0.0525 -0.4026,-0.10502 -0.60164,-0.15761 -0.19912,-0.0525 -0.39643,-0.10503 -0.59202,-0.158 -0.1956,-0.0525 -0.38927,-0.10502 -0.5809,-0.15762 -0.1915,-0.0525 -0.38115,-0.10502 -0.56834,-0.15799 -0.18711,-0.0525 -0.37201,-0.10503 -0.55431,-0.15802 -0.1824,-0.0525 -0.36197,-0.10502 -0.53887,-0.1576 -0.17684,-0.0525 -0.35101,-0.10502 -0.5221,-0.15801 -0.17097,-0.0525 -0.33917,-0.10502 -0.50398,-0.15761 -0.16482,-0.0525 -0.32644,-0.10503 -0.48462,-0.158 -0.15807,-0.0525 -0.31288,-0.10502 -0.46397,-0.15762 -0.15104,-0.0525 -0.29858,-0.10502 -0.44222,-0.15799 -0.1437,-0.0525 -0.28359,-0.10503 -0.41929,-0.1576 -0.13578,-0.0525 -0.26775,-0.10503 -0.39534,-0.15802 -0.12757,-0.0525 -0.25104,-0.10502 -0.37037,-0.1576 -0.11907,-0.0525 -0.23403,-0.10502 -0.34444,-0.15801 -0.11027,-0.0525 -0.21643,-0.10502 -0.31769,-0.1576 -0.10147,-0.0525 -0.19796,-0.10502 -0.29005,-0.15801 -0.0921,-0.0525 -0.17918,-0.10502 -0.26188,-0.1576 -0.0824,-0.0525 -0.16012,-0.10502 -0.23285,-0.15801 -0.0727,-0.0525 -0.14048,-0.10503 -0.20324,-0.1576 -0.0628,-0.0525 -0.12053,-0.10503 -0.17303,-0.15802 -0.0528,-0.0525 -0.10029,-0.10502 -0.14252,-0.1576 -0.0425,-0.0525 -0.0798,-0.10502 -0.11173,-0.15801 -0.032,-0.0525 -0.059,-0.10502 -0.0806,-0.15761 -0.0206,-0.0525 -0.0381,-0.10502 -0.0493,-0.158 -0.0117,-0.0525 -0.0176,-0.10502 -0.0176,-0.158 -6.7e-4,-0.0525 0.003,-0.10502 0.0147,-0.15761 0.009,-0.0525 0.0264,-0.10502 0.0452,-0.15801 0.0206,-0.0525 0.046,-0.10503 0.0768,-0.15761 0.0308,-0.0525 0.0669,-0.10502 0.10793,-0.15801 0.041,-0.0525 0.0874,-0.10502 0.13871,-0.1576 0.0513,-0.0525 0.10792,-0.10502 0.16951,-0.15801 0.0616,-0.0525 0.12815,-0.10502 0.19942,-0.1576 0.0715,-0.0525 0.1478,-0.10502 0.22904,-0.15801 0.0812,-0.0525 0.16746,-0.10502 0.25836,-0.1576 0.0909,-0.0525 0.18652,-0.10502 0.28653,-0.15801 0.10029,-0.0525 0.20499,-0.10503 0.31426,-0.15761 0.10939,-0.0525 0.22318,-0.10502 0.34116,-0.15801 0.11818,-0.0525 0.24047,-0.10502 0.36719,-0.1576 0.1267,-0.0525 0.25749,-0.10502 0.39225,-0.15801 0.1349,-0.0525 0.27362,-0.10502 0.41637,-0.1576 0.14253,-0.0525 0.28916,-0.10502 0.43941,-0.158 0.15015,-0.0525 0.30402,-0.10502 0.46133,-0.15761 0.15719,-0.0525 0.31805,-0.10502 0.48208,-0.15801 0.16393,-0.0525 0.3313,-0.10503 0.50162,-0.1576 0.17039,-0.0525 0.34371,-0.10503 0.51991,-0.15802 0.17625,-0.0525 0.35523,-0.10502 0.53685,-0.1576 0.18153,-0.0525 0.36587,-0.10502 0.55248,-0.15801 0.18652,-0.0525 0.37556,-0.10502 0.56664,-0.158 0.19122,-0.0525 0.38433,-0.10502 0.57942,-0.15761 0.19501,-0.0525 0.39209,-0.10502 0.59072,-0.158 0.19854,-0.0525 0.39887,-0.10502 0.60052,-0.15761 0.20147,-0.0525 0.40465,-0.10503 0.60879,-0.158 0.20411,-0.0525 0.40939,-0.10502 0.61554,-0.15762 0.20616,-0.0525 0.41312,-0.10502 0.62072,-0.15799 0.20763,-0.0525 0.41579,-0.10503 0.62434,-0.15762 0.20851,-0.0525 0.41743,-0.10502 0.62635,-0.15801 0.20881,-0.0525 0.41799,-0.10502 0.62682,-0.15759 0.20882,-0.0525 0.4175,-0.10502 0.62569,-0.15802 0.20822,-0.0525 0.41594,-0.10502 0.62295,-0.1576 0.20705,-0.0525 0.4133,-0.10502 0.61865,-0.15801 0.20528,-0.0525 0.40966,-0.10503 0.61278,-0.15761 0.20323,-0.0525 0.40497,-0.10502 0.60536,-0.15801 0.2003,-0.0525 0.39928,-0.10502 0.59641,-0.1576 0.19707,-0.0525 0.39254,-0.10502 0.58595,-0.158 0.19355,-0.0525 0.38482,-0.10502 0.57401,-0.15761 0.18915,-0.0525 0.37614,-0.10502 0.56063,-0.158 0.18446,-0.0525 0.3665,-0.10502 0.5458,-0.15761 0.17918,-0.0525 0.35591,-0.10502 0.52961,-0.158 0.17361,-0.0525 0.34444,-0.10502 0.51206,-0.15803 0.16775,-0.0525 0.3321,-0.10502 0.49325,-0.1576 0.161,-0.0525 0.3189,-0.10502 0.47315,-0.15799 0.15426,-0.0525 0.30491,-0.10503 0.45187,-0.15762 0.14693,-0.0525 0.29004,-0.10502 0.42946,-0.158 0.1393,-0.0525 0.27479,-0.10502 0.40594,-0.15761 0.13138,-0.0525 0.25836,-0.10502 0.38142,-0.158 0.12288,-0.0525 0.24165,-0.10502 0.35591,-0.15761 0.11437,-0.0525 0.22405,-0.10503 0.32948,-0.158 0.10528,-0.0525 0.20617,-0.10502 0.30227,-0.15762 0.0962,-0.0525 0.18769,-0.10502 0.2742,-0.15799 0.0868,-0.0525 0.16863,-0.10503 0.24546,-0.15762 0.0771,-0.0525 0.14898,-0.10502 0.21614,-0.158 0.0671,-0.0525 0.12933,-0.10502 0.18652,-0.1576 0.0572,-0.0525 0.10909,-0.10502 0.15601,-0.15802 0.047,-0.0525 0.0886,-0.10502 0.12523,-0.15759 0.0366,-0.0525 0.0681,-0.10502 0.0941,-0.15802 0.0264,-0.0525 0.0472,-0.10503 0.0631,-0.158 0.0147,-0.0525 0.0264,-0.10502 0.0317,-0.15762 0.006,-0.0525 0.006,-0.10502 0,-0.15799 -0.006,-0.0525 -0.0147,-0.10503 -0.0317,-0.15761 -0.0147,-0.0525 -0.0366,-0.10502 -0.0631,-0.15801 -0.0264,-0.0525 -0.0578,-0.10502 -0.0941,-0.1576 -0.0366,-0.0525 -0.0783,-0.10502 -0.12523,-0.15801 -0.0469,-0.0525 -0.0988,-0.10502 -0.15601,-0.1576 -0.0572,-0.0525 -0.11936,-0.10502 -0.18652,-0.15801 -0.0672,-0.0525 -0.1393,-0.10502 -0.21614,-0.1576 -0.0768,-0.0525 -0.15895,-0.10502 -0.24546,-0.15801 -0.0865,-0.0525 -0.17801,-0.10503 -0.2742,-0.15761 -0.0962,-0.0525 -0.19678,-0.10502 -0.30227,-0.15801 -0.10528,-0.0525 -0.21526,-0.10502 -0.32948,-0.15761 -0.11438,-0.0525 -0.23286,-0.10502 -0.35591,-0.158 -0.12288,-0.0525 -0.25016,-0.10502 -0.38142,-0.15761 -0.13139,-0.0525 -0.26658,-0.10503 -0.40594,-0.158 -0.1393,-0.0525 -0.28241,-0.10502 -0.42946,-0.15762 -0.14692,-0.0525 -0.29763,-0.10502 -0.45187,-0.15799 -0.15425,-0.0525 -0.31203,-0.10503 -0.47315,-0.15761 -0.161,-0.0525 -0.32564,-0.10502 -0.49325,-0.15761 -0.16774,-0.0525 -0.3384,-0.10502 -0.51206,-0.158 -0.17362,-0.0525 -0.35031,-0.10502 -0.52961,-0.15761 -0.17919,-0.0525 -0.36134,-0.10502 -0.5458,-0.158 -0.18446,-0.0525 -0.37145,-0.10502 -0.56063,-0.15761 -0.18916,-0.0525 -0.3806,-0.10503 -0.57401,-0.158 -0.19326,-0.0525 -0.38882,-0.10502 -0.58595,-0.15762 -0.19708,-0.0525 -0.39603,-0.10502 -0.59641,-0.15801 -0.20031,-0.0525 -0.40224,-0.10502 -0.60536,-0.1576 -0.20323,-0.0525 -0.40747,-0.10502 -0.61278,-0.15801 -0.20529,-0.0525 -0.41163,-0.10502 -0.61865,-0.1576 -0.20704,-0.0525 -0.41476,-0.10502 -0.62295,-0.15801 -0.20822,-0.0525 -0.41685,-0.10503 -0.62569,-0.1576 -0.2088,-0.0525 -0.41787,-0.10503 -0.62682,-0.15802 -0.20881,-0.0525 -0.41781,-0.10502 -0.62635,-0.1576 -0.20852,-0.0525 -0.41674,-0.10502 -0.62434,-0.15801 -0.20763,-0.0525 -0.41459,-0.10502 -0.62072,-0.1576 -0.20617,-0.0525 -0.41139,-0.10502 -0.61554,-0.158 -0.20411,-0.0525 -0.40717,-0.10502 -0.60879,-0.15801 -0.20177,-0.0525 -0.4019,-0.10502 -0.60052,-0.1576 -0.19854,-0.0525 -0.39562,-0.10502 -0.59072,-0.15802 -0.19503,-0.0525 -0.38832,-0.10503 -0.57942,-0.15759 -0.1912,-0.0525 -0.38006,-0.10502 -0.56664,-0.15803 -0.18651,-0.0525 -0.37084,-0.10502 -0.55248,-0.1576 -0.18153,-0.0525 -0.36063,-0.10502 -0.53685,-0.158 -0.17626,-0.0525 -0.34958,-0.10502 -0.51991,-0.15761 -0.17039,-0.0525 -0.33761,-0.10502 -0.50162,-0.158 -0.16394,-0.0525 -0.3248,-0.10502 -0.48208,-0.15761 -0.15748,-0.0525 -0.31115,-0.10502 -0.46133,-0.158 -0.15015,-0.0525 -0.29673,-0.10502 -0.43941,-0.15762 -0.14281,-0.0525 -0.28153,-0.10502 -0.41637,-0.15799 -0.1349,-0.0525 -0.2657,-0.10502 -0.39225,-0.15762 -0.12668,-0.0525 -0.24898,-0.10502 -0.36719,-0.158 -0.11819,-0.0525 -0.23198,-0.10502 -0.34116,-0.1576 -0.10939,-0.0525 -0.21408,-0.10502 -0.31426,-0.15801 -0.1003,-0.0525 -0.1959,-0.10502 -0.28653,-0.1576 -0.0909,-0.0525 -0.17683,-0.10502 -0.25836,-0.15802 -0.0812,-0.0525 -0.15778,-0.10503 -0.22904,-0.1576 -0.0715,-0.0525 -0.13813,-0.10503 -0.19942,-0.15802 -0.0616,-0.0525 -0.11789,-0.10502 -0.16951,-0.15799 -0.0513,-0.0525 -0.0977,-0.10503 -0.13871,-0.15761 -0.0411,-0.0525 -0.0771,-0.10502 -0.10793,-0.15801 -0.0308,-0.0525 -0.0563,-0.10502 -0.0768,-0.1576 -0.0206,-0.0525 -0.0355,-0.10502 -0.0452,-0.15801 -0.009,-0.0525 -0.0147,-0.10502 -0.0147,-0.1576 6.4e-4,-0.0525 0.006,-0.10502 0.0176,-0.15801 0.0117,-0.0525 0.0264,-0.10502 0.0493,-0.1576 0.0206,-0.0525 0.0486,-0.10502 0.0806,-0.15801 0.032,-0.0525 0.0695,-0.10503 0.11173,-0.1576 0.0425,-0.0525 0.09,-0.10503 0.14252,-0.15802 0.0525,-0.0525 0.11027,-0.10502 0.17303,-0.15761 0.0628,-0.0525 0.1305,-0.10502 0.20324,-0.158 0.0727,-0.0525 0.15044,-0.10502 0.23285,-0.15761 0.0824,-0.0525 0.1698,-0.10503 0.26188,-0.158 0.0921,-0.0525 0.18887,-0.10502 0.29005,-0.15762 0.10117,-0.0525 0.20733,-0.10502 0.31769,-0.15799 0.11026,-0.0525 0.22523,-0.10503 0.34444,-0.15762 0.11907,-0.0525 0.24282,-0.10502 0.37037,-0.158 0.12756,-0.0525 0.25953,-0.10502 0.39534,-0.1576 0.13579,-0.0525 0.27568,-0.10502 0.41929,-0.15801 0.1437,-0.0525 0.29121,-0.10502 0.44222,-0.15801 0.15102,-0.0525 0.30581,-0.10502 0.46397,-0.1576 0.15807,-0.0525 0.31978,-0.10502 0.48462,-0.15801 0.16481,-0.0525 0.33289,-0.10502 0.50398,-0.1576 0.17097,-0.0525 0.3452,-0.10502 0.5221,-0.15801 0.17684,-0.0525 0.35661,-0.10503 0.53887,-0.15761 0.18242,-0.0525 0.36714,-0.10502 0.55431,-0.15801 0.1871,-0.0525 0.37673,-0.10502 0.56834,-0.1576 0.19151,-0.0525 0.38533,-0.10502 0.5809,-0.15801 0.19562,-0.0525 0.39301,-0.10502 0.59202,-0.1576 0.19913,-0.0525 0.39966,-0.10502 0.60164,-0.158 0.20206,-0.0525 0.40532,-0.10502 0.60973,-0.15761 0.2044,-0.0525 0.40995,-0.10502 0.61627,-0.15801 0.20646,-0.0525 0.41353,-0.10503 0.62128,-0.15761 0.20763,-0.0525 0.41605,-0.10502 0.62465,-0.15801 0.20851,-0.0525 0.41756,-0.10502 0.62651,-0.1576 0.20909,-0.0525 0.41799,-0.10502 0.62676,-0.15801 0.20881,-0.0525 0.41735,-0.10502 0.62542,-0.158 0.20822,-0.0525 0.41567,-0.10502 0.62251,-0.15761 0.20676,-0.0525 0.41292,-0.10502 0.618,-0.158 0.205,-0.0525 0.40914,-0.10502 0.61193,-0.15761 0.20265,-0.0525 0.40433,-0.10503 0.60434,-0.158 0.2,-0.0525 0.39849,-0.10502 0.59518,-0.15762 0.19678,-0.0525 0.39163,-0.10502 0.58454,-0.15799 0.19297,-0.0525 0.38379,-0.10503 0.57242,-0.15762 0.18857,-0.0525 0.37497,-0.10502 0.55885,-0.15801 0.18388,-0.0525 0.3652,-0.10502 0.54386,-0.1576 0.1786,-0.0525 0.35453,-0.10502 0.52747,-0.15801 0.17302,-0.0525 0.34295,-0.10502 0.50978,-0.1576 0.16687,-0.0525 0.33051,-0.10503 0.49081,-0.15801 0.16042,-0.0525 0.3172,-0.10503 0.47055,-0.15761 0.15337,-0.0525 0.30311,-0.10502 0.44914,-0.15801 0.14604,-0.0525 0.28827,-0.10502 0.42658,-0.1576 0.13842,-0.0525 0.27273,-0.10502 0.40292,-0.15801 0.13021,-0.0525 0.25631,-0.10502 0.37828,-0.1576 0.12199,-0.0525 0.23959,-0.10502 0.35265,-0.158 0.1132,-0.0525 0.222,-0.10502 0.32614,-0.15761 0.10411,-0.0525 0.20382,-0.10502 0.29881,-0.158 0.095,-0.0525 0.18534,-0.10502 0.27068,-0.15762 0.0853,-0.0525 0.16628,-0.10502 0.24195,-0.15801 0.0756,-0.0525 0.14663,-0.10502 0.21262,-0.15801 0.066,-0.0525 0.12668,-0.10502 0.1827,-0.1576 0.056,-0.0525 0.10645,-0.10502 0.1522,-0.158 0.0458,-0.0525 0.0862,-0.10502 0.12141,-0.15761 0.0355,-0.0525 0.0654,-0.10502 0.0903,-0.158 0.0264,-0.0525 0.0446,-0.10502 0.059,-0.15761 0.0147,-0.0525 0.0234,-0.10503 0.0264,-0.158 0.003,-0.0525 0.002,-0.10502 -0.003,-0.15762 -0.006,-0.0525 -0.0176,-0.10502 -0.0355,-0.15799"
       style="opacity:1;fill:none;fill-opacity:1;fill-rule:evenodd;stroke:#d40000;stroke-width:2.66666675;stroke-linecap:butt;stroke-linejoin:round;stroke-miterlimit:4;stroke-dasharray:none;stroke-dashoffset:0;stroke-opacity:1"
       inkscape:connector-curvature="0"
       sodipodi:nodetypes="csssssssssssssssssssssssssssssssssssssssssssssssssssssssssssssssssssssssssssssssssssssssssssssssssssssssssssssssssssssssssssssssssssssssssssssssssssssssssssssssssssssssssssssssssssssssssssssssssssssssssssssssssssssssssssssssssssssssssssssssssssssssssssssssssssssssssssssssssssssssssssssssssssssssssssssssssssssssssssssssssssssssssssssssssssssssssssssssssssssssssssssssssssssssssssssssssssssssssssssssssssssssssssssssssssssssssssssssssssssssssssssssssssssssssssssssssssssssssssssssssssssssssssssssssssssssssssssssssssssssssssssssssssssssssssssssssssssssssssssssssssssssssssssssssssssssssssssssssssssssssssssssssssssssssssssssssc" />
    <path
       style="display:inline;fill:#d40000;fill-opacity:1;stroke:#d40000;stroke-width:4.19175482;stroke-miterlimit:4;stroke-dasharray:none;stroke-dashoffset:0;stroke-opacity:1;marker-start:url(#marker18155-3-2-4-9-5-7)"
       d="M 367.43933,198.47851 H 169.05694"
       id="path3453-3-5-2-7-3-7-7-0-5-9"
       inkscape:connector-curvature="0"
       sodipodi:nodetypes="cc" />
    <path
       style="fill:#666666;fill-opacity:1;stroke:#666666;stroke-width:4.2939167;stroke-miterlimit:4;stroke-dasharray:none;stroke-dashoffset:0;stroke-opacity:1"
       d="M 471.18982,132.6782 C 343.3362,261.42726 451.35516,151.29526 316.59149,287.27654"
       id="path3453-3-5-1-1-06-1-6"
       inkscape:connector-curvature="0"
       sodipodi:nodetypes="cc" />
    <path
       style="display:inline;fill:#d40000;fill-opacity:1;stroke:#d40000;stroke-width:4.19175482;stroke-miterlimit:4;stroke-dasharray:none;stroke-dashoffset:0;stroke-opacity:1"
       d="m 399.05668,204.47851 -31.61735,-6"
       id="path3453-3-5-2-7-3-7-7-0-5-9-0"
       inkscape:connector-curvature="0"
       sodipodi:nodetypes="cc"
       inkscape:transform-center-x="-7.25"
       inkscape:transform-center-y="-0.75" />
    <path
       style="display:inline;fill:#d40000;fill-opacity:1;stroke:#d40000;stroke-width:4.19175482;stroke-miterlimit:4;stroke-dasharray:none;stroke-dashoffset:0;stroke-opacity:1"
       d="m 393.05668,172.86116 6,31.61735"
       id="path3453-3-5-2-7-3-7-7-0-5-9-0-6"
       inkscape:connector-curvature="0"
       sodipodi:nodetypes="cc"
       inkscape:transform-center-x="-0.750005"
       inkscape:transform-center-y="-7.249995" />
    <path
       sodipodi:nodetypes="ccccc"
       id="path1090-2-3"
       d="m 393.05668,93.66974 -9.90839,-6.74281 9.90839,29.59982 9.90839,-29.59982 z"
       style="display:inline;fill:#d40000;fill-opacity:1;fill-rule:evenodd;stroke:#d40000;stroke-width:1.00000003pt;stroke-opacity:1;marker-start:none"
       inkscape:connector-curvature="0" />
    <path
       style="display:inline;fill:#d40000;fill-opacity:1;stroke:#d40000;stroke-width:4.19175482;stroke-miterlimit:4;stroke-dasharray:none;stroke-dashoffset:0;stroke-opacity:1;marker-start:url(#marker18155-3-2-4-9-5-7-2)"
       d="M 393.05668,-27.52122 V 172.86116"
       id="path3453-3-5-2-7-3-7-7-0-5-9-8"
       inkscape:connector-curvature="0"
       sodipodi:nodetypes="cc" />
    <path
       id="path1090-2-3-0"
       d="m 490.24809,204.47851 6.74281,-9.90839 -29.59982,9.90839 29.59982,9.90839 z"
       style="display:inline;fill:#d40000;fill-opacity:1;fill-rule:evenodd;stroke:#d40000;stroke-width:1.00000003pt;stroke-opacity:1;marker-start:none"
       inkscape:connector-curvature="0"
       sodipodi:nodetypes="ccccc" />
    <path
       style="display:inline;fill:#d40000;fill-opacity:1;stroke:#d40000;stroke-width:4.19175482;stroke-miterlimit:4;stroke-dasharray:none;stroke-dashoffset:0;stroke-opacity:1"
       d="M 530.16235,205.17782 399.05667,204.47851"
       id="path3453-3-5-2-7-3-7-7-0-5-9-8-2"
       inkscape:connector-curvature="0"
       sodipodi:nodetypes="cc" />
    <rect
       style="display:inline;opacity:1;fill:#c1d5e9;fill-opacity:1;fill-rule:evenodd;stroke:#3054a8;stroke-width:2.66666675;stroke-linecap:butt;stroke-linejoin:round;stroke-miterlimit:4;stroke-dasharray:none;stroke-dashoffset:0;stroke-opacity:1"
       id="rect3663-9-3"
       width="218.63506"
       height="24.702442"
       x="128.20914"
       y="523.91895"
       rx="8.1006201e-06"
       ry="7.3568503e-06"
       transform="rotate(-45)" />
    <path
       style="display:inline;fill:#d40000;fill-opacity:1;stroke:#d40000;stroke-width:4.19175482;stroke-miterlimit:4;stroke-dasharray:none;stroke-dashoffset:0;stroke-opacity:1"
       d="m 561.7797,211.17782 -31.61735,-6"
       id="path3453-3-5-2-7-3-7-7-0-5-9-0-7"
       inkscape:connector-curvature="0"
       sodipodi:nodetypes="cc"
       inkscape:transform-center-x="-7.25"
       inkscape:transform-center-y="-0.75" />
    <path
       style="display:inline;fill:#d40000;fill-opacity:1;stroke:#d40000;stroke-width:4.19175482;stroke-miterlimit:4;stroke-dasharray:none;stroke-dashoffset:0;stroke-opacity:1;marker-start:url(#marker18155-3-2-4-9-5-7-5)"
       d="M 652.16209,211.17782 H 561.7797"
       id="path3453-3-5-2-7-3-7-7-0-5-9-2"
       inkscape:connector-curvature="0"
       sodipodi:nodetypes="cc" />
    <path
       style="display:inline;fill:#d40000;fill-opacity:1;stroke:#d40000;stroke-width:4.19175482;stroke-miterlimit:4;stroke-dasharray:none;stroke-dashoffset:0;stroke-opacity:1;marker-start:url(#marker18155-3-2-4-9-5-7-28)"
       d="M 399.05668,378.79565 V 204.47851"
       id="path3453-3-5-2-7-3-7-7-0-5-9-3"
       inkscape:connector-curvature="0"
       sodipodi:nodetypes="cc" />
  </g>
</svg>
