<?xml version="1.0" encoding="UTF-8" standalone="no"?>
<!-- Created with Inkscape (http://www.inkscape.org/) -->

<svg
   xmlns:dc="http://purl.org/dc/elements/1.1/"
   xmlns:cc="http://creativecommons.org/ns#"
   xmlns:rdf="http://www.w3.org/1999/02/22-rdf-syntax-ns#"
   xmlns:svg="http://www.w3.org/2000/svg"
   xmlns="http://www.w3.org/2000/svg"
   xmlns:sodipodi="http://sodipodi.sourceforge.net/DTD/sodipodi-0.dtd"
   xmlns:inkscape="http://www.inkscape.org/namespaces/inkscape"
   version="1.1"
   id="svg2"
   xml:space="preserve"
   width="899.50928"
   height="428.31006"
   viewBox="0 0 899.50928 428.31005"
   sodipodi:docname="06_Young.svg"
   inkscape:version="0.92.5 (2060ec1f9f, 2020-04-08)"><metadata
     id="metadata8"><rdf:RDF><cc:Work
         rdf:about=""><dc:format>image/svg+xml</dc:format><dc:type
           rdf:resource="http://purl.org/dc/dcmitype/StillImage" /><dc:title></dc:title></cc:Work></rdf:RDF></metadata><defs
     id="defs6"><marker
       inkscape:isstock="true"
       style="overflow:visible"
       id="marker4545"
       refX="0"
       refY="0"
       orient="auto"
       inkscape:stockid="Arrow1Mstart"><path
         transform="matrix(0.4,0,0,0.4,4,0)"
         style="fill:#000000;fill-opacity:1;fill-rule:evenodd;stroke:#000000;stroke-width:1.00000003pt;stroke-opacity:1"
         d="M 0,0 5,-5 -12.5,0 5,5 Z"
         id="path4543"
         inkscape:connector-curvature="0" /></marker><marker
       inkscape:stockid="Arrow1Mstart"
       orient="auto"
       refY="0"
       refX="0"
       id="marker4487"
       style="overflow:visible"
       inkscape:isstock="true"
       inkscape:collect="always"><path
         id="path4485"
         d="M 0,0 5,-5 -12.5,0 5,5 Z"
         style="fill:#000000;fill-opacity:1;fill-rule:evenodd;stroke:#000000;stroke-width:1.00000003pt;stroke-opacity:1"
         transform="matrix(0.4,0,0,0.4,4,0)"
         inkscape:connector-curvature="0" /></marker><marker
       inkscape:stockid="Arrow1Sstart"
       orient="auto"
       refY="0"
       refX="0"
       id="Arrow1Sstart"
       style="overflow:visible"
       inkscape:isstock="true"><path
         id="path876"
         d="M 0,0 5,-5 -12.5,0 5,5 Z"
         style="fill:#000000;fill-opacity:1;fill-rule:evenodd;stroke:#000000;stroke-width:1.00000003pt;stroke-opacity:1"
         transform="matrix(0.2,0,0,0.2,1.2,0)"
         inkscape:connector-curvature="0" /></marker><marker
       inkscape:stockid="Arrow1Mstart"
       orient="auto"
       refY="0"
       refX="0"
       id="Arrow1Mstart"
       style="overflow:visible"
       inkscape:isstock="true"><path
         id="path870"
         d="M 0,0 5,-5 -12.5,0 5,5 Z"
         style="fill:#666666;fill-opacity:1;fill-rule:evenodd;stroke:#666666;stroke-width:1.00000003pt;stroke-opacity:1"
         transform="matrix(0.4,0,0,0.4,4,0)"
         inkscape:connector-curvature="0" /></marker><marker
       inkscape:stockid="Arrow1Lend"
       orient="auto"
       refY="0"
       refX="0"
       id="Arrow1Lend"
       style="overflow:visible"
       inkscape:isstock="true"><path
         id="path867"
         d="M 0,0 5,-5 -12.5,0 5,5 Z"
         style="fill:#666666;fill-opacity:1;fill-rule:evenodd;stroke:#666666;stroke-width:1.00000003pt;stroke-opacity:1"
         transform="matrix(-0.8,0,0,-0.8,-10,0)"
         inkscape:connector-curvature="0" /></marker><marker
       inkscape:stockid="Arrow1Sstart"
       orient="auto"
       refY="0"
       refX="0"
       id="Arrow1Sstart-3"
       style="overflow:visible"
       inkscape:isstock="true"><path
         inkscape:connector-curvature="0"
         id="path876-6"
         d="M 0,0 5,-5 -12.5,0 5,5 Z"
         style="fill:#000000;fill-opacity:1;fill-rule:evenodd;stroke:#000000;stroke-width:1.00000003pt;stroke-opacity:1"
         transform="matrix(0.2,0,0,0.2,1.2,0)" /></marker></defs><sodipodi:namedview
     pagecolor="#ffffff"
     bordercolor="#666666"
     borderopacity="1"
     objecttolerance="10"
     gridtolerance="10"
     guidetolerance="10"
     inkscape:pageopacity="0"
     inkscape:pageshadow="2"
     inkscape:window-width="1920"
     inkscape:window-height="999"
     id="namedview4"
     showgrid="false"
     inkscape:zoom="0.75596645"
     inkscape:cx="866.60846"
     inkscape:cy="123.13693"
     inkscape:window-x="0"
     inkscape:window-y="0"
     inkscape:window-maximized="1"
     inkscape:current-layer="g10"
     inkscape:snap-bbox="true"
     inkscape:snap-bbox-edge-midpoints="true"
     inkscape:bbox-nodes="true"
     showguides="false"
     fit-margin-top="0"
     fit-margin-left="0"
     fit-margin-right="0"
     fit-margin-bottom="0" /><g
     id="g10"
     inkscape:groupmode="layer"
     inkscape:label="06_Young"
     transform="matrix(1.3333333,0,0,1.3333333,0,45.381329)"><path
   d="M 657.094,27.223 360.426,101.578"
   style="fill:#000000;fill-opacity:1;fill-rule:nonzero;stroke:#000000;stroke-width:2.00000005;stroke-linecap:butt;stroke-linejoin:miter;stroke-miterlimit:4;stroke-dasharray:none;stroke-opacity:1"
   id="path16"
   inkscape:connector-curvature="0" /><path
   d="M 656.133,138.41 H 0"
   style="fill:none;stroke:#000000;stroke-width:2.6844101;stroke-linecap:butt;stroke-linejoin:miter;stroke-miterlimit:4;stroke-dasharray:16.106457, 5.368819;stroke-dashoffset:0;stroke-opacity:1"
   id="path20"
   inkscape:connector-curvature="0" /><path
   d="m 142.016,11.031 c 0.679,211.067 -0.922,31.629 0,254.324"
   style="fill:#666666;fill-opacity:1;fill-rule:nonzero;stroke:#666666;stroke-width:2.83464599;stroke-linecap:butt;stroke-linejoin:miter;stroke-miterlimit:4;stroke-dasharray:none;stroke-opacity:1"
   id="path24"
   inkscape:connector-curvature="0" /><path
   inkscape:connector-curvature="0"
   id="path26"
   style="fill:#ffffff;fill-opacity:1;fill-rule:evenodd;stroke:none"
   d="m 137.578,127.695 h 8.754 v 21.938 h -8.754 z" /><path
   d="m 33.394934,131.5276 c 2.39396,5.51535 2.464544,11.76199 0.191379,17.33181"
   style="fill:none;stroke:#d40000;stroke-width:2.31023622;stroke-linecap:butt;stroke-linejoin:round;stroke-miterlimit:4;stroke-dasharray:none;stroke-opacity:1"
   id="path30"
   inkscape:connector-curvature="0" /><path
   d="m 55.640521,121.30114 c 5.222643,11.65951 5.433335,24.95288 0.585702,36.78835"
   style="fill:none;stroke:#d40000;stroke-width:2.31023622;stroke-linecap:butt;stroke-linejoin:round;stroke-miterlimit:4;stroke-dasharray:none;stroke-opacity:1"
   id="path34"
   inkscape:connector-curvature="0" /><path
   d="m 78.222825,111.82441 c 7.703518,17.58548 7.956822,37.54673 0.70656,55.35093"
   style="fill:none;stroke:#d40000;stroke-width:2.31023622;stroke-linecap:butt;stroke-linejoin:round;stroke-miterlimit:4;stroke-dasharray:none;stroke-opacity:1"
   id="path38"
   inkscape:connector-curvature="0" /><path
   d="m 100.97225,102.74996 c 9.92682,23.20291 10.25379,49.39461 0.91803,72.87105"
   style="fill:none;stroke:#d40000;stroke-width:2.31023622;stroke-linecap:butt;stroke-linejoin:round;stroke-miterlimit:4;stroke-dasharray:none;stroke-opacity:1"
   id="path42"
   inkscape:connector-curvature="0" /><path
   d="m 123.55862,93.300456 c 12.56672,29.508114 12.77346,62.828714 0.57785,92.531284"
   style="fill:none;stroke:#d40000;stroke-width:2.31023622;stroke-linecap:butt;stroke-linejoin:round;stroke-miterlimit:4;stroke-dasharray:none;stroke-opacity:1"
   id="path46"
   inkscape:connector-curvature="0" /><path
   d="m 19.414351,137.08614 c 0.815554,1.93327 -0.08996,4.16403 -2.027384,4.9837 -1.938,0.8211 -4.171638,-0.0773 -4.988616,-2.01114 -0.820401,-1.93358 0.08611,-4.16476 2.023537,-4.98443 1.937,-0.82067 4.172062,0.0783 4.992463,2.01187 z"
   style="fill:#d40000;fill-opacity:1;fill-rule:evenodd;stroke:#d40000;stroke-width:2.8758769;stroke-linecap:butt;stroke-linejoin:round;stroke-miterlimit:4;stroke-dasharray:none;stroke-opacity:1"
   id="path50"
   inkscape:connector-curvature="0" /><path
   d="m 359.191,11.855 c 0.68,211.067 -0.921,31.629 0,254.329"
   style="fill:#666666;fill-opacity:1;fill-rule:nonzero;stroke:#666666;stroke-width:2.83464599;stroke-linecap:butt;stroke-linejoin:miter;stroke-miterlimit:4;stroke-dasharray:none;stroke-opacity:1"
   id="path54"
   inkscape:connector-curvature="0" /><path
   inkscape:connector-curvature="0"
   id="path56"
   style="fill:#ffffff;fill-opacity:1;fill-rule:evenodd;stroke:none"
   d="m 356.254,171.957 h 5.656 v 8.504 h -5.656 z" /><path
   d="M 334.387,176.305 V 101.23"
   style="fill:none;stroke:#000000;stroke-width:2.11464596;stroke-linecap:butt;stroke-linejoin:miter;stroke-miterlimit:4;stroke-dasharray:none;stroke-opacity:1"
   id="path60"
   inkscape:connector-curvature="0" /><path
   d="m 340.012,177.43281 h -11.25"
   style="fill:none;stroke:#000000;stroke-width:2.25562191;stroke-linecap:butt;stroke-linejoin:miter;stroke-miterlimit:4;stroke-dasharray:none;stroke-opacity:1"
   id="path64"
   inkscape:connector-curvature="0" /><path
   d="m 340.012,102.35781 h -11.25"
   style="fill:none;stroke:#000000;stroke-width:2.25562191;stroke-linecap:butt;stroke-linejoin:miter;stroke-miterlimit:4;stroke-dasharray:none;stroke-opacity:1"
   id="path68"
   inkscape:connector-curvature="0" /><path
   inkscape:connector-curvature="0"
   id="path70"
   style="fill:#ffffff;fill-opacity:1;fill-rule:evenodd;stroke:none"
   d="m 356.254,97.988 h 5.656 v 8.504 h -5.656 z" /><path
   d="m 368.949,86.023034 c 4.208,4.195662 6.571,9.890629 6.566,15.825006 -0.008,5.93338 -2.375,11.62436 -6.589,15.81204"
   style="fill:none;stroke:#d40000;stroke-width:2.31023598;stroke-linecap:butt;stroke-linejoin:round;stroke-miterlimit:4;stroke-dasharray:none;stroke-opacity:1"
   id="path74"
   inkscape:connector-curvature="0" /><path
   d="m 386.262,68.754585 c 8.808,8.788345 13.75,20.710967 13.734,33.140345 -0.016,12.42538 -4.988,24.33603 -13.824,33.10043"
   style="fill:none;stroke:#d40000;stroke-width:2.31023598;stroke-linecap:butt;stroke-linejoin:round;stroke-miterlimit:4;stroke-dasharray:none;stroke-opacity:1"
   id="path78"
   inkscape:connector-curvature="0" /><path
   d="m 403.574,51.485138 c 13.391,13.358085 20.914,31.48043 20.906,50.373872 -0.007,18.89445 -7.543,37.00781 -20.948,50.35991"
   style="fill:none;stroke:#d40000;stroke-width:2.31023598;stroke-linecap:butt;stroke-linejoin:round;stroke-miterlimit:4;stroke-dasharray:none;stroke-opacity:1"
   id="path82"
   inkscape:connector-curvature="0" /><path
   d="m 420.887,34.214693 c 37.242,37.152454 37.461,97.317207 0.492,134.737997"
   style="fill:none;stroke:#d40000;stroke-width:2.31023598;stroke-linecap:butt;stroke-linejoin:round;stroke-miterlimit:4;stroke-dasharray:none;stroke-opacity:1"
   id="path86"
   inkscape:connector-curvature="0" /><path
   d="m 438.199,16.945246 c 22.622,22.570385 35.305,53.195922 35.247,85.109284 -0.059,31.91835 -12.86,62.49601 -35.567,84.97761"
   style="fill:none;stroke:#d40000;stroke-width:2.31023598;stroke-linecap:butt;stroke-linejoin:round;stroke-miterlimit:4;stroke-dasharray:none;stroke-opacity:1"
   id="path90"
   inkscape:connector-curvature="0" /><path
   d="m 368.949,161.02423 c 4.207,4.19466 6.57,9.88963 6.567,15.82401 -0.008,5.93338 -2.375,11.62435 -6.591,15.81203"
   style="fill:none;stroke:#d40000;stroke-width:2.31023598;stroke-linecap:butt;stroke-linejoin:round;stroke-miterlimit:4;stroke-dasharray:none;stroke-opacity:1"
   id="path94"
   inkscape:connector-curvature="0" /><path
   d="m 386.262,143.75378 c 8.809,8.78935 13.75,20.71097 13.734,33.14034 -0.015,12.42638 -4.988,24.33604 -13.824,33.10244"
   style="fill:none;stroke:#d40000;stroke-width:2.31023598;stroke-linecap:butt;stroke-linejoin:round;stroke-miterlimit:4;stroke-dasharray:none;stroke-opacity:1"
   id="path98"
   inkscape:connector-curvature="0" /><path
   d="m 403.574,126.48434 c 13.391,13.36008 20.914,31.48043 20.907,50.37487 -0.008,18.89544 -7.543,37.00781 -20.95,50.35991"
   style="fill:none;stroke:#d40000;stroke-width:2.31023598;stroke-linecap:butt;stroke-linejoin:round;stroke-miterlimit:4;stroke-dasharray:none;stroke-opacity:1"
   id="path102"
   inkscape:connector-curvature="0" /><path
   d="m 420.886,109.21489 c 37.242,37.15245 37.462,97.31621 0.493,134.73899"
   style="fill:none;stroke:#d40000;stroke-width:2.31023598;stroke-linecap:butt;stroke-linejoin:round;stroke-miterlimit:4;stroke-dasharray:none;stroke-opacity:1"
   id="path106"
   inkscape:connector-curvature="0" /><path
   d="m 438.2,91.945441 c 22.62,22.570389 35.304,53.194929 35.245,85.109289 -0.058,31.91735 -12.859,62.497 -35.566,84.97661"
   style="fill:none;stroke:#d40000;stroke-width:2.31023598;stroke-linecap:butt;stroke-linejoin:round;stroke-miterlimit:4;stroke-dasharray:none;stroke-opacity:1"
   id="path110"
   inkscape:connector-curvature="0" /><path
   d="m 656.496,0.02 c 0,0.109 0,0.222 -0.008,0.332 -0.008,0.113 -0.019,0.222 -0.035,0.332 -0.015,0.113 -0.035,0.222 -0.062,0.336 -0.024,0.109 -0.055,0.222 -0.09,0.332 -0.031,0.109 -0.071,0.222 -0.117,0.332 -0.043,0.113 -0.09,0.222 -0.141,0.336 -0.055,0.109 -0.109,0.218 -0.172,0.332 -0.062,0.109 -0.129,0.222 -0.199,0.332 -0.07,0.113 -0.145,0.222 -0.223,0.332 -0.078,0.113 -0.164,0.222 -0.25,0.336 -0.086,0.109 -0.179,0.218 -0.277,0.332 -0.094,0.109 -0.195,0.222 -0.301,0.332 -0.101,0.113 -0.211,0.222 -0.324,0.332 -0.113,0.113 -0.231,0.222 -0.352,0.336 -0.121,0.109 -0.246,0.218 -0.375,0.332 -0.129,0.109 -0.261,0.222 -0.394,0.332 -0.137,0.113 -0.278,0.222 -0.422,0.332 -0.145,0.113 -0.293,0.222 -0.445,0.336 -0.149,0.109 -0.305,0.218 -0.465,0.332 -0.156,0.109 -0.317,0.222 -0.485,0.332 -0.164,0.113 -0.332,0.222 -0.504,0.332 -0.171,0.113 -0.347,0.222 -0.527,0.336 -0.176,0.109 -0.359,0.222 -0.543,0.332 -0.183,0.109 -0.371,0.222 -0.562,0.332 -0.192,0.113 -0.383,0.222 -0.578,0.332 -0.196,0.113 -0.395,0.222 -0.598,0.336 -0.199,0.109 -0.402,0.222 -0.609,0.332 -0.208,0.109 -0.418,0.222 -0.629,0.332 -0.211,0.113 -0.422,0.222 -0.637,0.336 -0.219,0.109 -0.434,0.218 -0.652,0.332 -0.223,0.109 -0.442,0.222 -0.668,0.332 -0.223,0.109 -0.446,0.222 -0.676,0.332 -0.227,0.113 -0.453,0.222 -0.684,0.336 -0.23,0.109 -0.461,0.218 -0.695,0.332 -0.235,0.109 -0.469,0.222 -0.703,0.332 -0.235,0.113 -0.473,0.222 -0.711,0.332 -0.235,0.113 -0.477,0.222 -0.715,0.336 -0.238,0.109 -0.48,0.218 -0.719,0.332 -0.242,0.109 -0.484,0.222 -0.726,0.332 -0.243,0.113 -0.485,0.222 -0.727,0.332 -0.246,0.113 -0.488,0.222 -0.73,0.336 -0.246,0.109 -0.489,0.219 -0.731,0.332 -0.246,0.109 -0.488,0.222 -0.73,0.332 -0.246,0.113 -0.489,0.222 -0.731,0.332 -0.242,0.113 -0.488,0.223 -0.726,0.336 -0.243,0.109 -0.485,0.219 -0.727,0.332 -0.242,0.109 -0.48,0.222 -0.719,0.332 -0.238,0.113 -0.476,0.223 -0.714,0.332 -0.239,0.113 -0.473,0.223 -0.708,0.336 -0.234,0.109 -0.468,0.222 -0.703,0.332 -0.23,0.109 -0.461,0.223 -0.691,0.332 -0.231,0.113 -0.457,0.223 -0.684,0.332 -0.226,0.113 -0.449,0.223 -0.672,0.336 -0.222,0.109 -0.445,0.223 -0.664,0.332 -0.218,0.109 -0.433,0.223 -0.648,0.332 -0.215,0.113 -0.426,0.223 -0.637,0.336 -0.211,0.109 -0.418,0.219 -0.621,0.332 -0.207,0.109 -0.41,0.223 -0.609,0.332 -0.199,0.109 -0.395,0.223 -0.59,0.332 -0.195,0.113 -0.387,0.223 -0.578,0.336 -0.188,0.109 -0.371,0.219 -0.555,0.332 -0.183,0.109 -0.363,0.223 -0.539,0.332 -0.18,0.113 -0.351,0.223 -0.523,0.332 -0.168,0.113 -0.336,0.223 -0.5,0.336 -0.164,0.109 -0.325,0.219 -0.481,0.332 -0.156,0.109 -0.308,0.223 -0.457,0.332 -0.152,0.113 -0.297,0.223 -0.437,0.332 -0.145,0.113 -0.282,0.223 -0.418,0.336 -0.133,0.109 -0.262,0.219 -0.391,0.332 -0.125,0.109 -0.25,0.223 -0.367,0.332 -0.121,0.113 -0.235,0.223 -0.344,0.332 -0.113,0.113 -0.219,0.223 -0.32,0.336 -0.106,0.109 -0.203,0.219 -0.297,0.332 -0.094,0.109 -0.184,0.223 -0.27,0.332 -0.086,0.113 -0.168,0.223 -0.242,0.332 -0.078,0.113 -0.148,0.223 -0.219,0.336 -0.066,0.109 -0.128,0.223 -0.191,0.332 -0.059,0.109 -0.113,0.223 -0.164,0.332 -0.047,0.113 -0.094,0.223 -0.137,0.332 -0.039,0.113 -0.078,0.223 -0.109,0.336 -0.031,0.109 -0.059,0.223 -0.082,0.332 -0.024,0.109 -0.043,0.223 -0.055,0.332 -0.012,0.113 -0.023,0.223 -0.031,0.336 -0.004,0.109 -0.004,0.219 0,0.332 0.008,0.109 0.012,0.223 0.031,0.332 0.012,0.11 0.031,0.223 0.055,0.332 0.023,0.113 0.051,0.223 0.082,0.336 0.031,0.109 0.07,0.219 0.109,0.332 0.043,0.11 0.086,0.223 0.137,0.332 0.051,0.113 0.105,0.223 0.164,0.332 0.063,0.113 0.125,0.223 0.191,0.336 0.071,0.11 0.141,0.219 0.219,0.332 0.078,0.11 0.156,0.223 0.242,0.332 0.086,0.113 0.176,0.223 0.27,0.332 0.094,0.114 0.191,0.223 0.297,0.336 0.101,0.11 0.207,0.219 0.32,0.332 0.109,0.11 0.223,0.223 0.344,0.332 0.117,0.114 0.242,0.223 0.367,0.332 0.125,0.114 0.258,0.223 0.391,0.336 0.136,0.11 0.273,0.219 0.418,0.332 0.14,0.11 0.285,0.223 0.437,0.332 0.149,0.114 0.301,0.223 0.457,0.332 0.156,0.114 0.317,0.223 0.481,0.336 0.164,0.11 0.332,0.223 0.5,0.332 0.172,0.11 0.343,0.223 0.523,0.332 0.176,0.114 0.356,0.223 0.539,0.332 0.184,0.114 0.367,0.223 0.555,0.336 0.191,0.11 0.383,0.223 0.578,0.332 0.191,0.11 0.391,0.223 0.59,0.332 0.199,0.114 0.402,0.223 0.609,0.336 0.203,0.11 0.41,0.219 0.621,0.332 0.211,0.11 0.422,0.223 0.637,0.332 0.215,0.11 0.43,0.223 0.648,0.332 0.219,0.114 0.442,0.223 0.664,0.336 0.223,0.11 0.446,0.219 0.672,0.332 0.227,0.11 0.453,0.223 0.684,0.332 0.23,0.114 0.461,0.223 0.691,0.332 0.235,0.114 0.465,0.223 0.703,0.336 0.235,0.11 0.469,0.219 0.708,0.332 0.238,0.11 0.476,0.223 0.714,0.332 0.239,0.114 0.481,0.223 0.719,0.332 0.242,0.114 0.484,0.223 0.727,0.336 0.238,0.11 0.484,0.219 0.726,0.332 0.242,0.11 0.485,0.223 0.731,0.332 0.242,0.114 0.484,0.223 0.73,0.332 0.242,0.114 0.485,0.223 0.731,0.336 0.242,0.11 0.484,0.219 0.73,0.332 0.242,0.11 0.484,0.223 0.727,0.332 0.242,0.114 0.484,0.223 0.726,0.332 0.239,0.114 0.481,0.223 0.719,0.336 0.242,0.11 0.48,0.223 0.715,0.332 0.238,0.11 0.476,0.223 0.711,0.332 0.234,0.114 0.468,0.223 0.703,0.332 0.234,0.114 0.465,0.223 0.695,0.336 0.231,0.11 0.457,0.223 0.684,0.332 0.23,0.11 0.453,0.223 0.676,0.332 0.226,0.114 0.445,0.223 0.668,0.336 0.218,0.11 0.433,0.219 0.652,0.332 0.215,0.11 0.426,0.223 0.637,0.332 0.211,0.11 0.421,0.223 0.629,0.333 0.207,0.113 0.41,0.222 0.609,0.335 0.203,0.11 0.402,0.219 0.598,0.332 0.195,0.11 0.386,0.223 0.578,0.333 0.191,0.113 0.379,0.222 0.562,0.332 0.184,0.113 0.367,0.222 0.543,0.335 0.18,0.11 0.356,0.219 0.527,0.333 0.172,0.109 0.34,0.222 0.504,0.332 0.168,0.113 0.329,0.222 0.485,0.332 0.16,0.113 0.316,0.222 0.465,0.336 0.152,0.109 0.3,0.218 0.445,0.332 0.144,0.109 0.285,0.222 0.422,0.332 0.133,0.113 0.265,0.222 0.394,0.332 0.129,0.113 0.254,0.222 0.375,0.336 0.121,0.109 0.239,0.218 0.352,0.332 0.113,0.109 0.223,0.222 0.324,0.332 0.106,0.113 0.207,0.222 0.301,0.332 0.098,0.113 0.191,0.222 0.277,0.336 0.09,0.109 0.172,0.222 0.25,0.332 0.078,0.109 0.153,0.222 0.223,0.332 0.07,0.113 0.137,0.222 0.199,0.332 0.063,0.113 0.117,0.222 0.172,0.336 0.051,0.109 0.098,0.222 0.141,0.332 0.046,0.109 0.086,0.222 0.117,0.332 0.035,0.113 0.066,0.222 0.09,0.336 0.027,0.109 0.047,0.218 0.062,0.332 0.016,0.109 0.027,0.222 0.035,0.332 0.008,0.109 0.008,0.222 0.008,0.332 -0.004,0.113 -0.008,0.222 -0.023,0.336 -0.012,0.109 -0.028,0.218 -0.047,0.332 -0.024,0.109 -0.047,0.222 -0.078,0.332 -0.028,0.113 -0.063,0.222 -0.102,0.332 -0.039,0.113 -0.082,0.222 -0.129,0.336 -0.051,0.109 -0.101,0.218 -0.16,0.332 -0.055,0.109 -0.117,0.222 -0.184,0.332 -0.066,0.113 -0.136,0.222 -0.211,0.332 -0.074,0.113 -0.152,0.222 -0.234,0.336 -0.086,0.109 -0.172,0.218 -0.266,0.332 -0.089,0.109 -0.187,0.222 -0.285,0.332 -0.101,0.113 -0.207,0.222 -0.316,0.332 -0.109,0.113 -0.223,0.222 -0.336,0.336 -0.117,0.109 -0.238,0.219 -0.363,0.332 -0.125,0.109 -0.254,0.222 -0.387,0.332 -0.133,0.113 -0.27,0.222 -0.41,0.332 -0.141,0.113 -0.285,0.223 -0.43,0.336 -0.148,0.109 -0.301,0.222 -0.457,0.332 -0.152,0.109 -0.312,0.222 -0.473,0.332 -0.164,0.113 -0.328,0.223 -0.496,0.332 -0.168,0.113 -0.339,0.223 -0.515,0.336 -0.176,0.109 -0.356,0.222 -0.535,0.332 -0.18,0.109 -0.368,0.223 -0.555,0.332 -0.188,0.113 -0.375,0.223 -0.57,0.336 -0.192,0.109 -0.387,0.219 -0.586,0.332 -0.2,0.109 -0.403,0.223 -0.606,0.332 -0.203,0.109 -0.41,0.223 -0.617,0.332 -0.211,0.113 -0.422,0.223 -0.633,0.336 -0.215,0.109 -0.43,0.219 -0.648,0.332 -0.215,0.109 -0.438,0.223 -0.656,0.332 -0.223,0.113 -0.446,0.223 -0.672,0.332 -0.227,0.113 -0.454,0.223 -0.68,0.336 -0.231,0.109 -0.461,0.219 -0.691,0.332 -0.231,0.109 -0.465,0.223 -0.7,0.332 -0.234,0.113 -0.468,0.223 -0.707,0.332 -0.234,0.113 -0.472,0.223 -0.711,0.336 -0.238,0.109 -0.48,0.219 -0.718,0.332 -0.243,0.109 -0.481,0.223 -0.723,0.332 -0.242,0.113 -0.484,0.223 -0.727,0.332 -0.242,0.113 -0.488,0.223 -0.73,0.336 -0.242,0.109 -0.488,0.219 -0.731,0.332 -0.242,0.109 -0.488,0.223 -0.73,0.332 -0.246,0.113 -0.488,0.223 -0.73,0.332 -0.243,0.113 -0.489,0.223 -0.731,0.336 -0.242,0.109 -0.484,0.223 -0.723,0.332 -0.242,0.109 -0.484,0.223 -0.722,0.332 -0.242,0.113 -0.481,0.223 -0.719,0.332 -0.238,0.113 -0.477,0.223 -0.711,0.336 -0.238,0.109 -0.473,0.223 -0.707,0.332 -0.23,0.109 -0.465,0.223 -0.695,0.332 -0.231,0.113 -0.461,0.223 -0.688,0.336 -0.226,0.109 -0.453,0.219 -0.68,0.332 -0.222,0.109 -0.445,0.223 -0.667,0.332 -0.219,0.109 -0.438,0.223 -0.653,0.332 -0.219,0.113 -0.433,0.223 -0.644,0.336 -0.211,0.109 -0.422,0.219 -0.629,0.332 -0.207,0.109 -0.414,0.223 -0.617,0.332 -0.204,0.113 -0.403,0.223 -0.598,0.332 -0.199,0.113 -0.395,0.223 -0.586,0.336 -0.191,0.109 -0.379,0.219 -0.566,0.332 -0.184,0.109 -0.368,0.223 -0.547,0.332 -0.18,0.113 -0.356,0.223 -0.532,0.332 -0.171,0.113 -0.343,0.223 -0.511,0.336 -0.164,0.109 -0.328,0.219 -0.489,0.332 -0.16,0.109 -0.316,0.223 -0.468,0.332 -0.157,0.113 -0.305,0.223 -0.45,0.332 -0.148,0.113 -0.289,0.223 -0.425,0.336 -0.141,0.109 -0.274,0.219 -0.407,0.332 -0.128,0.11 -0.257,0.223 -0.378,0.332 -0.125,0.113 -0.243,0.223 -0.356,0.332 -0.117,0.113 -0.227,0.223 -0.332,0.336 -0.109,0.11 -0.211,0.223 -0.309,0.332 -0.097,0.11 -0.191,0.223 -0.281,0.332 -0.09,0.113 -0.176,0.223 -0.258,0.332 -0.082,0.114 -0.156,0.223 -0.23,0.336 -0.07,0.11 -0.141,0.223 -0.203,0.332 -0.063,0.11 -0.125,0.223 -0.18,0.332 -0.055,0.114 -0.105,0.223 -0.148,0.336 -0.047,0.11 -0.086,0.219 -0.125,0.332 -0.035,0.11 -0.067,0.223 -0.094,0.332 -0.031,0.11 -0.051,0.223 -0.07,0.332 -0.02,0.114 -0.032,0.223 -0.043,0.336 -0.008,0.11 -0.012,0.219 -0.012,0.332 0,0.11 0.008,0.223 0.012,0.332 0.011,0.114 0.023,0.223 0.043,0.332 0.019,0.114 0.043,0.223 0.07,0.336 0.027,0.11 0.059,0.219 0.094,0.332 0.039,0.11 0.078,0.223 0.125,0.332 0.043,0.114 0.093,0.223 0.148,0.332 0.055,0.114 0.113,0.223 0.18,0.336 0.062,0.11 0.129,0.219 0.203,0.332 0.074,0.11 0.148,0.223 0.23,0.332 0.082,0.114 0.168,0.223 0.258,0.332 0.09,0.114 0.184,0.223 0.281,0.336 0.098,0.11 0.2,0.219 0.309,0.332 0.105,0.11 0.215,0.223 0.332,0.332 0.113,0.114 0.234,0.223 0.356,0.332 0.121,0.114 0.25,0.223 0.378,0.336 0.133,0.11 0.266,0.223 0.407,0.332 0.136,0.11 0.277,0.223 0.425,0.332 0.145,0.114 0.293,0.223 0.45,0.332 0.152,0.114 0.308,0.223 0.468,0.336 0.161,0.11 0.325,0.223 0.489,0.332 0.168,0.11 0.34,0.223 0.511,0.332 0.176,0.114 0.352,0.223 0.532,0.336 0.179,0.11 0.363,0.219 0.547,0.332 0.187,0.11 0.375,0.223 0.566,0.332 0.191,0.11 0.387,0.223 0.586,0.332 0.195,0.114 0.394,0.223 0.598,0.336 0.203,0.11 0.41,0.219 0.617,0.332 0.207,0.11 0.418,0.223 0.629,0.332 0.211,0.114 0.425,0.223 0.644,0.333 0.215,0.113 0.434,0.222 0.653,0.335 0.222,0.11 0.445,0.219 0.667,0.332 0.227,0.11 0.454,0.223 0.68,0.333 0.227,0.113 0.457,0.222 0.688,0.332 0.23,0.113 0.465,0.222 0.695,0.335 0.234,0.11 0.469,0.219 0.707,0.333 0.234,0.109 0.473,0.222 0.711,0.332 0.238,0.113 0.477,0.222 0.719,0.332 0.238,0.113 0.48,0.222 0.722,0.336 0.239,0.109 0.481,0.218 0.723,0.332 0.242,0.109 0.488,0.222 0.731,0.332 0.242,0.113 0.484,0.222 0.73,0.332 0.242,0.113 0.488,0.222 0.73,0.336 0.243,0.109 0.489,0.222 0.731,0.332 0.242,0.109 0.484,0.222 0.73,0.332 0.243,0.113 0.485,0.222 0.727,0.332 0.242,0.113 0.48,0.222 0.723,0.336 0.238,0.109 0.48,0.222 0.718,0.332 0.239,0.109 0.477,0.222 0.711,0.332 0.239,0.113 0.473,0.222 0.707,0.336 0.235,0.109 0.469,0.218 0.7,0.332 0.23,0.109 0.46,0.222 0.691,0.332 0.226,0.109 0.453,0.222 0.68,0.332 0.226,0.113 0.449,0.222 0.672,0.336 0.218,0.109 0.441,0.218 0.656,0.332 0.218,0.109 0.433,0.222 0.648,0.332 0.211,0.113 0.422,0.222 0.633,0.332 0.207,0.113 0.414,0.222 0.617,0.336 0.203,0.109 0.406,0.218 0.606,0.332 0.199,0.109 0.394,0.222 0.586,0.332 0.195,0.113 0.382,0.222 0.57,0.332 0.187,0.113 0.375,0.222 0.555,0.336 0.179,0.109 0.359,0.218 0.535,0.332 0.176,0.109 0.347,0.222 0.515,0.332 0.168,0.113 0.332,0.222 0.496,0.332 0.161,0.113 0.321,0.222 0.473,0.336 0.156,0.109 0.309,0.218 0.457,0.332 0.145,0.109 0.289,0.222 0.43,0.332 0.14,0.113 0.277,0.222 0.41,0.332 0.133,0.113 0.262,0.222 0.387,0.336 0.125,0.109 0.246,0.222 0.363,0.332 0.117,0.109 0.227,0.222 0.336,0.332 0.109,0.113 0.215,0.222 0.316,0.332 0.098,0.113 0.196,0.222 0.285,0.336 0.094,0.109 0.18,0.222 0.266,0.332 0.082,0.109 0.16,0.222 0.234,0.332 0.079,0.113 0.145,0.222 0.211,0.336 0.067,0.109 0.129,0.218 0.184,0.332 0.059,0.109 0.109,0.222 0.16,0.332 0.047,0.109 0.09,0.222 0.129,0.332 0.039,0.113 0.074,0.222 0.102,0.336 0.031,0.109 0.058,0.219 0.078,0.332 0.023,0.109 0.035,0.222 0.047,0.332 0.011,0.113 0.019,0.222 0.023,0.332 0,0.113 0,0.223 -0.008,0.336 -0.008,0.109 -0.019,0.219 -0.035,0.332 -0.015,0.109 -0.035,0.222 -0.062,0.332 -0.024,0.113 -0.055,0.223 -0.09,0.332 -0.031,0.113 -0.071,0.223 -0.117,0.336 -0.043,0.109 -0.09,0.219 -0.141,0.332 -0.055,0.109 -0.109,0.223 -0.172,0.332 -0.062,0.113 -0.129,0.223 -0.199,0.332 -0.07,0.113 -0.145,0.223 -0.223,0.336 -0.078,0.109 -0.164,0.219 -0.25,0.332 -0.086,0.109 -0.179,0.223 -0.277,0.332 -0.094,0.113 -0.195,0.223 -0.301,0.332 -0.101,0.113 -0.211,0.223 -0.324,0.336 -0.113,0.109 -0.231,0.223 -0.352,0.332 -0.121,0.109 -0.246,0.223 -0.375,0.332 -0.129,0.113 -0.261,0.223 -0.394,0.332 -0.137,0.113 -0.278,0.223 -0.422,0.336 -0.145,0.109 -0.293,0.223 -0.445,0.332 -0.149,0.109 -0.305,0.223 -0.465,0.332 -0.156,0.113 -0.317,0.223 -0.485,0.336 -0.164,0.109 -0.332,0.219 -0.504,0.332 -0.171,0.109 -0.347,0.223 -0.527,0.332 -0.176,0.109 -0.359,0.223 -0.543,0.332 -0.183,0.113 -0.371,0.223 -0.562,0.336 -0.192,0.109 -0.383,0.219 -0.578,0.332 -0.196,0.109 -0.395,0.223 -0.598,0.332 -0.199,0.113 -0.402,0.223 -0.609,0.332 -0.208,0.113 -0.418,0.223 -0.629,0.336 -0.211,0.109 -0.422,0.219 -0.637,0.332 -0.219,0.109 -0.434,0.223 -0.652,0.332 -0.223,0.113 -0.442,0.223 -0.668,0.332 -0.223,0.113 -0.446,0.223 -0.676,0.336 -0.227,0.109 -0.453,0.219 -0.684,0.332 -0.23,0.109 -0.461,0.223 -0.695,0.332 -0.235,0.113 -0.469,0.223 -0.703,0.332 -0.235,0.113 -0.473,0.223 -0.711,0.336 -0.235,0.109 -0.477,0.223 -0.715,0.332 -0.238,0.109 -0.48,0.223 -0.719,0.332 -0.242,0.113 -0.484,0.223 -0.726,0.332 -0.243,0.113 -0.485,0.223 -0.727,0.336 -0.246,0.109 -0.488,0.223 -0.73,0.332 -0.246,0.11 -0.489,0.223 -0.731,0.332 -0.246,0.113 -0.488,0.223 -0.73,0.332 -0.246,0.113 -0.489,0.223 -0.731,0.336 -0.242,0.11 -0.488,0.223 -0.726,0.332 -0.243,0.11 -0.485,0.223 -0.727,0.332 -0.242,0.113 -0.48,0.223 -0.719,0.336 -0.238,0.11 -0.476,0.219 -0.714,0.332 -0.239,0.11 -0.473,0.223 -0.708,0.332 -0.234,0.11 -0.468,0.223 -0.703,0.332 -0.23,0.114 -0.461,0.223 -0.691,0.336 -0.231,0.11 -0.457,0.219 -0.684,0.332 -0.226,0.11 -0.449,0.223 -0.672,0.332 -0.222,0.114 -0.445,0.223 -0.664,0.332 -0.218,0.114 -0.433,0.223 -0.648,0.336 -0.215,0.11 -0.426,0.219 -0.637,0.332 -0.211,0.11 -0.418,0.223 -0.621,0.332 -0.207,0.114 -0.41,0.223 -0.609,0.332 -0.199,0.114 -0.395,0.223 -0.59,0.336 -0.195,0.11 -0.387,0.219 -0.578,0.332 -0.188,0.11 -0.371,0.223 -0.555,0.332 -0.183,0.114 -0.363,0.223 -0.539,0.332 -0.18,0.114 -0.351,0.223 -0.523,0.336 -0.168,0.11 -0.336,0.223 -0.5,0.332 -0.164,0.11 -0.325,0.223 -0.481,0.332 -0.156,0.114 -0.308,0.223 -0.457,0.332 -0.152,0.114 -0.297,0.223 -0.437,0.336 -0.145,0.11 -0.282,0.223 -0.418,0.332 -0.133,0.11 -0.262,0.223 -0.391,0.332 -0.125,0.114 -0.25,0.223 -0.367,0.332 -0.121,0.114 -0.235,0.223 -0.344,0.336 -0.113,0.11 -0.219,0.223 -0.32,0.332 -0.106,0.11 -0.203,0.223 -0.297,0.332 -0.094,0.114 -0.184,0.223 -0.27,0.336 -0.086,0.11 -0.168,0.219 -0.242,0.332 -0.078,0.11 -0.148,0.223 -0.219,0.332 -0.066,0.11 -0.128,0.223 -0.191,0.332 -0.059,0.114 -0.113,0.223 -0.164,0.336 -0.047,0.11 -0.094,0.219 -0.137,0.332 -0.039,0.11 -0.078,0.223 -0.109,0.332 -0.031,0.114 -0.059,0.223 -0.082,0.332 -0.024,0.114 -0.043,0.223 -0.055,0.336 -0.012,0.11 -0.023,0.219 -0.031,0.332 -0.004,0.11 -0.004,0.223 0,0.332 0.008,0.114 0.012,0.223 0.031,0.332 0.012,0.114 0.031,0.223 0.055,0.336 0.023,0.11 0.051,0.219 0.082,0.332 0.031,0.11 0.07,0.223 0.109,0.332 0.043,0.114 0.086,0.223 0.137,0.332 0.051,0.114 0.105,0.223 0.164,0.336 0.063,0.11 0.125,0.223 0.191,0.332 0.071,0.11 0.141,0.223 0.219,0.332 0.078,0.114 0.156,0.223 0.242,0.333 0.086,0.113 0.176,0.222 0.27,0.335 0.094,0.11 0.191,0.223 0.297,0.332 0.101,0.11 0.207,0.223 0.32,0.333 0.109,0.113 0.223,0.222 0.344,0.335 0.117,0.11 0.242,0.219 0.367,0.332 0.125,0.11 0.258,0.223 0.391,0.333 0.136,0.109 0.273,0.222 0.418,0.332 0.14,0.113 0.285,0.222 0.437,0.335 0.149,0.11 0.301,0.219 0.457,0.333 0.156,0.109 0.317,0.222 0.481,0.332 0.164,0.113 0.332,0.222 0.5,0.332 0.172,0.113 0.343,0.222 0.523,0.336 0.176,0.109 0.356,0.218 0.539,0.332 0.184,0.109 0.367,0.222 0.555,0.332 0.191,0.113 0.383,0.222 0.578,0.332 0.191,0.113 0.391,0.222 0.59,0.336 0.199,0.109 0.402,0.218 0.609,0.332 0.203,0.109 0.41,0.222 0.621,0.332 0.211,0.113 0.422,0.222 0.637,0.332 0.215,0.113 0.43,0.222 0.648,0.336 0.219,0.109 0.442,0.218 0.664,0.332 0.223,0.109 0.446,0.222 0.672,0.332 0.227,0.113 0.453,0.222 0.684,0.332 0.23,0.113 0.461,0.222 0.691,0.336 0.235,0.109 0.465,0.222 0.703,0.332 0.235,0.109 0.469,0.222 0.708,0.332 0.238,0.113 0.476,0.222 0.714,0.332 0.239,0.113 0.481,0.222 0.719,0.336 0.242,0.109 0.484,0.222 0.727,0.332 0.238,0.109 0.484,0.222 0.726,0.332 0.242,0.113 0.485,0.222 0.731,0.336 0.242,0.109 0.484,0.218 0.73,0.332 0.242,0.109 0.485,0.222 0.731,0.332 0.242,0.109 0.484,0.222 0.73,0.332 0.242,0.113 0.484,0.222 0.727,0.336 0.242,0.109 0.484,0.218 0.726,0.332 0.239,0.109 0.481,0.222 0.719,0.332 0.242,0.113 0.48,0.222 0.715,0.332 0.238,0.113 0.476,0.222 0.711,0.336 0.234,0.109 0.468,0.218 0.703,0.332 0.234,0.109 0.465,0.222 0.695,0.332 0.231,0.113 0.457,0.222 0.684,0.332 0.23,0.113 0.453,0.222 0.676,0.336 0.226,0.109 0.445,0.219 0.668,0.332 0.218,0.109 0.433,0.222 0.652,0.332 0.215,0.113 0.426,0.222 0.637,0.332 0.211,0.113 0.421,0.223 0.629,0.336 0.207,0.109 0.41,0.219 0.609,0.332 0.203,0.109 0.402,0.222 0.598,0.332 0.195,0.113 0.386,0.223 0.578,0.332 0.191,0.113 0.379,0.223 0.562,0.336 0.184,0.109 0.367,0.222 0.543,0.332 0.18,0.109 0.356,0.223 0.527,0.332 0.172,0.113 0.34,0.223 0.504,0.332 0.168,0.113 0.329,0.223 0.485,0.336 0.16,0.109 0.316,0.223 0.465,0.332 0.152,0.109 0.3,0.223 0.445,0.332 0.144,0.113 0.285,0.223 0.422,0.336 0.133,0.109 0.265,0.219 0.394,0.332 0.129,0.109 0.254,0.223 0.375,0.332 0.121,0.109 0.239,0.223 0.352,0.332 0.113,0.113 0.223,0.223 0.324,0.336 0.106,0.109 0.207,0.219 0.301,0.332 0.098,0.109 0.191,0.223 0.277,0.332 0.09,0.113 0.172,0.223 0.25,0.332 0.078,0.113 0.153,0.223 0.223,0.336 0.07,0.109 0.137,0.219 0.199,0.332 0.063,0.109 0.117,0.223 0.172,0.332 0.051,0.113 0.098,0.223 0.141,0.332 0.046,0.113 0.086,0.223 0.117,0.336 0.035,0.109 0.066,0.219 0.09,0.332 0.027,0.109 0.047,0.223 0.062,0.332 0.016,0.113 0.027,0.223 0.035,0.332 0.008,0.113 0.008,0.223 0.008,0.336 -0.004,0.109 -0.008,0.219 -0.023,0.332 -0.012,0.109 -0.028,0.223 -0.047,0.332 -0.024,0.113 -0.047,0.223 -0.078,0.332 -0.028,0.113 -0.063,0.223 -0.102,0.336 -0.039,0.109 -0.082,0.223 -0.129,0.332 -0.051,0.109 -0.101,0.223 -0.16,0.332 -0.055,0.113 -0.117,0.223 -0.184,0.332 -0.066,0.113 -0.136,0.223 -0.211,0.336 -0.074,0.109 -0.152,0.223 -0.234,0.332 -0.086,0.109 -0.172,0.223 -0.266,0.332 -0.089,0.113 -0.187,0.223 -0.285,0.336 -0.101,0.109 -0.207,0.219 -0.316,0.332 -0.109,0.109 -0.223,0.223 -0.336,0.332 -0.117,0.109 -0.238,0.223 -0.363,0.332 -0.125,0.113 -0.254,0.223 -0.387,0.336 -0.133,0.109 -0.27,0.219 -0.41,0.332 -0.141,0.109 -0.285,0.223 -0.43,0.332 -0.148,0.113 -0.301,0.223 -0.457,0.332 -0.152,0.113 -0.312,0.223 -0.473,0.336 -0.164,0.109 -0.328,0.219 -0.496,0.332 -0.168,0.109 -0.339,0.223 -0.515,0.332 -0.176,0.113 -0.356,0.223 -0.535,0.332 -0.18,0.113 -0.368,0.223 -0.555,0.336 -0.188,0.109 -0.375,0.219 -0.57,0.332 -0.192,0.11 -0.387,0.223 -0.586,0.332 -0.2,0.113 -0.403,0.223 -0.606,0.332 -0.203,0.113 -0.41,0.223 -0.617,0.336 -0.211,0.11 -0.422,0.219 -0.633,0.332 -0.215,0.11 -0.43,0.223 -0.648,0.332 -0.215,0.113 -0.438,0.223 -0.656,0.332 -0.223,0.114 -0.446,0.223 -0.672,0.336 -0.227,0.11 -0.454,0.223 -0.68,0.332 -0.231,0.11 -0.461,0.223 -0.691,0.332 -0.231,0.114 -0.465,0.223 -0.7,0.332 -0.234,0.114 -0.468,0.223 -0.707,0.336 -0.234,0.11 -0.472,0.223 -0.711,0.332 -0.238,0.11 -0.48,0.223 -0.718,0.332 -0.243,0.114 -0.481,0.223 -0.723,0.336 -0.242,0.11 -0.484,0.219 -0.727,0.332 -0.242,0.11 -0.488,0.223 -0.73,0.332 -0.242,0.11 -0.488,0.223 -0.731,0.332 -0.242,0.114 -0.488,0.223 -0.73,0.336 -0.246,0.11 -0.488,0.219 -0.73,0.332 -0.243,0.11 -0.489,0.223 -0.731,0.332 -0.242,0.114 -0.484,0.223 -0.723,0.332 -0.242,0.114 -0.484,0.223 -0.722,0.336 -0.242,0.11 -0.481,0.219 -0.719,0.332 -0.238,0.11 -0.477,0.223 -0.711,0.332 -0.238,0.114 -0.473,0.223 -0.707,0.332 -0.23,0.114 -0.465,0.223 -0.695,0.336 -0.231,0.11 -0.461,0.219 -0.688,0.332 -0.226,0.11 -0.453,0.223 -0.68,0.332 -0.222,0.114 -0.445,0.223 -0.667,0.332 -0.219,0.114 -0.438,0.223 -0.653,0.336 -0.219,0.11 -0.433,0.219 -0.644,0.332 -0.211,0.11 -0.422,0.223 -0.629,0.332 -0.207,0.114 -0.414,0.223 -0.617,0.332 -0.204,0.114 -0.403,0.223 -0.598,0.336 -0.199,0.11 -0.395,0.223 -0.586,0.332 -0.191,0.11 -0.379,0.223 -0.566,0.332 -0.184,0.114 -0.368,0.223 -0.547,0.332 -0.18,0.114 -0.356,0.223 -0.532,0.336 -0.171,0.11 -0.343,0.223 -0.511,0.332 -0.164,0.11 -0.328,0.223 -0.489,0.332 -0.16,0.114 -0.316,0.223 -0.468,0.336 -0.157,0.11 -0.305,0.219 -0.45,0.332 -0.148,0.11 -0.289,0.223 -0.425,0.332 -0.141,0.11 -0.274,0.223 -0.407,0.333 -0.128,0.113 -0.257,0.222 -0.378,0.335 -0.125,0.11 -0.243,0.219 -0.356,0.332 -0.117,0.11 -0.227,0.223 -0.332,0.333 -0.109,0.113 -0.211,0.222 -0.309,0.332 -0.097,0.113 -0.191,0.222 -0.281,0.335 -0.09,0.11 -0.176,0.219 -0.258,0.333 -0.082,0.109 -0.156,0.222 -0.23,0.332 -0.07,0.113 -0.141,0.222 -0.203,0.332 -0.063,0.113 -0.125,0.222 -0.18,0.336 -0.055,0.109 -0.105,0.218 -0.148,0.332 -0.047,0.109 -0.086,0.222 -0.125,0.332 -0.035,0.113 -0.067,0.222 -0.094,0.332 -0.031,0.113 -0.051,0.222 -0.07,0.336 -0.02,0.109 -0.032,0.218 -0.043,0.332 -0.008,0.109 -0.012,0.222 -0.012,0.332 0,0.113 0.008,0.222 0.012,0.332 0.011,0.113 0.023,0.222 0.043,0.336 0.019,0.109 0.043,0.222 0.07,0.332 0.027,0.109 0.059,0.222 0.094,0.332 0.039,0.113 0.078,0.222 0.125,0.332 0.043,0.113 0.093,0.222 0.148,0.336 0.055,0.109 0.113,0.222 0.18,0.332 0.062,0.109 0.129,0.222 0.203,0.332 0.074,0.113 0.148,0.222 0.23,0.336 0.082,0.109 0.168,0.218 0.258,0.332 0.09,0.109 0.184,0.222 0.281,0.332 0.098,0.109 0.2,0.222 0.309,0.332 0.105,0.113 0.215,0.222 0.332,0.336 0.113,0.109 0.234,0.218 0.356,0.332 0.121,0.109 0.25,0.222 0.378,0.332 0.133,0.113 0.266,0.222 0.407,0.332 0.136,0.113 0.277,0.222 0.425,0.336 0.145,0.109 0.293,0.218 0.45,0.332 0.152,0.109 0.308,0.222 0.468,0.332 0.161,0.113 0.325,0.222 0.489,0.332 0.168,0.113 0.34,0.222 0.511,0.336 0.176,0.109 0.352,0.218 0.532,0.332 0.179,0.109 0.363,0.222 0.547,0.332 0.187,0.113 0.375,0.222 0.566,0.332 0.191,0.113 0.387,0.222 0.586,0.336 0.195,0.109 0.394,0.218 0.598,0.332 0.203,0.109 0.41,0.222 0.617,0.332 0.207,0.113 0.418,0.222 0.629,0.332 0.211,0.113 0.425,0.222 0.644,0.336 0.215,0.109 0.434,0.222 0.653,0.332 0.222,0.109 0.445,0.222 0.667,0.332 0.227,0.113 0.454,0.222 0.68,0.332 0.227,0.113 0.457,0.222 0.688,0.336 0.23,0.109 0.465,0.222 0.695,0.332 0.234,0.109 0.469,0.222 0.707,0.332 0.234,0.113 0.473,0.222 0.711,0.336 0.238,0.109 0.477,0.219 0.719,0.332 0.238,0.109 0.48,0.222 0.722,0.332 0.239,0.109 0.481,0.222 0.723,0.332 0.242,0.113 0.488,0.223 0.731,0.336 0.242,0.109 0.484,0.219 0.73,0.332 0.242,0.109 0.488,0.222 0.73,0.332 0.243,0.113 0.489,0.223 0.731,0.332 0.242,0.113 0.484,0.223 0.73,0.336 0.243,0.109 0.485,0.219 0.727,0.332 0.242,0.109 0.48,0.223 0.723,0.332 0.238,0.113 0.48,0.223 0.718,0.332 0.239,0.113 0.477,0.223 0.711,0.336 0.239,0.109 0.473,0.219 0.707,0.332 0.235,0.109 0.469,0.223 0.7,0.332 0.23,0.113 0.46,0.223 0.691,0.332 0.226,0.113 0.453,0.223 0.68,0.336 0.226,0.109 0.449,0.219 0.672,0.332 0.218,0.109 0.441,0.223 0.656,0.332 0.218,0.113 0.433,0.223 0.648,0.332 0.211,0.113 0.422,0.223 0.633,0.336 0.207,0.109 0.414,0.223 0.617,0.332 0.203,0.109 0.406,0.223 0.606,0.332 0.199,0.113 0.394,0.223 0.586,0.332 0.195,0.113 0.382,0.223 0.57,0.336 0.187,0.109 0.375,0.223 0.555,0.332 0.179,0.109 0.359,0.223 0.535,0.332 0.176,0.113 0.347,0.223 0.515,0.336 0.168,0.109 0.332,0.219 0.496,0.332 0.161,0.109 0.321,0.223 0.473,0.332 0.156,0.109 0.309,0.223 0.457,0.332 0.145,0.113 0.289,0.223 0.43,0.336 0.14,0.109 0.277,0.219 0.41,0.332 0.133,0.109 0.262,0.223 0.387,0.332 0.125,0.113 0.246,0.223 0.363,0.332 0.117,0.113 0.227,0.223 0.336,0.336 0.109,0.109 0.215,0.219 0.316,0.332 0.098,0.109 0.196,0.223 0.285,0.332 0.094,0.113 0.18,0.223 0.266,0.332 0.082,0.113 0.16,0.223 0.234,0.336 0.079,0.109 0.145,0.219 0.211,0.332 0.067,0.109 0.129,0.223 0.184,0.332 0.059,0.113 0.109,0.223 0.16,0.332 0.047,0.113 0.09,0.223 0.129,0.336 0.039,0.109 0.074,0.219 0.102,0.332 0.031,0.11 0.058,0.223 0.078,0.332 0.023,0.113 0.035,0.223 0.047,0.332 0.011,0.113 0.019,0.223 0.023,0.336 0,0.11 0,0.223 -0.008,0.332 -0.008,0.11 -0.019,0.223 -0.035,0.332 -0.015,0.113 -0.035,0.223 -0.062,0.332 -0.024,0.114 -0.055,0.223 -0.09,0.336 -0.031,0.11 -0.071,0.223 -0.117,0.332 -0.043,0.11 -0.09,0.223 -0.141,0.332 -0.055,0.114 -0.109,0.223 -0.172,0.336 -0.062,0.11 -0.129,0.219 -0.199,0.332 -0.07,0.11 -0.145,0.223 -0.223,0.332 -0.078,0.11 -0.164,0.223 -0.25,0.332 -0.086,0.114 -0.179,0.223 -0.277,0.336 -0.094,0.11 -0.195,0.219 -0.301,0.332 -0.101,0.11 -0.211,0.223 -0.324,0.332 -0.113,0.114 -0.231,0.223 -0.352,0.332 -0.121,0.114 -0.246,0.223 -0.375,0.336 -0.129,0.11 -0.261,0.219 -0.394,0.332 -0.137,0.11 -0.278,0.223 -0.422,0.332 -0.145,0.114 -0.293,0.223 -0.445,0.332 -0.149,0.114 -0.305,0.223 -0.465,0.336 -0.156,0.11 -0.317,0.219 -0.485,0.332 -0.164,0.11 -0.332,0.223 -0.504,0.332 -0.171,0.114 -0.347,0.223 -0.527,0.332 -0.176,0.114 -0.359,0.223 -0.543,0.336 -0.183,0.11 -0.371,0.219 -0.562,0.332 -0.192,0.11 -0.383,0.223 -0.578,0.332 -0.196,0.114 -0.395,0.223 -0.598,0.332 -0.199,0.114 -0.402,0.223 -0.609,0.336 -0.208,0.11 -0.418,0.223 -0.629,0.332 -0.211,0.11 -0.422,0.223 -0.637,0.332 -0.219,0.114 -0.434,0.223 -0.652,0.332 -0.223,0.114 -0.442,0.223 -0.668,0.336 -0.223,0.11 -0.446,0.223 -0.676,0.332 -0.227,0.11 -0.453,0.223 -0.684,0.332 -0.23,0.114 -0.461,0.223 -0.695,0.336 -0.235,0.11 -0.469,0.219 -0.703,0.332 -0.235,0.11 -0.473,0.223 -0.711,0.332 -0.235,0.11 -0.477,0.223 -0.715,0.332 -0.238,0.114 -0.48,0.223 -0.719,0.336 -0.242,0.11 -0.484,0.219 -0.726,0.332 -0.243,0.11 -0.485,0.223 -0.727,0.332 -0.246,0.114 -0.488,0.223 -0.73,0.332 -0.246,0.114 -0.489,0.223 -0.731,0.336 -0.246,0.11 -0.488,0.219 -0.73,0.332 -0.246,0.11 -0.489,0.223 -0.731,0.332 -0.242,0.114 -0.488,0.223 -0.726,0.332 -0.243,0.114 -0.485,0.223 -0.727,0.336 -0.242,0.11 -0.48,0.219 -0.719,0.332 -0.238,0.11 -0.476,0.223 -0.714,0.332 -0.239,0.114 -0.473,0.223 -0.708,0.333 -0.234,0.113 -0.468,0.222 -0.703,0.335 -0.23,0.11 -0.461,0.219 -0.691,0.332 -0.231,0.11 -0.457,0.223 -0.684,0.333 -0.226,0.113 -0.449,0.222 -0.672,0.332 -0.222,0.113 -0.445,0.222 -0.664,0.335 -0.218,0.11 -0.433,0.223 -0.648,0.333 -0.215,0.109 -0.426,0.222 -0.637,0.332 -0.211,0.113 -0.418,0.222 -0.621,0.332 -0.207,0.113 -0.41,0.222 -0.609,0.336 -0.199,0.109 -0.395,0.222 -0.59,0.332 -0.195,0.109 -0.387,0.222 -0.578,0.332 -0.188,0.113 -0.371,0.222 -0.555,0.336 -0.183,0.109 -0.363,0.218 -0.539,0.332 -0.18,0.109 -0.351,0.222 -0.523,0.332 -0.168,0.109 -0.336,0.222 -0.5,0.332 -0.164,0.113 -0.325,0.222 -0.481,0.336 -0.156,0.109 -0.308,0.218 -0.457,0.332 -0.152,0.109 -0.297,0.222 -0.437,0.332 -0.145,0.113 -0.282,0.222 -0.418,0.332 -0.133,0.113 -0.262,0.222 -0.391,0.336 -0.125,0.109 -0.25,0.218 -0.367,0.332 -0.121,0.109 -0.235,0.222 -0.344,0.332 -0.113,0.113 -0.219,0.222 -0.32,0.332 -0.106,0.113 -0.203,0.222 -0.297,0.336 -0.094,0.109 -0.184,0.218 -0.27,0.332 -0.086,0.109 -0.168,0.222 -0.242,0.332 -0.078,0.113 -0.148,0.222 -0.219,0.332 -0.066,0.113 -0.128,0.222 -0.191,0.336 -0.059,0.109 -0.113,0.218 -0.164,0.332 -0.047,0.109 -0.094,0.222 -0.137,0.332 -0.039,0.113 -0.078,0.222 -0.109,0.332 -0.031,0.113 -0.059,0.222 -0.082,0.336 -0.024,0.109 -0.043,0.222 -0.055,0.332 -0.012,0.109 -0.023,0.222 -0.031,0.332 -0.004,0.113 -0.004,0.222 0,0.332 0.008,0.113 0.012,0.222 0.031,0.336 0.012,0.109 0.031,0.222 0.055,0.332 0.023,0.109 0.051,0.222 0.082,0.332 0.031,0.113 0.07,0.222 0.109,0.336 0.043,0.109 0.086,0.218 0.137,0.332 0.051,0.109 0.105,0.222 0.164,0.332 0.063,0.109 0.125,0.222 0.191,0.332 0.071,0.113 0.141,0.222 0.219,0.336 0.078,0.109 0.156,0.219 0.242,0.332 0.086,0.109 0.176,0.222 0.27,0.332 0.094,0.113 0.191,0.222 0.297,0.332 0.101,0.113 0.207,0.223 0.32,0.336 0.109,0.109 0.223,0.219 0.344,0.332 0.117,0.109 0.242,0.222 0.367,0.332 0.125,0.113 0.258,0.223 0.391,0.332 0.136,0.113 0.273,0.223 0.418,0.336 0.14,0.109 0.285,0.219 0.437,0.332 0.149,0.109 0.301,0.223 0.457,0.332 0.156,0.113 0.317,0.223 0.481,0.332 0.164,0.113 0.332,0.223 0.5,0.336 0.172,0.109 0.343,0.223 0.523,0.332 0.176,0.109 0.356,0.223 0.539,0.332 0.184,0.113 0.367,0.223 0.555,0.332 0.191,0.113 0.383,0.223 0.578,0.336 0.191,0.109 0.391,0.223 0.59,0.332 0.199,0.109 0.402,0.223 0.609,0.332 0.203,0.113 0.41,0.223 0.621,0.332 0.211,0.113 0.422,0.223 0.637,0.336 0.215,0.109 0.43,0.223 0.648,0.332 0.219,0.109 0.442,0.223 0.664,0.332 0.223,0.113 0.446,0.223 0.672,0.336 0.227,0.109 0.453,0.219 0.684,0.332 0.23,0.109 0.461,0.223 0.691,0.332 0.235,0.109 0.465,0.223 0.703,0.332 0.235,0.113 0.469,0.223 0.708,0.336 0.238,0.109 0.476,0.219 0.714,0.332 0.239,0.109 0.481,0.223 0.719,0.332 0.242,0.113 0.484,0.223 0.727,0.332 0.238,0.113 0.484,0.223 0.726,0.336 0.242,0.109 0.485,0.219 0.731,0.332 0.242,0.109 0.484,0.223 0.73,0.332 0.242,0.113 0.485,0.223 0.731,0.332 0.242,0.113 0.484,0.223 0.73,0.336 0.242,0.109 0.484,0.219 0.727,0.332 0.242,0.109 0.484,0.223 0.726,0.332 0.239,0.113 0.481,0.223 0.719,0.332 0.242,0.113 0.48,0.223 0.715,0.336 0.238,0.109 0.476,0.219 0.711,0.332 0.234,0.109 0.468,0.223 0.703,0.332 0.234,0.113 0.465,0.223 0.695,0.332 0.231,0.113 0.457,0.223 0.684,0.336 0.23,0.109 0.453,0.223 0.676,0.332 0.226,0.109 0.445,0.223 0.668,0.332 0.218,0.113 0.433,0.223 0.652,0.332 0.215,0.113 0.426,0.223 0.637,0.336 0.211,0.109 0.421,0.223 0.629,0.332 0.207,0.109 0.41,0.223 0.609,0.332 0.203,0.113 0.402,0.223 0.598,0.336 0.195,0.109 0.386,0.219 0.578,0.332 0.191,0.109 0.379,0.223 0.562,0.332 0.184,0.11 0.367,0.223 0.543,0.332 0.18,0.113 0.356,0.223 0.527,0.336 0.172,0.109 0.34,0.219 0.504,0.332 0.168,0.11 0.329,0.223 0.485,0.332 0.16,0.113 0.316,0.223 0.465,0.332 0.152,0.113 0.3,0.223 0.445,0.336 0.144,0.11 0.285,0.219 0.422,0.332 0.133,0.11 0.265,0.223 0.394,0.332 0.129,0.113 0.254,0.223 0.375,0.332 0.121,0.114 0.239,0.223 0.352,0.336 0.113,0.11 0.223,0.219 0.324,0.332 0.106,0.11 0.207,0.223 0.301,0.332 0.098,0.114 0.191,0.223 0.277,0.332 0.09,0.114 0.172,0.223 0.25,0.336 0.078,0.11 0.153,0.223 0.223,0.332 0.07,0.11 0.137,0.223 0.199,0.332 0.063,0.114 0.117,0.223 0.172,0.332 0.051,0.114 0.098,0.223 0.141,0.336 0.046,0.11 0.086,0.223 0.117,0.332 0.035,0.11 0.066,0.223 0.09,0.332 0.027,0.114 0.047,0.223 0.062,0.332 0.016,0.114 0.027,0.223 0.035,0.336 0.008,0.11 0.008,0.223 0.008,0.332 -0.004,0.11 -0.008,0.223 -0.023,0.332"
   style="fill:none;stroke:#d40000;stroke-width:2.87716508;stroke-linecap:butt;stroke-linejoin:round;stroke-miterlimit:4;stroke-dasharray:none;stroke-opacity:1"
   id="path114"
   inkscape:connector-curvature="0" /><path
   d="m 657.61612,-28.449116 c -0.0344,237.377646 0.0468,58.071726 0,308.532486"
   style="fill:#000000;fill-opacity:1;fill-rule:nonzero;stroke:#000000;stroke-width:2.00000005;stroke-linecap:butt;stroke-linejoin:miter;stroke-miterlimit:4;stroke-dasharray:none;stroke-opacity:1;marker-start:url(#marker4487)"
   id="path118"
   inkscape:connector-curvature="0"
   sodipodi:nodetypes="cc" /><path
   d="M 657.094,27.223 359.188,175.891"
   style="fill:#000000;fill-opacity:1;fill-rule:nonzero;stroke:#000000;stroke-width:2.00000005;stroke-linecap:butt;stroke-linejoin:miter;stroke-miterlimit:4;stroke-dasharray:none;stroke-opacity:1"
   id="path122"
   inkscape:connector-curvature="0" /><path
   d="m 518.74629,78.874177 c 6.87471,18.638044 10.54302,38.325333 10.84047,58.203983"
   style="fill:none;stroke:#666666;stroke-width:2.87587762;stroke-linecap:butt;stroke-linejoin:round;stroke-miterlimit:4;stroke-dasharray:none;stroke-opacity:1"
   id="path126"
   inkscape:connector-curvature="0" /><path
   d="m 657.094,27.223 -299.723,112.3"
   style="fill:#666666;fill-opacity:1;fill-rule:nonzero;stroke:#666666;stroke-width:2.83464599;stroke-linecap:butt;stroke-linejoin:miter;stroke-miterlimit:4;stroke-dasharray:17.007874, 5.669291;stroke-dashoffset:0;stroke-opacity:1"
   id="path130"
   inkscape:connector-curvature="0" /><path
   d="m 150.39493,131.5276 c 2.39397,5.51535 2.46455,11.76199 0.19138,17.33181"
   style="fill:none;stroke:#d40000;stroke-width:2.31023622;stroke-linecap:butt;stroke-linejoin:round;stroke-miterlimit:4;stroke-dasharray:none;stroke-opacity:1"
   id="path30-3"
   inkscape:connector-curvature="0" /><path
   d="m 172.64052,121.30114 c 5.22265,11.65951 5.43334,24.95288 0.5857,36.78835"
   style="fill:none;stroke:#d40000;stroke-width:2.31023622;stroke-linecap:butt;stroke-linejoin:round;stroke-miterlimit:4;stroke-dasharray:none;stroke-opacity:1"
   id="path34-6"
   inkscape:connector-curvature="0" /><path
   d="m 195.22283,111.82441 c 7.70351,17.58548 7.95682,37.54673 0.70656,55.35093"
   style="fill:none;stroke:#d40000;stroke-width:2.31023622;stroke-linecap:butt;stroke-linejoin:round;stroke-miterlimit:4;stroke-dasharray:none;stroke-opacity:1"
   id="path38-7"
   inkscape:connector-curvature="0" /><path
   d="m 217.97224,102.74996 c 9.92682,23.20291 10.25379,49.39461 0.91803,72.87105"
   style="fill:none;stroke:#d40000;stroke-width:2.31023622;stroke-linecap:butt;stroke-linejoin:round;stroke-miterlimit:4;stroke-dasharray:none;stroke-opacity:1"
   id="path42-5"
   inkscape:connector-curvature="0" /><path
   d="m 240.55862,93.30046 c 12.56671,29.50811 12.77345,62.82871 0.57785,92.53128"
   style="fill:none;stroke:#d40000;stroke-width:2.31023622;stroke-linecap:butt;stroke-linejoin:round;stroke-miterlimit:4;stroke-dasharray:none;stroke-opacity:1"
   id="path46-3"
   inkscape:connector-curvature="0" /><path
   d="m 264.83835,83.076475 c 14.94797,34.939345 15.44033,74.379265 1.38238,109.730515"
   style="fill:none;stroke:#d40000;stroke-width:2.31023622;stroke-linecap:butt;stroke-linejoin:round;stroke-miterlimit:4;stroke-dasharray:none;stroke-opacity:1"
   id="path42-5-2"
   inkscape:connector-curvature="0" /><path
   d="m 287.41935,73.164583 c 17.69708,41.554817 17.98822,88.478587 0.81376,130.307257"
   style="fill:none;stroke:#d40000;stroke-width:2.31023622;stroke-linecap:butt;stroke-linejoin:round;stroke-miterlimit:4;stroke-dasharray:none;stroke-opacity:1"
   id="path46-3-9"
   inkscape:connector-curvature="0" /><path
   d="m 310.57295,65.043262 c 19.90324,46.735128 20.23067,99.508518 0.91521,146.551628"
   style="fill:none;stroke:#d40000;stroke-width:2.31023622;stroke-linecap:butt;stroke-linejoin:round;stroke-miterlimit:4;stroke-dasharray:none;stroke-opacity:1"
   id="path46-3-9-1"
   inkscape:connector-curvature="0" />




<path
   d="m 594.28309,279.99814 c 62.53248,0 0,0 62.53248,0"
   style="fill:#000000;fill-opacity:1;fill-rule:nonzero;stroke:#000000;stroke-width:2.00000005;stroke-linecap:butt;stroke-linejoin:miter;stroke-miterlimit:4;stroke-dasharray:none;stroke-opacity:1;marker-start:url(#marker4545)"
   id="path118-7"
   inkscape:connector-curvature="0"
   sodipodi:nodetypes="cc" /><path
   d="M 669.00697,222.78642 V 164.95581"
   style="fill:none;stroke:#000000;stroke-width:2.11464596;stroke-linecap:butt;stroke-linejoin:miter;stroke-miterlimit:4;stroke-dasharray:none;stroke-opacity:1"
   id="path60-9"
   inkscape:connector-curvature="0" /><path
   d="m 674.63197,221.65861 h -11.25"
   style="fill:none;stroke:#000000;stroke-width:2.25562191;stroke-linecap:butt;stroke-linejoin:miter;stroke-miterlimit:4;stroke-dasharray:none;stroke-opacity:1"
   id="path64-1"
   inkscape:connector-curvature="0" /><path
   d="m 674.63197,166.08362 h -11.25"
   style="fill:none;stroke:#000000;stroke-width:2.25562191;stroke-linecap:butt;stroke-linejoin:miter;stroke-miterlimit:4;stroke-dasharray:none;stroke-opacity:1"
   id="path68-2"
   inkscape:connector-curvature="0" /><g
   id="g4698"><text
     id="text306"
     y="131.3186"
     x="337.91916"
     style="font-style:normal;font-weight:normal;font-size:30px;line-height:1.25;font-family:sans-serif;letter-spacing:0px;word-spacing:0px;fill:#000000;fill-opacity:1;stroke:none;stroke-width:0.75"
     xml:space="preserve"><tspan
       style="font-size:22px;stroke-width:0.75"
       y="131.3186"
       x="337.91916"
       id="tspan304"
       sodipodi:role="line">$D$</tspan></text>
<text
     id="text306-2"
     y="48.532288"
     x="518.1958"
     style="font-style:normal;font-weight:normal;font-size:30px;line-height:1.25;font-family:sans-serif;letter-spacing:0px;word-spacing:0px;fill:#000000;fill-opacity:1;stroke:none;stroke-width:0.75"
     xml:space="preserve"><tspan
       style="font-size:22px;stroke-width:0.75"
       y="48.532288"
       x="518.1958"
       id="tspan304-7"
       sodipodi:role="line">$r_2$</tspan></text>
<text
     id="text306-2-0"
     y="91.574486"
     x="561.77924"
     style="font-style:normal;font-weight:normal;font-size:30px;line-height:1.25;font-family:sans-serif;letter-spacing:0px;word-spacing:0px;fill:#000000;fill-opacity:1;stroke:none;stroke-width:0.75"
     xml:space="preserve"><tspan
       style="font-size:22px;stroke-width:0.75"
       y="91.574486"
       x="561.77924"
       id="tspan304-7-9"
       sodipodi:role="line">$r_1$</tspan></text>
<text
     id="text306-2-0-3"
     y="157.73906"
     x="562.92401"
     style="font-style:normal;font-weight:normal;font-size:30px;line-height:1.25;font-family:sans-serif;letter-spacing:0px;word-spacing:0px;fill:#000000;fill-opacity:1;stroke:none;stroke-width:0.75"
     xml:space="preserve"><tspan
       style="font-size:22px;stroke-width:0.75"
       y="157.73906"
       x="562.92401"
       id="tspan304-7-9-6"
       sodipodi:role="line">$z_0$</tspan></text>
<text
     id="text306-2-0-3-0"
     y="126.26155"
     x="500.18439"
     style="font-style:normal;font-weight:normal;font-size:30px;line-height:1.25;font-family:sans-serif;letter-spacing:0px;word-spacing:0px;fill:#000000;fill-opacity:1;stroke:none;stroke-width:0.75"
     xml:space="preserve"><tspan
       style="font-size:22px;stroke-width:0.75"
       y="126.26155"
       x="500.18439"
       id="tspan304-7-9-6-6"
       sodipodi:role="line">$\vartheta$</tspan></text>
<text
     id="text306-2-5"
     y="-2.4874916"
     x="666.52826"
     style="font-style:normal;font-weight:normal;font-size:30px;line-height:1.25;font-family:sans-serif;letter-spacing:0px;word-spacing:0px;fill:#000000;fill-opacity:1;stroke:none;stroke-width:0.75"
     xml:space="preserve"><tspan
       style="font-size:22px;stroke-width:0.75"
       y="-2.4874916"
       x="666.52826"
       id="tspan304-7-3"
       sodipodi:role="line">$\xi$</tspan></text>
<text
     id="text306-2-5-5"
     y="267.88275"
     x="578.42444"
     style="font-style:normal;font-weight:normal;font-size:30px;line-height:1.25;font-family:sans-serif;letter-spacing:0px;word-spacing:0px;fill:#000000;fill-opacity:1;stroke:none;stroke-width:0.75"
     xml:space="preserve"><tspan
       style="font-size:22px;stroke-width:0.75"
       y="267.88275"
       x="578.42444"
       id="tspan304-7-3-6"
       sodipodi:role="line">$j$</tspan></text>
<text
     id="text306-3"
     y="199.5444"
     x="672.53912"
     style="font-style:normal;font-weight:normal;font-size:30px;line-height:1.25;font-family:sans-serif;letter-spacing:0px;word-spacing:0px;fill:#000000;fill-opacity:1;stroke:none;stroke-width:0.75"
     xml:space="preserve"><tspan
       style="font-size:22px;stroke-width:0.75"
       y="199.5444"
       x="672.53912"
       id="tspan304-6"
       sodipodi:role="line">$\xi_0$</tspan></text>
</g></g></svg>