<?xml version="1.0" encoding="UTF-8" standalone="no"?>
<!-- Created with Inkscape (http://www.inkscape.org/) -->

<svg
   xmlns:dc="http://purl.org/dc/elements/1.1/"
   xmlns:cc="http://creativecommons.org/ns#"
   xmlns:rdf="http://www.w3.org/1999/02/22-rdf-syntax-ns#"
   xmlns:svg="http://www.w3.org/2000/svg"
   xmlns="http://www.w3.org/2000/svg"
   xmlns:xlink="http://www.w3.org/1999/xlink"
   xmlns:sodipodi="http://sodipodi.sourceforge.net/DTD/sodipodi-0.dtd"
   xmlns:inkscape="http://www.inkscape.org/namespaces/inkscape"
   width="156.03777mm"
   height="128.69775mm"
   viewBox="0 0 156.03777 128.69775"
   version="1.1"
   id="svg2565"
   inkscape:version="0.92.5 (2060ec1f9f, 2020-04-08)"
   sodipodi:docname="07_rayleighlambda.svg">
  <defs
     id="defs2559">
    <linearGradient
       inkscape:collect="always"
       id="linearGradient1272-5">
      <stop
         id="stop1270"
         offset="0"
         style="stop-color:#00008c;stop-opacity:1" />
      <stop
         style="stop-color:#0000d4;stop-opacity:1"
         offset="0.12619317"
         id="stop1283" />
      <stop
         id="stop1285"
         offset="0.24778627"
         style="stop-color:#00d400;stop-opacity:1" />
      <stop
         style="stop-color:#d4d400;stop-opacity:1"
         offset="0.35138509"
         id="stop1287" />
      <stop
         id="stop1289"
         offset="0.47024146"
         style="stop-color:#d46900;stop-opacity:1;" />
      <stop
         style="stop-color:#d40000;stop-opacity:1"
         offset="0.59529984"
         id="stop1291" />
      <stop
         id="stop1268"
         offset="1"
         style="stop-color:#470000;stop-opacity:1" />
    </linearGradient>
    <linearGradient
       inkscape:collect="always"
       xlink:href="#linearGradient1272-5"
       id="linearGradient1274"
       x1="-31.114834"
       y1="-19.600878"
       x2="102.58674"
       y2="-19.600878"
       gradientUnits="userSpaceOnUse" />
  </defs>
  <sodipodi:namedview
     id="base"
     pagecolor="#ffffff"
     bordercolor="#666666"
     borderopacity="1.0"
     inkscape:pageopacity="0.0"
     inkscape:pageshadow="2"
     inkscape:zoom="2.7740227"
     inkscape:cx="134.54323"
     inkscape:cy="393.77615"
     inkscape:document-units="mm"
     inkscape:current-layer="layer1"
     showgrid="false"
     fit-margin-top="0"
     fit-margin-left="0"
     fit-margin-right="0"
     fit-margin-bottom="0"
     inkscape:window-width="1544"
     inkscape:window-height="781"
     inkscape:window-x="338"
     inkscape:window-y="81"
     inkscape:window-maximized="0" />
  <metadata
     id="metadata2562">
    <rdf:RDF>
      <cc:Work
         rdf:about="">
        <dc:format>image/svg+xml</dc:format>
        <dc:type
           rdf:resource="http://purl.org/dc/dcmitype/StillImage" />
        <dc:title></dc:title>
      </cc:Work>
    </rdf:RDF>
  </metadata>
  <g
     inkscape:label="Layer 1"
     inkscape:groupmode="layer"
     id="layer1"
     transform="translate(53.55815,79.557207)">
    <path
       style="fill:#666666;stroke:#00000b;stroke-width:0.40000001;stroke-linecap:butt;stroke-linejoin:miter;stroke-miterlimit:4;stroke-dasharray:none;stroke-opacity:1"
       d="m 2.44653,34.83092 5e-5,4.05375"
       id="path1683-9-1-5"
       inkscape:connector-curvature="0"
       sodipodi:nodetypes="cc"
       inkscape:transform-center-x="-6.359617"
       inkscape:transform-center-y="-14.638408" />
    <path
       style="fill:#666666;stroke:#00000b;stroke-width:0.40000001;stroke-linecap:butt;stroke-linejoin:miter;stroke-miterlimit:4;stroke-dasharray:none;stroke-opacity:1"
       d="m 42.23457,34.83092 5e-5,4.05375"
       id="path1683-9-1-2-7-5"
       inkscape:connector-curvature="0"
       sodipodi:nodetypes="cc"
       inkscape:transform-center-x="-6.359617"
       inkscape:transform-center-y="-14.638408" />
    <path
       style="fill:#666666;stroke:#00000b;stroke-width:0.40000001;stroke-linecap:butt;stroke-linejoin:miter;stroke-miterlimit:4;stroke-dasharray:none;stroke-opacity:1"
       d="m 82.06518,34.83092 5e-5,4.05375"
       id="path1683-9-1-9-9"
       inkscape:connector-curvature="0"
       sodipodi:nodetypes="cc"
       inkscape:transform-center-x="-6.359617"
       inkscape:transform-center-y="-14.638408" />
    <path
       style="fill:#666666;stroke:#00000b;stroke-width:0.40000001;stroke-linecap:butt;stroke-linejoin:miter;stroke-miterlimit:4;stroke-dasharray:none;stroke-opacity:1"
       d="m 101.87095,34.83092 5e-5,4.05375"
       id="path1683-9-1-2-7-0-6-2"
       inkscape:connector-curvature="0"
       sodipodi:nodetypes="cc"
       inkscape:transform-center-x="-6.359617"
       inkscape:transform-center-y="-14.638408" />
    <path
       inkscape:transform-center-y="-14.638408"
       inkscape:transform-center-x="-6.359617"
       sodipodi:nodetypes="cc"
       inkscape:connector-curvature="0"
       id="path1853-9"
       d="m 2.44653,34.83092 5e-5,4.05375"
       style="fill:#666666;stroke:#00000b;stroke-width:0.40000001;stroke-linecap:butt;stroke-linejoin:miter;stroke-miterlimit:4;stroke-dasharray:none;stroke-opacity:1" />
    <path
       inkscape:transform-center-y="-14.638408"
       inkscape:transform-center-x="-6.359617"
       sodipodi:nodetypes="cc"
       inkscape:connector-curvature="0"
       id="path1857-6"
       d="m 42.23457,34.83092 5e-5,4.05375"
       style="fill:#666666;stroke:#00000b;stroke-width:0.40000001;stroke-linecap:butt;stroke-linejoin:miter;stroke-miterlimit:4;stroke-dasharray:none;stroke-opacity:1" />
    <path
       inkscape:transform-center-y="-14.638408"
       inkscape:transform-center-x="-6.359617"
       sodipodi:nodetypes="cc"
       inkscape:connector-curvature="0"
       id="path1861-6"
       d="m 82.06518,34.83092 5e-5,4.05375"
       style="fill:#666666;stroke:#00000b;stroke-width:0.40000001;stroke-linecap:butt;stroke-linejoin:miter;stroke-miterlimit:4;stroke-dasharray:none;stroke-opacity:1" />
    <path
       inkscape:transform-center-y="-14.638408"
       inkscape:transform-center-x="-6.359617"
       sodipodi:nodetypes="cc"
       inkscape:connector-curvature="0"
       id="path1865-1"
       d="m 101.87095,34.83092 5e-5,4.05375"
       style="fill:#666666;stroke:#00000b;stroke-width:0.40000001;stroke-linecap:butt;stroke-linejoin:miter;stroke-miterlimit:4;stroke-dasharray:none;stroke-opacity:1" />
    <path
       style="fill:#666666;stroke:#00000b;stroke-width:0.40000001;stroke-linecap:butt;stroke-linejoin:miter;stroke-miterlimit:4;stroke-dasharray:none;stroke-opacity:1"
       d="m -37.54955,-30.77234 3.63806,-5e-5"
       id="path1683-6"
       inkscape:connector-curvature="0"
       sodipodi:nodetypes="cc" />
    <path
       sodipodi:nodetypes="cc"
       inkscape:connector-curvature="0"
       id="path1849-7"
       d="m -37.54955,15.26545 3.63806,-5e-5"
       style="fill:#666666;stroke:#00000b;stroke-width:0.40000001;stroke-linecap:butt;stroke-linejoin:miter;stroke-miterlimit:4;stroke-dasharray:none;stroke-opacity:1" />
    <path
       sodipodi:nodetypes="cc"
       inkscape:connector-curvature="0"
       id="path1849-7-3"
       d="m -37.54955,-7.70388 3.63806,-5e-5"
       style="fill:#666666;stroke:#00000b;stroke-width:0.40000001;stroke-linecap:butt;stroke-linejoin:miter;stroke-miterlimit:4;stroke-dasharray:none;stroke-opacity:1" />
    <path
       style="fill:#666666;stroke:#00000b;stroke-width:0.40000001;stroke-linecap:butt;stroke-linejoin:miter;stroke-miterlimit:4;stroke-dasharray:none;stroke-opacity:1"
       d="m -37.54955,-54.08613 3.63806,-5e-5"
       id="path1683-6-6"
       inkscape:connector-curvature="0"
       sodipodi:nodetypes="cc" />
    <rect
       style="fill:none;fill-opacity:0.9921875;stroke:#000000;stroke-width:0.80000001;stroke-linecap:round;stroke-miterlimit:4;stroke-dasharray:none;stroke-dashoffset:0;stroke-opacity:1"
       id="rect7827-2"
       width="139.53757"
       height="114.84464"
       x="-37.457954"
       y="-76.277336" />
    <path
       id="path362"
       title="1/x**4"
       d="m -30.474092,-75.368386 c 0.04656,0.317718 0.09312,0.633771 0.139678,0.948189 0.04656,0.314417 0.09312,0.627189 0.139677,0.938345 0.04656,0.311157 0.09312,0.620689 0.139677,0.928625 0.04656,0.307937 0.09312,0.614269 0.139677,0.919025 0.04656,0.304756 0.09312,0.607928 0.139678,0.909543 0.04656,0.301616 0.09312,0.601666 0.139677,0.900179 0.04656,0.298514 0.09312,0.595481 0.139677,0.89093 0.04656,0.29545 0.09312,0.589372 0.139677,0.881796 0.04656,0.292423 0.09312,0.583338 0.139678,0.872772 0.04656,0.289434 0.09312,0.577378 0.139677,0.86386 0.04656,0.286482 0.09312,0.571492 0.139677,0.855057 0.04656,0.283565 0.09312,0.565676 0.139677,0.846361 0.04656,0.280684 0.09312,0.559932 0.139678,0.837771 0.04656,0.277838 0.09312,0.554258 0.139677,0.829285 0.04656,0.275027 0.09312,0.548653 0.139677,0.820903 0.04656,0.27225 0.09312,0.543115 0.139677,0.812621 0.04656,0.269507 0.09312,0.537645 0.139678,0.804441 0.04656,0.266796 0.09312,0.53224 0.139677,0.796358 0.04656,0.264118 0.09312,0.526901 0.139677,0.788373 0.04656,0.261472 0.09312,0.521625 0.139677,0.780484 0.04656,0.258858 0.09312,0.516413 0.139678,0.772688 0.04656,0.256276 0.09312,0.511264 0.139677,0.764988 0.04656,0.253723 0.09312,0.506175 0.139677,0.757377 0.04656,0.251203 0.09312,0.501148 0.139677,0.749859 0.04656,0.248711 0.09312,0.49618 0.139678,0.742429 0.04656,0.246249 0.09312,0.491271 0.139677,0.735088 0.04656,0.243817 0.09312,0.486421 0.139677,0.727833 0.04656,0.241413 0.09312,0.481628 0.139677,0.720665 0.04656,0.239037 0.09312,0.47689 0.139678,0.71358 0.04656,0.23669 0.09312,0.47221 0.139677,0.70658 0.04656,0.23437 0.09312,0.467584 0.139677,0.699661 0.04656,0.232078 0.09312,0.463012 0.139677,0.692824 0.04656,0.229812 0.09312,0.458494 0.139678,0.686067 0.04656,0.227572 0.09312,0.454028 0.139677,0.679388 0.04656,0.225359 0.09312,0.449615 0.139677,0.672787 0.04656,0.223172 0.09312,0.445254 0.139677,0.666264 0.04656,0.22101 0.09312,0.440943 0.139678,0.659816 0.04656,0.218873 0.09312,0.436681 0.139677,0.653443 0.04656,0.216761 0.09312,0.432469 0.139677,0.647143 0.04656,0.214673 0.09312,0.428306 0.139677,0.640916 0.04656,0.21261 0.09312,0.424191 0.139677,0.634762 0.04656,0.21057 0.09312,0.420123 0.139678,0.628677 0.04656,0.208553 0.09312,0.416102 0.139677,0.622662 0.04656,0.206561 0.09312,0.412128 0.139677,0.616718 0.04656,0.20459 0.09312,0.408197 0.139677,0.61084 0.04656,0.202642 0.09312,0.404313 0.139678,0.605029 0.04656,0.200716 0.09312,0.400473 0.139677,0.599285 0.04656,0.198813 0.09312,0.396676 0.139677,0.593607 0.04656,0.19693 0.09312,0.392922 0.139677,0.587992 0.04656,0.195069 0.09312,0.389211 0.139678,0.582441 0.04656,0.19323 0.09312,0.385542 0.139677,0.576953 0.04656,0.191411 0.09312,0.381915 0.139677,0.571527 0.04656,0.189613 0.09312,0.378328 0.139677,0.566162 0.04656,0.187834 0.09312,0.374782 0.139678,0.560858 0.04656,0.186075 0.09312,0.371275 0.139677,0.555612 0.04656,0.184337 0.09312,0.367808 0.139677,0.550426 0.04656,0.182618 0.09312,0.364379 0.139677,0.545297 0.04656,0.180919 0.09312,0.360989 0.139678,0.540227 0.04656,0.179237 0.09312,0.357636 0.139677,0.535211 0.04656,0.177575 0.09312,0.354322 0.139677,0.530253 0.04656,0.175931 0.09312,0.351043 0.139677,0.525349 0.04656,0.174306 0.09312,0.347801 0.139678,0.520499 0.04656,0.172699 0.09312,0.344595 0.139677,0.515704 0.04656,0.171108 0.09312,0.341424 0.139677,0.51096 0.04656,0.169536 0.09312,0.338288 0.139677,0.50627 0.04656,0.167981 0.09312,0.335187 0.139678,0.50163 0.04656,0.166443 0.09312,0.33212 0.139677,0.497042 0.04656,0.164923 0.09312,0.329086 0.139677,0.492504 0.04656,0.163418 0.09312,0.326086 0.139677,0.488016 0.04656,0.16193 0.09312,0.323118 0.139678,0.483577 0.04656,0.160458 0.09312,0.320182 0.139677,0.479185 0.04656,0.159003 0.09312,0.317279 0.139677,0.474842 0.04656,0.157563 0.09312,0.314408 0.139677,0.470546 0.04656,0.156139 0.09312,0.311567 0.139678,0.466297 0.04656,0.15473 0.09312,0.308757 0.139677,0.462093 0.04656,0.153336 0.09312,0.305977 0.139677,0.457935 0.04656,0.151958 0.09312,0.303228 0.139677,0.453821 0.04656,0.150594 0.09312,0.300508 0.139678,0.449753 0.04656,0.149245 0.09312,0.297817 0.139677,0.445727 0.04656,0.14791 0.09312,0.295155 0.139677,0.441745 0.04656,0.14659 0.09312,0.292521 0.139677,0.437805 0.04656,0.145284 0.09312,0.289916 0.139678,0.433908 0.04656,0.143991 0.09312,0.287338 0.139677,0.430052 0.04656,0.142713 0.09312,0.284788 0.139677,0.426236 0.04656,0.141449 0.09312,0.282266 0.139677,0.422463 0.04656,0.140197 0.09312,0.279769 0.139678,0.418728 0.04656,0.138959 0.09312,0.2773 0.139677,0.415033 0.04656,0.137734 0.09312,0.274856 0.139677,0.411378 0.04656,0.136521 0.09312,0.272438 0.139677,0.40776 0.04656,0.135322 0.09312,0.270046 0.139678,0.404182 0.04656,0.134135 0.09312,0.267678 0.139677,0.40064 0.04656,0.132961 0.09312,0.265336 0.139677,0.397135 0.04656,0.131799 0.09312,0.263019 0.139677,0.393668 0.04656,0.13065 0.09312,0.260725 0.139678,0.390237 0.04656,0.129512 0.09312,0.258456 0.139677,0.386841 0.04656,0.128386 0.09312,0.25621 0.139677,0.383482 0.04656,0.127271 0.09312,0.253987 0.139677,0.380156 0.04656,0.126169 0.09312,0.251788 0.139678,0.376865 0.04656,0.125078 0.09312,0.249612 0.139677,0.37361 0.04656,0.123998 0.09312,0.247457 0.139677,0.370386 0.04656,0.122929 0.09312,0.245325 0.139677,0.367197 0.04656,0.121872 0.09312,0.243216 0.139678,0.36404 0.04656,0.120825 0.09312,0.241128 0.139677,0.360917 0.04656,0.119789 0.09312,0.239061 0.139677,0.357824 0.04656,0.118764 0.09312,0.237016 0.139677,0.354765 0.04656,0.117748 0.09312,0.234991 0.139678,0.351735 0.04656,0.116744 0.09312,0.232988 0.139677,0.348738 0.04656,0.11575 0.09312,0.231004 0.139677,0.34577 0.04656,0.114766 0.09312,0.229041 0.139677,0.342834 0.04656,0.113792 0.09312,0.227098 0.139678,0.339926 0.04656,0.112828 0.09312,0.225175 0.139677,0.337049 0.04656,0.111873 0.09312,0.223271 0.139677,0.3342 0.04656,0.110929 0.09312,0.221387 0.139677,0.331381 0.04656,0.109994 0.09312,0.2195209 0.139678,0.3285892 0.04656,0.1090683 0.09312,0.2176748 0.139677,0.3258268 0.04656,0.108152 0.09312,0.2158467 0.139677,0.3230916 0.04656,0.1072449 0.09312,0.2140372 0.139677,0.3203842 0.04656,0.1063469 0.09312,0.2122457 0.139678,0.3177037 0.04656,0.1054579 0.09312,0.2104723 0.139677,0.3150502 0.04656,0.1045779 0.09312,0.2087166 0.139677,0.3124232 0.04656,0.1037066 0.09312,0.2069785 0.139677,0.3098225 0.04656,0.1028441 0.09312,0.2052577 0.139678,0.3072477 0.04656,0.1019901 0.09312,0.203554 0.139677,0.3046986 0.04656,0.1011446 0.09312,0.2018672 0.139677,0.3021747 0.04656,0.1003075 0.09312,0.2001973 0.139677,0.299676 0.04656,0.099479 0.09312,0.1985438 0.139678,0.2972019 0.04656,0.098658 0.09312,0.1969068 0.139677,0.2947524 0.04656,0.097846 0.09312,0.1952858 0.139677,0.292327 0.04656,0.097041 0.09312,0.1936809 0.139677,0.2899256 0.04656,0.096245 0.09312,0.1920918 0.139678,0.2875477 0.04656,0.095456 0.09312,0.1905183 0.139677,0.2851933 0.04656,0.094675 0.09312,0.1889602 0.139677,0.2828619 0.04656,0.093902 0.09312,0.1874174 0.139677,0.2805534 0.04656,0.093136 0.09312,0.1858897 0.139677,0.2782674 0.04656,0.092378 0.09312,0.184377 0.139678,0.2760038 0.04656,0.091627 0.09312,0.1828789 0.139677,0.2737622 0.04656,0.090883 0.09312,0.1813955 0.139677,0.2715425 0.04656,0.090147 0.09312,0.1799264 0.139677,0.2693442 0.04656,0.089418 0.09312,0.1784717 0.139678,0.2671673 0.04656,0.088696 0.09312,0.177031 0.139677,0.2650116 0.04656,0.087981 0.09312,0.1756042 0.139677,0.2628765 0.04656,0.087272 0.09312,0.1741913 0.139677,0.2607622 0.04656,0.086571 0.09312,0.1727919 0.139678,0.2586683 0.04656,0.085876 0.09312,0.171406 0.139677,0.2565943 0.04656,0.085188 0.09312,0.1700335 0.139677,0.2545405 0.04656,0.084507 0.09312,0.16867402 0.139677,0.25250623 0.04656,0.0838322 0.093119,0.16732764 0.1396777,0.25049149 0.046559,0.0831638 0.093118,0.16599413 0.1396773,0.24849601 0.046559,0.08250187 0.093118,0.16467335 0.1396772,0.24651956 0.046559,0.0818462 0.093118,0.16336517 0.1396772,0.24456195 0.046559,0.0811968 0.093118,0.16206944 0.1396773,0.24262298 0.046559,0.0805535 0.093118,0.16078602 0.1396772,0.24070241 0.046559,0.0799164 0.093118,0.15951477 0.1396773,0.23880007 0.046559,0.079285 0.093118,0.1582556 0.1396772,0.2369157 0.046559,0.07866 0.093118,0.1570083 0.1396773,0.2350492 0.046559,0.078041 0.093118,0.1557728 0.1396772,0.2332003 0.046559,0.077427 0.093118,0.1545489 0.1396773,0.2313688 0.046559,0.07682 0.093118,0.1533366 0.1396772,0.2295546 0.046559,0.076218 0.093118,0.1521356 0.1396773,0.2277574 0.046559,0.075622 0.093118,0.1509459 0.1396772,0.225977 0.046559,0.075031 0.093118,0.1497674 0.1396773,0.2242134 0.046559,0.074446 0.093118,0.1485999 0.1396772,0.2224662 0.046559,0.073866 0.093118,0.1474433 0.1396773,0.2207353 0.046559,0.073292 0.093118,0.1462975 0.1396772,0.2190206 0.046559,0.072723 0.093118,0.1451624 0.1396773,0.2173219 0.046559,0.07216 0.093118,0.1440377 0.1396772,0.2156388 0.046559,0.071601 0.093118,0.1429236 0.1396773,0.2139715 0.046559,0.071048 0.093118,0.1418198 0.1396772,0.2123196 0.046559,0.0705 0.093118,0.1407261 0.1396772,0.2106829 0.046559,0.069957 0.093118,0.1396426 0.1396773,0.2090614 0.046559,0.069419 0.093118,0.1385691 0.1396772,0.2074549 0.046559,0.068886 0.093118,0.1375054 0.1396773,0.205863 0.046559,0.068358 0.093118,0.1364516 0.1396772,0.2042859 0.046559,0.067834 0.093118,0.1354075 0.1396773,0.2027233 0.046559,0.067316 0.093118,0.1343728 0.1396772,0.2011749 0.046559,0.066802 0.093118,0.1333477 0.1396773,0.1996407 0.046559,0.066293 0.093118,0.132332 0.1396772,0.1981206 0.046559,0.065789 0.093118,0.1313255 0.1396773,0.1966143 0.046559,0.065289 0.093118,0.1303281 0.1396772,0.1951217 0.046559,0.064794 0.093118,0.1293399 0.1396773,0.1936427 0.046559,0.064303 0.093118,0.1283607 0.1396772,0.1921772 0.046559,0.063816 0.093118,0.1273903 0.1396773,0.1907249 0.046559,0.063335 0.093118,0.1264287 0.1396772,0.1892858 0.046559,0.062857 0.093118,0.1254758 0.1396773,0.1878597 0.046559,0.062384 0.093118,0.1245315 0.1396772,0.1864464 0.046559,0.061915 0.093118,0.1235958 0.1396773,0.185046 0.046559,0.06145 0.093118,0.1226684 0.1396772,0.183658 0.046559,0.06099 0.093118,0.1217494 0.1396772,0.1822827 0.046559,0.060533 0.093118,0.1208386 0.1396773,0.1809196 0.046559,0.060081 0.093118,0.119936 0.1396772,0.1795687 0.046559,0.059633 0.093118,0.1190415 0.1396773,0.1782299 0.046559,0.059188 0.093118,0.118155 0.1396772,0.1769031 0.046559,0.058748 0.093118,0.1172764 0.1396773,0.1755882 0.046559,0.058312 0.093118,0.1164056 0.1396772,0.1742848 0.046559,0.057879 0.093118,0.1155426 0.1396773,0.1729932 0.046559,0.057451 0.093118,0.1146872 0.1396772,0.171713 0.046559,0.057026 0.093118,0.1138394 0.1396773,0.1704441 0.046559,0.056605 0.093118,0.112999 0.1396772,0.169187 0.046559,0.05619 0.093118,0.112166 0.1396773,0.16794 0.046559,0.05577 0.093118,0.11134 0.1396772,0.166704 0.046559,0.05536 0.093118,0.110523 0.1396773,0.16548 0.046559,0.05496 0.093118,0.109712 0.1396772,0.164266 0.046559,0.05455 0.093118,0.108908 0.1396773,0.163063 0.046559,0.05415 0.093118,0.108111 0.1396772,0.16187 0.046559,0.05376 0.093118,0.107321 0.1396772,0.160688 0.046559,0.05337 0.093118,0.106539 0.1396773,0.159517 0.046559,0.05298 0.093118,0.105762 0.1396772,0.158355 0.046559,0.05259 0.093118,0.104992 0.1396773,0.157203 0.046559,0.05221 0.093118,0.10423 0.1396772,0.156062 0.046559,0.05183 0.093118,0.103474 0.1396773,0.15493 0.046559,0.05146 0.093118,0.102725 0.1396772,0.153809 0.0465591,0.05108 0.0931182,0.101982 0.13967728,0.152697 0.0465591,0.05072 0.0931182,0.101246 0.13967725,0.151595 0.0465591,0.05035 0.0931182,0.100515 0.13967724,0.150502 0.0465591,0.04999 0.0931182,0.09979 0.13967725,0.149419 0.0465591,0.04963 0.0931182,0.09907 0.13967725,0.148344 0.0465591,0.04927 0.0931182,0.09836 0.13967725,0.14728 0.0465591,0.04892 0.09311816,0.09766 0.13967724,0.146225 0.04655908,0.04857 0.09311817,0.09696 0.13967725,0.145178 0.0465591,0.04822 0.0931182,0.09626 0.13967725,0.14414 0.0465591,0.04787 0.0931182,0.09558 0.13967724,0.143112 0.0465591,0.04753 0.0931182,0.0949 0.13967725,0.142092 0.0465591,0.04719 0.0931182,0.09422 0.13967725,0.141081 0.0465591,0.04686 0.0931182,0.09355 0.13967725,0.140078 0.0465591,0.04653 0.0931182,0.09289 0.13967724,0.139084 0.0465591,0.0462 0.0931182,0.09223 0.13967721,0.138099 0.046559,0.04587 0.093118,0.09158 0.1396773,0.137122 0.046559,0.04555 0.093118,0.09093 0.1396772,0.136153 0.046559,0.04522 0.093118,0.09029 0.1396773,0.135192 0.046559,0.0449 0.093118,0.08965 0.1396772,0.13424 0.046559,0.04459 0.093118,0.08902 0.1396773,0.133295 0.046559,0.04427 0.093118,0.08839 0.1396772,0.132359 0.046559,0.04396 0.093118,0.08777 0.1396773,0.13143 0.046559,0.04366 0.093118,0.08716 0.1396772,0.130509 0.046559,0.04335 0.093118,0.08655 0.1396773,0.129596 0.046559,0.04305 0.093118,0.08594 0.1396772,0.128691 0.046559,0.04275 0.093118,0.08534 0.1396773,0.127792 0.046559,0.04245 0.093118,0.08475 0.1396772,0.126903 0.046559,0.04215 0.093118,0.08416 0.1396773,0.126019 0.046559,0.04186 0.093118,0.08357 0.1396772,0.125144 0.046559,0.04157 0.093118,0.08299 0.1396772,0.124276 0.046559,0.04128 0.093118,0.08242 0.1396773,0.123414 0.046559,0.041 0.093118,0.08185 0.1396772,0.122561 0.046559,0.04071 0.093118,0.08128 0.1396773,0.121714 0.046559,0.04043 0.093118,0.08072 0.1396772,0.120874 0.046559,0.04015 0.093118,0.08017 0.1396773,0.120041 0.046559,0.03988 0.093118,0.07961 0.1396772,0.119215 0.046559,0.0396 0.093118,0.07907 0.1396773,0.118396 0.046559,0.03933 0.093118,0.07852 0.1396772,0.117584 0.046559,0.03906 0.093118,0.07799 0.1396773,0.116777 0.046559,0.03879 0.093118,0.07745 0.1396772,0.115979 0.046559,0.03853 0.093118,0.07692 0.1396773,0.115186 0.046559,0.03826 0.093118,0.0764 0.1396772,0.1144 0.046559,0.038 0.093118,0.07588 0.1396773,0.11362 0.046559,0.03775 0.093118,0.07536 0.1396772,0.112847 0.046559,0.03749 0.093118,0.07485 0.1396773,0.11208 0.046559,0.03723 0.093118,0.07434 0.1396772,0.111319 0.046559,0.03698 0.093118,0.07384 0.1396773,0.110565 0.046559,0.03673 0.093118,0.07334 0.1396772,0.109816 0.046559,0.03648 0.093118,0.07284 0.1396772,0.109074 0.046559,0.03623 0.093118,0.07235 0.1396773,0.108338 0.046559,0.03599 0.093118,0.07186 0.1396772,0.107607 0.046559,0.03575 0.093118,0.07137 0.1396773,0.106883 0.046559,0.03551 0.093118,0.0709 0.1396772,0.106164 0.046559,0.03527 0.093118,0.07042 0.1396773,0.105451 0.046559,0.03503 0.093118,0.06995 0.1396772,0.104744 0.046559,0.0348 0.093118,0.06948 0.1396773,0.104043 0.046559,0.03456 0.093118,0.06901 0.1396772,0.103346 0.046559,0.03433 0.093118,0.06855 0.1396773,0.102657 0.046559,0.03411 0.093118,0.06809 0.1396772,0.101972 0.046559,0.03388 0.093118,0.06764 0.1396773,0.101293 0.046559,0.03365 0.093118,0.06719 0.1396772,0.100618 0.046559,0.03343 0.093118,0.06675 0.1396773,0.09995 0.046559,0.03321 0.093118,0.0663 0.1396772,0.09929 0.046559,0.03299 0.093118,0.06586 0.1396773,0.09863 0.046559,0.03277 0.093118,0.06543 0.1396772,0.09798 0.046559,0.03255 0.093118,0.06499 0.1396772,0.09733 0.046559,0.03234 0.093118,0.06456 0.1396773,0.09669 0.046559,0.03212 0.093118,0.06414 0.1396772,0.09605 0.046559,0.03191 0.093118,0.06372 0.1396773,0.09542 0.046559,0.0317 0.093118,0.0633 0.1396772,0.09479 0.046559,0.03149 0.093118,0.06288 0.1396773,0.09417 0.046559,0.03129 0.093118,0.06247 0.1396772,0.09355 0.046559,0.03108 0.093118,0.06206 0.1396773,0.09294 0.046559,0.03088 0.093118,0.06165 0.1396772,0.09233 0.046559,0.03068 0.093118,0.06125 0.1396773,0.09173 0.046559,0.03048 0.093118,0.06085 0.1396772,0.09113 0.046559,0.03028 0.093118,0.06045 0.1396773,0.09053 0.046559,0.03008 0.093118,0.06006 0.1396772,0.08995 0.046559,0.02989 0.093118,0.05967 0.1396772,0.08936 0.04656,0.02969 0.09312,0.05928 0.139677,0.08878 0.04656,0.0295 0.09312,0.0589 0.139678,0.08821 0.04656,0.02931 0.09312,0.05852 0.139677,0.08764 0.04656,0.02912 0.09312,0.05814 0.139677,0.08707 0.04656,0.02893 0.09312,0.05776 0.139677,0.08651 0.04656,0.02874 0.09312,0.05739 0.139678,0.08595 0.04656,0.02856 0.09312,0.05702 0.139677,0.0854 0.04656,0.02837 0.09312,0.05666 0.139677,0.08485 0.04656,0.02819 0.09312,0.05629 0.139677,0.0843 0.04656,0.02801 0.09312,0.05593 0.139678,0.08376 0.04656,0.02783 0.09312,0.05557 0.139677,0.08323 0.04656,0.02765 0.09312,0.05522 0.139677,0.08269 0.04656,0.02748 0.09312,0.05486 0.139677,0.08216 0.04656,0.0273 0.09312,0.05452 0.139678,0.08164 0.04656,0.02713 0.09312,0.05417 0.139677,0.08112 0.04656,0.02695 0.09312,0.05382 0.139677,0.0806 0.04656,0.02678 0.09312,0.05348 0.139677,0.08009 0.04656,0.02661 0.09312,0.05314 0.139678,0.07958 0.04656,0.02644 0.09312,0.0528 0.139677,0.07908 0.04656,0.02628 0.09312,0.05247 0.139677,0.07858 0.04656,0.02611 0.09312,0.05214 0.139677,0.07808 0.04656,0.02595 0.09312,0.05181 0.139678,0.07759 0.04656,0.02578 0.09312,0.05148 0.139677,0.0771 0.04656,0.02562 0.09312,0.05116 0.139677,0.07661 0.04656,0.02546 0.09312,0.05083 0.139677,0.07613 0.04656,0.0253 0.09312,0.05052 0.139677,0.07565 0.04656,0.02514 0.09312,0.0502 0.139678,0.07518 0.04656,0.02498 0.09312,0.04988 0.139677,0.07471 0.04656,0.02482 0.09312,0.04957 0.139677,0.07424 0.04656,0.02467 0.09312,0.04926 0.139677,0.07377 0.04656,0.02452 0.09312,0.04895 0.139678,0.07331 0.04656,0.02436 0.09312,0.04865 0.139677,0.07286 0.04656,0.02421 0.09312,0.04834 0.139677,0.0724 0.04656,0.02406 0.09312,0.04804 0.139677,0.07195 0.04656,0.02391 0.09312,0.04774 0.139678,0.0715 0.04656,0.02376 0.09312,0.04745 0.139677,0.07106 0.04656,0.02361 0.09312,0.04715 0.139677,0.07062 0.04656,0.02347 0.09312,0.04686 0.139677,0.07019 0.04656,0.02332 0.09312,0.04657 0.139678,0.06975 0.04656,0.02318 0.09312,0.04628 0.139677,0.06932 0.04656,0.02304 0.09312,0.046 0.139677,0.06889 0.04656,0.02289 0.09312,0.04572 0.139677,0.06847 0.04656,0.02275 0.09312,0.04543 0.139678,0.06805 0.04656,0.02261 0.09312,0.04516 0.139677,0.06763 0.04656,0.02247 0.09312,0.04488 0.139677,0.06721 0.04656,0.02234 0.09312,0.0446 0.139677,0.0668 0.04656,0.0222 0.09312,0.04433 0.139678,0.06639 0.04656,0.02206 0.09312,0.04406 0.139677,0.06599 0.04656,0.02193 0.09312,0.04379 0.139677,0.06558 0.04656,0.02179 0.09312,0.04352 0.139677,0.06518 0.04656,0.02166 0.09312,0.04326 0.139678,0.06479 0.04656,0.02153 0.09312,0.04299 0.139677,0.06439 0.04656,0.0214 0.09312,0.04273 0.139677,0.064 0.04656,0.02127 0.09312,0.04247 0.139677,0.06361 0.04656,0.02114 0.09312,0.04221 0.139678,0.06323 0.04656,0.02101 0.09312,0.04196 0.139677,0.06284 0.04656,0.02088 0.09312,0.04171 0.139677,0.06246 0.04656,0.02076 0.09312,0.04145 0.139677,0.06208 0.04656,0.02063 0.09312,0.0412 0.139678,0.06171 0.04656,0.02051 0.09312,0.04096 0.139677,0.06134 0.04656,0.02039 0.09312,0.04071 0.139677,0.06097 0.04656,0.02026 0.09312,0.04046 0.139677,0.0606 0.04656,0.02014 0.09312,0.04022 0.139678,0.06024 0.04656,0.02002 0.09312,0.03998 0.139677,0.05988 0.04656,0.0199 0.09312,0.03974 0.139677,0.05952 0.04656,0.01978 0.09312,0.0395 0.139677,0.05916 0.04656,0.01966 0.09312,0.03927 0.139678,0.05881 0.04656,0.01955 0.09312,0.03903 0.139677,0.05846 0.04656,0.01943 0.09312,0.0388 0.139677,0.05811 0.04656,0.01931 0.09312,0.03857 0.139677,0.05776 0.04656,0.0192 0.09312,0.03834 0.139678,0.05742 0.04656,0.01908 0.09312,0.03811 0.139677,0.05708 0.04656,0.01897 0.09312,0.03788 0.139677,0.05674 0.04656,0.01886 0.09312,0.03766 0.139677,0.0564 0.04656,0.01875 0.09312,0.03744 0.139678,0.05607 0.04656,0.01863 0.09312,0.03721 0.139677,0.05574 0.04656,0.01853 0.09312,0.037 0.139677,0.05541 0.04656,0.01842 0.09312,0.03678 0.139677,0.05508 0.04656,0.01831 0.09312,0.03656 0.139678,0.05476 0.04656,0.0182 0.09312,0.03634 0.139677,0.05444 0.04656,0.01809 0.09312,0.03613 0.139677,0.05412 0.04656,0.01799 0.09312,0.03592 0.139677,0.0538 0.04656,0.01788 0.09312,0.03571 0.139678,0.05348 0.04656,0.01778 0.09312,0.0355 0.139677,0.05317 0.04656,0.01767 0.09312,0.03529 0.139677,0.05286 0.04656,0.01757 0.09312,0.03508 0.139677,0.05255 0.04656,0.01746 0.09312,0.03488 0.139678,0.05224 0.04656,0.01736 0.09312,0.03468 0.139677,0.05194 0.04656,0.01726 0.09312,0.03447 0.139677,0.05164 0.04656,0.01716 0.09312,0.03427 0.139677,0.05134 0.04656,0.01706 0.09312,0.03407 0.139678,0.05104 0.04656,0.01696 0.09312,0.03388 0.139677,0.05074 0.04656,0.01686 0.09312,0.03368 0.139677,0.05045 0.04656,0.01677 0.09312,0.03348 0.139677,0.05016 0.04656,0.01667 0.09312,0.03329 0.139678,0.04987 0.04656,0.01657 0.09312,0.0331 0.139677,0.04958 0.04656,0.01648 0.09312,0.03291 0.139677,0.04929 0.04656,0.01638 0.09312,0.03272 0.139677,0.04901 0.04656,0.01629 0.09312,0.03253 0.139678,0.04873 0.04656,0.01619 0.09312,0.03234 0.139677,0.04845 0.04656,0.0161 0.09312,0.03216 0.139677,0.04817 0.04656,0.01601 0.09312,0.03197 0.139677,0.04789 0.04656,0.01592 0.09312,0.03179 0.139678,0.04762 0.04656,0.01583 0.09312,0.03161 0.139677,0.04734 0.04656,0.01574 0.09312,0.03143 0.139677,0.04707 0.04656,0.01565 0.09312,0.03125 0.139677,0.0468 0.04656,0.01556 0.09312,0.03107 0.139678,0.04654 0.04656,0.01547 0.09312,0.03089 0.139677,0.04627 0.04656,0.01538 0.09312,0.03072 0.139677,0.04601 0.04656,0.01529 0.09312,0.03054 0.139677,0.04575 0.04656,0.01521 0.09312,0.03037 0.139678,0.04549 0.04656,0.01512 0.09312,0.0302 0.139677,0.04523 0.04656,0.01503 0.09312,0.03002 0.139677,0.04497 0.04656,0.01495 0.09312,0.02985 0.139677,0.04472 0.04656,0.01486 0.09312,0.02969 0.139677,0.04447 0.04656,0.01478 0.09312,0.02952 0.139678,0.04422 0.04656,0.0147 0.09312,0.02935 0.139677,0.04397 0.04656,0.01461 0.09312,0.02919 0.139677,0.04372 0.04656,0.01453 0.09312,0.02902 0.139677,0.04347 0.04656,0.01445 0.09312,0.02886 0.139678,0.04323 0.04656,0.01437 0.09312,0.0287 0.139677,0.04298 0.04656,0.01429 0.09312,0.02854 0.139677,0.04274 0.04656,0.01421 0.09312,0.02838 0.139677,0.0425 0.04656,0.01413 0.09312,0.02822 0.139678,0.04227 0.04656,0.01405 0.09312,0.02806 0.139677,0.04203 0.04656,0.01397 0.09312,0.0279 0.139677,0.0418 0.04656,0.01389 0.09312,0.02775 0.139677,0.04156 0.04656,0.01382 0.09312,0.02759 0.139678,0.04133 0.04656,0.01374 0.09312,0.02744 0.139677,0.0411 0.04656,0.01366 0.09312,0.02729 0.139677,0.04087 0.04656,0.01359 0.09312,0.02713 0.139677,0.04065 0.04656,0.01351 0.09312,0.02698 0.139678,0.04042 0.04656,0.01344 0.09312,0.02683 0.139677,0.0402 0.04656,0.01336 0.09312,0.02669 0.139677,0.03997 0.04656,0.01329 0.09312,0.02654 0.139677,0.03975 0.04656,0.01321 0.09312,0.02639 0.139678,0.03953 0.04656,0.01314 0.09312,0.02625 0.139677,0.03932 0.04656,0.01307 0.09312,0.0261 0.139677,0.0391 0.04656,0.013 0.09312,0.02596 0.139677,0.03888 0.04656,0.01293 0.09312,0.02582 0.139678,0.03867 0.04656,0.01285 0.09312,0.02567 0.139677,0.03846 0.04656,0.01278 0.09312,0.02553 0.139677,0.03825 0.04656,0.01271 0.09312,0.02539 0.139677,0.03804 0.04656,0.01264 0.09312,0.02525 0.139678,0.03783 0.04656,0.01258 0.09312,0.02512 0.139677,0.03762 0.04656,0.01251 0.09312,0.02498 0.139677,0.03742 0.04656,0.01244 0.09312,0.02484 0.139677,0.03721 0.04656,0.01237 0.09312,0.02471 0.139678,0.03701 0.04656,0.0123 0.09312,0.02457 0.139677,0.03681 0.04656,0.01224 0.09312,0.02444 0.139677,0.03661 0.04656,0.01217 0.09312,0.02431 0.139677,0.03641 0.04656,0.0121 0.09312,0.02417 0.139678,0.03621 0.04656,0.01204 0.09312,0.02404 0.139677,0.03602 0.04656,0.01197 0.09312,0.02391 0.139677,0.03582 0.04656,0.01191 0.09312,0.02378 0.139677,0.03563 0.04656,0.01184 0.09312,0.02366 0.139678,0.03543 0.04656,0.01178 0.09312,0.02353 0.139677,0.03524 0.04656,0.01172 0.09312,0.0234 0.139677,0.03505 0.04656,0.01165 0.09312,0.02328 0.139677,0.03486 0.04656,0.01159 0.09312,0.02315 0.139678,0.03468 0.04656,0.01153 0.09312,0.02302 0.139677,0.03449 0.04656,0.01147 0.09312,0.0229 0.139677,0.03431 0.04656,0.0114 0.09312,0.02278 0.139677,0.03412 0.04656,0.01134 0.09312,0.02266 0.139678,0.03394 0.04656,0.01128 0.09312,0.02254 0.139677,0.03376 0.04656,0.01122 0.09312,0.02241 0.139677,0.03358 0.04656,0.01116 0.09312,0.0223 0.139677,0.0334 0.04656,0.0111 0.09312,0.02218 0.139678,0.03322 0.04656,0.01104 0.09312,0.02206 0.139677,0.03304 0.04656,0.01098 0.09312,0.02194 0.139677,0.03287 0.04656,0.01093 0.09312,0.02182 0.139677,0.03269 0.04656,0.01087 0.09312,0.02171 0.139678,0.03252 0.04656,0.01081 0.09312,0.02159 0.139677,0.03235 0.04656,0.01075 0.09312,0.02148 0.139677,0.03218 0.04656,0.0107 0.09312,0.02136 0.139677,0.032 0.04656,0.01064 0.09312,0.02125 0.139678,0.03184 0.04656,0.01058 0.09312,0.02114 0.139677,0.03167 0.04656,0.01053 0.09312,0.02103 0.139677,0.0315 0.04656,0.01047 0.09312,0.02092 0.139677,0.03133 0.04656,0.01042 0.09312,0.02081 0.139678,0.03117 0.04656,0.01036 0.09312,0.0207 0.139677,0.03101 0.04656,0.01031 0.09312,0.02059 0.139677,0.03084 0.04656,0.01025 0.09312,0.02048 0.139677,0.03068 0.04656,0.0102 0.09312,0.02037 0.139678,0.03052 0.04656,0.01015 0.09312,0.02027 0.139677,0.03036 0.04656,0.01009 0.09312,0.02016 0.139677,0.0302 0.04656,0.01004 0.09312,0.02005 0.139677,0.03004 0.04656,0.01 0.09312,0.01995 0.139678,0.02989 0.04656,0.0099 0.09312,0.01985 0.139677,0.02973 0.04656,0.0099 0.09312,0.01974 0.139677,0.02958 0.04656,0.0098 0.09312,0.01964 0.139677,0.02942 0.04656,0.0098 0.09312,0.01954 0.139678,0.02927 0.04656,0.0097 0.09312,0.01944 0.139677,0.02912 0.04656,0.0097 0.09312,0.01933 0.139677,0.02896 0.04656,0.0096 0.09312,0.01924 0.139677,0.02882 0.04656,0.0096 0.09312,0.01913 0.139678,0.02867 0.04656,0.0095 0.09312,0.01904 0.139677,0.02852 0.04656,0.0095 0.09312,0.01894 0.139677,0.02837 0.04656,0.0094 0.09312,0.01884 0.139677,0.02822 0.04656,0.0094 0.09312,0.01874 0.139678,0.02808 0.04656,0.0093 0.09312,0.01865 0.139677,0.02793 0.04656,0.0093 0.09312,0.01855 0.139677,0.02779 0.04656,0.0092 0.09312,0.01845 0.139677,0.02765 0.04656,0.0092 0.09312,0.01836 0.139678,0.02751 0.04656,0.0091 0.09312,0.01827 0.139677,0.02736 0.04656,0.0091 0.09312,0.01817 0.139677,0.02722 0.04656,0.0091 0.09312,0.01808 0.139677,0.02708 0.04656,0.009 0.09312,0.01799 0.139677,0.02695 0.04656,0.009 0.09312,0.0179 0.139678,0.02681 0.04656,0.0089 0.09312,0.0178 0.139677,0.02667 0.04656,0.0089 0.09312,0.01771 0.139677,0.02654 0.04656,0.0088 0.09312,0.01762 0.139677,0.0264 0.04656,0.0088 0.09312,0.01753 0.139678,0.02627 0.04656,0.0087 0.09312,0.01744 0.139677,0.02613 0.04656,0.0087 0.09312,0.01735 0.139677,0.026 0.04656,0.0086 0.09312,0.01727 0.139677,0.02587 0.04656,0.0086 0.09312,0.01718 0.139678,0.02574 0.04656,0.0086 0.09312,0.01709 0.139677,0.02561 0.04656,0.0085 0.09312,0.01701 0.139677,0.02548 0.04656,0.0085 0.09312,0.01692 0.139677,0.02535 0.04656,0.0084 0.09312,0.01684 0.139678,0.02522 0.04656,0.0084 0.09312,0.01675 0.139677,0.02509 0.04656,0.0083 0.09312,0.01667 0.139677,0.02497 0.04656,0.0083 0.09312,0.01658 0.139677,0.02484 0.04656,0.0083 0.09312,0.0165 0.139678,0.02472 0.04656,0.0082 0.09312,0.01642 0.139677,0.02459 0.04656,0.0082 0.09312,0.01633 0.139677,0.02447 0.04656,0.0081 0.09312,0.01625 0.139677,0.02435 0.04656,0.0081 0.09312,0.01617 0.139678,0.02422 0.04656,0.0081 0.09312,0.01609 0.139677,0.0241 0.04656,0.008 0.09312,0.01601 0.139677,0.02398 0.04656,0.008 0.09312,0.01593 0.139677,0.02386 0.04656,0.0079 0.09312,0.01585 0.139678,0.02374 0.04656,0.0079 0.09312,0.01577 0.139677,0.02363 0.04656,0.0079 0.09312,0.01569 0.139677,0.02351 0.04656,0.0078 0.09312,0.01561 0.139677,0.02339 0.04656,0.0078 0.09312,0.01554 0.139678,0.02328 0.04656,0.0077 0.09312,0.01546 0.139677,0.02316 0.04656,0.0077 0.09312,0.01538 0.139677,0.02305 0.04656,0.0077 0.09312,0.01531 0.139677,0.02293 0.04656,0.0076 0.09312,0.01523 0.139678,0.02282 0.04656,0.0076 0.09312,0.01516 0.139677,0.0227 0.04656,0.0076 0.09312,0.01508 0.139677,0.02259 0.04656,0.0075 0.09312,0.01501 0.139677,0.02248 0.04656,0.0075 0.09312,0.01493 0.139678,0.02237 0.04656,0.0074 0.09312,0.01486 0.139677,0.02226 0.04656,0.0074 0.09312,0.01478 0.139677,0.02215 0.04656,0.0074 0.09312,0.01471 0.139677,0.02204 0.04656,0.0073 0.09312,0.01464 0.139678,0.02193 0.04656,0.0073 0.09312,0.01457 0.139677,0.02183 0.04656,0.0073 0.09312,0.0145 0.139677,0.02172 0.04656,0.0072 0.09312,0.01443 0.139677,0.02161 0.04656,0.0072 0.09312,0.01435 0.139678,0.02151 0.04656,0.0072 0.09312,0.01429 0.139677,0.0214 0.04656,0.0071 0.09312,0.01422 0.139677,0.0213 0.04656,0.0071 0.09312,0.01415 0.139677,0.02119 0.04656,0.007 0.09312,0.01408 0.139678,0.02109 0.04656,0.007 0.09312,0.01401 0.139677,0.02099 0.04656,0.007 0.09312,0.01394 0.139677,0.02089 0.04656,0.0069 0.09312,0.01387 0.139677,0.02078 0.04656,0.0069 0.09312,0.01381 0.139678,0.02068 0.04656,0.0069 0.09312,0.01374 0.139677,0.02058 0.04656,0.0068 0.09312,0.01367 0.139677,0.02048 0.04656,0.0068 0.09312,0.01361 0.139677,0.02038 0.04656,0.0068 0.09312,0.01354 0.139678,0.02029 0.04656,0.0067 0.09312,0.01348 0.139677,0.02019 0.04656,0.0067 0.09312,0.01341 0.139677,0.02009 0.04656,0.0067 0.09312,0.01335 0.139677,0.01999 0.04656,0.0066 0.09312,0.01328 0.139678,0.0199 0.04656,0.0066 0.09312,0.01322 0.139677,0.0198 0.04656,0.0066 0.09312,0.01315 0.139677,0.01971 0.04656,0.0066 0.09312,0.01309 0.139677,0.01961 0.04656,0.0065 0.09312,0.01303 0.139678,0.01952 0.04656,0.0065 0.09312,0.01297 0.139677,0.01942 0.04656,0.0065 0.09312,0.0129 0.139677,0.01933 0.04656,0.0064 0.09312,0.01284 0.139677,0.01924 0.04656,0.0064 0.09312,0.01278 0.139678,0.01915 0.04656,0.0064 0.09312,0.01272 0.139677,0.01906 0.04656,0.0063 0.09312,0.01266 0.139677,0.01897 0.04656,0.0063 0.09312,0.0126 0.139677,0.01887 0.04656,0.0063 0.09312,0.01254 0.139678,0.01879 0.04656,0.0062 0.09312,0.01248 0.139677,0.0187 0.04656,0.0062 0.09312,0.01242 0.139677,0.01861 0.04656,0.0062 0.09312,0.01236 0.139677,0.01852 0.04656,0.0062 0.09312,0.0123 0.139678,0.01843 0.04656,0.0061 0.09312,0.01224 0.139677,0.01834 0.04656,0.0061 0.09312,0.01219 0.139677,0.01826 0.04656,0.0061 0.09312,0.01213 0.139677,0.01817 0.04656,0.006 0.09312,0.01207 0.139678,0.01808 0.04656,0.006 0.09312,0.01201 0.139677,0.018 0.04656,0.006 0.09312,0.01196 0.139677,0.01791 0.04656,0.006 0.09312,0.0119 0.139677,0.01783 0.04656,0.0059 0.09312,0.01185 0.139678,0.01775 0.04656,0.0059 0.09312,0.01179 0.139677,0.01766 0.04656,0.0059 0.09312,0.01173 0.139677,0.01758 0.04656,0.0058 0.09312,0.01168 0.139677,0.0175 0.04656,0.0058 0.09312,0.01162 0.139677,0.01742 0.04656,0.0058 0.09312,0.01157 0.139678,0.01733 0.04656,0.0058 0.09312,0.01152 0.139677,0.01725 0.04656,0.0057 0.09312,0.01146 0.139677,0.01717 0.04656,0.0057 0.09312,0.01141 0.139677,0.01709 0.04656,0.0057 0.09312,0.01135 0.139678,0.01701 0.04656,0.0057 0.09312,0.0113 0.139677,0.01693 0.04656,0.0056 0.09312,0.01125 0.139677,0.01685 0.04656,0.0056 0.09312,0.0112 0.139677,0.01678 0.04656,0.0056 0.09312,0.01114 0.139678,0.0167 0.04656,0.0056 0.09312,0.01109 0.139677,0.01662 0.04656,0.0055 0.09312,0.01104 0.139677,0.01654 0.04656,0.0055 0.09312,0.01099 0.139677,0.01647 0.04656,0.0055 0.09312,0.01094 0.139678,0.01639 0.04656,0.0055 0.09312,0.01089 0.139677,0.01631 0.04656,0.0054 0.09312,0.01084 0.139677,0.01624 0.04656,0.0054 0.09312,0.01079 0.139677,0.01616 0.04656,0.0054 0.09312,0.01074 0.139678,0.01609 0.04656,0.0054 0.09312,0.01069 0.139677,0.01602 0.04656,0.0053 0.09312,0.01064 0.139677,0.01594 0.04656,0.0053 0.09312,0.01059 0.139677,0.01587 0.04656,0.0053 0.09312,0.01054 0.139678,0.01579 0.04656,0.0053 0.09312,0.01049 0.139677,0.01572 0.04656,0.0052 0.09312,0.01044 0.139677,0.01565 0.04656,0.0052 0.09312,0.0104 0.139677,0.01558 0.04656,0.0052 0.09312,0.01035 0.139678,0.01551 0.04656,0.0052 0.09312,0.0103 0.139677,0.01544 0.04656,0.0051 0.09312,0.01026 0.139677,0.01537 0.04656,0.0051 0.09312,0.01021 0.139677,0.0153 0.04656,0.0051 0.09312,0.01016 0.139678,0.01523 0.04656,0.0051 0.09312,0.01012 0.139677,0.01516 0.04656,0.005 0.09312,0.01007 0.139677,0.01509 0.04656,0.005 0.09312,0.01002 0.139677,0.01502 0.04656,0.005 0.09312,0.01 0.139678,0.01495 0.04656,0.005 0.09312,0.0099 0.139677,0.01488 0.04656,0.0049 0.09312,0.0099 0.139677,0.01481 0.04656,0.0049 0.09312,0.0098 0.139677,0.01475 0.04656,0.0049 0.09312,0.0098 0.139678,0.01468 0.04656,0.0049 0.09312,0.0098 0.139677,0.01461 0.04656,0.0049 0.09312,0.0097 0.139677,0.01455 0.04656,0.0048 0.09312,0.0097 0.139677,0.01448 0.04656,0.0048 0.09312,0.0096 0.139678,0.01442 0.04656,0.0048 0.09312,0.0096 0.139677,0.01435 0.04656,0.0048 0.09312,0.0095 0.139677,0.01429 0.04656,0.0048 0.09312,0.0095 0.139677,0.01422 0.04656,0.0047 0.09312,0.0095 0.139678,0.01416 0.04656,0.0047 0.09312,0.0094 0.139677,0.01409 0.04656,0.0047 0.09312,0.0094 0.139677,0.01403 0.04656,0.0047 0.09312,0.0093 0.139677,0.01397 0.04656,0.0046 0.09312,0.0093 0.139678,0.01391 0.04656,0.0046 0.09312,0.0092 0.139677,0.01384 0.04656,0.0046 0.09312,0.0092 0.139677,0.01378 0.04656,0.0046 0.09312,0.0092 0.139677,0.01372 0.04656,0.0046 0.09312,0.0091 0.139678,0.01366 0.04656,0.0045 0.09312,0.0091 0.139677,0.0136 0.04656,0.0045 0.09312,0.009 0.139677,0.01354 0.04656,0.0045 0.09312,0.009 0.139677,0.01348 0.04656,0.0045 0.09312,0.009 0.139678,0.01342 0.04656,0.0045 0.09312,0.0089 0.139677,0.01336 0.04656,0.0044 0.09312,0.0089 0.139677,0.0133 0.04656,0.0044 0.09312,0.0088 0.139677,0.01324 0.04656,0.0044 0.09312,0.0088 0.139678,0.01318 0.04656,0.0044 0.09312,0.0088 0.139677,0.01312 0.04656,0.0044 0.09312,0.0087 0.139677,0.01306 0.04656,0.0043 0.09312,0.0087 0.139677,0.01301 0.04656,0.0043 0.09312,0.0086 0.139678,0.01295 0.04656,0.0043 0.09312,0.0086 0.139677,0.01289 0.04656,0.0043 0.09312,0.0086 0.139677,0.01283 0.04656,0.0043 0.09312,0.0085 0.139677,0.01278 0.04656,0.0042 0.09312,0.0085 0.139678,0.01272 0.04656,0.0042 0.09312,0.0085 0.139677,0.01267 0.04656,0.0042 0.09312,0.0084 0.139677,0.01261 0.04656,0.0042 0.09312,0.0084 0.139677,0.01256 0.04656,0.0042 0.09312,0.0083 0.139678,0.0125 0.04656,0.0042 0.09312,0.0083 0.139677,0.01245 0.04656,0.0041 0.09312,0.0083 0.139677,0.01239 0.04656,0.0041 0.09312,0.0082 0.139677,0.01234 0.04656,0.0041 0.09312,0.0082 0.139678,0.01228 0.04656,0.0041 0.09312,0.0082 0.139677,0.01223 0.04656,0.0041 0.09312,0.0081 0.139677,0.01218 0.04656,0.004 0.09312,0.0081 0.139677,0.01212 0.04656,0.004 0.09312,0.0081 0.139678,0.01207 0.04656,0.004 0.09312,0.008 0.139677,0.01202 0.04656,0.004 0.09312,0.008 0.139677,0.01197 0.04656,0.004 0.09312,0.0079 0.139677,0.01191 0.04656,0.004 0.09312,0.0079 0.139678,0.01186 0.04656,0.0039 0.09312,0.0079 0.139677,0.01181 0.04656,0.0039 0.09312,0.0078 0.139677,0.01176 0.04656,0.0039 0.09312,0.0078 0.139677,0.01171 0.04656,0.0039 0.09312,0.0078 0.139678,0.01166 0.04656,0.0039 0.09312,0.0077 0.139677,0.01161 0.04656,0.0039 0.09312,0.0077 0.139677,0.01156 0.04656,0.0038 0.09312,0.0077 0.139677,0.01151 0.04656,0.0038 0.09312,0.0076 0.139677,0.01146 0.04656,0.0038 0.09312,0.0076 0.139678,0.01141 0.04656,0.0038 0.09312,0.0076 0.139677,0.01136 0.04656,0.0038 0.09312,0.0075 0.139677,0.01131 0.04656,0.0038 0.09312,0.0075 0.139677,0.01126 0.04656,0.0037 0.09312,0.0075 0.139678,0.01121 0.04656,0.0037 0.09312,0.0075 0.139677,0.01117 0.04656,0.0037 0.09312,0.0074 0.139677,0.01112 0.04656,0.0037 0.09312,0.0074 0.139677,0.01107 0.04656,0.0037 0.09312,0.0074 0.139678,0.01102 0.04656,0.0037 0.09312,0.0073 0.139677,0.01098 0.04656,0.0037 0.09312,0.0073 0.139677,0.01093 0.04656,0.0036 0.09312,0.0073 0.139677,0.01088 0.04656,0.0036 0.09312,0.0072 0.139678,0.01084 0.04656,0.0036 0.09312,0.0072 0.139677,0.01079 0.04656,0.0036 0.09312,0.0072 0.139677,0.01074 0.04656,0.0036 0.09312,0.0071 0.139677,0.0107 0.04656,0.0036 0.09312,0.0071 0.139678,0.01065 0.04656,0.0035 0.09312,0.0071 0.139677,0.01061 0.04656,0.0035 0.09312,0.007 0.139677,0.01056 0.04656,0.0035 0.09312,0.007 0.139677,0.01052 0.04656,0.0035 0.09312,0.007 0.139678,0.01047 0.04656,0.0035 0.09312,0.007 0.139677,0.01043 0.04656,0.0035 0.09312,0.0069 0.139677,0.01038 0.04656,0.0035 0.09312,0.0069 0.139677,0.01034 0.04656,0.0034 0.09312,0.0069 0.139678,0.0103 0.04656,0.0034 0.09312,0.0068 0.139677,0.01025 0.04656,0.0034 0.09312,0.0068 0.139677,0.01021 0.04656,0.0034 0.09312,0.0068 0.139677,0.01017 0.04656,0.0034 0.09312,0.0068 0.139678,0.01012 0.04656,0.0034 0.09312,0.0067 0.139677,0.01008 0.04656,0.0034 0.09312,0.0067 0.139677,0.01004 0.04656,0.0033 0.09312,0.0067 0.139677,0.01 0.04656,0.0033 0.09312,0.0066 0.139678,0.01 l 0.139677,0.0099 0.139677,0.0099 c 0.04656,0.0033 0.09312,0.0066 0.139677,0.0098 0.04656,0.0033 0.09312,0.0065 0.139678,0.0098 0.04656,0.0033 0.09312,0.0065 0.139677,0.0097 0.04656,0.0032 0.09312,0.0065 0.139677,0.0097 0.04656,0.0032 0.09312,0.0065 0.139677,0.0097 l 0.139678,0.0096 0.139677,0.0096 c 0.04656,0.0032 0.09312,0.0064 0.139677,0.0095 0.04656,0.0032 0.09312,0.0063 0.139677,0.0095 0.04656,0.0032 0.09312,0.0063 0.139678,0.0095 0.04656,0.0031 0.09312,0.0063 0.139677,0.0094 0.04656,0.0031 0.09312,0.0063 0.139677,0.0094 0.04656,0.0031 0.09312,0.0062 0.139677,0.0094 l 0.139678,0.0093 0.139677,0.0093 c 0.04656,0.0031 0.09312,0.0062 0.139677,0.0092 0.04656,0.0031 0.09312,0.0061 0.139677,0.0092 0.04656,0.0031 0.09312,0.0061 0.139678,0.0092 0.04656,0.003 0.09312,0.0061 0.139677,0.0091 0.04656,0.003 0.09312,0.0061 0.139677,0.0091 l 0.139677,0.009 0.139678,0.009 0.139677,0.009 c 0.04656,0.003 0.09312,0.006 0.139677,0.0089 0.04656,0.003 0.09312,0.0059 0.139677,0.0089 0.04656,0.003 0.09312,0.0059 0.139678,0.0089 0.04656,0.0029 0.09312,0.0059 0.139677,0.0088 0.04656,0.0029 0.09312,0.0059 0.139677,0.0088 0.04656,0.0029 0.09312,0.0058 0.139677,0.0088 l 0.139678,0.0087 0.139677,0.0087 c 0.04656,0.0029 0.09312,0.0058 0.139677,0.0086 0.04656,0.0029 0.09312,0.0057 0.139677,0.0086 0.04656,0.0029 0.09312,0.0057 0.139678,0.0086 0.04656,0.0029 0.09312,0.0057 0.139677,0.0085 0.04656,0.0028 0.09312,0.0057 0.139677,0.0085 0.04656,0.0028 0.09312,0.0057 0.139677,0.0085 l 0.139678,0.0084 0.139677,0.0084 0.139677,0.0084 c 0.04656,0.0028 0.09312,0.0056 0.139677,0.0083 0.04656,0.0028 0.09312,0.0055 0.139678,0.0083 0.04656,0.0028 0.09312,0.0055 0.139677,0.0083 0.04656,0.0027 0.09312,0.0055 0.139677,0.0082 0.04656,0.0027 0.09312,0.0055 0.139677,0.0082 0.04656,0.0027 0.09312,0.0055 0.139678,0.0082 l 0.139677,0.0081 0.139677,0.0081 0.139677,0.0081 c 0.04656,0.0027 0.09312,0.0054 0.139678,0.008 0.04656,0.0027 0.09312,0.0053 0.139677,0.008 0.04656,0.0027 0.09312,0.0053 0.139677,0.008 0.04656,0.0027 0.09312,0.0053 0.139677,0.0079 0.04656,0.0026 0.09312,0.0053 0.139677,0.0079 0.04656,0.0026 0.09312,0.0053 0.139678,0.0079 l 0.139677,0.0078 0.139677,0.0078 0.139677,0.0078 0.139678,0.0078 c 0.04656,0.0026 0.09312,0.0052 0.139677,0.0077 0.04656,0.0026 0.09312,0.0051 0.139677,0.0077 0.04656,0.0026 0.09312,0.0051 0.139677,0.0077 0.04656,0.0025 0.09312,0.0051 0.139678,0.0076 0.04656,0.0025 0.09312,0.0051 0.139677,0.0076 0.04656,0.0025 0.09312,0.0051 0.139677,0.0076 l 0.139677,0.0075 0.139678,0.0075 0.139677,0.0075 0.139677,0.0075 c 0.04656,0.0025 0.09312,0.005 0.139677,0.0074 0.04656,0.0025 0.09312,0.0049 0.139678,0.0074 0.04656,0.0025 0.09312,0.0049 0.139677,0.0074 0.04656,0.0024 0.09312,0.0049 0.139677,0.0073 0.04656,0.0024 0.09312,0.0049 0.139677,0.0073 0.04656,0.0024 0.09312,0.0049 0.139678,0.0073 l 0.139677,0.0072 0.139677,0.0072 0.139677,0.0072 0.139678,0.0072 c 0.04656,0.0024 0.09312,0.0048 0.139677,0.0071 0.04656,0.0024 0.09312,0.0047 0.139677,0.0071 0.04656,0.0024 0.09312,0.0047 0.139677,0.0071 0.04656,0.0024 0.09312,0.0047 0.139678,0.0071 0.04656,0.0023 0.09312,0.0047 0.139677,0.007 0.04656,0.0023 0.09312,0.0047 0.139677,0.007 0.04656,0.0023 0.09312,0.0047 0.139677,0.007 l 0.139678,0.0069 0.139677,0.0069 0.139677,0.0069 0.139677,0.0069 c 0.04656,0.0023 0.09312,0.0046 0.139678,0.0068 0.04656,0.0023 0.09312,0.0045 0.139677,0.0068 0.04656,0.0023 0.09312,0.0045 0.139677,0.0068 0.04656,0.0023 0.09312,0.0045 0.139677,0.0068 0.04656,0.0022 0.09312,0.0045 0.139678,0.0067 0.04656,0.0022 0.09312,0.0045 0.139677,0.0067 0.04656,0.0022 0.09312,0.0045 0.139677,0.0067 0.04656,0.0022 0.09312,0.0044 0.139677,0.0067 l 0.139678,0.0066 0.139677,0.0066 0.139677,0.0066 c 0.04656,0.0022 0.09312,0.0044 0.139677,0.0065 0.04656,0.0022 0.09312,0.0044 0.139678,0.0065 0.04656,0.0022 0.09312,0.0043 0.139677,0.0065 0.04656,0.0022 0.09312,0.0043 0.139677,0.0065 0.04656,0.0022 0.09312,0.0043 0.139677,0.0064 0.04656,0.0021 0.09312,0.0043 0.139678,0.0064 0.04656,0.0021 0.09312,0.0043 0.139677,0.0064 0.04656,0.0021 0.09312,0.0043 0.139677,0.0064 0.04656,0.0021 0.09312,0.0042 0.139677,0.0064 l 0.139678,0.0063 0.139677,0.0063 0.139677,0.0063 0.139677,0.0063 c 0.04656,0.0021 0.09312,0.0042 0.139678,0.0062 0.04656,0.0021 0.09312,0.0041 0.139677,0.0062 0.04656,0.0021 0.09312,0.0041 0.139677,0.0062 0.04656,0.0021 0.09312,0.0041 0.139677,0.0062 0.04656,0.0021 0.09312,0.0041 0.139678,0.0061 0.04656,0.002 0.09312,0.0041 0.139677,0.0061 0.04656,0.002 0.09312,0.0041 0.139677,0.0061 0.04656,0.002 0.09312,0.004 0.139677,0.0061 l 0.139678,0.006 0.139677,0.006 0.139677,0.006 0.139677,0.006 0.139678,0.006 c 0.04656,0.002 0.09312,0.004 0.139677,0.0059 0.04656,0.002 0.09312,0.0039 0.139677,0.0059 0.04656,0.002 0.09312,0.0039 0.139677,0.0059 0.04656,0.002 0.09312,0.0039 0.139678,0.0059 0.04656,0.0019 0.09312,0.0039 0.139677,0.0058 0.04656,0.0019 0.09312,0.0039 0.139677,0.0058 0.04656,0.0019 0.09312,0.0039 0.139677,0.0058 0.04656,0.0019 0.09312,0.0039 0.139678,0.0058 0.04656,0.0019 0.09312,0.0038 0.139677,0.0058 l 0.139677,0.0057 0.139677,0.0057 0.139678,0.0057 0.139677,0.0057 c 0.04656,0.0019 0.09312,0.0038 0.139677,0.0056 0.04656,0.0019 0.09312,0.0038 0.139677,0.0056 0.04656,0.0019 0.09312,0.0037 0.139678,0.0056 0.04656,0.0019 0.09312,0.0037 0.139677,0.0056 0.04656,0.0019 0.09312,0.0037 0.139677,0.0056 0.04656,0.0019 0.09312,0.0037 0.139677,0.0055 0.04656,0.0018 0.09312,0.0037 0.139677,0.0055 0.04656,0.0018 0.09312,0.0037 0.139678,0.0055 0.04656,0.0018 0.09312,0.0037 0.139677,0.0055 0.04656,0.0018 0.09312,0.0036 0.139677,0.0055 l 0.139677,0.0054 0.139678,0.0054 0.139677,0.0054 0.139677,0.0054 0.139677,0.0054 c 0.04656,0.0018 0.09312,0.0036 0.139678,0.0053 0.04656,0.0018 0.09312,0.0035 0.139677,0.0053 0.04656,0.0018 0.09312,0.0035 0.139677,0.0053 0.04656,0.0018 0.09312,0.0035 0.139677,0.0053 0.04656,0.0018 0.09312,0.0035 0.139678,0.0053 0.04656,0.0017 0.09312,0.0035 0.139677,0.0052 0.04656,0.0017 0.09312,0.0035 0.139677,0.0052 0.04656,0.0017 0.09312,0.0035 0.139677,0.0052 0.04656,0.0017 0.09312,0.0035 0.139678,0.0052 0.04656,0.0017 0.09312,0.0034 0.139677,0.0052 l 0.139677,0.0051 0.139677,0.0051 0.139678,0.0051 0.139677,0.0051 0.139677,0.0051 0.139677,0.0051 c 0.04656,0.0017 0.09312,0.0034 0.139678,0.005 0.04656,0.0017 0.09312,0.0033 0.139677,0.005 0.04656,0.0017 0.09312,0.0033 0.139677,0.005 0.04656,0.0017 0.09312,0.0033 0.139677,0.005 0.04656,0.0017 0.09312,0.0033 0.139678,0.005 0.04656,0.0016 0.09312,0.0033 0.139677,0.0049 0.04656,0.0016 0.09312,0.0033 0.139677,0.0049 0.04656,0.0016 0.09312,0.0033 0.139677,0.0049 0.04656,0.0016 0.09312,0.0033 0.139678,0.0049 0.04656,0.0016 0.09312,0.0033 0.139677,0.0049 0.04656,0.0016 0.09312,0.0032 0.139677,0.0049 l 0.139677,0.0048 0.139678,0.0048 0.139677,0.0048 0.139677,0.0048 0.139677,0.0048 c 0.04656,0.0016 0.09312,0.0032 0.139678,0.0047 0.04656,0.0016 0.09312,0.0032 0.139677,0.0047 0.04656,0.0016 0.09312,0.0031 0.139677,0.0047 0.04656,0.0016 0.09312,0.0031 0.139677,0.0047 0.04656,0.0016 0.09312,0.0031 0.139678,0.0047 0.04656,0.0016 0.09312,0.0031 0.139677,0.0047 0.04656,0.0016 0.09312,0.0031 0.139677,0.0046 0.04656,0.0015 0.09312,0.0031 0.139677,0.0046 0.04656,0.0015 0.09312,0.0031 0.139678,0.0046 0.04656,0.0015 0.09312,0.0031 0.139677,0.0046 0.04656,0.0015 0.09312,0.0031 0.139677,0.0046 0.04656,0.0015 0.09312,0.003 0.139677,0.0046 l 0.139678,0.0045 0.139677,0.0045 0.139677,0.0045 0.139677,0.0045 0.139678,0.0045 0.139677,0.0045 c 0.04656,0.0015 0.09312,0.003 0.139677,0.0044 0.04656,0.0015 0.09312,0.003 0.139677,0.0044 0.04656,0.0015 0.09312,0.0029 0.139678,0.0044 0.04656,0.0015 0.09312,0.0029 0.139677,0.0044 0.04656,0.0015 0.09312,0.0029 0.139677,0.0044 0.04656,0.0015 0.09312,0.0029 0.139677,0.0044 0.04656,0.0015 0.09312,0.0029 0.139678,0.0044 0.04656,0.0014 0.09312,0.0029 0.139677,0.0043 0.04656,0.0014 0.09312,0.0029 0.139677,0.0043 0.04656,0.0014 0.09312,0.0029 0.139677,0.0043 0.04656,0.0014 0.09312,0.0029 0.139678,0.0043 0.04656,0.0014 0.09312,0.0029 0.139677,0.0043 0.04656,0.0014 0.09312,0.0028 0.139677,0.0043 l 0.139677,0.0042 0.139673,0.0042 c 0.0466,0.0014 0.0931,0.0028 0.13968,0.0042 0.0466,0.0014 0.0931,0.0028 0.13968,0.0042 0.0466,0.0014 0.0931,0.0028 0.13968,0.0042 0.0466,0.0014 0.0931,0.0028 0.13967,0.0042 0.0466,0.0014 0.0931,0.0028 0.13968,0.0042 0.0466,0.0014 0.0931,0.0028 0.13968,0.0041 0.0466,0.0014 0.0931,0.0028 0.13968,0.0041 0.0466,0.0014 0.0931,0.0027 0.13967,0.0041 0.0466,0.0014 0.0931,0.0027 0.13968,0.0041 0.0466,0.0014 0.0931,0.0027 0.13968,0.0041 0.0466,0.0014 0.0931,0.0027 0.13967,0.0041 0.0466,0.0014 0.0931,0.0027 0.13968,0.0041 0.0466,0.0013 0.0931,0.0027 0.13968,0.004 0.0466,0.0013 0.0931,0.0027 0.13968,0.004"
       style="fill:none;fill-opacity:0.9921875;stroke:url(#linearGradient1274);stroke-width:1.70000005;stroke-linecap:round;stroke-miterlimit:4;stroke-dasharray:none;stroke-dashoffset:0;stroke-opacity:1"
       inkscape:connector-curvature="0"
       sodipodi:nodetypes="cssssssssssssssssssssssssssssssssssssssssssssssssssssssssssssssssssssssssssssssssssssssssssssssssssssssssssssssssssssssssssssssssssssssssssssssssssssssssssssssssssssssssssssssssssssssssssssssssssssssssssssssssssssssssssssssssssssssssssssssssssssssssssssssssssssssssssssssssssssssssssssssssssssssssssssssssssssssssssssssssssssssssssssssssssssssssssssssssssssssssssssssssssssssssssssssssssssssssssssssssssssssssssssssssssssssssssssssssssssssssssssssssssssssssssssssssssssssssssssssssssssssssssssssssssssssssssssssssssssssssssssssssssssssssssssssssssssssssssssssssssssssssssssssssssssssssssssssssssssssssssssssssssssssssssssssssssssssssssssssssssssssssssssssssssssssssssssssssssssssssssssssssssssssssssssssssssssssssssssssssssssssssssssssssssssssssssssssssssssssssssssssssssssssssssssssssssssssssssssssssssssssssssssssssssssssssssssssssssssssssssssssssssssssssssssssssssssssssssssssssssssssssssssssssssssssssssssssssssssssssssssssssssssssssssssssssssssc" />
    <text
       xml:space="preserve"
       style="font-style:normal;font-weight:normal;font-size:6.3499999px;line-height:1.25;font-family:sans-serif;letter-spacing:0px;word-spacing:0px;fill:#000000;fill-opacity:1;stroke:none;stroke-width:0.26458332"
       x="105.48156"
       y="45.517235"
       id="text9029-5-9-9"
       transform="scale(0.94734047,1.0555867)"><tspan
         sodipodi:role="line"
         id="tspan9027-3-1-7"
         x="105.48156"
         y="45.517235"
         style="font-size:6.3499999px;stroke-width:0.26458332">$\lambda [\si{nm}]$</tspan></text>
    <text
       xml:space="preserve"
       style="font-style:normal;font-weight:normal;font-size:7.05555534px;line-height:1.25;font-family:sans-serif;letter-spacing:0px;word-spacing:0px;fill:#000000;fill-opacity:1;stroke:none;stroke-width:0.26458332"
       x="-59.913849"
       y="-58.930122"
       id="text2098-0"
       transform="scale(0.94734047,1.0555867)"><tspan
         sodipodi:role="line"
         x="-59.913849"
         y="-58.930122"
         style="font-size:7.05555534px;stroke-width:0.26458332"
         id="tspan2100-2">$j_\mathrm{rel}$</tspan></text>
    <text
       id="text1799-6-1"
       y="45.619553"
       x="80.303848"
       style="font-style:normal;font-weight:normal;font-size:6.3499999px;line-height:1.25;font-family:sans-serif;letter-spacing:0px;word-spacing:0px;fill:#000000;fill-opacity:1;stroke:none;stroke-width:0.26458332"
       xml:space="preserve"
       transform="scale(0.94734047,1.0555867)"><tspan
         style="font-size:6.3499999px;stroke-width:0.26458332"
         y="45.619553"
         x="80.303848"
         id="tspan1797-2-2"
         sodipodi:role="line">$900$</tspan></text>
    <text
       id="text1803-6-9"
       y="45.619553"
       x="37.81321"
       style="font-style:normal;font-weight:normal;font-size:6.3499999px;line-height:1.25;font-family:sans-serif;letter-spacing:0px;word-spacing:0px;fill:#000000;fill-opacity:1;stroke:none;stroke-width:0.26458332"
       xml:space="preserve"
       transform="scale(0.94734047,1.0555867)"><tspan
         style="font-size:6.3499999px;stroke-width:0.26458332"
         y="45.619553"
         x="37.81321"
         id="tspan1801-1-3"
         sodipodi:role="line">$700$</tspan></text>
    <text
       id="text1807-8-1"
       y="45.619553"
       x="-4.3396082"
       style="font-style:normal;font-weight:normal;font-size:6.3499999px;line-height:1.25;font-family:sans-serif;letter-spacing:0px;word-spacing:0px;fill:#000000;fill-opacity:1;stroke:none;stroke-width:0.26458332"
       xml:space="preserve"
       transform="scale(0.94734047,1.0555867)"><tspan
         style="font-size:6.3499999px;stroke-width:0.26458332"
         y="45.619553"
         x="-4.3396082"
         id="tspan1805-7-9"
         sodipodi:role="line">$500$</tspan></text>
    <text
       xml:space="preserve"
       style="font-style:normal;font-weight:normal;font-size:6.3499999px;line-height:1.25;font-family:sans-serif;letter-spacing:0px;word-spacing:0px;fill:#000000;fill-opacity:1;stroke:none;stroke-width:0.26458332"
       x="-44.853588"
       y="45.618881"
       id="text9029-56-2-8"
       transform="scale(0.94734047,1.0555867)"><tspan
         sodipodi:role="line"
         id="tspan9027-2-8-4"
         x="-44.853588"
         y="45.618881"
         style="font-size:6.3499999px;stroke-width:0.26458332">$300$</tspan></text>
    <text
       xml:space="preserve"
       style="font-style:normal;font-weight:normal;font-size:7.05555534px;line-height:1.25;font-family:sans-serif;letter-spacing:0px;word-spacing:0px;fill:#000000;fill-opacity:1;stroke:none;stroke-width:0.26458332"
       x="-27.20022"
       y="-56.389706"
       id="text2098-0-3"
       transform="scale(0.94734047,1.0555867)"><tspan
         sodipodi:role="line"
         x="-27.20022"
         y="-56.389706"
         style="font-size:7.05555534px;stroke-width:0.26458332"
         id="tspan2100-2-5">UV</tspan></text>
    <text
       xml:space="preserve"
       style="font-style:normal;font-weight:normal;font-size:7.05555534px;line-height:1.25;font-family:sans-serif;letter-spacing:0px;word-spacing:0px;fill:#000000;fill-opacity:1;stroke:none;stroke-width:0.26458332"
       x="89.21312"
       y="30.641947"
       id="text2098-0-3-9"
       transform="scale(0.94734047,1.0555867)"><tspan
         sodipodi:role="line"
         x="89.21312"
         y="30.641947"
         style="font-size:7.05555534px;stroke-width:0.26458332"
         id="tspan2100-2-5-1">IR</tspan></text>
  </g>
</svg>
