<?xml version="1.0" encoding="UTF-8" standalone="no"?>
<!-- Created with Inkscape (http://www.inkscape.org/) -->

<svg
   xmlns:dc="http://purl.org/dc/elements/1.1/"
   xmlns:cc="http://creativecommons.org/ns#"
   xmlns:rdf="http://www.w3.org/1999/02/22-rdf-syntax-ns#"
   xmlns:svg="http://www.w3.org/2000/svg"
   xmlns="http://www.w3.org/2000/svg"
   xmlns:sodipodi="http://sodipodi.sourceforge.net/DTD/sodipodi-0.dtd"
   xmlns:inkscape="http://www.inkscape.org/namespaces/inkscape"
   version="1.1"
   id="svg2"
   xml:space="preserve"
   width="1488.1713"
   height="248.74152"
   viewBox="0 0 1488.1713 248.74151"
   sodipodi:docname="08_kohprimer.svg"
   inkscape:version="0.92.5 (2060ec1f9f, 2020-04-08)"><metadata
     id="metadata8"><rdf:RDF><cc:Work
         rdf:about=""><dc:format>image/svg+xml</dc:format><dc:type
           rdf:resource="http://purl.org/dc/dcmitype/StillImage" /><dc:title></dc:title></cc:Work></rdf:RDF></metadata><defs
     id="defs6"><marker
   inkscape:stockid="Arrow1Mend"
   orient="auto"
   refY="0"
   refX="0"
   id="Arrow1Mend"
   style="overflow:visible"
   inkscape:isstock="true"><path
     id="path10814"
     d="M 0,0 5,-5 -12.5,0 5,5 Z"
     style="fill:#000000;fill-opacity:1;fill-rule:evenodd;stroke:#000000;stroke-width:1.00000003pt;stroke-opacity:1"
     transform="matrix(-0.4,0,0,-0.4,-4,0)"
     inkscape:connector-curvature="0" /></marker><marker
   inkscape:stockid="Arrow1Mstart"
   orient="auto"
   refY="0"
   refX="0"
   id="marker10647"
   style="overflow:visible"
   inkscape:isstock="true"><path
     inkscape:connector-curvature="0"
     id="path10645"
     d="M 0,0 5,-5 -12.5,0 5,5 Z"
     style="fill:#000000;fill-opacity:1;fill-rule:evenodd;stroke:#000000;stroke-width:1.00000003pt;stroke-opacity:1"
     transform="matrix(0.4,0,0,0.4,4,0)" /></marker><marker
   inkscape:stockid="Arrow1Sstart"
   orient="auto"
   refY="0"
   refX="0"
   id="Arrow1Sstart"
   style="overflow:visible"
   inkscape:isstock="true"><path
     id="path876"
     d="M 0,0 5,-5 -12.5,0 5,5 Z"
     style="fill:#000000;fill-opacity:1;fill-rule:evenodd;stroke:#000000;stroke-width:1.00000003pt;stroke-opacity:1"
     transform="matrix(0.2,0,0,0.2,1.2,0)"
     inkscape:connector-curvature="0" /></marker><marker
   inkscape:stockid="Arrow1Mstart"
   orient="auto"
   refY="0"
   refX="0"
   id="Arrow1Mstart"
   style="overflow:visible"
   inkscape:isstock="true"><path
     id="path870"
     d="M 0,0 5,-5 -12.5,0 5,5 Z"
     style="fill:#666666;fill-opacity:1;fill-rule:evenodd;stroke:#666666;stroke-width:1.00000003pt;stroke-opacity:1"
     transform="matrix(0.4,0,0,0.4,4,0)"
     inkscape:connector-curvature="0" /></marker><marker
   inkscape:stockid="Arrow1Lend"
   orient="auto"
   refY="0"
   refX="0"
   id="Arrow1Lend"
   style="overflow:visible"
   inkscape:isstock="true"><path
     id="path867"
     d="M 0,0 5,-5 -12.5,0 5,5 Z"
     style="fill:#666666;fill-opacity:1;fill-rule:evenodd;stroke:#666666;stroke-width:1.00000003pt;stroke-opacity:1"
     transform="matrix(-0.8,0,0,-0.8,-10,0)"
     inkscape:connector-curvature="0" /></marker><marker
   inkscape:stockid="Arrow1Sstart"
   orient="auto"
   refY="0"
   refX="0"
   id="Arrow1Sstart-3"
   style="overflow:visible"
   inkscape:isstock="true"><path
     inkscape:connector-curvature="0"
     id="path876-6"
     d="M 0,0 5,-5 -12.5,0 5,5 Z"
     style="fill:#000000;fill-opacity:1;fill-rule:evenodd;stroke:#000000;stroke-width:1.00000003pt;stroke-opacity:1"
     transform="matrix(0.2,0,0,0.2,1.2,0)" /></marker><marker
   inkscape:isstock="true"
   style="overflow:visible"
   id="marker18155-3-3"
   refX="0"
   refY="0"
   orient="auto"
   inkscape:stockid="Arrow1Mstart"><path
     inkscape:connector-curvature="0"
     transform="matrix(0.4,0,0,0.4,4,0)"
     style="fill:#000000;fill-opacity:1;fill-rule:evenodd;stroke:#000000;stroke-width:1.00000003pt;stroke-opacity:1"
     d="M 0,0 5,-5 -12.5,0 5,5 Z"
     id="path18153-0-5" /></marker><marker
   inkscape:isstock="true"
   style="overflow:visible"
   id="marker18155-3-3-0"
   refX="0"
   refY="0"
   orient="auto"
   inkscape:stockid="Arrow1Mstart"><path
     inkscape:connector-curvature="0"
     transform="matrix(0.4,0,0,0.4,4,0)"
     style="fill:#000000;fill-opacity:1;fill-rule:evenodd;stroke:#000000;stroke-width:1.00000003pt;stroke-opacity:1"
     d="M 0,0 5,-5 -12.5,0 5,5 Z"
     id="path18153-0-5-61" /></marker><marker
   inkscape:isstock="true"
   style="overflow:visible"
   id="marker18155-3-3-0-3"
   refX="0"
   refY="0"
   orient="auto"
   inkscape:stockid="Arrow1Mstart"><path
     inkscape:connector-curvature="0"
     transform="matrix(0.4,0,0,0.4,4,0)"
     style="fill:#000000;fill-opacity:1;fill-rule:evenodd;stroke:#000000;stroke-width:1.00000003pt;stroke-opacity:1"
     d="M 0,0 5,-5 -12.5,0 5,5 Z"
     id="path18153-0-5-61-0" /></marker><marker
   inkscape:isstock="true"
   style="overflow:visible"
   id="marker18155-3-3-0-3-6"
   refX="0"
   refY="0"
   orient="auto"
   inkscape:stockid="Arrow1Mstart"><path
     inkscape:connector-curvature="0"
     transform="matrix(0.4,0,0,0.4,4,0)"
     style="fill:#000000;fill-opacity:1;fill-rule:evenodd;stroke:#000000;stroke-width:1.00000003pt;stroke-opacity:1"
     d="M 0,0 5,-5 -12.5,0 5,5 Z"
     id="path18153-0-5-61-0-4" /></marker>







<marker
   inkscape:stockid="Arrow1Mstart"
   orient="auto"
   refY="0"
   refX="0"
   id="marker10647-1"
   style="overflow:visible"
   inkscape:isstock="true"><path
     inkscape:connector-curvature="0"
     id="path10645-5"
     d="M 0,0 5,-5 -12.5,0 5,5 Z"
     style="fill:#000000;fill-opacity:1;fill-rule:evenodd;stroke:#000000;stroke-width:1.00000003pt;stroke-opacity:1"
     transform="matrix(0.4,0,0,0.4,4,0)" /></marker><marker
   inkscape:stockid="Arrow1Mend"
   orient="auto"
   refY="0"
   refX="0"
   id="Arrow1Mend-9"
   style="overflow:visible"
   inkscape:isstock="true"><path
     inkscape:connector-curvature="0"
     id="path10814-8"
     d="M 0,0 5,-5 -12.5,0 5,5 Z"
     style="fill:#000000;fill-opacity:1;fill-rule:evenodd;stroke:#000000;stroke-width:1.00000003pt;stroke-opacity:1"
     transform="matrix(-0.4,0,0,-0.4,-4,0)" /></marker><marker
   inkscape:stockid="Arrow1Mstart"
   orient="auto"
   refY="0"
   refX="0"
   id="marker10647-1-8"
   style="overflow:visible"
   inkscape:isstock="true"><path
     inkscape:connector-curvature="0"
     id="path10645-5-1"
     d="M 0,0 5,-5 -12.5,0 5,5 Z"
     style="fill:#000000;fill-opacity:1;fill-rule:evenodd;stroke:#000000;stroke-width:1.00000003pt;stroke-opacity:1"
     transform="matrix(0.4,0,0,0.4,4,0)" /></marker><marker
   inkscape:stockid="Arrow1Mend"
   orient="auto"
   refY="0"
   refX="0"
   id="Arrow1Mend-9-0"
   style="overflow:visible"
   inkscape:isstock="true"><path
     inkscape:connector-curvature="0"
     id="path10814-8-3"
     d="M 0,0 5,-5 -12.5,0 5,5 Z"
     style="fill:#000000;fill-opacity:1;fill-rule:evenodd;stroke:#000000;stroke-width:1.00000003pt;stroke-opacity:1"
     transform="matrix(-0.4,0,0,-0.4,-4,0)" /></marker></defs><sodipodi:namedview
     pagecolor="#ffffff"
     bordercolor="#666666"
     borderopacity="1"
     objecttolerance="10"
     gridtolerance="10"
     guidetolerance="10"
     inkscape:pageopacity="0"
     inkscape:pageshadow="2"
     inkscape:window-width="1349"
     inkscape:window-height="821"
     id="namedview4"
     showgrid="false"
     inkscape:zoom="0.53454901"
     inkscape:cx="963.30522"
     inkscape:cy="-86.905252"
     inkscape:window-x="567"
     inkscape:window-y="186"
     inkscape:window-maximized="0"
     inkscape:current-layer="g10"
     inkscape:snap-bbox="true"
     inkscape:snap-bbox-edge-midpoints="false"
     inkscape:bbox-nodes="false"
     showguides="false"
     fit-margin-top="0"
     fit-margin-left="0"
     fit-margin-right="0"
     fit-margin-bottom="0"
     inkscape:snap-bbox-midpoints="true" /><g
     id="g10"
     inkscape:groupmode="layer"
     inkscape:label="06_Young"
     transform="matrix(1.3333333,0,0,1.3333333,39.027948,308.92753)">




<g
   id="g1057"><path
     sodipodi:nodetypes="cc"
     inkscape:connector-curvature="0"
     id="path3453-3-5-2-7-3-7-1"
     d="M 235.43416,-138.46715 H 1.2690444"
     style="fill:#000000;fill-opacity:1;stroke:#000000;stroke-width:2.26771665;stroke-miterlimit:4;stroke-dasharray:none;stroke-dashoffset:0;stroke-opacity:1;marker-start:url(#marker18155-3-3)" /><g
     id="g25814"><g
       id="g8179"
       transform="matrix(2.8346458,0,0,2.8346458,514.80955,-745.39123)"><path
         inkscape:connector-curvature="0"
         id="path921-7"
         d="m -174.05005,181.28536 v 65.64793"
         style="fill:none;fill-rule:evenodd;stroke:#d40000;stroke-width:0.99999994;stroke-linecap:butt;stroke-linejoin:miter;stroke-miterlimit:4;stroke-dasharray:none;stroke-opacity:1" /><path
         inkscape:connector-curvature="0"
         id="path921-3-8"
         d="m -166.10811,181.28536 v 65.64793"
         style="fill:none;fill-rule:evenodd;stroke:#d40000;stroke-width:0.99999994;stroke-linecap:butt;stroke-linejoin:miter;stroke-miterlimit:4;stroke-dasharray:none;stroke-opacity:1" /><path
         inkscape:connector-curvature="0"
         id="path921-3-6-4"
         d="m -158.16616,181.28536 v 65.64793"
         style="fill:none;fill-rule:evenodd;stroke:#d40000;stroke-width:0.99999994;stroke-linecap:butt;stroke-linejoin:miter;stroke-miterlimit:4;stroke-dasharray:none;stroke-opacity:1" /><path
         inkscape:connector-curvature="0"
         id="path921-3-6-7-50"
         d="m -150.22422,181.28536 v 65.64793"
         style="fill:none;fill-rule:evenodd;stroke:#d40000;stroke-width:0.99999994;stroke-linecap:butt;stroke-linejoin:miter;stroke-miterlimit:4;stroke-dasharray:none;stroke-opacity:1" /><path
         inkscape:connector-curvature="0"
         id="path921-3-6-7-5-3"
         d="m -142.28227,181.28536 v 65.64793"
         style="fill:none;fill-rule:evenodd;stroke:#d40000;stroke-width:0.99999994;stroke-linecap:butt;stroke-linejoin:miter;stroke-miterlimit:4;stroke-dasharray:none;stroke-opacity:1" /><path
         inkscape:connector-curvature="0"
         id="path921-3-8-0"
         d="m -134.34033,181.28536 v 65.64793"
         style="fill:none;fill-rule:evenodd;stroke:#d40000;stroke-width:1;stroke-linecap:butt;stroke-linejoin:miter;stroke-miterlimit:4;stroke-dasharray:none;stroke-opacity:1" /><path
         inkscape:connector-curvature="0"
         id="path921-3-6-4-6"
         d="m -126.39838,181.28536 v 65.64793"
         style="fill:none;fill-rule:evenodd;stroke:#d40000;stroke-width:1;stroke-linecap:butt;stroke-linejoin:miter;stroke-miterlimit:4;stroke-dasharray:none;stroke-opacity:1" /><path
         inkscape:connector-curvature="0"
         id="path921-3-6-7-50-3"
         d="m -118.45644,181.28536 v 65.64793"
         style="fill:none;fill-rule:evenodd;stroke:#d40000;stroke-width:1;stroke-linecap:butt;stroke-linejoin:miter;stroke-miterlimit:4;stroke-dasharray:none;stroke-opacity:1" /><path
         inkscape:connector-curvature="0"
         id="path921-3-6-7-5-3-2"
         d="m -110.51449,181.28536 v 65.64793"
         style="fill:none;fill-rule:evenodd;stroke:#d40000;stroke-width:1;stroke-linecap:butt;stroke-linejoin:miter;stroke-miterlimit:4;stroke-dasharray:none;stroke-opacity:1" /></g></g><path
     sodipodi:nodetypes="cc"
     inkscape:connector-curvature="0"
     id="path3453-3-5-2-7-3-7-1-5"
     d="M 508.59929,-138.46715 H 274.43418"
     style="fill:#000000;fill-opacity:1;stroke:#000000;stroke-width:2.26771665;stroke-miterlimit:4;stroke-dasharray:none;stroke-dashoffset:0;stroke-opacity:1;marker-start:url(#marker18155-3-3-0)" /><path
     sodipodi:nodetypes="cc"
     inkscape:connector-curvature="0"
     id="path3453-3-5-2-7-3-7-1-5-8"
     d="M 781.76465,-138.46715 H 547.59954"
     style="fill:#000000;fill-opacity:1;stroke:#000000;stroke-width:2.26771665;stroke-miterlimit:4;stroke-dasharray:none;stroke-dashoffset:0;stroke-opacity:1;marker-start:url(#marker18155-3-3-0-3)" /><path
     sodipodi:nodetypes="cc"
     inkscape:connector-curvature="0"
     id="path3453-3-5-2-7-3-7-1-5-8-5"
     d="M 1054.93,-138.46715 H 820.76489"
     style="fill:#000000;fill-opacity:1;stroke:#000000;stroke-width:2.26771665;stroke-miterlimit:4;stroke-dasharray:none;stroke-dashoffset:0;stroke-opacity:1;marker-start:url(#marker18155-3-3-0-3-6)" /><g
     id="g25802"><path
       style="fill:none;fill-rule:evenodd;stroke:#d40000;stroke-width:2.83464575;stroke-linecap:butt;stroke-linejoin:miter;stroke-miterlimit:4;stroke-dasharray:none;stroke-opacity:1"
       d="M 294.54018,-231.51145 V -45.422817"
       id="path921-7-9"
       inkscape:connector-curvature="0" /><path
       style="fill:none;fill-rule:evenodd;stroke:#d40000;stroke-width:2.83464575;stroke-linecap:butt;stroke-linejoin:miter;stroke-miterlimit:4;stroke-dasharray:none;stroke-opacity:1"
       d="M 309.55276,-231.51145 V -45.422817"
       id="path921-3-8-4"
       inkscape:connector-curvature="0" /><path
       style="fill:none;fill-rule:evenodd;stroke:#d40000;stroke-width:2.83464575;stroke-linecap:butt;stroke-linejoin:miter;stroke-miterlimit:4;stroke-dasharray:none;stroke-opacity:1"
       d="M 339.56538,-231.51145 V -45.422817"
       id="path921-3-6-4-9"
       inkscape:connector-curvature="0" /><path
       style="fill:none;fill-rule:evenodd;stroke:#d40000;stroke-width:2.83464575;stroke-linecap:butt;stroke-linejoin:miter;stroke-miterlimit:4;stroke-dasharray:none;stroke-opacity:1"
       d="M 368.07797,-231.51145 V -45.422817"
       id="path921-3-6-7-50-0"
       inkscape:connector-curvature="0" /><path
       style="fill:none;fill-rule:evenodd;stroke:#d40000;stroke-width:2.83464575;stroke-linecap:butt;stroke-linejoin:miter;stroke-miterlimit:4;stroke-dasharray:none;stroke-opacity:1"
       d="M 387.59058,-231.51145 V -45.422817"
       id="path921-3-6-7-5-3-9"
       inkscape:connector-curvature="0" /><path
       style="fill:none;fill-rule:evenodd;stroke:#d40000;stroke-width:2.83464575;stroke-linecap:butt;stroke-linejoin:miter;stroke-miterlimit:4;stroke-dasharray:none;stroke-opacity:1"
       d="M 402.60317,-231.51145 V -45.422817"
       id="path921-3-8-0-1"
       inkscape:connector-curvature="0" /><path
       style="fill:none;fill-rule:evenodd;stroke:#d40000;stroke-width:2.83464575;stroke-linecap:butt;stroke-linejoin:miter;stroke-miterlimit:4;stroke-dasharray:none;stroke-opacity:1"
       d="M 431.11579,-231.51145 V -45.422817"
       id="path921-3-6-4-6-7"
       inkscape:connector-curvature="0" /><path
       style="fill:none;fill-rule:evenodd;stroke:#d40000;stroke-width:2.83464575;stroke-linecap:butt;stroke-linejoin:miter;stroke-miterlimit:4;stroke-dasharray:none;stroke-opacity:1"
       d="M 452.12837,-231.51145 V -45.422817"
       id="path921-3-6-7-50-3-7"
       inkscape:connector-curvature="0" /><path
       style="fill:none;fill-rule:evenodd;stroke:#d40000;stroke-width:2.83464575;stroke-linecap:butt;stroke-linejoin:miter;stroke-miterlimit:4;stroke-dasharray:none;stroke-opacity:1"
       d="M 474.64099,-231.51145 V -45.422817"
       id="path921-3-6-7-5-3-2-1"
       inkscape:connector-curvature="0" /></g><g
     id="g25791"><path
       style="fill:none;stroke:#d40000;stroke-width:2.83464575;stroke-linecap:butt;stroke-linejoin:miter;stroke-miterlimit:4;stroke-dasharray:none;stroke-opacity:1"
       d="m 575.20704,-230.77016 c 3.71041,5.17025 -14.48947,9.3498 -5.43153,28.64552 9.05797,19.29568 -4.50929,36.37769 1.33637,51.4459 3.49296,8.22101 -2.30485,17.88398 0.0598,30.6377 2.36469,12.75372 12.26775,9.42316 5.08799,25.233308 -5.4426,9.795685 -1.87401,30.521028 -6.39088,35.229233 -4.43168,4.118513 -3.33467,7.626473 -2.0027,14.155682"
       id="path5996-3-5"
       inkscape:connector-curvature="0"
       sodipodi:nodetypes="czczccc" /><path
       style="fill:none;stroke:#d40000;stroke-width:2.83464575;stroke-linecap:butt;stroke-linejoin:miter;stroke-miterlimit:4;stroke-dasharray:none;stroke-opacity:1"
       d="m 597.71962,-230.77016 c 3.71041,5.17025 -14.48946,9.3498 -5.43152,28.64552 9.05797,19.29568 -4.5093,36.37769 1.33637,51.4459 3.49296,8.22101 -2.30485,17.88398 0.0598,30.6377 2.36469,12.75372 12.26775,9.42316 5.08799,25.233308 -5.44261,9.795685 -1.87401,30.521028 -6.39088,35.229233 -4.43169,4.118513 -3.33468,7.626473 -2.00271,14.155682"
       id="path5996-3-5-6"
       inkscape:connector-curvature="0"
       sodipodi:nodetypes="czczccc" /><path
       style="fill:none;stroke:#d40000;stroke-width:2.83464575;stroke-linecap:butt;stroke-linejoin:miter;stroke-miterlimit:4;stroke-dasharray:none;stroke-opacity:1"
       d="m 620.23224,-230.77016 c 3.71041,5.17025 -14.48946,9.3498 -5.43152,28.64552 9.05797,19.29568 -4.5093,36.37769 1.33636,51.4459 3.49297,8.22101 -2.30485,17.88398 0.0598,30.6377 2.36469,12.75372 12.26776,9.42316 5.08799,25.233308 -5.4426,9.795685 -1.87401,30.521028 -6.39087,35.229233 -4.43169,4.118513 -3.33468,7.626473 -2.00271,14.155682"
       id="path5996-3-5-6-3"
       inkscape:connector-curvature="0"
       sodipodi:nodetypes="czczccc" /><path
       style="fill:none;stroke:#d40000;stroke-width:2.83464575;stroke-linecap:butt;stroke-linejoin:miter;stroke-miterlimit:4;stroke-dasharray:none;stroke-opacity:1"
       d="m 642.74483,-230.77016 c 3.7104,5.17025 -14.48947,9.3498 -5.43153,28.64552 9.05797,19.29568 -4.50929,36.37769 1.33637,51.4459 3.49296,8.22101 -2.30485,17.88398 0.0598,30.6377 2.36469,12.75372 12.26775,9.42316 5.08799,25.233308 -5.4426,9.795685 -1.87401,30.521028 -6.39088,35.229233 -4.43168,4.118513 -3.33468,7.626473 -2.0027,14.155682"
       id="path5996-3-5-6-3-9"
       inkscape:connector-curvature="0"
       sodipodi:nodetypes="czczccc" /><path
       style="fill:none;stroke:#d40000;stroke-width:2.83464575;stroke-linecap:butt;stroke-linejoin:miter;stroke-miterlimit:4;stroke-dasharray:none;stroke-opacity:1"
       d="m 665.25744,-230.77016 c 3.71041,5.17025 -14.48946,9.3498 -5.43152,28.64552 9.05797,19.29568 -4.5093,36.37769 1.33636,51.4459 3.49297,8.22101 -2.30485,17.88398 0.0598,30.6377 2.36469,12.75372 12.26775,9.42316 5.08799,25.233308 -5.44261,9.795685 -1.87402,30.521028 -6.39088,35.229233 -4.43169,4.118513 -3.33468,7.626473 -2.00271,14.155682"
       id="path5996-3-5-6-3-9-4"
       inkscape:connector-curvature="0"
       sodipodi:nodetypes="czczccc" /><path
       style="fill:none;stroke:#d40000;stroke-width:2.83464575;stroke-linecap:butt;stroke-linejoin:miter;stroke-miterlimit:4;stroke-dasharray:none;stroke-opacity:1"
       d="m 687.77003,-230.77016 c 3.71041,5.17025 -14.48946,9.3498 -5.43152,28.64552 9.05796,19.29568 -4.5093,36.37769 1.33636,51.4459 3.49297,8.22101 -2.30485,17.88398 0.0598,30.6377 2.36469,12.75372 12.26775,9.42316 5.08799,25.233308 -5.4426,9.795685 -1.87401,30.521028 -6.39088,35.229233 -4.43168,4.118513 -3.33467,7.626473 -2.0027,14.155682"
       id="path5996-3-5-6-3-9-4-8"
       inkscape:connector-curvature="0"
       sodipodi:nodetypes="czczccc" /><path
       style="fill:none;stroke:#d40000;stroke-width:2.83464575;stroke-linecap:butt;stroke-linejoin:miter;stroke-miterlimit:4;stroke-dasharray:none;stroke-opacity:1"
       d="m 710.28264,-230.77016 c 3.71041,5.17025 -14.48946,9.3498 -5.43152,28.64552 9.05797,19.29568 -4.5093,36.37769 1.33637,51.4459 3.49296,8.22101 -2.30485,17.88398 0.0598,30.6377 2.36469,12.75372 12.26775,9.42316 5.08799,25.233308 -5.44261,9.795685 -1.87401,30.521028 -6.39088,35.229233 -4.43169,4.118513 -3.33468,7.626473 -2.00271,14.155682"
       id="path5996-3-5-6-3-9-4-8-1"
       inkscape:connector-curvature="0"
       sodipodi:nodetypes="czczccc" /><path
       style="fill:none;stroke:#d40000;stroke-width:2.83464575;stroke-linecap:butt;stroke-linejoin:miter;stroke-miterlimit:4;stroke-dasharray:none;stroke-opacity:1"
       d="m 732.79523,-230.77016 c 3.71041,5.17025 -14.48946,9.3498 -5.43152,28.64552 9.05797,19.29568 -4.5093,36.37769 1.33636,51.4459 3.49297,8.22101 -2.30485,17.88398 0.0598,30.6377 2.36469,12.75372 12.26776,9.42316 5.088,25.233308 -5.44261,9.795685 -1.87402,30.521028 -6.39088,35.229233 -4.43169,4.118513 -3.33468,7.626473 -2.00271,14.155682"
       id="path5996-3-5-6-3-9-4-8-1-2"
       inkscape:connector-curvature="0"
       sodipodi:nodetypes="czczccc" /><path
       style="fill:none;stroke:#d40000;stroke-width:2.83464575;stroke-linecap:butt;stroke-linejoin:miter;stroke-miterlimit:4;stroke-dasharray:none;stroke-opacity:1"
       d="m 755.30784,-230.77016 c 3.71041,5.17025 -14.48946,9.3498 -5.43152,28.64552 9.05797,19.29568 -4.50929,36.37769 1.33637,51.4459 3.49296,8.22101 -2.30485,17.88398 0.0598,30.6377 2.36469,12.75372 12.26775,9.42316 5.08799,25.233308 -5.4426,9.795685 -1.87401,30.521028 -6.39088,35.229233 -4.43168,4.118513 -3.33468,7.626473 -2.0027,14.155682"
       id="path5996-3-5-6-3-9-4-8-1-2-9"
       inkscape:connector-curvature="0"
       sodipodi:nodetypes="czczccc" /></g><g
     id="g25780"><path
       style="fill:none;stroke:#d40000;stroke-width:2.83464575;stroke-linecap:butt;stroke-linejoin:miter;stroke-miterlimit:4;stroke-dasharray:none;stroke-opacity:1"
       d="m 838.97865,-230.86929 c 3.71041,5.17026 -14.48946,9.3498 -5.43152,28.64552 9.05797,19.29569 -4.5093,36.37769 1.33637,51.4459 3.49296,8.22101 -2.30486,17.88398 0.0598,30.6377 2.36469,12.75373 12.26775,9.42316 5.08799,25.23331 -5.44261,9.795686 -1.87402,30.521028 -6.39088,35.229233 -4.43169,4.118514 -3.33468,7.626473 -2.00271,14.155683"
       id="path5996-3-5-3"
       inkscape:connector-curvature="0"
       sodipodi:nodetypes="czczccc" /><path
       style="fill:none;stroke:#d40000;stroke-width:2.83464575;stroke-linecap:butt;stroke-linejoin:miter;stroke-miterlimit:4;stroke-dasharray:none;stroke-opacity:1"
       d="m 855.4912,-230.86929 c 3.71041,5.17026 -14.48946,9.3498 -5.43152,28.64552 9.05797,19.29569 -4.5093,36.37769 1.33636,51.4459 3.49297,8.22101 -2.30485,17.88398 0.0598,30.6377 2.36469,12.75373 12.26775,9.42316 5.08799,25.23331 -5.44261,9.795686 -1.87402,30.521028 -6.39088,35.229233 -4.43169,4.118514 -3.33468,7.626473 -2.00271,14.155683"
       id="path5996-3-5-6-9"
       inkscape:connector-curvature="0"
       sodipodi:nodetypes="czczccc" /><path
       style="fill:none;stroke:#d40000;stroke-width:2.83464575;stroke-linecap:butt;stroke-linejoin:miter;stroke-miterlimit:4;stroke-dasharray:none;stroke-opacity:1"
       d="m 884.00385,-230.86929 c 3.71041,5.17026 -14.48946,9.3498 -5.43152,28.64552 9.05797,19.29569 -4.5093,36.37769 1.33637,51.4459 3.49296,8.22101 -2.30485,17.88398 0.0598,30.6377 2.36469,12.75373 12.26775,9.42316 5.08799,25.23331 -5.44261,9.795686 -1.87401,30.521028 -6.39088,35.229233 -4.43168,4.118514 -3.33468,7.626473 -2.00271,14.155683"
       id="path5996-3-5-6-3-0"
       inkscape:connector-curvature="0"
       sodipodi:nodetypes="czczccc" /><path
       style="fill:none;stroke:#d40000;stroke-width:2.83464575;stroke-linecap:butt;stroke-linejoin:miter;stroke-miterlimit:4;stroke-dasharray:none;stroke-opacity:1"
       d="m 914.01649,-230.86929 c 3.71041,5.17026 -14.48946,9.3498 -5.43152,28.64552 9.05797,19.29569 -4.5093,36.37769 1.33636,51.4459 3.49297,8.22101 -2.30485,17.88398 0.0598,30.6377 2.36469,12.75373 12.26775,9.42316 5.08799,25.23331 -5.4426,9.795686 -1.87401,30.521028 -6.39088,35.229233 -4.43168,4.118514 -3.33467,7.626473 -2.0027,14.155683"
       id="path5996-3-5-6-3-9-8"
       inkscape:connector-curvature="0"
       sodipodi:nodetypes="czczccc" /><path
       style="fill:none;stroke:#d40000;stroke-width:2.83464575;stroke-linecap:butt;stroke-linejoin:miter;stroke-miterlimit:4;stroke-dasharray:none;stroke-opacity:1"
       d="m 933.52908,-230.86929 c 3.71041,5.17026 -14.48946,9.3498 -5.43152,28.64552 9.05797,19.29569 -4.5093,36.37769 1.33637,51.4459 3.49296,8.22101 -2.30485,17.88398 0.0598,30.6377 2.36469,12.75373 12.26775,9.42316 5.08799,25.23331 -5.4426,9.795686 -1.87401,30.521028 -6.39088,35.229233 -4.43168,4.118514 -3.33468,7.626473 -2.0027,14.155683"
       id="path5996-3-5-6-3-9-4-85"
       inkscape:connector-curvature="0"
       sodipodi:nodetypes="czczccc" /><path
       style="fill:none;stroke:#d40000;stroke-width:2.83464575;stroke-linecap:butt;stroke-linejoin:miter;stroke-miterlimit:4;stroke-dasharray:none;stroke-opacity:1"
       d="m 945.5416,-230.86929 c 3.71039,5.17026 -14.48946,9.3498 -5.43152,28.64552 9.05794,19.29569 -4.50929,36.37769 1.33637,51.4459 3.49296,8.22101 -2.30485,17.88398 0.0598,30.6377 2.36469,12.75373 12.26772,9.42316 5.08796,25.23331 -5.44257,9.795686 -1.87398,30.521028 -6.39085,35.229233 -4.43168,4.118514 -3.33468,7.626473 -2.0027,14.155683"
       id="path5996-3-5-6-3-9-4-8-0"
       inkscape:connector-curvature="0"
       sodipodi:nodetypes="czczccc" /><path
       style="fill:none;stroke:#d40000;stroke-width:2.83464575;stroke-linecap:butt;stroke-linejoin:miter;stroke-miterlimit:4;stroke-dasharray:none;stroke-opacity:1"
       d="m 974.05423,-230.86929 c 3.71041,5.17026 -14.48946,9.3498 -5.43152,28.64552 9.05797,19.29569 -4.5093,36.37769 1.33636,51.4459 3.49297,8.22101 -2.30485,17.88398 0.0598,30.6377 2.36469,12.75373 12.26776,9.42316 5.088,25.23331 -5.44261,9.795686 -1.87402,30.521028 -6.39088,35.229233 -4.43169,4.118514 -3.33468,7.626473 -2.00271,14.155683"
       id="path5996-3-5-6-3-9-4-8-1-9"
       inkscape:connector-curvature="0"
       sodipodi:nodetypes="czczccc" /><path
       style="fill:none;stroke:#d40000;stroke-width:2.83464575;stroke-linecap:butt;stroke-linejoin:miter;stroke-miterlimit:4;stroke-dasharray:none;stroke-opacity:1"
       d="m 996.56682,-230.86929 c 3.71038,5.17026 -14.48947,9.3498 -5.43153,28.64552 9.05801,19.29569 -4.50929,36.37769 1.33637,51.4459 3.49296,8.22101 -2.30485,17.88398 0.0598,30.6377 2.36469,12.75373 12.26774,9.42316 5.08799,25.23331 -5.4426,9.795686 -1.87401,30.521028 -6.39088,35.229233 -4.43168,4.118514 -3.33467,7.626473 -2.0027,14.155683"
       id="path5996-3-5-6-3-9-4-8-1-2-6"
       inkscape:connector-curvature="0"
       sodipodi:nodetypes="czczccc" /><path
       style="fill:none;stroke:#d40000;stroke-width:2.83464575;stroke-linecap:butt;stroke-linejoin:miter;stroke-miterlimit:4;stroke-dasharray:none;stroke-opacity:1"
       d="m 1019.0794,-230.86929 c 3.7104,5.17026 -14.4894,9.3498 -5.4315,28.64552 9.058,19.29569 -4.5093,36.37769 1.3364,51.4459 3.4929,8.22101 -2.3049,17.88398 0.06,30.6377 2.3647,12.75373 12.2677,9.42316 5.088,25.23331 -5.4426,9.795686 -1.874,30.521028 -6.3909,35.229233 -4.4317,4.118514 -3.3347,7.626473 -2.0027,14.155683"
       id="path5996-3-5-6-3-9-4-8-1-2-9-3"
       inkscape:connector-curvature="0"
       sodipodi:nodetypes="czczccc" /></g></g><g
   id="g25832"><text
   id="text1075-0-2-8-9"
   y="-119.06479"
   x="238.89412"
   style="font-style:normal;font-weight:normal;font-size:30px;line-height:1.25;font-family:sans-serif;letter-spacing:0px;word-spacing:0px;fill:#000000;fill-opacity:1;stroke:none;stroke-width:0.75"
   xml:space="preserve"><tspan
     style="font-size:18px;stroke-width:0.75"
     y="-119.06479"
     x="238.89412"
     id="tspan1073-6-6-6-3"
     sodipodi:role="line">$t$</tspan></text>

<text
   id="text1075-0-2-8-3-6-6"
   y="-214.39229"
   x="-30.352016"
   style="font-style:normal;font-weight:normal;font-size:30px;line-height:1.25;font-family:sans-serif;letter-spacing:0px;word-spacing:0px;fill:#000000;fill-opacity:1;stroke:none;stroke-width:0.75"
   xml:space="preserve"><tspan
     style="font-size:18px;stroke-width:0.75"
     y="-214.39229"
     x="-30.352016"
     id="tspan1073-6-6-6-6-0-2"
     sodipodi:role="line">a)</tspan></text>

<text
   id="text1075-0-2-8-9-4"
   y="-119.06479"
   x="512.05927"
   style="font-style:normal;font-weight:normal;font-size:30px;line-height:1.25;font-family:sans-serif;letter-spacing:0px;word-spacing:0px;fill:#000000;fill-opacity:1;stroke:none;stroke-width:0.75"
   xml:space="preserve"><tspan
     style="font-size:18px;stroke-width:0.75"
     y="-119.06479"
     x="512.05927"
     id="tspan1073-6-6-6-3-7"
     sodipodi:role="line">$t$</tspan></text>

<text
   id="text1075-0-2-8-3-6-6-6"
   y="-214.39229"
   x="242.81294"
   style="font-style:normal;font-weight:normal;font-size:30px;line-height:1.25;font-family:sans-serif;letter-spacing:0px;word-spacing:0px;fill:#000000;fill-opacity:1;stroke:none;stroke-width:0.75"
   xml:space="preserve"><tspan
     style="font-size:18px;stroke-width:0.75"
     y="-214.39229"
     x="242.81294"
     id="tspan1073-6-6-6-6-0-2-5"
     sodipodi:role="line">b)</tspan></text>

<text
   id="text1075-0-2-8-9-4-6"
   y="-119.06479"
   x="785.22467"
   style="font-style:normal;font-weight:normal;font-size:30px;line-height:1.25;font-family:sans-serif;letter-spacing:0px;word-spacing:0px;fill:#000000;fill-opacity:1;stroke:none;stroke-width:0.75"
   xml:space="preserve"><tspan
     style="font-size:18px;stroke-width:0.75"
     y="-119.06479"
     x="785.22467"
     id="tspan1073-6-6-6-3-7-8"
     sodipodi:role="line">$t$</tspan></text>

<text
   id="text1075-0-2-8-3-6-6-6-8"
   y="-214.39229"
   x="515.97833"
   style="font-style:normal;font-weight:normal;font-size:30px;line-height:1.25;font-family:sans-serif;letter-spacing:0px;word-spacing:0px;fill:#000000;fill-opacity:1;stroke:none;stroke-width:0.75"
   xml:space="preserve"><tspan
     style="font-size:18px;stroke-width:0.75"
     y="-214.39229"
     x="515.97833"
     id="tspan1073-6-6-6-6-0-2-5-4"
     sodipodi:role="line">c)</tspan></text>

<text
   id="text1075-0-2-8-9-4-6-0"
   y="-119.06479"
   x="1058.3898"
   style="font-style:normal;font-weight:normal;font-size:30px;line-height:1.25;font-family:sans-serif;letter-spacing:0px;word-spacing:0px;fill:#000000;fill-opacity:1;stroke:none;stroke-width:0.75"
   xml:space="preserve"><tspan
     style="font-size:18px;stroke-width:0.75"
     y="-119.06479"
     x="1058.3898"
     id="tspan1073-6-6-6-3-7-8-4"
     sodipodi:role="line">$t$</tspan></text>

<text
   id="text1075-0-2-8-3-6-6-6-8-8"
   y="-214.39229"
   x="789.14368"
   style="font-style:normal;font-weight:normal;font-size:30px;line-height:1.25;font-family:sans-serif;letter-spacing:0px;word-spacing:0px;fill:#000000;fill-opacity:1;stroke:none;stroke-width:0.75"
   xml:space="preserve"><tspan
     style="font-size:18px;stroke-width:0.75"
     y="-214.39229"
     x="789.14368"
     id="tspan1073-6-6-6-6-0-2-5-4-7"
     sodipodi:role="line">d)</tspan></text>

</g><text
   xml:space="preserve"
   style="font-style:normal;font-weight:normal;font-size:30px;line-height:1.25;font-family:sans-serif;letter-spacing:0px;word-spacing:0px;fill:#000000;fill-opacity:1;stroke:none;stroke-width:0.75"
   x="300.25314"
   y="330.69116"
   id="text14977"><tspan
     sodipodi:role="line"
     id="tspan14975"
     x="300.25314"
     y="357.23413"
     style="stroke-width:0.75" /></text>

</g></svg>