<?xml version="1.0" encoding="UTF-8" standalone="no"?>
<svg
   xmlns:dc="http://purl.org/dc/elements/1.1/"
   xmlns:cc="http://creativecommons.org/ns#"
   xmlns:rdf="http://www.w3.org/1999/02/22-rdf-syntax-ns#"
   xmlns:svg="http://www.w3.org/2000/svg"
   xmlns="http://www.w3.org/2000/svg"
   xmlns:sodipodi="http://sodipodi.sourceforge.net/DTD/sodipodi-0.dtd"
   xmlns:inkscape="http://www.inkscape.org/namespaces/inkscape"
   width="433.84052"
   height="251.91531"
   viewBox="0 0 1735.3622 1007.6613"
   version="1.1"
   id="svg155"
   sodipodi:docname="09_disperzija.svg"
   inkscape:version="0.92.5 (2060ec1f9f, 2020-04-08)">
  <metadata
     id="metadata159">
    <rdf:RDF>
      <cc:Work
         rdf:about="">
        <dc:format>image/svg+xml</dc:format>
        <dc:type
           rdf:resource="http://purl.org/dc/dcmitype/StillImage" />
        <dc:title></dc:title>
      </cc:Work>
    </rdf:RDF>
  </metadata>
  <sodipodi:namedview
     pagecolor="#ffffff"
     bordercolor="#666666"
     borderopacity="1"
     objecttolerance="10"
     gridtolerance="10"
     guidetolerance="10"
     inkscape:pageopacity="0"
     inkscape:pageshadow="2"
     inkscape:window-width="1920"
     inkscape:window-height="999"
     id="namedview157"
     showgrid="false"
     inkscape:zoom="2.1349854"
     inkscape:cx="307.58921"
     inkscape:cy="96.062272"
     inkscape:window-x="0"
     inkscape:window-y="0"
     inkscape:window-maximized="1"
     inkscape:current-layer="svg155"
     fit-margin-top="0"
     fit-margin-left="0"
     fit-margin-right="0"
     fit-margin-bottom="0" />
  <defs
     id="defs5">
    <clipPath
       id="clip140">
      <rect
         x="0"
         y="0"
         width="2400"
         height="1600"
         id="rect2" />
    </clipPath>
  </defs>
  <defs
     id="defs12">
    <clipPath
       id="clip141">
      <rect
         x="480"
         y="0"
         width="1681"
         height="1600"
         id="rect9" />
    </clipPath>
  </defs>
  <defs
     id="defs19">
    <clipPath
       id="clip142">
      <rect
         x="206"
         y="47"
         width="2147"
         height="1440"
         id="rect16" />
    </clipPath>
  </defs>
  <polyline
     clip-path="url(#clip142)"
     style="fill:none;stroke:#d40000;stroke-width:4.76639462;stroke-miterlimit:4;stroke-dasharray:none;stroke-opacity:1"
     points="   267.181,774.805 268.417,775.488 269.653,777.13 270.888,779.712 272.124,783.206 273.36,787.576 274.596,792.779 275.832,798.762 277.068,805.468 279.54,820.781    282.011,838.13 284.483,856.86 286.955,876.267 289.812,898.596 292.669,919.772 294.097,929.601 295.526,938.765 296.954,947.154 298.382,954.668 299.811,961.221    301.239,966.737 302.668,971.153 304.096,974.423 305.525,976.513 306.953,977.405 308.382,977.095 309.81,975.594 311.238,972.93 312.667,969.143 314.095,964.288    315.524,958.431 316.952,951.652 318.381,944.041 319.809,935.698 321.238,926.733 324.094,907.398 326.951,887.017 329.808,866.606 332.665,847.169 335.522,829.646    338.379,814.867 339.807,808.726 341.236,803.513 342.664,799.285 344.093,796.084 345.521,793.943 346.949,792.878 348.378,792.893 349.806,793.978 351.235,796.11    352.663,799.252 354.092,803.356 355.52,808.363 358.377,820.791 361.234,835.862 364.091,852.781 366.948,870.68 369.804,888.657 372.661,905.826 375.518,921.361    378.375,934.531 379.804,940.037 381.232,944.742 382.66,948.595 384.089,951.558 385.517,953.606 386.946,954.725 388.374,954.91 389.803,954.172 391.231,952.531    392.66,950.019 394.088,946.678 395.516,942.56 398.373,932.249 401.23,919.667 406.944,890.48 412.658,860.955 415.515,847.887 418.371,836.786 421.228,828.141    424.085,822.303 425.514,820.504 426.942,819.47 428.371,819.201 429.799,819.686 432.656,822.837 435.513,828.666 438.37,836.789 441.226,846.72 444.083,857.899    446.94,869.72 449.797,881.569 452.654,892.855 455.511,903.036 458.368,911.649 461.225,918.329 464.082,922.826 466.938,925.013 469.795,924.888 473.229,921.85    476.663,916.053 480.096,908.088 483.53,898.673 486.964,888.593 490.398,878.634 493.831,869.523 497.265,861.873 500.699,856.142 504.133,852.609 507.566,851.357    511,852.284 514.434,855.122 517.868,859.467 521.301,864.83 524.735,870.675 531.602,881.758 538.47,889.349 541.904,891.264 545.337,891.888 548.771,891.356    552.205,889.907 559.072,885.54 565.94,881.493 572.807,879.868 579.675,881.31 585.481,884.185 591.287,887.17 597.094,888.699 602.9,887.507 608.706,883.073    614.513,875.874 620.319,867.372 626.126,859.714 629.029,856.934 631.932,855.21 634.835,854.753 637.738,855.711 640.641,858.15 643.545,862.049 646.448,867.295    649.351,873.684 655.157,888.669 660.964,903.967 663.867,910.636 666.77,916.074 669.673,919.902 672.576,921.811 675.73,921.462 678.884,918.469 680.461,915.986    682.037,912.871 683.614,909.156 685.191,904.885 688.345,894.897 691.498,883.443 694.652,871.182 697.806,858.857 700.959,847.251 704.113,837.135 707.267,829.217    710.42,824.094 711.997,822.727 713.574,822.21 715.151,822.57 716.728,823.818 718.304,825.953 719.881,828.958 721.458,832.805 723.035,837.449 726.189,848.886    729.342,862.666 732.496,878.014 735.65,894.03 738.803,909.74 741.957,924.16 745.111,936.351 748.264,945.487 749.841,948.696 751.418,950.908 752.995,952.076    754.572,952.165 756.148,951.159 757.725,949.057 759.302,945.876 760.879,941.65 762.456,936.428 764.033,930.278 765.609,923.28 767.186,915.532 770.34,898.228    773.494,879.364 776.401,861.553 779.308,844.285 782.216,828.472 785.123,814.969 786.577,809.324 788.031,804.528 789.484,800.653 790.938,797.758 792.392,795.89    793.845,795.084 795.299,795.362 796.753,796.73 798.206,799.18 799.66,802.693 801.114,807.231 802.568,812.747 804.021,819.178 805.475,826.449 806.929,834.473    808.382,843.154 814.197,882.2 820.012,922.14 822.919,939.855 825.827,954.781 827.28,960.937 828.734,966.103 830.188,970.205 831.642,973.182 833.095,974.986    834.549,975.588 836.003,974.97 837.456,973.131 838.91,970.087 840.364,965.869 841.817,960.523 843.271,954.11 846.179,938.4 849.086,919.498 851.993,898.336    854.901,875.976 857.808,853.555 860.716,832.226 863.623,813.099 866.53,797.182 868.089,790.275 869.647,784.649 871.206,780.392 872.764,777.575 874.323,776.248    875.881,776.439 877.44,778.151 878.999,781.368 880.557,786.05 882.116,792.134 883.674,799.538 885.233,808.159 888.35,828.546 891.467,852.135 894.584,877.563    897.701,903.345 900.818,927.967 903.935,949.969 905.493,959.568 907.052,968.035 908.61,975.24 910.169,981.073 911.727,985.444 913.286,988.282 914.844,989.542    916.403,989.2 917.962,987.255 919.52,983.732 921.079,978.678 922.637,972.163 924.196,964.279 925.754,955.139 927.313,944.874 928.871,933.633 935.105,882.337    941.339,830.065 942.898,818.3 944.456,807.417 946.015,797.58 947.573,788.935 949.132,781.611 950.69,775.717 952.249,771.343 953.807,768.554 955.366,767.395    956.924,767.883 958.483,770.014 960.042,773.758 961.6,779.062 963.159,785.848 964.717,794.018 966.276,803.453 968.081,815.783 969.887,829.383 971.693,843.985    973.498,859.302 977.11,890.86 980.721,921.579 982.527,935.862 984.333,949.046 986.138,960.871 987.944,971.105 989.75,979.545 991.555,986.027 993.361,990.423    995.167,992.648 996.972,992.66 998.778,990.46 1000.58,986.095 1002.39,979.652 1004.2,971.261 1006,961.09 1007.81,949.343 1009.61,936.252 1013.22,907.105    1016.84,875.949 1020.45,845.235 1024.06,817.37 1025.86,805.198 1027.67,794.524 1029.48,785.555 1031.28,778.463 1033.09,773.383 1034.89,770.41 1036.7,769.595    1038.5,770.947 1040.31,774.435 1042.11,779.981 1043.92,787.47 1045.73,796.747 1047.53,807.623 1049.34,819.877 1051.14,833.263 1052.95,847.513 1056.56,877.455    1060.17,907.339 1061.98,921.523 1063.78,934.828 1065.59,946.995 1067.39,957.791 1069.2,967.008 1071.01,974.474 1072.81,980.049 1074.62,983.634 1076.42,985.169    1078.23,984.634 1080.03,982.051 1081.84,977.483 1083.44,971.839 1085.05,964.802 1086.65,956.49 1088.26,947.038 1091.47,925.346 1094.68,901.112 1097.89,875.866    1101.1,851.182 1102.7,839.531 1104.31,828.582 1105.91,818.499 1107.52,809.436 1109.12,801.527 1110.72,794.886 1112.33,789.61 1113.93,785.77 1115.54,783.417    1117.14,782.576 1118.75,783.25 1120.35,785.418 1121.96,789.034 1123.56,794.031 1125.17,800.321 1126.77,807.796 1129.98,825.78 1133.19,846.804 1136.4,869.517    1139.61,892.485 1142.82,914.282 1146.03,933.581 1147.63,941.925 1149.24,949.232 1150.84,955.396 1152.45,960.334 1154.05,963.979 1155.66,966.287 1157.26,967.236    1158.87,966.825 1160.47,965.072 1162.07,962.021 1163.68,957.731 1165.28,952.284 1166.89,945.776 1168.49,938.32 1170.1,930.045 1171.7,921.087 1178.12,881.475    1184.54,843.376 1185.95,836.172 1187.35,829.571 1188.76,823.646 1190.17,818.461 1191.58,814.071 1192.98,810.518 1194.39,807.837 1195.8,806.048 1197.21,805.164    1198.61,805.184 1200.02,806.097 1201.43,807.881 1202.83,810.504 1204.24,813.923 1205.65,818.087 1207.06,822.936 1209.87,834.414 1212.68,847.743 1215.5,862.234    1218.31,877.162 1221.13,891.798 1223.94,905.449 1226.76,917.489 1229.57,927.387 1232.38,934.732 1235.2,939.252 1236.61,940.407 1238.01,940.819 1239.42,940.496    1240.83,939.454 1243.64,935.32 1246.46,928.711 1249.27,920.033 1252.08,909.778 1257.71,886.781 1263.34,864.336 1266.16,854.664 1268.97,846.611 1271.78,840.502    1274.6,836.549 1277.67,834.806 1280.74,835.704 1283.8,839.056 1286.87,844.534 1293.01,860.044 1299.15,878.008 1302.21,886.529 1305.28,894.088 1308.35,900.299    1311.42,904.884 1314.49,907.682 1317.56,908.658 1320.63,907.895 1323.69,905.581 1329.83,897.464 1335.97,887.11 1342.1,877.459 1348.24,870.787 1351.31,868.958    1354.38,868.169 1357.45,868.342 1360.51,869.326 1366.65,872.878 1372.79,876.903 1378.96,879.63 1385.13,879.971 1391.31,877.962 1397.48,874.697 1403.65,871.94    1409.83,871.496 1412.91,872.546 1416,874.53 1419.09,877.411 1422.17,881.068 1428.35,889.832 1434.52,898.487 1437.61,901.899 1440.69,904.25 1443.78,905.258    1446.87,904.715 1449.95,902.51 1453.04,898.641 1456.13,893.225 1459.21,886.495 1465.39,870.54 1471.56,854.435 1474.97,847.009 1478.38,841.503 1480.09,839.651    1481.8,838.479 1483.5,838.031 1485.21,838.34 1486.92,839.424 1488.62,841.286 1490.33,843.915 1492.04,847.287 1495.45,856.073 1498.86,867.145 1505.69,893.171    1512.51,918.191 1514.22,923.375 1515.92,927.902 1517.63,931.675 1519.34,934.605 1521.04,936.621 1522.75,937.664 1524.46,937.693 1526.16,936.686 1527.87,934.638    1529.57,931.565 1531.28,927.501 1532.99,922.5 1536.4,909.992 1539.81,894.816 1543.23,877.977 1546.64,860.639 1550.05,844.047 1553.46,829.435 1555.17,823.231    1556.88,817.933 1558.58,813.652 1560.29,810.483 1561.99,808.499 1563.7,807.758 1565.41,808.291 1567.11,810.109 1568.82,813.199 1570.53,817.526 1572.23,823.029    1573.94,829.629 1577.35,845.686 1580.76,864.655 1584.01,884.238 1587.26,904.06 1590.51,922.841 1593.75,939.332 1595.38,946.36 1597,952.407 1598.62,957.364    1600.25,961.138 1601.87,963.654 1603.49,964.857 1605.12,964.713 1606.74,963.21 1608.36,960.357 1609.99,956.185 1611.61,950.75 1613.23,944.124 1614.86,936.402    1616.48,927.699 1618.11,918.144 1619.73,907.883 1622.98,885.891 1626.22,863.098 1629.47,840.962 1632.72,820.921 1634.34,812.109 1635.96,804.305 1637.59,797.644    1639.21,792.244 1640.83,788.201 1642.46,785.592 1644.08,784.47 1645.71,784.865 1647.33,786.783 1648.95,790.206 1650.58,795.089 1652.2,801.365 1653.82,808.944    1655.45,817.714 1657.07,827.541 1658.69,838.277 1665.19,886.795 1671.68,934.899 1673.31,945.385 1674.93,954.893 1676.55,963.264 1678.18,970.357 1679.8,976.051    1681.42,980.246 1683.05,982.867 1684.67,983.863 1686.36,983.149 1688.05,980.654 1689.73,976.41 1691.42,970.484 1693.11,962.967 1694.8,953.982 1696.49,943.678    1698.17,932.226 1701.55,906.667 1704.93,879.035 1708.3,851.222 1711.68,825.146 1713.37,813.335 1715.06,802.625 1716.74,793.204 1718.43,785.24 1720.12,778.878    1721.81,774.232 1723.5,771.389 1725.18,770.406 1726.87,771.304 1728.56,774.075 1730.25,778.677 1731.94,785.036 1733.62,793.047 1735.31,802.577 1737,813.466    1738.69,825.528 1742.07,852.335 1745.44,881.171 1748.82,910.059 1752.19,937.009 1753.88,949.167 1755.57,960.158 1757.26,969.791 1758.95,977.898 1760.63,984.336    1762.32,988.99 1764.01,991.779 1765.7,992.651 1767.39,991.589 1769.07,988.609 1770.76,983.76 1772.45,977.125 1774.14,968.816 1775.83,958.974 1777.52,947.77    1779.2,935.395 1785.96,878.671 1792.71,822.262 1794.13,811.914 1795.55,802.396 1796.97,793.825 1798.39,786.306 1799.81,779.929 1801.23,774.773 1802.66,770.9    1804.08,768.356 1805.5,767.172 1806.92,767.362 1808.34,768.922 1809.76,771.833 1811.18,776.057 1812.6,781.541 1814.02,788.218 1815.44,796.005 1818.29,814.51    1821.13,836.144 1823.97,859.846 1826.81,884.456 1829.65,908.772 1832.5,931.611 1833.92,942.126 1835.34,951.866 1836.76,960.713 1838.18,968.56 1839.6,975.315    1841.02,980.896 1842.44,985.237 1843.86,988.29 1845.29,990.019 1846.71,990.406 1848.13,989.449 1849.55,987.165 1850.97,983.584 1852.39,978.753 1853.81,972.734    1855.23,965.606 1856.65,957.456 1858.07,948.39 1859.5,938.519 1860.92,927.966 1866.6,881.651 1872.28,835.645 1873.71,825.253 1875.13,815.565 1876.55,806.698    1877.97,798.755 1879.39,791.831 1880.81,786.006 1882.23,781.347 1883.65,777.906 1885.39,775.41 1887.12,774.82 1888.86,776.136 1890.59,779.325 1892.33,784.318    1894.06,791.015 1895.8,799.284 1897.53,808.965 1901,831.805 1904.47,857.825 1907.94,885.107 1911.41,911.664 1913.15,924.066 1914.88,935.585 1916.62,946.017    1918.35,955.18 1920.09,962.916 1921.82,969.095 1923.56,973.615 1925.29,976.408 1927.03,977.434 1928.76,976.69 1930.5,974.203 1932.23,970.032 1933.96,964.267    1935.7,957.026 1937.43,948.454 1939.17,938.717 1942.64,916.517 1946.11,892.097 1949.58,867.263 1953.05,843.814 1954.78,833.139 1956.52,823.418 1958.25,814.819    1959.99,807.487 1961.72,801.544 1963.46,797.082 1965.19,794.169 1966.93,792.84 1968.66,793.102 1970.4,794.934 1972.13,798.285 1973.87,803.076 1975.6,809.203    1977.34,816.539 1979.07,824.936 1980.81,834.229 1987.75,876.598 1994.69,917.767 1996.32,925.962 1997.95,933.315 1999.58,939.717 2001.21,945.08 2002.84,949.328    2004.47,952.408 2006.1,954.287 2007.73,954.951 2009.36,954.405 2010.99,952.675 2012.63,949.807 2014.26,945.864 2015.89,940.924 2017.52,935.083 2019.15,928.449    2020.78,921.142 2027.3,887.848 2033.83,854.779 2035.46,847.552 2037.09,840.973 2038.72,835.138 2040.35,830.129 2041.98,826.012 2043.61,822.838 2045.24,820.642    2046.87,819.441 2048.5,819.235 2050.14,820.01 2051.77,821.733 2053.4,824.357 2056.66,832.054 2059.92,842.469 2066.44,868.213 2072.97,894.542 2076.23,905.793    2079.49,914.848 2081.12,918.393 2082.75,921.224 2084.38,923.312 2086.01,924.643 2087.64,925.214 2089.28,925.036 2090.91,924.133 2092.54,922.542 2095.8,917.485    2099.06,910.346 2104.29,896.086 2109.51,880.761 2112.12,873.544 2114.74,867.023 2117.35,861.442 2119.96,856.991 2122.58,853.795 2125.19,851.917 2127.8,851.356    2130.41,852.047 2133.03,853.871 2135.64,856.665 2138.25,860.228 2140.86,864.334 2146.09,873.23 2151.32,881.543 2156.54,887.829 2161.77,891.263 2166.99,891.742    2172.22,889.828 2177.44,886.554 2182.67,883.14 2187.89,880.679 2193.12,879.872 2198.35,880.865 2203.57,883.224 2208.8,886.047 2214.02,888.199 2219.25,888.603    2224.47,886.538 2229.7,881.858 2234.92,875.099 2240.15,867.421 2245.38,860.414 2247.99,857.699 2250.6,855.777 2253.21,854.818 2255.83,854.951 2258.44,856.261    2261.05,858.774 2263.66,862.459 2266.28,867.225 2269.49,874.348 2272.71,882.48 2275.93,891.123 2279.14,899.704 2282.36,907.616 2285.58,914.262 2288.79,919.094    2292.01,921.659    "
     id="polyline137"
     transform="matrix(-1,0,0,0.70427126,2289.2126,-42.972599)" />
  <polyline
     clip-path="url(#clip142)"
     style="fill:none;stroke:#d40000;stroke-width:4.76639462;stroke-miterlimit:4;stroke-dasharray:none;stroke-opacity:1"
     points="   267.181,1007.15 268.417,1007.87 269.653,1009.48 270.888,1011.98 272.124,1015.34 273.36,1019.51 274.596,1024.46 275.832,1030.13 277.068,1036.47 279.54,1050.9    282.011,1067.19 283.247,1075.84 284.483,1084.72 285.719,1093.74 286.955,1102.82 289.812,1123.58 292.669,1143.18 294.097,1152.26 295.526,1160.7 296.954,1168.4    298.382,1175.29 299.811,1181.27 301.239,1186.28 302.668,1190.27 304.096,1193.2 305.525,1195.03 306.953,1195.76 308.382,1195.38 309.81,1193.92 311.238,1191.39    312.667,1187.83 314.095,1183.31 315.524,1177.88 318.381,1164.62 321.238,1148.77 324.094,1131.14 326.951,1112.64 329.808,1094.2 332.665,1076.73 335.522,1061.06    338.379,1047.92 339.807,1042.5 341.236,1037.92 342.664,1034.23 344.093,1031.47 345.521,1029.65 346.949,1028.81 348.378,1028.92 349.806,1029.99 351.235,1031.98    352.663,1034.86 354.092,1038.58 355.52,1043.09 358.377,1054.2 361.234,1067.57 364.091,1082.49 366.948,1098.17 369.804,1113.82 372.661,1128.68 375.518,1142.02    378.375,1153.24 379.804,1157.89 381.232,1161.84 382.66,1165.04 384.089,1167.47 385.517,1169.11 386.946,1169.95 388.374,1169.99 389.803,1169.24 392.66,1165.49    395.516,1158.98 398.373,1150.12 401.23,1139.42 406.944,1114.97 412.658,1090.68 415.515,1080.09 418.371,1071.22 421.228,1064.42 424.085,1059.97 426.942,1057.97    429.799,1058.43 432.656,1061.22 435.513,1066.08 438.37,1072.67 441.226,1080.59 444.083,1089.35 446.94,1098.47 449.797,1107.48 452.654,1115.91 455.511,1123.37    458.368,1129.53 461.225,1134.15 464.082,1137.08 466.938,1138.29 469.795,1137.81 473.229,1135.22 476.663,1130.79 480.096,1125.03 483.53,1118.5 490.398,1105.45    497.265,1095.62 500.699,1092.72 504.133,1091.3 507.566,1091.3 511,1092.52 517.868,1097.36 524.735,1102.97 531.602,1106.75 538.47,1107.35 545.337,1105.18    552.205,1102.1 555.639,1100.99 559.072,1100.55 562.506,1101 565.94,1102.45 572.807,1108.25 579.675,1116.51 585.481,1123.27 591.287,1127.56 594.191,1128.19    597.094,1127.58 599.997,1125.65 602.9,1122.38 608.706,1112.26 614.513,1098.85 620.319,1084.86 626.126,1073.52 629.029,1069.83 631.932,1067.87 634.835,1067.87    637.738,1069.94 640.641,1074.1 643.545,1080.23 646.448,1088.09 649.351,1097.36 655.157,1118.27 660.964,1138.74 663.867,1147.37 666.77,1154.24 669.673,1158.87    672.576,1160.95 674.153,1160.91 675.73,1160.04 677.307,1158.32 678.884,1155.76 680.461,1152.39 682.037,1148.25 683.614,1143.37 685.191,1137.83 691.498,1110.6    697.806,1080.18 700.959,1066.08 704.113,1053.95 705.69,1048.89 707.267,1044.62 708.844,1041.21 710.42,1038.74 711.997,1037.26 713.574,1036.81 715.151,1037.41    716.728,1039.07 718.304,1041.77 719.881,1045.5 721.458,1050.21 723.035,1055.84 726.189,1069.56 729.342,1085.91 732.496,1103.97 735.65,1122.66 738.803,1140.85    741.957,1157.42 743.534,1164.76 745.111,1171.3 746.687,1176.94 748.264,1181.58 749.841,1185.13 751.418,1187.53 752.995,1188.73 754.572,1188.7 756.148,1187.42    757.725,1184.9 759.302,1181.16 760.879,1176.25 762.456,1170.22 764.033,1163.17 765.609,1155.18 767.186,1146.37 770.34,1126.79 773.494,1105.58 776.401,1085.66    779.308,1066.45 782.216,1048.95 785.123,1034.1 786.577,1027.92 788.031,1022.7 789.484,1018.52 790.938,1015.42 792.392,1013.46 793.845,1012.68 795.299,1013.09    796.753,1014.7 798.206,1017.5 799.66,1021.45 801.114,1026.52 802.568,1032.64 804.021,1039.76 805.475,1047.77 806.929,1056.6 808.382,1066.11 814.197,1108.68    820.012,1151.87 821.466,1161.72 822.919,1170.91 824.373,1179.33 825.827,1186.87 827.28,1193.42 828.734,1198.89 830.188,1203.21 831.642,1206.31 833.095,1208.15    834.549,1208.7 836.003,1207.95 837.456,1205.89 838.91,1202.55 840.364,1197.96 841.817,1192.17 843.271,1185.26 844.725,1177.31 846.179,1168.41 847.632,1158.68    849.086,1148.23 851.993,1125.73 854.901,1102.04 857.808,1078.36 860.716,1055.91 862.169,1045.52 863.623,1035.86 865.077,1027.06 866.53,1019.24 868.089,1012.07    869.647,1006.25 871.206,1001.87 872.764,999.011 874.323,997.715 875.881,998.007 877.44,999.889 878.999,1003.34 880.557,1008.31 882.116,1014.73 883.674,1022.52    885.233,1031.55 888.35,1052.85 891.467,1077.4 894.584,1103.77 897.701,1130.42 900.818,1155.79 903.935,1178.37 905.493,1188.2 907.052,1196.84 908.61,1204.17    910.169,1210.08 911.727,1214.49 913.286,1217.31 914.844,1218.51 916.403,1218.07 917.962,1216 919.52,1212.31 921.079,1207.07 922.637,1200.34 924.196,1192.23    925.754,1182.85 927.313,1172.34 928.871,1160.85 935.105,1108.66 941.339,1055.81 942.898,1043.96 944.456,1033.02 946.015,1023.16 947.573,1014.51 949.132,1007.2    950.69,1001.35 952.249,997.026 953.807,994.308 955.366,993.229 956.924,993.805 958.483,996.027 960.042,999.862 961.6,1005.25 963.159,1012.12 964.717,1020.35    966.276,1029.84 968.081,1042.21 969.887,1055.83 971.693,1070.42 973.498,1085.69 977.11,1117.08 980.721,1147.53 982.527,1161.65 984.333,1174.65 986.138,1186.28    987.944,1196.33 989.75,1204.58 991.555,1210.89 993.361,1215.12 995.167,1217.22 996.972,1217.13 998.778,1214.87 1000.58,1210.48 1002.39,1204.07 1004.2,1195.76    1006,1185.71 1007.81,1174.15 1009.61,1161.29 1013.22,1132.74 1016.84,1102.35 1020.45,1072.49 1024.06,1045.52 1025.86,1033.77 1027.67,1023.5 1029.48,1014.9    1031.28,1008.13 1033.09,1003.31 1034.89,1000.54 1036.7,999.857 1038.5,1001.26 1040.31,1004.72 1042.11,1010.15 1043.92,1017.43 1045.73,1026.42 1047.53,1036.92    1049.34,1048.73 1051.14,1061.59 1052.95,1075.25 1056.56,1103.87 1060.17,1132.32 1061.98,1145.78 1063.78,1158.37 1065.59,1169.86 1067.39,1180.03 1069.2,1188.68    1071.01,1195.66 1072.81,1200.83 1074.62,1204.11 1076.42,1205.46 1078.23,1204.85 1080.03,1202.31 1081.84,1197.91 1083.44,1192.52 1085.05,1185.84 1086.65,1177.97    1088.26,1169.05 1091.47,1148.66 1094.68,1125.98 1097.89,1102.45 1101.1,1079.54 1104.31,1058.66 1107.52,1041.06 1109.12,1033.83 1110.72,1027.78 1112.33,1023.01    1113.93,1019.57 1115.54,1017.5 1117.14,1016.83 1118.75,1017.55 1120.35,1019.64 1121.96,1023.05 1123.56,1027.72 1125.17,1033.55 1126.77,1040.46 1129.98,1056.97    1133.19,1076.17 1136.4,1096.81 1139.61,1117.57 1142.82,1137.16 1146.03,1154.41 1147.63,1161.83 1149.24,1168.29 1150.84,1173.72 1152.45,1178.03 1154.05,1181.18    1155.66,1183.13 1157.26,1183.86 1158.87,1183.38 1160.47,1181.71 1162.07,1178.9 1163.68,1174.99 1165.28,1170.08 1168.49,1157.6 1171.7,1142.32 1178.12,1107.58    1184.54,1074.63 1185.95,1068.46 1187.35,1062.83 1188.76,1057.81 1190.17,1053.43 1191.58,1049.76 1192.98,1046.82 1194.39,1044.63 1195.8,1043.21 1197.21,1042.57    1198.61,1042.71 1200.02,1043.6 1201.43,1045.23 1202.83,1047.56 1204.24,1050.56 1205.65,1054.17 1207.06,1058.35 1209.87,1068.15 1212.68,1079.42 1215.5,1091.56    1218.31,1103.95 1221.13,1115.99 1223.94,1127.12 1226.76,1136.81 1229.57,1144.67 1232.38,1150.39 1235.2,1153.76 1238.01,1154.74 1240.83,1153.36 1243.64,1149.82    1246.46,1144.37 1249.27,1137.37 1252.08,1129.25 1257.71,1111.44 1263.34,1094.61 1266.16,1087.56 1268.97,1081.84 1271.78,1077.66 1274.6,1075.13 1277.67,1074.28    1280.74,1075.34 1283.8,1078.09 1286.87,1082.23 1293.01,1093.22 1299.15,1105.04 1302.21,1110.31 1305.28,1114.74 1308.35,1118.12 1311.42,1120.34 1314.49,1121.37    1317.56,1121.29 1320.63,1120.24 1323.69,1118.42 1329.83,1113.53 1335.97,1108.71 1342.1,1105.68 1348.24,1105.23 1354.38,1107.04 1360.51,1109.82 1366.65,1111.84    1372.79,1111.5 1378.96,1107.98 1385.13,1101.63 1391.31,1093.98 1397.48,1087.42 1400.57,1085.34 1403.65,1084.43 1406.74,1084.9 1409.83,1086.87 1412.91,1090.33    1416,1095.21 1419.09,1101.29 1422.17,1108.27 1428.35,1123.29 1434.52,1136.52 1437.61,1141.25 1440.69,1144.17 1443.78,1144.97 1446.87,1143.45 1449.95,1139.56    1453.04,1133.42 1456.13,1125.26 1459.21,1115.48 1465.39,1093.23 1471.56,1071.76 1473.27,1066.7 1474.97,1062.21 1476.68,1058.41 1478.38,1055.38 1480.09,1053.2    1481.8,1051.91 1483.5,1051.58 1485.21,1052.23 1486.92,1053.86 1488.62,1056.48 1490.33,1060.06 1492.04,1064.55 1495.45,1076 1498.86,1090.14 1505.69,1122.62    1512.51,1153.05 1514.22,1159.24 1515.92,1164.59 1517.63,1169.01 1519.34,1172.38 1521.04,1174.63 1522.75,1175.7 1524.46,1175.56 1526.16,1174.17 1527.87,1171.56    1529.57,1167.73 1531.28,1162.75 1532.99,1156.69 1536.4,1141.69 1539.81,1123.7 1543.23,1103.93 1546.64,1083.74 1550.05,1064.58 1553.46,1047.86 1555.17,1040.81    1556.88,1034.84 1558.58,1030.05 1560.29,1026.56 1561.99,1024.43 1563.7,1023.73 1565.41,1024.48 1567.11,1026.7 1568.82,1030.35 1570.53,1035.39 1572.23,1041.74    1573.94,1049.31 1575.65,1057.98 1577.35,1067.6 1579.06,1078.02 1580.76,1089.05 1584.01,1111.04 1587.26,1133.18 1590.51,1154.04 1593.75,1172.23 1595.38,1179.95    1597,1186.55 1598.62,1191.93 1600.25,1195.99 1601.87,1198.65 1603.49,1199.86 1605.12,1199.59 1606.74,1197.82 1608.36,1194.57 1609.99,1189.88 1611.61,1183.82    1613.23,1176.48 1614.86,1167.95 1616.48,1158.38 1618.11,1147.89 1619.73,1136.67 1622.98,1112.7 1626.22,1087.97 1629.47,1064.06 1632.72,1042.51 1634.34,1033.08    1635.96,1024.75 1637.59,1017.67 1639.21,1011.96 1640.83,1007.71 1642.46,1005.02 1644.08,1003.92 1645.71,1004.45 1647.33,1006.6 1648.95,1010.36 1650.58,1015.67    1652.2,1022.45 1653.82,1030.61 1655.45,1040.02 1657.07,1050.53 1658.69,1061.98 1661.94,1087 1665.19,1113.48 1668.43,1139.76 1671.68,1164.16 1673.31,1175.14    1674.93,1185.08 1676.55,1193.81 1678.18,1201.18 1679.8,1207.06 1681.42,1211.37 1683.05,1214.02 1684.67,1214.97 1686.36,1214.12 1688.05,1211.41 1689.73,1206.89    1691.42,1200.62 1693.11,1192.7 1694.8,1183.28 1696.49,1172.49 1698.17,1160.54 1701.55,1133.94 1704.93,1105.3 1708.3,1076.56 1711.68,1049.72 1713.37,1037.6    1715.06,1026.63 1716.74,1017.01 1718.43,1008.9 1720.12,1002.45 1721.81,997.778 1723.5,994.957 1725.18,994.045 1726.87,995.06 1728.56,997.988 1730.25,1002.78    1731.94,1009.36 1733.62,1017.61 1735.31,1027.4 1737,1038.55 1738.69,1050.88 1745.44,1107.48 1752.19,1163.91 1753.88,1176.13 1755.57,1187.16 1757.26,1196.81    1758.95,1204.9 1760.63,1211.3 1762.32,1215.89 1764.01,1218.6 1765.7,1219.38 1767.39,1218.23 1769.07,1215.15 1770.76,1210.2 1772.45,1203.48 1774.14,1195.09    1775.83,1185.19 1777.52,1173.94 1779.2,1161.54 1782.58,1134.17 1785.96,1104.97 1789.33,1075.95 1792.71,1049.09 1794.13,1038.89 1795.55,1029.52 1796.97,1021.1    1798.39,1013.73 1799.81,1007.5 1801.23,1002.48 1802.66,998.734 1804.08,996.304 1805.5,995.216 1806.92,995.481 1808.34,997.093 1809.76,1000.03 1811.18,1004.25    1812.6,1009.7 1814.02,1016.32 1815.44,1024.01 1818.29,1042.23 1821.13,1063.45 1823.97,1086.64 1826.81,1110.63 1829.65,1134.28 1832.5,1156.42 1833.92,1166.59    1835.34,1175.99 1836.76,1184.51 1838.18,1192.05 1839.6,1198.52 1841.02,1203.85 1842.44,1207.97 1843.86,1210.84 1845.29,1212.43 1846.71,1212.73 1848.13,1211.73    1849.55,1209.45 1850.97,1205.92 1852.39,1201.21 1853.81,1195.35 1855.23,1188.44 1856.65,1180.57 1858.07,1171.82 1859.5,1162.32 1860.92,1152.18 1866.6,1107.87    1872.28,1064.13 1873.71,1054.29 1875.13,1045.14 1876.55,1036.78 1877.97,1029.31 1879.39,1022.82 1880.81,1017.38 1882.23,1013.05 1883.65,1009.88 1885.39,1007.62    1887.12,1007.17 1888.86,1008.51 1890.59,1011.61 1892.33,1016.4 1894.06,1022.78 1895.8,1030.62 1897.53,1039.77 1901,1061.26 1904.47,1085.62 1907.94,1111.05    1911.41,1135.69 1913.15,1147.15 1914.88,1157.77 1916.62,1167.36 1918.35,1175.75 1920.09,1182.81 1921.82,1188.41 1923.56,1192.48 1925.29,1194.94 1927.03,1195.77    1928.76,1194.98 1930.5,1192.59 1932.23,1188.66 1933.96,1183.29 1935.7,1176.58 1937.43,1168.68 1939.17,1159.74 1942.64,1139.44 1946.11,1117.25 1949.58,1094.8    1953.05,1073.72 1954.78,1064.17 1956.52,1055.51 1958.25,1047.88 1959.99,1041.41 1961.72,1036.19 1963.46,1032.32 1965.19,1029.84 1966.93,1028.78 1968.66,1029.14    1970.4,1030.89 1972.13,1033.97 1973.87,1038.33 1975.6,1043.85 1977.34,1050.41 1979.07,1057.89 1980.81,1066.13 1987.75,1103.33 1994.69,1138.94 1996.32,1145.95    1997.95,1152.21 1999.58,1157.62 2001.21,1162.12 2002.84,1165.65 2004.47,1168.16 2006.1,1169.63 2007.73,1170.07 2009.36,1169.47 2010.99,1167.87 2012.63,1165.31    2014.26,1161.85 2017.52,1152.54 2020.78,1140.67 2027.3,1112.79 2033.83,1085.66 2035.46,1079.82 2037.09,1074.55 2038.72,1069.91 2040.35,1065.97 2041.98,1062.78    2043.61,1060.37 2045.24,1058.76 2046.87,1057.96 2048.5,1057.96 2050.14,1058.74 2051.77,1060.27 2053.4,1062.5 2056.66,1068.85 2059.92,1077.21 2066.44,1097.32    2072.97,1117.16 2076.23,1125.36 2079.49,1131.77 2082.75,1136.07 2086.01,1138.13 2089.28,1137.97 2092.54,1135.78 2095.8,1131.86 2099.06,1126.64 2104.29,1116.75    2109.51,1106.77 2114.74,1098.49 2119.96,1093.12 2122.58,1091.71 2125.19,1091.15 2127.8,1091.38 2130.41,1092.3 2135.64,1095.66 2140.86,1100 2146.09,1104.02    2151.32,1106.7 2156.54,1107.51 2161.77,1106.52 2166.99,1104.37 2172.22,1102.04 2177.44,1100.64 2182.67,1101.08 2187.89,1103.83 2193.12,1108.74 2198.35,1115.01    2203.57,1121.37 2208.8,1126.24 2214.02,1128.19 2216.63,1127.71 2219.25,1126.17 2221.86,1123.54 2224.47,1119.87 2229.7,1109.84 2234.92,1097.51 2240.15,1084.94    2245.38,1074.5 2247.99,1070.8 2250.6,1068.45 2253.21,1067.61 2255.83,1068.42 2258.44,1070.93 2261.05,1075.11 2263.66,1080.85 2266.28,1087.99 2269.49,1098.31    2272.71,1109.75 2275.93,1121.61 2279.14,1133.12 2282.36,1143.49 2285.58,1151.97 2288.79,1157.92 2292.01,1160.81    "
     id="polyline143"
     transform="matrix(-1,0,0,0.70427126,2289.2126,-42.972599)" />
  <polyline
     clip-path="url(#clip142)"
     style="fill:none;stroke:#d40000;stroke-width:4.76639462;stroke-miterlimit:4;stroke-dasharray:none;stroke-opacity:1"
     points="   267.181,1241.06 269.653,1243.37 272.124,1248.91 274.596,1257.43 277.068,1268.57 279.54,1281.9 282.011,1296.87 283.247,1304.79 284.483,1312.91 285.719,1321.15    286.955,1329.43 289.812,1348.28 292.669,1366.01 295.526,1381.77 298.382,1394.82 299.811,1400.13 301.239,1404.56 302.668,1408.06 304.096,1410.6 305.525,1412.15    306.953,1412.7 308.382,1412.26 309.81,1410.85 311.238,1408.5 312.667,1405.24 314.095,1401.12 315.524,1396.21 318.381,1384.28 321.238,1370.13 324.094,1354.49    326.951,1338.17 329.808,1321.99 332.665,1306.76 335.522,1293.18 338.379,1281.9 339.807,1277.28 341.236,1273.4 342.664,1270.31 344.093,1268.03 345.521,1266.57    346.949,1265.96 348.378,1266.17 349.806,1267.2 352.663,1271.59 355.52,1278.82 358.377,1288.44 361.234,1299.9 364.091,1312.57 366.948,1325.78 369.804,1338.87    372.661,1351.17 375.518,1362.12 378.375,1371.21 381.232,1378.06 384.089,1382.42 386.946,1384.17 389.803,1383.32 392.66,1380.03 395.516,1374.56 398.373,1367.29    401.23,1358.66 406.944,1339.33 412.658,1320.65 415.515,1312.71 418.371,1306.2 421.228,1301.36 424.085,1298.36 426.942,1297.24 429.799,1297.94 432.656,1300.31    435.513,1304.13 441.226,1314.86 446.94,1327.35 449.797,1333.37 452.654,1338.82 455.511,1343.44 458.368,1347.05 461.225,1349.53 464.082,1350.85 466.938,1351.06    469.795,1350.24 473.229,1348.13 476.663,1345.15 480.096,1341.68 483.53,1338.14 490.398,1332.27 497.265,1329.54 504.133,1330.23 511,1332.96 517.868,1335.39    524.735,1335.32 531.602,1331.73 538.47,1325.34 545.337,1318.5 552.205,1314.36 555.639,1314.2 559.072,1315.65 562.506,1318.76 565.94,1323.47 572.807,1336.6    579.675,1351.55 582.578,1357.27 585.481,1362.08 588.384,1365.62 591.287,1367.61 594.191,1367.82 597.094,1366.13 599.997,1362.49 602.9,1357 605.803,1349.86    608.706,1341.36 611.61,1331.9 614.513,1321.95 617.416,1312.03 620.319,1302.69 623.222,1294.46 626.126,1287.85 629.029,1283.29 631.932,1281.13 634.835,1281.58    637.738,1284.74 640.641,1290.55 643.545,1298.81 646.448,1309.18 649.351,1321.18 652.254,1334.23 655.157,1347.69 658.06,1360.84 660.964,1373 663.867,1383.47    666.77,1391.64 668.222,1394.71 669.673,1397.02 671.125,1398.53 672.576,1399.22 674.153,1399 675.73,1397.77 677.307,1395.52 678.884,1392.28 680.461,1388.07    682.037,1382.96 683.614,1377 685.191,1370.27 688.345,1354.89 691.498,1337.68 694.652,1319.67 697.806,1301.92 700.959,1285.55 704.113,1271.6 705.69,1265.83    707.267,1260.99 708.844,1257.18 710.42,1254.46 711.997,1252.89 713.574,1252.51 715.151,1253.34 716.728,1255.38 718.304,1258.61 719.881,1263 721.458,1268.49    723.035,1275.02 724.612,1282.49 726.189,1290.81 727.765,1299.85 729.342,1309.48 732.496,1329.96 735.65,1351.03 738.803,1371.42 741.957,1389.87 743.534,1398    745.111,1405.22 746.687,1411.42 748.264,1416.48 749.841,1420.32 751.418,1422.88 752.995,1424.09 754.572,1423.94 756.148,1422.4 757.725,1419.5 759.302,1415.26    760.879,1409.74 762.456,1403.01 764.033,1395.16 765.609,1386.31 767.186,1376.57 770.34,1355.03 773.494,1331.81 776.401,1310.09 779.308,1289.24 780.762,1279.48    782.216,1270.33 783.67,1261.92 785.123,1254.36 786.577,1247.76 788.031,1242.2 789.484,1237.76 790.938,1234.51 792.392,1232.5 793.845,1231.75 795.299,1232.29    796.753,1234.12 798.206,1237.21 799.66,1241.54 801.114,1247.06 802.568,1253.7 804.021,1261.39 805.475,1270.02 806.929,1279.5 808.382,1289.71 811.29,1311.78    814.197,1335.13 817.105,1358.57 820.012,1380.89 821.466,1391.27 822.919,1400.94 824.373,1409.79 825.827,1417.68 827.28,1424.52 828.734,1430.21 830.188,1434.68    831.642,1437.86 833.095,1439.72 834.549,1440.21 836.003,1439.32 837.456,1437.08 838.91,1433.49 840.364,1428.6 841.817,1422.47 843.271,1415.17 844.725,1406.79    846.179,1397.45 847.632,1387.24 849.086,1376.31 851.993,1352.82 854.901,1328.16 857.808,1303.6 860.716,1280.39 862.169,1269.67 863.623,1259.73 865.077,1250.69    866.53,1242.68 867.31,1238.84 868.089,1235.35 868.868,1232.2 869.647,1229.42 871.206,1225 872.764,1222.14 874.323,1220.89 875.881,1221.28 877.44,1223.3    878.999,1226.93 880.557,1232.11 882.116,1238.77 883.674,1246.82 885.233,1256.13 886.791,1266.58 888.35,1278.01 889.908,1290.25 891.467,1303.12 894.584,1330.02    897.701,1357.12 900.818,1382.83 903.935,1405.64 905.493,1415.53 907.052,1424.22 908.61,1431.56 910.169,1437.46 911.727,1441.82 913.286,1444.59 914.844,1445.72    916.403,1445.19 917.962,1443.01 919.52,1439.22 921.079,1433.87 922.637,1427.03 924.196,1418.82 925.754,1409.35 927.313,1398.76 928.871,1387.21 931.988,1361.92    935.105,1334.95 938.222,1307.9 941.339,1282.35 942.898,1270.61 944.456,1259.79 946.015,1250.05 947.573,1241.53 949.132,1234.35 950.69,1228.63 952.249,1224.43    953.807,1221.83 955.366,1220.85 956.924,1221.5 958.483,1223.78 960.042,1227.64 961.6,1233.03 963.159,1239.87 964.717,1248.05 966.276,1257.44 968.081,1269.66    969.887,1283.07 971.693,1297.42 973.498,1312.41 977.11,1343.14 980.721,1372.83 982.527,1386.56 984.333,1399.17 986.138,1410.43 987.944,1420.13 989.75,1428.06    991.555,1434.09 993.361,1438.11 995.167,1440.04 996.972,1439.85 998.778,1437.57 1000.58,1433.23 1002.39,1426.95 1004.2,1418.84 1006,1409.09 1007.81,1397.88    1009.61,1385.46 1013.22,1357.97 1016.84,1328.81 1020.45,1300.29 1024.06,1274.62 1025.86,1263.49 1027.67,1253.78 1029.48,1245.68 1031.28,1239.34 1033.09,1234.87    1034.89,1232.34 1036.7,1231.8 1038.5,1233.23 1040.31,1236.61 1042.11,1241.83 1043.92,1248.8 1045.73,1257.35 1047.53,1267.32 1049.34,1278.48 1051.14,1290.62    1052.95,1303.47 1056.56,1330.32 1060.17,1356.88 1061.98,1369.41 1063.78,1381.1 1065.59,1391.73 1067.39,1401.11 1069.2,1409.06 1071.01,1415.43 1072.81,1420.12    1074.62,1423.05 1076.42,1424.18 1078.23,1423.5 1080.03,1421.05 1081.84,1416.89 1083.44,1411.85 1085.05,1405.62 1086.65,1398.32 1088.26,1390.07 1091.47,1371.3    1094.68,1350.53 1097.89,1329.09 1101.1,1308.32 1102.7,1298.58 1104.31,1289.48 1105.91,1281.15 1107.52,1273.71 1109.12,1267.27 1110.72,1261.92 1112.33,1257.72    1113.93,1254.73 1115.54,1252.99 1117.14,1252.5 1118.75,1253.25 1120.35,1255.23 1121.96,1258.38 1123.56,1262.64 1125.17,1267.93 1126.77,1274.15 1129.98,1288.95    1133.19,1306.02 1136.4,1324.25 1139.61,1342.47 1142.82,1359.56 1146.03,1374.48 1147.63,1380.85 1149.24,1386.37 1150.84,1390.98 1152.45,1394.6 1154.05,1397.2    1155.66,1398.76 1157.26,1399.26 1158.87,1398.72 1160.47,1397.16 1162.07,1394.62 1163.68,1391.17 1165.28,1386.87 1168.49,1376.06 1171.7,1362.98 1178.12,1333.66    1184.54,1306.38 1187.35,1296.78 1190.17,1289.24 1192.98,1284.05 1195.8,1281.37 1198.61,1281.23 1201.43,1283.54 1204.24,1288.07 1207.06,1294.52 1212.68,1311.52    1218.31,1330.78 1221.13,1340.04 1223.94,1348.46 1226.76,1355.66 1229.57,1361.35 1232.38,1365.34 1235.2,1367.52 1238.01,1367.89 1240.83,1366.53 1243.64,1363.63    1246.46,1359.42 1249.27,1354.22 1252.08,1348.35 1257.71,1336.02 1263.34,1325.06 1266.16,1320.75 1268.97,1317.46 1271.78,1315.27 1274.6,1314.21 1277.67,1314.27    1280.74,1315.46 1283.8,1317.56 1286.87,1320.31 1293.01,1326.6 1299.15,1332.1 1305.28,1335.26 1311.42,1335.57 1317.56,1333.69 1323.69,1331.08 1329.83,1329.49    1335.97,1330.28 1342.1,1333.91 1348.24,1339.69 1354.38,1345.89 1360.51,1350.26 1363.58,1351.08 1366.65,1350.71 1369.72,1349.04 1372.79,1346.02 1375.87,1341.72    1378.96,1336.31 1382.05,1330.07 1385.13,1323.35 1388.22,1316.58 1391.31,1310.2 1394.39,1304.67 1397.48,1300.44 1400.57,1297.88 1403.65,1297.27 1406.74,1298.81    1409.83,1302.54 1412.91,1308.37 1416,1316.06 1419.09,1325.24 1422.17,1335.44 1425.26,1346.06 1428.35,1356.47 1431.43,1366.02 1434.52,1374.07 1437.61,1380.05    1440.69,1383.49 1442.24,1384.15 1443.78,1384.06 1445.32,1383.21 1446.87,1381.59 1449.95,1376.09 1453.04,1367.76 1456.13,1356.99 1459.21,1344.32 1462.3,1330.44    1465.39,1316.13 1468.47,1302.25 1471.56,1289.63 1473.27,1283.49 1474.97,1278.11 1476.68,1273.61 1478.38,1270.07 1480.09,1267.58 1481.8,1266.21 1483.5,1265.99    1485.21,1266.97 1486.92,1269.13 1488.62,1272.46 1490.33,1276.93 1492.04,1282.47 1493.74,1288.99 1495.45,1296.4 1497.15,1304.57 1498.86,1313.38 1502.27,1332.29    1505.69,1351.81 1509.1,1370.57 1512.51,1387.17 1514.22,1394.27 1515.92,1400.37 1517.63,1405.35 1519.34,1409.11 1521.04,1411.56 1522.75,1412.65 1524.46,1412.33    1526.16,1410.59 1527.87,1407.44 1529.57,1402.93 1531.28,1397.11 1532.99,1390.08 1534.69,1381.94 1536.4,1372.83 1538.11,1362.9 1539.81,1352.31 1543.23,1329.91    1546.64,1307.19 1550.05,1285.77 1553.46,1267.2 1555.17,1259.43 1556.88,1252.87 1558.58,1247.66 1560.29,1243.89 1561.99,1241.65 1563.7,1241 1565.41,1241.97    1567.11,1244.54 1568.82,1248.69 1570.53,1254.36 1572.23,1261.47 1573.94,1269.89 1575.65,1279.5 1577.35,1290.13 1579.06,1301.6 1580.76,1313.71 1584.01,1337.77    1587.26,1361.88 1590.51,1384.48 1593.75,1404.1 1595.38,1412.37 1597,1419.43 1598.62,1425.15 1600.25,1429.43 1601.87,1432.2 1603.49,1433.39 1605.12,1432.99    1606.74,1430.98 1608.36,1427.39 1609.99,1422.26 1611.61,1415.68 1613.23,1407.73 1614.86,1398.53 1616.48,1388.23 1618.11,1376.99 1619.73,1364.98 1622.98,1339.4    1626.22,1313.12 1629.47,1287.81 1632.72,1265.11 1634.34,1255.2 1635.96,1246.48 1637.59,1239.09 1639.21,1233.16 1640.83,1228.78 1642.46,1226.04 1644.08,1224.98    1645.71,1225.64 1647.33,1228 1648.95,1232.03 1650.58,1237.68 1652.2,1244.86 1653.82,1253.47 1655.45,1263.36 1657.07,1274.39 1658.69,1286.39 1661.94,1312.5    1665.19,1340.06 1668.43,1367.3 1671.68,1392.5 1673.31,1403.82 1674.93,1414.03 1676.55,1422.97 1678.18,1430.5 1679.8,1436.49 1681.42,1440.84 1683.05,1443.47    1684.67,1444.35 1686.36,1443.39 1688.05,1440.51 1689.73,1435.78 1691.42,1429.26 1693.11,1421.08 1694.8,1411.36 1696.49,1400.27 1698.17,1388 1704.93,1331.57    1711.68,1275.19 1713.37,1262.95 1715.06,1251.9 1716.74,1242.23 1718.43,1234.11 1720.12,1227.67 1721.81,1223.04 1723.5,1220.28 1725.18,1219.45 1726.87,1220.57    1728.56,1223.61 1730.25,1228.52 1731.94,1235.21 1733.62,1243.58 1735.31,1253.46 1737,1264.7 1738.69,1277.1 1745.44,1333.77 1752.19,1389.89 1753.88,1402    1755.57,1412.9 1757.26,1422.4 1758.95,1430.34 1760.63,1436.6 1762.32,1441.06 1764.01,1443.65 1765.7,1444.33 1767.39,1443.1 1769.07,1439.97 1770.76,1435    1772.45,1428.3 1774.14,1419.96 1775.83,1410.15 1777.52,1399.04 1779.2,1386.81 1782.58,1359.91 1785.96,1331.3 1789.33,1302.96 1792.71,1276.82 1794.13,1266.92    1795.55,1257.85 1796.97,1249.71 1798.39,1242.61 1799.81,1236.62 1801.23,1231.82 1802.66,1228.26 1804.08,1225.99 1805.5,1225.01 1806.92,1225.35 1808.34,1226.99    1809.76,1229.9 1811.18,1234.05 1812.6,1239.39 1814.02,1245.84 1815.44,1253.31 1818.29,1270.96 1821.13,1291.44 1823.97,1313.74 1826.81,1336.75 1829.65,1359.34    1832.5,1380.44 1833.92,1390.1 1835.34,1399.01 1836.76,1407.07 1838.18,1414.19 1839.6,1420.28 1841.02,1425.27 1842.44,1429.11 1843.86,1431.75 1845.29,1433.18    1846.71,1433.37 1848.13,1432.34 1849.55,1430.1 1850.97,1426.7 1852.39,1422.16 1853.81,1416.57 1855.23,1409.99 1856.65,1402.51 1858.07,1394.22 1859.5,1385.24    1860.92,1375.67 1866.6,1334.06 1872.28,1293.28 1873.71,1284.15 1875.13,1275.68 1876.55,1267.96 1877.97,1261.08 1879.39,1255.13 1880.81,1250.16 1882.23,1246.22    1883.65,1243.37 1885.39,1241.39 1887.12,1241.08 1888.86,1242.43 1890.59,1245.39 1892.33,1249.9 1894.06,1255.87 1895.8,1263.16 1897.53,1271.63 1901,1291.42    1904.47,1313.74 1907.94,1336.91 1911.41,1359.24 1913.15,1369.59 1914.88,1379.14 1916.62,1387.74 1918.35,1395.23 1920.09,1401.5 1921.82,1406.44 1923.56,1409.98    1925.29,1412.07 1927.03,1412.7 1928.76,1411.87 1930.5,1409.61 1932.23,1406 1933.96,1401.1 1935.7,1395.03 1937.43,1387.92 1939.17,1379.91 1946.11,1342.22    1953.05,1304.14 1954.78,1295.87 1956.52,1288.4 1958.25,1281.86 1959.99,1276.35 1961.72,1271.95 1963.46,1268.73 1965.19,1266.72 1966.93,1265.94 1968.66,1266.39    1970.4,1268.03 1972.13,1270.81 1973.87,1274.65 1975.6,1279.47 1977.34,1285.17 1979.07,1291.61 1980.81,1298.67 1984.28,1314.04 1987.75,1330.11 1991.22,1345.67    1994.69,1359.61 1996.32,1365.32 1997.95,1370.38 1999.58,1374.72 2001.21,1378.29 2002.84,1381.03 2004.47,1382.94 2006.1,1383.98 2007.73,1384.18 2009.36,1383.53    2010.99,1382.08 2012.63,1379.87 2014.26,1376.95 2017.52,1369.27 2020.78,1359.66 2027.3,1337.62 2033.83,1316.87 2037.09,1308.62 2040.35,1302.45 2043.61,1298.62    2046.87,1297.23 2050.14,1298.22 2053.4,1301.34 2056.66,1306.23 2059.92,1312.42 2066.44,1326.57 2072.97,1339.6 2076.23,1344.63 2079.49,1348.28 2082.75,1350.44    2086.01,1351.11 2089.28,1350.4 2092.54,1348.55 2095.8,1345.83 2099.06,1342.61 2104.29,1337.25 2109.51,1332.78 2114.74,1330.08 2119.96,1329.46 2125.19,1330.62    2130.41,1332.77 2135.64,1334.83 2140.86,1335.77 2146.09,1334.84 2151.32,1331.84 2156.54,1327.17 2161.77,1321.78 2166.99,1317.03 2172.22,1314.32 2174.83,1314.11    2177.44,1314.81 2180.06,1316.48 2182.67,1319.11 2187.89,1327.03 2193.12,1337.57 2198.35,1349.03 2203.57,1359.27 2206.18,1363.25 2208.8,1366.13 2211.41,1367.71    2214.02,1367.83 2216.63,1366.41 2219.25,1363.42 2221.86,1358.9 2224.47,1352.98 2229.7,1337.77 2234.92,1320.06 2240.15,1302.79 2245.38,1289.09 2247.99,1284.47    2250.6,1281.71 2253.21,1281.02 2255.83,1282.49 2258.44,1286.15 2261.05,1291.93 2263.66,1299.65 2266.28,1309.04 2269.49,1322.39 2272.71,1336.97 2275.93,1351.86    2279.14,1366.11 2282.36,1378.78 2285.58,1388.97 2288.79,1395.93 2292.01,1399.1    "
     id="polyline149"
     transform="matrix(-1,0,0,0.70427126,2289.2126,-42.972599)" />
  <polyline
     clip-path="url(#clip142)"
     style="fill:none;stroke:#d40000;stroke-width:4.76639462;stroke-miterlimit:4;stroke-dasharray:none;stroke-opacity:1"
     points="   267.181,544.12 268.417,544.759 269.653,546.398 270.888,549.021 272.124,552.6 273.36,557.099 274.596,562.475 275.832,568.676 277.068,575.641 279.54,591.594    282.011,609.73 284.483,629.367 286.955,649.773 289.812,673.324 292.669,695.732 294.097,706.163 295.526,715.907 296.954,724.846 298.382,732.873 299.811,739.894    301.239,745.826 302.668,750.6 304.096,754.163 305.525,756.475 306.953,757.515 308.382,757.276 309.81,755.766 311.238,753.01 312.667,749.048 314.095,743.936    315.524,737.742 316.952,730.549 318.381,722.449 319.809,713.549 321.238,703.963 324.094,683.225 326.951,661.279 329.808,639.218 332.665,618.127 334.093,608.268    335.522,599.029 336.95,590.519 338.379,582.839 339.807,576.079 341.236,570.316 342.664,565.615 344.093,562.027 345.521,559.589 346.949,558.324 348.378,558.239    349.806,559.327 351.235,561.565 352.663,564.92 354.092,569.34 355.52,574.764 356.949,581.116 358.377,588.312 359.805,596.257 361.234,604.845 364.091,623.504    366.948,643.339 369.804,663.356 372.661,682.569 375.518,700.047 378.375,714.96 379.804,721.234 381.232,726.621 382.66,731.063 384.089,734.514 385.517,736.94    386.946,738.321 388.374,738.649 389.803,737.93 391.231,736.184 392.66,733.442 394.088,729.747 395.516,725.156 398.373,713.558 401.23,699.284 404.087,683.094    406.944,665.824 409.801,648.349 412.658,631.533 415.515,616.189 418.371,603.039 419.8,597.478 421.228,592.678 422.657,588.688 424.085,585.549 425.514,583.288    426.942,581.923 428.371,581.459 429.799,581.89 431.227,583.199 432.656,585.358 434.084,588.329 435.513,592.063 438.37,601.587 441.226,613.38 444.083,626.797    446.94,641.127 449.797,655.634 452.654,669.596 455.511,682.338 458.368,693.268 461.225,701.904 464.082,707.894 466.938,711.03 469.795,711.256 471.512,710.025    473.229,707.819 474.946,704.7 476.663,700.744 480.096,690.702 483.53,678.55 486.964,665.261 490.398,651.845 493.831,639.274 497.265,628.409 498.982,623.839    500.699,619.94 502.416,616.763 504.133,614.346 505.849,612.712 507.566,611.866 509.283,611.8 511,612.491 514.434,615.982 517.868,621.9 521.301,629.647    524.735,638.526 528.169,647.798 531.602,656.743 535.036,664.717 538.47,671.199 541.904,675.825 545.337,678.405 548.771,678.929 552.205,677.558 559.072,670.446    565.94,660.512 569.374,655.681 572.807,651.49 576.241,648.234 579.675,646.086 585.481,645.038 591.287,646.667 597.094,649.681 602.9,652.515 608.706,653.836    614.513,652.961 620.319,650.084 626.126,646.225 631.932,642.944 637.738,641.864 640.641,642.546 643.545,644.155 646.448,646.698 649.351,650.109 655.157,658.93    660.964,668.819 663.867,673.413 666.77,677.343 669.673,680.301 672.576,682.018 675.73,682.233 678.884,680.568 682.037,676.977 685.191,671.552 691.498,656.234    697.806,637.865 700.959,628.935 704.113,620.991 707.267,614.618 710.42,610.327 713.574,608.52 716.728,609.455 719.881,613.223 723.035,619.732 726.189,628.705    729.342,639.693 732.496,652.092 735.65,665.18 738.803,678.159 741.957,690.204 745.111,700.513 748.264,708.365 749.841,711.178 751.418,713.166 752.995,714.282    754.572,714.492 756.148,713.777 757.725,712.128 759.302,709.555 760.879,706.081 762.456,701.744 764.033,696.595 765.609,690.699 767.186,684.136 770.34,669.377    773.494,653.157 776.401,637.735 779.308,622.685 782.216,608.807 785.123,596.866 786.577,591.839 788.031,587.542 789.484,584.041 790.938,581.394 792.392,579.644    793.845,578.828 795.299,578.967 796.753,580.072 798.206,582.14 799.66,585.156 801.114,589.094 802.568,593.911 805.475,605.968 808.382,620.775 811.29,637.623    814.197,655.682 817.105,674.038 820.012,691.741 822.919,707.858 825.827,721.517 827.28,727.183 828.734,731.961 830.188,735.78 831.642,738.582 833.095,740.321    834.549,740.965 836.003,740.494 837.456,738.905 838.91,736.208 840.364,732.428 841.817,727.604 843.271,721.789 844.725,715.051 846.179,707.467 847.632,699.13    849.086,690.14 851.993,670.653 854.901,649.98 857.808,629.168 860.716,609.293 863.623,591.394 866.53,576.425 868.089,569.898 869.647,564.555 871.206,560.484    872.764,557.755 874.323,556.418 875.881,556.503 877.44,558.02 878.999,560.954 880.557,565.274 882.116,570.923 883.674,577.828 885.233,585.895 888.35,605.05    891.467,627.309 894.584,651.393 897.701,675.901 900.818,699.39 903.935,720.461 905.493,729.685 907.052,737.842 908.61,744.806 910.169,750.469 911.727,754.739    913.286,757.546 914.844,758.843 916.403,758.603 917.962,756.821 919.52,753.517 921.079,748.733 922.637,742.533 924.196,735.001 925.754,726.244 927.313,716.386    928.871,705.567 935.105,655.973 941.339,605.109 942.898,593.61 944.456,582.955 946.015,573.302 947.573,564.799 949.132,557.572 950.69,551.733 952.249,547.373    953.807,544.558 955.366,543.337 956.924,543.73 958.483,545.736 960.042,549.33 961.6,554.464 963.159,561.064 964.717,569.038 966.276,578.27 968.081,590.365    969.887,603.735 971.693,618.119 973.498,633.235 977.11,664.465 980.721,694.973 982.527,709.198 984.333,722.355 986.138,734.184 987.944,744.448 989.75,752.942    991.555,759.496 993.361,763.98 995.167,766.301 996.972,766.412 998.778,764.309 1000.58,760.032 1002.39,753.663 1004.2,745.327 1006,735.188 1007.81,723.445    1009.61,710.33 1013.22,681.038 1016.84,649.613 1020.45,618.524 1024.06,590.212 1025.86,577.805 1027.67,566.896 1029.48,557.702 1031.28,550.4 1033.09,545.134    1034.89,542.005 1036.7,541.073 1038.5,542.352 1040.31,545.816 1042.11,551.391 1043.92,558.966 1045.73,568.386 1047.53,579.464 1049.34,591.977 1051.14,605.676    1052.95,620.289 1056.56,651.082 1060.17,681.932 1061.98,696.616 1063.78,710.419 1065.59,723.07 1067.39,734.324 1069.2,743.962 1071.01,751.801 1072.81,757.69    1074.62,761.52 1076.42,763.223 1078.23,762.772 1080.03,760.184 1081.84,755.519 1083.44,749.708 1085.05,742.43 1086.65,733.805 1088.26,723.97 1091.47,701.319    1094.68,675.913 1097.89,649.349 1101.1,623.28 1102.7,610.939 1104.31,599.317 1105.91,588.591 1107.52,578.925 1109.12,570.463 1110.72,563.332 1112.33,557.637    1113.93,553.459 1115.54,550.855 1117.14,549.858 1118.75,550.475 1120.35,552.687 1121.96,556.452 1123.56,561.701 1125.17,568.346 1126.77,576.275 1128.38,585.355    1129.98,595.44 1131.59,606.366 1133.19,617.958 1136.4,642.392 1139.61,667.207 1142.82,690.862 1146.03,711.908 1147.63,721.048 1149.24,729.08 1150.84,735.886    1152.45,741.369 1154.05,745.454 1155.66,748.087 1157.26,749.238 1158.87,748.901 1160.47,747.093 1162.07,743.853 1163.68,739.244 1165.28,733.349 1166.89,726.269    1168.49,718.126 1170.1,709.055 1171.7,699.206 1178.12,655.347 1184.54,612.703 1185.95,604.576 1187.35,597.105 1188.76,590.375 1190.17,584.459 1191.58,579.422    1192.98,575.317 1194.39,572.183 1195.8,570.051 1197.21,568.936 1198.61,568.842 1200.02,569.761 1201.43,571.673 1202.83,574.543 1204.24,578.33 1205.65,582.977    1207.06,588.421 1209.87,601.397 1212.68,616.577 1215.5,633.192 1218.31,650.417 1221.13,667.416 1223.94,683.381 1226.76,697.572 1229.57,709.353 1230.98,714.175    1232.38,718.217 1233.79,721.437 1235.2,723.809 1236.61,725.314 1238.01,725.945 1239.42,725.704 1240.83,724.607 1242.23,722.678 1243.64,719.951 1245.05,716.47    1246.46,712.287 1249.27,702.063 1252.08,689.84 1257.71,662.013 1263.34,634.313 1266.16,622.167 1268.97,611.907 1271.78,603.967 1274.6,598.651 1276.13,596.925    1277.67,596.04 1279.2,595.994 1280.74,596.77 1283.8,600.671 1286.87,607.394 1289.94,616.437 1293.01,627.186 1296.08,638.949 1299.15,651.004 1302.21,662.644    1305.28,673.215 1308.35,682.159 1311.42,689.037 1314.49,693.555 1317.56,695.574 1319.09,695.646 1320.63,695.112 1322.16,693.997 1323.69,692.334 1326.76,687.536    1329.83,681.121 1332.9,673.567 1335.97,665.395 1342.1,649.277 1348.24,636.491 1351.31,632.179 1354.38,629.49 1357.45,628.456 1360.51,628.998 1366.65,634.03    1372.79,642.351 1378.96,651.281 1385.13,658.317 1388.22,660.611 1391.31,661.973 1394.39,662.423 1397.48,662.058 1403.65,659.573 1409.83,656.261 1416,653.939    1422.17,653.852 1428.35,656.224 1434.52,660.165 1440.69,663.948 1446.87,665.594 1449.95,665.101 1453.04,663.572 1456.13,660.985 1459.21,657.407 1465.39,647.996    1471.56,637.514 1474.97,632.325 1478.38,628.23 1481.8,625.7 1485.21,625.11 1488.62,626.7 1492.04,630.543 1495.45,636.528 1498.86,644.358 1505.69,663.513    1512.51,682.731 1515.92,690.455 1519.34,695.97 1521.04,697.718 1522.75,698.714 1524.46,698.919 1526.16,698.305 1527.87,696.859 1529.57,694.585 1531.28,691.501    1532.99,687.643 1536.4,677.82 1539.81,665.697 1546.64,637.845 1553.46,611.81 1555.17,606.544 1556.88,602.007 1558.58,598.298 1560.29,595.504 1561.99,593.695    1563.7,592.925 1565.41,593.229 1567.11,594.623 1568.82,597.105 1570.53,600.651 1572.23,605.217 1573.94,610.74 1577.35,624.312 1580.76,640.507 1584.01,657.366    1587.26,674.559 1590.51,690.969 1593.75,705.494 1595.38,711.727 1597,717.122 1598.62,721.576 1600.25,725.003 1601.87,727.333 1603.49,728.512 1605.12,728.503    1606.74,727.291 1608.36,724.878 1609.99,721.286 1611.61,716.559 1613.23,710.757 1614.86,703.961 1616.48,696.268 1618.11,687.791 1619.73,678.658 1622.98,658.992    1626.22,638.498 1629.47,618.484 1632.72,600.263 1634.34,592.212 1635.96,585.056 1637.59,578.92 1639.21,573.916 1640.83,570.136 1642.46,567.655 1644.08,566.526    1645.71,566.782 1647.33,568.433 1648.95,571.467 1650.58,575.847 1652.2,581.518 1653.82,588.4 1655.45,596.395 1657.07,605.382 1658.69,615.228 1665.19,660    1671.68,704.777 1673.31,714.596 1674.93,723.523 1676.55,731.407 1678.18,738.113 1679.8,743.524 1681.42,747.542 1683.05,750.093 1684.67,751.124 1686.36,750.554    1688.05,748.308 1689.73,744.413 1691.42,738.923 1693.11,731.923 1694.8,723.522 1696.49,713.858 1698.17,703.089 1701.55,678.971 1704.93,652.79 1708.3,626.335    1711.68,601.436 1713.37,590.121 1715.06,579.836 1716.74,570.764 1718.43,563.07 1720.12,556.895 1721.81,552.354 1723.5,549.535 1725.18,548.495 1726.87,549.263    1728.56,551.833 1730.25,556.171 1731.94,562.21 1733.62,569.854 1735.31,578.978 1737,589.43 1738.69,601.036 1742.07,626.909 1745.44,654.842 1748.82,682.923    1752.19,709.214 1753.88,721.109 1755.57,731.888 1757.26,741.359 1758.95,749.354 1760.63,755.73 1762.32,760.372 1764.01,763.194 1765.7,764.141 1767.39,763.193    1769.07,760.359 1770.76,755.683 1772.45,749.242 1774.14,741.142 1775.83,731.518 1777.52,720.534 1779.2,708.377 1785.96,652.39 1792.71,596.342 1794.13,586.015    1795.55,576.499 1796.97,567.912 1798.39,560.361 1799.81,553.939 1801.23,548.726 1802.66,544.786 1804.08,542.169 1805.5,540.908 1806.92,541.02 1808.34,542.504    1809.76,545.342 1811.18,549.502 1812.6,554.932 1814.02,561.566 1815.44,569.325 1818.29,587.823 1821.13,609.525 1823.97,633.374 1826.81,658.207 1829.65,682.812    1832.5,705.989 1833.92,716.686 1835.34,726.611 1836.76,735.643 1838.18,743.673 1839.6,750.603 1841.02,756.349 1842.44,760.842 1843.86,764.027 1845.29,765.868    1846.71,766.342 1848.13,765.446 1849.55,763.192 1850.97,759.609 1852.39,754.742 1853.81,748.653 1855.23,741.417 1856.65,733.124 1858.07,723.878 1859.5,713.793    1860.92,702.994 1866.6,655.407 1872.28,607.859 1873.71,597.076 1875.13,587.006 1876.55,577.769 1877.97,569.478 1879.39,562.231 1880.81,556.114 1882.23,551.2    1883.65,547.544 1885.39,544.847 1887.12,544.13 1888.86,545.4 1890.59,548.626 1892.33,553.744 1894.06,560.651 1895.8,569.217 1897.53,579.279 1901,603.111    1904.47,630.381 1907.94,659.088 1911.41,687.142 1913.15,700.287 1914.88,712.523 1916.62,723.633 1918.35,733.421 1920.09,741.714 1921.82,748.371 1923.56,753.278    1925.29,756.357 1927.03,757.56 1928.76,756.877 1930.5,754.332 1932.23,749.981 1933.96,743.915 1935.7,736.254 1937.43,727.148 1939.17,716.772 1942.64,693.016    1946.11,666.758 1949.58,639.93 1953.05,614.477 1954.78,602.843 1956.52,592.217 1958.25,582.786 1959.99,574.712 1961.72,568.13 1963.46,563.15 1965.19,559.849    1966.93,558.274 1968.66,558.438 1970.4,560.324 1972.13,563.884 1973.87,569.037 1975.6,575.676 1977.34,583.666 1979.07,592.85 1980.81,603.049 1984.28,625.699    1987.75,649.918 1991.22,673.927 1994.69,695.995 1996.32,705.245 1997.95,713.578 1999.58,720.869 2001.21,727.009 2002.84,731.913 2004.47,735.514 2006.1,737.768    2007.73,738.653 2009.36,738.169 2010.99,736.34 2012.63,733.209 2014.26,728.842 2015.89,723.324 2017.52,716.757 2019.15,709.26 2020.78,700.964 2027.3,662.785    2033.83,624.296 2035.46,615.793 2037.09,608.014 2038.72,601.074 2040.35,595.074 2041.98,590.098 2043.61,586.212 2045.24,583.464 2046.87,581.881 2048.5,581.472    2050.14,582.226 2051.77,584.115 2053.4,587.088 2055.03,591.083 2056.66,596.018 2058.29,601.797 2059.92,608.315 2066.44,639.293 2072.97,671.696 2076.23,685.819    2079.49,697.38 2081.12,701.988 2082.75,705.73 2084.38,708.562 2086.01,710.455 2087.64,711.398 2089.28,711.393 2090.91,710.461 2092.54,708.637 2094.17,705.968    2095.8,702.517 2097.43,698.358 2099.06,693.575 2104.29,675.166 2109.51,654.735 2112.12,644.862 2114.74,635.761 2117.35,627.785 2119.96,621.223 2122.58,616.292    2125.19,613.128 2127.8,611.786 2130.41,612.238 2133.03,614.379 2135.64,618.035 2138.25,622.973 2140.86,628.914 2146.09,642.548 2151.32,656.366 2153.93,662.592    2156.54,668.028 2159.15,672.483 2161.77,675.824 2164.38,677.977 2166.99,678.928 2169.61,678.724 2172.22,677.46 2177.44,672.365 2182.67,665.148 2187.89,657.515    2193.12,651.007 2198.35,646.701 2203.57,645.031 2208.8,645.755 2214.02,648.081 2219.25,650.904 2224.47,653.107 2229.7,653.844 2234.92,652.765 2240.15,650.105    2245.38,646.636 2250.6,643.489 2255.83,641.876 2258.44,641.968 2261.05,642.777 2263.66,644.342 2266.28,646.662 2272.71,655.172 2279.14,665.978 2285.58,676.01    2292.01,681.851    "
     id="polyline131"
     transform="matrix(-1,0,0,0.70427126,2289.2126,-42.972599)" />
  <polyline
     clip-path="url(#clip142)"
     style="fill:none;stroke:#d40000;stroke-width:4.76639462;stroke-miterlimit:4;stroke-dasharray:none;stroke-opacity:1"
     points="   267.181,315.163 268.417,315.747 269.653,317.359 270.888,319.981 272.124,323.588 273.36,328.146 274.596,333.611 275.832,339.931 277.068,347.046 279.54,363.388    282.011,382.024 284.483,402.259 286.955,423.342 289.812,447.741 292.669,471.03 294.097,481.897 295.526,492.067 296.954,501.416 298.382,509.83 299.811,517.208    301.239,523.462 302.668,528.519 304.096,532.318 305.525,534.817 306.953,535.989 308.382,535.824 309.81,534.328 311.238,531.523 312.667,527.45 314.095,522.162    315.524,515.728 316.952,508.234 318.381,499.774 319.809,490.456 321.238,480.4 324.094,458.586 326.951,435.423 329.808,412.059 332.665,389.645 334.093,379.14    335.522,369.274 336.95,360.168 338.379,351.929 339.807,344.656 341.236,338.434 342.664,333.335 344.093,329.416 345.521,326.72 346.949,325.274 348.378,325.09    349.806,326.164 351.235,328.475 352.663,331.988 354.092,336.654 355.52,342.409 356.949,349.176 358.377,356.865 359.805,365.376 361.234,374.599 364.091,394.704    366.948,416.162 369.804,437.904 372.661,458.857 375.518,478.003 378.375,494.424 379.804,501.366 381.232,507.351 382.66,512.312 384.089,516.196 385.517,518.962    386.946,520.583 388.374,521.048 389.803,520.36 391.231,518.536 392.66,515.607 394.088,511.618 395.516,506.626 396.945,500.701 398.373,493.923 399.802,486.384    401.23,478.183 404.087,460.228 406.944,440.977 409.801,421.398 412.658,402.46 415.515,385.082 418.371,370.09 419.8,363.711 421.228,358.177 422.657,353.547    424.085,349.87 425.514,347.182 426.942,345.507 428.371,344.856 429.799,345.226 431.227,346.602 432.656,348.957 434.084,352.25 435.513,356.432 438.37,367.206    441.226,380.676 444.083,396.12 446.94,412.732 449.797,429.668 452.654,446.085 455.511,461.188 458.368,474.264 459.796,479.851 461.225,484.72 462.653,488.819    464.082,492.107 465.51,494.555 466.938,496.143 468.367,496.863 469.795,496.717 471.512,495.419 473.229,492.935 474.946,489.332 476.663,484.694 480.096,472.733    483.53,458.035 486.964,441.746 490.398,425.085 493.831,409.253 497.265,395.344 498.982,389.404 500.699,384.271 502.416,380.018 504.133,376.705 505.849,374.37    507.566,373.034 509.283,372.699 511,373.347 512.717,374.944 514.434,377.438 516.151,380.762 517.868,384.834 521.301,394.845 524.735,406.617 528.169,419.213    531.602,431.679 535.036,443.123 538.47,452.774 540.187,456.733 541.904,460.038 543.621,462.646 545.337,464.532 548.771,466.105 552.205,464.834 555.639,461.007    559.072,455.088 562.506,447.671 565.94,439.424 569.374,431.034 572.807,423.147 576.241,416.321 579.675,410.983 582.578,407.839 585.481,406.029 588.384,405.538    591.287,406.275 597.094,410.726 602.9,417.542 608.706,424.597 614.513,430.061 620.319,432.853 626.126,432.854 631.932,430.848 637.738,428.204 643.545,426.413    649.351,426.591 655.157,429.108 660.964,433.432 666.77,438.24 672.576,441.778 675.73,442.554 678.884,442.243 682.037,440.717 685.191,437.938 691.498,428.986    697.806,417.122 704.113,405.364 710.42,397.243 713.574,395.542 716.728,395.79 719.881,398.126 723.035,402.551 726.189,408.919 729.342,416.941 732.496,426.195    735.65,436.149 738.803,446.193 741.957,455.673 745.111,463.938 748.264,470.381 751.418,474.486 754.572,475.861 756.148,475.447 757.725,474.278 759.302,472.354    760.879,469.687 764.033,462.235 767.186,452.26 770.34,440.279 773.494,426.96 776.401,414.17 779.308,401.574 782.216,389.852 785.123,379.661 786.577,375.33    788.031,371.599 789.484,368.528 790.938,366.17 792.392,364.567 793.845,363.752 795.299,363.751 796.753,364.575 798.206,366.228 799.66,368.701 801.114,371.975    802.568,376.018 804.021,380.79 805.475,386.24 806.929,392.304 808.382,398.915 814.197,429.134 820.012,460.743 822.919,475.006 825.827,487.184 827.28,492.27    828.734,496.584 830.188,500.061 831.642,502.644 833.095,504.29 834.549,504.965 836.003,504.649 837.456,503.335 838.91,501.027 840.364,497.745 841.817,493.519    843.271,488.394 846.179,475.686 849.086,460.207 851.993,442.703 854.901,424.042 857.808,405.169 860.716,387.061 863.623,370.672 866.53,356.887 868.089,350.842    869.647,345.867 871.206,342.046 872.764,339.447 874.323,338.122 875.881,338.101 877.44,339.397 878.999,342.003 880.557,345.892 882.116,351.018 883.674,357.316    885.233,364.701 888.35,382.321 891.467,402.898 894.584,425.259 897.701,448.107 900.818,470.093 903.935,489.9 905.493,498.603 907.052,506.323 908.61,512.936    910.169,518.338 911.727,522.44 913.286,525.173 914.844,526.486 916.403,526.351 917.962,524.76 919.52,521.728 921.079,517.289 922.637,511.501 924.196,504.441    925.754,496.206 927.313,486.909 928.871,476.684 935.105,429.573 941.339,380.918 942.898,369.869 944.456,359.608 946.015,350.293 947.573,342.064 949.132,335.049    950.69,329.358 952.249,325.079 953.807,322.284 955.366,321.019 956.924,321.311 958.483,323.161 960.042,326.549 961.6,331.431 963.159,337.742 964.717,345.393    966.276,354.278 968.081,365.946 969.887,378.875 971.693,392.814 973.498,407.491 977.11,437.9 980.721,467.716 982.527,481.659 984.333,494.582 986.138,506.227    987.944,516.359 989.75,524.773 991.555,531.298 993.361,535.798 995.167,538.179 996.972,538.387 998.778,536.414 1000.58,532.292 1002.39,526.098 1004.2,517.949    1006,508.001 1007.81,496.448 1009.61,483.515 1013.22,454.54 1016.84,423.342 1020.45,392.368 1024.06,364.056 1025.86,351.608 1027.67,340.638 1029.48,331.362    1031.28,323.966 1033.09,318.597 1034.89,315.363 1036.7,314.328 1038.5,315.514 1040.31,318.898 1042.11,324.415 1043.92,331.955 1045.73,341.371 1047.53,352.476    1049.34,365.051 1051.14,378.847 1052.95,393.593 1056.56,424.752 1060.17,456.079 1061.98,471.032 1063.78,485.115 1065.59,498.051 1067.39,509.586 1069.2,519.493    1071.01,527.581 1072.81,533.691 1074.62,537.706 1076.42,539.55 1078.23,539.19 1080.03,536.638 1081.84,531.948 1083.44,526.063 1085.05,518.659 1086.65,509.856    1088.26,499.793 1091.47,476.541 1094.68,450.364 1097.89,422.9 1101.1,395.858 1102.7,383.022 1104.31,370.91 1105.91,359.71 1107.52,349.592 1109.12,340.712    1110.72,333.204 1112.33,327.18 1113.93,322.729 1115.54,319.915 1117.14,318.778 1118.75,319.327 1120.35,321.549 1121.96,325.403 1123.56,330.823 1125.17,337.718    1126.77,345.975 1128.38,355.46 1129.98,366.02 1131.59,377.486 1133.19,389.675 1136.4,415.446 1139.61,441.717 1142.82,466.856 1146.03,489.318 1147.63,499.11    1149.24,507.74 1150.84,515.079 1152.45,521.022 1154.05,525.482 1155.66,528.398 1157.26,529.734 1158.87,529.477 1160.47,527.641 1162.07,524.264 1163.68,519.408    1165.28,513.157 1166.89,505.618 1168.49,496.915 1170.1,487.193 1171.7,476.609 1178.12,429.193 1184.54,382.676 1185.95,373.755 1187.35,365.532 1188.76,358.102    1190.17,351.549 1191.58,345.945 1192.98,341.351 1194.39,337.815 1195.8,335.373 1197.21,334.044 1198.61,333.838 1200.02,334.749 1201.43,336.758 1202.83,339.832    1204.24,343.926 1205.65,348.983 1207.06,354.936 1209.87,369.204 1212.68,385.997 1215.5,404.474 1218.31,423.724 1221.13,442.817 1223.94,460.844 1226.76,476.964    1229.57,490.442 1230.98,495.998 1232.38,500.683 1233.79,504.45 1235.2,507.261 1236.61,509.092 1238.01,509.93 1239.42,509.777 1240.83,508.642 1242.23,506.551    1243.64,503.538 1245.05,499.649 1246.46,494.939 1249.27,483.331 1252.08,469.332 1257.71,437.114 1263.34,404.596 1266.16,390.168 1268.97,377.862 1271.78,368.216    1274.6,361.622 1276.13,359.404 1277.67,358.184 1279.2,357.965 1280.74,358.735 1282.27,360.468 1283.8,363.124 1285.34,366.651 1286.87,370.984 1289.94,381.761    1293.01,394.746 1296.08,409.129 1299.15,424.043 1302.21,438.618 1305.28,452.035 1308.35,463.57 1311.42,472.633 1314.49,478.799 1317.56,481.83 1319.09,482.146    1320.63,481.676 1322.16,480.441 1323.69,478.478 1326.76,472.548 1329.83,464.346 1332.9,454.445 1335.97,443.495 1339.04,432.178 1342.1,421.166 1345.17,411.083    1348.24,402.466 1351.31,395.74 1354.38,391.193 1357.45,388.968 1360.51,389.06 1363.58,391.325 1366.65,395.492 1369.72,401.19 1372.79,407.978 1378.96,422.972    1385.13,436.59 1388.22,441.899 1391.31,445.854 1394.39,448.325 1397.48,449.288 1400.57,448.826 1403.65,447.114 1406.74,444.401 1409.83,440.985 1416,433.344    1422.17,426.634 1425.26,424.208 1428.35,422.577 1431.43,421.77 1434.52,421.741 1440.69,423.483 1446.87,426.285 1453.04,428.347 1459.21,428.261 1465.39,425.542    1471.56,420.848 1478.38,415.359 1485.21,412.331 1488.62,412.539 1492.04,414.164 1495.45,417.254 1498.86,421.718 1505.69,433.7 1512.51,446.813 1515.92,452.428    1519.34,456.669 1522.75,459.055 1526.16,459.221 1529.57,456.96 1532.99,452.25 1536.4,445.268 1539.81,436.389 1546.64,415.301 1553.46,394.846 1555.17,390.6    1556.88,386.895 1558.58,383.818 1560.29,381.444 1561.99,379.837 1563.7,379.05 1565.41,379.12 1567.11,380.07 1568.82,381.904 1570.53,384.614 1572.23,388.17    1573.94,392.53 1577.35,403.401 1580.76,416.567 1587.26,444.729 1593.75,470.839 1595.38,476.18 1597,480.836 1598.62,484.717 1600.25,487.745 1601.87,489.852    1603.49,490.988 1605.12,491.115 1606.74,490.212 1608.36,488.277 1609.99,485.322 1611.61,481.377 1613.23,476.492 1616.48,464.167 1619.73,449.04 1626.22,414.137    1632.72,380.448 1634.34,373.285 1635.96,366.889 1637.59,361.376 1639.21,356.847 1640.83,353.39 1642.46,351.076 1644.08,349.958 1645.71,350.071 1647.33,351.428    1648.95,354.024 1650.58,357.834 1652.2,362.81 1653.82,368.887 1655.45,375.979 1657.07,383.986 1658.69,392.787 1665.19,433.106 1671.68,473.85 1673.31,482.847    1674.93,491.052 1676.55,498.325 1678.18,504.538 1679.8,509.581 1681.42,513.358 1683.05,515.798 1684.67,516.848 1686.36,516.431 1688.05,514.471 1689.73,510.984    1691.42,506.018 1693.11,499.645 1694.8,491.961 1696.49,483.09 1698.17,473.173 1701.55,450.876 1704.93,426.559 1708.3,401.88 1711.68,378.55 1713.37,367.91    1715.06,358.212 1716.74,349.633 1718.43,342.33 1720.12,336.439 1721.81,332.075 1723.5,329.323 1725.18,328.244 1726.87,328.869 1728.56,331.198 1730.25,335.204    1731.94,340.828 1733.62,347.983 1735.31,356.557 1737,366.408 1738.69,377.375 1742.07,401.906 1745.44,428.495 1748.82,455.326 1752.19,480.544 1753.88,491.989    1755.57,502.385 1757.26,511.544 1758.95,519.301 1760.63,525.516 1762.32,530.072 1764.01,532.883 1765.7,533.891 1767.39,533.07 1769.07,530.427 1770.76,525.998    1772.45,519.852 1774.14,512.089 1775.83,502.835 1777.52,492.245 1779.2,480.496 1785.96,426.129 1792.71,371.328 1794.13,361.183 1795.55,351.819 1796.97,343.352    1798.39,335.888 1799.81,329.522 1801.23,324.334 1802.66,320.39 1804.08,317.741 1805.5,316.424 1806.92,316.455 1808.34,317.839 1809.76,320.561 1811.18,324.59    1812.6,329.88 1814.02,336.367 1815.44,343.975 1818.29,362.175 1821.13,383.603 1823.97,407.223 1826.81,431.887 1829.65,456.393 1832.5,479.543 1833.92,490.252    1835.34,500.206 1836.76,509.281 1838.18,517.367 1839.6,524.363 1841.02,530.183 1842.44,534.756 1843.86,538.025 1845.29,539.948 1846.71,540.503 1848.13,539.681    1849.55,537.493 1850.97,533.964 1852.39,529.138 1853.81,523.074 1855.23,515.845 1856.65,507.54 1858.07,498.261 1859.5,488.121 1860.92,477.244 1866.6,429.136    1872.28,380.797 1873.71,369.793 1875.13,359.498 1876.55,350.039 1877.97,341.53 1879.39,334.074 1880.81,327.762 1882.23,322.669 1883.65,318.856 1885.39,316.001    1887.12,315.169 1888.86,316.372 1890.59,319.585 1892.33,324.745 1894.06,331.755 1895.8,340.483 1897.53,350.768 1899.27,362.417 1901,375.216 1902.74,388.93    1904.47,403.305 1907.94,432.984 1911.41,462.094 1913.15,475.773 1914.88,488.533 1916.62,500.146 1918.35,510.404 1920.09,519.125 1921.82,526.154 1923.56,531.371    1925.29,534.687 1927.03,536.048 1928.76,535.438 1930.5,532.874 1932.23,528.411 1933.96,522.139 1935.7,514.179 1937.43,504.684 1939.17,493.832 1942.64,468.895    1946.11,441.213 1949.58,412.814 1953.05,385.758 1954.78,373.349 1956.52,361.987 1958.25,351.872 1959.99,343.182 1961.72,336.067 1963.46,330.647 1965.19,327.01    1966.93,325.213 1968.66,325.276 1970.4,327.187 1972.13,330.9 1973.87,336.334 1975.6,343.379 1977.34,351.898 1979.07,361.724 1980.81,372.669 1987.75,423.298    1994.69,473.556 1996.32,483.716 1997.95,492.898 1999.58,500.961 2001.21,507.783 2002.84,513.266 2004.47,517.331 2006.1,519.924 2007.73,521.016 2009.36,520.602    2010.99,518.701 2012.63,515.357 2014.26,510.636 2015.89,504.627 2017.52,497.437 2019.15,489.194 2020.78,480.04 2027.3,437.579 2033.83,394.276 2035.46,384.632    2037.09,375.775 2038.72,367.84 2040.35,360.944 2041.98,355.187 2043.61,350.65 2045.24,347.393 2046.87,345.454 2048.5,344.848 2050.14,345.571 2051.77,347.594    2053.4,350.87 2055.03,355.332 2056.66,360.891 2058.29,367.446 2059.92,374.877 2063.18,391.833 2066.44,410.6 2069.71,429.928 2072.97,448.566 2076.23,465.338    2079.49,479.224 2081.12,484.822 2082.75,489.417 2084.38,492.947 2086.01,495.373 2087.64,496.672 2089.28,496.841 2090.91,495.894 2092.54,493.865 2094.17,490.805    2095.8,486.78 2097.43,481.872 2099.06,476.175 2104.29,453.908 2109.51,428.694 2112.12,416.32 2114.74,404.783 2117.35,394.537 2119.96,385.968 2122.58,379.379    2125.19,374.979 2127.8,372.877 2130.41,373.083 2133.03,375.507 2135.64,379.968 2138.25,386.203 2140.86,393.885 2146.09,412.043 2151.32,431.148 2153.93,440.036    2156.54,448.001 2159.15,454.744 2161.77,460.036 2164.38,463.721 2166.99,465.717 2169.61,466.025 2172.22,464.718 2174.83,461.937 2177.44,457.883 2180.06,452.802    2182.67,446.976 2187.89,434.291 2193.12,422.184 2195.73,416.995 2198.35,412.649 2200.96,409.281 2203.57,406.975 2206.18,405.754 2208.8,405.588 2211.41,406.395    2214.02,408.051 2219.25,413.25 2224.47,419.686 2229.7,425.829 2234.92,430.447 2240.15,432.845 2245.38,432.969 2255.83,428.988 2266.28,426.211 2272.71,427.84    2279.14,432.058 2285.58,437.406 2292.01,441.599    "
     id="polyline125"
     transform="matrix(-1,0,0,0.70427126,2289.2126,-42.972599)" />
  <polyline
     clip-path="url(#clip142)"
     style="fill:none;stroke:#d40000;stroke-width:4.76639462;stroke-miterlimit:4;stroke-dasharray:none;stroke-opacity:1"
     points="   267.181,87.9763 268.417,88.4972 269.653,90.0551 270.888,92.6356 272.124,96.2146 273.36,100.759 274.596,106.226 275.832,112.566 277.068,119.718 279.54,136.191    282.011,155.033 284.483,175.547 286.955,196.975 289.812,221.839 292.669,245.64 294.097,256.772 295.526,267.208 296.954,276.819 298.382,285.487 299.811,293.106    301.239,299.584 302.668,304.843 304.096,308.819 305.525,311.465 306.953,312.751 308.382,312.662 309.81,311.204 311.238,308.395 312.667,304.274 314.095,298.893    315.524,292.322 316.952,284.644 318.381,275.957 319.809,266.369 321.238,256.002 324.094,233.456 326.951,209.44 329.808,185.142 332.665,161.76 334.093,150.773    335.522,140.436 336.95,130.877 338.379,122.209 339.807,114.538 341.236,107.955 342.664,102.538 344.093,98.3501 345.521,95.4386 346.949,93.8352 348.378,93.5552    349.806,94.5974 351.235,96.9441 352.663,100.561 354.092,105.4 355.52,111.396 356.949,118.469 358.377,126.53 359.805,135.474 361.234,145.186 364.091,166.419    366.948,189.162 369.804,212.285 372.661,234.649 375.518,255.161 378.375,272.831 379.804,280.331 381.232,286.82 382.66,292.223 384.089,296.478 385.517,299.539    386.946,301.376 388.374,301.971 389.803,301.324 391.231,299.451 392.66,296.381 394.088,292.16 395.516,286.846 396.945,280.511 398.373,273.24 399.802,265.128    401.23,256.281 404.087,236.845 406.944,215.916 409.801,194.543 412.658,173.781 415.515,154.643 418.371,138.045 419.8,130.949 421.228,124.768 422.657,119.57    424.085,115.414 425.514,112.342 426.942,110.384 428.371,109.556 429.799,109.858 431.227,111.28 432.656,113.793 434.084,117.357 435.513,121.921 436.941,127.419    438.37,133.775 439.798,140.904 441.226,148.709 444.083,165.937 446.94,184.57 449.797,203.667 452.654,222.281 455.511,239.506 458.368,254.521 459.796,260.977    461.225,266.631 462.653,271.423 464.082,275.3 465.51,278.225 466.938,280.172 468.367,281.125 469.795,281.086 471.512,279.74 473.229,277.018 474.946,272.988    476.663,267.74 480.096,254.049 483.53,237.037 486.964,218.006 490.398,198.362 493.831,179.518 497.265,162.785 498.982,155.569 500.699,149.282 502.416,144.021    504.133,139.863 505.849,136.865 507.566,135.06 509.283,134.461 511,135.056 512.717,136.814 514.434,139.682 516.151,143.587 517.868,148.44 521.301,160.555    524.735,175.036 528.169,190.757 531.602,206.549 535.036,221.282 538.47,233.949 540.187,239.244 541.904,243.736 543.621,247.361 545.337,250.074 547.054,251.847    548.771,252.671 550.488,252.553 552.205,251.52 555.639,246.89 559.072,239.293 562.506,229.434 565.94,218.147 569.374,206.33 572.807,194.872 576.241,184.582    579.675,176.139 582.578,170.815 585.481,167.356 588.384,165.836 591.287,166.217 594.191,168.36 597.094,172.035 599.997,176.941 602.9,182.724 608.706,195.402    614.513,207.119 617.416,211.847 620.319,215.536 623.222,218.065 626.126,219.397 631.932,218.697 637.738,214.532 643.545,208.686 649.351,203.085 655.157,199.26    660.964,197.95 666.77,198.966 672.576,201.312 678.884,203.685 685.191,204.158 691.498,201.713 697.806,196.542 704.113,190.084 710.42,184.636 713.574,183.067    716.728,182.624 719.881,183.492 723.035,185.762 726.189,189.425 729.342,194.354 732.496,200.318 735.65,206.981 738.803,213.93 741.957,220.696 745.111,226.786    748.264,231.719 751.418,235.063 754.572,236.466 757.725,235.688 760.879,232.626 764.033,227.326 767.186,219.993 770.34,210.978 773.494,200.77 776.401,190.814    779.308,180.871 782.216,171.488 785.123,163.208 788.031,156.536 790.938,151.912 793.845,149.681 796.753,150.07 799.66,153.172 802.568,158.936 805.475,167.161    808.382,177.505 811.29,189.496 814.197,202.558 817.105,216.033 820.012,229.219 822.919,241.404 825.827,251.908 828.734,260.116 831.642,265.52 833.095,267.046    834.549,267.743 836.003,267.587 837.456,266.568 838.91,264.686 840.364,261.953 841.817,258.392 843.271,254.038 846.179,243.144 849.086,229.758 851.993,214.513    854.901,198.158 857.808,181.52 860.716,165.465 863.623,150.845 866.53,138.462 867.31,135.616 868.089,132.994 868.868,130.607 869.647,128.465 871.206,124.954    872.764,122.528 874.323,121.234 875.881,121.108 877.44,122.163 878.999,124.399 880.557,127.797 882.116,132.318 883.674,137.908 885.233,144.497 888.35,160.304    891.467,178.874 894.584,199.16 897.701,219.986 900.818,240.122 903.935,258.354 905.493,266.399 907.052,273.559 908.61,279.717 910.169,284.774 911.727,288.643    913.286,291.258 914.844,292.567 916.403,292.54 917.962,291.165 919.52,288.451 921.079,284.428 922.637,279.144 924.196,272.666 925.754,265.082 927.313,256.494    928.871,247.023 935.105,203.139 941.339,157.461 942.898,147.035 944.456,137.331 946.015,128.499 947.573,120.676 949.132,113.984 950.69,108.529 952.249,104.4    953.807,101.668 955.366,100.38 956.924,100.565 958.483,102.23 960.042,105.358 961.6,109.912 963.159,115.833 964.717,123.042 966.276,131.438 968.081,142.496    969.887,154.781 971.693,168.055 973.498,182.062 977.11,211.171 980.721,239.824 982.527,253.264 984.333,265.75 986.138,277.028 987.944,286.868 989.75,295.07    991.555,301.461 993.361,305.907 995.167,308.309 996.972,308.612 998.778,306.8 1000.58,302.898 1002.39,296.976 1004.2,289.142 1006,279.543 1007.81,268.362    1009.61,255.815 1013.22,227.615 1016.84,197.135 1020.45,166.765 1024.06,138.899 1025.86,126.608 1027.67,115.748 1029.48,106.538 1031.28,99.1639 1033.09,93.7766    1034.89,90.4873 1036.7,89.366 1038.5,90.4396 1040.31,93.6918 1042.11,99.0628 1043.92,106.45 1045.73,115.713 1047.53,126.67 1049.34,139.108 1051.14,152.784    1052.95,167.429 1056.56,198.463 1060.17,229.774 1061.98,244.76 1063.78,258.901 1065.59,271.918 1067.39,283.551 1069.2,293.572 1071.01,301.781 1072.81,308.015    1074.62,312.152 1076.42,314.108 1078.23,313.846 1080.03,311.37 1081.84,306.729 1083.44,300.862 1085.05,293.449 1086.65,284.607 1088.26,274.474 1091.47,250.988    1094.68,224.453 1097.89,196.523 1101.1,168.933 1102.7,155.804 1104.31,143.394 1105.91,131.896 1107.52,121.488 1109.12,112.329 1110.72,104.561 1112.33,98.3032    1113.93,93.65 1115.54,90.6714 1117.14,89.4105 1118.75,89.884 1120.35,92.0808 1121.96,95.9634 1123.56,101.467 1125.17,108.504 1126.77,116.959 1128.38,126.699    1129.98,137.567 1131.59,149.393 1133.19,161.988 1136.4,188.689 1139.61,216.001 1142.82,242.228 1146.03,265.752 1147.63,276.04 1149.24,285.132 1150.84,292.891    1152.45,299.198 1154.05,303.963 1155.66,307.117 1157.26,308.615 1158.87,308.443 1160.47,306.609 1162.07,303.148 1163.68,298.121 1165.28,291.614 1166.89,283.733    1168.49,274.609 1170.1,264.388 1171.7,253.235 1178.12,203.011 1184.54,153.355 1185.95,143.78 1187.35,134.935 1188.76,126.923 1190.17,119.836 1191.58,113.753    1192.98,108.743 1194.39,104.861 1195.8,102.146 1197.21,100.625 1198.61,100.31 1200.02,101.199 1201.43,103.273 1202.83,106.501 1204.24,110.839 1205.65,116.226    1207.06,122.594 1209.87,137.929 1212.68,156.07 1215.5,176.117 1218.31,197.09 1221.13,217.976 1223.94,237.781 1226.76,255.575 1229.57,270.537 1230.98,276.739    1232.38,281.995 1233.79,286.247 1235.2,289.453 1236.61,291.581 1238.01,292.615 1239.42,292.55 1240.83,291.397 1242.23,289.176 1243.64,285.924 1245.05,281.688    1246.46,276.527 1249.27,263.717 1252.08,248.163 1257.71,212.061 1263.34,175.238 1266.16,158.756 1268.97,144.599 1270.38,138.596 1271.78,133.399 1273.19,129.062    1274.6,125.63 1276.13,122.956 1277.67,121.42 1279.2,121.032 1280.74,121.782 1282.27,123.648 1283.8,126.59 1285.34,130.552 1286.87,135.464 1289.94,147.804    1293.01,162.822 1296.08,179.598 1299.15,197.135 1302.21,214.416 1305.28,230.467 1308.35,244.411 1311.42,255.515 1312.95,259.824 1314.49,263.233 1316.02,265.708    1317.56,267.227 1319.09,267.783 1320.63,267.384 1322.16,266.05 1323.69,263.816 1326.76,256.848 1329.83,246.988 1332.9,234.897 1335.97,221.342 1339.04,207.15    1342.1,193.153 1345.17,180.146 1348.24,168.835 1349.77,164.002 1351.31,159.8 1352.84,156.275 1354.38,153.466 1355.91,151.399 1357.45,150.086 1358.98,149.532    1360.51,149.727 1363.58,152.277 1366.65,157.457 1369.72,164.846 1372.79,173.912 1378.96,194.732 1385.13,214.718 1388.22,222.958 1391.31,229.445 1394.39,233.896    1397.48,236.172 1400.57,236.276 1403.65,234.344 1406.74,230.633 1409.83,225.496 1416,212.656 1422.17,199.428 1425.26,193.706 1428.35,189.006 1431.43,185.537    1434.52,183.407 1437.61,182.619 1440.69,183.081 1443.78,184.619 1446.87,186.994 1453.04,193.107 1459.21,199.102 1465.39,203.117 1471.56,204.286 1478.38,202.679    1485.21,199.79 1492.04,197.994 1498.86,199.168 1505.69,203.789 1512.51,210.59 1515.92,214.006 1519.34,216.907 1522.75,218.897 1526.16,219.636 1529.57,218.87    1532.99,216.466 1536.4,212.434 1539.81,206.94 1546.64,192.948 1553.46,178.396 1556.88,172.423 1560.29,168.108 1563.7,165.939 1567.11,166.263 1570.53,169.251    1573.94,174.869 1577.35,182.869 1580.76,192.798 1587.26,214.626 1593.75,235.499 1597,243.708 1600.25,249.535 1601.87,251.386 1603.49,252.461 1605.12,252.721    1606.74,252.143 1608.36,250.716 1609.99,248.444 1611.61,245.345 1613.23,241.452 1616.48,231.486 1619.73,219.08 1626.22,189.986 1632.72,161.373 1634.34,155.211    1635.96,149.677 1637.59,144.872 1639.21,140.89 1640.83,137.811 1642.46,135.701 1644.08,134.611 1645.71,134.579 1647.33,135.621 1648.95,137.739 1650.58,140.917    1652.2,145.12 1653.82,150.296 1655.45,156.375 1657.07,163.274 1658.69,170.891 1665.19,206.123 1671.68,242.191 1673.31,250.224 1674.93,257.578 1676.55,264.125    1678.18,269.747 1679.8,274.341 1681.42,277.819 1683.05,280.11 1684.67,281.161 1686.36,280.905 1688.05,279.26 1689.73,276.238 1691.42,271.874 1693.11,266.228    1694.8,259.383 1696.49,251.443 1698.17,242.536 1701.55,222.412 1704.93,200.342 1708.3,177.828 1711.68,156.434 1713.37,146.637 1715.06,137.68 1716.74,129.728    1718.43,122.931 1720.12,117.419 1721.81,113.299 1723.5,110.659 1725.18,109.557 1726.87,110.029 1728.56,112.081 1730.25,115.691 1731.94,120.811 1733.62,127.365    1735.31,135.253 1737,144.348 1738.69,154.503 1742.07,177.305 1745.44,202.131 1748.82,227.289 1752.19,251.036 1753.88,261.851 1755.57,271.699 1757.26,280.402    1758.95,287.8 1760.63,293.754 1762.32,298.153 1764.01,300.908 1765.7,301.961 1767.39,301.281 1769.07,298.87 1770.76,294.758 1772.45,289.005 1774.14,281.701    1775.83,272.963 1777.52,262.933 1779.2,251.779 1782.58,226.86 1785.96,199.889 1789.33,172.709 1792.71,147.198 1794.13,137.396 1795.55,128.331 1796.97,120.118    1798.39,112.859 1799.81,106.65 1801.23,101.568 1802.66,97.6821 1804.08,95.0434 1805.5,93.6891 1806.92,93.6404 1808.34,94.9027 1809.76,97.465 1811.18,101.3    1812.6,106.366 1814.02,112.604 1815.44,119.941 1818.29,137.556 1821.13,158.372 1823.97,181.391 1826.81,205.497 1829.65,229.517 1832.5,252.275 1833.92,262.828    1835.34,272.653 1836.76,281.628 1838.18,289.642 1839.6,296.594 1841.02,302.397 1842.44,306.978 1843.86,310.278 1845.29,312.254 1846.71,312.88 1848.13,312.146    1849.55,310.058 1850.97,306.639 1852.39,301.93 1853.81,295.986 1855.23,288.878 1856.65,280.692 1858.07,271.526 1859.5,261.491 1860.92,250.709 1866.6,202.838    1872.28,154.47 1873.71,143.418 1875.13,133.062 1876.55,123.529 1877.97,114.937 1879.39,107.39 1880.81,100.982 1882.23,95.7907 1883.65,91.8807 1885.39,88.9123    1887.12,87.9783 1888.86,89.0958 1890.59,92.2443 1892.33,97.3662 1894.06,104.368 1895.8,113.12 1897.53,123.465 1899.27,135.211 1901,148.144 1902.74,162.028    1904.47,176.61 1907.94,206.792 1911.41,236.499 1913.15,250.496 1914.88,263.58 1916.62,275.512 1918.35,286.079 1920.09,295.089 1921.82,302.381 1923.56,307.825    1925.29,311.326 1927.03,312.823 1928.76,312.294 1930.5,309.752 1932.23,305.249 1933.96,298.87 1935.7,290.737 1937.43,281.001 1939.17,269.845 1942.64,244.12    1946.11,215.45 1949.58,185.928 1953.05,157.696 1954.78,144.708 1956.52,132.788 1958.25,122.149 1959.99,112.981 1961.72,105.444 1963.46,99.669 1965.19,95.7546    1966.93,93.764 1968.66,93.7253 1970.4,95.6309 1972.13,99.4373 1973.87,105.067 1975.6,112.408 1977.34,121.32 1979.07,131.633 1980.81,143.152 1987.75,196.743    1994.69,250.389 1996.32,261.299 1997.95,271.185 1999.58,279.893 2001.21,287.29 2002.84,293.264 2004.47,297.729 2006.1,300.62 2007.73,301.902 2009.36,301.565    2010.99,299.622 2012.63,296.118 2014.26,291.117 2015.89,284.711 2017.52,277.012 2019.15,268.154 2020.78,258.286 2024.04,236.199 2027.3,212.213 2030.57,187.886    2033.83,164.78 2035.46,154.146 2037.09,144.351 2038.72,135.545 2040.35,127.862 2041.98,121.415 2043.61,116.299 2045.24,112.585 2046.87,110.319 2048.5,109.526    2050.14,110.205 2051.77,112.332 2053.4,115.86 2055.03,120.717 2056.66,126.814 2058.29,134.04 2059.92,142.267 2063.18,161.145 2066.44,182.172 2069.71,203.961    2072.97,225.103 2074.6,235.008 2076.23,244.259 2077.86,252.716 2079.49,260.25 2081.12,266.751 2082.75,272.125 2084.38,276.299 2086.01,279.219 2087.64,280.855    2089.28,281.194 2090.91,280.247 2092.54,278.046 2094.17,274.643 2095.8,270.107 2097.43,264.527 2099.06,258.006 2101.67,245.9 2104.29,232.232 2106.9,217.601    2109.51,202.632 2112.12,187.953 2114.74,174.162 2117.35,161.808 2119.96,151.367 2122.58,143.224 2125.19,137.656 2127.8,134.829 2130.41,134.786 2133.03,137.454    2135.64,142.649 2138.25,150.083 2140.86,159.385 2143.48,170.114 2146.09,181.78 2148.7,193.871 2151.32,205.871 2153.93,217.282 2156.54,227.649 2159.15,236.574    2161.77,243.734 2164.38,248.892 2166.99,251.902 2169.61,252.719 2172.22,251.388 2174.83,248.049 2177.44,242.919 2180.06,236.288 2182.67,228.495 2187.89,210.958    2193.12,193.445 2195.73,185.619 2198.35,178.829 2200.96,173.312 2203.57,169.242 2206.18,166.717 2208.8,165.765 2211.41,166.339 2214.02,168.327 2216.63,171.559    2219.25,175.818 2221.86,180.852 2224.47,186.386 2229.7,197.838 2234.92,208.081 2237.54,212.217 2240.15,215.499 2242.76,217.842 2245.38,219.214 2247.99,219.636    2250.6,219.174 2253.21,217.94 2255.83,216.075 2261.05,211.134 2266.28,205.778 2272.71,200.502 2279.14,198.065 2285.58,198.645 2292.01,201.123    "
     id="polyline119"
     transform="matrix(-1,0,0,0.70427126,2289.2126,-42.972599)" />
  <circle
     style="fill:#00d4d4;fill-opacity:1;fill-rule:evenodd;stroke:#000000;stroke-width:3.20000005;stroke-opacity:1"
     clip-path="url(#clip142)"
     cx="1117.61"
     cy="89.369301"
     r="14"
     id="circle121"
     transform="matrix(-1,0,0,1,1519.957,-68.384526)" />
  <circle
     style="fill:#00d4d4;fill-opacity:1;fill-rule:evenodd;stroke:#000000;stroke-width:3.20000005;stroke-opacity:1"
     clip-path="url(#clip142)"
     cx="955.62299"
     cy="320.95999"
     r="14"
     id="circle127"
     transform="matrix(-1,0,0,1,1519.957,-131.12765)" />
  <circle
     style="fill:#00d4d4;fill-opacity:1;fill-rule:evenodd;stroke:#000000;stroke-width:3.20000005;stroke-opacity:1"
     clip-path="url(#clip142)"
     cx="793.63702"
     cy="578.88702"
     r="14"
     id="circle133"
     transform="matrix(-1,0,0,1,1518.8331,-204.0099)" />
  <circle
     style="fill:#0000d4;fill-opacity:1;fill-rule:evenodd;stroke:#000000;stroke-width:3.20000005;stroke-opacity:1"
     clip-path="url(#clip142)"
     cx="1384.89"
     cy="880.00702"
     r="14"
     id="circle141"
     transform="matrix(-1,0,0,1,2286.9649,-308.24048)" />
  <circle
     style="fill:#00d4d4;fill-opacity:1;fill-rule:evenodd;stroke:#000000;stroke-width:3.20000005;stroke-opacity:1"
     clip-path="url(#clip142)"
     cx="631.65002"
     cy="855.32397"
     r="14"
     id="circle139"
     transform="matrix(-1,0,0,1,1514.7123,-284.38452)" />
  <circle
     style="fill:#00d4d4;fill-opacity:1;fill-rule:evenodd;stroke:#000000;stroke-width:3.20000005;stroke-opacity:1"
     clip-path="url(#clip142)"
     cx="469.664"
     cy="1137.87"
     r="14"
     id="circle145"
     transform="matrix(-1,0,0,1,1521.0809,-368.1307)" />
  <circle
     style="fill:#00d4d4;fill-opacity:1;fill-rule:evenodd;stroke:#000000;stroke-width:3.20000005;stroke-opacity:1"
     clip-path="url(#clip142)"
     cx="307.677"
     cy="1412.6"
     r="14"
     id="circle151"
     transform="matrix(-1,0,0,1,1519.957,-454.63223)" />
  <circle
     style="fill:#0000d4;fill-opacity:1;fill-rule:evenodd;stroke:#000000;stroke-width:3.20000005;stroke-opacity:1"
     clip-path="url(#clip142)"
     cx="1482.08"
     cy="201.123"
     r="14"
     id="circle123"
     transform="matrix(-1,0,0,1,2289.5872,-102.11357)" />
  <circle
     style="fill:#0000d4;fill-opacity:1;fill-rule:evenodd;stroke:#000000;stroke-width:3.20000005;stroke-opacity:1"
     clip-path="url(#clip142)"
     cx="1449.6801"
     cy="427.418"
     r="14"
     id="circle129"
     transform="matrix(-1,0,0,1,2290.3364,-170.23438)" />
  <circle
     style="fill:#0000d4;fill-opacity:1;fill-rule:evenodd;stroke:#000000;stroke-width:3.20000005;stroke-opacity:1"
     clip-path="url(#clip142)"
     cx="1417.28"
     cy="653.71198"
     r="14"
     id="circle135"
     transform="matrix(-1,0,0,1,2289.9618,-235.73285)" />
  <circle
     style="fill:#0000d4;fill-opacity:1;fill-rule:evenodd;stroke:#000000;stroke-width:3.20000005;stroke-opacity:1"
     clip-path="url(#clip142)"
     cx="1352.49"
     cy="1106.3"
     r="14"
     id="circle147"
     transform="matrix(-1,0,0,1,2289.2126,-369.11052)" />
  <circle
     style="fill:#0000d4;fill-opacity:1;fill-rule:evenodd;stroke:#000000;stroke-width:3.20000005;stroke-opacity:1"
     clip-path="url(#clip142)"
     cx="1320.09"
     cy="1332.6"
     r="14"
     id="circle153"
     transform="matrix(-1,0,0,1,2289.2126,-436.98972)" />
  <rect
     style="opacity:1;fill:#ffffff;fill-opacity:1;fill-rule:evenodd;stroke:none;stroke-width:4;stroke-linecap:butt;stroke-linejoin:round;stroke-miterlimit:4;stroke-dasharray:none;stroke-dashoffset:0;stroke-opacity:1"
     id="rect5252"
     width="341.65195"
     height="1114.8643"
     x="1737.9384"
     y="-39.389824"
     rx="3.240248e-05"
     ry="3.240248e-05" />
  <rect
     style="opacity:1;fill:#ffffff;fill-opacity:1;fill-rule:evenodd;stroke:none;stroke-width:4;stroke-linecap:butt;stroke-linejoin:round;stroke-miterlimit:4;stroke-dasharray:none;stroke-dashoffset:0;stroke-opacity:1"
     id="rect5280"
     width="99.600586"
     height="27.549099"
     x="1635.7616"
     y="980.11218"
     rx="3.240248e-05"
     ry="3.240248e-05" />
  <rect
     style="opacity:1;fill:#ffffff;fill-opacity:1;fill-rule:evenodd;stroke:none;stroke-width:3.99999976;stroke-linecap:butt;stroke-linejoin:round;stroke-miterlimit:4;stroke-dasharray:none;stroke-dashoffset:0;stroke-opacity:1"
     id="rect5280-3"
     width="99.600578"
     height="27.549097"
     x="0"
     y="7.1054274e-15"
     rx="3.240248e-05"
     ry="3.240248e-05" />
</svg>
